G04 #@! TF.GenerationSoftware,KiCad,Pcbnew,9.0.2*
G04 #@! TF.CreationDate,2026-02-26T20:48:06+07:00*
G04 #@! TF.ProjectId,Connector_Extension_Board_V1.0,436f6e6e-6563-4746-9f72-5f457874656e,rev?*
G04 #@! TF.SameCoordinates,Original*
G04 #@! TF.FileFunction,Legend,Bot*
G04 #@! TF.FilePolarity,Positive*
%FSLAX46Y46*%
G04 Gerber Fmt 4.6, Leading zero omitted, Abs format (unit mm)*
G04 Created by KiCad (PCBNEW 9.0.2) date 2026-02-26 20:48:06*
%MOMM*%
%LPD*%
G01*
G04 APERTURE LIST*
G04 Aperture macros list*
%AMRoundRect*
0 Rectangle with rounded corners*
0 $1 Rounding radius*
0 $2 $3 $4 $5 $6 $7 $8 $9 X,Y pos of 4 corners*
0 Add a 4 corners polygon primitive as box body*
4,1,4,$2,$3,$4,$5,$6,$7,$8,$9,$2,$3,0*
0 Add four circle primitives for the rounded corners*
1,1,$1+$1,$2,$3*
1,1,$1+$1,$4,$5*
1,1,$1+$1,$6,$7*
1,1,$1+$1,$8,$9*
0 Add four rect primitives between the rounded corners*
20,1,$1+$1,$2,$3,$4,$5,0*
20,1,$1+$1,$4,$5,$6,$7,0*
20,1,$1+$1,$6,$7,$8,$9,0*
20,1,$1+$1,$8,$9,$2,$3,0*%
G04 Aperture macros list end*
%ADD10C,3.110399*%
%ADD11C,1.601200*%
%ADD12C,0.836200*%
%ADD13C,0.010000*%
%ADD14C,1.176200*%
%ADD15C,2.000000*%
%ADD16C,5.800000*%
%ADD17C,2.400000*%
%ADD18RoundRect,0.102000X0.900000X0.900000X-0.900000X0.900000X-0.900000X-0.900000X0.900000X-0.900000X0*%
%ADD19C,1.954000*%
%ADD20C,3.050000*%
%ADD21C,2.504000*%
%ADD22R,2.000000X2.000000*%
G04 #@! TA.AperFunction,Profile*
%ADD23C,0.100000*%
G04 #@! TD*
G04 APERTURE END LIST*
%LPC*%
D10*
X105055199Y-114500000D02*
G75*
G02*
X101944801Y-114500000I-1555199J0D01*
G01*
X101944801Y-114500000D02*
G75*
G02*
X105055199Y-114500000I1555199J0D01*
G01*
X114555199Y-52510399D02*
G75*
G02*
X111444801Y-52510399I-1555199J0D01*
G01*
X111444801Y-52510399D02*
G75*
G02*
X114555199Y-52510399I1555199J0D01*
G01*
X164055199Y-114500000D02*
G75*
G02*
X160944801Y-114500000I-1555199J0D01*
G01*
X160944801Y-114500000D02*
G75*
G02*
X164055199Y-114500000I1555199J0D01*
G01*
D11*
X142858225Y-112459800D02*
G75*
G02*
X141257025Y-112459800I-800600J0D01*
G01*
X141257025Y-112459800D02*
G75*
G02*
X142858225Y-112459800I800600J0D01*
G01*
D12*
X144225725Y-104549800D02*
G75*
G02*
X143389525Y-104549800I-418100J0D01*
G01*
X143389525Y-104549800D02*
G75*
G02*
X144225725Y-104549800I418100J0D01*
G01*
D13*
X141143825Y-105386000D02*
X139471425Y-105386000D01*
X139471425Y-103713600D01*
X141143825Y-103713600D01*
X141143825Y-105386000D01*
G36*
X141143825Y-105386000D02*
G01*
X139471425Y-105386000D01*
X139471425Y-103713600D01*
X141143825Y-103713600D01*
X141143825Y-105386000D01*
G37*
D12*
X153310100Y-62349800D02*
G75*
G02*
X152473900Y-62349800I-418100J0D01*
G01*
X152473900Y-62349800D02*
G75*
G02*
X153310100Y-62349800I418100J0D01*
G01*
D11*
X155442600Y-54439800D02*
G75*
G02*
X153841400Y-54439800I-800600J0D01*
G01*
X153841400Y-54439800D02*
G75*
G02*
X155442600Y-54439800I800600J0D01*
G01*
D13*
X157228200Y-63186000D02*
X155555800Y-63186000D01*
X155555800Y-61513600D01*
X157228200Y-61513600D01*
X157228200Y-63186000D01*
G36*
X157228200Y-63186000D02*
G01*
X155555800Y-63186000D01*
X155555800Y-61513600D01*
X157228200Y-61513600D01*
X157228200Y-63186000D01*
G37*
D11*
X154312600Y-112459800D02*
G75*
G02*
X152711400Y-112459800I-800600J0D01*
G01*
X152711400Y-112459800D02*
G75*
G02*
X154312600Y-112459800I800600J0D01*
G01*
D12*
X155680100Y-104549800D02*
G75*
G02*
X154843900Y-104549800I-418100J0D01*
G01*
X154843900Y-104549800D02*
G75*
G02*
X155680100Y-104549800I418100J0D01*
G01*
D13*
X152598200Y-105386000D02*
X150925800Y-105386000D01*
X150925800Y-103713600D01*
X152598200Y-103713600D01*
X152598200Y-105386000D01*
G36*
X152598200Y-105386000D02*
G01*
X150925800Y-105386000D01*
X150925800Y-103713600D01*
X152598200Y-103713600D01*
X152598200Y-105386000D01*
G37*
D11*
X131403850Y-112459800D02*
G75*
G02*
X129802650Y-112459800I-800600J0D01*
G01*
X129802650Y-112459800D02*
G75*
G02*
X131403850Y-112459800I800600J0D01*
G01*
D12*
X132771350Y-104549800D02*
G75*
G02*
X131935150Y-104549800I-418100J0D01*
G01*
X131935150Y-104549800D02*
G75*
G02*
X132771350Y-104549800I418100J0D01*
G01*
D13*
X129689450Y-105386000D02*
X128017050Y-105386000D01*
X128017050Y-103713600D01*
X129689450Y-103713600D01*
X129689450Y-105386000D01*
G36*
X129689450Y-105386000D02*
G01*
X128017050Y-105386000D01*
X128017050Y-103713600D01*
X129689450Y-103713600D01*
X129689450Y-105386000D01*
G37*
D14*
X121664115Y-54435762D02*
G75*
G02*
X120487915Y-54435762I-588100J0D01*
G01*
X120487915Y-54435762D02*
G75*
G02*
X121664115Y-54435762I588100J0D01*
G01*
D12*
X123994115Y-62345762D02*
G75*
G02*
X123157915Y-62345762I-418100J0D01*
G01*
X123157915Y-62345762D02*
G75*
G02*
X123994115Y-62345762I418100J0D01*
G01*
D11*
X126126615Y-54435762D02*
G75*
G02*
X124525415Y-54435762I-800600J0D01*
G01*
X124525415Y-54435762D02*
G75*
G02*
X126126615Y-54435762I800600J0D01*
G01*
D12*
X127494115Y-62345762D02*
G75*
G02*
X126657915Y-62345762I-418100J0D01*
G01*
X126657915Y-62345762D02*
G75*
G02*
X127494115Y-62345762I418100J0D01*
G01*
X130994115Y-62345762D02*
G75*
G02*
X130157915Y-62345762I-418100J0D01*
G01*
X130157915Y-62345762D02*
G75*
G02*
X130994115Y-62345762I418100J0D01*
G01*
D11*
X133126615Y-54435762D02*
G75*
G02*
X131525415Y-54435762I-800600J0D01*
G01*
X131525415Y-54435762D02*
G75*
G02*
X133126615Y-54435762I800600J0D01*
G01*
D14*
X137164115Y-54435762D02*
G75*
G02*
X135987915Y-54435762I-588100J0D01*
G01*
X135987915Y-54435762D02*
G75*
G02*
X137164115Y-54435762I588100J0D01*
G01*
D13*
X134912215Y-63181962D02*
X133239815Y-63181962D01*
X133239815Y-61509562D01*
X134912215Y-61509562D01*
X134912215Y-63181962D01*
G36*
X134912215Y-63181962D02*
G01*
X133239815Y-63181962D01*
X133239815Y-61509562D01*
X134912215Y-61509562D01*
X134912215Y-63181962D01*
G37*
D15*
X102502000Y-86099800D03*
D16*
X103500000Y-114500000D03*
X162500000Y-114500000D03*
D17*
X122813875Y-113769050D03*
X117333875Y-113769050D03*
D18*
X121343875Y-105129050D03*
D19*
X118803875Y-105129050D03*
D15*
X160902000Y-86599800D03*
D20*
X142057625Y-112459800D03*
D21*
X137807625Y-112459800D03*
X146307625Y-112459800D03*
D16*
X113000000Y-52500000D03*
D20*
X154642000Y-54439800D03*
D21*
X158892000Y-54439800D03*
X150392000Y-54439800D03*
D15*
X160902000Y-82639800D03*
D20*
X153512000Y-112459800D03*
D21*
X149262000Y-112459800D03*
X157762000Y-112459800D03*
D20*
X130603250Y-112459800D03*
D21*
X126353250Y-112459800D03*
X134853250Y-112459800D03*
D17*
X113784500Y-113769050D03*
X108304500Y-113769050D03*
D18*
X112314500Y-105129050D03*
D19*
X109774500Y-105129050D03*
D15*
X102502000Y-82139800D03*
D20*
X132326015Y-54435762D03*
X125326015Y-54435762D03*
D22*
X134076015Y-62345762D03*
D15*
X130576015Y-62345762D03*
X127076015Y-62345762D03*
X123576015Y-62345762D03*
%LPD*%
D23*
X98349000Y-49000000D02*
X166000000Y-49000000D01*
X166000000Y-118000000D01*
X98349000Y-118000000D01*
X98349000Y-49000000D01*
M02*
