%TF.GenerationSoftware,KiCad,Pcbnew,9.0.0*%
%TF.CreationDate,2026-02-25T14:51:27+07:00*%
%TF.ProjectId,Connector_Extension_Board_V1.0,436f6e6e-6563-4746-9f72-5f457874656e,rev?*%
%TF.SameCoordinates,Original*%
%TF.FileFunction,Copper,L4,Bot*%
%TF.FilePolarity,Positive*%
%FSLAX46Y46*%
G04 Gerber Fmt 4.6, Leading zero omitted, Abs format (unit mm)*
G04 Created by KiCad (PCBNEW 9.0.0) date 2026-02-25 14:51:27*
%MOMM*%
%LPD*%
G01*
G04 APERTURE LIST*
%TA.AperFunction,ComponentPad*%
%ADD10C,2.000000*%
%TD*%
%TA.AperFunction,ComponentPad*%
%ADD11C,5.800000*%
%TD*%
%TA.AperFunction,ComponentPad*%
%ADD12R,1.800000X1.800000*%
%TD*%
%TA.AperFunction,ComponentPad*%
%ADD13C,1.750000*%
%TD*%
%TA.AperFunction,ComponentPad*%
%ADD14C,0.500000*%
%TD*%
%TA.AperFunction,ComponentPad*%
%ADD15R,2.000000X2.000000*%
%TD*%
%TA.AperFunction,ComponentPad*%
%ADD16C,2.300000*%
%TD*%
%TA.AperFunction,ComponentPad*%
%ADD17C,2.200000*%
%TD*%
%TA.AperFunction,ViaPad*%
%ADD18C,0.500000*%
%TD*%
%TA.AperFunction,Profile*%
%ADD19C,0.100000*%
%TD*%
G04 APERTURE END LIST*
D10*
X102502000Y-86099800D03*
D11*
X103500000Y-114500000D03*
X162500000Y-114500000D03*
D12*
X121343875Y-105129050D03*
D13*
X118803875Y-105129050D03*
D10*
X160902000Y-86599800D03*
D14*
X155182000Y-91919800D03*
X153982000Y-91919800D03*
X152782000Y-91919800D03*
X151582000Y-91919800D03*
X155182000Y-93119800D03*
X153982000Y-93119800D03*
X152782000Y-93119800D03*
X151582000Y-93119800D03*
X155182000Y-94319800D03*
X153982000Y-94319800D03*
X152782000Y-94319800D03*
X151582000Y-94319800D03*
D15*
X140307625Y-104549800D03*
D10*
X143807625Y-104549800D03*
D16*
X137807625Y-112459800D03*
X146307625Y-112459800D03*
D11*
X113000000Y-52500000D03*
D15*
X156392000Y-62349800D03*
D10*
X152892000Y-62349800D03*
D16*
X158892000Y-54439800D03*
X150392000Y-54439800D03*
D10*
X160902000Y-82639800D03*
D15*
X151762000Y-104549800D03*
D10*
X155262000Y-104549800D03*
D16*
X149262000Y-112459800D03*
X157762000Y-112459800D03*
D15*
X128853250Y-104549800D03*
D10*
X132353250Y-104549800D03*
D16*
X126353250Y-112459800D03*
X134853250Y-112459800D03*
D12*
X112314500Y-105129050D03*
D13*
X109774500Y-105129050D03*
D10*
X102502000Y-82139800D03*
D15*
X134076015Y-62345762D03*
D10*
X130576015Y-62345762D03*
X127076015Y-62345762D03*
X123576015Y-62345762D03*
D17*
X136576015Y-54435762D03*
X121076015Y-54435762D03*
D18*
X127327000Y-93549800D03*
X120702000Y-93349800D03*
X128052000Y-66449800D03*
X130552000Y-64199800D03*
X128077000Y-92799800D03*
X107302000Y-102949800D03*
X133853250Y-102949800D03*
X135353250Y-105949800D03*
X128077000Y-93549800D03*
X116952000Y-92799800D03*
X108052000Y-104449800D03*
X130552000Y-68699800D03*
X157252000Y-77247300D03*
X156802000Y-102949800D03*
X145852000Y-71924800D03*
X128052000Y-64199800D03*
X108052000Y-102949800D03*
X116302000Y-105199800D03*
X145677000Y-69949800D03*
X134603250Y-104449800D03*
X157552000Y-104449800D03*
X146002000Y-67749800D03*
X134603250Y-103699800D03*
X143052000Y-102949800D03*
X116302000Y-104449800D03*
X127327000Y-92799800D03*
X146802000Y-105199800D03*
X109477000Y-93349800D03*
X112152000Y-93699800D03*
X111402000Y-93699800D03*
X129802000Y-67199800D03*
X145252000Y-66999800D03*
X146002000Y-66999800D03*
X150052000Y-62699800D03*
X135353250Y-103699800D03*
X141652000Y-93349800D03*
X127302000Y-68699800D03*
X122627000Y-93699800D03*
X107227000Y-92799800D03*
X145252000Y-66249800D03*
X130052000Y-93374800D03*
X144552000Y-102949800D03*
X107127000Y-75699800D03*
X134603250Y-105949800D03*
X116302000Y-103699800D03*
X143852000Y-93674800D03*
X102302000Y-59949800D03*
X119677000Y-93374800D03*
X157552000Y-105199800D03*
X130552000Y-65699800D03*
X112152000Y-92949800D03*
X110552000Y-75849800D03*
X160677000Y-77397300D03*
X128052000Y-68699800D03*
X122627000Y-92949800D03*
X144602000Y-93674800D03*
X138927000Y-93524800D03*
X130552000Y-69449800D03*
X150802000Y-62699800D03*
X146802000Y-103699800D03*
X108452000Y-93374800D03*
X131077000Y-93349800D03*
X133752000Y-92949800D03*
X135353250Y-104449800D03*
X130552000Y-67199800D03*
X128052000Y-67949800D03*
X107302000Y-105949800D03*
X145102000Y-71924800D03*
X130552000Y-67949800D03*
X108052000Y-105199800D03*
X150052000Y-61949800D03*
X146802000Y-105949800D03*
X158302000Y-102949800D03*
X145852000Y-71174800D03*
X102302000Y-60699800D03*
X130552000Y-70199800D03*
X146002000Y-66249800D03*
X158302000Y-105199800D03*
X121877000Y-92949800D03*
X101552000Y-61449800D03*
X106477000Y-92799800D03*
X128052000Y-67199800D03*
X107127000Y-74949800D03*
X162177000Y-76647300D03*
X129802000Y-64199800D03*
X128052000Y-65699800D03*
X105627000Y-75699800D03*
X116302000Y-105949800D03*
X135353250Y-105199800D03*
X128052000Y-69449800D03*
X158302000Y-103699800D03*
X132252000Y-92949800D03*
X145352000Y-93674800D03*
X110552000Y-75099800D03*
X142677000Y-93324800D03*
X157552000Y-102949800D03*
X134603250Y-105199800D03*
X111302000Y-75849800D03*
X134603250Y-102949800D03*
X112052000Y-75099800D03*
X105727000Y-93549800D03*
X150802000Y-63449800D03*
X150802000Y-61949800D03*
X157552000Y-105949800D03*
X140427000Y-92774800D03*
X145252000Y-67749800D03*
X127302000Y-64199800D03*
X146052000Y-104449800D03*
X102302000Y-62199800D03*
X160677000Y-76647300D03*
X156502000Y-76497300D03*
X105727000Y-92799800D03*
X145302000Y-102949800D03*
X110652000Y-93699800D03*
X117052000Y-104449800D03*
X106477000Y-93549800D03*
X128827000Y-92799800D03*
X145352000Y-92924800D03*
X121877000Y-93699800D03*
X161427000Y-76647300D03*
X146802000Y-104449800D03*
X129802000Y-66449800D03*
X129802000Y-65699800D03*
X158477000Y-77072300D03*
X143802000Y-102949800D03*
X107302000Y-104449800D03*
X129802000Y-68699800D03*
X158302000Y-104449800D03*
X127302000Y-65699800D03*
X112052000Y-75849800D03*
X105627000Y-74949800D03*
X111302000Y-75099800D03*
X162177000Y-77397300D03*
X154552000Y-102949800D03*
X108352000Y-75524800D03*
X129802000Y-64949800D03*
X161427000Y-77397300D03*
X106377000Y-75699800D03*
X138927000Y-92774800D03*
X108052000Y-105949800D03*
X146052000Y-103699800D03*
X117052000Y-103699800D03*
X127302000Y-67949800D03*
X128052000Y-64949800D03*
X128827000Y-93549800D03*
X131603250Y-102949800D03*
X156502000Y-77247300D03*
X146802000Y-102949800D03*
X129802000Y-67949800D03*
X101552000Y-60699800D03*
X101552000Y-62199800D03*
X123377000Y-93699800D03*
X127302000Y-64949800D03*
X127302000Y-70199800D03*
X111402000Y-92949800D03*
X155302000Y-102949800D03*
X143852000Y-92924800D03*
X145852000Y-72674800D03*
X155752000Y-77247300D03*
X150802000Y-61199800D03*
X101552000Y-59949800D03*
X130552000Y-64949800D03*
X155752000Y-76497300D03*
X116952000Y-93549800D03*
X127302000Y-69449800D03*
X140427000Y-93524800D03*
X145102000Y-72674800D03*
X146052000Y-105949800D03*
X130552000Y-66449800D03*
X157252000Y-76497300D03*
X117052000Y-102949800D03*
X128052000Y-70199800D03*
X133103250Y-102949800D03*
X106377000Y-74949800D03*
X150052000Y-61199800D03*
X159502000Y-77047300D03*
X117702000Y-92799800D03*
X157552000Y-103699800D03*
X129802000Y-69449800D03*
X139677000Y-92774800D03*
X132353250Y-102949800D03*
X133752000Y-93699800D03*
X107302000Y-103699800D03*
X109377000Y-75499800D03*
X107227000Y-93549800D03*
X117052000Y-105199800D03*
X118452000Y-92799800D03*
X110652000Y-92949800D03*
X135353250Y-102949800D03*
X158302000Y-105949800D03*
X117702000Y-93549800D03*
X118452000Y-93549800D03*
X102302000Y-61449800D03*
X139677000Y-93524800D03*
X146052000Y-105199800D03*
X145652000Y-68924800D03*
X133002000Y-93699800D03*
X150052000Y-63449800D03*
X123377000Y-92949800D03*
X145102000Y-71174800D03*
X108052000Y-103699800D03*
X107302000Y-105199800D03*
X133002000Y-92949800D03*
X116302000Y-102949800D03*
X132252000Y-93699800D03*
X144602000Y-92924800D03*
X127302000Y-67199800D03*
X127302000Y-66449800D03*
X156052000Y-102949800D03*
X129802000Y-70199800D03*
X146052000Y-102949800D03*
X117052000Y-105949800D03*
X129454500Y-84949800D03*
X158052000Y-100199800D03*
X156552000Y-100949800D03*
X138802000Y-70449800D03*
X138052000Y-71199800D03*
X142552000Y-86449800D03*
X139552000Y-84949800D03*
X139552000Y-68199800D03*
X138802000Y-68199800D03*
X138052000Y-70449800D03*
X135302000Y-64949800D03*
X141802000Y-86449800D03*
X159552000Y-99449800D03*
X139552000Y-68949800D03*
X130204500Y-85699800D03*
X130204500Y-84949800D03*
X135302000Y-67949800D03*
X136802000Y-66449800D03*
X129454500Y-86449800D03*
X128704500Y-86449800D03*
X139552000Y-70449800D03*
X135302000Y-70199800D03*
X136052000Y-65699800D03*
X155802000Y-100949800D03*
X159552000Y-100199800D03*
X141052000Y-84949800D03*
X136052000Y-68699800D03*
X139552000Y-85699800D03*
X141802000Y-84949800D03*
X141802000Y-85699800D03*
X139552000Y-86449800D03*
X130954500Y-86449800D03*
X135302000Y-65699800D03*
X155802000Y-100199800D03*
X158052000Y-70999800D03*
X156552000Y-99449800D03*
X142552000Y-85699800D03*
X138802000Y-71199800D03*
X127954500Y-85699800D03*
X130954500Y-85699800D03*
X158802000Y-99449800D03*
X136802000Y-68699800D03*
X142552000Y-84949800D03*
X158052000Y-99449800D03*
X154302000Y-99449800D03*
X136802000Y-67949800D03*
X138052000Y-68949800D03*
X136802000Y-69449800D03*
X139552000Y-69699800D03*
X129454500Y-85699800D03*
X140302000Y-85699800D03*
X140302000Y-84949800D03*
X159552000Y-100949800D03*
X140302000Y-86449800D03*
X136052000Y-66449800D03*
X158802000Y-100949800D03*
X127954500Y-84949800D03*
X130954500Y-84949800D03*
X157302000Y-70249800D03*
X138802000Y-69699800D03*
X139552000Y-71199800D03*
X135302000Y-69449800D03*
X136052000Y-67949800D03*
X157302000Y-100949800D03*
X128704500Y-85699800D03*
X136802000Y-70199800D03*
X136802000Y-67199800D03*
X155052000Y-100199800D03*
X138802000Y-68949800D03*
X135302000Y-67199800D03*
X130204500Y-86449800D03*
X141052000Y-85699800D03*
X158052000Y-70249800D03*
X158802000Y-100199800D03*
X138052000Y-68199800D03*
X155052000Y-100949800D03*
X141052000Y-86449800D03*
X138052000Y-69699800D03*
X157302000Y-100199800D03*
X156552000Y-100199800D03*
X157302000Y-70999800D03*
X128704500Y-84949800D03*
X136052000Y-70199800D03*
X127954500Y-86449800D03*
X154302000Y-100199800D03*
X136052000Y-69449800D03*
X135302000Y-68699800D03*
X155802000Y-99449800D03*
X136802000Y-65699800D03*
X136052000Y-64949800D03*
X135302000Y-66449800D03*
X154302000Y-100949800D03*
X158052000Y-100949800D03*
X155052000Y-99449800D03*
X136052000Y-67199800D03*
X157302000Y-99449800D03*
X136802000Y-64949800D03*
X121802000Y-67699800D03*
X121802000Y-65449800D03*
X106302000Y-69199800D03*
X107802000Y-85239800D03*
X120302000Y-67699800D03*
X105552000Y-69199800D03*
X120302000Y-66949800D03*
X121802000Y-63949800D03*
X119742000Y-84959800D03*
X106302000Y-68449800D03*
X118992000Y-85709800D03*
X108552000Y-85239800D03*
X120302000Y-69199800D03*
X119742000Y-85709800D03*
X120492000Y-85709800D03*
X118992000Y-86459800D03*
X120302000Y-68449800D03*
X108552000Y-69199800D03*
X121052000Y-66199800D03*
X121052000Y-68449800D03*
X121052000Y-66949800D03*
X118992000Y-84959800D03*
X121802000Y-69199800D03*
X109302000Y-85239800D03*
X117492000Y-84959800D03*
X118242000Y-85709800D03*
X117492000Y-85709800D03*
X118242000Y-84959800D03*
X107052000Y-85989800D03*
X106302000Y-86739800D03*
X107052000Y-85239800D03*
X107802000Y-68449800D03*
X108552000Y-67699800D03*
X109302000Y-86739800D03*
X106302000Y-85239800D03*
X120302000Y-65449800D03*
X108552000Y-86739800D03*
X121802000Y-64699800D03*
X121052000Y-64699800D03*
X121052000Y-67699800D03*
X105552000Y-67699800D03*
X118242000Y-86459800D03*
X120302000Y-66199800D03*
X117492000Y-86459800D03*
X121052000Y-69199800D03*
X120302000Y-63949800D03*
X121802000Y-66949800D03*
X121802000Y-68449800D03*
X108552000Y-68449800D03*
X106302000Y-85989800D03*
X121052000Y-63949800D03*
X121052000Y-65449800D03*
X105552000Y-68449800D03*
X107052000Y-68449800D03*
X120492000Y-86459800D03*
X109302000Y-85989800D03*
X121802000Y-66199800D03*
X107052000Y-86739800D03*
X120492000Y-84959800D03*
X107802000Y-85989800D03*
X107052000Y-67699800D03*
X107802000Y-69199800D03*
X119742000Y-86459800D03*
X107802000Y-67699800D03*
X120302000Y-64699800D03*
X108552000Y-85989800D03*
X106302000Y-67699800D03*
X107802000Y-86739800D03*
X107052000Y-69199800D03*
X152552000Y-97699800D03*
X151802000Y-97699800D03*
X152552000Y-99949800D03*
X151052000Y-102199800D03*
X152552000Y-100699800D03*
X151802000Y-99199800D03*
X152552000Y-99199800D03*
X152552000Y-98449800D03*
X151802000Y-101449800D03*
X150302000Y-102199800D03*
X151802000Y-100699800D03*
X152552000Y-102199800D03*
X151802000Y-99949800D03*
X151052000Y-101449800D03*
X151802000Y-98449800D03*
X150302000Y-101449800D03*
X151802000Y-102199800D03*
X150302000Y-100699800D03*
X151052000Y-100699800D03*
X152552000Y-101449800D03*
X131279500Y-90499800D03*
X151422000Y-85599800D03*
X141752000Y-68774800D03*
X142877000Y-90499800D03*
X159527000Y-74474800D03*
X144252000Y-80199800D03*
%TA.AperFunction,Conductor*%
G36*
X123994273Y-60196081D02*
G01*
X124014915Y-60212715D01*
X125198464Y-61396264D01*
X125231949Y-61457587D01*
X125234783Y-61483945D01*
X125234783Y-73193241D01*
X125215098Y-73260280D01*
X125210728Y-73266638D01*
X123377000Y-75763631D01*
X123377000Y-86044576D01*
X123357315Y-86111615D01*
X123335954Y-86136741D01*
X122836647Y-86586119D01*
X122069460Y-87276587D01*
X122006461Y-87306802D01*
X121987237Y-87308416D01*
X106503788Y-87399495D01*
X106436634Y-87380205D01*
X106415378Y-87363178D01*
X105638319Y-86586119D01*
X105604834Y-86524796D01*
X105602000Y-86498438D01*
X105602000Y-84851162D01*
X105621685Y-84784123D01*
X105638319Y-84763481D01*
X109665681Y-80736119D01*
X109727004Y-80702634D01*
X109753362Y-80699800D01*
X113852001Y-80699800D01*
X113852000Y-80699799D01*
X114102000Y-80283133D01*
X114102000Y-72349800D01*
X111202000Y-69449800D01*
X104803362Y-69449800D01*
X104736323Y-69430115D01*
X104715681Y-69413481D01*
X104488319Y-69186119D01*
X104454834Y-69124796D01*
X104452000Y-69098438D01*
X104452000Y-63503247D01*
X122984213Y-63503247D01*
X123076983Y-63550517D01*
X123271597Y-63613752D01*
X123473698Y-63645762D01*
X123678332Y-63645762D01*
X123880432Y-63613752D01*
X124075046Y-63550517D01*
X124167816Y-63503247D01*
X123576016Y-62911447D01*
X123576015Y-62911447D01*
X122984213Y-63503247D01*
X104452000Y-63503247D01*
X104452000Y-62243444D01*
X122276015Y-62243444D01*
X122276015Y-62448079D01*
X122308024Y-62650179D01*
X122371258Y-62844789D01*
X122371261Y-62844796D01*
X122418527Y-62937563D01*
X123010329Y-62345762D01*
X123010329Y-62345761D01*
X122941212Y-62276644D01*
X123051015Y-62276644D01*
X123051015Y-62414880D01*
X123086793Y-62548404D01*
X123155911Y-62668119D01*
X123253658Y-62765866D01*
X123373373Y-62834984D01*
X123506897Y-62870762D01*
X123645133Y-62870762D01*
X123778657Y-62834984D01*
X123898372Y-62765866D01*
X123996119Y-62668119D01*
X124065237Y-62548404D01*
X124101015Y-62414880D01*
X124101015Y-62345761D01*
X124141700Y-62345761D01*
X124141700Y-62345762D01*
X124733500Y-62937562D01*
X124780770Y-62844793D01*
X124844005Y-62650179D01*
X124876015Y-62448079D01*
X124876015Y-62243444D01*
X124844005Y-62041344D01*
X124780770Y-61846730D01*
X124733500Y-61753960D01*
X124141700Y-62345761D01*
X124101015Y-62345761D01*
X124101015Y-62276644D01*
X124065237Y-62143120D01*
X123996119Y-62023405D01*
X123898372Y-61925658D01*
X123778657Y-61856540D01*
X123645133Y-61820762D01*
X123506897Y-61820762D01*
X123373373Y-61856540D01*
X123253658Y-61925658D01*
X123155911Y-62023405D01*
X123086793Y-62143120D01*
X123051015Y-62276644D01*
X122941212Y-62276644D01*
X122418527Y-61753959D01*
X122371257Y-61846735D01*
X122371257Y-61846736D01*
X122308025Y-62041340D01*
X122308025Y-62041343D01*
X122276015Y-62243444D01*
X104452000Y-62243444D01*
X104452000Y-61527758D01*
X104471685Y-61460719D01*
X104488319Y-61440077D01*
X104740122Y-61188274D01*
X122984212Y-61188274D01*
X123576015Y-61780076D01*
X123576016Y-61780076D01*
X124167816Y-61188274D01*
X124075049Y-61141008D01*
X124075042Y-61141005D01*
X123880432Y-61077771D01*
X123678332Y-61045762D01*
X123473698Y-61045762D01*
X123271596Y-61077772D01*
X123271593Y-61077772D01*
X123076989Y-61141004D01*
X123076988Y-61141004D01*
X122984212Y-61188274D01*
X104740122Y-61188274D01*
X105715681Y-60212715D01*
X105777004Y-60179230D01*
X105803362Y-60176396D01*
X123927234Y-60176396D01*
X123994273Y-60196081D01*
G37*
%TD.AperFunction*%
%TA.AperFunction,Conductor*%
G36*
X162267677Y-75919485D02*
G01*
X162288319Y-75936119D01*
X162715681Y-76363481D01*
X162749166Y-76424804D01*
X162752000Y-76451162D01*
X162752000Y-78048438D01*
X162732315Y-78115477D01*
X162715681Y-78136119D01*
X162488319Y-78363481D01*
X162426996Y-78396966D01*
X162400638Y-78399800D01*
X155403362Y-78399800D01*
X155336323Y-78380115D01*
X155315681Y-78363481D01*
X155088319Y-78136119D01*
X155054834Y-78074796D01*
X155052000Y-78048438D01*
X155052000Y-76251162D01*
X155071685Y-76184123D01*
X155088319Y-76163481D01*
X155315681Y-75936119D01*
X155377004Y-75902634D01*
X155403362Y-75899800D01*
X162200638Y-75899800D01*
X162267677Y-75919485D01*
G37*
%TD.AperFunction*%
%TA.AperFunction,Conductor*%
G36*
X139894328Y-60194595D02*
G01*
X139914945Y-60211203D01*
X140916074Y-61211751D01*
X140949577Y-61273065D01*
X140952418Y-61299386D01*
X140957062Y-69294151D01*
X140957066Y-69299800D01*
X141568033Y-69299800D01*
X141600126Y-69304025D01*
X141610108Y-69306699D01*
X141679525Y-69325300D01*
X141679527Y-69325300D01*
X141824473Y-69325300D01*
X141824475Y-69325300D01*
X141895786Y-69306192D01*
X141903874Y-69304025D01*
X141935967Y-69299800D01*
X144022500Y-69299800D01*
X144089539Y-69319485D01*
X144135294Y-69372289D01*
X144146500Y-69423800D01*
X144146500Y-73348438D01*
X144148250Y-73381081D01*
X144148254Y-73381134D01*
X144151081Y-73407425D01*
X144151920Y-73414460D01*
X144151920Y-73414462D01*
X144186700Y-73521201D01*
X144186704Y-73521211D01*
X144220189Y-73582533D01*
X144272289Y-73652129D01*
X144272295Y-73652136D01*
X144272298Y-73652140D01*
X144399660Y-73779502D01*
X144420429Y-73798157D01*
X144423993Y-73801359D01*
X144444674Y-73818024D01*
X144450172Y-73822351D01*
X144450175Y-73822353D01*
X144550251Y-73873239D01*
X144617290Y-73892924D01*
X144703362Y-73905300D01*
X144703365Y-73905300D01*
X146600639Y-73905300D01*
X146602559Y-73905197D01*
X146633297Y-73903549D01*
X146659655Y-73900715D01*
X146666660Y-73899880D01*
X146773407Y-73865097D01*
X146834730Y-73831612D01*
X146847099Y-73822353D01*
X146904329Y-73779510D01*
X146904340Y-73779502D01*
X147031702Y-73652140D01*
X147053558Y-73627808D01*
X147070192Y-73607166D01*
X147074590Y-73601576D01*
X147074592Y-73601571D01*
X147077866Y-73596446D01*
X147078032Y-73596552D01*
X147081460Y-73590852D01*
X147091735Y-73576254D01*
X147112544Y-73526896D01*
X147125457Y-73501489D01*
X147126219Y-73498892D01*
X147124556Y-73498404D01*
X147135351Y-73472801D01*
X147138616Y-73457786D01*
X147140800Y-73449232D01*
X147145123Y-73434513D01*
X147157500Y-73348438D01*
X147157500Y-69477703D01*
X147166144Y-69448262D01*
X147172668Y-69418276D01*
X147176422Y-69413260D01*
X147177185Y-69410664D01*
X147193819Y-69390022D01*
X147247722Y-69336119D01*
X147309045Y-69302634D01*
X147335403Y-69299800D01*
X165375500Y-69299800D01*
X165442539Y-69319485D01*
X165488294Y-69372289D01*
X165499500Y-69423800D01*
X165499500Y-101099109D01*
X165479815Y-101166148D01*
X165463181Y-101186790D01*
X165186490Y-101463481D01*
X165125167Y-101496966D01*
X165098809Y-101499800D01*
X154003362Y-101499800D01*
X153973921Y-101491155D01*
X153943935Y-101484632D01*
X153938919Y-101480877D01*
X153936323Y-101480115D01*
X153915681Y-101463481D01*
X153788319Y-101336119D01*
X153754834Y-101274796D01*
X153752000Y-101248438D01*
X153752000Y-97651162D01*
X153771685Y-97584123D01*
X153788319Y-97563481D01*
X156852000Y-94499800D01*
X156852000Y-90999800D01*
X154652000Y-88799800D01*
X129503362Y-88799800D01*
X129436323Y-88780115D01*
X129415681Y-88763481D01*
X127288319Y-86636119D01*
X127273615Y-86609191D01*
X127257023Y-86583373D01*
X127256131Y-86577172D01*
X127254834Y-86574796D01*
X127252000Y-86548438D01*
X127252000Y-86482073D01*
X159105854Y-86482073D01*
X159105854Y-86717526D01*
X159136585Y-86950959D01*
X159197527Y-87178395D01*
X159287627Y-87395916D01*
X159287629Y-87395920D01*
X159405355Y-87599826D01*
X159405360Y-87599832D01*
X159405361Y-87599834D01*
X159548686Y-87786620D01*
X159548692Y-87786627D01*
X159715172Y-87953107D01*
X159715178Y-87953112D01*
X159901974Y-88096445D01*
X160105880Y-88214171D01*
X160323409Y-88304274D01*
X160550837Y-88365214D01*
X160725914Y-88388263D01*
X160784273Y-88395946D01*
X160784274Y-88395946D01*
X161019727Y-88395946D01*
X161066413Y-88389799D01*
X161253163Y-88365214D01*
X161480591Y-88304274D01*
X161698120Y-88214171D01*
X161902026Y-88096445D01*
X162088822Y-87953112D01*
X162255312Y-87786622D01*
X162398645Y-87599826D01*
X162516371Y-87395920D01*
X162606474Y-87178391D01*
X162667414Y-86950963D01*
X162698146Y-86717526D01*
X162698146Y-86482074D01*
X162667414Y-86248637D01*
X162606474Y-86021209D01*
X162516371Y-85803680D01*
X162398645Y-85599774D01*
X162255312Y-85412978D01*
X162255307Y-85412972D01*
X162088827Y-85246492D01*
X162088820Y-85246486D01*
X161902034Y-85103161D01*
X161902032Y-85103160D01*
X161902026Y-85103155D01*
X161698120Y-84985429D01*
X161698116Y-84985427D01*
X161480595Y-84895327D01*
X161253159Y-84834385D01*
X161019727Y-84803654D01*
X161019726Y-84803654D01*
X160784274Y-84803654D01*
X160784273Y-84803654D01*
X160550840Y-84834385D01*
X160323404Y-84895327D01*
X160105883Y-84985427D01*
X160105879Y-84985429D01*
X159901974Y-85103155D01*
X159901965Y-85103161D01*
X159715179Y-85246486D01*
X159715172Y-85246492D01*
X159548692Y-85412972D01*
X159548686Y-85412979D01*
X159405361Y-85599765D01*
X159405355Y-85599774D01*
X159287629Y-85803679D01*
X159287627Y-85803683D01*
X159197527Y-86021204D01*
X159136585Y-86248640D01*
X159105854Y-86482073D01*
X127252000Y-86482073D01*
X127252000Y-85527325D01*
X150871500Y-85527325D01*
X150871500Y-85672275D01*
X150906711Y-85803683D01*
X150909017Y-85812288D01*
X150981488Y-85937811D01*
X150981490Y-85937813D01*
X150981491Y-85937815D01*
X151083985Y-86040309D01*
X151083986Y-86040310D01*
X151083988Y-86040311D01*
X151209511Y-86112782D01*
X151209512Y-86112782D01*
X151209515Y-86112784D01*
X151349525Y-86150300D01*
X151349528Y-86150300D01*
X151494472Y-86150300D01*
X151494475Y-86150300D01*
X151634485Y-86112784D01*
X151760015Y-86040309D01*
X151862509Y-85937815D01*
X151934984Y-85812285D01*
X151972500Y-85672275D01*
X151972500Y-85527325D01*
X151934984Y-85387315D01*
X151862509Y-85261785D01*
X151760015Y-85159291D01*
X151760013Y-85159290D01*
X151760011Y-85159288D01*
X151634488Y-85086817D01*
X151634489Y-85086817D01*
X151623006Y-85083740D01*
X151494475Y-85049300D01*
X151349525Y-85049300D01*
X151220993Y-85083740D01*
X151209511Y-85086817D01*
X151083988Y-85159288D01*
X151083982Y-85159293D01*
X150981493Y-85261782D01*
X150981488Y-85261788D01*
X150909017Y-85387311D01*
X150909016Y-85387315D01*
X150871500Y-85527325D01*
X127252000Y-85527325D01*
X127252000Y-82522073D01*
X159105854Y-82522073D01*
X159105854Y-82757526D01*
X159136585Y-82990959D01*
X159197527Y-83218395D01*
X159287627Y-83435916D01*
X159287629Y-83435920D01*
X159405355Y-83639826D01*
X159405360Y-83639832D01*
X159405361Y-83639834D01*
X159548686Y-83826620D01*
X159548692Y-83826627D01*
X159715172Y-83993107D01*
X159715178Y-83993112D01*
X159901974Y-84136445D01*
X160105880Y-84254171D01*
X160323409Y-84344274D01*
X160550837Y-84405214D01*
X160725914Y-84428263D01*
X160784273Y-84435946D01*
X160784274Y-84435946D01*
X161019727Y-84435946D01*
X161066413Y-84429799D01*
X161253163Y-84405214D01*
X161480591Y-84344274D01*
X161698120Y-84254171D01*
X161902026Y-84136445D01*
X162088822Y-83993112D01*
X162255312Y-83826622D01*
X162398645Y-83639826D01*
X162516371Y-83435920D01*
X162606474Y-83218391D01*
X162667414Y-82990963D01*
X162698146Y-82757526D01*
X162698146Y-82522074D01*
X162667414Y-82288637D01*
X162606474Y-82061209D01*
X162516371Y-81843680D01*
X162398645Y-81639774D01*
X162255312Y-81452978D01*
X162255307Y-81452972D01*
X162088827Y-81286492D01*
X162088820Y-81286486D01*
X161902034Y-81143161D01*
X161902032Y-81143160D01*
X161902026Y-81143155D01*
X161698120Y-81025429D01*
X161698116Y-81025427D01*
X161480595Y-80935327D01*
X161253159Y-80874385D01*
X161019727Y-80843654D01*
X161019726Y-80843654D01*
X160784274Y-80843654D01*
X160784273Y-80843654D01*
X160550840Y-80874385D01*
X160323404Y-80935327D01*
X160105883Y-81025427D01*
X160105879Y-81025429D01*
X159901974Y-81143155D01*
X159901965Y-81143161D01*
X159715179Y-81286486D01*
X159715172Y-81286492D01*
X159548692Y-81452972D01*
X159548686Y-81452979D01*
X159405361Y-81639765D01*
X159405355Y-81639774D01*
X159287629Y-81843679D01*
X159287627Y-81843683D01*
X159197527Y-82061204D01*
X159136585Y-82288640D01*
X159105854Y-82522073D01*
X127252000Y-82522073D01*
X127252000Y-80127325D01*
X143701500Y-80127325D01*
X143701500Y-80272275D01*
X143739016Y-80412285D01*
X143739017Y-80412288D01*
X143811488Y-80537811D01*
X143811490Y-80537813D01*
X143811491Y-80537815D01*
X143913985Y-80640309D01*
X143913986Y-80640310D01*
X143913988Y-80640311D01*
X144039511Y-80712782D01*
X144039512Y-80712782D01*
X144039515Y-80712784D01*
X144179525Y-80750300D01*
X144179528Y-80750300D01*
X144324472Y-80750300D01*
X144324475Y-80750300D01*
X144464485Y-80712784D01*
X144590015Y-80640309D01*
X144692509Y-80537815D01*
X144764984Y-80412285D01*
X144802500Y-80272275D01*
X144802500Y-80127325D01*
X144764984Y-79987315D01*
X144692509Y-79861785D01*
X144590015Y-79759291D01*
X144590013Y-79759290D01*
X144590011Y-79759288D01*
X144464488Y-79686817D01*
X144464489Y-79686817D01*
X144453006Y-79683740D01*
X144324475Y-79649300D01*
X144179525Y-79649300D01*
X144050993Y-79683740D01*
X144039511Y-79686817D01*
X143913988Y-79759288D01*
X143913982Y-79759293D01*
X143811493Y-79861782D01*
X143811488Y-79861788D01*
X143739017Y-79987311D01*
X143739016Y-79987315D01*
X143701500Y-80127325D01*
X127252000Y-80127325D01*
X127252000Y-79251162D01*
X127271685Y-79184123D01*
X127288319Y-79163481D01*
X130200636Y-76251164D01*
X154746500Y-76251164D01*
X154746500Y-78048438D01*
X154748250Y-78081081D01*
X154748254Y-78081134D01*
X154751081Y-78107425D01*
X154751920Y-78114460D01*
X154751920Y-78114462D01*
X154786700Y-78221201D01*
X154786704Y-78221211D01*
X154820189Y-78282533D01*
X154872289Y-78352129D01*
X154872307Y-78352150D01*
X155099645Y-78579487D01*
X155099660Y-78579502D01*
X155120884Y-78598566D01*
X155123993Y-78601359D01*
X155144674Y-78618024D01*
X155150172Y-78622351D01*
X155150175Y-78622353D01*
X155250251Y-78673239D01*
X155317290Y-78692924D01*
X155403362Y-78705300D01*
X155403365Y-78705300D01*
X162400639Y-78705300D01*
X162402559Y-78705197D01*
X162433297Y-78703549D01*
X162459655Y-78700715D01*
X162466660Y-78699880D01*
X162573407Y-78665097D01*
X162634730Y-78631612D01*
X162647099Y-78622353D01*
X162704329Y-78579510D01*
X162704340Y-78579502D01*
X162931702Y-78352140D01*
X162953558Y-78327808D01*
X162970192Y-78307166D01*
X162974553Y-78301625D01*
X163025439Y-78201549D01*
X163045124Y-78134510D01*
X163057500Y-78048438D01*
X163057500Y-76451162D01*
X163055749Y-76418503D01*
X163052915Y-76392145D01*
X163052080Y-76385140D01*
X163017297Y-76278393D01*
X163017295Y-76278388D01*
X162983810Y-76217066D01*
X162931710Y-76147470D01*
X162931705Y-76147465D01*
X162931702Y-76147460D01*
X162931698Y-76147456D01*
X162931692Y-76147449D01*
X162504353Y-75720111D01*
X162504349Y-75720107D01*
X162504340Y-75720098D01*
X162480008Y-75698242D01*
X162459366Y-75681608D01*
X162459363Y-75681606D01*
X162459325Y-75681575D01*
X162453827Y-75677248D01*
X162453825Y-75677247D01*
X162353747Y-75626360D01*
X162286716Y-75606677D01*
X162286710Y-75606676D01*
X162200638Y-75594300D01*
X155403362Y-75594300D01*
X155403361Y-75594300D01*
X155370718Y-75596050D01*
X155370709Y-75596050D01*
X155370703Y-75596051D01*
X155370698Y-75596051D01*
X155370665Y-75596054D01*
X155344374Y-75598881D01*
X155337339Y-75599720D01*
X155337337Y-75599720D01*
X155230598Y-75634500D01*
X155230588Y-75634504D01*
X155169266Y-75667989D01*
X155099670Y-75720089D01*
X155099649Y-75720107D01*
X154872312Y-75947445D01*
X154872295Y-75947463D01*
X154850440Y-75971793D01*
X154833775Y-75992474D01*
X154829448Y-75997972D01*
X154829447Y-75997974D01*
X154778560Y-76098052D01*
X154758877Y-76165083D01*
X154746500Y-76251164D01*
X130200636Y-76251164D01*
X132049475Y-74402325D01*
X158976500Y-74402325D01*
X158976500Y-74547275D01*
X159014016Y-74687285D01*
X159014017Y-74687288D01*
X159086488Y-74812811D01*
X159086490Y-74812813D01*
X159086491Y-74812815D01*
X159188985Y-74915309D01*
X159188986Y-74915310D01*
X159188988Y-74915311D01*
X159314511Y-74987782D01*
X159314512Y-74987782D01*
X159314515Y-74987784D01*
X159454525Y-75025300D01*
X159454528Y-75025300D01*
X159599472Y-75025300D01*
X159599475Y-75025300D01*
X159739485Y-74987784D01*
X159865015Y-74915309D01*
X159967509Y-74812815D01*
X160039984Y-74687285D01*
X160077500Y-74547275D01*
X160077500Y-74402325D01*
X160039984Y-74262315D01*
X159967509Y-74136785D01*
X159865015Y-74034291D01*
X159865013Y-74034290D01*
X159865011Y-74034288D01*
X159739488Y-73961817D01*
X159739489Y-73961817D01*
X159728006Y-73958740D01*
X159599475Y-73924300D01*
X159454525Y-73924300D01*
X159325993Y-73958740D01*
X159314511Y-73961817D01*
X159188988Y-74034288D01*
X159188982Y-74034293D01*
X159086493Y-74136782D01*
X159086488Y-74136788D01*
X159014017Y-74262311D01*
X159014016Y-74262315D01*
X158976500Y-74402325D01*
X132049475Y-74402325D01*
X132145283Y-74306517D01*
X132152000Y-74299800D01*
X132152000Y-63390547D01*
X132776016Y-63390547D01*
X132776017Y-63390570D01*
X132778923Y-63415631D01*
X132778924Y-63415635D01*
X132824226Y-63518236D01*
X132824229Y-63518241D01*
X132903535Y-63597547D01*
X132903540Y-63597550D01*
X133006138Y-63642851D01*
X133031221Y-63645761D01*
X133676014Y-63645761D01*
X134476015Y-63645761D01*
X135120801Y-63645761D01*
X135120823Y-63645759D01*
X135145884Y-63642853D01*
X135145888Y-63642852D01*
X135248489Y-63597550D01*
X135248494Y-63597547D01*
X135327800Y-63518241D01*
X135327803Y-63518236D01*
X135373104Y-63415639D01*
X135373104Y-63415637D01*
X135376014Y-63390556D01*
X135376015Y-63390553D01*
X135376015Y-62745762D01*
X134476015Y-62745762D01*
X134476015Y-63645761D01*
X133676014Y-63645761D01*
X133676015Y-63645760D01*
X133676015Y-62745762D01*
X132776016Y-62745762D01*
X132776016Y-63390547D01*
X132152000Y-63390547D01*
X132152000Y-62276644D01*
X133551015Y-62276644D01*
X133551015Y-62414880D01*
X133586793Y-62548404D01*
X133655911Y-62668119D01*
X133753658Y-62765866D01*
X133873373Y-62834984D01*
X134006897Y-62870762D01*
X134145133Y-62870762D01*
X134278657Y-62834984D01*
X134398372Y-62765866D01*
X134496119Y-62668119D01*
X134565237Y-62548404D01*
X134601015Y-62414880D01*
X134601015Y-62276644D01*
X134565237Y-62143120D01*
X134496119Y-62023405D01*
X134418476Y-61945762D01*
X134476015Y-61945762D01*
X135376014Y-61945762D01*
X135376014Y-61300976D01*
X135376012Y-61300953D01*
X135373106Y-61275892D01*
X135373105Y-61275888D01*
X135327803Y-61173287D01*
X135327800Y-61173282D01*
X135248494Y-61093976D01*
X135248489Y-61093973D01*
X135145891Y-61048672D01*
X135120809Y-61045762D01*
X134476015Y-61045762D01*
X134476015Y-61945762D01*
X134418476Y-61945762D01*
X134398372Y-61925658D01*
X134278657Y-61856540D01*
X134145133Y-61820762D01*
X134006897Y-61820762D01*
X133873373Y-61856540D01*
X133753658Y-61925658D01*
X133655911Y-62023405D01*
X133586793Y-62143120D01*
X133551015Y-62276644D01*
X132152000Y-62276644D01*
X132152000Y-61300967D01*
X132776015Y-61300967D01*
X132776015Y-61945762D01*
X133676015Y-61945762D01*
X133676015Y-61045762D01*
X133031229Y-61045762D01*
X133031206Y-61045764D01*
X133006145Y-61048670D01*
X133006141Y-61048671D01*
X132903540Y-61093973D01*
X132903535Y-61093976D01*
X132824229Y-61173282D01*
X132824226Y-61173287D01*
X132778925Y-61275884D01*
X132778925Y-61275886D01*
X132776015Y-61300967D01*
X132152000Y-61300967D01*
X132152000Y-60701162D01*
X132171685Y-60634123D01*
X132188319Y-60613481D01*
X132590571Y-60211229D01*
X132651894Y-60177744D01*
X132678252Y-60174910D01*
X139827289Y-60174910D01*
X139894328Y-60194595D01*
G37*
%TD.AperFunction*%
%TA.AperFunction,Conductor*%
G36*
X152767677Y-97319485D02*
G01*
X152788319Y-97336119D01*
X152915681Y-97463481D01*
X152949166Y-97524804D01*
X152952000Y-97551162D01*
X152952000Y-101799800D01*
X153515681Y-102363481D01*
X153549166Y-102424804D01*
X153552000Y-102451162D01*
X153552000Y-106648438D01*
X153532315Y-106715477D01*
X153515681Y-106736119D01*
X153188319Y-107063481D01*
X153126996Y-107096966D01*
X153100638Y-107099800D01*
X149803362Y-107099800D01*
X149736323Y-107080115D01*
X149715681Y-107063481D01*
X149388319Y-106736119D01*
X149354834Y-106674796D01*
X149352000Y-106648438D01*
X149352000Y-105594585D01*
X150462001Y-105594585D01*
X150462002Y-105594608D01*
X150464908Y-105619669D01*
X150464909Y-105619673D01*
X150510211Y-105722274D01*
X150510214Y-105722279D01*
X150589520Y-105801585D01*
X150589525Y-105801588D01*
X150692123Y-105846889D01*
X150717206Y-105849799D01*
X151361999Y-105849799D01*
X152162000Y-105849799D01*
X152806786Y-105849799D01*
X152806808Y-105849797D01*
X152831869Y-105846891D01*
X152831873Y-105846890D01*
X152934474Y-105801588D01*
X152934479Y-105801585D01*
X153013785Y-105722279D01*
X153013788Y-105722274D01*
X153059089Y-105619677D01*
X153059089Y-105619675D01*
X153061999Y-105594594D01*
X153062000Y-105594591D01*
X153062000Y-104949800D01*
X152162000Y-104949800D01*
X152162000Y-105849799D01*
X151361999Y-105849799D01*
X151362000Y-105849798D01*
X151362000Y-104949800D01*
X150462001Y-104949800D01*
X150462001Y-105594585D01*
X149352000Y-105594585D01*
X149352000Y-104480682D01*
X151237000Y-104480682D01*
X151237000Y-104618918D01*
X151272778Y-104752442D01*
X151341896Y-104872157D01*
X151439643Y-104969904D01*
X151559358Y-105039022D01*
X151692882Y-105074800D01*
X151831118Y-105074800D01*
X151964642Y-105039022D01*
X152084357Y-104969904D01*
X152182104Y-104872157D01*
X152251222Y-104752442D01*
X152287000Y-104618918D01*
X152287000Y-104480682D01*
X152251222Y-104347158D01*
X152182104Y-104227443D01*
X152104461Y-104149800D01*
X152162000Y-104149800D01*
X153061999Y-104149800D01*
X153061999Y-103505014D01*
X153061997Y-103504991D01*
X153059091Y-103479930D01*
X153059090Y-103479926D01*
X153013788Y-103377325D01*
X153013785Y-103377320D01*
X152934479Y-103298014D01*
X152934474Y-103298011D01*
X152831876Y-103252710D01*
X152806794Y-103249800D01*
X152162000Y-103249800D01*
X152162000Y-104149800D01*
X152104461Y-104149800D01*
X152084357Y-104129696D01*
X151964642Y-104060578D01*
X151831118Y-104024800D01*
X151692882Y-104024800D01*
X151559358Y-104060578D01*
X151439643Y-104129696D01*
X151341896Y-104227443D01*
X151272778Y-104347158D01*
X151237000Y-104480682D01*
X149352000Y-104480682D01*
X149352000Y-103505005D01*
X150462000Y-103505005D01*
X150462000Y-104149800D01*
X151362000Y-104149800D01*
X151362000Y-103249800D01*
X150717214Y-103249800D01*
X150717191Y-103249802D01*
X150692130Y-103252708D01*
X150692126Y-103252709D01*
X150589525Y-103298011D01*
X150589520Y-103298014D01*
X150510214Y-103377320D01*
X150510211Y-103377325D01*
X150464910Y-103479922D01*
X150464910Y-103479924D01*
X150462000Y-103505005D01*
X149352000Y-103505005D01*
X149352000Y-99651162D01*
X149371685Y-99584123D01*
X149388319Y-99563481D01*
X151615681Y-97336119D01*
X151677004Y-97302634D01*
X151703362Y-97299800D01*
X152700638Y-97299800D01*
X152767677Y-97319485D01*
G37*
%TD.AperFunction*%
%TA.AperFunction,Conductor*%
G36*
X109449258Y-49520185D02*
G01*
X109495013Y-49572989D01*
X109504957Y-49642147D01*
X109477208Y-49704206D01*
X109429914Y-49760567D01*
X109204742Y-50082145D01*
X109204733Y-50082160D01*
X109008454Y-50422124D01*
X109008441Y-50422148D01*
X108842543Y-50777920D01*
X108842540Y-50777928D01*
X108708271Y-51146830D01*
X108606670Y-51526014D01*
X108606667Y-51526027D01*
X108538498Y-51912629D01*
X108504283Y-52303709D01*
X108504283Y-52696290D01*
X108538498Y-53087370D01*
X108606667Y-53473972D01*
X108606670Y-53473985D01*
X108708271Y-53853169D01*
X108842540Y-54222071D01*
X108842543Y-54222079D01*
X109008441Y-54577851D01*
X109008454Y-54577875D01*
X109204733Y-54917839D01*
X109204742Y-54917854D01*
X109429914Y-55239432D01*
X109585032Y-55424294D01*
X109682252Y-55540156D01*
X109959844Y-55817748D01*
X110066861Y-55907546D01*
X110260567Y-56070085D01*
X110260573Y-56070089D01*
X110260574Y-56070090D01*
X110582152Y-56295262D01*
X110900780Y-56479222D01*
X110922124Y-56491545D01*
X110922148Y-56491558D01*
X111277920Y-56657456D01*
X111277923Y-56657457D01*
X111277925Y-56657458D01*
X111646824Y-56791726D01*
X111646825Y-56791726D01*
X111646830Y-56791728D01*
X111765957Y-56823647D01*
X112026022Y-56893332D01*
X112412632Y-56961502D01*
X112803711Y-56995716D01*
X112803712Y-56995717D01*
X112803713Y-56995717D01*
X113196288Y-56995717D01*
X113196288Y-56995716D01*
X113587368Y-56961502D01*
X113973978Y-56893332D01*
X114353176Y-56791726D01*
X114722075Y-56657458D01*
X114786764Y-56627292D01*
X115077851Y-56491558D01*
X115077859Y-56491553D01*
X115077869Y-56491549D01*
X115417848Y-56295262D01*
X115739426Y-56070090D01*
X116040156Y-55817748D01*
X116317748Y-55540156D01*
X116570090Y-55239426D01*
X116795262Y-54917848D01*
X116991549Y-54577869D01*
X117109193Y-54325580D01*
X119676015Y-54325580D01*
X119676015Y-54545943D01*
X119710488Y-54763597D01*
X119778582Y-54973172D01*
X119844179Y-55101911D01*
X120259767Y-54686323D01*
X120322755Y-54838388D01*
X120415777Y-54977606D01*
X120534171Y-55096000D01*
X120673389Y-55189022D01*
X120825452Y-55252008D01*
X120409863Y-55667596D01*
X120538604Y-55733193D01*
X120748179Y-55801288D01*
X120965834Y-55835762D01*
X121186196Y-55835762D01*
X121403850Y-55801288D01*
X121613427Y-55733192D01*
X121742165Y-55667596D01*
X121326577Y-55252008D01*
X121478641Y-55189022D01*
X121617859Y-55096000D01*
X121736253Y-54977606D01*
X121829275Y-54838388D01*
X121892261Y-54686324D01*
X122307849Y-55101912D01*
X122373445Y-54973174D01*
X122441541Y-54763597D01*
X122476015Y-54545943D01*
X122476015Y-54325580D01*
X122475036Y-54319396D01*
X123550515Y-54319396D01*
X123550515Y-54552127D01*
X123550516Y-54552144D01*
X123580893Y-54782884D01*
X123641135Y-55007709D01*
X123730195Y-55222722D01*
X123730203Y-55222738D01*
X123846568Y-55424286D01*
X123846579Y-55424302D01*
X123988257Y-55608941D01*
X123988263Y-55608948D01*
X124152828Y-55773513D01*
X124152835Y-55773519D01*
X124210472Y-55817745D01*
X124337483Y-55915204D01*
X124337490Y-55915208D01*
X124539038Y-56031573D01*
X124539054Y-56031581D01*
X124754067Y-56120641D01*
X124754069Y-56120641D01*
X124754075Y-56120644D01*
X124978889Y-56180883D01*
X125209643Y-56211262D01*
X125209650Y-56211262D01*
X125442380Y-56211262D01*
X125442387Y-56211262D01*
X125673141Y-56180883D01*
X125897955Y-56120644D01*
X125971213Y-56090300D01*
X126112975Y-56031581D01*
X126112978Y-56031579D01*
X126112984Y-56031577D01*
X126314547Y-55915204D01*
X126499196Y-55773518D01*
X126663771Y-55608943D01*
X126805457Y-55424294D01*
X126921830Y-55222731D01*
X127010897Y-55007702D01*
X127071136Y-54782888D01*
X127101515Y-54552134D01*
X127101515Y-54319390D01*
X127071136Y-54088636D01*
X127010897Y-53863822D01*
X127010894Y-53863814D01*
X126921834Y-53648801D01*
X126921826Y-53648785D01*
X126805461Y-53447237D01*
X126805457Y-53447230D01*
X126742031Y-53364571D01*
X126663772Y-53262582D01*
X126663766Y-53262575D01*
X126499201Y-53098010D01*
X126499194Y-53098004D01*
X126314555Y-52956326D01*
X126314553Y-52956324D01*
X126314547Y-52956320D01*
X126314542Y-52956317D01*
X126314539Y-52956315D01*
X126112991Y-52839950D01*
X126112975Y-52839942D01*
X125897962Y-52750882D01*
X125673137Y-52690640D01*
X125442397Y-52660263D01*
X125442392Y-52660262D01*
X125442387Y-52660262D01*
X125209643Y-52660262D01*
X125209637Y-52660262D01*
X125209632Y-52660263D01*
X124978892Y-52690640D01*
X124754067Y-52750882D01*
X124539054Y-52839942D01*
X124539038Y-52839950D01*
X124337490Y-52956315D01*
X124337474Y-52956326D01*
X124152835Y-53098004D01*
X124152828Y-53098010D01*
X123988263Y-53262575D01*
X123988257Y-53262582D01*
X123846579Y-53447221D01*
X123846568Y-53447237D01*
X123730203Y-53648785D01*
X123730195Y-53648801D01*
X123641135Y-53863814D01*
X123580893Y-54088639D01*
X123550516Y-54319379D01*
X123550515Y-54319396D01*
X122475036Y-54319396D01*
X122441541Y-54107926D01*
X122373446Y-53898351D01*
X122307849Y-53769610D01*
X121892261Y-54185198D01*
X121829275Y-54033136D01*
X121736253Y-53893918D01*
X121617859Y-53775524D01*
X121478641Y-53682502D01*
X121326576Y-53619514D01*
X121742164Y-53203926D01*
X121613425Y-53138329D01*
X121403850Y-53070235D01*
X121186196Y-53035762D01*
X120965834Y-53035762D01*
X120748179Y-53070235D01*
X120538604Y-53138329D01*
X120538601Y-53138330D01*
X120409864Y-53203926D01*
X120825453Y-53619514D01*
X120673389Y-53682502D01*
X120534171Y-53775524D01*
X120415777Y-53893918D01*
X120322755Y-54033136D01*
X120259767Y-54185199D01*
X119844179Y-53769611D01*
X119778583Y-53898348D01*
X119778582Y-53898351D01*
X119710488Y-54107926D01*
X119676015Y-54325580D01*
X117109193Y-54325580D01*
X117135902Y-54268303D01*
X117135902Y-54268302D01*
X117157458Y-54222075D01*
X117291726Y-53853176D01*
X117393332Y-53473978D01*
X117461502Y-53087368D01*
X117495717Y-52696287D01*
X117495717Y-52303713D01*
X117461502Y-51912632D01*
X117393332Y-51526022D01*
X117291726Y-51146824D01*
X117157458Y-50777925D01*
X117157456Y-50777920D01*
X116991558Y-50422148D01*
X116991545Y-50422124D01*
X116979222Y-50400780D01*
X116795262Y-50082152D01*
X116570090Y-49760574D01*
X116570089Y-49760573D01*
X116570085Y-49760567D01*
X116522792Y-49704206D01*
X116494779Y-49640198D01*
X116505818Y-49571206D01*
X116552405Y-49519134D01*
X116617781Y-49500500D01*
X129751300Y-49500500D01*
X128252000Y-50999800D01*
X128252000Y-55599800D01*
X128752000Y-56099800D01*
X131552000Y-56099800D01*
X131552000Y-60049800D01*
X131752000Y-59849800D01*
X131752000Y-60321661D01*
X131740794Y-60373174D01*
X131686663Y-60491699D01*
X131666976Y-60558744D01*
X131646500Y-60701163D01*
X131646500Y-61789600D01*
X131626815Y-61856639D01*
X131610181Y-61877281D01*
X131141700Y-62345762D01*
X131610181Y-62814242D01*
X131643666Y-62875565D01*
X131646500Y-62901923D01*
X131646500Y-73853938D01*
X131626815Y-73920977D01*
X131610181Y-73941619D01*
X126552000Y-78999799D01*
X126552000Y-78999800D01*
X126552000Y-87399800D01*
X128752000Y-89599800D01*
X130868466Y-89599800D01*
X130935505Y-89619485D01*
X130981260Y-89672289D01*
X130991204Y-89741447D01*
X130962179Y-89805003D01*
X130926914Y-89833161D01*
X130924002Y-89834717D01*
X130801084Y-89916848D01*
X130801080Y-89916851D01*
X130696551Y-90021380D01*
X130696548Y-90021384D01*
X130614419Y-90144298D01*
X130614412Y-90144311D01*
X130557843Y-90280882D01*
X130557840Y-90280892D01*
X130529000Y-90425879D01*
X130529000Y-90425882D01*
X130529000Y-90573718D01*
X130529000Y-90573720D01*
X130528999Y-90573720D01*
X130557840Y-90718707D01*
X130557843Y-90718717D01*
X130614412Y-90855288D01*
X130614419Y-90855301D01*
X130696548Y-90978215D01*
X130696551Y-90978219D01*
X130801080Y-91082748D01*
X130801084Y-91082751D01*
X130923998Y-91164880D01*
X130924011Y-91164887D01*
X131060582Y-91221456D01*
X131060587Y-91221458D01*
X131060591Y-91221458D01*
X131060592Y-91221459D01*
X131205579Y-91250300D01*
X131205582Y-91250300D01*
X131353420Y-91250300D01*
X131450962Y-91230896D01*
X131498413Y-91221458D01*
X131634995Y-91164884D01*
X131757916Y-91082751D01*
X131862451Y-90978216D01*
X131944584Y-90855295D01*
X132001158Y-90718713D01*
X132030000Y-90573718D01*
X132030000Y-90425882D01*
X132030000Y-90425879D01*
X132001159Y-90280892D01*
X132001158Y-90280891D01*
X132001158Y-90280887D01*
X132001156Y-90280882D01*
X131944587Y-90144311D01*
X131944580Y-90144298D01*
X131862451Y-90021384D01*
X131862448Y-90021380D01*
X131757919Y-89916851D01*
X131757915Y-89916848D01*
X131634997Y-89834717D01*
X131632086Y-89833161D01*
X131630845Y-89831943D01*
X131629930Y-89831331D01*
X131630046Y-89831157D01*
X131582239Y-89784201D01*
X131566776Y-89716064D01*
X131590604Y-89650383D01*
X131646160Y-89608012D01*
X131690534Y-89599800D01*
X142465966Y-89599800D01*
X142533005Y-89619485D01*
X142578760Y-89672289D01*
X142588704Y-89741447D01*
X142559679Y-89805003D01*
X142524414Y-89833161D01*
X142521502Y-89834717D01*
X142398584Y-89916848D01*
X142398580Y-89916851D01*
X142294051Y-90021380D01*
X142294048Y-90021384D01*
X142211919Y-90144298D01*
X142211912Y-90144311D01*
X142155343Y-90280882D01*
X142155340Y-90280892D01*
X142126500Y-90425879D01*
X142126500Y-90425882D01*
X142126500Y-90573718D01*
X142126500Y-90573720D01*
X142126499Y-90573720D01*
X142155340Y-90718707D01*
X142155343Y-90718717D01*
X142211912Y-90855288D01*
X142211919Y-90855301D01*
X142294048Y-90978215D01*
X142294051Y-90978219D01*
X142398580Y-91082748D01*
X142398584Y-91082751D01*
X142521498Y-91164880D01*
X142521511Y-91164887D01*
X142658082Y-91221456D01*
X142658087Y-91221458D01*
X142658091Y-91221458D01*
X142658092Y-91221459D01*
X142803079Y-91250300D01*
X142803082Y-91250300D01*
X142950920Y-91250300D01*
X143048462Y-91230896D01*
X143095913Y-91221458D01*
X143232495Y-91164884D01*
X143355416Y-91082751D01*
X143459951Y-90978216D01*
X143542084Y-90855295D01*
X143598658Y-90718713D01*
X143627500Y-90573718D01*
X143627500Y-90425882D01*
X143627500Y-90425879D01*
X143598659Y-90280892D01*
X143598658Y-90280891D01*
X143598658Y-90280887D01*
X143598656Y-90280882D01*
X143542087Y-90144311D01*
X143542080Y-90144298D01*
X143459951Y-90021384D01*
X143459948Y-90021380D01*
X143355419Y-89916851D01*
X143355415Y-89916848D01*
X143232497Y-89834717D01*
X143229586Y-89833161D01*
X143228345Y-89831943D01*
X143227430Y-89831331D01*
X143227546Y-89831157D01*
X143179739Y-89784201D01*
X143164276Y-89716064D01*
X143188104Y-89650383D01*
X143243660Y-89608012D01*
X143288034Y-89599800D01*
X154600638Y-89599800D01*
X154667677Y-89619485D01*
X154688319Y-89636119D01*
X156310181Y-91257981D01*
X156343666Y-91319304D01*
X156346500Y-91345662D01*
X156346500Y-94239054D01*
X156326815Y-94306093D01*
X156310181Y-94326735D01*
X154073435Y-96563481D01*
X154012112Y-96596966D01*
X153985754Y-96599800D01*
X149651999Y-96599800D01*
X148752000Y-97499799D01*
X148752000Y-97499800D01*
X148752000Y-107099800D01*
X149652000Y-107999800D01*
X153520865Y-107999800D01*
X154152000Y-107368665D01*
X154152000Y-105707285D01*
X154670198Y-105707285D01*
X154762968Y-105754555D01*
X154957582Y-105817790D01*
X155159683Y-105849800D01*
X155364317Y-105849800D01*
X155566417Y-105817790D01*
X155761031Y-105754555D01*
X155853801Y-105707285D01*
X155262001Y-105115485D01*
X155262000Y-105115485D01*
X154670198Y-105707285D01*
X154152000Y-105707285D01*
X154152000Y-105094114D01*
X154696314Y-104549800D01*
X154696314Y-104549799D01*
X154627197Y-104480682D01*
X154737000Y-104480682D01*
X154737000Y-104618918D01*
X154772778Y-104752442D01*
X154841896Y-104872157D01*
X154939643Y-104969904D01*
X155059358Y-105039022D01*
X155192882Y-105074800D01*
X155331118Y-105074800D01*
X155464642Y-105039022D01*
X155584357Y-104969904D01*
X155682104Y-104872157D01*
X155751222Y-104752442D01*
X155787000Y-104618918D01*
X155787000Y-104549799D01*
X155827685Y-104549799D01*
X155827685Y-104549800D01*
X156419485Y-105141600D01*
X156466755Y-105048831D01*
X156529990Y-104854217D01*
X156562000Y-104652117D01*
X156562000Y-104447482D01*
X156529990Y-104245382D01*
X156466755Y-104050768D01*
X156419485Y-103957998D01*
X155827685Y-104549799D01*
X155787000Y-104549799D01*
X155787000Y-104480682D01*
X155751222Y-104347158D01*
X155682104Y-104227443D01*
X155584357Y-104129696D01*
X155464642Y-104060578D01*
X155331118Y-104024800D01*
X155192882Y-104024800D01*
X155059358Y-104060578D01*
X154939643Y-104129696D01*
X154841896Y-104227443D01*
X154772778Y-104347158D01*
X154737000Y-104480682D01*
X154627197Y-104480682D01*
X154152000Y-104005485D01*
X154152000Y-103392312D01*
X154670197Y-103392312D01*
X155262000Y-103984114D01*
X155262001Y-103984114D01*
X155853801Y-103392312D01*
X155761034Y-103345046D01*
X155761027Y-103345043D01*
X155566417Y-103281809D01*
X155364317Y-103249800D01*
X155159683Y-103249800D01*
X154957581Y-103281810D01*
X154957578Y-103281810D01*
X154762974Y-103345042D01*
X154762973Y-103345042D01*
X154670197Y-103392312D01*
X154152000Y-103392312D01*
X154152000Y-102470754D01*
X154160644Y-102441313D01*
X154167168Y-102411327D01*
X154170922Y-102406311D01*
X154171685Y-102403715D01*
X154188319Y-102383073D01*
X154215681Y-102355711D01*
X154277004Y-102322226D01*
X154303362Y-102319392D01*
X165375500Y-102319392D01*
X165442539Y-102339077D01*
X165488294Y-102391881D01*
X165499500Y-102443392D01*
X165499500Y-108500937D01*
X165479815Y-108567976D01*
X165463181Y-108588618D01*
X163896187Y-110155611D01*
X163834864Y-110189096D01*
X163776413Y-110187705D01*
X163473985Y-110106670D01*
X163473988Y-110106670D01*
X163473978Y-110106668D01*
X163419397Y-110097043D01*
X163087370Y-110038498D01*
X162696290Y-110004283D01*
X162696287Y-110004283D01*
X162303713Y-110004283D01*
X162303709Y-110004283D01*
X161912629Y-110038498D01*
X161526027Y-110106667D01*
X161526024Y-110106667D01*
X161526022Y-110106668D01*
X161526017Y-110106669D01*
X161526014Y-110106670D01*
X161146830Y-110208271D01*
X160777928Y-110342540D01*
X160777920Y-110342543D01*
X160422148Y-110508441D01*
X160422124Y-110508454D01*
X160292684Y-110583187D01*
X160230684Y-110599800D01*
X102603362Y-110599800D01*
X102536323Y-110580115D01*
X102515681Y-110563481D01*
X99488296Y-107536096D01*
X99454811Y-107474773D01*
X99451977Y-107448477D01*
X99451436Y-106193598D01*
X109275636Y-106193598D01*
X109323456Y-106217965D01*
X109323459Y-106217966D01*
X109499352Y-106275116D01*
X109682027Y-106304050D01*
X109866973Y-106304050D01*
X110049646Y-106275116D01*
X110225541Y-106217965D01*
X110225548Y-106217962D01*
X110273363Y-106193598D01*
X109774501Y-105694735D01*
X109774500Y-105694735D01*
X109275636Y-106193598D01*
X99451436Y-106193598D01*
X99450937Y-105036576D01*
X108599500Y-105036576D01*
X108599500Y-105221523D01*
X108628433Y-105404197D01*
X108685584Y-105580092D01*
X108709949Y-105627913D01*
X108709950Y-105627913D01*
X109208814Y-105129050D01*
X109208814Y-105129049D01*
X109142989Y-105063224D01*
X109274500Y-105063224D01*
X109274500Y-105194876D01*
X109308575Y-105322043D01*
X109374401Y-105436057D01*
X109467493Y-105529149D01*
X109581507Y-105594975D01*
X109708674Y-105629050D01*
X109840326Y-105629050D01*
X109967493Y-105594975D01*
X110081507Y-105529149D01*
X110174599Y-105436057D01*
X110240425Y-105322043D01*
X110274500Y-105194876D01*
X110274500Y-105129050D01*
X110340185Y-105129050D01*
X110877681Y-105666546D01*
X110911166Y-105727869D01*
X110914000Y-105754227D01*
X110914000Y-106076919D01*
X110914001Y-106076926D01*
X110920408Y-106136533D01*
X110970702Y-106271378D01*
X110970706Y-106271385D01*
X111056952Y-106386594D01*
X111056955Y-106386597D01*
X111172164Y-106472843D01*
X111172171Y-106472847D01*
X111307017Y-106523141D01*
X111307016Y-106523141D01*
X111313944Y-106523885D01*
X111366627Y-106529550D01*
X113262372Y-106529549D01*
X113321983Y-106523141D01*
X113456831Y-106472846D01*
X113572046Y-106386596D01*
X113658296Y-106271381D01*
X113687307Y-106193598D01*
X118305011Y-106193598D01*
X118352831Y-106217965D01*
X118352834Y-106217966D01*
X118528727Y-106275116D01*
X118711402Y-106304050D01*
X118896348Y-106304050D01*
X119079021Y-106275116D01*
X119254916Y-106217965D01*
X119254923Y-106217962D01*
X119302738Y-106193598D01*
X118803876Y-105694735D01*
X118803875Y-105694735D01*
X118305011Y-106193598D01*
X113687307Y-106193598D01*
X113708591Y-106136533D01*
X113715000Y-106076923D01*
X113714999Y-105036576D01*
X117628875Y-105036576D01*
X117628875Y-105221523D01*
X117657808Y-105404197D01*
X117714959Y-105580092D01*
X117739324Y-105627913D01*
X117739325Y-105627913D01*
X118238189Y-105129050D01*
X118238189Y-105129049D01*
X118172364Y-105063224D01*
X118303875Y-105063224D01*
X118303875Y-105194876D01*
X118337950Y-105322043D01*
X118403776Y-105436057D01*
X118496868Y-105529149D01*
X118610882Y-105594975D01*
X118738049Y-105629050D01*
X118869701Y-105629050D01*
X118996868Y-105594975D01*
X119110882Y-105529149D01*
X119203974Y-105436057D01*
X119269800Y-105322043D01*
X119303875Y-105194876D01*
X119303875Y-105129050D01*
X119369560Y-105129050D01*
X119907056Y-105666546D01*
X119940541Y-105727869D01*
X119943375Y-105754227D01*
X119943375Y-106076919D01*
X119943376Y-106076926D01*
X119949783Y-106136533D01*
X120000077Y-106271378D01*
X120000081Y-106271385D01*
X120086327Y-106386594D01*
X120086330Y-106386597D01*
X120201539Y-106472843D01*
X120201546Y-106472847D01*
X120336392Y-106523141D01*
X120336391Y-106523141D01*
X120343319Y-106523885D01*
X120396002Y-106529550D01*
X122291747Y-106529549D01*
X122351358Y-106523141D01*
X122486206Y-106472846D01*
X122601421Y-106386596D01*
X122687671Y-106271381D01*
X122737966Y-106136533D01*
X122744375Y-106076923D01*
X122744374Y-104181178D01*
X122737966Y-104121567D01*
X122737965Y-104121565D01*
X122687672Y-103986721D01*
X122687668Y-103986714D01*
X122601422Y-103871505D01*
X122601419Y-103871502D01*
X122486210Y-103785256D01*
X122486203Y-103785252D01*
X122351357Y-103734958D01*
X122351358Y-103734958D01*
X122291758Y-103728551D01*
X122291756Y-103728550D01*
X122291748Y-103728550D01*
X122291739Y-103728550D01*
X120396004Y-103728550D01*
X120395998Y-103728551D01*
X120336391Y-103734958D01*
X120201546Y-103785252D01*
X120201539Y-103785256D01*
X120086330Y-103871502D01*
X120086327Y-103871505D01*
X120000081Y-103986714D01*
X120000077Y-103986721D01*
X119949783Y-104121567D01*
X119943376Y-104181166D01*
X119943376Y-104181173D01*
X119943375Y-104181185D01*
X119943375Y-104503873D01*
X119923690Y-104570912D01*
X119907056Y-104591554D01*
X119369560Y-105129050D01*
X119303875Y-105129050D01*
X119303875Y-105063224D01*
X119269800Y-104936057D01*
X119203974Y-104822043D01*
X119110882Y-104728951D01*
X118996868Y-104663125D01*
X118869701Y-104629050D01*
X118738049Y-104629050D01*
X118610882Y-104663125D01*
X118496868Y-104728951D01*
X118403776Y-104822043D01*
X118337950Y-104936057D01*
X118303875Y-105063224D01*
X118172364Y-105063224D01*
X117739325Y-104630185D01*
X117714959Y-104678009D01*
X117714958Y-104678011D01*
X117657808Y-104853902D01*
X117628875Y-105036576D01*
X113714999Y-105036576D01*
X113714999Y-104181178D01*
X113708591Y-104121567D01*
X113687307Y-104064500D01*
X118305010Y-104064500D01*
X118803875Y-104563364D01*
X118803876Y-104563364D01*
X119302738Y-104064500D01*
X119302738Y-104064499D01*
X119254917Y-104040134D01*
X119079022Y-103982983D01*
X118896348Y-103954050D01*
X118711402Y-103954050D01*
X118528727Y-103982983D01*
X118352836Y-104040133D01*
X118352834Y-104040134D01*
X118305010Y-104064500D01*
X113687307Y-104064500D01*
X113682185Y-104050768D01*
X113658297Y-103986721D01*
X113658293Y-103986714D01*
X113572047Y-103871505D01*
X113572044Y-103871502D01*
X113456835Y-103785256D01*
X113456828Y-103785252D01*
X113321982Y-103734958D01*
X113321983Y-103734958D01*
X113262383Y-103728551D01*
X113262381Y-103728550D01*
X113262373Y-103728550D01*
X113262364Y-103728550D01*
X111366629Y-103728550D01*
X111366623Y-103728551D01*
X111307016Y-103734958D01*
X111172171Y-103785252D01*
X111172164Y-103785256D01*
X111056955Y-103871502D01*
X111056952Y-103871505D01*
X110970706Y-103986714D01*
X110970702Y-103986721D01*
X110920408Y-104121567D01*
X110914001Y-104181166D01*
X110914001Y-104181173D01*
X110914000Y-104181185D01*
X110914000Y-104503873D01*
X110894315Y-104570912D01*
X110877681Y-104591554D01*
X110340185Y-105129050D01*
X110274500Y-105129050D01*
X110274500Y-105063224D01*
X110240425Y-104936057D01*
X110174599Y-104822043D01*
X110081507Y-104728951D01*
X109967493Y-104663125D01*
X109840326Y-104629050D01*
X109708674Y-104629050D01*
X109581507Y-104663125D01*
X109467493Y-104728951D01*
X109374401Y-104822043D01*
X109308575Y-104936057D01*
X109274500Y-105063224D01*
X109142989Y-105063224D01*
X108709950Y-104630185D01*
X108685584Y-104678009D01*
X108685583Y-104678011D01*
X108628433Y-104853902D01*
X108599500Y-105036576D01*
X99450937Y-105036576D01*
X99450518Y-104064500D01*
X109275635Y-104064500D01*
X109774500Y-104563364D01*
X109774501Y-104563364D01*
X110273363Y-104064500D01*
X110273363Y-104064499D01*
X110225542Y-104040134D01*
X110049647Y-103982983D01*
X109866973Y-103954050D01*
X109682027Y-103954050D01*
X109499352Y-103982983D01*
X109323461Y-104040133D01*
X109323459Y-104040134D01*
X109275635Y-104064500D01*
X99450518Y-104064500D01*
X99450275Y-103501935D01*
X127352750Y-103501935D01*
X127352750Y-105597670D01*
X127352751Y-105597676D01*
X127359158Y-105657283D01*
X127409452Y-105792128D01*
X127409456Y-105792135D01*
X127495702Y-105907344D01*
X127495705Y-105907347D01*
X127610914Y-105993593D01*
X127610921Y-105993597D01*
X127745767Y-106043891D01*
X127745766Y-106043891D01*
X127752694Y-106044635D01*
X127805377Y-106050300D01*
X129901122Y-106050299D01*
X129960733Y-106043891D01*
X130095581Y-105993596D01*
X130210796Y-105907346D01*
X130297046Y-105792131D01*
X130328691Y-105707285D01*
X131761448Y-105707285D01*
X131854218Y-105754555D01*
X132048832Y-105817790D01*
X132250933Y-105849800D01*
X132455567Y-105849800D01*
X132657667Y-105817790D01*
X132852281Y-105754555D01*
X132945051Y-105707285D01*
X132353251Y-105115485D01*
X132353250Y-105115485D01*
X131761448Y-105707285D01*
X130328691Y-105707285D01*
X130347341Y-105657283D01*
X130353750Y-105597673D01*
X130353749Y-104447482D01*
X131053250Y-104447482D01*
X131053250Y-104652117D01*
X131085259Y-104854217D01*
X131148493Y-105048827D01*
X131148496Y-105048834D01*
X131195762Y-105141601D01*
X131787564Y-104549800D01*
X131787564Y-104549799D01*
X131718447Y-104480682D01*
X131828250Y-104480682D01*
X131828250Y-104618918D01*
X131864028Y-104752442D01*
X131933146Y-104872157D01*
X132030893Y-104969904D01*
X132150608Y-105039022D01*
X132284132Y-105074800D01*
X132422368Y-105074800D01*
X132555892Y-105039022D01*
X132675607Y-104969904D01*
X132773354Y-104872157D01*
X132842472Y-104752442D01*
X132878250Y-104618918D01*
X132878250Y-104549799D01*
X132918935Y-104549799D01*
X132918935Y-104549800D01*
X133510735Y-105141600D01*
X133558005Y-105048831D01*
X133621240Y-104854217D01*
X133653250Y-104652117D01*
X133653250Y-104447482D01*
X133621240Y-104245382D01*
X133558005Y-104050768D01*
X133510735Y-103957998D01*
X132918935Y-104549799D01*
X132878250Y-104549799D01*
X132878250Y-104480682D01*
X132842472Y-104347158D01*
X132773354Y-104227443D01*
X132675607Y-104129696D01*
X132555892Y-104060578D01*
X132422368Y-104024800D01*
X132284132Y-104024800D01*
X132150608Y-104060578D01*
X132030893Y-104129696D01*
X131933146Y-104227443D01*
X131864028Y-104347158D01*
X131828250Y-104480682D01*
X131718447Y-104480682D01*
X131195762Y-103957997D01*
X131148492Y-104050773D01*
X131148492Y-104050774D01*
X131085260Y-104245378D01*
X131085260Y-104245381D01*
X131053250Y-104447482D01*
X130353749Y-104447482D01*
X130353749Y-103501928D01*
X130347341Y-103442317D01*
X130328690Y-103392312D01*
X131761447Y-103392312D01*
X132353250Y-103984114D01*
X132353251Y-103984114D01*
X132835429Y-103501935D01*
X138807125Y-103501935D01*
X138807125Y-105597670D01*
X138807126Y-105597676D01*
X138813533Y-105657283D01*
X138863827Y-105792128D01*
X138863831Y-105792135D01*
X138950077Y-105907344D01*
X138950080Y-105907347D01*
X139065289Y-105993593D01*
X139065296Y-105993597D01*
X139200142Y-106043891D01*
X139200141Y-106043891D01*
X139207069Y-106044635D01*
X139259752Y-106050300D01*
X141355497Y-106050299D01*
X141415108Y-106043891D01*
X141549956Y-105993596D01*
X141665171Y-105907346D01*
X141751421Y-105792131D01*
X141783066Y-105707285D01*
X143215823Y-105707285D01*
X143308593Y-105754555D01*
X143503207Y-105817790D01*
X143705308Y-105849800D01*
X143909942Y-105849800D01*
X144112042Y-105817790D01*
X144306656Y-105754555D01*
X144399426Y-105707285D01*
X143807626Y-105115485D01*
X143807625Y-105115485D01*
X143215823Y-105707285D01*
X141783066Y-105707285D01*
X141801716Y-105657283D01*
X141808125Y-105597673D01*
X141808124Y-104447482D01*
X142507625Y-104447482D01*
X142507625Y-104652117D01*
X142539634Y-104854217D01*
X142602868Y-105048827D01*
X142602871Y-105048834D01*
X142650137Y-105141601D01*
X143241939Y-104549800D01*
X143241939Y-104549799D01*
X143172822Y-104480682D01*
X143282625Y-104480682D01*
X143282625Y-104618918D01*
X143318403Y-104752442D01*
X143387521Y-104872157D01*
X143485268Y-104969904D01*
X143604983Y-105039022D01*
X143738507Y-105074800D01*
X143876743Y-105074800D01*
X144010267Y-105039022D01*
X144129982Y-104969904D01*
X144227729Y-104872157D01*
X144296847Y-104752442D01*
X144332625Y-104618918D01*
X144332625Y-104549799D01*
X144373310Y-104549799D01*
X144373310Y-104549800D01*
X144965110Y-105141600D01*
X145012380Y-105048831D01*
X145075615Y-104854217D01*
X145107625Y-104652117D01*
X145107625Y-104447482D01*
X145075615Y-104245382D01*
X145012380Y-104050768D01*
X144965110Y-103957998D01*
X144373310Y-104549799D01*
X144332625Y-104549799D01*
X144332625Y-104480682D01*
X144296847Y-104347158D01*
X144227729Y-104227443D01*
X144129982Y-104129696D01*
X144010267Y-104060578D01*
X143876743Y-104024800D01*
X143738507Y-104024800D01*
X143604983Y-104060578D01*
X143485268Y-104129696D01*
X143387521Y-104227443D01*
X143318403Y-104347158D01*
X143282625Y-104480682D01*
X143172822Y-104480682D01*
X142650137Y-103957997D01*
X142602867Y-104050773D01*
X142602867Y-104050774D01*
X142539635Y-104245378D01*
X142539635Y-104245381D01*
X142507625Y-104447482D01*
X141808124Y-104447482D01*
X141808124Y-103501928D01*
X141801716Y-103442317D01*
X141783065Y-103392312D01*
X143215822Y-103392312D01*
X143807625Y-103984114D01*
X143807626Y-103984114D01*
X144399426Y-103392312D01*
X144306659Y-103345046D01*
X144306652Y-103345043D01*
X144112042Y-103281809D01*
X143909942Y-103249800D01*
X143705308Y-103249800D01*
X143503206Y-103281810D01*
X143503203Y-103281810D01*
X143308599Y-103345042D01*
X143308598Y-103345042D01*
X143215822Y-103392312D01*
X141783065Y-103392312D01*
X141751422Y-103307471D01*
X141751418Y-103307464D01*
X141665172Y-103192255D01*
X141665169Y-103192252D01*
X141549960Y-103106006D01*
X141549953Y-103106002D01*
X141415107Y-103055708D01*
X141415108Y-103055708D01*
X141355508Y-103049301D01*
X141355506Y-103049300D01*
X141355498Y-103049300D01*
X141355489Y-103049300D01*
X139259754Y-103049300D01*
X139259748Y-103049301D01*
X139200141Y-103055708D01*
X139065296Y-103106002D01*
X139065289Y-103106006D01*
X138950080Y-103192252D01*
X138950077Y-103192255D01*
X138863831Y-103307464D01*
X138863827Y-103307471D01*
X138813533Y-103442317D01*
X138807126Y-103501916D01*
X138807125Y-103501935D01*
X132835429Y-103501935D01*
X132926439Y-103410925D01*
X132945051Y-103392312D01*
X132852284Y-103345046D01*
X132852277Y-103345043D01*
X132657667Y-103281809D01*
X132455567Y-103249800D01*
X132250933Y-103249800D01*
X132048831Y-103281810D01*
X132048828Y-103281810D01*
X131854224Y-103345042D01*
X131854223Y-103345042D01*
X131761447Y-103392312D01*
X130328690Y-103392312D01*
X130297047Y-103307471D01*
X130297043Y-103307464D01*
X130210797Y-103192255D01*
X130210794Y-103192252D01*
X130095585Y-103106006D01*
X130095578Y-103106002D01*
X129960732Y-103055708D01*
X129960733Y-103055708D01*
X129901133Y-103049301D01*
X129901131Y-103049300D01*
X129901123Y-103049300D01*
X129901114Y-103049300D01*
X127805379Y-103049300D01*
X127805373Y-103049301D01*
X127745766Y-103055708D01*
X127610921Y-103106002D01*
X127610914Y-103106006D01*
X127495705Y-103192252D01*
X127495702Y-103192255D01*
X127409456Y-103307464D01*
X127409452Y-103307471D01*
X127359158Y-103442317D01*
X127352751Y-103501916D01*
X127352750Y-103501935D01*
X99450275Y-103501935D01*
X99445056Y-91399800D01*
X150652000Y-91399800D01*
X150652000Y-94599800D01*
X151052000Y-94999800D01*
X155452000Y-94999800D01*
X155852000Y-94599800D01*
X155852000Y-91599800D01*
X155552000Y-91299800D01*
X150752000Y-91299800D01*
X150652000Y-91399800D01*
X99445056Y-91399800D01*
X99443270Y-87257285D01*
X101910198Y-87257285D01*
X102002968Y-87304555D01*
X102197582Y-87367790D01*
X102399683Y-87399800D01*
X102604317Y-87399800D01*
X102806417Y-87367790D01*
X103001031Y-87304555D01*
X103093801Y-87257285D01*
X102502001Y-86665485D01*
X102502000Y-86665485D01*
X101910198Y-87257285D01*
X99443270Y-87257285D01*
X99442727Y-85997482D01*
X101202000Y-85997482D01*
X101202000Y-86202117D01*
X101234009Y-86404217D01*
X101297243Y-86598827D01*
X101297246Y-86598834D01*
X101344512Y-86691601D01*
X101936314Y-86099800D01*
X101936314Y-86099799D01*
X101870489Y-86033974D01*
X102002000Y-86033974D01*
X102002000Y-86165626D01*
X102036075Y-86292793D01*
X102101901Y-86406807D01*
X102194993Y-86499899D01*
X102309007Y-86565725D01*
X102436174Y-86599800D01*
X102567826Y-86599800D01*
X102694993Y-86565725D01*
X102809007Y-86499899D01*
X102902099Y-86406807D01*
X102967925Y-86292793D01*
X103002000Y-86165626D01*
X103002000Y-86099799D01*
X103067685Y-86099799D01*
X103067685Y-86099800D01*
X103659485Y-86691600D01*
X103706755Y-86598831D01*
X103769990Y-86404217D01*
X103802000Y-86202117D01*
X103802000Y-85997482D01*
X103769990Y-85795382D01*
X103706755Y-85600768D01*
X103659485Y-85507998D01*
X103067685Y-86099799D01*
X103002000Y-86099799D01*
X103002000Y-86033974D01*
X102967925Y-85906807D01*
X102902099Y-85792793D01*
X102809007Y-85699701D01*
X102694993Y-85633875D01*
X102567826Y-85599800D01*
X102436174Y-85599800D01*
X102309007Y-85633875D01*
X102194993Y-85699701D01*
X102101901Y-85792793D01*
X102036075Y-85906807D01*
X102002000Y-86033974D01*
X101870489Y-86033974D01*
X101344512Y-85507997D01*
X101297242Y-85600773D01*
X101297242Y-85600774D01*
X101234010Y-85795378D01*
X101234010Y-85795381D01*
X101202000Y-85997482D01*
X99442727Y-85997482D01*
X99442272Y-84942312D01*
X101910197Y-84942312D01*
X102502000Y-85534114D01*
X102502001Y-85534114D01*
X103093801Y-84942312D01*
X103001034Y-84895046D01*
X103001027Y-84895043D01*
X102806417Y-84831809D01*
X102604317Y-84799800D01*
X102399683Y-84799800D01*
X102197581Y-84831810D01*
X102197578Y-84831810D01*
X102002974Y-84895042D01*
X102002973Y-84895042D01*
X101910197Y-84942312D01*
X99442272Y-84942312D01*
X99441003Y-81998367D01*
X100711242Y-81998367D01*
X100711242Y-82233820D01*
X100741973Y-82467253D01*
X100802915Y-82694689D01*
X100893015Y-82912210D01*
X100893017Y-82912214D01*
X101010743Y-83116120D01*
X101010748Y-83116126D01*
X101010749Y-83116128D01*
X101154074Y-83302914D01*
X101154080Y-83302921D01*
X101320560Y-83469401D01*
X101320566Y-83469406D01*
X101507362Y-83612739D01*
X101711268Y-83730465D01*
X101928797Y-83820568D01*
X102156225Y-83881508D01*
X102331302Y-83904557D01*
X102389661Y-83912240D01*
X102389662Y-83912240D01*
X102625115Y-83912240D01*
X102671801Y-83906093D01*
X102858551Y-83881508D01*
X103085979Y-83820568D01*
X103303508Y-83730465D01*
X103507414Y-83612739D01*
X103694210Y-83469406D01*
X103860700Y-83302916D01*
X104004033Y-83116120D01*
X104121759Y-82912214D01*
X104211862Y-82694685D01*
X104272802Y-82467257D01*
X104303534Y-82233820D01*
X104303534Y-81998368D01*
X104272802Y-81764931D01*
X104211862Y-81537503D01*
X104121759Y-81319974D01*
X104004033Y-81116068D01*
X103860700Y-80929272D01*
X103860695Y-80929266D01*
X103694215Y-80762786D01*
X103694208Y-80762780D01*
X103507422Y-80619455D01*
X103507420Y-80619454D01*
X103507414Y-80619449D01*
X103303508Y-80501723D01*
X103303504Y-80501721D01*
X103085983Y-80411621D01*
X102858547Y-80350679D01*
X102625115Y-80319948D01*
X102625114Y-80319948D01*
X102389662Y-80319948D01*
X102389661Y-80319948D01*
X102156228Y-80350679D01*
X101928792Y-80411621D01*
X101711271Y-80501721D01*
X101711267Y-80501723D01*
X101507362Y-80619449D01*
X101507353Y-80619455D01*
X101320567Y-80762780D01*
X101320560Y-80762786D01*
X101154080Y-80929266D01*
X101154074Y-80929273D01*
X101010749Y-81116059D01*
X101010743Y-81116068D01*
X100893017Y-81319973D01*
X100893015Y-81319977D01*
X100802915Y-81537498D01*
X100741973Y-81764934D01*
X100711242Y-81998367D01*
X99441003Y-81998367D01*
X99432176Y-61527759D01*
X103946500Y-61527759D01*
X103946500Y-69098440D01*
X103949397Y-69152488D01*
X103949397Y-69152489D01*
X103952229Y-69178822D01*
X103952232Y-69178849D01*
X103960885Y-69232245D01*
X103960885Y-69232247D01*
X103994798Y-69323168D01*
X104011168Y-69367057D01*
X104044653Y-69428380D01*
X104130877Y-69543561D01*
X104130881Y-69543565D01*
X104130886Y-69543571D01*
X104358223Y-69770907D01*
X104358239Y-69770923D01*
X104358255Y-69770937D01*
X104358262Y-69770944D01*
X104398480Y-69807071D01*
X104398492Y-69807081D01*
X104398500Y-69807088D01*
X104419142Y-69823722D01*
X104463026Y-69855367D01*
X104593903Y-69915138D01*
X104660942Y-69934823D01*
X104660946Y-69934824D01*
X104803362Y-69955300D01*
X110941254Y-69955300D01*
X111008293Y-69974985D01*
X111028935Y-69991619D01*
X113560181Y-72522865D01*
X113593666Y-72584188D01*
X113596500Y-72610546D01*
X113596500Y-80070300D01*
X113576815Y-80137339D01*
X113524011Y-80183094D01*
X113472500Y-80194300D01*
X109753360Y-80194300D01*
X109699311Y-80197197D01*
X109699310Y-80197197D01*
X109672977Y-80200029D01*
X109672950Y-80200032D01*
X109619554Y-80208685D01*
X109619552Y-80208685D01*
X109484747Y-80258966D01*
X109423422Y-80292451D01*
X109308240Y-80378676D01*
X109308228Y-80378686D01*
X105280892Y-84406023D01*
X105280855Y-84406062D01*
X105244728Y-84446280D01*
X105244718Y-84446292D01*
X105228076Y-84466943D01*
X105196433Y-84510825D01*
X105136663Y-84641699D01*
X105136662Y-84641703D01*
X105116977Y-84708742D01*
X105116976Y-84708746D01*
X105099283Y-84831809D01*
X105096500Y-84851163D01*
X105096500Y-86498440D01*
X105099397Y-86552488D01*
X105099397Y-86552489D01*
X105102229Y-86578822D01*
X105102232Y-86578849D01*
X105110885Y-86632245D01*
X105110885Y-86632247D01*
X105133449Y-86692741D01*
X105161168Y-86767057D01*
X105194653Y-86828380D01*
X105280877Y-86943561D01*
X105280881Y-86943565D01*
X105280886Y-86943571D01*
X106057919Y-87720604D01*
X106057936Y-87720620D01*
X106099343Y-87757706D01*
X106120599Y-87774733D01*
X106165845Y-87807058D01*
X106297073Y-87866058D01*
X106364227Y-87885348D01*
X106364228Y-87885348D01*
X106364274Y-87885354D01*
X106372297Y-87886484D01*
X106372647Y-87886508D01*
X106506761Y-87904986D01*
X120799189Y-87820912D01*
X121990224Y-87813907D01*
X122017733Y-87812672D01*
X122029529Y-87812144D01*
X122048753Y-87810530D01*
X122087797Y-87805716D01*
X122225062Y-87762591D01*
X122288061Y-87732376D01*
X122288067Y-87732373D01*
X122407622Y-87652322D01*
X123174809Y-86961854D01*
X123674116Y-86512476D01*
X123721085Y-86464162D01*
X123742446Y-86439036D01*
X123782567Y-86384912D01*
X123842338Y-86254035D01*
X123862023Y-86186996D01*
X123862024Y-86186992D01*
X123882500Y-86044576D01*
X123882500Y-75969946D01*
X123902185Y-75902907D01*
X123906555Y-75896549D01*
X125618163Y-73565848D01*
X125622101Y-73560305D01*
X125627294Y-73553000D01*
X125627316Y-73552968D01*
X125631686Y-73546610D01*
X125640350Y-73533577D01*
X125700121Y-73402700D01*
X125719806Y-73335661D01*
X125719807Y-73335657D01*
X125740283Y-73193241D01*
X125740283Y-63503247D01*
X126484213Y-63503247D01*
X126576983Y-63550517D01*
X126771597Y-63613752D01*
X126973698Y-63645762D01*
X127178332Y-63645762D01*
X127380432Y-63613752D01*
X127575046Y-63550517D01*
X127667816Y-63503247D01*
X129984213Y-63503247D01*
X130076983Y-63550517D01*
X130271597Y-63613752D01*
X130473698Y-63645762D01*
X130678332Y-63645762D01*
X130880432Y-63613752D01*
X131075046Y-63550517D01*
X131167816Y-63503247D01*
X130576016Y-62911447D01*
X130576015Y-62911447D01*
X129984213Y-63503247D01*
X127667816Y-63503247D01*
X127076016Y-62911447D01*
X127076015Y-62911447D01*
X126484213Y-63503247D01*
X125740283Y-63503247D01*
X125740283Y-63054516D01*
X125759968Y-62987477D01*
X125812772Y-62941722D01*
X125881930Y-62931778D01*
X125883682Y-62932043D01*
X125918528Y-62937562D01*
X126510329Y-62345762D01*
X126510329Y-62345761D01*
X126441212Y-62276644D01*
X126551015Y-62276644D01*
X126551015Y-62414880D01*
X126586793Y-62548404D01*
X126655911Y-62668119D01*
X126753658Y-62765866D01*
X126873373Y-62834984D01*
X127006897Y-62870762D01*
X127145133Y-62870762D01*
X127278657Y-62834984D01*
X127398372Y-62765866D01*
X127496119Y-62668119D01*
X127565237Y-62548404D01*
X127601015Y-62414880D01*
X127601015Y-62345761D01*
X127641700Y-62345761D01*
X127641700Y-62345762D01*
X128233500Y-62937562D01*
X128280770Y-62844793D01*
X128344005Y-62650179D01*
X128376015Y-62448079D01*
X128376015Y-62243444D01*
X129276015Y-62243444D01*
X129276015Y-62448079D01*
X129308024Y-62650179D01*
X129371258Y-62844789D01*
X129371261Y-62844796D01*
X129418527Y-62937563D01*
X130010329Y-62345762D01*
X130010329Y-62345761D01*
X129941212Y-62276644D01*
X130051015Y-62276644D01*
X130051015Y-62414880D01*
X130086793Y-62548404D01*
X130155911Y-62668119D01*
X130253658Y-62765866D01*
X130373373Y-62834984D01*
X130506897Y-62870762D01*
X130645133Y-62870762D01*
X130778657Y-62834984D01*
X130898372Y-62765866D01*
X130996119Y-62668119D01*
X131065237Y-62548404D01*
X131101015Y-62414880D01*
X131101015Y-62276644D01*
X131065237Y-62143120D01*
X130996119Y-62023405D01*
X130898372Y-61925658D01*
X130778657Y-61856540D01*
X130645133Y-61820762D01*
X130506897Y-61820762D01*
X130373373Y-61856540D01*
X130253658Y-61925658D01*
X130155911Y-62023405D01*
X130086793Y-62143120D01*
X130051015Y-62276644D01*
X129941212Y-62276644D01*
X129418527Y-61753959D01*
X129371257Y-61846735D01*
X129371257Y-61846736D01*
X129308025Y-62041340D01*
X129308025Y-62041343D01*
X129276015Y-62243444D01*
X128376015Y-62243444D01*
X128344005Y-62041344D01*
X128280770Y-61846730D01*
X128233500Y-61753960D01*
X127641700Y-62345761D01*
X127601015Y-62345761D01*
X127601015Y-62276644D01*
X127565237Y-62143120D01*
X127496119Y-62023405D01*
X127398372Y-61925658D01*
X127278657Y-61856540D01*
X127145133Y-61820762D01*
X127006897Y-61820762D01*
X126873373Y-61856540D01*
X126753658Y-61925658D01*
X126655911Y-62023405D01*
X126586793Y-62143120D01*
X126551015Y-62276644D01*
X126441212Y-62276644D01*
X125918527Y-61753959D01*
X125883681Y-61759479D01*
X125814388Y-61750524D01*
X125760936Y-61705528D01*
X125740296Y-61638777D01*
X125740283Y-61637006D01*
X125740283Y-61483942D01*
X125737385Y-61429894D01*
X125737385Y-61429893D01*
X125734553Y-61403560D01*
X125734550Y-61403533D01*
X125725897Y-61350137D01*
X125725897Y-61350135D01*
X125697729Y-61274614D01*
X125697728Y-61274611D01*
X125675618Y-61215334D01*
X125675617Y-61215333D01*
X125675615Y-61215326D01*
X125660843Y-61188274D01*
X126484212Y-61188274D01*
X127076015Y-61780076D01*
X127076016Y-61780076D01*
X127667816Y-61188274D01*
X129984212Y-61188274D01*
X130576015Y-61780076D01*
X130576016Y-61780076D01*
X131167816Y-61188274D01*
X131075049Y-61141008D01*
X131075042Y-61141005D01*
X130880432Y-61077771D01*
X130678332Y-61045762D01*
X130473698Y-61045762D01*
X130271596Y-61077772D01*
X130271593Y-61077772D01*
X130076989Y-61141004D01*
X130076988Y-61141004D01*
X129984212Y-61188274D01*
X127667816Y-61188274D01*
X127575049Y-61141008D01*
X127575042Y-61141005D01*
X127380432Y-61077771D01*
X127178332Y-61045762D01*
X126973698Y-61045762D01*
X126771596Y-61077772D01*
X126771593Y-61077772D01*
X126576989Y-61141004D01*
X126576988Y-61141004D01*
X126484212Y-61188274D01*
X125660843Y-61188274D01*
X125642130Y-61154003D01*
X125555906Y-61038822D01*
X125555901Y-61038817D01*
X125555896Y-61038811D01*
X124372372Y-59855288D01*
X124372366Y-59855282D01*
X124372357Y-59855273D01*
X124370558Y-59853657D01*
X124332115Y-59819124D01*
X124332103Y-59819114D01*
X124330152Y-59817542D01*
X124311454Y-59802474D01*
X124311452Y-59802472D01*
X124267570Y-59770829D01*
X124136696Y-59711059D01*
X124069651Y-59691372D01*
X124016957Y-59683796D01*
X123927234Y-59670896D01*
X105803362Y-59670896D01*
X105803360Y-59670896D01*
X105749311Y-59673793D01*
X105749310Y-59673793D01*
X105722977Y-59676625D01*
X105722950Y-59676628D01*
X105669554Y-59685281D01*
X105669552Y-59685281D01*
X105534747Y-59735562D01*
X105473422Y-59769047D01*
X105358240Y-59855272D01*
X105358228Y-59855282D01*
X104130892Y-61082619D01*
X104130855Y-61082658D01*
X104094728Y-61122876D01*
X104094718Y-61122888D01*
X104078076Y-61143539D01*
X104046433Y-61187421D01*
X103986663Y-61318295D01*
X103966976Y-61385340D01*
X103946500Y-61527759D01*
X99432176Y-61527759D01*
X99427053Y-49648467D01*
X99446709Y-49581422D01*
X99499493Y-49535644D01*
X99550667Y-49524417D01*
X107281927Y-49500500D01*
X109382219Y-49500500D01*
X109449258Y-49520185D01*
G37*
%TD.AperFunction*%
%TA.AperFunction,Conductor*%
G36*
X147368377Y-49520185D02*
G01*
X147389019Y-49536819D01*
X148215681Y-50363481D01*
X148249166Y-50424804D01*
X148252000Y-50451162D01*
X148252000Y-55599800D01*
X151352000Y-58699800D01*
X162600638Y-58699800D01*
X162667677Y-58719485D01*
X162688319Y-58736119D01*
X164915681Y-60963481D01*
X164949166Y-61024804D01*
X164952000Y-61051162D01*
X164952000Y-67148438D01*
X164932315Y-67215477D01*
X164915681Y-67236119D01*
X163688319Y-68463481D01*
X163626996Y-68496966D01*
X163600638Y-68499800D01*
X147651999Y-68499800D01*
X146852000Y-69299799D01*
X146852000Y-73348438D01*
X146843355Y-73377878D01*
X146836832Y-73407865D01*
X146833077Y-73412880D01*
X146832315Y-73415477D01*
X146815681Y-73436119D01*
X146688319Y-73563481D01*
X146626996Y-73596966D01*
X146600638Y-73599800D01*
X144703362Y-73599800D01*
X144636323Y-73580115D01*
X144615681Y-73563481D01*
X144488319Y-73436119D01*
X144454834Y-73374796D01*
X144452000Y-73348438D01*
X144452000Y-68899800D01*
X144252000Y-68699800D01*
X142603362Y-68699800D01*
X142536323Y-68680115D01*
X142515681Y-68663481D01*
X141988319Y-68136119D01*
X141954834Y-68074796D01*
X141952000Y-68048438D01*
X141952000Y-63507285D01*
X152300198Y-63507285D01*
X152392968Y-63554555D01*
X152587582Y-63617790D01*
X152789683Y-63649800D01*
X152994317Y-63649800D01*
X153196417Y-63617790D01*
X153391031Y-63554555D01*
X153483801Y-63507285D01*
X152892001Y-62915485D01*
X152892000Y-62915485D01*
X152300198Y-63507285D01*
X141952000Y-63507285D01*
X141952000Y-62247482D01*
X151592000Y-62247482D01*
X151592000Y-62452117D01*
X151624009Y-62654217D01*
X151687243Y-62848827D01*
X151687246Y-62848834D01*
X151734512Y-62941601D01*
X152326314Y-62349800D01*
X152326314Y-62349799D01*
X152257197Y-62280682D01*
X152367000Y-62280682D01*
X152367000Y-62418918D01*
X152402778Y-62552442D01*
X152471896Y-62672157D01*
X152569643Y-62769904D01*
X152689358Y-62839022D01*
X152822882Y-62874800D01*
X152961118Y-62874800D01*
X153094642Y-62839022D01*
X153214357Y-62769904D01*
X153312104Y-62672157D01*
X153381222Y-62552442D01*
X153417000Y-62418918D01*
X153417000Y-62349799D01*
X153457685Y-62349799D01*
X153457685Y-62349800D01*
X154049485Y-62941600D01*
X154096755Y-62848831D01*
X154159990Y-62654217D01*
X154192000Y-62452117D01*
X154192000Y-62247482D01*
X154159990Y-62045382D01*
X154096755Y-61850768D01*
X154049485Y-61757998D01*
X153457685Y-62349799D01*
X153417000Y-62349799D01*
X153417000Y-62280682D01*
X153381222Y-62147158D01*
X153312104Y-62027443D01*
X153214357Y-61929696D01*
X153094642Y-61860578D01*
X152961118Y-61824800D01*
X152822882Y-61824800D01*
X152689358Y-61860578D01*
X152569643Y-61929696D01*
X152471896Y-62027443D01*
X152402778Y-62147158D01*
X152367000Y-62280682D01*
X152257197Y-62280682D01*
X151734512Y-61757997D01*
X151687242Y-61850773D01*
X151687242Y-61850774D01*
X151624010Y-62045378D01*
X151624010Y-62045381D01*
X151592000Y-62247482D01*
X141952000Y-62247482D01*
X141952000Y-61192312D01*
X152300197Y-61192312D01*
X152892000Y-61784114D01*
X152892001Y-61784114D01*
X153371183Y-61304931D01*
X155091500Y-61304931D01*
X155091500Y-63394656D01*
X155091502Y-63394682D01*
X155094413Y-63419787D01*
X155094415Y-63419791D01*
X155139793Y-63522564D01*
X155139794Y-63522565D01*
X155219235Y-63602006D01*
X155322009Y-63647385D01*
X155347135Y-63650300D01*
X157436864Y-63650299D01*
X157436879Y-63650297D01*
X157436882Y-63650297D01*
X157461987Y-63647386D01*
X157461988Y-63647385D01*
X157461991Y-63647385D01*
X157564765Y-63602006D01*
X157644206Y-63522565D01*
X157689585Y-63419791D01*
X157692500Y-63394665D01*
X157692499Y-61304936D01*
X157692031Y-61300897D01*
X157689586Y-61279812D01*
X157689585Y-61279810D01*
X157689585Y-61279809D01*
X157644206Y-61177035D01*
X157564765Y-61097594D01*
X157529018Y-61081810D01*
X157461992Y-61052215D01*
X157436865Y-61049300D01*
X155347143Y-61049300D01*
X155347117Y-61049302D01*
X155322012Y-61052213D01*
X155322008Y-61052215D01*
X155219235Y-61097593D01*
X155139794Y-61177034D01*
X155094415Y-61279806D01*
X155094415Y-61279808D01*
X155091500Y-61304931D01*
X153371183Y-61304931D01*
X153462441Y-61213673D01*
X153483801Y-61192312D01*
X153391034Y-61145046D01*
X153391027Y-61145043D01*
X153196417Y-61081809D01*
X152994317Y-61049800D01*
X152789683Y-61049800D01*
X152587581Y-61081810D01*
X152587578Y-61081810D01*
X152392974Y-61145042D01*
X152392973Y-61145042D01*
X152300197Y-61192312D01*
X141952000Y-61192312D01*
X141952000Y-60749800D01*
X140452000Y-59249800D01*
X132352000Y-59249800D01*
X132351999Y-59249800D01*
X131752000Y-59849799D01*
X131752000Y-59849800D01*
X131552000Y-60049800D01*
X131552000Y-56099800D01*
X128752000Y-56099800D01*
X128252000Y-55599800D01*
X128252000Y-54319396D01*
X130550515Y-54319396D01*
X130550515Y-54552127D01*
X130550516Y-54552144D01*
X130580893Y-54782884D01*
X130641135Y-55007709D01*
X130730195Y-55222722D01*
X130730203Y-55222738D01*
X130846568Y-55424286D01*
X130846579Y-55424302D01*
X130988257Y-55608941D01*
X130988263Y-55608948D01*
X131152828Y-55773513D01*
X131152835Y-55773519D01*
X131233952Y-55835762D01*
X131337483Y-55915204D01*
X131337490Y-55915208D01*
X131539038Y-56031573D01*
X131539054Y-56031581D01*
X131754067Y-56120641D01*
X131754069Y-56120641D01*
X131754075Y-56120644D01*
X131978889Y-56180883D01*
X132209643Y-56211262D01*
X132209650Y-56211262D01*
X132442380Y-56211262D01*
X132442387Y-56211262D01*
X132673141Y-56180883D01*
X132897955Y-56120644D01*
X132955968Y-56096614D01*
X133112975Y-56031581D01*
X133112978Y-56031579D01*
X133112984Y-56031577D01*
X133314547Y-55915204D01*
X133499196Y-55773518D01*
X133663771Y-55608943D01*
X133805457Y-55424294D01*
X133921830Y-55222731D01*
X134010897Y-55007702D01*
X134071136Y-54782888D01*
X134101515Y-54552134D01*
X134101515Y-54325580D01*
X135176015Y-54325580D01*
X135176015Y-54545943D01*
X135210488Y-54763597D01*
X135278582Y-54973172D01*
X135344179Y-55101911D01*
X135759767Y-54686323D01*
X135822755Y-54838388D01*
X135915777Y-54977606D01*
X136034171Y-55096000D01*
X136173389Y-55189022D01*
X136325452Y-55252008D01*
X135909863Y-55667596D01*
X136038604Y-55733193D01*
X136248179Y-55801288D01*
X136465834Y-55835762D01*
X136686196Y-55835762D01*
X136903850Y-55801288D01*
X137113427Y-55733192D01*
X137242165Y-55667596D01*
X136826577Y-55252008D01*
X136978641Y-55189022D01*
X137117859Y-55096000D01*
X137236253Y-54977606D01*
X137329275Y-54838388D01*
X137392261Y-54686324D01*
X137807849Y-55101912D01*
X137873445Y-54973174D01*
X137941541Y-54763597D01*
X137976015Y-54545943D01*
X137976015Y-54325580D01*
X137941541Y-54107926D01*
X137873446Y-53898351D01*
X137807849Y-53769610D01*
X137392261Y-54185198D01*
X137329275Y-54033136D01*
X137236253Y-53893918D01*
X137117859Y-53775524D01*
X136978641Y-53682502D01*
X136826576Y-53619514D01*
X137242164Y-53203926D01*
X137113425Y-53138329D01*
X136903850Y-53070235D01*
X136686196Y-53035762D01*
X136465834Y-53035762D01*
X136248179Y-53070235D01*
X136038604Y-53138329D01*
X136038601Y-53138330D01*
X135909864Y-53203926D01*
X136325453Y-53619514D01*
X136173389Y-53682502D01*
X136034171Y-53775524D01*
X135915777Y-53893918D01*
X135822755Y-54033136D01*
X135759767Y-54185199D01*
X135344179Y-53769611D01*
X135278583Y-53898348D01*
X135278582Y-53898351D01*
X135210488Y-54107926D01*
X135176015Y-54325580D01*
X134101515Y-54325580D01*
X134101515Y-54319390D01*
X134071136Y-54088636D01*
X134010897Y-53863822D01*
X134010894Y-53863814D01*
X133921834Y-53648801D01*
X133921826Y-53648785D01*
X133805461Y-53447237D01*
X133805457Y-53447230D01*
X133781010Y-53415370D01*
X133709685Y-53322417D01*
X133663772Y-53262582D01*
X133663766Y-53262575D01*
X133499201Y-53098010D01*
X133499194Y-53098004D01*
X133314555Y-52956326D01*
X133314553Y-52956324D01*
X133314547Y-52956320D01*
X133314542Y-52956317D01*
X133314539Y-52956315D01*
X133112991Y-52839950D01*
X133112975Y-52839942D01*
X132897962Y-52750882D01*
X132673137Y-52690640D01*
X132442397Y-52660263D01*
X132442392Y-52660262D01*
X132442387Y-52660262D01*
X132209643Y-52660262D01*
X132209637Y-52660262D01*
X132209632Y-52660263D01*
X131978892Y-52690640D01*
X131754067Y-52750882D01*
X131539054Y-52839942D01*
X131539038Y-52839950D01*
X131337490Y-52956315D01*
X131337474Y-52956326D01*
X131152835Y-53098004D01*
X131152828Y-53098010D01*
X130988263Y-53262575D01*
X130988257Y-53262582D01*
X130846579Y-53447221D01*
X130846568Y-53447237D01*
X130730203Y-53648785D01*
X130730195Y-53648801D01*
X130641135Y-53863814D01*
X130580893Y-54088639D01*
X130550516Y-54319379D01*
X130550515Y-54319396D01*
X128252000Y-54319396D01*
X128252000Y-50999800D01*
X129751300Y-49500500D01*
X147301338Y-49500500D01*
X147368377Y-49520185D01*
G37*
%TD.AperFunction*%
%TA.AperFunction,Conductor*%
G36*
X155852000Y-91599800D02*
G01*
X155852000Y-94599800D01*
X155452000Y-94999800D01*
X151052000Y-94999800D01*
X150652000Y-94599800D01*
X150652000Y-91399800D01*
X150752000Y-91299800D01*
X155552000Y-91299800D01*
X155852000Y-91599800D01*
G37*
%TD.AperFunction*%
D19*
X98349000Y-49000000D02*
X166000000Y-49000000D01*
X166000000Y-118000000D01*
X98349000Y-118000000D01*
X98349000Y-49000000D01*
M02*
