%TF.GenerationSoftware,KiCad,Pcbnew,9.0.0*%
%TF.CreationDate,2026-02-04T15:59:27+07:00*%
%TF.ProjectId,Connector_Extension_Board_V1.0,436f6e6e-6563-4746-9f72-5f457874656e,rev?*%
%TF.SameCoordinates,Original*%
%TF.FileFunction,Copper,L4,Bot*%
%TF.FilePolarity,Positive*%
%FSLAX46Y46*%
G04 Gerber Fmt 4.6, Leading zero omitted, Abs format (unit mm)*
G04 Created by KiCad (PCBNEW 9.0.0) date 2026-02-04 15:59:27*
%MOMM*%
%LPD*%
G01*
G04 APERTURE LIST*
%TA.AperFunction,ComponentPad*%
%ADD10C,2.000000*%
%TD*%
%TA.AperFunction,ComponentPad*%
%ADD11C,5.800000*%
%TD*%
%TA.AperFunction,ComponentPad*%
%ADD12R,1.780000X1.780000*%
%TD*%
%TA.AperFunction,ComponentPad*%
%ADD13C,1.750000*%
%TD*%
%TA.AperFunction,ComponentPad*%
%ADD14C,0.500000*%
%TD*%
%TA.AperFunction,ComponentPad*%
%ADD15R,2.000000X2.000000*%
%TD*%
%TA.AperFunction,ComponentPad*%
%ADD16C,2.260600*%
%TD*%
%TA.AperFunction,ComponentPad*%
%ADD17R,1.520000X1.520000*%
%TD*%
%TA.AperFunction,ComponentPad*%
%ADD18C,1.520000*%
%TD*%
%TA.AperFunction,ViaPad*%
%ADD19C,0.500000*%
%TD*%
%TA.AperFunction,Profile*%
%ADD20C,0.100000*%
%TD*%
G04 APERTURE END LIST*
D10*
X102502000Y-86099800D03*
D11*
X103500000Y-114500000D03*
X162500000Y-114500000D03*
D12*
X121343875Y-105129050D03*
D13*
X118803875Y-105129050D03*
D10*
X160902000Y-86599800D03*
D14*
X155182000Y-91919800D03*
X153982000Y-91919800D03*
X152782000Y-91919800D03*
X151582000Y-91919800D03*
X155182000Y-93119800D03*
X153982000Y-93119800D03*
X152782000Y-93119800D03*
X151582000Y-93119800D03*
X155182000Y-94319800D03*
X153982000Y-94319800D03*
X152782000Y-94319800D03*
X151582000Y-94319800D03*
D15*
X140307625Y-104549800D03*
D10*
X143807625Y-104549800D03*
D16*
X137807625Y-112459800D03*
X146307625Y-112459800D03*
D11*
X113000000Y-52500000D03*
D15*
X156392000Y-62349800D03*
D10*
X152892000Y-62349800D03*
D16*
X158892000Y-54439800D03*
X150392000Y-54439800D03*
D10*
X160902000Y-82639800D03*
D15*
X151762000Y-104549800D03*
D10*
X155262000Y-104549800D03*
D16*
X149262000Y-112459800D03*
X157762000Y-112459800D03*
D15*
X128853250Y-104549800D03*
D10*
X132353250Y-104549800D03*
D16*
X126353250Y-112459800D03*
X134853250Y-112459800D03*
D12*
X112314500Y-105129050D03*
D13*
X109774500Y-105129050D03*
D10*
X102502000Y-82139800D03*
D17*
X124252000Y-57389800D03*
D18*
X127252000Y-57389800D03*
X130252000Y-57389800D03*
X133252000Y-57389800D03*
D19*
X127327000Y-93549800D03*
X120702000Y-93349800D03*
X127852000Y-61399800D03*
X130352000Y-59149800D03*
X128077000Y-92799800D03*
X107302000Y-102949800D03*
X133853250Y-102949800D03*
X135353250Y-105949800D03*
X128077000Y-93549800D03*
X116952000Y-92799800D03*
X108052000Y-104449800D03*
X130352000Y-63649800D03*
X157252000Y-77247300D03*
X156802000Y-102949800D03*
X145852000Y-71924800D03*
X127852000Y-59149800D03*
X108052000Y-102949800D03*
X116302000Y-105199800D03*
X145677000Y-69949800D03*
X134603250Y-104449800D03*
X157552000Y-104449800D03*
X146002000Y-67749800D03*
X134603250Y-103699800D03*
X143052000Y-102949800D03*
X116302000Y-104449800D03*
X127327000Y-92799800D03*
X146802000Y-105199800D03*
X109477000Y-93349800D03*
X112152000Y-93699800D03*
X111402000Y-93699800D03*
X129602000Y-62149800D03*
X145252000Y-66999800D03*
X146002000Y-66999800D03*
X150052000Y-62699800D03*
X135353250Y-103699800D03*
X141652000Y-93349800D03*
X127102000Y-63649800D03*
X122627000Y-93699800D03*
X107227000Y-92799800D03*
X145252000Y-66249800D03*
X130052000Y-93374800D03*
X144552000Y-102949800D03*
X107127000Y-75699800D03*
X134603250Y-105949800D03*
X116302000Y-103699800D03*
X143852000Y-93674800D03*
X102302000Y-59949800D03*
X119677000Y-93374800D03*
X157552000Y-105199800D03*
X130352000Y-60649800D03*
X112152000Y-92949800D03*
X110552000Y-75849800D03*
X160677000Y-77397300D03*
X127852000Y-63649800D03*
X122627000Y-92949800D03*
X144602000Y-93674800D03*
X138927000Y-93524800D03*
X130352000Y-64399800D03*
X150802000Y-62699800D03*
X146802000Y-103699800D03*
X108452000Y-93374800D03*
X131077000Y-93349800D03*
X133752000Y-92949800D03*
X135353250Y-104449800D03*
X130352000Y-62149800D03*
X127852000Y-62899800D03*
X107302000Y-105949800D03*
X145102000Y-71924800D03*
X130352000Y-62899800D03*
X108052000Y-105199800D03*
X150052000Y-61949800D03*
X146802000Y-105949800D03*
X158302000Y-102949800D03*
X145852000Y-71174800D03*
X102302000Y-60699800D03*
X130352000Y-65149800D03*
X146002000Y-66249800D03*
X158302000Y-105199800D03*
X121877000Y-92949800D03*
X101552000Y-61449800D03*
X106477000Y-92799800D03*
X127852000Y-62149800D03*
X107127000Y-74949800D03*
X162177000Y-76647300D03*
X129602000Y-59149800D03*
X127852000Y-60649800D03*
X105627000Y-75699800D03*
X116302000Y-105949800D03*
X135353250Y-105199800D03*
X127852000Y-64399800D03*
X158302000Y-103699800D03*
X132252000Y-92949800D03*
X145352000Y-93674800D03*
X110552000Y-75099800D03*
X142677000Y-93324800D03*
X157552000Y-102949800D03*
X134603250Y-105199800D03*
X111302000Y-75849800D03*
X134603250Y-102949800D03*
X112052000Y-75099800D03*
X105727000Y-93549800D03*
X150802000Y-63449800D03*
X150802000Y-61949800D03*
X157552000Y-105949800D03*
X140427000Y-92774800D03*
X145252000Y-67749800D03*
X127102000Y-59149800D03*
X146052000Y-104449800D03*
X102302000Y-62199800D03*
X160677000Y-76647300D03*
X156502000Y-76497300D03*
X105727000Y-92799800D03*
X145302000Y-102949800D03*
X110652000Y-93699800D03*
X117052000Y-104449800D03*
X106477000Y-93549800D03*
X128827000Y-92799800D03*
X145352000Y-92924800D03*
X121877000Y-93699800D03*
X161427000Y-76647300D03*
X146802000Y-104449800D03*
X129602000Y-61399800D03*
X129602000Y-60649800D03*
X158477000Y-77072300D03*
X143802000Y-102949800D03*
X107302000Y-104449800D03*
X129602000Y-63649800D03*
X158302000Y-104449800D03*
X127102000Y-60649800D03*
X112052000Y-75849800D03*
X105627000Y-74949800D03*
X111302000Y-75099800D03*
X162177000Y-77397300D03*
X154552000Y-102949800D03*
X108352000Y-75524800D03*
X129602000Y-59899800D03*
X161427000Y-77397300D03*
X106377000Y-75699800D03*
X138927000Y-92774800D03*
X108052000Y-105949800D03*
X146052000Y-103699800D03*
X117052000Y-103699800D03*
X127102000Y-62899800D03*
X127852000Y-59899800D03*
X128827000Y-93549800D03*
X131603250Y-102949800D03*
X156502000Y-77247300D03*
X146802000Y-102949800D03*
X129602000Y-62899800D03*
X101552000Y-60699800D03*
X101552000Y-62199800D03*
X123377000Y-93699800D03*
X127102000Y-59899800D03*
X127102000Y-65149800D03*
X111402000Y-92949800D03*
X155302000Y-102949800D03*
X143852000Y-92924800D03*
X145852000Y-72674800D03*
X155752000Y-77247300D03*
X150802000Y-61199800D03*
X101552000Y-59949800D03*
X130352000Y-59899800D03*
X155752000Y-76497300D03*
X116952000Y-93549800D03*
X127102000Y-64399800D03*
X140427000Y-93524800D03*
X145102000Y-72674800D03*
X146052000Y-105949800D03*
X130352000Y-61399800D03*
X157252000Y-76497300D03*
X117052000Y-102949800D03*
X127852000Y-65149800D03*
X133103250Y-102949800D03*
X106377000Y-74949800D03*
X150052000Y-61199800D03*
X159502000Y-77047300D03*
X117702000Y-92799800D03*
X157552000Y-103699800D03*
X129602000Y-64399800D03*
X139677000Y-92774800D03*
X132353250Y-102949800D03*
X133752000Y-93699800D03*
X107302000Y-103699800D03*
X109377000Y-75499800D03*
X107227000Y-93549800D03*
X117052000Y-105199800D03*
X118452000Y-92799800D03*
X110652000Y-92949800D03*
X135353250Y-102949800D03*
X158302000Y-105949800D03*
X117702000Y-93549800D03*
X118452000Y-93549800D03*
X102302000Y-61449800D03*
X139677000Y-93524800D03*
X146052000Y-105199800D03*
X145652000Y-68924800D03*
X133002000Y-93699800D03*
X150052000Y-63449800D03*
X123377000Y-92949800D03*
X145102000Y-71174800D03*
X108052000Y-103699800D03*
X107302000Y-105199800D03*
X133002000Y-92949800D03*
X116302000Y-102949800D03*
X132252000Y-93699800D03*
X144602000Y-92924800D03*
X127102000Y-62149800D03*
X127102000Y-61399800D03*
X156052000Y-102949800D03*
X129602000Y-65149800D03*
X146052000Y-102949800D03*
X117052000Y-105949800D03*
X129454500Y-84949800D03*
X158052000Y-100199800D03*
X156552000Y-100949800D03*
X138802000Y-70449800D03*
X138052000Y-71199800D03*
X142552000Y-86449800D03*
X139552000Y-84949800D03*
X139552000Y-68199800D03*
X138802000Y-68199800D03*
X138052000Y-70449800D03*
X136152000Y-56049800D03*
X141802000Y-86449800D03*
X159552000Y-99449800D03*
X139552000Y-68949800D03*
X130204500Y-85699800D03*
X130204500Y-84949800D03*
X136152000Y-59049800D03*
X137652000Y-57549800D03*
X129454500Y-86449800D03*
X128704500Y-86449800D03*
X139552000Y-70449800D03*
X136152000Y-61299800D03*
X136902000Y-56799800D03*
X155802000Y-100949800D03*
X159552000Y-100199800D03*
X141052000Y-84949800D03*
X136902000Y-59799800D03*
X139552000Y-85699800D03*
X141802000Y-84949800D03*
X141802000Y-85699800D03*
X139552000Y-86449800D03*
X130954500Y-86449800D03*
X136152000Y-56799800D03*
X155802000Y-100199800D03*
X158052000Y-70999800D03*
X156552000Y-99449800D03*
X142552000Y-85699800D03*
X138802000Y-71199800D03*
X127954500Y-85699800D03*
X130954500Y-85699800D03*
X158802000Y-99449800D03*
X137652000Y-59799800D03*
X142552000Y-84949800D03*
X158052000Y-99449800D03*
X154302000Y-99449800D03*
X137652000Y-59049800D03*
X138052000Y-68949800D03*
X137652000Y-60549800D03*
X139552000Y-69699800D03*
X129454500Y-85699800D03*
X140302000Y-85699800D03*
X140302000Y-84949800D03*
X159552000Y-100949800D03*
X140302000Y-86449800D03*
X136902000Y-57549800D03*
X158802000Y-100949800D03*
X127954500Y-84949800D03*
X130954500Y-84949800D03*
X157302000Y-70249800D03*
X138802000Y-69699800D03*
X139552000Y-71199800D03*
X136152000Y-60549800D03*
X136902000Y-59049800D03*
X157302000Y-100949800D03*
X128704500Y-85699800D03*
X137652000Y-61299800D03*
X137652000Y-58299800D03*
X155052000Y-100199800D03*
X138802000Y-68949800D03*
X136152000Y-58299800D03*
X130204500Y-86449800D03*
X141052000Y-85699800D03*
X158052000Y-70249800D03*
X158802000Y-100199800D03*
X138052000Y-68199800D03*
X155052000Y-100949800D03*
X141052000Y-86449800D03*
X138052000Y-69699800D03*
X157302000Y-100199800D03*
X156552000Y-100199800D03*
X157302000Y-70999800D03*
X128704500Y-84949800D03*
X136902000Y-61299800D03*
X127954500Y-86449800D03*
X154302000Y-100199800D03*
X136902000Y-60549800D03*
X136152000Y-59799800D03*
X155802000Y-99449800D03*
X137652000Y-56799800D03*
X136902000Y-56049800D03*
X136152000Y-57549800D03*
X154302000Y-100949800D03*
X158052000Y-100949800D03*
X155052000Y-99449800D03*
X136902000Y-58299800D03*
X157302000Y-99449800D03*
X137652000Y-56049800D03*
X121052000Y-60199800D03*
X121052000Y-57949800D03*
X106302000Y-69199800D03*
X107802000Y-85239800D03*
X119552000Y-60199800D03*
X105552000Y-69199800D03*
X119552000Y-59449800D03*
X121052000Y-56449800D03*
X119742000Y-84959800D03*
X106302000Y-68449800D03*
X118992000Y-85709800D03*
X108552000Y-85239800D03*
X119552000Y-61699800D03*
X119742000Y-85709800D03*
X120492000Y-85709800D03*
X118992000Y-86459800D03*
X119552000Y-60949800D03*
X108552000Y-69199800D03*
X120302000Y-58699800D03*
X120302000Y-60949800D03*
X120302000Y-59449800D03*
X118992000Y-84959800D03*
X121052000Y-61699800D03*
X109302000Y-85239800D03*
X117492000Y-84959800D03*
X118242000Y-85709800D03*
X117492000Y-85709800D03*
X118242000Y-84959800D03*
X107052000Y-85989800D03*
X106302000Y-86739800D03*
X107052000Y-85239800D03*
X107802000Y-68449800D03*
X108552000Y-67699800D03*
X109302000Y-86739800D03*
X106302000Y-85239800D03*
X119552000Y-57949800D03*
X108552000Y-86739800D03*
X121052000Y-57199800D03*
X120302000Y-57199800D03*
X120302000Y-60199800D03*
X105552000Y-67699800D03*
X118242000Y-86459800D03*
X119552000Y-58699800D03*
X117492000Y-86459800D03*
X120302000Y-61699800D03*
X119552000Y-56449800D03*
X121052000Y-59449800D03*
X121052000Y-60949800D03*
X108552000Y-68449800D03*
X106302000Y-85989800D03*
X120302000Y-56449800D03*
X120302000Y-57949800D03*
X105552000Y-68449800D03*
X107052000Y-68449800D03*
X120492000Y-86459800D03*
X109302000Y-85989800D03*
X121052000Y-58699800D03*
X107052000Y-86739800D03*
X120492000Y-84959800D03*
X107802000Y-85989800D03*
X107052000Y-67699800D03*
X107802000Y-69199800D03*
X119742000Y-86459800D03*
X107802000Y-67699800D03*
X119552000Y-57199800D03*
X108552000Y-85989800D03*
X106302000Y-67699800D03*
X107802000Y-86739800D03*
X107052000Y-69199800D03*
X152552000Y-97699800D03*
X151802000Y-97699800D03*
X152552000Y-99949800D03*
X151052000Y-102199800D03*
X152552000Y-100699800D03*
X151802000Y-99199800D03*
X152552000Y-99199800D03*
X152552000Y-98449800D03*
X151802000Y-101449800D03*
X150302000Y-102199800D03*
X151802000Y-100699800D03*
X152552000Y-102199800D03*
X151802000Y-99949800D03*
X151052000Y-101449800D03*
X151802000Y-98449800D03*
X150302000Y-101449800D03*
X151802000Y-102199800D03*
X150302000Y-100699800D03*
X151052000Y-100699800D03*
X152552000Y-101449800D03*
X131279500Y-90499800D03*
X151422000Y-85599800D03*
X141752000Y-68774800D03*
X142877000Y-90499800D03*
X159527000Y-74474800D03*
X144252000Y-80199800D03*
%TA.AperFunction,Conductor*%
G36*
X138552000Y-56199800D02*
G01*
X138552000Y-61799800D01*
X138302000Y-62049800D01*
X134327000Y-62049800D01*
X132152000Y-59874800D01*
X132152000Y-58517545D01*
X132689937Y-58517545D01*
X132768327Y-58557488D01*
X132768330Y-58557489D01*
X132956947Y-58618773D01*
X133152837Y-58649800D01*
X133351163Y-58649800D01*
X133547052Y-58618773D01*
X133735666Y-58557490D01*
X133814061Y-58517545D01*
X133252001Y-57955485D01*
X133252000Y-57955485D01*
X132689937Y-58517545D01*
X132152000Y-58517545D01*
X132152000Y-57924114D01*
X132686314Y-57389800D01*
X132619171Y-57322657D01*
X132742000Y-57322657D01*
X132742000Y-57456943D01*
X132776755Y-57586653D01*
X132843898Y-57702947D01*
X132938853Y-57797902D01*
X133055147Y-57865045D01*
X133184857Y-57899800D01*
X133319143Y-57899800D01*
X133448853Y-57865045D01*
X133565147Y-57797902D01*
X133660102Y-57702947D01*
X133727245Y-57586653D01*
X133762000Y-57456943D01*
X133762000Y-57389799D01*
X133817685Y-57389799D01*
X133817685Y-57389801D01*
X134379745Y-57951861D01*
X134419690Y-57873466D01*
X134480973Y-57684852D01*
X134512000Y-57488963D01*
X134512000Y-57290636D01*
X134480973Y-57094747D01*
X134419689Y-56906130D01*
X134419688Y-56906127D01*
X134379745Y-56827737D01*
X133817685Y-57389799D01*
X133762000Y-57389799D01*
X133762000Y-57322657D01*
X133727245Y-57192947D01*
X133660102Y-57076653D01*
X133565147Y-56981698D01*
X133448853Y-56914555D01*
X133319143Y-56879800D01*
X133184857Y-56879800D01*
X133055147Y-56914555D01*
X132938853Y-56981698D01*
X132843898Y-57076653D01*
X132776755Y-57192947D01*
X132742000Y-57322657D01*
X132619171Y-57322657D01*
X132152000Y-56855486D01*
X132152000Y-56262052D01*
X132689937Y-56262052D01*
X133252000Y-56824114D01*
X133252001Y-56824114D01*
X133814060Y-56262053D01*
X133735672Y-56222111D01*
X133735669Y-56222110D01*
X133547052Y-56160826D01*
X133351163Y-56129800D01*
X133152837Y-56129800D01*
X132956947Y-56160826D01*
X132768328Y-56222111D01*
X132689937Y-56262052D01*
X132152000Y-56262052D01*
X132152000Y-55751162D01*
X132171685Y-55684123D01*
X132188319Y-55663481D01*
X132540681Y-55311119D01*
X132602004Y-55277634D01*
X132628362Y-55274800D01*
X137627000Y-55274800D01*
X138552000Y-56199800D01*
G37*
%TD.AperFunction*%
%TA.AperFunction,Conductor*%
G36*
X109573697Y-55419485D02*
G01*
X109601642Y-55444089D01*
X109682252Y-55540156D01*
X109682261Y-55540165D01*
X109682270Y-55540175D01*
X109959841Y-55817745D01*
X109959844Y-55817748D01*
X110066861Y-55907546D01*
X110260567Y-56070085D01*
X110260573Y-56070089D01*
X110260574Y-56070090D01*
X110582152Y-56295262D01*
X110725483Y-56378014D01*
X110922124Y-56491545D01*
X110922148Y-56491558D01*
X111277920Y-56657456D01*
X111277923Y-56657457D01*
X111277925Y-56657458D01*
X111646824Y-56791726D01*
X111646825Y-56791726D01*
X111646830Y-56791728D01*
X111765957Y-56823647D01*
X112026022Y-56893332D01*
X112412632Y-56961502D01*
X112803711Y-56995716D01*
X112803712Y-56995717D01*
X112803713Y-56995717D01*
X113196288Y-56995717D01*
X113196288Y-56995716D01*
X113587368Y-56961502D01*
X113973978Y-56893332D01*
X114353176Y-56791726D01*
X114722075Y-56657458D01*
X114786764Y-56627292D01*
X114877450Y-56585005D01*
X123192000Y-56585005D01*
X123192000Y-56989800D01*
X123852000Y-56989800D01*
X123852000Y-56329800D01*
X123447214Y-56329800D01*
X123447191Y-56329802D01*
X123422130Y-56332708D01*
X123422126Y-56332709D01*
X123319525Y-56378011D01*
X123319520Y-56378014D01*
X123240214Y-56457320D01*
X123240211Y-56457325D01*
X123194910Y-56559922D01*
X123194910Y-56559924D01*
X123192000Y-56585005D01*
X114877450Y-56585005D01*
X115077851Y-56491558D01*
X115077856Y-56491554D01*
X115077869Y-56491549D01*
X115417848Y-56295262D01*
X115739426Y-56070090D01*
X116040156Y-55817748D01*
X116317748Y-55540156D01*
X116398355Y-55444091D01*
X116456524Y-55405392D01*
X116493342Y-55399800D01*
X124950638Y-55399800D01*
X125017677Y-55419485D01*
X125038319Y-55436119D01*
X125548464Y-55946264D01*
X125581949Y-56007587D01*
X125584783Y-56033945D01*
X125584783Y-72716644D01*
X125565098Y-72783683D01*
X125560728Y-72790041D01*
X124452000Y-74299800D01*
X124452000Y-85954575D01*
X124432315Y-86021614D01*
X124410954Y-86046740D01*
X123050873Y-87270814D01*
X122987874Y-87301029D01*
X122968650Y-87302643D01*
X106503788Y-87399495D01*
X106436634Y-87380205D01*
X106415378Y-87363178D01*
X105638319Y-86586119D01*
X105604834Y-86524796D01*
X105602000Y-86498438D01*
X105602000Y-84851162D01*
X105621685Y-84784123D01*
X105638319Y-84763481D01*
X109665681Y-80736119D01*
X109727004Y-80702634D01*
X109753362Y-80699800D01*
X113852001Y-80699800D01*
X113852000Y-80699799D01*
X114102000Y-80283133D01*
X114102000Y-72349800D01*
X111202000Y-69449800D01*
X104803362Y-69449800D01*
X104736323Y-69430115D01*
X104715681Y-69413481D01*
X104488319Y-69186119D01*
X104454834Y-69124796D01*
X104452000Y-69098438D01*
X104452000Y-58194585D01*
X123192001Y-58194585D01*
X123192002Y-58194608D01*
X123194908Y-58219669D01*
X123194909Y-58219673D01*
X123240211Y-58322274D01*
X123240214Y-58322279D01*
X123319520Y-58401585D01*
X123319525Y-58401588D01*
X123422123Y-58446889D01*
X123447206Y-58449799D01*
X123851999Y-58449799D01*
X124652000Y-58449799D01*
X125056786Y-58449799D01*
X125056808Y-58449797D01*
X125081869Y-58446891D01*
X125081873Y-58446890D01*
X125184474Y-58401588D01*
X125184479Y-58401585D01*
X125263785Y-58322279D01*
X125263788Y-58322274D01*
X125309089Y-58219677D01*
X125309089Y-58219675D01*
X125311999Y-58194594D01*
X125312000Y-58194591D01*
X125312000Y-57789800D01*
X124652000Y-57789800D01*
X124652000Y-58449799D01*
X123851999Y-58449799D01*
X123852000Y-58449798D01*
X123852000Y-57789800D01*
X123192001Y-57789800D01*
X123192001Y-58194585D01*
X104452000Y-58194585D01*
X104452000Y-57322657D01*
X123742000Y-57322657D01*
X123742000Y-57456943D01*
X123776755Y-57586653D01*
X123843898Y-57702947D01*
X123938853Y-57797902D01*
X124055147Y-57865045D01*
X124184857Y-57899800D01*
X124319143Y-57899800D01*
X124448853Y-57865045D01*
X124565147Y-57797902D01*
X124660102Y-57702947D01*
X124727245Y-57586653D01*
X124762000Y-57456943D01*
X124762000Y-57322657D01*
X124727245Y-57192947D01*
X124660102Y-57076653D01*
X124573249Y-56989800D01*
X124652000Y-56989800D01*
X125311999Y-56989800D01*
X125311999Y-56585014D01*
X125311997Y-56584991D01*
X125309091Y-56559930D01*
X125309090Y-56559926D01*
X125263788Y-56457325D01*
X125263785Y-56457320D01*
X125184479Y-56378014D01*
X125184474Y-56378011D01*
X125081876Y-56332710D01*
X125056794Y-56329800D01*
X124652000Y-56329800D01*
X124652000Y-56989800D01*
X124573249Y-56989800D01*
X124565147Y-56981698D01*
X124448853Y-56914555D01*
X124319143Y-56879800D01*
X124184857Y-56879800D01*
X124055147Y-56914555D01*
X123938853Y-56981698D01*
X123843898Y-57076653D01*
X123776755Y-57192947D01*
X123742000Y-57322657D01*
X104452000Y-57322657D01*
X104452000Y-57101162D01*
X104471685Y-57034123D01*
X104488319Y-57013481D01*
X106065681Y-55436119D01*
X106127004Y-55402634D01*
X106153362Y-55399800D01*
X109506658Y-55399800D01*
X109573697Y-55419485D01*
G37*
%TD.AperFunction*%
%TA.AperFunction,Conductor*%
G36*
X162267677Y-75919485D02*
G01*
X162288319Y-75936119D01*
X162715681Y-76363481D01*
X162749166Y-76424804D01*
X162752000Y-76451162D01*
X162752000Y-78048438D01*
X162732315Y-78115477D01*
X162715681Y-78136119D01*
X162488319Y-78363481D01*
X162426996Y-78396966D01*
X162400638Y-78399800D01*
X155403362Y-78399800D01*
X155336323Y-78380115D01*
X155315681Y-78363481D01*
X155088319Y-78136119D01*
X155054834Y-78074796D01*
X155052000Y-78048438D01*
X155052000Y-76251162D01*
X155071685Y-76184123D01*
X155088319Y-76163481D01*
X155315681Y-75936119D01*
X155377004Y-75902634D01*
X155403362Y-75899800D01*
X162200638Y-75899800D01*
X162267677Y-75919485D01*
G37*
%TD.AperFunction*%
%TA.AperFunction,Conductor*%
G36*
X139246596Y-55294485D02*
G01*
X139267213Y-55311093D01*
X140913603Y-56956528D01*
X140947106Y-57017842D01*
X140949947Y-57044163D01*
X140950764Y-58449800D01*
X140957066Y-69299800D01*
X141568033Y-69299800D01*
X141600126Y-69304025D01*
X141610108Y-69306699D01*
X141679525Y-69325300D01*
X141679527Y-69325300D01*
X141824473Y-69325300D01*
X141824475Y-69325300D01*
X141895786Y-69306192D01*
X141903874Y-69304025D01*
X141935967Y-69299800D01*
X144022500Y-69299800D01*
X144089539Y-69319485D01*
X144135294Y-69372289D01*
X144146500Y-69423800D01*
X144146500Y-73348438D01*
X144148250Y-73381081D01*
X144148254Y-73381134D01*
X144151081Y-73407425D01*
X144151920Y-73414460D01*
X144151920Y-73414462D01*
X144186700Y-73521201D01*
X144186704Y-73521211D01*
X144220189Y-73582533D01*
X144272289Y-73652129D01*
X144272295Y-73652136D01*
X144272298Y-73652140D01*
X144399660Y-73779502D01*
X144420429Y-73798157D01*
X144423993Y-73801359D01*
X144444674Y-73818024D01*
X144450172Y-73822351D01*
X144450175Y-73822353D01*
X144550251Y-73873239D01*
X144617290Y-73892924D01*
X144703362Y-73905300D01*
X144703365Y-73905300D01*
X146600639Y-73905300D01*
X146602559Y-73905197D01*
X146633297Y-73903549D01*
X146659655Y-73900715D01*
X146666660Y-73899880D01*
X146773407Y-73865097D01*
X146834730Y-73831612D01*
X146847099Y-73822353D01*
X146904329Y-73779510D01*
X146904340Y-73779502D01*
X147031702Y-73652140D01*
X147053558Y-73627808D01*
X147070192Y-73607166D01*
X147074590Y-73601576D01*
X147074592Y-73601571D01*
X147077866Y-73596446D01*
X147078032Y-73596552D01*
X147081460Y-73590852D01*
X147091735Y-73576254D01*
X147112544Y-73526896D01*
X147125457Y-73501489D01*
X147126219Y-73498892D01*
X147124556Y-73498404D01*
X147135351Y-73472801D01*
X147138616Y-73457786D01*
X147140800Y-73449232D01*
X147145123Y-73434513D01*
X147157500Y-73348438D01*
X147157500Y-69477703D01*
X147166144Y-69448262D01*
X147172668Y-69418276D01*
X147176422Y-69413260D01*
X147177185Y-69410664D01*
X147193819Y-69390022D01*
X147247722Y-69336119D01*
X147309045Y-69302634D01*
X147335403Y-69299800D01*
X165375500Y-69299800D01*
X165442539Y-69319485D01*
X165488294Y-69372289D01*
X165499500Y-69423800D01*
X165499500Y-101099109D01*
X165479815Y-101166148D01*
X165463181Y-101186790D01*
X165186490Y-101463481D01*
X165125167Y-101496966D01*
X165098809Y-101499800D01*
X154003362Y-101499800D01*
X153973921Y-101491155D01*
X153943935Y-101484632D01*
X153938919Y-101480877D01*
X153936323Y-101480115D01*
X153915681Y-101463481D01*
X153788319Y-101336119D01*
X153754834Y-101274796D01*
X153752000Y-101248438D01*
X153752000Y-97651162D01*
X153771685Y-97584123D01*
X153788319Y-97563481D01*
X156852000Y-94499800D01*
X156852000Y-90999800D01*
X154652000Y-88799800D01*
X129503362Y-88799800D01*
X129436323Y-88780115D01*
X129415681Y-88763481D01*
X127288319Y-86636119D01*
X127273615Y-86609191D01*
X127257023Y-86583373D01*
X127256131Y-86577172D01*
X127254834Y-86574796D01*
X127252000Y-86548438D01*
X127252000Y-86482073D01*
X159105854Y-86482073D01*
X159105854Y-86717526D01*
X159136585Y-86950959D01*
X159197527Y-87178395D01*
X159287627Y-87395916D01*
X159287629Y-87395920D01*
X159405355Y-87599826D01*
X159405360Y-87599832D01*
X159405361Y-87599834D01*
X159548686Y-87786620D01*
X159548692Y-87786627D01*
X159715172Y-87953107D01*
X159715178Y-87953112D01*
X159901974Y-88096445D01*
X160105880Y-88214171D01*
X160323409Y-88304274D01*
X160550837Y-88365214D01*
X160725914Y-88388263D01*
X160784273Y-88395946D01*
X160784274Y-88395946D01*
X161019727Y-88395946D01*
X161066413Y-88389799D01*
X161253163Y-88365214D01*
X161480591Y-88304274D01*
X161698120Y-88214171D01*
X161902026Y-88096445D01*
X162088822Y-87953112D01*
X162255312Y-87786622D01*
X162398645Y-87599826D01*
X162516371Y-87395920D01*
X162606474Y-87178391D01*
X162667414Y-86950963D01*
X162698146Y-86717526D01*
X162698146Y-86482074D01*
X162667414Y-86248637D01*
X162606474Y-86021209D01*
X162516371Y-85803680D01*
X162398645Y-85599774D01*
X162255312Y-85412978D01*
X162255307Y-85412972D01*
X162088827Y-85246492D01*
X162088820Y-85246486D01*
X161902034Y-85103161D01*
X161902032Y-85103160D01*
X161902026Y-85103155D01*
X161698120Y-84985429D01*
X161698116Y-84985427D01*
X161480595Y-84895327D01*
X161253159Y-84834385D01*
X161019727Y-84803654D01*
X161019726Y-84803654D01*
X160784274Y-84803654D01*
X160784273Y-84803654D01*
X160550840Y-84834385D01*
X160323404Y-84895327D01*
X160105883Y-84985427D01*
X160105879Y-84985429D01*
X159901974Y-85103155D01*
X159901965Y-85103161D01*
X159715179Y-85246486D01*
X159715172Y-85246492D01*
X159548692Y-85412972D01*
X159548686Y-85412979D01*
X159405361Y-85599765D01*
X159405355Y-85599774D01*
X159287629Y-85803679D01*
X159287627Y-85803683D01*
X159197527Y-86021204D01*
X159136585Y-86248640D01*
X159105854Y-86482073D01*
X127252000Y-86482073D01*
X127252000Y-85527325D01*
X150871500Y-85527325D01*
X150871500Y-85672275D01*
X150906711Y-85803683D01*
X150909017Y-85812288D01*
X150981488Y-85937811D01*
X150981490Y-85937813D01*
X150981491Y-85937815D01*
X151083985Y-86040309D01*
X151083986Y-86040310D01*
X151083988Y-86040311D01*
X151209511Y-86112782D01*
X151209512Y-86112782D01*
X151209515Y-86112784D01*
X151349525Y-86150300D01*
X151349528Y-86150300D01*
X151494472Y-86150300D01*
X151494475Y-86150300D01*
X151634485Y-86112784D01*
X151760015Y-86040309D01*
X151862509Y-85937815D01*
X151934984Y-85812285D01*
X151972500Y-85672275D01*
X151972500Y-85527325D01*
X151934984Y-85387315D01*
X151862509Y-85261785D01*
X151760015Y-85159291D01*
X151760013Y-85159290D01*
X151760011Y-85159288D01*
X151634488Y-85086817D01*
X151634489Y-85086817D01*
X151623006Y-85083740D01*
X151494475Y-85049300D01*
X151349525Y-85049300D01*
X151220993Y-85083740D01*
X151209511Y-85086817D01*
X151083988Y-85159288D01*
X151083982Y-85159293D01*
X150981493Y-85261782D01*
X150981488Y-85261788D01*
X150909017Y-85387311D01*
X150909016Y-85387315D01*
X150871500Y-85527325D01*
X127252000Y-85527325D01*
X127252000Y-82522073D01*
X159105854Y-82522073D01*
X159105854Y-82757526D01*
X159136585Y-82990959D01*
X159197527Y-83218395D01*
X159287627Y-83435916D01*
X159287629Y-83435920D01*
X159405355Y-83639826D01*
X159405360Y-83639832D01*
X159405361Y-83639834D01*
X159548686Y-83826620D01*
X159548692Y-83826627D01*
X159715172Y-83993107D01*
X159715178Y-83993112D01*
X159901974Y-84136445D01*
X160105880Y-84254171D01*
X160323409Y-84344274D01*
X160550837Y-84405214D01*
X160725914Y-84428263D01*
X160784273Y-84435946D01*
X160784274Y-84435946D01*
X161019727Y-84435946D01*
X161066413Y-84429799D01*
X161253163Y-84405214D01*
X161480591Y-84344274D01*
X161698120Y-84254171D01*
X161902026Y-84136445D01*
X162088822Y-83993112D01*
X162255312Y-83826622D01*
X162398645Y-83639826D01*
X162516371Y-83435920D01*
X162606474Y-83218391D01*
X162667414Y-82990963D01*
X162698146Y-82757526D01*
X162698146Y-82522074D01*
X162667414Y-82288637D01*
X162606474Y-82061209D01*
X162516371Y-81843680D01*
X162398645Y-81639774D01*
X162255312Y-81452978D01*
X162255307Y-81452972D01*
X162088827Y-81286492D01*
X162088820Y-81286486D01*
X161902034Y-81143161D01*
X161902032Y-81143160D01*
X161902026Y-81143155D01*
X161698120Y-81025429D01*
X161698116Y-81025427D01*
X161480595Y-80935327D01*
X161253159Y-80874385D01*
X161019727Y-80843654D01*
X161019726Y-80843654D01*
X160784274Y-80843654D01*
X160784273Y-80843654D01*
X160550840Y-80874385D01*
X160323404Y-80935327D01*
X160105883Y-81025427D01*
X160105879Y-81025429D01*
X159901974Y-81143155D01*
X159901965Y-81143161D01*
X159715179Y-81286486D01*
X159715172Y-81286492D01*
X159548692Y-81452972D01*
X159548686Y-81452979D01*
X159405361Y-81639765D01*
X159405355Y-81639774D01*
X159287629Y-81843679D01*
X159287627Y-81843683D01*
X159197527Y-82061204D01*
X159136585Y-82288640D01*
X159105854Y-82522073D01*
X127252000Y-82522073D01*
X127252000Y-80127325D01*
X143701500Y-80127325D01*
X143701500Y-80272275D01*
X143739016Y-80412285D01*
X143739017Y-80412288D01*
X143811488Y-80537811D01*
X143811490Y-80537813D01*
X143811491Y-80537815D01*
X143913985Y-80640309D01*
X143913986Y-80640310D01*
X143913988Y-80640311D01*
X144039511Y-80712782D01*
X144039512Y-80712782D01*
X144039515Y-80712784D01*
X144179525Y-80750300D01*
X144179528Y-80750300D01*
X144324472Y-80750300D01*
X144324475Y-80750300D01*
X144464485Y-80712784D01*
X144590015Y-80640309D01*
X144692509Y-80537815D01*
X144764984Y-80412285D01*
X144802500Y-80272275D01*
X144802500Y-80127325D01*
X144764984Y-79987315D01*
X144692509Y-79861785D01*
X144590015Y-79759291D01*
X144590013Y-79759290D01*
X144590011Y-79759288D01*
X144464488Y-79686817D01*
X144464489Y-79686817D01*
X144453006Y-79683740D01*
X144324475Y-79649300D01*
X144179525Y-79649300D01*
X144050993Y-79683740D01*
X144039511Y-79686817D01*
X143913988Y-79759288D01*
X143913982Y-79759293D01*
X143811493Y-79861782D01*
X143811488Y-79861788D01*
X143739017Y-79987311D01*
X143739016Y-79987315D01*
X143701500Y-80127325D01*
X127252000Y-80127325D01*
X127252000Y-79251162D01*
X127271685Y-79184123D01*
X127288319Y-79163481D01*
X130200636Y-76251164D01*
X154746500Y-76251164D01*
X154746500Y-78048438D01*
X154748250Y-78081081D01*
X154748254Y-78081134D01*
X154751081Y-78107425D01*
X154751920Y-78114460D01*
X154751920Y-78114462D01*
X154786700Y-78221201D01*
X154786704Y-78221211D01*
X154820189Y-78282533D01*
X154872289Y-78352129D01*
X154872307Y-78352150D01*
X155099645Y-78579487D01*
X155099660Y-78579502D01*
X155120884Y-78598566D01*
X155123993Y-78601359D01*
X155144674Y-78618024D01*
X155150172Y-78622351D01*
X155150175Y-78622353D01*
X155250251Y-78673239D01*
X155317290Y-78692924D01*
X155403362Y-78705300D01*
X155403365Y-78705300D01*
X162400639Y-78705300D01*
X162402559Y-78705197D01*
X162433297Y-78703549D01*
X162459655Y-78700715D01*
X162466660Y-78699880D01*
X162573407Y-78665097D01*
X162634730Y-78631612D01*
X162647099Y-78622353D01*
X162704329Y-78579510D01*
X162704340Y-78579502D01*
X162931702Y-78352140D01*
X162953558Y-78327808D01*
X162970192Y-78307166D01*
X162974553Y-78301625D01*
X163025439Y-78201549D01*
X163045124Y-78134510D01*
X163057500Y-78048438D01*
X163057500Y-76451162D01*
X163055749Y-76418503D01*
X163052915Y-76392145D01*
X163052080Y-76385140D01*
X163017297Y-76278393D01*
X163017295Y-76278388D01*
X162983810Y-76217066D01*
X162931710Y-76147470D01*
X162931705Y-76147465D01*
X162931702Y-76147460D01*
X162931698Y-76147456D01*
X162931692Y-76147449D01*
X162504353Y-75720111D01*
X162504349Y-75720107D01*
X162504340Y-75720098D01*
X162480008Y-75698242D01*
X162459366Y-75681608D01*
X162459363Y-75681606D01*
X162459325Y-75681575D01*
X162453827Y-75677248D01*
X162453825Y-75677247D01*
X162353747Y-75626360D01*
X162286716Y-75606677D01*
X162286710Y-75606676D01*
X162200638Y-75594300D01*
X155403362Y-75594300D01*
X155403361Y-75594300D01*
X155370718Y-75596050D01*
X155370709Y-75596050D01*
X155370703Y-75596051D01*
X155370698Y-75596051D01*
X155370665Y-75596054D01*
X155344374Y-75598881D01*
X155337339Y-75599720D01*
X155337337Y-75599720D01*
X155230598Y-75634500D01*
X155230588Y-75634504D01*
X155169266Y-75667989D01*
X155099670Y-75720089D01*
X155099649Y-75720107D01*
X154872312Y-75947445D01*
X154872295Y-75947463D01*
X154850440Y-75971793D01*
X154833775Y-75992474D01*
X154829448Y-75997972D01*
X154829447Y-75997974D01*
X154778560Y-76098052D01*
X154758877Y-76165083D01*
X154746500Y-76251164D01*
X130200636Y-76251164D01*
X132049475Y-74402325D01*
X158976500Y-74402325D01*
X158976500Y-74547275D01*
X159014016Y-74687285D01*
X159014017Y-74687288D01*
X159086488Y-74812811D01*
X159086490Y-74812813D01*
X159086491Y-74812815D01*
X159188985Y-74915309D01*
X159188986Y-74915310D01*
X159188988Y-74915311D01*
X159314511Y-74987782D01*
X159314512Y-74987782D01*
X159314515Y-74987784D01*
X159454525Y-75025300D01*
X159454528Y-75025300D01*
X159599472Y-75025300D01*
X159599475Y-75025300D01*
X159739485Y-74987784D01*
X159865015Y-74915309D01*
X159967509Y-74812815D01*
X160039984Y-74687285D01*
X160077500Y-74547275D01*
X160077500Y-74402325D01*
X160039984Y-74262315D01*
X159967509Y-74136785D01*
X159865015Y-74034291D01*
X159865013Y-74034290D01*
X159865011Y-74034288D01*
X159739488Y-73961817D01*
X159739489Y-73961817D01*
X159728006Y-73958740D01*
X159599475Y-73924300D01*
X159454525Y-73924300D01*
X159325993Y-73958740D01*
X159314511Y-73961817D01*
X159188988Y-74034288D01*
X159188982Y-74034293D01*
X159086493Y-74136782D01*
X159086488Y-74136788D01*
X159014017Y-74262311D01*
X159014016Y-74262315D01*
X158976500Y-74402325D01*
X132049475Y-74402325D01*
X132145283Y-74306517D01*
X132152000Y-74299800D01*
X132152000Y-59874800D01*
X134327000Y-62049800D01*
X138302000Y-62049800D01*
X138552000Y-61799800D01*
X138552000Y-56199800D01*
X137627000Y-55274800D01*
X139179557Y-55274800D01*
X139246596Y-55294485D01*
G37*
%TD.AperFunction*%
%TA.AperFunction,Conductor*%
G36*
X152767677Y-97319485D02*
G01*
X152788319Y-97336119D01*
X152915681Y-97463481D01*
X152949166Y-97524804D01*
X152952000Y-97551162D01*
X152952000Y-101799800D01*
X153515681Y-102363481D01*
X153549166Y-102424804D01*
X153552000Y-102451162D01*
X153552000Y-106648438D01*
X153532315Y-106715477D01*
X153515681Y-106736119D01*
X153188319Y-107063481D01*
X153126996Y-107096966D01*
X153100638Y-107099800D01*
X149803362Y-107099800D01*
X149736323Y-107080115D01*
X149715681Y-107063481D01*
X149388319Y-106736119D01*
X149354834Y-106674796D01*
X149352000Y-106648438D01*
X149352000Y-105594585D01*
X150462001Y-105594585D01*
X150462002Y-105594608D01*
X150464908Y-105619669D01*
X150464909Y-105619673D01*
X150510211Y-105722274D01*
X150510214Y-105722279D01*
X150589520Y-105801585D01*
X150589525Y-105801588D01*
X150692123Y-105846889D01*
X150717206Y-105849799D01*
X151361999Y-105849799D01*
X152162000Y-105849799D01*
X152806786Y-105849799D01*
X152806808Y-105849797D01*
X152831869Y-105846891D01*
X152831873Y-105846890D01*
X152934474Y-105801588D01*
X152934479Y-105801585D01*
X153013785Y-105722279D01*
X153013788Y-105722274D01*
X153059089Y-105619677D01*
X153059089Y-105619675D01*
X153061999Y-105594594D01*
X153062000Y-105594591D01*
X153062000Y-104949800D01*
X152162000Y-104949800D01*
X152162000Y-105849799D01*
X151361999Y-105849799D01*
X151362000Y-105849798D01*
X151362000Y-104949800D01*
X150462001Y-104949800D01*
X150462001Y-105594585D01*
X149352000Y-105594585D01*
X149352000Y-104482657D01*
X151252000Y-104482657D01*
X151252000Y-104616943D01*
X151286755Y-104746653D01*
X151353898Y-104862947D01*
X151448853Y-104957902D01*
X151565147Y-105025045D01*
X151694857Y-105059800D01*
X151829143Y-105059800D01*
X151958853Y-105025045D01*
X152075147Y-104957902D01*
X152170102Y-104862947D01*
X152237245Y-104746653D01*
X152272000Y-104616943D01*
X152272000Y-104482657D01*
X152237245Y-104352947D01*
X152170102Y-104236653D01*
X152083249Y-104149800D01*
X152162000Y-104149800D01*
X153061999Y-104149800D01*
X153061999Y-103505014D01*
X153061997Y-103504991D01*
X153059091Y-103479930D01*
X153059090Y-103479926D01*
X153013788Y-103377325D01*
X153013785Y-103377320D01*
X152934479Y-103298014D01*
X152934474Y-103298011D01*
X152831876Y-103252710D01*
X152806794Y-103249800D01*
X152162000Y-103249800D01*
X152162000Y-104149800D01*
X152083249Y-104149800D01*
X152075147Y-104141698D01*
X151958853Y-104074555D01*
X151829143Y-104039800D01*
X151694857Y-104039800D01*
X151565147Y-104074555D01*
X151448853Y-104141698D01*
X151353898Y-104236653D01*
X151286755Y-104352947D01*
X151252000Y-104482657D01*
X149352000Y-104482657D01*
X149352000Y-103505005D01*
X150462000Y-103505005D01*
X150462000Y-104149800D01*
X151362000Y-104149800D01*
X151362000Y-103249800D01*
X150717214Y-103249800D01*
X150717191Y-103249802D01*
X150692130Y-103252708D01*
X150692126Y-103252709D01*
X150589525Y-103298011D01*
X150589520Y-103298014D01*
X150510214Y-103377320D01*
X150510211Y-103377325D01*
X150464910Y-103479922D01*
X150464910Y-103479924D01*
X150462000Y-103505005D01*
X149352000Y-103505005D01*
X149352000Y-99651162D01*
X149371685Y-99584123D01*
X149388319Y-99563481D01*
X151615681Y-97336119D01*
X151677004Y-97302634D01*
X151703362Y-97299800D01*
X152700638Y-97299800D01*
X152767677Y-97319485D01*
G37*
%TD.AperFunction*%
%TA.AperFunction,Conductor*%
G36*
X128752000Y-56099800D02*
G01*
X131552000Y-56099800D01*
X131710181Y-56257981D01*
X131743666Y-56319304D01*
X131746500Y-56345662D01*
X131746500Y-56855493D01*
X131747822Y-56872289D01*
X131751148Y-56914555D01*
X131751618Y-56920520D01*
X131752000Y-56930248D01*
X131752000Y-57879632D01*
X131750473Y-57899030D01*
X131746500Y-57924114D01*
X131746500Y-73753938D01*
X131726815Y-73820977D01*
X131710181Y-73841619D01*
X126552000Y-78999799D01*
X126552000Y-78999800D01*
X126552000Y-87399800D01*
X128752000Y-89599800D01*
X154600638Y-89599800D01*
X154667677Y-89619485D01*
X154688319Y-89636119D01*
X156315681Y-91263481D01*
X156349166Y-91324804D01*
X156352000Y-91351162D01*
X156352000Y-94374974D01*
X156332315Y-94442013D01*
X156315681Y-94462655D01*
X154214855Y-96563481D01*
X154153532Y-96596966D01*
X154127174Y-96599800D01*
X149651999Y-96599800D01*
X148752000Y-97499799D01*
X148752000Y-97499800D01*
X148752000Y-107099800D01*
X149652000Y-107999800D01*
X153520865Y-107999800D01*
X154152000Y-107368665D01*
X154152000Y-105707285D01*
X154670198Y-105707285D01*
X154762968Y-105754555D01*
X154957582Y-105817790D01*
X155159683Y-105849800D01*
X155364317Y-105849800D01*
X155566417Y-105817790D01*
X155761031Y-105754555D01*
X155853801Y-105707285D01*
X155262001Y-105115485D01*
X155262000Y-105115485D01*
X154670198Y-105707285D01*
X154152000Y-105707285D01*
X154152000Y-105094113D01*
X154696314Y-104549799D01*
X154629172Y-104482657D01*
X154752000Y-104482657D01*
X154752000Y-104616943D01*
X154786755Y-104746653D01*
X154853898Y-104862947D01*
X154948853Y-104957902D01*
X155065147Y-105025045D01*
X155194857Y-105059800D01*
X155329143Y-105059800D01*
X155458853Y-105025045D01*
X155575147Y-104957902D01*
X155670102Y-104862947D01*
X155737245Y-104746653D01*
X155772000Y-104616943D01*
X155772000Y-104549799D01*
X155827685Y-104549799D01*
X155827685Y-104549800D01*
X156419485Y-105141600D01*
X156466755Y-105048831D01*
X156529990Y-104854217D01*
X156562000Y-104652117D01*
X156562000Y-104447482D01*
X156529990Y-104245382D01*
X156466755Y-104050768D01*
X156419485Y-103957998D01*
X155827685Y-104549799D01*
X155772000Y-104549799D01*
X155772000Y-104482657D01*
X155737245Y-104352947D01*
X155670102Y-104236653D01*
X155575147Y-104141698D01*
X155458853Y-104074555D01*
X155329143Y-104039800D01*
X155194857Y-104039800D01*
X155065147Y-104074555D01*
X154948853Y-104141698D01*
X154853898Y-104236653D01*
X154786755Y-104352947D01*
X154752000Y-104482657D01*
X154629172Y-104482657D01*
X154152000Y-104005485D01*
X154152000Y-103392312D01*
X154670197Y-103392312D01*
X155262000Y-103984114D01*
X155262001Y-103984114D01*
X155853801Y-103392312D01*
X155761034Y-103345046D01*
X155761027Y-103345043D01*
X155566417Y-103281809D01*
X155364317Y-103249800D01*
X155159683Y-103249800D01*
X154957581Y-103281810D01*
X154957578Y-103281810D01*
X154762974Y-103345042D01*
X154762973Y-103345042D01*
X154670197Y-103392312D01*
X154152000Y-103392312D01*
X154152000Y-102470754D01*
X154160644Y-102441313D01*
X154167168Y-102411327D01*
X154170922Y-102406311D01*
X154171685Y-102403715D01*
X154188319Y-102383073D01*
X154215681Y-102355711D01*
X154277004Y-102322226D01*
X154303362Y-102319392D01*
X165375500Y-102319392D01*
X165442539Y-102339077D01*
X165488294Y-102391881D01*
X165499500Y-102443392D01*
X165499500Y-108500937D01*
X165479815Y-108567976D01*
X165463181Y-108588618D01*
X163896187Y-110155611D01*
X163834864Y-110189096D01*
X163776413Y-110187705D01*
X163473985Y-110106670D01*
X163473988Y-110106670D01*
X163473978Y-110106668D01*
X163419397Y-110097043D01*
X163087370Y-110038498D01*
X162696290Y-110004283D01*
X162696287Y-110004283D01*
X162303713Y-110004283D01*
X162303709Y-110004283D01*
X161912629Y-110038498D01*
X161526027Y-110106667D01*
X161526024Y-110106667D01*
X161526022Y-110106668D01*
X161526017Y-110106669D01*
X161526014Y-110106670D01*
X161146830Y-110208271D01*
X160777928Y-110342540D01*
X160777920Y-110342543D01*
X160422148Y-110508441D01*
X160422124Y-110508454D01*
X160292684Y-110583187D01*
X160230684Y-110599800D01*
X102603362Y-110599800D01*
X102536323Y-110580115D01*
X102515681Y-110563481D01*
X99488319Y-107536119D01*
X99454834Y-107474796D01*
X99452000Y-107448438D01*
X99452000Y-106193598D01*
X109275636Y-106193598D01*
X109323456Y-106217965D01*
X109323459Y-106217966D01*
X109499352Y-106275116D01*
X109682027Y-106304050D01*
X109866973Y-106304050D01*
X110049646Y-106275116D01*
X110225541Y-106217965D01*
X110225548Y-106217962D01*
X110273363Y-106193598D01*
X109774501Y-105694735D01*
X109774500Y-105694735D01*
X109275636Y-106193598D01*
X99452000Y-106193598D01*
X99452000Y-105036576D01*
X108599500Y-105036576D01*
X108599500Y-105221523D01*
X108628433Y-105404197D01*
X108685584Y-105580092D01*
X108709949Y-105627913D01*
X108709950Y-105627913D01*
X109208814Y-105129050D01*
X109208814Y-105129049D01*
X109142989Y-105063224D01*
X109274500Y-105063224D01*
X109274500Y-105194876D01*
X109308575Y-105322043D01*
X109374401Y-105436057D01*
X109467493Y-105529149D01*
X109581507Y-105594975D01*
X109708674Y-105629050D01*
X109840326Y-105629050D01*
X109967493Y-105594975D01*
X110081507Y-105529149D01*
X110174599Y-105436057D01*
X110240425Y-105322043D01*
X110274500Y-105194876D01*
X110274500Y-105129050D01*
X110340185Y-105129050D01*
X110839047Y-105627912D01*
X110880601Y-105621331D01*
X110949895Y-105630285D01*
X111003347Y-105675281D01*
X111023987Y-105742032D01*
X111024000Y-105743804D01*
X111024000Y-106050567D01*
X111034792Y-106118707D01*
X111038854Y-106144354D01*
X111096450Y-106257392D01*
X111096452Y-106257394D01*
X111096454Y-106257397D01*
X111186152Y-106347095D01*
X111186154Y-106347096D01*
X111186158Y-106347100D01*
X111299194Y-106404695D01*
X111299198Y-106404697D01*
X111392975Y-106419549D01*
X111392981Y-106419550D01*
X113236018Y-106419549D01*
X113329804Y-106404696D01*
X113442842Y-106347100D01*
X113532550Y-106257392D01*
X113565055Y-106193598D01*
X118305011Y-106193598D01*
X118352831Y-106217965D01*
X118352834Y-106217966D01*
X118528727Y-106275116D01*
X118711402Y-106304050D01*
X118896348Y-106304050D01*
X119079021Y-106275116D01*
X119254916Y-106217965D01*
X119254923Y-106217962D01*
X119302738Y-106193598D01*
X118803876Y-105694735D01*
X118803875Y-105694735D01*
X118305011Y-106193598D01*
X113565055Y-106193598D01*
X113590146Y-106144354D01*
X113590146Y-106144352D01*
X113590147Y-106144351D01*
X113592231Y-106131195D01*
X113592231Y-106131194D01*
X113604999Y-106050574D01*
X113605000Y-106050569D01*
X113604999Y-105036576D01*
X117628875Y-105036576D01*
X117628875Y-105221523D01*
X117657808Y-105404197D01*
X117714959Y-105580092D01*
X117739324Y-105627913D01*
X117739325Y-105627913D01*
X118238189Y-105129050D01*
X118238189Y-105129049D01*
X118172364Y-105063224D01*
X118303875Y-105063224D01*
X118303875Y-105194876D01*
X118337950Y-105322043D01*
X118403776Y-105436057D01*
X118496868Y-105529149D01*
X118610882Y-105594975D01*
X118738049Y-105629050D01*
X118869701Y-105629050D01*
X118996868Y-105594975D01*
X119110882Y-105529149D01*
X119203974Y-105436057D01*
X119269800Y-105322043D01*
X119303875Y-105194876D01*
X119303875Y-105129050D01*
X119369560Y-105129050D01*
X119868422Y-105627912D01*
X119909976Y-105621331D01*
X119979270Y-105630285D01*
X120032722Y-105675281D01*
X120053362Y-105742032D01*
X120053375Y-105743804D01*
X120053375Y-106050567D01*
X120064167Y-106118707D01*
X120068229Y-106144354D01*
X120125825Y-106257392D01*
X120125827Y-106257394D01*
X120125829Y-106257397D01*
X120215527Y-106347095D01*
X120215529Y-106347096D01*
X120215533Y-106347100D01*
X120328569Y-106404695D01*
X120328573Y-106404697D01*
X120422350Y-106419549D01*
X120422356Y-106419550D01*
X122265393Y-106419549D01*
X122359179Y-106404696D01*
X122472217Y-106347100D01*
X122561925Y-106257392D01*
X122619521Y-106144354D01*
X122619521Y-106144352D01*
X122619522Y-106144351D01*
X122634374Y-106050574D01*
X122634375Y-106050569D01*
X122634374Y-104207532D01*
X122619521Y-104113746D01*
X122561925Y-104000708D01*
X122561921Y-104000704D01*
X122561920Y-104000702D01*
X122472222Y-103911004D01*
X122472219Y-103911002D01*
X122472217Y-103911000D01*
X122395392Y-103871855D01*
X122359176Y-103853402D01*
X122265399Y-103838550D01*
X120422357Y-103838550D01*
X120341394Y-103851373D01*
X120328571Y-103853404D01*
X120215533Y-103911000D01*
X120215532Y-103911001D01*
X120215527Y-103911004D01*
X120125829Y-104000702D01*
X120125826Y-104000707D01*
X120068227Y-104113748D01*
X120053375Y-104207525D01*
X120053375Y-104514293D01*
X120033690Y-104581332D01*
X119980886Y-104627087D01*
X119911728Y-104637031D01*
X119909978Y-104636767D01*
X119868424Y-104630185D01*
X119369560Y-105129050D01*
X119303875Y-105129050D01*
X119303875Y-105063224D01*
X119269800Y-104936057D01*
X119203974Y-104822043D01*
X119110882Y-104728951D01*
X118996868Y-104663125D01*
X118869701Y-104629050D01*
X118738049Y-104629050D01*
X118610882Y-104663125D01*
X118496868Y-104728951D01*
X118403776Y-104822043D01*
X118337950Y-104936057D01*
X118303875Y-105063224D01*
X118172364Y-105063224D01*
X117739325Y-104630185D01*
X117714959Y-104678009D01*
X117714958Y-104678011D01*
X117657808Y-104853902D01*
X117628875Y-105036576D01*
X113604999Y-105036576D01*
X113604999Y-104207532D01*
X113590146Y-104113746D01*
X113565054Y-104064500D01*
X118305010Y-104064500D01*
X118803875Y-104563364D01*
X118803876Y-104563364D01*
X119302738Y-104064500D01*
X119302738Y-104064499D01*
X119254917Y-104040134D01*
X119079022Y-103982983D01*
X118896348Y-103954050D01*
X118711402Y-103954050D01*
X118528727Y-103982983D01*
X118352836Y-104040133D01*
X118352834Y-104040134D01*
X118305010Y-104064500D01*
X113565054Y-104064500D01*
X113532550Y-104000708D01*
X113532546Y-104000704D01*
X113532545Y-104000702D01*
X113442847Y-103911004D01*
X113442844Y-103911002D01*
X113442842Y-103911000D01*
X113366017Y-103871855D01*
X113329801Y-103853402D01*
X113236024Y-103838550D01*
X111392982Y-103838550D01*
X111312019Y-103851373D01*
X111299196Y-103853404D01*
X111186158Y-103911000D01*
X111186157Y-103911001D01*
X111186152Y-103911004D01*
X111096454Y-104000702D01*
X111096451Y-104000707D01*
X111038852Y-104113748D01*
X111024000Y-104207525D01*
X111024000Y-104514293D01*
X111004315Y-104581332D01*
X110951511Y-104627087D01*
X110882353Y-104637031D01*
X110880603Y-104636767D01*
X110839049Y-104630185D01*
X110340185Y-105129050D01*
X110274500Y-105129050D01*
X110274500Y-105063224D01*
X110240425Y-104936057D01*
X110174599Y-104822043D01*
X110081507Y-104728951D01*
X109967493Y-104663125D01*
X109840326Y-104629050D01*
X109708674Y-104629050D01*
X109581507Y-104663125D01*
X109467493Y-104728951D01*
X109374401Y-104822043D01*
X109308575Y-104936057D01*
X109274500Y-105063224D01*
X109142989Y-105063224D01*
X108709950Y-104630185D01*
X108685584Y-104678009D01*
X108685583Y-104678011D01*
X108628433Y-104853902D01*
X108599500Y-105036576D01*
X99452000Y-105036576D01*
X99452000Y-104064500D01*
X109275635Y-104064500D01*
X109774500Y-104563364D01*
X109774501Y-104563364D01*
X110273363Y-104064500D01*
X110273363Y-104064499D01*
X110225542Y-104040134D01*
X110049647Y-103982983D01*
X109866973Y-103954050D01*
X109682027Y-103954050D01*
X109499352Y-103982983D01*
X109323461Y-104040133D01*
X109323459Y-104040134D01*
X109275635Y-104064500D01*
X99452000Y-104064500D01*
X99452000Y-103518275D01*
X127452750Y-103518275D01*
X127452750Y-105581317D01*
X127459088Y-105621331D01*
X127467604Y-105675104D01*
X127525200Y-105788142D01*
X127525202Y-105788144D01*
X127525204Y-105788147D01*
X127614902Y-105877845D01*
X127614904Y-105877846D01*
X127614908Y-105877850D01*
X127727944Y-105935445D01*
X127727948Y-105935447D01*
X127821725Y-105950299D01*
X127821731Y-105950300D01*
X129884768Y-105950299D01*
X129978554Y-105935446D01*
X130091592Y-105877850D01*
X130181300Y-105788142D01*
X130222499Y-105707285D01*
X131761448Y-105707285D01*
X131854218Y-105754555D01*
X132048832Y-105817790D01*
X132250933Y-105849800D01*
X132455567Y-105849800D01*
X132657667Y-105817790D01*
X132852281Y-105754555D01*
X132945051Y-105707285D01*
X132353251Y-105115485D01*
X132353250Y-105115485D01*
X131761448Y-105707285D01*
X130222499Y-105707285D01*
X130238896Y-105675104D01*
X130238896Y-105675102D01*
X130238897Y-105675101D01*
X130238897Y-105675100D01*
X130243683Y-105644884D01*
X130243683Y-105644883D01*
X130253749Y-105581324D01*
X130253750Y-105581319D01*
X130253749Y-104447482D01*
X131053250Y-104447482D01*
X131053250Y-104652117D01*
X131085259Y-104854217D01*
X131148493Y-105048827D01*
X131148496Y-105048834D01*
X131195762Y-105141601D01*
X131787564Y-104549800D01*
X131787564Y-104549799D01*
X131720422Y-104482657D01*
X131843250Y-104482657D01*
X131843250Y-104616943D01*
X131878005Y-104746653D01*
X131945148Y-104862947D01*
X132040103Y-104957902D01*
X132156397Y-105025045D01*
X132286107Y-105059800D01*
X132420393Y-105059800D01*
X132550103Y-105025045D01*
X132666397Y-104957902D01*
X132761352Y-104862947D01*
X132828495Y-104746653D01*
X132863250Y-104616943D01*
X132863250Y-104549799D01*
X132918935Y-104549799D01*
X132918935Y-104549800D01*
X133510735Y-105141600D01*
X133558005Y-105048831D01*
X133621240Y-104854217D01*
X133653250Y-104652117D01*
X133653250Y-104447482D01*
X133621240Y-104245382D01*
X133558005Y-104050768D01*
X133510735Y-103957998D01*
X132918935Y-104549799D01*
X132863250Y-104549799D01*
X132863250Y-104482657D01*
X132828495Y-104352947D01*
X132761352Y-104236653D01*
X132666397Y-104141698D01*
X132550103Y-104074555D01*
X132420393Y-104039800D01*
X132286107Y-104039800D01*
X132156397Y-104074555D01*
X132040103Y-104141698D01*
X131945148Y-104236653D01*
X131878005Y-104352947D01*
X131843250Y-104482657D01*
X131720422Y-104482657D01*
X131195762Y-103957997D01*
X131148492Y-104050773D01*
X131148492Y-104050774D01*
X131085260Y-104245378D01*
X131085260Y-104245381D01*
X131053250Y-104447482D01*
X130253749Y-104447482D01*
X130253749Y-103518282D01*
X130253749Y-103518281D01*
X130253749Y-103518277D01*
X130243682Y-103454716D01*
X130243681Y-103454715D01*
X130238896Y-103424496D01*
X130222497Y-103392312D01*
X131761447Y-103392312D01*
X132353250Y-103984114D01*
X132353251Y-103984114D01*
X132819089Y-103518275D01*
X138907125Y-103518275D01*
X138907125Y-105581317D01*
X138913463Y-105621331D01*
X138921979Y-105675104D01*
X138979575Y-105788142D01*
X138979577Y-105788144D01*
X138979579Y-105788147D01*
X139069277Y-105877845D01*
X139069279Y-105877846D01*
X139069283Y-105877850D01*
X139182319Y-105935445D01*
X139182323Y-105935447D01*
X139276100Y-105950299D01*
X139276106Y-105950300D01*
X141339143Y-105950299D01*
X141432929Y-105935446D01*
X141545967Y-105877850D01*
X141635675Y-105788142D01*
X141676874Y-105707285D01*
X143215823Y-105707285D01*
X143308593Y-105754555D01*
X143503207Y-105817790D01*
X143705308Y-105849800D01*
X143909942Y-105849800D01*
X144112042Y-105817790D01*
X144306656Y-105754555D01*
X144399426Y-105707285D01*
X143807626Y-105115485D01*
X143807625Y-105115485D01*
X143215823Y-105707285D01*
X141676874Y-105707285D01*
X141693271Y-105675104D01*
X141693271Y-105675102D01*
X141693272Y-105675101D01*
X141693272Y-105675100D01*
X141698058Y-105644884D01*
X141698058Y-105644883D01*
X141708124Y-105581324D01*
X141708125Y-105581319D01*
X141708124Y-104447482D01*
X142507625Y-104447482D01*
X142507625Y-104652117D01*
X142539634Y-104854217D01*
X142602868Y-105048827D01*
X142602871Y-105048834D01*
X142650137Y-105141601D01*
X143241939Y-104549800D01*
X143241939Y-104549799D01*
X143174797Y-104482657D01*
X143297625Y-104482657D01*
X143297625Y-104616943D01*
X143332380Y-104746653D01*
X143399523Y-104862947D01*
X143494478Y-104957902D01*
X143610772Y-105025045D01*
X143740482Y-105059800D01*
X143874768Y-105059800D01*
X144004478Y-105025045D01*
X144120772Y-104957902D01*
X144215727Y-104862947D01*
X144282870Y-104746653D01*
X144317625Y-104616943D01*
X144317625Y-104549799D01*
X144373310Y-104549799D01*
X144373310Y-104549800D01*
X144965110Y-105141600D01*
X145012380Y-105048831D01*
X145075615Y-104854217D01*
X145107625Y-104652117D01*
X145107625Y-104447482D01*
X145075615Y-104245382D01*
X145012380Y-104050768D01*
X144965110Y-103957998D01*
X144373310Y-104549799D01*
X144317625Y-104549799D01*
X144317625Y-104482657D01*
X144282870Y-104352947D01*
X144215727Y-104236653D01*
X144120772Y-104141698D01*
X144004478Y-104074555D01*
X143874768Y-104039800D01*
X143740482Y-104039800D01*
X143610772Y-104074555D01*
X143494478Y-104141698D01*
X143399523Y-104236653D01*
X143332380Y-104352947D01*
X143297625Y-104482657D01*
X143174797Y-104482657D01*
X142650137Y-103957997D01*
X142602867Y-104050773D01*
X142602867Y-104050774D01*
X142539635Y-104245378D01*
X142539635Y-104245381D01*
X142507625Y-104447482D01*
X141708124Y-104447482D01*
X141708124Y-103518282D01*
X141708124Y-103518281D01*
X141708124Y-103518277D01*
X141698057Y-103454716D01*
X141698056Y-103454715D01*
X141693271Y-103424496D01*
X141676872Y-103392312D01*
X143215822Y-103392312D01*
X143807625Y-103984114D01*
X143807626Y-103984114D01*
X144399426Y-103392312D01*
X144306659Y-103345046D01*
X144306652Y-103345043D01*
X144112042Y-103281809D01*
X143909942Y-103249800D01*
X143705308Y-103249800D01*
X143503206Y-103281810D01*
X143503203Y-103281810D01*
X143308599Y-103345042D01*
X143308598Y-103345042D01*
X143215822Y-103392312D01*
X141676872Y-103392312D01*
X141635675Y-103311458D01*
X141635671Y-103311454D01*
X141635670Y-103311452D01*
X141545972Y-103221754D01*
X141545969Y-103221752D01*
X141545967Y-103221750D01*
X141469142Y-103182605D01*
X141432926Y-103164152D01*
X141339149Y-103149300D01*
X139276107Y-103149300D01*
X139195144Y-103162123D01*
X139182321Y-103164154D01*
X139069283Y-103221750D01*
X139069282Y-103221751D01*
X139069277Y-103221754D01*
X138979579Y-103311452D01*
X138979576Y-103311457D01*
X138921977Y-103424498D01*
X138907125Y-103518275D01*
X132819089Y-103518275D01*
X132911636Y-103425728D01*
X132945051Y-103392312D01*
X132852284Y-103345046D01*
X132852277Y-103345043D01*
X132657667Y-103281809D01*
X132455567Y-103249800D01*
X132250933Y-103249800D01*
X132048831Y-103281810D01*
X132048828Y-103281810D01*
X131854224Y-103345042D01*
X131854223Y-103345042D01*
X131761447Y-103392312D01*
X130222497Y-103392312D01*
X130181300Y-103311458D01*
X130181296Y-103311454D01*
X130181295Y-103311452D01*
X130091597Y-103221754D01*
X130091594Y-103221752D01*
X130091592Y-103221750D01*
X130014767Y-103182605D01*
X129978551Y-103164152D01*
X129884774Y-103149300D01*
X127821732Y-103149300D01*
X127740769Y-103162123D01*
X127727946Y-103164154D01*
X127614908Y-103221750D01*
X127614907Y-103221751D01*
X127614902Y-103221754D01*
X127525204Y-103311452D01*
X127525201Y-103311457D01*
X127467602Y-103424498D01*
X127452750Y-103518275D01*
X99452000Y-103518275D01*
X99452000Y-91399800D01*
X150652000Y-91399800D01*
X150652000Y-94599800D01*
X151052000Y-94999800D01*
X155452000Y-94999800D01*
X155852000Y-94599800D01*
X155852000Y-91599800D01*
X155552000Y-91299800D01*
X150752000Y-91299800D01*
X150652000Y-91399800D01*
X99452000Y-91399800D01*
X99452000Y-90563871D01*
X130628999Y-90563871D01*
X130653997Y-90689538D01*
X130653999Y-90689544D01*
X130703033Y-90807924D01*
X130703038Y-90807933D01*
X130774223Y-90914468D01*
X130774226Y-90914472D01*
X130864827Y-91005073D01*
X130864831Y-91005076D01*
X130971366Y-91076261D01*
X130971372Y-91076264D01*
X130971373Y-91076265D01*
X131089756Y-91125301D01*
X131089760Y-91125301D01*
X131089761Y-91125302D01*
X131215428Y-91150300D01*
X131215431Y-91150300D01*
X131343571Y-91150300D01*
X131428115Y-91133482D01*
X131469244Y-91125301D01*
X131587627Y-91076265D01*
X131694169Y-91005076D01*
X131784776Y-90914469D01*
X131855965Y-90807927D01*
X131905001Y-90689544D01*
X131930000Y-90563871D01*
X142226499Y-90563871D01*
X142251497Y-90689538D01*
X142251499Y-90689544D01*
X142300533Y-90807924D01*
X142300538Y-90807933D01*
X142371723Y-90914468D01*
X142371726Y-90914472D01*
X142462327Y-91005073D01*
X142462331Y-91005076D01*
X142568866Y-91076261D01*
X142568872Y-91076264D01*
X142568873Y-91076265D01*
X142687256Y-91125301D01*
X142687260Y-91125301D01*
X142687261Y-91125302D01*
X142812928Y-91150300D01*
X142812931Y-91150300D01*
X142941071Y-91150300D01*
X143025615Y-91133482D01*
X143066744Y-91125301D01*
X143185127Y-91076265D01*
X143291669Y-91005076D01*
X143382276Y-90914469D01*
X143453465Y-90807927D01*
X143502501Y-90689544D01*
X143527500Y-90563869D01*
X143527500Y-90435731D01*
X143527500Y-90435728D01*
X143502502Y-90310061D01*
X143502501Y-90310060D01*
X143502501Y-90310056D01*
X143453465Y-90191673D01*
X143453464Y-90191672D01*
X143453461Y-90191666D01*
X143382276Y-90085131D01*
X143382273Y-90085127D01*
X143291672Y-89994526D01*
X143291668Y-89994523D01*
X143185133Y-89923338D01*
X143185124Y-89923333D01*
X143066744Y-89874299D01*
X143066738Y-89874297D01*
X142941071Y-89849300D01*
X142941069Y-89849300D01*
X142812931Y-89849300D01*
X142812929Y-89849300D01*
X142687261Y-89874297D01*
X142687255Y-89874299D01*
X142568875Y-89923333D01*
X142568866Y-89923338D01*
X142462331Y-89994523D01*
X142462327Y-89994526D01*
X142371726Y-90085127D01*
X142371723Y-90085131D01*
X142300538Y-90191666D01*
X142300533Y-90191675D01*
X142251499Y-90310055D01*
X142251497Y-90310061D01*
X142226500Y-90435728D01*
X142226500Y-90435731D01*
X142226500Y-90563869D01*
X142226500Y-90563871D01*
X142226499Y-90563871D01*
X131930000Y-90563871D01*
X131930000Y-90563869D01*
X131930000Y-90435731D01*
X131930000Y-90435728D01*
X131905002Y-90310061D01*
X131905001Y-90310060D01*
X131905001Y-90310056D01*
X131855965Y-90191673D01*
X131855964Y-90191672D01*
X131855961Y-90191666D01*
X131784776Y-90085131D01*
X131784773Y-90085127D01*
X131694172Y-89994526D01*
X131694168Y-89994523D01*
X131587633Y-89923338D01*
X131587624Y-89923333D01*
X131469244Y-89874299D01*
X131469238Y-89874297D01*
X131343571Y-89849300D01*
X131343569Y-89849300D01*
X131215431Y-89849300D01*
X131215429Y-89849300D01*
X131089761Y-89874297D01*
X131089755Y-89874299D01*
X130971375Y-89923333D01*
X130971366Y-89923338D01*
X130864831Y-89994523D01*
X130864827Y-89994526D01*
X130774226Y-90085127D01*
X130774223Y-90085131D01*
X130703038Y-90191666D01*
X130703033Y-90191675D01*
X130653999Y-90310055D01*
X130653997Y-90310061D01*
X130629000Y-90435728D01*
X130629000Y-90435731D01*
X130629000Y-90563869D01*
X130629000Y-90563871D01*
X130628999Y-90563871D01*
X99452000Y-90563871D01*
X99452000Y-87257285D01*
X101910198Y-87257285D01*
X102002968Y-87304555D01*
X102197582Y-87367790D01*
X102399683Y-87399800D01*
X102604317Y-87399800D01*
X102806417Y-87367790D01*
X103001031Y-87304555D01*
X103093801Y-87257285D01*
X102502001Y-86665485D01*
X102502000Y-86665485D01*
X101910198Y-87257285D01*
X99452000Y-87257285D01*
X99452000Y-85997482D01*
X101202000Y-85997482D01*
X101202000Y-86202117D01*
X101234009Y-86404217D01*
X101297243Y-86598827D01*
X101297246Y-86598834D01*
X101344512Y-86691601D01*
X101936314Y-86099800D01*
X101936314Y-86099799D01*
X101870489Y-86033974D01*
X102002000Y-86033974D01*
X102002000Y-86165626D01*
X102036075Y-86292793D01*
X102101901Y-86406807D01*
X102194993Y-86499899D01*
X102309007Y-86565725D01*
X102436174Y-86599800D01*
X102567826Y-86599800D01*
X102694993Y-86565725D01*
X102809007Y-86499899D01*
X102902099Y-86406807D01*
X102967925Y-86292793D01*
X103002000Y-86165626D01*
X103002000Y-86099799D01*
X103067685Y-86099799D01*
X103067685Y-86099800D01*
X103659485Y-86691600D01*
X103706755Y-86598831D01*
X103769990Y-86404217D01*
X103802000Y-86202117D01*
X103802000Y-85997482D01*
X103769990Y-85795382D01*
X103706755Y-85600768D01*
X103659485Y-85507998D01*
X103067685Y-86099799D01*
X103002000Y-86099799D01*
X103002000Y-86033974D01*
X102967925Y-85906807D01*
X102902099Y-85792793D01*
X102809007Y-85699701D01*
X102694993Y-85633875D01*
X102567826Y-85599800D01*
X102436174Y-85599800D01*
X102309007Y-85633875D01*
X102194993Y-85699701D01*
X102101901Y-85792793D01*
X102036075Y-85906807D01*
X102002000Y-86033974D01*
X101870489Y-86033974D01*
X101344512Y-85507997D01*
X101297242Y-85600773D01*
X101297242Y-85600774D01*
X101234010Y-85795378D01*
X101234010Y-85795381D01*
X101202000Y-85997482D01*
X99452000Y-85997482D01*
X99452000Y-84942312D01*
X101910197Y-84942312D01*
X102502000Y-85534114D01*
X102502001Y-85534114D01*
X103093801Y-84942312D01*
X103001034Y-84895046D01*
X103001027Y-84895043D01*
X102806417Y-84831809D01*
X102604317Y-84799800D01*
X102399683Y-84799800D01*
X102197581Y-84831810D01*
X102197578Y-84831810D01*
X102002974Y-84895042D01*
X102002973Y-84895042D01*
X101910197Y-84942312D01*
X99452000Y-84942312D01*
X99452000Y-81998367D01*
X100711242Y-81998367D01*
X100711242Y-82233820D01*
X100741973Y-82467253D01*
X100802915Y-82694689D01*
X100893015Y-82912210D01*
X100893017Y-82912214D01*
X101010743Y-83116120D01*
X101010748Y-83116126D01*
X101010749Y-83116128D01*
X101154074Y-83302914D01*
X101154080Y-83302921D01*
X101320560Y-83469401D01*
X101320566Y-83469406D01*
X101507362Y-83612739D01*
X101711268Y-83730465D01*
X101928797Y-83820568D01*
X102156225Y-83881508D01*
X102331302Y-83904557D01*
X102389661Y-83912240D01*
X102389662Y-83912240D01*
X102625115Y-83912240D01*
X102671801Y-83906093D01*
X102858551Y-83881508D01*
X103085979Y-83820568D01*
X103303508Y-83730465D01*
X103507414Y-83612739D01*
X103694210Y-83469406D01*
X103860700Y-83302916D01*
X104004033Y-83116120D01*
X104121759Y-82912214D01*
X104211862Y-82694685D01*
X104272802Y-82467257D01*
X104303534Y-82233820D01*
X104303534Y-81998368D01*
X104272802Y-81764931D01*
X104211862Y-81537503D01*
X104121759Y-81319974D01*
X104004033Y-81116068D01*
X103860700Y-80929272D01*
X103860695Y-80929266D01*
X103694215Y-80762786D01*
X103694208Y-80762780D01*
X103507422Y-80619455D01*
X103507420Y-80619454D01*
X103507414Y-80619449D01*
X103303508Y-80501723D01*
X103303504Y-80501721D01*
X103085983Y-80411621D01*
X102858547Y-80350679D01*
X102625115Y-80319948D01*
X102625114Y-80319948D01*
X102389662Y-80319948D01*
X102389661Y-80319948D01*
X102156228Y-80350679D01*
X101928792Y-80411621D01*
X101711271Y-80501721D01*
X101711267Y-80501723D01*
X101507362Y-80619449D01*
X101507353Y-80619455D01*
X101320567Y-80762780D01*
X101320560Y-80762786D01*
X101154080Y-80929266D01*
X101154074Y-80929273D01*
X101010749Y-81116059D01*
X101010743Y-81116068D01*
X100893017Y-81319973D01*
X100893015Y-81319977D01*
X100802915Y-81537498D01*
X100741973Y-81764934D01*
X100711242Y-81998367D01*
X99452000Y-81998367D01*
X99452000Y-58751162D01*
X99471685Y-58684123D01*
X99488319Y-58663481D01*
X101315681Y-56836119D01*
X101377004Y-56802634D01*
X101403362Y-56799800D01*
X103952224Y-56799800D01*
X104019263Y-56819485D01*
X104065018Y-56872289D01*
X104074962Y-56941447D01*
X104071200Y-56958737D01*
X104062928Y-56986906D01*
X104062924Y-56986922D01*
X104046500Y-57101161D01*
X104046500Y-69098438D01*
X104048824Y-69141796D01*
X104051658Y-69168151D01*
X104056299Y-69199637D01*
X104056301Y-69199642D01*
X104098935Y-69319132D01*
X104098936Y-69319135D01*
X104098937Y-69319136D01*
X104132416Y-69380449D01*
X104132421Y-69380457D01*
X104201580Y-69472843D01*
X104201596Y-69472861D01*
X104428934Y-69700198D01*
X104428949Y-69700213D01*
X104428969Y-69700231D01*
X104428985Y-69700246D01*
X104461241Y-69729219D01*
X104461246Y-69729223D01*
X104481888Y-69745857D01*
X104507439Y-69764842D01*
X104571794Y-69795351D01*
X104622072Y-69819187D01*
X104622074Y-69819187D01*
X104622077Y-69819189D01*
X104689116Y-69838874D01*
X104689120Y-69838874D01*
X104689122Y-69838875D01*
X104704912Y-69841145D01*
X104803362Y-69855300D01*
X110982674Y-69855300D01*
X111049713Y-69874985D01*
X111070355Y-69891619D01*
X113660181Y-72481445D01*
X113693666Y-72542768D01*
X113696500Y-72569126D01*
X113696500Y-80136470D01*
X113692031Y-80152605D01*
X113692497Y-80167724D01*
X113678831Y-80200263D01*
X113658531Y-80234097D01*
X113607164Y-80281455D01*
X113552203Y-80294300D01*
X109753361Y-80294300D01*
X109710003Y-80296624D01*
X109683648Y-80299458D01*
X109652162Y-80304099D01*
X109565385Y-80335061D01*
X109532668Y-80346735D01*
X109532666Y-80346735D01*
X109532663Y-80346737D01*
X109471350Y-80380216D01*
X109471342Y-80380221D01*
X109378956Y-80449380D01*
X109378938Y-80449396D01*
X105351600Y-84476735D01*
X105351553Y-84476785D01*
X105322580Y-84509041D01*
X105322574Y-84509048D01*
X105305951Y-84529677D01*
X105286957Y-84555240D01*
X105232612Y-84669872D01*
X105212926Y-84736914D01*
X105212924Y-84736922D01*
X105196500Y-84851161D01*
X105196500Y-86498438D01*
X105198824Y-86541796D01*
X105201658Y-86568151D01*
X105206299Y-86599637D01*
X105206301Y-86599642D01*
X105248935Y-86719132D01*
X105248936Y-86719135D01*
X105248937Y-86719136D01*
X105282416Y-86780449D01*
X105282421Y-86780457D01*
X105351580Y-86872843D01*
X105351596Y-86872861D01*
X105783291Y-87304555D01*
X106128646Y-87649910D01*
X106161863Y-87679659D01*
X106161868Y-87679663D01*
X106161871Y-87679666D01*
X106183112Y-87696681D01*
X106183119Y-87696686D01*
X106209725Y-87716274D01*
X106324681Y-87769944D01*
X106391835Y-87789234D01*
X106506173Y-87804988D01*
X121997317Y-87713863D01*
X122971046Y-87708136D01*
X122992718Y-87707163D01*
X123002575Y-87706721D01*
X123021799Y-87705107D01*
X123041664Y-87702945D01*
X123163231Y-87666652D01*
X123226230Y-87636437D01*
X123322138Y-87572220D01*
X124682219Y-86348146D01*
X124719897Y-86309389D01*
X124741258Y-86284263D01*
X124767042Y-86250498D01*
X124821389Y-86135860D01*
X124841074Y-86068821D01*
X124857500Y-85954575D01*
X124857500Y-74473341D01*
X124877185Y-74406302D01*
X124881555Y-74399944D01*
X125078447Y-74131836D01*
X125887563Y-73030060D01*
X125894905Y-73019728D01*
X125899275Y-73013370D01*
X125899825Y-73012567D01*
X125954172Y-72897929D01*
X125973857Y-72830890D01*
X125990283Y-72716644D01*
X125990283Y-62912879D01*
X126009968Y-62845840D01*
X126026602Y-62825198D01*
X126252000Y-62599800D01*
X126252000Y-58366773D01*
X126840710Y-58366773D01*
X126942808Y-58409064D01*
X126942816Y-58409066D01*
X127147594Y-58449799D01*
X127147598Y-58449800D01*
X127356402Y-58449800D01*
X127356405Y-58449799D01*
X127561183Y-58409066D01*
X127561187Y-58409065D01*
X127663288Y-58366773D01*
X129840710Y-58366773D01*
X129942808Y-58409064D01*
X129942816Y-58409066D01*
X130147594Y-58449799D01*
X130147598Y-58449800D01*
X130356402Y-58449800D01*
X130356405Y-58449799D01*
X130561183Y-58409066D01*
X130561187Y-58409065D01*
X130663288Y-58366773D01*
X130252001Y-57955486D01*
X130252000Y-57955486D01*
X129840710Y-58366773D01*
X127663288Y-58366773D01*
X127252001Y-57955486D01*
X127252000Y-57955486D01*
X126840710Y-58366773D01*
X126252000Y-58366773D01*
X126252000Y-57824111D01*
X126269439Y-57806672D01*
X126269439Y-57806671D01*
X126269441Y-57806670D01*
X126686314Y-57389799D01*
X126619172Y-57322657D01*
X126742000Y-57322657D01*
X126742000Y-57456943D01*
X126776755Y-57586653D01*
X126843898Y-57702947D01*
X126938853Y-57797902D01*
X127055147Y-57865045D01*
X127184857Y-57899800D01*
X127319143Y-57899800D01*
X127448853Y-57865045D01*
X127565147Y-57797902D01*
X127660102Y-57702947D01*
X127727245Y-57586653D01*
X127762000Y-57456943D01*
X127762000Y-57389799D01*
X127817686Y-57389799D01*
X127817686Y-57389800D01*
X128228973Y-57801088D01*
X128271265Y-57698987D01*
X128271266Y-57698983D01*
X128311999Y-57494205D01*
X128312000Y-57494202D01*
X128312000Y-57285398D01*
X128311999Y-57285394D01*
X129192000Y-57285394D01*
X129192000Y-57494205D01*
X129232733Y-57698983D01*
X129232735Y-57698991D01*
X129275025Y-57801088D01*
X129686314Y-57389800D01*
X129686314Y-57389799D01*
X129619172Y-57322657D01*
X129742000Y-57322657D01*
X129742000Y-57456943D01*
X129776755Y-57586653D01*
X129843898Y-57702947D01*
X129938853Y-57797902D01*
X130055147Y-57865045D01*
X130184857Y-57899800D01*
X130319143Y-57899800D01*
X130448853Y-57865045D01*
X130565147Y-57797902D01*
X130660102Y-57702947D01*
X130727245Y-57586653D01*
X130762000Y-57456943D01*
X130762000Y-57389799D01*
X130817686Y-57389799D01*
X130817686Y-57389801D01*
X131228973Y-57801088D01*
X131271265Y-57698987D01*
X131271266Y-57698983D01*
X131311999Y-57494205D01*
X131312000Y-57494202D01*
X131312000Y-57285398D01*
X131311999Y-57285394D01*
X131271266Y-57080616D01*
X131271264Y-57080608D01*
X131228973Y-56978510D01*
X130817686Y-57389799D01*
X130762000Y-57389799D01*
X130762000Y-57322657D01*
X130727245Y-57192947D01*
X130660102Y-57076653D01*
X130565147Y-56981698D01*
X130448853Y-56914555D01*
X130319143Y-56879800D01*
X130184857Y-56879800D01*
X130055147Y-56914555D01*
X129938853Y-56981698D01*
X129843898Y-57076653D01*
X129776755Y-57192947D01*
X129742000Y-57322657D01*
X129619172Y-57322657D01*
X129275025Y-56978510D01*
X129232735Y-57080607D01*
X129232732Y-57080616D01*
X129192000Y-57285394D01*
X128311999Y-57285394D01*
X128271266Y-57080616D01*
X128271264Y-57080608D01*
X128228973Y-56978510D01*
X127817686Y-57389799D01*
X127762000Y-57389799D01*
X127762000Y-57322657D01*
X127727245Y-57192947D01*
X127660102Y-57076653D01*
X127565147Y-56981698D01*
X127448853Y-56914555D01*
X127319143Y-56879800D01*
X127184857Y-56879800D01*
X127055147Y-56914555D01*
X126938853Y-56981698D01*
X126843898Y-57076653D01*
X126776755Y-57192947D01*
X126742000Y-57322657D01*
X126619172Y-57322657D01*
X126252000Y-56955485D01*
X126252000Y-56551162D01*
X126260644Y-56521721D01*
X126267168Y-56491735D01*
X126270922Y-56486719D01*
X126271685Y-56484123D01*
X126288319Y-56463481D01*
X126338975Y-56412825D01*
X126840710Y-56412825D01*
X127252000Y-56824114D01*
X127252001Y-56824114D01*
X127663288Y-56412825D01*
X129840710Y-56412825D01*
X130252000Y-56824114D01*
X130252001Y-56824114D01*
X130663288Y-56412825D01*
X130561191Y-56370535D01*
X130561183Y-56370533D01*
X130356405Y-56329800D01*
X130147594Y-56329800D01*
X129942816Y-56370532D01*
X129942807Y-56370535D01*
X129840710Y-56412825D01*
X127663288Y-56412825D01*
X127561191Y-56370535D01*
X127561183Y-56370533D01*
X127356405Y-56329800D01*
X127147594Y-56329800D01*
X126942816Y-56370532D01*
X126942807Y-56370535D01*
X126840710Y-56412825D01*
X126338975Y-56412825D01*
X127115681Y-55636119D01*
X127177004Y-55602634D01*
X127203362Y-55599800D01*
X128252000Y-55599800D01*
X128752000Y-56099800D01*
G37*
%TD.AperFunction*%
%TA.AperFunction,Conductor*%
G36*
X147368377Y-49520185D02*
G01*
X147389019Y-49536819D01*
X148215681Y-50363481D01*
X148249166Y-50424804D01*
X148252000Y-50451162D01*
X148252000Y-55599800D01*
X151352000Y-58699800D01*
X162600638Y-58699800D01*
X162667677Y-58719485D01*
X162688319Y-58736119D01*
X164915681Y-60963481D01*
X164949166Y-61024804D01*
X164952000Y-61051162D01*
X164952000Y-67148438D01*
X164932315Y-67215477D01*
X164915681Y-67236119D01*
X163688319Y-68463481D01*
X163626996Y-68496966D01*
X163600638Y-68499800D01*
X147651999Y-68499800D01*
X146852000Y-69299799D01*
X146852000Y-73348438D01*
X146843355Y-73377878D01*
X146836832Y-73407865D01*
X146833077Y-73412880D01*
X146832315Y-73415477D01*
X146815681Y-73436119D01*
X146688319Y-73563481D01*
X146626996Y-73596966D01*
X146600638Y-73599800D01*
X144703362Y-73599800D01*
X144636323Y-73580115D01*
X144615681Y-73563481D01*
X144488319Y-73436119D01*
X144454834Y-73374796D01*
X144452000Y-73348438D01*
X144452000Y-68899800D01*
X144252000Y-68699800D01*
X142603362Y-68699800D01*
X142536323Y-68680115D01*
X142515681Y-68663481D01*
X141988319Y-68136119D01*
X141954834Y-68074796D01*
X141952000Y-68048438D01*
X141952000Y-63507285D01*
X152300198Y-63507285D01*
X152392968Y-63554555D01*
X152587582Y-63617790D01*
X152789683Y-63649800D01*
X152994317Y-63649800D01*
X153196417Y-63617790D01*
X153391031Y-63554555D01*
X153483801Y-63507285D01*
X152892001Y-62915485D01*
X152892000Y-62915485D01*
X152300198Y-63507285D01*
X141952000Y-63507285D01*
X141952000Y-62247482D01*
X151592000Y-62247482D01*
X151592000Y-62452117D01*
X151624009Y-62654217D01*
X151687243Y-62848827D01*
X151687246Y-62848834D01*
X151734512Y-62941601D01*
X152326314Y-62349800D01*
X152326314Y-62349799D01*
X152259172Y-62282657D01*
X152382000Y-62282657D01*
X152382000Y-62416943D01*
X152416755Y-62546653D01*
X152483898Y-62662947D01*
X152578853Y-62757902D01*
X152695147Y-62825045D01*
X152824857Y-62859800D01*
X152959143Y-62859800D01*
X153088853Y-62825045D01*
X153205147Y-62757902D01*
X153300102Y-62662947D01*
X153367245Y-62546653D01*
X153402000Y-62416943D01*
X153402000Y-62349799D01*
X153457685Y-62349799D01*
X153457685Y-62349800D01*
X154049485Y-62941600D01*
X154096755Y-62848831D01*
X154159990Y-62654217D01*
X154192000Y-62452117D01*
X154192000Y-62247482D01*
X154159990Y-62045382D01*
X154096755Y-61850768D01*
X154049485Y-61757998D01*
X153457685Y-62349799D01*
X153402000Y-62349799D01*
X153402000Y-62282657D01*
X153367245Y-62152947D01*
X153300102Y-62036653D01*
X153205147Y-61941698D01*
X153088853Y-61874555D01*
X152959143Y-61839800D01*
X152824857Y-61839800D01*
X152695147Y-61874555D01*
X152578853Y-61941698D01*
X152483898Y-62036653D01*
X152416755Y-62152947D01*
X152382000Y-62282657D01*
X152259172Y-62282657D01*
X151734512Y-61757997D01*
X151687242Y-61850773D01*
X151687242Y-61850774D01*
X151624010Y-62045378D01*
X151624010Y-62045381D01*
X151592000Y-62247482D01*
X141952000Y-62247482D01*
X141952000Y-61192312D01*
X152300197Y-61192312D01*
X152892000Y-61784114D01*
X152892001Y-61784114D01*
X153371183Y-61304931D01*
X155091500Y-61304931D01*
X155091500Y-63394656D01*
X155091502Y-63394682D01*
X155094413Y-63419787D01*
X155094415Y-63419791D01*
X155139793Y-63522564D01*
X155139794Y-63522565D01*
X155219235Y-63602006D01*
X155322009Y-63647385D01*
X155347135Y-63650300D01*
X157436864Y-63650299D01*
X157436879Y-63650297D01*
X157436882Y-63650297D01*
X157461987Y-63647386D01*
X157461988Y-63647385D01*
X157461991Y-63647385D01*
X157564765Y-63602006D01*
X157644206Y-63522565D01*
X157689585Y-63419791D01*
X157692500Y-63394665D01*
X157692499Y-61304936D01*
X157692497Y-61304917D01*
X157689586Y-61279812D01*
X157689585Y-61279810D01*
X157689585Y-61279809D01*
X157644206Y-61177035D01*
X157564765Y-61097594D01*
X157529018Y-61081810D01*
X157461992Y-61052215D01*
X157436865Y-61049300D01*
X155347143Y-61049300D01*
X155347117Y-61049302D01*
X155322012Y-61052213D01*
X155322008Y-61052215D01*
X155219235Y-61097593D01*
X155139794Y-61177034D01*
X155094415Y-61279806D01*
X155094415Y-61279808D01*
X155091500Y-61304931D01*
X153371183Y-61304931D01*
X153462441Y-61213673D01*
X153483801Y-61192312D01*
X153391034Y-61145046D01*
X153391027Y-61145043D01*
X153196417Y-61081809D01*
X152994317Y-61049800D01*
X152789683Y-61049800D01*
X152587581Y-61081810D01*
X152587578Y-61081810D01*
X152392974Y-61145042D01*
X152392973Y-61145042D01*
X152300197Y-61192312D01*
X141952000Y-61192312D01*
X141952000Y-56799800D01*
X139652000Y-54499800D01*
X132852000Y-54499800D01*
X132851999Y-54499800D01*
X131552000Y-55799799D01*
X131552000Y-55799800D01*
X131552000Y-56099800D01*
X128752000Y-56099800D01*
X128252000Y-55599800D01*
X128252000Y-52975058D01*
X129351500Y-52975058D01*
X129351500Y-53204541D01*
X129370447Y-53348447D01*
X129381452Y-53432038D01*
X129381453Y-53432040D01*
X129440842Y-53653687D01*
X129528650Y-53865676D01*
X129528657Y-53865690D01*
X129643392Y-54064417D01*
X129783081Y-54246461D01*
X129783089Y-54246470D01*
X129945330Y-54408711D01*
X129945338Y-54408718D01*
X130127382Y-54548407D01*
X130127385Y-54548408D01*
X130127388Y-54548411D01*
X130326112Y-54663144D01*
X130326117Y-54663146D01*
X130326123Y-54663149D01*
X130417480Y-54700990D01*
X130538113Y-54750958D01*
X130759762Y-54810348D01*
X130987266Y-54840300D01*
X130987273Y-54840300D01*
X131216727Y-54840300D01*
X131216734Y-54840300D01*
X131444238Y-54810348D01*
X131665887Y-54750958D01*
X131877888Y-54663144D01*
X132076612Y-54548411D01*
X132258661Y-54408719D01*
X132258665Y-54408714D01*
X132258670Y-54408711D01*
X132420911Y-54246470D01*
X132420914Y-54246465D01*
X132420919Y-54246461D01*
X132560611Y-54064412D01*
X132675344Y-53865688D01*
X132763158Y-53653687D01*
X132822548Y-53432038D01*
X132852500Y-53204534D01*
X132852500Y-52975066D01*
X132822548Y-52747562D01*
X132763158Y-52525913D01*
X132675344Y-52313912D01*
X132560611Y-52115188D01*
X132560608Y-52115185D01*
X132560607Y-52115182D01*
X132420918Y-51933138D01*
X132420911Y-51933130D01*
X132258670Y-51770889D01*
X132258661Y-51770881D01*
X132076617Y-51631192D01*
X131877890Y-51516457D01*
X131877876Y-51516450D01*
X131665887Y-51428642D01*
X131444238Y-51369252D01*
X131406215Y-51364246D01*
X131216741Y-51339300D01*
X131216734Y-51339300D01*
X130987266Y-51339300D01*
X130987258Y-51339300D01*
X130770715Y-51367809D01*
X130759762Y-51369252D01*
X130666076Y-51394354D01*
X130538112Y-51428642D01*
X130326123Y-51516450D01*
X130326109Y-51516457D01*
X130127382Y-51631192D01*
X129945338Y-51770881D01*
X129783081Y-51933138D01*
X129643392Y-52115182D01*
X129528657Y-52313909D01*
X129528650Y-52313923D01*
X129440842Y-52525912D01*
X129381453Y-52747559D01*
X129381451Y-52747570D01*
X129351500Y-52975058D01*
X128252000Y-52975058D01*
X128252000Y-51051162D01*
X128271685Y-50984123D01*
X128288319Y-50963481D01*
X129714981Y-49536819D01*
X129776304Y-49503334D01*
X129802662Y-49500500D01*
X147301338Y-49500500D01*
X147368377Y-49520185D01*
G37*
%TD.AperFunction*%
%TA.AperFunction,Conductor*%
G36*
X155852000Y-91599800D02*
G01*
X155852000Y-94599800D01*
X155452000Y-94999800D01*
X151052000Y-94999800D01*
X150652000Y-94599800D01*
X150652000Y-91399800D01*
X150752000Y-91299800D01*
X155552000Y-91299800D01*
X155852000Y-91599800D01*
G37*
%TD.AperFunction*%
D20*
X98349000Y-49000000D02*
X166000000Y-49000000D01*
X166000000Y-118000000D01*
X98349000Y-118000000D01*
X98349000Y-49000000D01*
M02*
