%TF.GenerationSoftware,KiCad,Pcbnew,9.0.0*%
%TF.CreationDate,2026-01-23T14:52:09+07:00*%
%TF.ProjectId,Connector_Extension_Board_V1.0,436f6e6e-6563-4746-9f72-5f457874656e,rev?*%
%TF.SameCoordinates,Original*%
%TF.FileFunction,Legend,Bot*%
%TF.FilePolarity,Positive*%
%FSLAX46Y46*%
G04 Gerber Fmt 4.6, Leading zero omitted, Abs format (unit mm)*
G04 Created by KiCad (PCBNEW 9.0.0) date 2026-01-23 14:52:09*
%MOMM*%
%LPD*%
G01*
G04 APERTURE LIST*
%ADD10C,0.010000*%
%ADD11C,3.110399*%
%ADD12C,1.601200*%
%ADD13C,0.836200*%
%ADD14C,1.576200*%
%ADD15C,2.000000*%
%ADD16C,5.800000*%
%ADD17C,2.360000*%
%ADD18R,1.780000X1.780000*%
%ADD19C,1.750000*%
%ADD20C,3.050000*%
%ADD21C,2.260600*%
%ADD22C,3.000000*%
%TA.AperFunction,Profile*%
%ADD23C,0.100000*%
%TD*%
G04 APERTURE END LIST*
%LPC*%
D10*
X126423900Y-57389800D02*
X128080100Y-57389800D01*
X128080100Y-60186000D01*
X126423900Y-60186000D01*
X126423900Y-57389800D01*
G36*
X126423900Y-57389800D02*
G01*
X128080100Y-57389800D01*
X128080100Y-60186000D01*
X126423900Y-60186000D01*
X126423900Y-57389800D01*
G37*
X123415800Y-57403600D02*
X125072000Y-57403600D01*
X125072000Y-60199800D01*
X123415800Y-60199800D01*
X123415800Y-57403600D01*
G36*
X123415800Y-57403600D02*
G01*
X125072000Y-57403600D01*
X125072000Y-60199800D01*
X123415800Y-60199800D01*
X123415800Y-57403600D01*
G37*
X154488900Y-102063600D02*
X156035100Y-102063600D01*
X156035100Y-104549800D01*
X154488900Y-104549800D01*
X154488900Y-102063600D01*
G36*
X154488900Y-102063600D02*
G01*
X156035100Y-102063600D01*
X156035100Y-104549800D01*
X154488900Y-104549800D01*
X154488900Y-102063600D01*
G37*
D11*
X105055199Y-114500000D02*
G75*
G02*
X101944801Y-114500000I-1555199J0D01*
G01*
X101944801Y-114500000D02*
G75*
G02*
X105055199Y-114500000I1555199J0D01*
G01*
X114555199Y-52510399D02*
G75*
G02*
X111444801Y-52510399I-1555199J0D01*
G01*
X111444801Y-52510399D02*
G75*
G02*
X114555199Y-52510399I1555199J0D01*
G01*
D10*
X150978900Y-102083600D02*
X152525100Y-102083600D01*
X152525100Y-104699800D01*
X150978900Y-104699800D01*
X150978900Y-102083600D01*
G36*
X150978900Y-102083600D02*
G01*
X152525100Y-102083600D01*
X152525100Y-104699800D01*
X150978900Y-104699800D01*
X150978900Y-102083600D01*
G37*
D11*
X164055199Y-114500000D02*
G75*
G02*
X160944801Y-114500000I-1555199J0D01*
G01*
X160944801Y-114500000D02*
G75*
G02*
X164055199Y-114500000I1555199J0D01*
G01*
D10*
X129533900Y-57389800D02*
X131080100Y-57389800D01*
X131080100Y-60186000D01*
X129533900Y-60186000D01*
X129533900Y-57389800D01*
G36*
X129533900Y-57389800D02*
G01*
X131080100Y-57389800D01*
X131080100Y-60186000D01*
X129533900Y-60186000D01*
X129533900Y-57389800D01*
G37*
D12*
X142858225Y-112459800D02*
G75*
G02*
X141257025Y-112459800I-800600J0D01*
G01*
X141257025Y-112459800D02*
G75*
G02*
X142858225Y-112459800I800600J0D01*
G01*
D13*
X144225725Y-104549800D02*
G75*
G02*
X143389525Y-104549800I-418100J0D01*
G01*
X143389525Y-104549800D02*
G75*
G02*
X144225725Y-104549800I418100J0D01*
G01*
D10*
X141143825Y-105386000D02*
X139471425Y-105386000D01*
X139471425Y-103713600D01*
X141143825Y-103713600D01*
X141143825Y-105386000D01*
G36*
X141143825Y-105386000D02*
G01*
X139471425Y-105386000D01*
X139471425Y-103713600D01*
X141143825Y-103713600D01*
X141143825Y-105386000D01*
G37*
D13*
X153310100Y-62349800D02*
G75*
G02*
X152473900Y-62349800I-418100J0D01*
G01*
X152473900Y-62349800D02*
G75*
G02*
X153310100Y-62349800I418100J0D01*
G01*
D12*
X155442600Y-54439800D02*
G75*
G02*
X153841400Y-54439800I-800600J0D01*
G01*
X153841400Y-54439800D02*
G75*
G02*
X155442600Y-54439800I800600J0D01*
G01*
D10*
X157228200Y-63186000D02*
X155555800Y-63186000D01*
X155555800Y-61513600D01*
X157228200Y-61513600D01*
X157228200Y-63186000D01*
G36*
X157228200Y-63186000D02*
G01*
X155555800Y-63186000D01*
X155555800Y-61513600D01*
X157228200Y-61513600D01*
X157228200Y-63186000D01*
G37*
D12*
X154312600Y-112459800D02*
G75*
G02*
X152711400Y-112459800I-800600J0D01*
G01*
X152711400Y-112459800D02*
G75*
G02*
X154312600Y-112459800I800600J0D01*
G01*
D13*
X155680100Y-104549800D02*
G75*
G02*
X154843900Y-104549800I-418100J0D01*
G01*
X154843900Y-104549800D02*
G75*
G02*
X155680100Y-104549800I418100J0D01*
G01*
D10*
X152598200Y-105386000D02*
X150925800Y-105386000D01*
X150925800Y-103713600D01*
X152598200Y-103713600D01*
X152598200Y-105386000D01*
G36*
X152598200Y-105386000D02*
G01*
X150925800Y-105386000D01*
X150925800Y-103713600D01*
X152598200Y-103713600D01*
X152598200Y-105386000D01*
G37*
D12*
X131403850Y-112459800D02*
G75*
G02*
X129802650Y-112459800I-800600J0D01*
G01*
X129802650Y-112459800D02*
G75*
G02*
X131403850Y-112459800I800600J0D01*
G01*
D13*
X132771350Y-104549800D02*
G75*
G02*
X131935150Y-104549800I-418100J0D01*
G01*
X131935150Y-104549800D02*
G75*
G02*
X132771350Y-104549800I418100J0D01*
G01*
D10*
X129689450Y-105386000D02*
X128017050Y-105386000D01*
X128017050Y-103713600D01*
X129689450Y-103713600D01*
X129689450Y-105386000D01*
G36*
X129689450Y-105386000D02*
G01*
X128017050Y-105386000D01*
X128017050Y-103713600D01*
X129689450Y-103713600D01*
X129689450Y-105386000D01*
G37*
D14*
X128040100Y-53089800D02*
G75*
G02*
X126463900Y-53089800I-788100J0D01*
G01*
X126463900Y-53089800D02*
G75*
G02*
X128040100Y-53089800I788100J0D01*
G01*
D13*
X127670100Y-57389800D02*
G75*
G02*
X126833900Y-57389800I-418100J0D01*
G01*
X126833900Y-57389800D02*
G75*
G02*
X127670100Y-57389800I418100J0D01*
G01*
X130670100Y-57389800D02*
G75*
G02*
X129833900Y-57389800I-418100J0D01*
G01*
X129833900Y-57389800D02*
G75*
G02*
X130670100Y-57389800I418100J0D01*
G01*
D10*
X125088200Y-58226000D02*
X123415800Y-58226000D01*
X123415800Y-56553600D01*
X125088200Y-56553600D01*
X125088200Y-58226000D01*
G36*
X125088200Y-58226000D02*
G01*
X123415800Y-58226000D01*
X123415800Y-56553600D01*
X125088200Y-56553600D01*
X125088200Y-58226000D01*
G37*
D15*
X102562000Y-87249800D03*
D16*
X103500000Y-114500000D03*
X162500000Y-114500000D03*
D17*
X122813875Y-113769050D03*
X117333875Y-113769050D03*
D18*
X121343875Y-105129050D03*
D19*
X118803875Y-105129050D03*
D15*
X160962000Y-87749800D03*
D20*
X142057625Y-112459800D03*
D21*
X137807625Y-112459800D03*
X146307625Y-112459800D03*
D16*
X113000000Y-52500000D03*
D20*
X154642000Y-54439800D03*
D21*
X158892000Y-54439800D03*
X150392000Y-54439800D03*
D15*
X160962000Y-83789800D03*
D20*
X153512000Y-112459800D03*
D21*
X149262000Y-112459800D03*
X157762000Y-112459800D03*
D20*
X130603250Y-112459800D03*
D21*
X126353250Y-112459800D03*
X134853250Y-112459800D03*
D17*
X113784500Y-113769050D03*
X108304500Y-113769050D03*
D18*
X112314500Y-105129050D03*
D19*
X109774500Y-105129050D03*
D15*
X102562000Y-83289800D03*
D22*
X127252000Y-53089800D03*
%LPD*%
D23*
X98349000Y-49000000D02*
X166000000Y-49000000D01*
X166000000Y-118000000D01*
X98349000Y-118000000D01*
X98349000Y-49000000D01*
M02*
