%TF.GenerationSoftware,KiCad,Pcbnew,9.0.0*%
%TF.CreationDate,2026-02-04T15:59:27+07:00*%
%TF.ProjectId,Connector_Extension_Board_V1.0,436f6e6e-6563-4746-9f72-5f457874656e,rev?*%
%TF.SameCoordinates,Original*%
%TF.FileFunction,Paste,Top*%
%TF.FilePolarity,Positive*%
%FSLAX46Y46*%
G04 Gerber Fmt 4.6, Leading zero omitted, Abs format (unit mm)*
G04 Created by KiCad (PCBNEW 9.0.0) date 2026-02-04 15:59:27*
%MOMM*%
%LPD*%
G01*
G04 APERTURE LIST*
G04 Aperture macros list*
%AMRoundRect*
0 Rectangle with rounded corners*
0 $1 Rounding radius*
0 $2 $3 $4 $5 $6 $7 $8 $9 X,Y pos of 4 corners*
0 Add a 4 corners polygon primitive as box body*
4,1,4,$2,$3,$4,$5,$6,$7,$8,$9,$2,$3,0*
0 Add four circle primitives for the rounded corners*
1,1,$1+$1,$2,$3*
1,1,$1+$1,$4,$5*
1,1,$1+$1,$6,$7*
1,1,$1+$1,$8,$9*
0 Add four rect primitives between the rounded corners*
20,1,$1+$1,$2,$3,$4,$5,0*
20,1,$1+$1,$4,$5,$6,$7,0*
20,1,$1+$1,$6,$7,$8,$9,0*
20,1,$1+$1,$8,$9,$2,$3,0*%
G04 Aperture macros list end*
%ADD10C,0.010000*%
%ADD11RoundRect,0.031250X-0.093750X0.218750X-0.093750X-0.218750X0.093750X-0.218750X0.093750X0.218750X0*%
%ADD12RoundRect,0.200000X0.200000X0.275000X-0.200000X0.275000X-0.200000X-0.275000X0.200000X-0.275000X0*%
%ADD13RoundRect,0.225000X-0.225000X-0.250000X0.225000X-0.250000X0.225000X0.250000X-0.225000X0.250000X0*%
%ADD14RoundRect,0.250000X0.325000X0.650000X-0.325000X0.650000X-0.325000X-0.650000X0.325000X-0.650000X0*%
%ADD15RoundRect,0.225000X0.250000X-0.225000X0.250000X0.225000X-0.250000X0.225000X-0.250000X-0.225000X0*%
%ADD16RoundRect,0.200000X-0.275000X0.200000X-0.275000X-0.200000X0.275000X-0.200000X0.275000X0.200000X0*%
%ADD17RoundRect,0.031250X-0.218750X-0.093750X0.218750X-0.093750X0.218750X0.093750X-0.218750X0.093750X0*%
%ADD18RoundRect,0.200000X0.275000X-0.200000X0.275000X0.200000X-0.275000X0.200000X-0.275000X-0.200000X0*%
%ADD19RoundRect,0.250000X-0.650000X0.325000X-0.650000X-0.325000X0.650000X-0.325000X0.650000X0.325000X0*%
%ADD20RoundRect,0.225000X0.225000X0.250000X-0.225000X0.250000X-0.225000X-0.250000X0.225000X-0.250000X0*%
%ADD21RoundRect,0.225000X-0.250000X0.225000X-0.250000X-0.225000X0.250000X-0.225000X0.250000X0.225000X0*%
%TA.AperFunction,Profile*%
%ADD22C,0.100000*%
%TD*%
G04 APERTURE END LIST*
D10*
X130562500Y-92908300D02*
X130564500Y-92908300D01*
X130567500Y-92909300D01*
X130569500Y-92909300D01*
X130572500Y-92910300D01*
X130574500Y-92911300D01*
X130577500Y-92912300D01*
X130579500Y-92914300D01*
X130581500Y-92915300D01*
X130583500Y-92917300D01*
X130585500Y-92918300D01*
X130587500Y-92920300D01*
X130589500Y-92922300D01*
X130591500Y-92924300D01*
X130593500Y-92926300D01*
X130594500Y-92928300D01*
X130596500Y-92930300D01*
X130597500Y-92932300D01*
X130599500Y-92934300D01*
X130600500Y-92937300D01*
X130601500Y-92939300D01*
X130602500Y-92942300D01*
X130602500Y-92944300D01*
X130603500Y-92947300D01*
X130603500Y-92949300D01*
X130604500Y-92952300D01*
X130604500Y-92954300D01*
X130604500Y-92957300D01*
X130604500Y-93757300D01*
X130604500Y-93760300D01*
X130604500Y-93762300D01*
X130603500Y-93765300D01*
X130603500Y-93767300D01*
X130602500Y-93770300D01*
X130602500Y-93772300D01*
X130601500Y-93775300D01*
X130600500Y-93777300D01*
X130599500Y-93780300D01*
X130597500Y-93782300D01*
X130596500Y-93784300D01*
X130594500Y-93786300D01*
X130593500Y-93788300D01*
X130591500Y-93790300D01*
X130589500Y-93792300D01*
X130587500Y-93794300D01*
X130585500Y-93796300D01*
X130583500Y-93797300D01*
X130581500Y-93799300D01*
X130579500Y-93800300D01*
X130577500Y-93802300D01*
X130574500Y-93803300D01*
X130572500Y-93804300D01*
X130569500Y-93805300D01*
X130567500Y-93805300D01*
X130564500Y-93806300D01*
X130562500Y-93806300D01*
X130559500Y-93807300D01*
X130557500Y-93807300D01*
X130554500Y-93807300D01*
X129954500Y-93807300D01*
X129951500Y-93807300D01*
X129949500Y-93807300D01*
X129946500Y-93806300D01*
X129944500Y-93806300D01*
X129941500Y-93805300D01*
X129939500Y-93805300D01*
X129936500Y-93804300D01*
X129934500Y-93803300D01*
X129931500Y-93802300D01*
X129929500Y-93800300D01*
X129927500Y-93799300D01*
X129925500Y-93797300D01*
X129923500Y-93796300D01*
X129921500Y-93794300D01*
X129919500Y-93792300D01*
X129917500Y-93790300D01*
X129915500Y-93788300D01*
X129914500Y-93786300D01*
X129912500Y-93784300D01*
X129911500Y-93782300D01*
X129909500Y-93780300D01*
X129908500Y-93777300D01*
X129907500Y-93775300D01*
X129906500Y-93772300D01*
X129906500Y-93770300D01*
X129905500Y-93767300D01*
X129905500Y-93765300D01*
X129904500Y-93762300D01*
X129904500Y-93760300D01*
X129904500Y-93757300D01*
X129904500Y-92957300D01*
X129904500Y-92954300D01*
X129904500Y-92952300D01*
X129905500Y-92949300D01*
X129905500Y-92947300D01*
X129906500Y-92944300D01*
X129906500Y-92942300D01*
X129907500Y-92939300D01*
X129908500Y-92937300D01*
X129909500Y-92934300D01*
X129911500Y-92932300D01*
X129912500Y-92930300D01*
X129914500Y-92928300D01*
X129915500Y-92926300D01*
X129917500Y-92924300D01*
X129919500Y-92922300D01*
X129921500Y-92920300D01*
X129923500Y-92918300D01*
X129925500Y-92917300D01*
X129927500Y-92915300D01*
X129929500Y-92914300D01*
X129931500Y-92912300D01*
X129934500Y-92911300D01*
X129936500Y-92910300D01*
X129939500Y-92909300D01*
X129941500Y-92909300D01*
X129944500Y-92908300D01*
X129946500Y-92908300D01*
X129949500Y-92907300D01*
X129951500Y-92907300D01*
X129954500Y-92907300D01*
X130554500Y-92907300D01*
X130557500Y-92907300D01*
X130559500Y-92907300D01*
X130562500Y-92908300D01*
G36*
X130562500Y-92908300D02*
G01*
X130564500Y-92908300D01*
X130567500Y-92909300D01*
X130569500Y-92909300D01*
X130572500Y-92910300D01*
X130574500Y-92911300D01*
X130577500Y-92912300D01*
X130579500Y-92914300D01*
X130581500Y-92915300D01*
X130583500Y-92917300D01*
X130585500Y-92918300D01*
X130587500Y-92920300D01*
X130589500Y-92922300D01*
X130591500Y-92924300D01*
X130593500Y-92926300D01*
X130594500Y-92928300D01*
X130596500Y-92930300D01*
X130597500Y-92932300D01*
X130599500Y-92934300D01*
X130600500Y-92937300D01*
X130601500Y-92939300D01*
X130602500Y-92942300D01*
X130602500Y-92944300D01*
X130603500Y-92947300D01*
X130603500Y-92949300D01*
X130604500Y-92952300D01*
X130604500Y-92954300D01*
X130604500Y-92957300D01*
X130604500Y-93757300D01*
X130604500Y-93760300D01*
X130604500Y-93762300D01*
X130603500Y-93765300D01*
X130603500Y-93767300D01*
X130602500Y-93770300D01*
X130602500Y-93772300D01*
X130601500Y-93775300D01*
X130600500Y-93777300D01*
X130599500Y-93780300D01*
X130597500Y-93782300D01*
X130596500Y-93784300D01*
X130594500Y-93786300D01*
X130593500Y-93788300D01*
X130591500Y-93790300D01*
X130589500Y-93792300D01*
X130587500Y-93794300D01*
X130585500Y-93796300D01*
X130583500Y-93797300D01*
X130581500Y-93799300D01*
X130579500Y-93800300D01*
X130577500Y-93802300D01*
X130574500Y-93803300D01*
X130572500Y-93804300D01*
X130569500Y-93805300D01*
X130567500Y-93805300D01*
X130564500Y-93806300D01*
X130562500Y-93806300D01*
X130559500Y-93807300D01*
X130557500Y-93807300D01*
X130554500Y-93807300D01*
X129954500Y-93807300D01*
X129951500Y-93807300D01*
X129949500Y-93807300D01*
X129946500Y-93806300D01*
X129944500Y-93806300D01*
X129941500Y-93805300D01*
X129939500Y-93805300D01*
X129936500Y-93804300D01*
X129934500Y-93803300D01*
X129931500Y-93802300D01*
X129929500Y-93800300D01*
X129927500Y-93799300D01*
X129925500Y-93797300D01*
X129923500Y-93796300D01*
X129921500Y-93794300D01*
X129919500Y-93792300D01*
X129917500Y-93790300D01*
X129915500Y-93788300D01*
X129914500Y-93786300D01*
X129912500Y-93784300D01*
X129911500Y-93782300D01*
X129909500Y-93780300D01*
X129908500Y-93777300D01*
X129907500Y-93775300D01*
X129906500Y-93772300D01*
X129906500Y-93770300D01*
X129905500Y-93767300D01*
X129905500Y-93765300D01*
X129904500Y-93762300D01*
X129904500Y-93760300D01*
X129904500Y-93757300D01*
X129904500Y-92957300D01*
X129904500Y-92954300D01*
X129904500Y-92952300D01*
X129905500Y-92949300D01*
X129905500Y-92947300D01*
X129906500Y-92944300D01*
X129906500Y-92942300D01*
X129907500Y-92939300D01*
X129908500Y-92937300D01*
X129909500Y-92934300D01*
X129911500Y-92932300D01*
X129912500Y-92930300D01*
X129914500Y-92928300D01*
X129915500Y-92926300D01*
X129917500Y-92924300D01*
X129919500Y-92922300D01*
X129921500Y-92920300D01*
X129923500Y-92918300D01*
X129925500Y-92917300D01*
X129927500Y-92915300D01*
X129929500Y-92914300D01*
X129931500Y-92912300D01*
X129934500Y-92911300D01*
X129936500Y-92910300D01*
X129939500Y-92909300D01*
X129941500Y-92909300D01*
X129944500Y-92908300D01*
X129946500Y-92908300D01*
X129949500Y-92907300D01*
X129951500Y-92907300D01*
X129954500Y-92907300D01*
X130554500Y-92907300D01*
X130557500Y-92907300D01*
X130559500Y-92907300D01*
X130562500Y-92908300D01*
G37*
X131462500Y-92908300D02*
X131464500Y-92908300D01*
X131467500Y-92909300D01*
X131469500Y-92909300D01*
X131472500Y-92910300D01*
X131474500Y-92911300D01*
X131477500Y-92912300D01*
X131479500Y-92914300D01*
X131481500Y-92915300D01*
X131483500Y-92917300D01*
X131485500Y-92918300D01*
X131487500Y-92920300D01*
X131489500Y-92922300D01*
X131491500Y-92924300D01*
X131493500Y-92926300D01*
X131494500Y-92928300D01*
X131496500Y-92930300D01*
X131497500Y-92932300D01*
X131499500Y-92934300D01*
X131500500Y-92937300D01*
X131501500Y-92939300D01*
X131502500Y-92942300D01*
X131502500Y-92944300D01*
X131503500Y-92947300D01*
X131503500Y-92949300D01*
X131504500Y-92952300D01*
X131504500Y-92954300D01*
X131504500Y-92957300D01*
X131504500Y-93757300D01*
X131504500Y-93760300D01*
X131504500Y-93762300D01*
X131503500Y-93765300D01*
X131503500Y-93767300D01*
X131502500Y-93770300D01*
X131502500Y-93772300D01*
X131501500Y-93775300D01*
X131500500Y-93777300D01*
X131499500Y-93780300D01*
X131497500Y-93782300D01*
X131496500Y-93784300D01*
X131494500Y-93786300D01*
X131493500Y-93788300D01*
X131491500Y-93790300D01*
X131489500Y-93792300D01*
X131487500Y-93794300D01*
X131485500Y-93796300D01*
X131483500Y-93797300D01*
X131481500Y-93799300D01*
X131479500Y-93800300D01*
X131477500Y-93802300D01*
X131474500Y-93803300D01*
X131472500Y-93804300D01*
X131469500Y-93805300D01*
X131467500Y-93805300D01*
X131464500Y-93806300D01*
X131462500Y-93806300D01*
X131459500Y-93807300D01*
X131457500Y-93807300D01*
X131454500Y-93807300D01*
X130854500Y-93807300D01*
X130851500Y-93807300D01*
X130849500Y-93807300D01*
X130846500Y-93806300D01*
X130844500Y-93806300D01*
X130841500Y-93805300D01*
X130839500Y-93805300D01*
X130836500Y-93804300D01*
X130834500Y-93803300D01*
X130831500Y-93802300D01*
X130829500Y-93800300D01*
X130827500Y-93799300D01*
X130825500Y-93797300D01*
X130823500Y-93796300D01*
X130821500Y-93794300D01*
X130819500Y-93792300D01*
X130817500Y-93790300D01*
X130815500Y-93788300D01*
X130814500Y-93786300D01*
X130812500Y-93784300D01*
X130811500Y-93782300D01*
X130809500Y-93780300D01*
X130808500Y-93777300D01*
X130807500Y-93775300D01*
X130806500Y-93772300D01*
X130806500Y-93770300D01*
X130805500Y-93767300D01*
X130805500Y-93765300D01*
X130804500Y-93762300D01*
X130804500Y-93760300D01*
X130804500Y-93757300D01*
X130804500Y-92957300D01*
X130804500Y-92954300D01*
X130804500Y-92952300D01*
X130805500Y-92949300D01*
X130805500Y-92947300D01*
X130806500Y-92944300D01*
X130806500Y-92942300D01*
X130807500Y-92939300D01*
X130808500Y-92937300D01*
X130809500Y-92934300D01*
X130811500Y-92932300D01*
X130812500Y-92930300D01*
X130814500Y-92928300D01*
X130815500Y-92926300D01*
X130817500Y-92924300D01*
X130819500Y-92922300D01*
X130821500Y-92920300D01*
X130823500Y-92918300D01*
X130825500Y-92917300D01*
X130827500Y-92915300D01*
X130829500Y-92914300D01*
X130831500Y-92912300D01*
X130834500Y-92911300D01*
X130836500Y-92910300D01*
X130839500Y-92909300D01*
X130841500Y-92909300D01*
X130844500Y-92908300D01*
X130846500Y-92908300D01*
X130849500Y-92907300D01*
X130851500Y-92907300D01*
X130854500Y-92907300D01*
X131454500Y-92907300D01*
X131457500Y-92907300D01*
X131459500Y-92907300D01*
X131462500Y-92908300D01*
G36*
X131462500Y-92908300D02*
G01*
X131464500Y-92908300D01*
X131467500Y-92909300D01*
X131469500Y-92909300D01*
X131472500Y-92910300D01*
X131474500Y-92911300D01*
X131477500Y-92912300D01*
X131479500Y-92914300D01*
X131481500Y-92915300D01*
X131483500Y-92917300D01*
X131485500Y-92918300D01*
X131487500Y-92920300D01*
X131489500Y-92922300D01*
X131491500Y-92924300D01*
X131493500Y-92926300D01*
X131494500Y-92928300D01*
X131496500Y-92930300D01*
X131497500Y-92932300D01*
X131499500Y-92934300D01*
X131500500Y-92937300D01*
X131501500Y-92939300D01*
X131502500Y-92942300D01*
X131502500Y-92944300D01*
X131503500Y-92947300D01*
X131503500Y-92949300D01*
X131504500Y-92952300D01*
X131504500Y-92954300D01*
X131504500Y-92957300D01*
X131504500Y-93757300D01*
X131504500Y-93760300D01*
X131504500Y-93762300D01*
X131503500Y-93765300D01*
X131503500Y-93767300D01*
X131502500Y-93770300D01*
X131502500Y-93772300D01*
X131501500Y-93775300D01*
X131500500Y-93777300D01*
X131499500Y-93780300D01*
X131497500Y-93782300D01*
X131496500Y-93784300D01*
X131494500Y-93786300D01*
X131493500Y-93788300D01*
X131491500Y-93790300D01*
X131489500Y-93792300D01*
X131487500Y-93794300D01*
X131485500Y-93796300D01*
X131483500Y-93797300D01*
X131481500Y-93799300D01*
X131479500Y-93800300D01*
X131477500Y-93802300D01*
X131474500Y-93803300D01*
X131472500Y-93804300D01*
X131469500Y-93805300D01*
X131467500Y-93805300D01*
X131464500Y-93806300D01*
X131462500Y-93806300D01*
X131459500Y-93807300D01*
X131457500Y-93807300D01*
X131454500Y-93807300D01*
X130854500Y-93807300D01*
X130851500Y-93807300D01*
X130849500Y-93807300D01*
X130846500Y-93806300D01*
X130844500Y-93806300D01*
X130841500Y-93805300D01*
X130839500Y-93805300D01*
X130836500Y-93804300D01*
X130834500Y-93803300D01*
X130831500Y-93802300D01*
X130829500Y-93800300D01*
X130827500Y-93799300D01*
X130825500Y-93797300D01*
X130823500Y-93796300D01*
X130821500Y-93794300D01*
X130819500Y-93792300D01*
X130817500Y-93790300D01*
X130815500Y-93788300D01*
X130814500Y-93786300D01*
X130812500Y-93784300D01*
X130811500Y-93782300D01*
X130809500Y-93780300D01*
X130808500Y-93777300D01*
X130807500Y-93775300D01*
X130806500Y-93772300D01*
X130806500Y-93770300D01*
X130805500Y-93767300D01*
X130805500Y-93765300D01*
X130804500Y-93762300D01*
X130804500Y-93760300D01*
X130804500Y-93757300D01*
X130804500Y-92957300D01*
X130804500Y-92954300D01*
X130804500Y-92952300D01*
X130805500Y-92949300D01*
X130805500Y-92947300D01*
X130806500Y-92944300D01*
X130806500Y-92942300D01*
X130807500Y-92939300D01*
X130808500Y-92937300D01*
X130809500Y-92934300D01*
X130811500Y-92932300D01*
X130812500Y-92930300D01*
X130814500Y-92928300D01*
X130815500Y-92926300D01*
X130817500Y-92924300D01*
X130819500Y-92922300D01*
X130821500Y-92920300D01*
X130823500Y-92918300D01*
X130825500Y-92917300D01*
X130827500Y-92915300D01*
X130829500Y-92914300D01*
X130831500Y-92912300D01*
X130834500Y-92911300D01*
X130836500Y-92910300D01*
X130839500Y-92909300D01*
X130841500Y-92909300D01*
X130844500Y-92908300D01*
X130846500Y-92908300D01*
X130849500Y-92907300D01*
X130851500Y-92907300D01*
X130854500Y-92907300D01*
X131454500Y-92907300D01*
X131457500Y-92907300D01*
X131459500Y-92907300D01*
X131462500Y-92908300D01*
G37*
X158910000Y-76618300D02*
X158912000Y-76618300D01*
X158915000Y-76619300D01*
X158917000Y-76619300D01*
X158920000Y-76620300D01*
X158922000Y-76621300D01*
X158925000Y-76622300D01*
X158927000Y-76624300D01*
X158929000Y-76625300D01*
X158931000Y-76627300D01*
X158933000Y-76628300D01*
X158935000Y-76630300D01*
X158937000Y-76632300D01*
X158939000Y-76634300D01*
X158941000Y-76636300D01*
X158942000Y-76638300D01*
X158944000Y-76640300D01*
X158945000Y-76642300D01*
X158947000Y-76644300D01*
X158948000Y-76647300D01*
X158949000Y-76649300D01*
X158950000Y-76652300D01*
X158950000Y-76654300D01*
X158951000Y-76657300D01*
X158951000Y-76659300D01*
X158952000Y-76662300D01*
X158952000Y-76664300D01*
X158952000Y-76667300D01*
X158952000Y-77467300D01*
X158952000Y-77470300D01*
X158952000Y-77472300D01*
X158951000Y-77475300D01*
X158951000Y-77477300D01*
X158950000Y-77480300D01*
X158950000Y-77482300D01*
X158949000Y-77485300D01*
X158948000Y-77487300D01*
X158947000Y-77490300D01*
X158945000Y-77492300D01*
X158944000Y-77494300D01*
X158942000Y-77496300D01*
X158941000Y-77498300D01*
X158939000Y-77500300D01*
X158937000Y-77502300D01*
X158935000Y-77504300D01*
X158933000Y-77506300D01*
X158931000Y-77507300D01*
X158929000Y-77509300D01*
X158927000Y-77510300D01*
X158925000Y-77512300D01*
X158922000Y-77513300D01*
X158920000Y-77514300D01*
X158917000Y-77515300D01*
X158915000Y-77515300D01*
X158912000Y-77516300D01*
X158910000Y-77516300D01*
X158907000Y-77517300D01*
X158905000Y-77517300D01*
X158902000Y-77517300D01*
X158302000Y-77517300D01*
X158299000Y-77517300D01*
X158297000Y-77517300D01*
X158294000Y-77516300D01*
X158292000Y-77516300D01*
X158289000Y-77515300D01*
X158287000Y-77515300D01*
X158284000Y-77514300D01*
X158282000Y-77513300D01*
X158279000Y-77512300D01*
X158277000Y-77510300D01*
X158275000Y-77509300D01*
X158273000Y-77507300D01*
X158271000Y-77506300D01*
X158269000Y-77504300D01*
X158267000Y-77502300D01*
X158265000Y-77500300D01*
X158263000Y-77498300D01*
X158262000Y-77496300D01*
X158260000Y-77494300D01*
X158259000Y-77492300D01*
X158257000Y-77490300D01*
X158256000Y-77487300D01*
X158255000Y-77485300D01*
X158254000Y-77482300D01*
X158254000Y-77480300D01*
X158253000Y-77477300D01*
X158253000Y-77475300D01*
X158252000Y-77472300D01*
X158252000Y-77470300D01*
X158252000Y-77467300D01*
X158252000Y-76667300D01*
X158252000Y-76664300D01*
X158252000Y-76662300D01*
X158253000Y-76659300D01*
X158253000Y-76657300D01*
X158254000Y-76654300D01*
X158254000Y-76652300D01*
X158255000Y-76649300D01*
X158256000Y-76647300D01*
X158257000Y-76644300D01*
X158259000Y-76642300D01*
X158260000Y-76640300D01*
X158262000Y-76638300D01*
X158263000Y-76636300D01*
X158265000Y-76634300D01*
X158267000Y-76632300D01*
X158269000Y-76630300D01*
X158271000Y-76628300D01*
X158273000Y-76627300D01*
X158275000Y-76625300D01*
X158277000Y-76624300D01*
X158279000Y-76622300D01*
X158282000Y-76621300D01*
X158284000Y-76620300D01*
X158287000Y-76619300D01*
X158289000Y-76619300D01*
X158292000Y-76618300D01*
X158294000Y-76618300D01*
X158297000Y-76617300D01*
X158299000Y-76617300D01*
X158302000Y-76617300D01*
X158902000Y-76617300D01*
X158905000Y-76617300D01*
X158907000Y-76617300D01*
X158910000Y-76618300D01*
G36*
X158910000Y-76618300D02*
G01*
X158912000Y-76618300D01*
X158915000Y-76619300D01*
X158917000Y-76619300D01*
X158920000Y-76620300D01*
X158922000Y-76621300D01*
X158925000Y-76622300D01*
X158927000Y-76624300D01*
X158929000Y-76625300D01*
X158931000Y-76627300D01*
X158933000Y-76628300D01*
X158935000Y-76630300D01*
X158937000Y-76632300D01*
X158939000Y-76634300D01*
X158941000Y-76636300D01*
X158942000Y-76638300D01*
X158944000Y-76640300D01*
X158945000Y-76642300D01*
X158947000Y-76644300D01*
X158948000Y-76647300D01*
X158949000Y-76649300D01*
X158950000Y-76652300D01*
X158950000Y-76654300D01*
X158951000Y-76657300D01*
X158951000Y-76659300D01*
X158952000Y-76662300D01*
X158952000Y-76664300D01*
X158952000Y-76667300D01*
X158952000Y-77467300D01*
X158952000Y-77470300D01*
X158952000Y-77472300D01*
X158951000Y-77475300D01*
X158951000Y-77477300D01*
X158950000Y-77480300D01*
X158950000Y-77482300D01*
X158949000Y-77485300D01*
X158948000Y-77487300D01*
X158947000Y-77490300D01*
X158945000Y-77492300D01*
X158944000Y-77494300D01*
X158942000Y-77496300D01*
X158941000Y-77498300D01*
X158939000Y-77500300D01*
X158937000Y-77502300D01*
X158935000Y-77504300D01*
X158933000Y-77506300D01*
X158931000Y-77507300D01*
X158929000Y-77509300D01*
X158927000Y-77510300D01*
X158925000Y-77512300D01*
X158922000Y-77513300D01*
X158920000Y-77514300D01*
X158917000Y-77515300D01*
X158915000Y-77515300D01*
X158912000Y-77516300D01*
X158910000Y-77516300D01*
X158907000Y-77517300D01*
X158905000Y-77517300D01*
X158902000Y-77517300D01*
X158302000Y-77517300D01*
X158299000Y-77517300D01*
X158297000Y-77517300D01*
X158294000Y-77516300D01*
X158292000Y-77516300D01*
X158289000Y-77515300D01*
X158287000Y-77515300D01*
X158284000Y-77514300D01*
X158282000Y-77513300D01*
X158279000Y-77512300D01*
X158277000Y-77510300D01*
X158275000Y-77509300D01*
X158273000Y-77507300D01*
X158271000Y-77506300D01*
X158269000Y-77504300D01*
X158267000Y-77502300D01*
X158265000Y-77500300D01*
X158263000Y-77498300D01*
X158262000Y-77496300D01*
X158260000Y-77494300D01*
X158259000Y-77492300D01*
X158257000Y-77490300D01*
X158256000Y-77487300D01*
X158255000Y-77485300D01*
X158254000Y-77482300D01*
X158254000Y-77480300D01*
X158253000Y-77477300D01*
X158253000Y-77475300D01*
X158252000Y-77472300D01*
X158252000Y-77470300D01*
X158252000Y-77467300D01*
X158252000Y-76667300D01*
X158252000Y-76664300D01*
X158252000Y-76662300D01*
X158253000Y-76659300D01*
X158253000Y-76657300D01*
X158254000Y-76654300D01*
X158254000Y-76652300D01*
X158255000Y-76649300D01*
X158256000Y-76647300D01*
X158257000Y-76644300D01*
X158259000Y-76642300D01*
X158260000Y-76640300D01*
X158262000Y-76638300D01*
X158263000Y-76636300D01*
X158265000Y-76634300D01*
X158267000Y-76632300D01*
X158269000Y-76630300D01*
X158271000Y-76628300D01*
X158273000Y-76627300D01*
X158275000Y-76625300D01*
X158277000Y-76624300D01*
X158279000Y-76622300D01*
X158282000Y-76621300D01*
X158284000Y-76620300D01*
X158287000Y-76619300D01*
X158289000Y-76619300D01*
X158292000Y-76618300D01*
X158294000Y-76618300D01*
X158297000Y-76617300D01*
X158299000Y-76617300D01*
X158302000Y-76617300D01*
X158902000Y-76617300D01*
X158905000Y-76617300D01*
X158907000Y-76617300D01*
X158910000Y-76618300D01*
G37*
X159810000Y-76618300D02*
X159812000Y-76618300D01*
X159815000Y-76619300D01*
X159817000Y-76619300D01*
X159820000Y-76620300D01*
X159822000Y-76621300D01*
X159825000Y-76622300D01*
X159827000Y-76624300D01*
X159829000Y-76625300D01*
X159831000Y-76627300D01*
X159833000Y-76628300D01*
X159835000Y-76630300D01*
X159837000Y-76632300D01*
X159839000Y-76634300D01*
X159841000Y-76636300D01*
X159842000Y-76638300D01*
X159844000Y-76640300D01*
X159845000Y-76642300D01*
X159847000Y-76644300D01*
X159848000Y-76647300D01*
X159849000Y-76649300D01*
X159850000Y-76652300D01*
X159850000Y-76654300D01*
X159851000Y-76657300D01*
X159851000Y-76659300D01*
X159852000Y-76662300D01*
X159852000Y-76664300D01*
X159852000Y-76667300D01*
X159852000Y-77467300D01*
X159852000Y-77470300D01*
X159852000Y-77472300D01*
X159851000Y-77475300D01*
X159851000Y-77477300D01*
X159850000Y-77480300D01*
X159850000Y-77482300D01*
X159849000Y-77485300D01*
X159848000Y-77487300D01*
X159847000Y-77490300D01*
X159845000Y-77492300D01*
X159844000Y-77494300D01*
X159842000Y-77496300D01*
X159841000Y-77498300D01*
X159839000Y-77500300D01*
X159837000Y-77502300D01*
X159835000Y-77504300D01*
X159833000Y-77506300D01*
X159831000Y-77507300D01*
X159829000Y-77509300D01*
X159827000Y-77510300D01*
X159825000Y-77512300D01*
X159822000Y-77513300D01*
X159820000Y-77514300D01*
X159817000Y-77515300D01*
X159815000Y-77515300D01*
X159812000Y-77516300D01*
X159810000Y-77516300D01*
X159807000Y-77517300D01*
X159805000Y-77517300D01*
X159802000Y-77517300D01*
X159202000Y-77517300D01*
X159199000Y-77517300D01*
X159197000Y-77517300D01*
X159194000Y-77516300D01*
X159192000Y-77516300D01*
X159189000Y-77515300D01*
X159187000Y-77515300D01*
X159184000Y-77514300D01*
X159182000Y-77513300D01*
X159179000Y-77512300D01*
X159177000Y-77510300D01*
X159175000Y-77509300D01*
X159173000Y-77507300D01*
X159171000Y-77506300D01*
X159169000Y-77504300D01*
X159167000Y-77502300D01*
X159165000Y-77500300D01*
X159163000Y-77498300D01*
X159162000Y-77496300D01*
X159160000Y-77494300D01*
X159159000Y-77492300D01*
X159157000Y-77490300D01*
X159156000Y-77487300D01*
X159155000Y-77485300D01*
X159154000Y-77482300D01*
X159154000Y-77480300D01*
X159153000Y-77477300D01*
X159153000Y-77475300D01*
X159152000Y-77472300D01*
X159152000Y-77470300D01*
X159152000Y-77467300D01*
X159152000Y-76667300D01*
X159152000Y-76664300D01*
X159152000Y-76662300D01*
X159153000Y-76659300D01*
X159153000Y-76657300D01*
X159154000Y-76654300D01*
X159154000Y-76652300D01*
X159155000Y-76649300D01*
X159156000Y-76647300D01*
X159157000Y-76644300D01*
X159159000Y-76642300D01*
X159160000Y-76640300D01*
X159162000Y-76638300D01*
X159163000Y-76636300D01*
X159165000Y-76634300D01*
X159167000Y-76632300D01*
X159169000Y-76630300D01*
X159171000Y-76628300D01*
X159173000Y-76627300D01*
X159175000Y-76625300D01*
X159177000Y-76624300D01*
X159179000Y-76622300D01*
X159182000Y-76621300D01*
X159184000Y-76620300D01*
X159187000Y-76619300D01*
X159189000Y-76619300D01*
X159192000Y-76618300D01*
X159194000Y-76618300D01*
X159197000Y-76617300D01*
X159199000Y-76617300D01*
X159202000Y-76617300D01*
X159802000Y-76617300D01*
X159805000Y-76617300D01*
X159807000Y-76617300D01*
X159810000Y-76618300D01*
G36*
X159810000Y-76618300D02*
G01*
X159812000Y-76618300D01*
X159815000Y-76619300D01*
X159817000Y-76619300D01*
X159820000Y-76620300D01*
X159822000Y-76621300D01*
X159825000Y-76622300D01*
X159827000Y-76624300D01*
X159829000Y-76625300D01*
X159831000Y-76627300D01*
X159833000Y-76628300D01*
X159835000Y-76630300D01*
X159837000Y-76632300D01*
X159839000Y-76634300D01*
X159841000Y-76636300D01*
X159842000Y-76638300D01*
X159844000Y-76640300D01*
X159845000Y-76642300D01*
X159847000Y-76644300D01*
X159848000Y-76647300D01*
X159849000Y-76649300D01*
X159850000Y-76652300D01*
X159850000Y-76654300D01*
X159851000Y-76657300D01*
X159851000Y-76659300D01*
X159852000Y-76662300D01*
X159852000Y-76664300D01*
X159852000Y-76667300D01*
X159852000Y-77467300D01*
X159852000Y-77470300D01*
X159852000Y-77472300D01*
X159851000Y-77475300D01*
X159851000Y-77477300D01*
X159850000Y-77480300D01*
X159850000Y-77482300D01*
X159849000Y-77485300D01*
X159848000Y-77487300D01*
X159847000Y-77490300D01*
X159845000Y-77492300D01*
X159844000Y-77494300D01*
X159842000Y-77496300D01*
X159841000Y-77498300D01*
X159839000Y-77500300D01*
X159837000Y-77502300D01*
X159835000Y-77504300D01*
X159833000Y-77506300D01*
X159831000Y-77507300D01*
X159829000Y-77509300D01*
X159827000Y-77510300D01*
X159825000Y-77512300D01*
X159822000Y-77513300D01*
X159820000Y-77514300D01*
X159817000Y-77515300D01*
X159815000Y-77515300D01*
X159812000Y-77516300D01*
X159810000Y-77516300D01*
X159807000Y-77517300D01*
X159805000Y-77517300D01*
X159802000Y-77517300D01*
X159202000Y-77517300D01*
X159199000Y-77517300D01*
X159197000Y-77517300D01*
X159194000Y-77516300D01*
X159192000Y-77516300D01*
X159189000Y-77515300D01*
X159187000Y-77515300D01*
X159184000Y-77514300D01*
X159182000Y-77513300D01*
X159179000Y-77512300D01*
X159177000Y-77510300D01*
X159175000Y-77509300D01*
X159173000Y-77507300D01*
X159171000Y-77506300D01*
X159169000Y-77504300D01*
X159167000Y-77502300D01*
X159165000Y-77500300D01*
X159163000Y-77498300D01*
X159162000Y-77496300D01*
X159160000Y-77494300D01*
X159159000Y-77492300D01*
X159157000Y-77490300D01*
X159156000Y-77487300D01*
X159155000Y-77485300D01*
X159154000Y-77482300D01*
X159154000Y-77480300D01*
X159153000Y-77477300D01*
X159153000Y-77475300D01*
X159152000Y-77472300D01*
X159152000Y-77470300D01*
X159152000Y-77467300D01*
X159152000Y-76667300D01*
X159152000Y-76664300D01*
X159152000Y-76662300D01*
X159153000Y-76659300D01*
X159153000Y-76657300D01*
X159154000Y-76654300D01*
X159154000Y-76652300D01*
X159155000Y-76649300D01*
X159156000Y-76647300D01*
X159157000Y-76644300D01*
X159159000Y-76642300D01*
X159160000Y-76640300D01*
X159162000Y-76638300D01*
X159163000Y-76636300D01*
X159165000Y-76634300D01*
X159167000Y-76632300D01*
X159169000Y-76630300D01*
X159171000Y-76628300D01*
X159173000Y-76627300D01*
X159175000Y-76625300D01*
X159177000Y-76624300D01*
X159179000Y-76622300D01*
X159182000Y-76621300D01*
X159184000Y-76620300D01*
X159187000Y-76619300D01*
X159189000Y-76619300D01*
X159192000Y-76618300D01*
X159194000Y-76618300D01*
X159197000Y-76617300D01*
X159199000Y-76617300D01*
X159202000Y-76617300D01*
X159802000Y-76617300D01*
X159805000Y-76617300D01*
X159807000Y-76617300D01*
X159810000Y-76618300D01*
G37*
X146082500Y-68570800D02*
X146084500Y-68570800D01*
X146087500Y-68571800D01*
X146089500Y-68571800D01*
X146092500Y-68572800D01*
X146094500Y-68573800D01*
X146097500Y-68574800D01*
X146099500Y-68576800D01*
X146101500Y-68577800D01*
X146103500Y-68579800D01*
X146105500Y-68580800D01*
X146107500Y-68582800D01*
X146109500Y-68584800D01*
X146111500Y-68586800D01*
X146113500Y-68588800D01*
X146114500Y-68590800D01*
X146116500Y-68592800D01*
X146117500Y-68594800D01*
X146119500Y-68596800D01*
X146120500Y-68599800D01*
X146121500Y-68601800D01*
X146122500Y-68604800D01*
X146122500Y-68606800D01*
X146123500Y-68609800D01*
X146123500Y-68611800D01*
X146124500Y-68614800D01*
X146124500Y-68616800D01*
X146124500Y-68619800D01*
X146124500Y-69219800D01*
X146124500Y-69222800D01*
X146124500Y-69224800D01*
X146123500Y-69227800D01*
X146123500Y-69229800D01*
X146122500Y-69232800D01*
X146122500Y-69234800D01*
X146121500Y-69237800D01*
X146120500Y-69239800D01*
X146119500Y-69242800D01*
X146117500Y-69244800D01*
X146116500Y-69246800D01*
X146114500Y-69248800D01*
X146113500Y-69250800D01*
X146111500Y-69252800D01*
X146109500Y-69254800D01*
X146107500Y-69256800D01*
X146105500Y-69258800D01*
X146103500Y-69259800D01*
X146101500Y-69261800D01*
X146099500Y-69262800D01*
X146097500Y-69264800D01*
X146094500Y-69265800D01*
X146092500Y-69266800D01*
X146089500Y-69267800D01*
X146087500Y-69267800D01*
X146084500Y-69268800D01*
X146082500Y-69268800D01*
X146079500Y-69269800D01*
X146077500Y-69269800D01*
X146074500Y-69269800D01*
X145274500Y-69269800D01*
X145271500Y-69269800D01*
X145269500Y-69269800D01*
X145266500Y-69268800D01*
X145264500Y-69268800D01*
X145261500Y-69267800D01*
X145259500Y-69267800D01*
X145256500Y-69266800D01*
X145254500Y-69265800D01*
X145251500Y-69264800D01*
X145249500Y-69262800D01*
X145247500Y-69261800D01*
X145245500Y-69259800D01*
X145243500Y-69258800D01*
X145241500Y-69256800D01*
X145239500Y-69254800D01*
X145237500Y-69252800D01*
X145235500Y-69250800D01*
X145234500Y-69248800D01*
X145232500Y-69246800D01*
X145231500Y-69244800D01*
X145229500Y-69242800D01*
X145228500Y-69239800D01*
X145227500Y-69237800D01*
X145226500Y-69234800D01*
X145226500Y-69232800D01*
X145225500Y-69229800D01*
X145225500Y-69227800D01*
X145224500Y-69224800D01*
X145224500Y-69222800D01*
X145224500Y-69219800D01*
X145224500Y-68619800D01*
X145224500Y-68616800D01*
X145224500Y-68614800D01*
X145225500Y-68611800D01*
X145225500Y-68609800D01*
X145226500Y-68606800D01*
X145226500Y-68604800D01*
X145227500Y-68601800D01*
X145228500Y-68599800D01*
X145229500Y-68596800D01*
X145231500Y-68594800D01*
X145232500Y-68592800D01*
X145234500Y-68590800D01*
X145235500Y-68588800D01*
X145237500Y-68586800D01*
X145239500Y-68584800D01*
X145241500Y-68582800D01*
X145243500Y-68580800D01*
X145245500Y-68579800D01*
X145247500Y-68577800D01*
X145249500Y-68576800D01*
X145251500Y-68574800D01*
X145254500Y-68573800D01*
X145256500Y-68572800D01*
X145259500Y-68571800D01*
X145261500Y-68571800D01*
X145264500Y-68570800D01*
X145266500Y-68570800D01*
X145269500Y-68569800D01*
X145271500Y-68569800D01*
X145274500Y-68569800D01*
X146074500Y-68569800D01*
X146077500Y-68569800D01*
X146079500Y-68569800D01*
X146082500Y-68570800D01*
G36*
X146082500Y-68570800D02*
G01*
X146084500Y-68570800D01*
X146087500Y-68571800D01*
X146089500Y-68571800D01*
X146092500Y-68572800D01*
X146094500Y-68573800D01*
X146097500Y-68574800D01*
X146099500Y-68576800D01*
X146101500Y-68577800D01*
X146103500Y-68579800D01*
X146105500Y-68580800D01*
X146107500Y-68582800D01*
X146109500Y-68584800D01*
X146111500Y-68586800D01*
X146113500Y-68588800D01*
X146114500Y-68590800D01*
X146116500Y-68592800D01*
X146117500Y-68594800D01*
X146119500Y-68596800D01*
X146120500Y-68599800D01*
X146121500Y-68601800D01*
X146122500Y-68604800D01*
X146122500Y-68606800D01*
X146123500Y-68609800D01*
X146123500Y-68611800D01*
X146124500Y-68614800D01*
X146124500Y-68616800D01*
X146124500Y-68619800D01*
X146124500Y-69219800D01*
X146124500Y-69222800D01*
X146124500Y-69224800D01*
X146123500Y-69227800D01*
X146123500Y-69229800D01*
X146122500Y-69232800D01*
X146122500Y-69234800D01*
X146121500Y-69237800D01*
X146120500Y-69239800D01*
X146119500Y-69242800D01*
X146117500Y-69244800D01*
X146116500Y-69246800D01*
X146114500Y-69248800D01*
X146113500Y-69250800D01*
X146111500Y-69252800D01*
X146109500Y-69254800D01*
X146107500Y-69256800D01*
X146105500Y-69258800D01*
X146103500Y-69259800D01*
X146101500Y-69261800D01*
X146099500Y-69262800D01*
X146097500Y-69264800D01*
X146094500Y-69265800D01*
X146092500Y-69266800D01*
X146089500Y-69267800D01*
X146087500Y-69267800D01*
X146084500Y-69268800D01*
X146082500Y-69268800D01*
X146079500Y-69269800D01*
X146077500Y-69269800D01*
X146074500Y-69269800D01*
X145274500Y-69269800D01*
X145271500Y-69269800D01*
X145269500Y-69269800D01*
X145266500Y-69268800D01*
X145264500Y-69268800D01*
X145261500Y-69267800D01*
X145259500Y-69267800D01*
X145256500Y-69266800D01*
X145254500Y-69265800D01*
X145251500Y-69264800D01*
X145249500Y-69262800D01*
X145247500Y-69261800D01*
X145245500Y-69259800D01*
X145243500Y-69258800D01*
X145241500Y-69256800D01*
X145239500Y-69254800D01*
X145237500Y-69252800D01*
X145235500Y-69250800D01*
X145234500Y-69248800D01*
X145232500Y-69246800D01*
X145231500Y-69244800D01*
X145229500Y-69242800D01*
X145228500Y-69239800D01*
X145227500Y-69237800D01*
X145226500Y-69234800D01*
X145226500Y-69232800D01*
X145225500Y-69229800D01*
X145225500Y-69227800D01*
X145224500Y-69224800D01*
X145224500Y-69222800D01*
X145224500Y-69219800D01*
X145224500Y-68619800D01*
X145224500Y-68616800D01*
X145224500Y-68614800D01*
X145225500Y-68611800D01*
X145225500Y-68609800D01*
X145226500Y-68606800D01*
X145226500Y-68604800D01*
X145227500Y-68601800D01*
X145228500Y-68599800D01*
X145229500Y-68596800D01*
X145231500Y-68594800D01*
X145232500Y-68592800D01*
X145234500Y-68590800D01*
X145235500Y-68588800D01*
X145237500Y-68586800D01*
X145239500Y-68584800D01*
X145241500Y-68582800D01*
X145243500Y-68580800D01*
X145245500Y-68579800D01*
X145247500Y-68577800D01*
X145249500Y-68576800D01*
X145251500Y-68574800D01*
X145254500Y-68573800D01*
X145256500Y-68572800D01*
X145259500Y-68571800D01*
X145261500Y-68571800D01*
X145264500Y-68570800D01*
X145266500Y-68570800D01*
X145269500Y-68569800D01*
X145271500Y-68569800D01*
X145274500Y-68569800D01*
X146074500Y-68569800D01*
X146077500Y-68569800D01*
X146079500Y-68569800D01*
X146082500Y-68570800D01*
G37*
X146082500Y-69470800D02*
X146084500Y-69470800D01*
X146087500Y-69471800D01*
X146089500Y-69471800D01*
X146092500Y-69472800D01*
X146094500Y-69473800D01*
X146097500Y-69474800D01*
X146099500Y-69476800D01*
X146101500Y-69477800D01*
X146103500Y-69479800D01*
X146105500Y-69480800D01*
X146107500Y-69482800D01*
X146109500Y-69484800D01*
X146111500Y-69486800D01*
X146113500Y-69488800D01*
X146114500Y-69490800D01*
X146116500Y-69492800D01*
X146117500Y-69494800D01*
X146119500Y-69496800D01*
X146120500Y-69499800D01*
X146121500Y-69501800D01*
X146122500Y-69504800D01*
X146122500Y-69506800D01*
X146123500Y-69509800D01*
X146123500Y-69511800D01*
X146124500Y-69514800D01*
X146124500Y-69516800D01*
X146124500Y-69519800D01*
X146124500Y-70119800D01*
X146124500Y-70122800D01*
X146124500Y-70124800D01*
X146123500Y-70127800D01*
X146123500Y-70129800D01*
X146122500Y-70132800D01*
X146122500Y-70134800D01*
X146121500Y-70137800D01*
X146120500Y-70139800D01*
X146119500Y-70142800D01*
X146117500Y-70144800D01*
X146116500Y-70146800D01*
X146114500Y-70148800D01*
X146113500Y-70150800D01*
X146111500Y-70152800D01*
X146109500Y-70154800D01*
X146107500Y-70156800D01*
X146105500Y-70158800D01*
X146103500Y-70159800D01*
X146101500Y-70161800D01*
X146099500Y-70162800D01*
X146097500Y-70164800D01*
X146094500Y-70165800D01*
X146092500Y-70166800D01*
X146089500Y-70167800D01*
X146087500Y-70167800D01*
X146084500Y-70168800D01*
X146082500Y-70168800D01*
X146079500Y-70169800D01*
X146077500Y-70169800D01*
X146074500Y-70169800D01*
X145274500Y-70169800D01*
X145271500Y-70169800D01*
X145269500Y-70169800D01*
X145266500Y-70168800D01*
X145264500Y-70168800D01*
X145261500Y-70167800D01*
X145259500Y-70167800D01*
X145256500Y-70166800D01*
X145254500Y-70165800D01*
X145251500Y-70164800D01*
X145249500Y-70162800D01*
X145247500Y-70161800D01*
X145245500Y-70159800D01*
X145243500Y-70158800D01*
X145241500Y-70156800D01*
X145239500Y-70154800D01*
X145237500Y-70152800D01*
X145235500Y-70150800D01*
X145234500Y-70148800D01*
X145232500Y-70146800D01*
X145231500Y-70144800D01*
X145229500Y-70142800D01*
X145228500Y-70139800D01*
X145227500Y-70137800D01*
X145226500Y-70134800D01*
X145226500Y-70132800D01*
X145225500Y-70129800D01*
X145225500Y-70127800D01*
X145224500Y-70124800D01*
X145224500Y-70122800D01*
X145224500Y-70119800D01*
X145224500Y-69519800D01*
X145224500Y-69516800D01*
X145224500Y-69514800D01*
X145225500Y-69511800D01*
X145225500Y-69509800D01*
X145226500Y-69506800D01*
X145226500Y-69504800D01*
X145227500Y-69501800D01*
X145228500Y-69499800D01*
X145229500Y-69496800D01*
X145231500Y-69494800D01*
X145232500Y-69492800D01*
X145234500Y-69490800D01*
X145235500Y-69488800D01*
X145237500Y-69486800D01*
X145239500Y-69484800D01*
X145241500Y-69482800D01*
X145243500Y-69480800D01*
X145245500Y-69479800D01*
X145247500Y-69477800D01*
X145249500Y-69476800D01*
X145251500Y-69474800D01*
X145254500Y-69473800D01*
X145256500Y-69472800D01*
X145259500Y-69471800D01*
X145261500Y-69471800D01*
X145264500Y-69470800D01*
X145266500Y-69470800D01*
X145269500Y-69469800D01*
X145271500Y-69469800D01*
X145274500Y-69469800D01*
X146074500Y-69469800D01*
X146077500Y-69469800D01*
X146079500Y-69469800D01*
X146082500Y-69470800D01*
G36*
X146082500Y-69470800D02*
G01*
X146084500Y-69470800D01*
X146087500Y-69471800D01*
X146089500Y-69471800D01*
X146092500Y-69472800D01*
X146094500Y-69473800D01*
X146097500Y-69474800D01*
X146099500Y-69476800D01*
X146101500Y-69477800D01*
X146103500Y-69479800D01*
X146105500Y-69480800D01*
X146107500Y-69482800D01*
X146109500Y-69484800D01*
X146111500Y-69486800D01*
X146113500Y-69488800D01*
X146114500Y-69490800D01*
X146116500Y-69492800D01*
X146117500Y-69494800D01*
X146119500Y-69496800D01*
X146120500Y-69499800D01*
X146121500Y-69501800D01*
X146122500Y-69504800D01*
X146122500Y-69506800D01*
X146123500Y-69509800D01*
X146123500Y-69511800D01*
X146124500Y-69514800D01*
X146124500Y-69516800D01*
X146124500Y-69519800D01*
X146124500Y-70119800D01*
X146124500Y-70122800D01*
X146124500Y-70124800D01*
X146123500Y-70127800D01*
X146123500Y-70129800D01*
X146122500Y-70132800D01*
X146122500Y-70134800D01*
X146121500Y-70137800D01*
X146120500Y-70139800D01*
X146119500Y-70142800D01*
X146117500Y-70144800D01*
X146116500Y-70146800D01*
X146114500Y-70148800D01*
X146113500Y-70150800D01*
X146111500Y-70152800D01*
X146109500Y-70154800D01*
X146107500Y-70156800D01*
X146105500Y-70158800D01*
X146103500Y-70159800D01*
X146101500Y-70161800D01*
X146099500Y-70162800D01*
X146097500Y-70164800D01*
X146094500Y-70165800D01*
X146092500Y-70166800D01*
X146089500Y-70167800D01*
X146087500Y-70167800D01*
X146084500Y-70168800D01*
X146082500Y-70168800D01*
X146079500Y-70169800D01*
X146077500Y-70169800D01*
X146074500Y-70169800D01*
X145274500Y-70169800D01*
X145271500Y-70169800D01*
X145269500Y-70169800D01*
X145266500Y-70168800D01*
X145264500Y-70168800D01*
X145261500Y-70167800D01*
X145259500Y-70167800D01*
X145256500Y-70166800D01*
X145254500Y-70165800D01*
X145251500Y-70164800D01*
X145249500Y-70162800D01*
X145247500Y-70161800D01*
X145245500Y-70159800D01*
X145243500Y-70158800D01*
X145241500Y-70156800D01*
X145239500Y-70154800D01*
X145237500Y-70152800D01*
X145235500Y-70150800D01*
X145234500Y-70148800D01*
X145232500Y-70146800D01*
X145231500Y-70144800D01*
X145229500Y-70142800D01*
X145228500Y-70139800D01*
X145227500Y-70137800D01*
X145226500Y-70134800D01*
X145226500Y-70132800D01*
X145225500Y-70129800D01*
X145225500Y-70127800D01*
X145224500Y-70124800D01*
X145224500Y-70122800D01*
X145224500Y-70119800D01*
X145224500Y-69519800D01*
X145224500Y-69516800D01*
X145224500Y-69514800D01*
X145225500Y-69511800D01*
X145225500Y-69509800D01*
X145226500Y-69506800D01*
X145226500Y-69504800D01*
X145227500Y-69501800D01*
X145228500Y-69499800D01*
X145229500Y-69496800D01*
X145231500Y-69494800D01*
X145232500Y-69492800D01*
X145234500Y-69490800D01*
X145235500Y-69488800D01*
X145237500Y-69486800D01*
X145239500Y-69484800D01*
X145241500Y-69482800D01*
X145243500Y-69480800D01*
X145245500Y-69479800D01*
X145247500Y-69477800D01*
X145249500Y-69476800D01*
X145251500Y-69474800D01*
X145254500Y-69473800D01*
X145256500Y-69472800D01*
X145259500Y-69471800D01*
X145261500Y-69471800D01*
X145264500Y-69470800D01*
X145266500Y-69470800D01*
X145269500Y-69469800D01*
X145271500Y-69469800D01*
X145274500Y-69469800D01*
X146074500Y-69469800D01*
X146077500Y-69469800D01*
X146079500Y-69469800D01*
X146082500Y-69470800D01*
G37*
X120100000Y-92918300D02*
X120102000Y-92918300D01*
X120105000Y-92919300D01*
X120107000Y-92919300D01*
X120110000Y-92920300D01*
X120112000Y-92921300D01*
X120115000Y-92922300D01*
X120117000Y-92924300D01*
X120119000Y-92925300D01*
X120121000Y-92927300D01*
X120123000Y-92928300D01*
X120125000Y-92930300D01*
X120127000Y-92932300D01*
X120129000Y-92934300D01*
X120131000Y-92936300D01*
X120132000Y-92938300D01*
X120134000Y-92940300D01*
X120135000Y-92942300D01*
X120137000Y-92944300D01*
X120138000Y-92947300D01*
X120139000Y-92949300D01*
X120140000Y-92952300D01*
X120140000Y-92954300D01*
X120141000Y-92957300D01*
X120141000Y-92959300D01*
X120142000Y-92962300D01*
X120142000Y-92964300D01*
X120142000Y-92967300D01*
X120142000Y-93767300D01*
X120142000Y-93770300D01*
X120142000Y-93772300D01*
X120141000Y-93775300D01*
X120141000Y-93777300D01*
X120140000Y-93780300D01*
X120140000Y-93782300D01*
X120139000Y-93785300D01*
X120138000Y-93787300D01*
X120137000Y-93790300D01*
X120135000Y-93792300D01*
X120134000Y-93794300D01*
X120132000Y-93796300D01*
X120131000Y-93798300D01*
X120129000Y-93800300D01*
X120127000Y-93802300D01*
X120125000Y-93804300D01*
X120123000Y-93806300D01*
X120121000Y-93807300D01*
X120119000Y-93809300D01*
X120117000Y-93810300D01*
X120115000Y-93812300D01*
X120112000Y-93813300D01*
X120110000Y-93814300D01*
X120107000Y-93815300D01*
X120105000Y-93815300D01*
X120102000Y-93816300D01*
X120100000Y-93816300D01*
X120097000Y-93817300D01*
X120095000Y-93817300D01*
X120092000Y-93817300D01*
X119492000Y-93817300D01*
X119489000Y-93817300D01*
X119487000Y-93817300D01*
X119484000Y-93816300D01*
X119482000Y-93816300D01*
X119479000Y-93815300D01*
X119477000Y-93815300D01*
X119474000Y-93814300D01*
X119472000Y-93813300D01*
X119469000Y-93812300D01*
X119467000Y-93810300D01*
X119465000Y-93809300D01*
X119463000Y-93807300D01*
X119461000Y-93806300D01*
X119459000Y-93804300D01*
X119457000Y-93802300D01*
X119455000Y-93800300D01*
X119453000Y-93798300D01*
X119452000Y-93796300D01*
X119450000Y-93794300D01*
X119449000Y-93792300D01*
X119447000Y-93790300D01*
X119446000Y-93787300D01*
X119445000Y-93785300D01*
X119444000Y-93782300D01*
X119444000Y-93780300D01*
X119443000Y-93777300D01*
X119443000Y-93775300D01*
X119442000Y-93772300D01*
X119442000Y-93770300D01*
X119442000Y-93767300D01*
X119442000Y-92967300D01*
X119442000Y-92964300D01*
X119442000Y-92962300D01*
X119443000Y-92959300D01*
X119443000Y-92957300D01*
X119444000Y-92954300D01*
X119444000Y-92952300D01*
X119445000Y-92949300D01*
X119446000Y-92947300D01*
X119447000Y-92944300D01*
X119449000Y-92942300D01*
X119450000Y-92940300D01*
X119452000Y-92938300D01*
X119453000Y-92936300D01*
X119455000Y-92934300D01*
X119457000Y-92932300D01*
X119459000Y-92930300D01*
X119461000Y-92928300D01*
X119463000Y-92927300D01*
X119465000Y-92925300D01*
X119467000Y-92924300D01*
X119469000Y-92922300D01*
X119472000Y-92921300D01*
X119474000Y-92920300D01*
X119477000Y-92919300D01*
X119479000Y-92919300D01*
X119482000Y-92918300D01*
X119484000Y-92918300D01*
X119487000Y-92917300D01*
X119489000Y-92917300D01*
X119492000Y-92917300D01*
X120092000Y-92917300D01*
X120095000Y-92917300D01*
X120097000Y-92917300D01*
X120100000Y-92918300D01*
G36*
X120100000Y-92918300D02*
G01*
X120102000Y-92918300D01*
X120105000Y-92919300D01*
X120107000Y-92919300D01*
X120110000Y-92920300D01*
X120112000Y-92921300D01*
X120115000Y-92922300D01*
X120117000Y-92924300D01*
X120119000Y-92925300D01*
X120121000Y-92927300D01*
X120123000Y-92928300D01*
X120125000Y-92930300D01*
X120127000Y-92932300D01*
X120129000Y-92934300D01*
X120131000Y-92936300D01*
X120132000Y-92938300D01*
X120134000Y-92940300D01*
X120135000Y-92942300D01*
X120137000Y-92944300D01*
X120138000Y-92947300D01*
X120139000Y-92949300D01*
X120140000Y-92952300D01*
X120140000Y-92954300D01*
X120141000Y-92957300D01*
X120141000Y-92959300D01*
X120142000Y-92962300D01*
X120142000Y-92964300D01*
X120142000Y-92967300D01*
X120142000Y-93767300D01*
X120142000Y-93770300D01*
X120142000Y-93772300D01*
X120141000Y-93775300D01*
X120141000Y-93777300D01*
X120140000Y-93780300D01*
X120140000Y-93782300D01*
X120139000Y-93785300D01*
X120138000Y-93787300D01*
X120137000Y-93790300D01*
X120135000Y-93792300D01*
X120134000Y-93794300D01*
X120132000Y-93796300D01*
X120131000Y-93798300D01*
X120129000Y-93800300D01*
X120127000Y-93802300D01*
X120125000Y-93804300D01*
X120123000Y-93806300D01*
X120121000Y-93807300D01*
X120119000Y-93809300D01*
X120117000Y-93810300D01*
X120115000Y-93812300D01*
X120112000Y-93813300D01*
X120110000Y-93814300D01*
X120107000Y-93815300D01*
X120105000Y-93815300D01*
X120102000Y-93816300D01*
X120100000Y-93816300D01*
X120097000Y-93817300D01*
X120095000Y-93817300D01*
X120092000Y-93817300D01*
X119492000Y-93817300D01*
X119489000Y-93817300D01*
X119487000Y-93817300D01*
X119484000Y-93816300D01*
X119482000Y-93816300D01*
X119479000Y-93815300D01*
X119477000Y-93815300D01*
X119474000Y-93814300D01*
X119472000Y-93813300D01*
X119469000Y-93812300D01*
X119467000Y-93810300D01*
X119465000Y-93809300D01*
X119463000Y-93807300D01*
X119461000Y-93806300D01*
X119459000Y-93804300D01*
X119457000Y-93802300D01*
X119455000Y-93800300D01*
X119453000Y-93798300D01*
X119452000Y-93796300D01*
X119450000Y-93794300D01*
X119449000Y-93792300D01*
X119447000Y-93790300D01*
X119446000Y-93787300D01*
X119445000Y-93785300D01*
X119444000Y-93782300D01*
X119444000Y-93780300D01*
X119443000Y-93777300D01*
X119443000Y-93775300D01*
X119442000Y-93772300D01*
X119442000Y-93770300D01*
X119442000Y-93767300D01*
X119442000Y-92967300D01*
X119442000Y-92964300D01*
X119442000Y-92962300D01*
X119443000Y-92959300D01*
X119443000Y-92957300D01*
X119444000Y-92954300D01*
X119444000Y-92952300D01*
X119445000Y-92949300D01*
X119446000Y-92947300D01*
X119447000Y-92944300D01*
X119449000Y-92942300D01*
X119450000Y-92940300D01*
X119452000Y-92938300D01*
X119453000Y-92936300D01*
X119455000Y-92934300D01*
X119457000Y-92932300D01*
X119459000Y-92930300D01*
X119461000Y-92928300D01*
X119463000Y-92927300D01*
X119465000Y-92925300D01*
X119467000Y-92924300D01*
X119469000Y-92922300D01*
X119472000Y-92921300D01*
X119474000Y-92920300D01*
X119477000Y-92919300D01*
X119479000Y-92919300D01*
X119482000Y-92918300D01*
X119484000Y-92918300D01*
X119487000Y-92917300D01*
X119489000Y-92917300D01*
X119492000Y-92917300D01*
X120092000Y-92917300D01*
X120095000Y-92917300D01*
X120097000Y-92917300D01*
X120100000Y-92918300D01*
G37*
X121000000Y-92918300D02*
X121002000Y-92918300D01*
X121005000Y-92919300D01*
X121007000Y-92919300D01*
X121010000Y-92920300D01*
X121012000Y-92921300D01*
X121015000Y-92922300D01*
X121017000Y-92924300D01*
X121019000Y-92925300D01*
X121021000Y-92927300D01*
X121023000Y-92928300D01*
X121025000Y-92930300D01*
X121027000Y-92932300D01*
X121029000Y-92934300D01*
X121031000Y-92936300D01*
X121032000Y-92938300D01*
X121034000Y-92940300D01*
X121035000Y-92942300D01*
X121037000Y-92944300D01*
X121038000Y-92947300D01*
X121039000Y-92949300D01*
X121040000Y-92952300D01*
X121040000Y-92954300D01*
X121041000Y-92957300D01*
X121041000Y-92959300D01*
X121042000Y-92962300D01*
X121042000Y-92964300D01*
X121042000Y-92967300D01*
X121042000Y-93767300D01*
X121042000Y-93770300D01*
X121042000Y-93772300D01*
X121041000Y-93775300D01*
X121041000Y-93777300D01*
X121040000Y-93780300D01*
X121040000Y-93782300D01*
X121039000Y-93785300D01*
X121038000Y-93787300D01*
X121037000Y-93790300D01*
X121035000Y-93792300D01*
X121034000Y-93794300D01*
X121032000Y-93796300D01*
X121031000Y-93798300D01*
X121029000Y-93800300D01*
X121027000Y-93802300D01*
X121025000Y-93804300D01*
X121023000Y-93806300D01*
X121021000Y-93807300D01*
X121019000Y-93809300D01*
X121017000Y-93810300D01*
X121015000Y-93812300D01*
X121012000Y-93813300D01*
X121010000Y-93814300D01*
X121007000Y-93815300D01*
X121005000Y-93815300D01*
X121002000Y-93816300D01*
X121000000Y-93816300D01*
X120997000Y-93817300D01*
X120995000Y-93817300D01*
X120992000Y-93817300D01*
X120392000Y-93817300D01*
X120389000Y-93817300D01*
X120387000Y-93817300D01*
X120384000Y-93816300D01*
X120382000Y-93816300D01*
X120379000Y-93815300D01*
X120377000Y-93815300D01*
X120374000Y-93814300D01*
X120372000Y-93813300D01*
X120369000Y-93812300D01*
X120367000Y-93810300D01*
X120365000Y-93809300D01*
X120363000Y-93807300D01*
X120361000Y-93806300D01*
X120359000Y-93804300D01*
X120357000Y-93802300D01*
X120355000Y-93800300D01*
X120353000Y-93798300D01*
X120352000Y-93796300D01*
X120350000Y-93794300D01*
X120349000Y-93792300D01*
X120347000Y-93790300D01*
X120346000Y-93787300D01*
X120345000Y-93785300D01*
X120344000Y-93782300D01*
X120344000Y-93780300D01*
X120343000Y-93777300D01*
X120343000Y-93775300D01*
X120342000Y-93772300D01*
X120342000Y-93770300D01*
X120342000Y-93767300D01*
X120342000Y-92967300D01*
X120342000Y-92964300D01*
X120342000Y-92962300D01*
X120343000Y-92959300D01*
X120343000Y-92957300D01*
X120344000Y-92954300D01*
X120344000Y-92952300D01*
X120345000Y-92949300D01*
X120346000Y-92947300D01*
X120347000Y-92944300D01*
X120349000Y-92942300D01*
X120350000Y-92940300D01*
X120352000Y-92938300D01*
X120353000Y-92936300D01*
X120355000Y-92934300D01*
X120357000Y-92932300D01*
X120359000Y-92930300D01*
X120361000Y-92928300D01*
X120363000Y-92927300D01*
X120365000Y-92925300D01*
X120367000Y-92924300D01*
X120369000Y-92922300D01*
X120372000Y-92921300D01*
X120374000Y-92920300D01*
X120377000Y-92919300D01*
X120379000Y-92919300D01*
X120382000Y-92918300D01*
X120384000Y-92918300D01*
X120387000Y-92917300D01*
X120389000Y-92917300D01*
X120392000Y-92917300D01*
X120992000Y-92917300D01*
X120995000Y-92917300D01*
X120997000Y-92917300D01*
X121000000Y-92918300D01*
G36*
X121000000Y-92918300D02*
G01*
X121002000Y-92918300D01*
X121005000Y-92919300D01*
X121007000Y-92919300D01*
X121010000Y-92920300D01*
X121012000Y-92921300D01*
X121015000Y-92922300D01*
X121017000Y-92924300D01*
X121019000Y-92925300D01*
X121021000Y-92927300D01*
X121023000Y-92928300D01*
X121025000Y-92930300D01*
X121027000Y-92932300D01*
X121029000Y-92934300D01*
X121031000Y-92936300D01*
X121032000Y-92938300D01*
X121034000Y-92940300D01*
X121035000Y-92942300D01*
X121037000Y-92944300D01*
X121038000Y-92947300D01*
X121039000Y-92949300D01*
X121040000Y-92952300D01*
X121040000Y-92954300D01*
X121041000Y-92957300D01*
X121041000Y-92959300D01*
X121042000Y-92962300D01*
X121042000Y-92964300D01*
X121042000Y-92967300D01*
X121042000Y-93767300D01*
X121042000Y-93770300D01*
X121042000Y-93772300D01*
X121041000Y-93775300D01*
X121041000Y-93777300D01*
X121040000Y-93780300D01*
X121040000Y-93782300D01*
X121039000Y-93785300D01*
X121038000Y-93787300D01*
X121037000Y-93790300D01*
X121035000Y-93792300D01*
X121034000Y-93794300D01*
X121032000Y-93796300D01*
X121031000Y-93798300D01*
X121029000Y-93800300D01*
X121027000Y-93802300D01*
X121025000Y-93804300D01*
X121023000Y-93806300D01*
X121021000Y-93807300D01*
X121019000Y-93809300D01*
X121017000Y-93810300D01*
X121015000Y-93812300D01*
X121012000Y-93813300D01*
X121010000Y-93814300D01*
X121007000Y-93815300D01*
X121005000Y-93815300D01*
X121002000Y-93816300D01*
X121000000Y-93816300D01*
X120997000Y-93817300D01*
X120995000Y-93817300D01*
X120992000Y-93817300D01*
X120392000Y-93817300D01*
X120389000Y-93817300D01*
X120387000Y-93817300D01*
X120384000Y-93816300D01*
X120382000Y-93816300D01*
X120379000Y-93815300D01*
X120377000Y-93815300D01*
X120374000Y-93814300D01*
X120372000Y-93813300D01*
X120369000Y-93812300D01*
X120367000Y-93810300D01*
X120365000Y-93809300D01*
X120363000Y-93807300D01*
X120361000Y-93806300D01*
X120359000Y-93804300D01*
X120357000Y-93802300D01*
X120355000Y-93800300D01*
X120353000Y-93798300D01*
X120352000Y-93796300D01*
X120350000Y-93794300D01*
X120349000Y-93792300D01*
X120347000Y-93790300D01*
X120346000Y-93787300D01*
X120345000Y-93785300D01*
X120344000Y-93782300D01*
X120344000Y-93780300D01*
X120343000Y-93777300D01*
X120343000Y-93775300D01*
X120342000Y-93772300D01*
X120342000Y-93770300D01*
X120342000Y-93767300D01*
X120342000Y-92967300D01*
X120342000Y-92964300D01*
X120342000Y-92962300D01*
X120343000Y-92959300D01*
X120343000Y-92957300D01*
X120344000Y-92954300D01*
X120344000Y-92952300D01*
X120345000Y-92949300D01*
X120346000Y-92947300D01*
X120347000Y-92944300D01*
X120349000Y-92942300D01*
X120350000Y-92940300D01*
X120352000Y-92938300D01*
X120353000Y-92936300D01*
X120355000Y-92934300D01*
X120357000Y-92932300D01*
X120359000Y-92930300D01*
X120361000Y-92928300D01*
X120363000Y-92927300D01*
X120365000Y-92925300D01*
X120367000Y-92924300D01*
X120369000Y-92922300D01*
X120372000Y-92921300D01*
X120374000Y-92920300D01*
X120377000Y-92919300D01*
X120379000Y-92919300D01*
X120382000Y-92918300D01*
X120384000Y-92918300D01*
X120387000Y-92917300D01*
X120389000Y-92917300D01*
X120392000Y-92917300D01*
X120992000Y-92917300D01*
X120995000Y-92917300D01*
X120997000Y-92917300D01*
X121000000Y-92918300D01*
G37*
X151615000Y-89470800D02*
X151617000Y-89470800D01*
X151620000Y-89471800D01*
X151622000Y-89471800D01*
X151625000Y-89472800D01*
X151627000Y-89473800D01*
X151630000Y-89474800D01*
X151632000Y-89476800D01*
X151634000Y-89477800D01*
X151636000Y-89479800D01*
X151638000Y-89480800D01*
X151640000Y-89482800D01*
X151642000Y-89484800D01*
X151644000Y-89486800D01*
X151646000Y-89488800D01*
X151647000Y-89490800D01*
X151649000Y-89492800D01*
X151650000Y-89494800D01*
X151652000Y-89496800D01*
X151653000Y-89499800D01*
X151654000Y-89501800D01*
X151655000Y-89504800D01*
X151655000Y-89506800D01*
X151656000Y-89509800D01*
X151656000Y-89511800D01*
X151657000Y-89514800D01*
X151657000Y-89516800D01*
X151657000Y-89519800D01*
X151657000Y-90919800D01*
X151657000Y-90922800D01*
X151657000Y-90924800D01*
X151656000Y-90927800D01*
X151656000Y-90929800D01*
X151655000Y-90932800D01*
X151655000Y-90934800D01*
X151654000Y-90937800D01*
X151653000Y-90939800D01*
X151652000Y-90942800D01*
X151650000Y-90944800D01*
X151649000Y-90946800D01*
X151647000Y-90948800D01*
X151646000Y-90950800D01*
X151644000Y-90952800D01*
X151642000Y-90954800D01*
X151640000Y-90956800D01*
X151638000Y-90958800D01*
X151636000Y-90959800D01*
X151634000Y-90961800D01*
X151632000Y-90962800D01*
X151630000Y-90964800D01*
X151627000Y-90965800D01*
X151625000Y-90966800D01*
X151622000Y-90967800D01*
X151620000Y-90967800D01*
X151617000Y-90968800D01*
X151615000Y-90968800D01*
X151612000Y-90969800D01*
X151610000Y-90969800D01*
X151607000Y-90969800D01*
X151257000Y-90969800D01*
X151254000Y-90969800D01*
X151252000Y-90969800D01*
X151249000Y-90968800D01*
X151247000Y-90968800D01*
X151244000Y-90967800D01*
X151242000Y-90967800D01*
X151239000Y-90966800D01*
X151237000Y-90965800D01*
X151234000Y-90964800D01*
X151232000Y-90962800D01*
X151230000Y-90961800D01*
X151228000Y-90959800D01*
X151226000Y-90958800D01*
X151224000Y-90956800D01*
X151222000Y-90954800D01*
X151220000Y-90952800D01*
X151218000Y-90950800D01*
X151217000Y-90948800D01*
X151215000Y-90946800D01*
X151214000Y-90944800D01*
X151212000Y-90942800D01*
X151211000Y-90939800D01*
X151210000Y-90937800D01*
X151209000Y-90934800D01*
X151209000Y-90932800D01*
X151208000Y-90929800D01*
X151208000Y-90927800D01*
X151207000Y-90924800D01*
X151207000Y-90922800D01*
X151207000Y-90919800D01*
X151207000Y-89519800D01*
X151207000Y-89516800D01*
X151207000Y-89514800D01*
X151208000Y-89511800D01*
X151208000Y-89509800D01*
X151209000Y-89506800D01*
X151209000Y-89504800D01*
X151210000Y-89501800D01*
X151211000Y-89499800D01*
X151212000Y-89496800D01*
X151214000Y-89494800D01*
X151215000Y-89492800D01*
X151217000Y-89490800D01*
X151218000Y-89488800D01*
X151220000Y-89486800D01*
X151222000Y-89484800D01*
X151224000Y-89482800D01*
X151226000Y-89480800D01*
X151228000Y-89479800D01*
X151230000Y-89477800D01*
X151232000Y-89476800D01*
X151234000Y-89474800D01*
X151237000Y-89473800D01*
X151239000Y-89472800D01*
X151242000Y-89471800D01*
X151244000Y-89471800D01*
X151247000Y-89470800D01*
X151249000Y-89470800D01*
X151252000Y-89469800D01*
X151254000Y-89469800D01*
X151257000Y-89469800D01*
X151607000Y-89469800D01*
X151610000Y-89469800D01*
X151612000Y-89469800D01*
X151615000Y-89470800D01*
G36*
X151615000Y-89470800D02*
G01*
X151617000Y-89470800D01*
X151620000Y-89471800D01*
X151622000Y-89471800D01*
X151625000Y-89472800D01*
X151627000Y-89473800D01*
X151630000Y-89474800D01*
X151632000Y-89476800D01*
X151634000Y-89477800D01*
X151636000Y-89479800D01*
X151638000Y-89480800D01*
X151640000Y-89482800D01*
X151642000Y-89484800D01*
X151644000Y-89486800D01*
X151646000Y-89488800D01*
X151647000Y-89490800D01*
X151649000Y-89492800D01*
X151650000Y-89494800D01*
X151652000Y-89496800D01*
X151653000Y-89499800D01*
X151654000Y-89501800D01*
X151655000Y-89504800D01*
X151655000Y-89506800D01*
X151656000Y-89509800D01*
X151656000Y-89511800D01*
X151657000Y-89514800D01*
X151657000Y-89516800D01*
X151657000Y-89519800D01*
X151657000Y-90919800D01*
X151657000Y-90922800D01*
X151657000Y-90924800D01*
X151656000Y-90927800D01*
X151656000Y-90929800D01*
X151655000Y-90932800D01*
X151655000Y-90934800D01*
X151654000Y-90937800D01*
X151653000Y-90939800D01*
X151652000Y-90942800D01*
X151650000Y-90944800D01*
X151649000Y-90946800D01*
X151647000Y-90948800D01*
X151646000Y-90950800D01*
X151644000Y-90952800D01*
X151642000Y-90954800D01*
X151640000Y-90956800D01*
X151638000Y-90958800D01*
X151636000Y-90959800D01*
X151634000Y-90961800D01*
X151632000Y-90962800D01*
X151630000Y-90964800D01*
X151627000Y-90965800D01*
X151625000Y-90966800D01*
X151622000Y-90967800D01*
X151620000Y-90967800D01*
X151617000Y-90968800D01*
X151615000Y-90968800D01*
X151612000Y-90969800D01*
X151610000Y-90969800D01*
X151607000Y-90969800D01*
X151257000Y-90969800D01*
X151254000Y-90969800D01*
X151252000Y-90969800D01*
X151249000Y-90968800D01*
X151247000Y-90968800D01*
X151244000Y-90967800D01*
X151242000Y-90967800D01*
X151239000Y-90966800D01*
X151237000Y-90965800D01*
X151234000Y-90964800D01*
X151232000Y-90962800D01*
X151230000Y-90961800D01*
X151228000Y-90959800D01*
X151226000Y-90958800D01*
X151224000Y-90956800D01*
X151222000Y-90954800D01*
X151220000Y-90952800D01*
X151218000Y-90950800D01*
X151217000Y-90948800D01*
X151215000Y-90946800D01*
X151214000Y-90944800D01*
X151212000Y-90942800D01*
X151211000Y-90939800D01*
X151210000Y-90937800D01*
X151209000Y-90934800D01*
X151209000Y-90932800D01*
X151208000Y-90929800D01*
X151208000Y-90927800D01*
X151207000Y-90924800D01*
X151207000Y-90922800D01*
X151207000Y-90919800D01*
X151207000Y-89519800D01*
X151207000Y-89516800D01*
X151207000Y-89514800D01*
X151208000Y-89511800D01*
X151208000Y-89509800D01*
X151209000Y-89506800D01*
X151209000Y-89504800D01*
X151210000Y-89501800D01*
X151211000Y-89499800D01*
X151212000Y-89496800D01*
X151214000Y-89494800D01*
X151215000Y-89492800D01*
X151217000Y-89490800D01*
X151218000Y-89488800D01*
X151220000Y-89486800D01*
X151222000Y-89484800D01*
X151224000Y-89482800D01*
X151226000Y-89480800D01*
X151228000Y-89479800D01*
X151230000Y-89477800D01*
X151232000Y-89476800D01*
X151234000Y-89474800D01*
X151237000Y-89473800D01*
X151239000Y-89472800D01*
X151242000Y-89471800D01*
X151244000Y-89471800D01*
X151247000Y-89470800D01*
X151249000Y-89470800D01*
X151252000Y-89469800D01*
X151254000Y-89469800D01*
X151257000Y-89469800D01*
X151607000Y-89469800D01*
X151610000Y-89469800D01*
X151612000Y-89469800D01*
X151615000Y-89470800D01*
G37*
X151615000Y-95270800D02*
X151617000Y-95270800D01*
X151620000Y-95271800D01*
X151622000Y-95271800D01*
X151625000Y-95272800D01*
X151627000Y-95273800D01*
X151630000Y-95274800D01*
X151632000Y-95276800D01*
X151634000Y-95277800D01*
X151636000Y-95279800D01*
X151638000Y-95280800D01*
X151640000Y-95282800D01*
X151642000Y-95284800D01*
X151644000Y-95286800D01*
X151646000Y-95288800D01*
X151647000Y-95290800D01*
X151649000Y-95292800D01*
X151650000Y-95294800D01*
X151652000Y-95296800D01*
X151653000Y-95299800D01*
X151654000Y-95301800D01*
X151655000Y-95304800D01*
X151655000Y-95306800D01*
X151656000Y-95309800D01*
X151656000Y-95311800D01*
X151657000Y-95314800D01*
X151657000Y-95316800D01*
X151657000Y-95319800D01*
X151657000Y-96719800D01*
X151657000Y-96722800D01*
X151657000Y-96724800D01*
X151656000Y-96727800D01*
X151656000Y-96729800D01*
X151655000Y-96732800D01*
X151655000Y-96734800D01*
X151654000Y-96737800D01*
X151653000Y-96739800D01*
X151652000Y-96742800D01*
X151650000Y-96744800D01*
X151649000Y-96746800D01*
X151647000Y-96748800D01*
X151646000Y-96750800D01*
X151644000Y-96752800D01*
X151642000Y-96754800D01*
X151640000Y-96756800D01*
X151638000Y-96758800D01*
X151636000Y-96759800D01*
X151634000Y-96761800D01*
X151632000Y-96762800D01*
X151630000Y-96764800D01*
X151627000Y-96765800D01*
X151625000Y-96766800D01*
X151622000Y-96767800D01*
X151620000Y-96767800D01*
X151617000Y-96768800D01*
X151615000Y-96768800D01*
X151612000Y-96769800D01*
X151610000Y-96769800D01*
X151607000Y-96769800D01*
X151257000Y-96769800D01*
X151254000Y-96769800D01*
X151252000Y-96769800D01*
X151249000Y-96768800D01*
X151247000Y-96768800D01*
X151244000Y-96767800D01*
X151242000Y-96767800D01*
X151239000Y-96766800D01*
X151237000Y-96765800D01*
X151234000Y-96764800D01*
X151232000Y-96762800D01*
X151230000Y-96761800D01*
X151228000Y-96759800D01*
X151226000Y-96758800D01*
X151224000Y-96756800D01*
X151222000Y-96754800D01*
X151220000Y-96752800D01*
X151218000Y-96750800D01*
X151217000Y-96748800D01*
X151215000Y-96746800D01*
X151214000Y-96744800D01*
X151212000Y-96742800D01*
X151211000Y-96739800D01*
X151210000Y-96737800D01*
X151209000Y-96734800D01*
X151209000Y-96732800D01*
X151208000Y-96729800D01*
X151208000Y-96727800D01*
X151207000Y-96724800D01*
X151207000Y-96722800D01*
X151207000Y-96719800D01*
X151207000Y-95319800D01*
X151207000Y-95316800D01*
X151207000Y-95314800D01*
X151208000Y-95311800D01*
X151208000Y-95309800D01*
X151209000Y-95306800D01*
X151209000Y-95304800D01*
X151210000Y-95301800D01*
X151211000Y-95299800D01*
X151212000Y-95296800D01*
X151214000Y-95294800D01*
X151215000Y-95292800D01*
X151217000Y-95290800D01*
X151218000Y-95288800D01*
X151220000Y-95286800D01*
X151222000Y-95284800D01*
X151224000Y-95282800D01*
X151226000Y-95280800D01*
X151228000Y-95279800D01*
X151230000Y-95277800D01*
X151232000Y-95276800D01*
X151234000Y-95274800D01*
X151237000Y-95273800D01*
X151239000Y-95272800D01*
X151242000Y-95271800D01*
X151244000Y-95271800D01*
X151247000Y-95270800D01*
X151249000Y-95270800D01*
X151252000Y-95269800D01*
X151254000Y-95269800D01*
X151257000Y-95269800D01*
X151607000Y-95269800D01*
X151610000Y-95269800D01*
X151612000Y-95269800D01*
X151615000Y-95270800D01*
G36*
X151615000Y-95270800D02*
G01*
X151617000Y-95270800D01*
X151620000Y-95271800D01*
X151622000Y-95271800D01*
X151625000Y-95272800D01*
X151627000Y-95273800D01*
X151630000Y-95274800D01*
X151632000Y-95276800D01*
X151634000Y-95277800D01*
X151636000Y-95279800D01*
X151638000Y-95280800D01*
X151640000Y-95282800D01*
X151642000Y-95284800D01*
X151644000Y-95286800D01*
X151646000Y-95288800D01*
X151647000Y-95290800D01*
X151649000Y-95292800D01*
X151650000Y-95294800D01*
X151652000Y-95296800D01*
X151653000Y-95299800D01*
X151654000Y-95301800D01*
X151655000Y-95304800D01*
X151655000Y-95306800D01*
X151656000Y-95309800D01*
X151656000Y-95311800D01*
X151657000Y-95314800D01*
X151657000Y-95316800D01*
X151657000Y-95319800D01*
X151657000Y-96719800D01*
X151657000Y-96722800D01*
X151657000Y-96724800D01*
X151656000Y-96727800D01*
X151656000Y-96729800D01*
X151655000Y-96732800D01*
X151655000Y-96734800D01*
X151654000Y-96737800D01*
X151653000Y-96739800D01*
X151652000Y-96742800D01*
X151650000Y-96744800D01*
X151649000Y-96746800D01*
X151647000Y-96748800D01*
X151646000Y-96750800D01*
X151644000Y-96752800D01*
X151642000Y-96754800D01*
X151640000Y-96756800D01*
X151638000Y-96758800D01*
X151636000Y-96759800D01*
X151634000Y-96761800D01*
X151632000Y-96762800D01*
X151630000Y-96764800D01*
X151627000Y-96765800D01*
X151625000Y-96766800D01*
X151622000Y-96767800D01*
X151620000Y-96767800D01*
X151617000Y-96768800D01*
X151615000Y-96768800D01*
X151612000Y-96769800D01*
X151610000Y-96769800D01*
X151607000Y-96769800D01*
X151257000Y-96769800D01*
X151254000Y-96769800D01*
X151252000Y-96769800D01*
X151249000Y-96768800D01*
X151247000Y-96768800D01*
X151244000Y-96767800D01*
X151242000Y-96767800D01*
X151239000Y-96766800D01*
X151237000Y-96765800D01*
X151234000Y-96764800D01*
X151232000Y-96762800D01*
X151230000Y-96761800D01*
X151228000Y-96759800D01*
X151226000Y-96758800D01*
X151224000Y-96756800D01*
X151222000Y-96754800D01*
X151220000Y-96752800D01*
X151218000Y-96750800D01*
X151217000Y-96748800D01*
X151215000Y-96746800D01*
X151214000Y-96744800D01*
X151212000Y-96742800D01*
X151211000Y-96739800D01*
X151210000Y-96737800D01*
X151209000Y-96734800D01*
X151209000Y-96732800D01*
X151208000Y-96729800D01*
X151208000Y-96727800D01*
X151207000Y-96724800D01*
X151207000Y-96722800D01*
X151207000Y-96719800D01*
X151207000Y-95319800D01*
X151207000Y-95316800D01*
X151207000Y-95314800D01*
X151208000Y-95311800D01*
X151208000Y-95309800D01*
X151209000Y-95306800D01*
X151209000Y-95304800D01*
X151210000Y-95301800D01*
X151211000Y-95299800D01*
X151212000Y-95296800D01*
X151214000Y-95294800D01*
X151215000Y-95292800D01*
X151217000Y-95290800D01*
X151218000Y-95288800D01*
X151220000Y-95286800D01*
X151222000Y-95284800D01*
X151224000Y-95282800D01*
X151226000Y-95280800D01*
X151228000Y-95279800D01*
X151230000Y-95277800D01*
X151232000Y-95276800D01*
X151234000Y-95274800D01*
X151237000Y-95273800D01*
X151239000Y-95272800D01*
X151242000Y-95271800D01*
X151244000Y-95271800D01*
X151247000Y-95270800D01*
X151249000Y-95270800D01*
X151252000Y-95269800D01*
X151254000Y-95269800D01*
X151257000Y-95269800D01*
X151607000Y-95269800D01*
X151610000Y-95269800D01*
X151612000Y-95269800D01*
X151615000Y-95270800D01*
G37*
X152265000Y-89470800D02*
X152267000Y-89470800D01*
X152270000Y-89471800D01*
X152272000Y-89471800D01*
X152275000Y-89472800D01*
X152277000Y-89473800D01*
X152280000Y-89474800D01*
X152282000Y-89476800D01*
X152284000Y-89477800D01*
X152286000Y-89479800D01*
X152288000Y-89480800D01*
X152290000Y-89482800D01*
X152292000Y-89484800D01*
X152294000Y-89486800D01*
X152296000Y-89488800D01*
X152297000Y-89490800D01*
X152299000Y-89492800D01*
X152300000Y-89494800D01*
X152302000Y-89496800D01*
X152303000Y-89499800D01*
X152304000Y-89501800D01*
X152305000Y-89504800D01*
X152305000Y-89506800D01*
X152306000Y-89509800D01*
X152306000Y-89511800D01*
X152307000Y-89514800D01*
X152307000Y-89516800D01*
X152307000Y-89519800D01*
X152307000Y-90919800D01*
X152307000Y-90922800D01*
X152307000Y-90924800D01*
X152306000Y-90927800D01*
X152306000Y-90929800D01*
X152305000Y-90932800D01*
X152305000Y-90934800D01*
X152304000Y-90937800D01*
X152303000Y-90939800D01*
X152302000Y-90942800D01*
X152300000Y-90944800D01*
X152299000Y-90946800D01*
X152297000Y-90948800D01*
X152296000Y-90950800D01*
X152294000Y-90952800D01*
X152292000Y-90954800D01*
X152290000Y-90956800D01*
X152288000Y-90958800D01*
X152286000Y-90959800D01*
X152284000Y-90961800D01*
X152282000Y-90962800D01*
X152280000Y-90964800D01*
X152277000Y-90965800D01*
X152275000Y-90966800D01*
X152272000Y-90967800D01*
X152270000Y-90967800D01*
X152267000Y-90968800D01*
X152265000Y-90968800D01*
X152262000Y-90969800D01*
X152260000Y-90969800D01*
X152257000Y-90969800D01*
X151907000Y-90969800D01*
X151904000Y-90969800D01*
X151902000Y-90969800D01*
X151899000Y-90968800D01*
X151897000Y-90968800D01*
X151894000Y-90967800D01*
X151892000Y-90967800D01*
X151889000Y-90966800D01*
X151887000Y-90965800D01*
X151884000Y-90964800D01*
X151882000Y-90962800D01*
X151880000Y-90961800D01*
X151878000Y-90959800D01*
X151876000Y-90958800D01*
X151874000Y-90956800D01*
X151872000Y-90954800D01*
X151870000Y-90952800D01*
X151868000Y-90950800D01*
X151867000Y-90948800D01*
X151865000Y-90946800D01*
X151864000Y-90944800D01*
X151862000Y-90942800D01*
X151861000Y-90939800D01*
X151860000Y-90937800D01*
X151859000Y-90934800D01*
X151859000Y-90932800D01*
X151858000Y-90929800D01*
X151858000Y-90927800D01*
X151857000Y-90924800D01*
X151857000Y-90922800D01*
X151857000Y-90919800D01*
X151857000Y-89519800D01*
X151857000Y-89516800D01*
X151857000Y-89514800D01*
X151858000Y-89511800D01*
X151858000Y-89509800D01*
X151859000Y-89506800D01*
X151859000Y-89504800D01*
X151860000Y-89501800D01*
X151861000Y-89499800D01*
X151862000Y-89496800D01*
X151864000Y-89494800D01*
X151865000Y-89492800D01*
X151867000Y-89490800D01*
X151868000Y-89488800D01*
X151870000Y-89486800D01*
X151872000Y-89484800D01*
X151874000Y-89482800D01*
X151876000Y-89480800D01*
X151878000Y-89479800D01*
X151880000Y-89477800D01*
X151882000Y-89476800D01*
X151884000Y-89474800D01*
X151887000Y-89473800D01*
X151889000Y-89472800D01*
X151892000Y-89471800D01*
X151894000Y-89471800D01*
X151897000Y-89470800D01*
X151899000Y-89470800D01*
X151902000Y-89469800D01*
X151904000Y-89469800D01*
X151907000Y-89469800D01*
X152257000Y-89469800D01*
X152260000Y-89469800D01*
X152262000Y-89469800D01*
X152265000Y-89470800D01*
G36*
X152265000Y-89470800D02*
G01*
X152267000Y-89470800D01*
X152270000Y-89471800D01*
X152272000Y-89471800D01*
X152275000Y-89472800D01*
X152277000Y-89473800D01*
X152280000Y-89474800D01*
X152282000Y-89476800D01*
X152284000Y-89477800D01*
X152286000Y-89479800D01*
X152288000Y-89480800D01*
X152290000Y-89482800D01*
X152292000Y-89484800D01*
X152294000Y-89486800D01*
X152296000Y-89488800D01*
X152297000Y-89490800D01*
X152299000Y-89492800D01*
X152300000Y-89494800D01*
X152302000Y-89496800D01*
X152303000Y-89499800D01*
X152304000Y-89501800D01*
X152305000Y-89504800D01*
X152305000Y-89506800D01*
X152306000Y-89509800D01*
X152306000Y-89511800D01*
X152307000Y-89514800D01*
X152307000Y-89516800D01*
X152307000Y-89519800D01*
X152307000Y-90919800D01*
X152307000Y-90922800D01*
X152307000Y-90924800D01*
X152306000Y-90927800D01*
X152306000Y-90929800D01*
X152305000Y-90932800D01*
X152305000Y-90934800D01*
X152304000Y-90937800D01*
X152303000Y-90939800D01*
X152302000Y-90942800D01*
X152300000Y-90944800D01*
X152299000Y-90946800D01*
X152297000Y-90948800D01*
X152296000Y-90950800D01*
X152294000Y-90952800D01*
X152292000Y-90954800D01*
X152290000Y-90956800D01*
X152288000Y-90958800D01*
X152286000Y-90959800D01*
X152284000Y-90961800D01*
X152282000Y-90962800D01*
X152280000Y-90964800D01*
X152277000Y-90965800D01*
X152275000Y-90966800D01*
X152272000Y-90967800D01*
X152270000Y-90967800D01*
X152267000Y-90968800D01*
X152265000Y-90968800D01*
X152262000Y-90969800D01*
X152260000Y-90969800D01*
X152257000Y-90969800D01*
X151907000Y-90969800D01*
X151904000Y-90969800D01*
X151902000Y-90969800D01*
X151899000Y-90968800D01*
X151897000Y-90968800D01*
X151894000Y-90967800D01*
X151892000Y-90967800D01*
X151889000Y-90966800D01*
X151887000Y-90965800D01*
X151884000Y-90964800D01*
X151882000Y-90962800D01*
X151880000Y-90961800D01*
X151878000Y-90959800D01*
X151876000Y-90958800D01*
X151874000Y-90956800D01*
X151872000Y-90954800D01*
X151870000Y-90952800D01*
X151868000Y-90950800D01*
X151867000Y-90948800D01*
X151865000Y-90946800D01*
X151864000Y-90944800D01*
X151862000Y-90942800D01*
X151861000Y-90939800D01*
X151860000Y-90937800D01*
X151859000Y-90934800D01*
X151859000Y-90932800D01*
X151858000Y-90929800D01*
X151858000Y-90927800D01*
X151857000Y-90924800D01*
X151857000Y-90922800D01*
X151857000Y-90919800D01*
X151857000Y-89519800D01*
X151857000Y-89516800D01*
X151857000Y-89514800D01*
X151858000Y-89511800D01*
X151858000Y-89509800D01*
X151859000Y-89506800D01*
X151859000Y-89504800D01*
X151860000Y-89501800D01*
X151861000Y-89499800D01*
X151862000Y-89496800D01*
X151864000Y-89494800D01*
X151865000Y-89492800D01*
X151867000Y-89490800D01*
X151868000Y-89488800D01*
X151870000Y-89486800D01*
X151872000Y-89484800D01*
X151874000Y-89482800D01*
X151876000Y-89480800D01*
X151878000Y-89479800D01*
X151880000Y-89477800D01*
X151882000Y-89476800D01*
X151884000Y-89474800D01*
X151887000Y-89473800D01*
X151889000Y-89472800D01*
X151892000Y-89471800D01*
X151894000Y-89471800D01*
X151897000Y-89470800D01*
X151899000Y-89470800D01*
X151902000Y-89469800D01*
X151904000Y-89469800D01*
X151907000Y-89469800D01*
X152257000Y-89469800D01*
X152260000Y-89469800D01*
X152262000Y-89469800D01*
X152265000Y-89470800D01*
G37*
X152265000Y-95270800D02*
X152267000Y-95270800D01*
X152270000Y-95271800D01*
X152272000Y-95271800D01*
X152275000Y-95272800D01*
X152277000Y-95273800D01*
X152280000Y-95274800D01*
X152282000Y-95276800D01*
X152284000Y-95277800D01*
X152286000Y-95279800D01*
X152288000Y-95280800D01*
X152290000Y-95282800D01*
X152292000Y-95284800D01*
X152294000Y-95286800D01*
X152296000Y-95288800D01*
X152297000Y-95290800D01*
X152299000Y-95292800D01*
X152300000Y-95294800D01*
X152302000Y-95296800D01*
X152303000Y-95299800D01*
X152304000Y-95301800D01*
X152305000Y-95304800D01*
X152305000Y-95306800D01*
X152306000Y-95309800D01*
X152306000Y-95311800D01*
X152307000Y-95314800D01*
X152307000Y-95316800D01*
X152307000Y-95319800D01*
X152307000Y-96719800D01*
X152307000Y-96722800D01*
X152307000Y-96724800D01*
X152306000Y-96727800D01*
X152306000Y-96729800D01*
X152305000Y-96732800D01*
X152305000Y-96734800D01*
X152304000Y-96737800D01*
X152303000Y-96739800D01*
X152302000Y-96742800D01*
X152300000Y-96744800D01*
X152299000Y-96746800D01*
X152297000Y-96748800D01*
X152296000Y-96750800D01*
X152294000Y-96752800D01*
X152292000Y-96754800D01*
X152290000Y-96756800D01*
X152288000Y-96758800D01*
X152286000Y-96759800D01*
X152284000Y-96761800D01*
X152282000Y-96762800D01*
X152280000Y-96764800D01*
X152277000Y-96765800D01*
X152275000Y-96766800D01*
X152272000Y-96767800D01*
X152270000Y-96767800D01*
X152267000Y-96768800D01*
X152265000Y-96768800D01*
X152262000Y-96769800D01*
X152260000Y-96769800D01*
X152257000Y-96769800D01*
X151907000Y-96769800D01*
X151904000Y-96769800D01*
X151902000Y-96769800D01*
X151899000Y-96768800D01*
X151897000Y-96768800D01*
X151894000Y-96767800D01*
X151892000Y-96767800D01*
X151889000Y-96766800D01*
X151887000Y-96765800D01*
X151884000Y-96764800D01*
X151882000Y-96762800D01*
X151880000Y-96761800D01*
X151878000Y-96759800D01*
X151876000Y-96758800D01*
X151874000Y-96756800D01*
X151872000Y-96754800D01*
X151870000Y-96752800D01*
X151868000Y-96750800D01*
X151867000Y-96748800D01*
X151865000Y-96746800D01*
X151864000Y-96744800D01*
X151862000Y-96742800D01*
X151861000Y-96739800D01*
X151860000Y-96737800D01*
X151859000Y-96734800D01*
X151859000Y-96732800D01*
X151858000Y-96729800D01*
X151858000Y-96727800D01*
X151857000Y-96724800D01*
X151857000Y-96722800D01*
X151857000Y-96719800D01*
X151857000Y-95319800D01*
X151857000Y-95316800D01*
X151857000Y-95314800D01*
X151858000Y-95311800D01*
X151858000Y-95309800D01*
X151859000Y-95306800D01*
X151859000Y-95304800D01*
X151860000Y-95301800D01*
X151861000Y-95299800D01*
X151862000Y-95296800D01*
X151864000Y-95294800D01*
X151865000Y-95292800D01*
X151867000Y-95290800D01*
X151868000Y-95288800D01*
X151870000Y-95286800D01*
X151872000Y-95284800D01*
X151874000Y-95282800D01*
X151876000Y-95280800D01*
X151878000Y-95279800D01*
X151880000Y-95277800D01*
X151882000Y-95276800D01*
X151884000Y-95274800D01*
X151887000Y-95273800D01*
X151889000Y-95272800D01*
X151892000Y-95271800D01*
X151894000Y-95271800D01*
X151897000Y-95270800D01*
X151899000Y-95270800D01*
X151902000Y-95269800D01*
X151904000Y-95269800D01*
X151907000Y-95269800D01*
X152257000Y-95269800D01*
X152260000Y-95269800D01*
X152262000Y-95269800D01*
X152265000Y-95270800D01*
G36*
X152265000Y-95270800D02*
G01*
X152267000Y-95270800D01*
X152270000Y-95271800D01*
X152272000Y-95271800D01*
X152275000Y-95272800D01*
X152277000Y-95273800D01*
X152280000Y-95274800D01*
X152282000Y-95276800D01*
X152284000Y-95277800D01*
X152286000Y-95279800D01*
X152288000Y-95280800D01*
X152290000Y-95282800D01*
X152292000Y-95284800D01*
X152294000Y-95286800D01*
X152296000Y-95288800D01*
X152297000Y-95290800D01*
X152299000Y-95292800D01*
X152300000Y-95294800D01*
X152302000Y-95296800D01*
X152303000Y-95299800D01*
X152304000Y-95301800D01*
X152305000Y-95304800D01*
X152305000Y-95306800D01*
X152306000Y-95309800D01*
X152306000Y-95311800D01*
X152307000Y-95314800D01*
X152307000Y-95316800D01*
X152307000Y-95319800D01*
X152307000Y-96719800D01*
X152307000Y-96722800D01*
X152307000Y-96724800D01*
X152306000Y-96727800D01*
X152306000Y-96729800D01*
X152305000Y-96732800D01*
X152305000Y-96734800D01*
X152304000Y-96737800D01*
X152303000Y-96739800D01*
X152302000Y-96742800D01*
X152300000Y-96744800D01*
X152299000Y-96746800D01*
X152297000Y-96748800D01*
X152296000Y-96750800D01*
X152294000Y-96752800D01*
X152292000Y-96754800D01*
X152290000Y-96756800D01*
X152288000Y-96758800D01*
X152286000Y-96759800D01*
X152284000Y-96761800D01*
X152282000Y-96762800D01*
X152280000Y-96764800D01*
X152277000Y-96765800D01*
X152275000Y-96766800D01*
X152272000Y-96767800D01*
X152270000Y-96767800D01*
X152267000Y-96768800D01*
X152265000Y-96768800D01*
X152262000Y-96769800D01*
X152260000Y-96769800D01*
X152257000Y-96769800D01*
X151907000Y-96769800D01*
X151904000Y-96769800D01*
X151902000Y-96769800D01*
X151899000Y-96768800D01*
X151897000Y-96768800D01*
X151894000Y-96767800D01*
X151892000Y-96767800D01*
X151889000Y-96766800D01*
X151887000Y-96765800D01*
X151884000Y-96764800D01*
X151882000Y-96762800D01*
X151880000Y-96761800D01*
X151878000Y-96759800D01*
X151876000Y-96758800D01*
X151874000Y-96756800D01*
X151872000Y-96754800D01*
X151870000Y-96752800D01*
X151868000Y-96750800D01*
X151867000Y-96748800D01*
X151865000Y-96746800D01*
X151864000Y-96744800D01*
X151862000Y-96742800D01*
X151861000Y-96739800D01*
X151860000Y-96737800D01*
X151859000Y-96734800D01*
X151859000Y-96732800D01*
X151858000Y-96729800D01*
X151858000Y-96727800D01*
X151857000Y-96724800D01*
X151857000Y-96722800D01*
X151857000Y-96719800D01*
X151857000Y-95319800D01*
X151857000Y-95316800D01*
X151857000Y-95314800D01*
X151858000Y-95311800D01*
X151858000Y-95309800D01*
X151859000Y-95306800D01*
X151859000Y-95304800D01*
X151860000Y-95301800D01*
X151861000Y-95299800D01*
X151862000Y-95296800D01*
X151864000Y-95294800D01*
X151865000Y-95292800D01*
X151867000Y-95290800D01*
X151868000Y-95288800D01*
X151870000Y-95286800D01*
X151872000Y-95284800D01*
X151874000Y-95282800D01*
X151876000Y-95280800D01*
X151878000Y-95279800D01*
X151880000Y-95277800D01*
X151882000Y-95276800D01*
X151884000Y-95274800D01*
X151887000Y-95273800D01*
X151889000Y-95272800D01*
X151892000Y-95271800D01*
X151894000Y-95271800D01*
X151897000Y-95270800D01*
X151899000Y-95270800D01*
X151902000Y-95269800D01*
X151904000Y-95269800D01*
X151907000Y-95269800D01*
X152257000Y-95269800D01*
X152260000Y-95269800D01*
X152262000Y-95269800D01*
X152265000Y-95270800D01*
G37*
X154635000Y-91820800D02*
X154637000Y-91820800D01*
X154640000Y-91821800D01*
X154642000Y-91821800D01*
X154645000Y-91822800D01*
X154647000Y-91823800D01*
X154650000Y-91824800D01*
X154652000Y-91826800D01*
X154654000Y-91827800D01*
X154656000Y-91829800D01*
X154658000Y-91830800D01*
X154660000Y-91832800D01*
X154662000Y-91834800D01*
X154664000Y-91836800D01*
X154666000Y-91838800D01*
X154667000Y-91840800D01*
X154669000Y-91842800D01*
X154670000Y-91844800D01*
X154672000Y-91846800D01*
X154673000Y-91849800D01*
X154674000Y-91851800D01*
X154675000Y-91854800D01*
X154675000Y-91856800D01*
X154676000Y-91859800D01*
X154676000Y-91861800D01*
X154677000Y-91864800D01*
X154677000Y-91866800D01*
X154677000Y-91869800D01*
X154677000Y-94369800D01*
X154677000Y-94372800D01*
X154677000Y-94374800D01*
X154676000Y-94377800D01*
X154676000Y-94379800D01*
X154675000Y-94382800D01*
X154675000Y-94384800D01*
X154674000Y-94387800D01*
X154673000Y-94389800D01*
X154672000Y-94392800D01*
X154670000Y-94394800D01*
X154669000Y-94396800D01*
X154667000Y-94398800D01*
X154666000Y-94400800D01*
X154664000Y-94402800D01*
X154662000Y-94404800D01*
X154660000Y-94406800D01*
X154658000Y-94408800D01*
X154656000Y-94409800D01*
X154654000Y-94411800D01*
X154652000Y-94412800D01*
X154650000Y-94414800D01*
X154647000Y-94415800D01*
X154645000Y-94416800D01*
X154642000Y-94417800D01*
X154640000Y-94417800D01*
X154637000Y-94418800D01*
X154635000Y-94418800D01*
X154632000Y-94419800D01*
X154630000Y-94419800D01*
X154627000Y-94419800D01*
X152137000Y-94419800D01*
X152134000Y-94419800D01*
X152132000Y-94419800D01*
X152129000Y-94418800D01*
X152127000Y-94418800D01*
X152124000Y-94417800D01*
X152122000Y-94417800D01*
X152119000Y-94416800D01*
X152117000Y-94415800D01*
X152114000Y-94414800D01*
X152112000Y-94412800D01*
X152110000Y-94411800D01*
X152108000Y-94409800D01*
X152106000Y-94408800D01*
X152104000Y-94406800D01*
X152102000Y-94404800D01*
X152100000Y-94402800D01*
X152098000Y-94400800D01*
X152097000Y-94398800D01*
X152095000Y-94396800D01*
X152094000Y-94394800D01*
X152092000Y-94392800D01*
X152091000Y-94389800D01*
X152090000Y-94387800D01*
X152089000Y-94384800D01*
X152089000Y-94382800D01*
X152088000Y-94379800D01*
X152088000Y-94377800D01*
X152087000Y-94374800D01*
X152087000Y-94372800D01*
X152087000Y-94369800D01*
X152087000Y-91869800D01*
X152087000Y-91866800D01*
X152087000Y-91864800D01*
X152088000Y-91861800D01*
X152088000Y-91859800D01*
X152089000Y-91856800D01*
X152089000Y-91854800D01*
X152090000Y-91851800D01*
X152091000Y-91849800D01*
X152092000Y-91846800D01*
X152094000Y-91844800D01*
X152095000Y-91842800D01*
X152097000Y-91840800D01*
X152098000Y-91838800D01*
X152100000Y-91836800D01*
X152102000Y-91834800D01*
X152104000Y-91832800D01*
X152106000Y-91830800D01*
X152108000Y-91829800D01*
X152110000Y-91827800D01*
X152112000Y-91826800D01*
X152114000Y-91824800D01*
X152117000Y-91823800D01*
X152119000Y-91822800D01*
X152122000Y-91821800D01*
X152124000Y-91821800D01*
X152127000Y-91820800D01*
X152129000Y-91820800D01*
X152132000Y-91819800D01*
X152134000Y-91819800D01*
X152137000Y-91819800D01*
X154627000Y-91819800D01*
X154630000Y-91819800D01*
X154632000Y-91819800D01*
X154635000Y-91820800D01*
G36*
X154635000Y-91820800D02*
G01*
X154637000Y-91820800D01*
X154640000Y-91821800D01*
X154642000Y-91821800D01*
X154645000Y-91822800D01*
X154647000Y-91823800D01*
X154650000Y-91824800D01*
X154652000Y-91826800D01*
X154654000Y-91827800D01*
X154656000Y-91829800D01*
X154658000Y-91830800D01*
X154660000Y-91832800D01*
X154662000Y-91834800D01*
X154664000Y-91836800D01*
X154666000Y-91838800D01*
X154667000Y-91840800D01*
X154669000Y-91842800D01*
X154670000Y-91844800D01*
X154672000Y-91846800D01*
X154673000Y-91849800D01*
X154674000Y-91851800D01*
X154675000Y-91854800D01*
X154675000Y-91856800D01*
X154676000Y-91859800D01*
X154676000Y-91861800D01*
X154677000Y-91864800D01*
X154677000Y-91866800D01*
X154677000Y-91869800D01*
X154677000Y-94369800D01*
X154677000Y-94372800D01*
X154677000Y-94374800D01*
X154676000Y-94377800D01*
X154676000Y-94379800D01*
X154675000Y-94382800D01*
X154675000Y-94384800D01*
X154674000Y-94387800D01*
X154673000Y-94389800D01*
X154672000Y-94392800D01*
X154670000Y-94394800D01*
X154669000Y-94396800D01*
X154667000Y-94398800D01*
X154666000Y-94400800D01*
X154664000Y-94402800D01*
X154662000Y-94404800D01*
X154660000Y-94406800D01*
X154658000Y-94408800D01*
X154656000Y-94409800D01*
X154654000Y-94411800D01*
X154652000Y-94412800D01*
X154650000Y-94414800D01*
X154647000Y-94415800D01*
X154645000Y-94416800D01*
X154642000Y-94417800D01*
X154640000Y-94417800D01*
X154637000Y-94418800D01*
X154635000Y-94418800D01*
X154632000Y-94419800D01*
X154630000Y-94419800D01*
X154627000Y-94419800D01*
X152137000Y-94419800D01*
X152134000Y-94419800D01*
X152132000Y-94419800D01*
X152129000Y-94418800D01*
X152127000Y-94418800D01*
X152124000Y-94417800D01*
X152122000Y-94417800D01*
X152119000Y-94416800D01*
X152117000Y-94415800D01*
X152114000Y-94414800D01*
X152112000Y-94412800D01*
X152110000Y-94411800D01*
X152108000Y-94409800D01*
X152106000Y-94408800D01*
X152104000Y-94406800D01*
X152102000Y-94404800D01*
X152100000Y-94402800D01*
X152098000Y-94400800D01*
X152097000Y-94398800D01*
X152095000Y-94396800D01*
X152094000Y-94394800D01*
X152092000Y-94392800D01*
X152091000Y-94389800D01*
X152090000Y-94387800D01*
X152089000Y-94384800D01*
X152089000Y-94382800D01*
X152088000Y-94379800D01*
X152088000Y-94377800D01*
X152087000Y-94374800D01*
X152087000Y-94372800D01*
X152087000Y-94369800D01*
X152087000Y-91869800D01*
X152087000Y-91866800D01*
X152087000Y-91864800D01*
X152088000Y-91861800D01*
X152088000Y-91859800D01*
X152089000Y-91856800D01*
X152089000Y-91854800D01*
X152090000Y-91851800D01*
X152091000Y-91849800D01*
X152092000Y-91846800D01*
X152094000Y-91844800D01*
X152095000Y-91842800D01*
X152097000Y-91840800D01*
X152098000Y-91838800D01*
X152100000Y-91836800D01*
X152102000Y-91834800D01*
X152104000Y-91832800D01*
X152106000Y-91830800D01*
X152108000Y-91829800D01*
X152110000Y-91827800D01*
X152112000Y-91826800D01*
X152114000Y-91824800D01*
X152117000Y-91823800D01*
X152119000Y-91822800D01*
X152122000Y-91821800D01*
X152124000Y-91821800D01*
X152127000Y-91820800D01*
X152129000Y-91820800D01*
X152132000Y-91819800D01*
X152134000Y-91819800D01*
X152137000Y-91819800D01*
X154627000Y-91819800D01*
X154630000Y-91819800D01*
X154632000Y-91819800D01*
X154635000Y-91820800D01*
G37*
X152915000Y-89470800D02*
X152917000Y-89470800D01*
X152920000Y-89471800D01*
X152922000Y-89471800D01*
X152925000Y-89472800D01*
X152927000Y-89473800D01*
X152930000Y-89474800D01*
X152932000Y-89476800D01*
X152934000Y-89477800D01*
X152936000Y-89479800D01*
X152938000Y-89480800D01*
X152940000Y-89482800D01*
X152942000Y-89484800D01*
X152944000Y-89486800D01*
X152946000Y-89488800D01*
X152947000Y-89490800D01*
X152949000Y-89492800D01*
X152950000Y-89494800D01*
X152952000Y-89496800D01*
X152953000Y-89499800D01*
X152954000Y-89501800D01*
X152955000Y-89504800D01*
X152955000Y-89506800D01*
X152956000Y-89509800D01*
X152956000Y-89511800D01*
X152957000Y-89514800D01*
X152957000Y-89516800D01*
X152957000Y-89519800D01*
X152957000Y-90919800D01*
X152957000Y-90922800D01*
X152957000Y-90924800D01*
X152956000Y-90927800D01*
X152956000Y-90929800D01*
X152955000Y-90932800D01*
X152955000Y-90934800D01*
X152954000Y-90937800D01*
X152953000Y-90939800D01*
X152952000Y-90942800D01*
X152950000Y-90944800D01*
X152949000Y-90946800D01*
X152947000Y-90948800D01*
X152946000Y-90950800D01*
X152944000Y-90952800D01*
X152942000Y-90954800D01*
X152940000Y-90956800D01*
X152938000Y-90958800D01*
X152936000Y-90959800D01*
X152934000Y-90961800D01*
X152932000Y-90962800D01*
X152930000Y-90964800D01*
X152927000Y-90965800D01*
X152925000Y-90966800D01*
X152922000Y-90967800D01*
X152920000Y-90967800D01*
X152917000Y-90968800D01*
X152915000Y-90968800D01*
X152912000Y-90969800D01*
X152910000Y-90969800D01*
X152907000Y-90969800D01*
X152557000Y-90969800D01*
X152554000Y-90969800D01*
X152552000Y-90969800D01*
X152549000Y-90968800D01*
X152547000Y-90968800D01*
X152544000Y-90967800D01*
X152542000Y-90967800D01*
X152539000Y-90966800D01*
X152537000Y-90965800D01*
X152534000Y-90964800D01*
X152532000Y-90962800D01*
X152530000Y-90961800D01*
X152528000Y-90959800D01*
X152526000Y-90958800D01*
X152524000Y-90956800D01*
X152522000Y-90954800D01*
X152520000Y-90952800D01*
X152518000Y-90950800D01*
X152517000Y-90948800D01*
X152515000Y-90946800D01*
X152514000Y-90944800D01*
X152512000Y-90942800D01*
X152511000Y-90939800D01*
X152510000Y-90937800D01*
X152509000Y-90934800D01*
X152509000Y-90932800D01*
X152508000Y-90929800D01*
X152508000Y-90927800D01*
X152507000Y-90924800D01*
X152507000Y-90922800D01*
X152507000Y-90919800D01*
X152507000Y-89519800D01*
X152507000Y-89516800D01*
X152507000Y-89514800D01*
X152508000Y-89511800D01*
X152508000Y-89509800D01*
X152509000Y-89506800D01*
X152509000Y-89504800D01*
X152510000Y-89501800D01*
X152511000Y-89499800D01*
X152512000Y-89496800D01*
X152514000Y-89494800D01*
X152515000Y-89492800D01*
X152517000Y-89490800D01*
X152518000Y-89488800D01*
X152520000Y-89486800D01*
X152522000Y-89484800D01*
X152524000Y-89482800D01*
X152526000Y-89480800D01*
X152528000Y-89479800D01*
X152530000Y-89477800D01*
X152532000Y-89476800D01*
X152534000Y-89474800D01*
X152537000Y-89473800D01*
X152539000Y-89472800D01*
X152542000Y-89471800D01*
X152544000Y-89471800D01*
X152547000Y-89470800D01*
X152549000Y-89470800D01*
X152552000Y-89469800D01*
X152554000Y-89469800D01*
X152557000Y-89469800D01*
X152907000Y-89469800D01*
X152910000Y-89469800D01*
X152912000Y-89469800D01*
X152915000Y-89470800D01*
G36*
X152915000Y-89470800D02*
G01*
X152917000Y-89470800D01*
X152920000Y-89471800D01*
X152922000Y-89471800D01*
X152925000Y-89472800D01*
X152927000Y-89473800D01*
X152930000Y-89474800D01*
X152932000Y-89476800D01*
X152934000Y-89477800D01*
X152936000Y-89479800D01*
X152938000Y-89480800D01*
X152940000Y-89482800D01*
X152942000Y-89484800D01*
X152944000Y-89486800D01*
X152946000Y-89488800D01*
X152947000Y-89490800D01*
X152949000Y-89492800D01*
X152950000Y-89494800D01*
X152952000Y-89496800D01*
X152953000Y-89499800D01*
X152954000Y-89501800D01*
X152955000Y-89504800D01*
X152955000Y-89506800D01*
X152956000Y-89509800D01*
X152956000Y-89511800D01*
X152957000Y-89514800D01*
X152957000Y-89516800D01*
X152957000Y-89519800D01*
X152957000Y-90919800D01*
X152957000Y-90922800D01*
X152957000Y-90924800D01*
X152956000Y-90927800D01*
X152956000Y-90929800D01*
X152955000Y-90932800D01*
X152955000Y-90934800D01*
X152954000Y-90937800D01*
X152953000Y-90939800D01*
X152952000Y-90942800D01*
X152950000Y-90944800D01*
X152949000Y-90946800D01*
X152947000Y-90948800D01*
X152946000Y-90950800D01*
X152944000Y-90952800D01*
X152942000Y-90954800D01*
X152940000Y-90956800D01*
X152938000Y-90958800D01*
X152936000Y-90959800D01*
X152934000Y-90961800D01*
X152932000Y-90962800D01*
X152930000Y-90964800D01*
X152927000Y-90965800D01*
X152925000Y-90966800D01*
X152922000Y-90967800D01*
X152920000Y-90967800D01*
X152917000Y-90968800D01*
X152915000Y-90968800D01*
X152912000Y-90969800D01*
X152910000Y-90969800D01*
X152907000Y-90969800D01*
X152557000Y-90969800D01*
X152554000Y-90969800D01*
X152552000Y-90969800D01*
X152549000Y-90968800D01*
X152547000Y-90968800D01*
X152544000Y-90967800D01*
X152542000Y-90967800D01*
X152539000Y-90966800D01*
X152537000Y-90965800D01*
X152534000Y-90964800D01*
X152532000Y-90962800D01*
X152530000Y-90961800D01*
X152528000Y-90959800D01*
X152526000Y-90958800D01*
X152524000Y-90956800D01*
X152522000Y-90954800D01*
X152520000Y-90952800D01*
X152518000Y-90950800D01*
X152517000Y-90948800D01*
X152515000Y-90946800D01*
X152514000Y-90944800D01*
X152512000Y-90942800D01*
X152511000Y-90939800D01*
X152510000Y-90937800D01*
X152509000Y-90934800D01*
X152509000Y-90932800D01*
X152508000Y-90929800D01*
X152508000Y-90927800D01*
X152507000Y-90924800D01*
X152507000Y-90922800D01*
X152507000Y-90919800D01*
X152507000Y-89519800D01*
X152507000Y-89516800D01*
X152507000Y-89514800D01*
X152508000Y-89511800D01*
X152508000Y-89509800D01*
X152509000Y-89506800D01*
X152509000Y-89504800D01*
X152510000Y-89501800D01*
X152511000Y-89499800D01*
X152512000Y-89496800D01*
X152514000Y-89494800D01*
X152515000Y-89492800D01*
X152517000Y-89490800D01*
X152518000Y-89488800D01*
X152520000Y-89486800D01*
X152522000Y-89484800D01*
X152524000Y-89482800D01*
X152526000Y-89480800D01*
X152528000Y-89479800D01*
X152530000Y-89477800D01*
X152532000Y-89476800D01*
X152534000Y-89474800D01*
X152537000Y-89473800D01*
X152539000Y-89472800D01*
X152542000Y-89471800D01*
X152544000Y-89471800D01*
X152547000Y-89470800D01*
X152549000Y-89470800D01*
X152552000Y-89469800D01*
X152554000Y-89469800D01*
X152557000Y-89469800D01*
X152907000Y-89469800D01*
X152910000Y-89469800D01*
X152912000Y-89469800D01*
X152915000Y-89470800D01*
G37*
X152915000Y-95270800D02*
X152917000Y-95270800D01*
X152920000Y-95271800D01*
X152922000Y-95271800D01*
X152925000Y-95272800D01*
X152927000Y-95273800D01*
X152930000Y-95274800D01*
X152932000Y-95276800D01*
X152934000Y-95277800D01*
X152936000Y-95279800D01*
X152938000Y-95280800D01*
X152940000Y-95282800D01*
X152942000Y-95284800D01*
X152944000Y-95286800D01*
X152946000Y-95288800D01*
X152947000Y-95290800D01*
X152949000Y-95292800D01*
X152950000Y-95294800D01*
X152952000Y-95296800D01*
X152953000Y-95299800D01*
X152954000Y-95301800D01*
X152955000Y-95304800D01*
X152955000Y-95306800D01*
X152956000Y-95309800D01*
X152956000Y-95311800D01*
X152957000Y-95314800D01*
X152957000Y-95316800D01*
X152957000Y-95319800D01*
X152957000Y-96719800D01*
X152957000Y-96722800D01*
X152957000Y-96724800D01*
X152956000Y-96727800D01*
X152956000Y-96729800D01*
X152955000Y-96732800D01*
X152955000Y-96734800D01*
X152954000Y-96737800D01*
X152953000Y-96739800D01*
X152952000Y-96742800D01*
X152950000Y-96744800D01*
X152949000Y-96746800D01*
X152947000Y-96748800D01*
X152946000Y-96750800D01*
X152944000Y-96752800D01*
X152942000Y-96754800D01*
X152940000Y-96756800D01*
X152938000Y-96758800D01*
X152936000Y-96759800D01*
X152934000Y-96761800D01*
X152932000Y-96762800D01*
X152930000Y-96764800D01*
X152927000Y-96765800D01*
X152925000Y-96766800D01*
X152922000Y-96767800D01*
X152920000Y-96767800D01*
X152917000Y-96768800D01*
X152915000Y-96768800D01*
X152912000Y-96769800D01*
X152910000Y-96769800D01*
X152907000Y-96769800D01*
X152557000Y-96769800D01*
X152554000Y-96769800D01*
X152552000Y-96769800D01*
X152549000Y-96768800D01*
X152547000Y-96768800D01*
X152544000Y-96767800D01*
X152542000Y-96767800D01*
X152539000Y-96766800D01*
X152537000Y-96765800D01*
X152534000Y-96764800D01*
X152532000Y-96762800D01*
X152530000Y-96761800D01*
X152528000Y-96759800D01*
X152526000Y-96758800D01*
X152524000Y-96756800D01*
X152522000Y-96754800D01*
X152520000Y-96752800D01*
X152518000Y-96750800D01*
X152517000Y-96748800D01*
X152515000Y-96746800D01*
X152514000Y-96744800D01*
X152512000Y-96742800D01*
X152511000Y-96739800D01*
X152510000Y-96737800D01*
X152509000Y-96734800D01*
X152509000Y-96732800D01*
X152508000Y-96729800D01*
X152508000Y-96727800D01*
X152507000Y-96724800D01*
X152507000Y-96722800D01*
X152507000Y-96719800D01*
X152507000Y-95319800D01*
X152507000Y-95316800D01*
X152507000Y-95314800D01*
X152508000Y-95311800D01*
X152508000Y-95309800D01*
X152509000Y-95306800D01*
X152509000Y-95304800D01*
X152510000Y-95301800D01*
X152511000Y-95299800D01*
X152512000Y-95296800D01*
X152514000Y-95294800D01*
X152515000Y-95292800D01*
X152517000Y-95290800D01*
X152518000Y-95288800D01*
X152520000Y-95286800D01*
X152522000Y-95284800D01*
X152524000Y-95282800D01*
X152526000Y-95280800D01*
X152528000Y-95279800D01*
X152530000Y-95277800D01*
X152532000Y-95276800D01*
X152534000Y-95274800D01*
X152537000Y-95273800D01*
X152539000Y-95272800D01*
X152542000Y-95271800D01*
X152544000Y-95271800D01*
X152547000Y-95270800D01*
X152549000Y-95270800D01*
X152552000Y-95269800D01*
X152554000Y-95269800D01*
X152557000Y-95269800D01*
X152907000Y-95269800D01*
X152910000Y-95269800D01*
X152912000Y-95269800D01*
X152915000Y-95270800D01*
G36*
X152915000Y-95270800D02*
G01*
X152917000Y-95270800D01*
X152920000Y-95271800D01*
X152922000Y-95271800D01*
X152925000Y-95272800D01*
X152927000Y-95273800D01*
X152930000Y-95274800D01*
X152932000Y-95276800D01*
X152934000Y-95277800D01*
X152936000Y-95279800D01*
X152938000Y-95280800D01*
X152940000Y-95282800D01*
X152942000Y-95284800D01*
X152944000Y-95286800D01*
X152946000Y-95288800D01*
X152947000Y-95290800D01*
X152949000Y-95292800D01*
X152950000Y-95294800D01*
X152952000Y-95296800D01*
X152953000Y-95299800D01*
X152954000Y-95301800D01*
X152955000Y-95304800D01*
X152955000Y-95306800D01*
X152956000Y-95309800D01*
X152956000Y-95311800D01*
X152957000Y-95314800D01*
X152957000Y-95316800D01*
X152957000Y-95319800D01*
X152957000Y-96719800D01*
X152957000Y-96722800D01*
X152957000Y-96724800D01*
X152956000Y-96727800D01*
X152956000Y-96729800D01*
X152955000Y-96732800D01*
X152955000Y-96734800D01*
X152954000Y-96737800D01*
X152953000Y-96739800D01*
X152952000Y-96742800D01*
X152950000Y-96744800D01*
X152949000Y-96746800D01*
X152947000Y-96748800D01*
X152946000Y-96750800D01*
X152944000Y-96752800D01*
X152942000Y-96754800D01*
X152940000Y-96756800D01*
X152938000Y-96758800D01*
X152936000Y-96759800D01*
X152934000Y-96761800D01*
X152932000Y-96762800D01*
X152930000Y-96764800D01*
X152927000Y-96765800D01*
X152925000Y-96766800D01*
X152922000Y-96767800D01*
X152920000Y-96767800D01*
X152917000Y-96768800D01*
X152915000Y-96768800D01*
X152912000Y-96769800D01*
X152910000Y-96769800D01*
X152907000Y-96769800D01*
X152557000Y-96769800D01*
X152554000Y-96769800D01*
X152552000Y-96769800D01*
X152549000Y-96768800D01*
X152547000Y-96768800D01*
X152544000Y-96767800D01*
X152542000Y-96767800D01*
X152539000Y-96766800D01*
X152537000Y-96765800D01*
X152534000Y-96764800D01*
X152532000Y-96762800D01*
X152530000Y-96761800D01*
X152528000Y-96759800D01*
X152526000Y-96758800D01*
X152524000Y-96756800D01*
X152522000Y-96754800D01*
X152520000Y-96752800D01*
X152518000Y-96750800D01*
X152517000Y-96748800D01*
X152515000Y-96746800D01*
X152514000Y-96744800D01*
X152512000Y-96742800D01*
X152511000Y-96739800D01*
X152510000Y-96737800D01*
X152509000Y-96734800D01*
X152509000Y-96732800D01*
X152508000Y-96729800D01*
X152508000Y-96727800D01*
X152507000Y-96724800D01*
X152507000Y-96722800D01*
X152507000Y-96719800D01*
X152507000Y-95319800D01*
X152507000Y-95316800D01*
X152507000Y-95314800D01*
X152508000Y-95311800D01*
X152508000Y-95309800D01*
X152509000Y-95306800D01*
X152509000Y-95304800D01*
X152510000Y-95301800D01*
X152511000Y-95299800D01*
X152512000Y-95296800D01*
X152514000Y-95294800D01*
X152515000Y-95292800D01*
X152517000Y-95290800D01*
X152518000Y-95288800D01*
X152520000Y-95286800D01*
X152522000Y-95284800D01*
X152524000Y-95282800D01*
X152526000Y-95280800D01*
X152528000Y-95279800D01*
X152530000Y-95277800D01*
X152532000Y-95276800D01*
X152534000Y-95274800D01*
X152537000Y-95273800D01*
X152539000Y-95272800D01*
X152542000Y-95271800D01*
X152544000Y-95271800D01*
X152547000Y-95270800D01*
X152549000Y-95270800D01*
X152552000Y-95269800D01*
X152554000Y-95269800D01*
X152557000Y-95269800D01*
X152907000Y-95269800D01*
X152910000Y-95269800D01*
X152912000Y-95269800D01*
X152915000Y-95270800D01*
G37*
X153565000Y-89470800D02*
X153567000Y-89470800D01*
X153570000Y-89471800D01*
X153572000Y-89471800D01*
X153575000Y-89472800D01*
X153577000Y-89473800D01*
X153580000Y-89474800D01*
X153582000Y-89476800D01*
X153584000Y-89477800D01*
X153586000Y-89479800D01*
X153588000Y-89480800D01*
X153590000Y-89482800D01*
X153592000Y-89484800D01*
X153594000Y-89486800D01*
X153596000Y-89488800D01*
X153597000Y-89490800D01*
X153599000Y-89492800D01*
X153600000Y-89494800D01*
X153602000Y-89496800D01*
X153603000Y-89499800D01*
X153604000Y-89501800D01*
X153605000Y-89504800D01*
X153605000Y-89506800D01*
X153606000Y-89509800D01*
X153606000Y-89511800D01*
X153607000Y-89514800D01*
X153607000Y-89516800D01*
X153607000Y-89519800D01*
X153607000Y-90919800D01*
X153607000Y-90922800D01*
X153607000Y-90924800D01*
X153606000Y-90927800D01*
X153606000Y-90929800D01*
X153605000Y-90932800D01*
X153605000Y-90934800D01*
X153604000Y-90937800D01*
X153603000Y-90939800D01*
X153602000Y-90942800D01*
X153600000Y-90944800D01*
X153599000Y-90946800D01*
X153597000Y-90948800D01*
X153596000Y-90950800D01*
X153594000Y-90952800D01*
X153592000Y-90954800D01*
X153590000Y-90956800D01*
X153588000Y-90958800D01*
X153586000Y-90959800D01*
X153584000Y-90961800D01*
X153582000Y-90962800D01*
X153580000Y-90964800D01*
X153577000Y-90965800D01*
X153575000Y-90966800D01*
X153572000Y-90967800D01*
X153570000Y-90967800D01*
X153567000Y-90968800D01*
X153565000Y-90968800D01*
X153562000Y-90969800D01*
X153560000Y-90969800D01*
X153557000Y-90969800D01*
X153207000Y-90969800D01*
X153204000Y-90969800D01*
X153202000Y-90969800D01*
X153199000Y-90968800D01*
X153197000Y-90968800D01*
X153194000Y-90967800D01*
X153192000Y-90967800D01*
X153189000Y-90966800D01*
X153187000Y-90965800D01*
X153184000Y-90964800D01*
X153182000Y-90962800D01*
X153180000Y-90961800D01*
X153178000Y-90959800D01*
X153176000Y-90958800D01*
X153174000Y-90956800D01*
X153172000Y-90954800D01*
X153170000Y-90952800D01*
X153168000Y-90950800D01*
X153167000Y-90948800D01*
X153165000Y-90946800D01*
X153164000Y-90944800D01*
X153162000Y-90942800D01*
X153161000Y-90939800D01*
X153160000Y-90937800D01*
X153159000Y-90934800D01*
X153159000Y-90932800D01*
X153158000Y-90929800D01*
X153158000Y-90927800D01*
X153157000Y-90924800D01*
X153157000Y-90922800D01*
X153157000Y-90919800D01*
X153157000Y-89519800D01*
X153157000Y-89516800D01*
X153157000Y-89514800D01*
X153158000Y-89511800D01*
X153158000Y-89509800D01*
X153159000Y-89506800D01*
X153159000Y-89504800D01*
X153160000Y-89501800D01*
X153161000Y-89499800D01*
X153162000Y-89496800D01*
X153164000Y-89494800D01*
X153165000Y-89492800D01*
X153167000Y-89490800D01*
X153168000Y-89488800D01*
X153170000Y-89486800D01*
X153172000Y-89484800D01*
X153174000Y-89482800D01*
X153176000Y-89480800D01*
X153178000Y-89479800D01*
X153180000Y-89477800D01*
X153182000Y-89476800D01*
X153184000Y-89474800D01*
X153187000Y-89473800D01*
X153189000Y-89472800D01*
X153192000Y-89471800D01*
X153194000Y-89471800D01*
X153197000Y-89470800D01*
X153199000Y-89470800D01*
X153202000Y-89469800D01*
X153204000Y-89469800D01*
X153207000Y-89469800D01*
X153557000Y-89469800D01*
X153560000Y-89469800D01*
X153562000Y-89469800D01*
X153565000Y-89470800D01*
G36*
X153565000Y-89470800D02*
G01*
X153567000Y-89470800D01*
X153570000Y-89471800D01*
X153572000Y-89471800D01*
X153575000Y-89472800D01*
X153577000Y-89473800D01*
X153580000Y-89474800D01*
X153582000Y-89476800D01*
X153584000Y-89477800D01*
X153586000Y-89479800D01*
X153588000Y-89480800D01*
X153590000Y-89482800D01*
X153592000Y-89484800D01*
X153594000Y-89486800D01*
X153596000Y-89488800D01*
X153597000Y-89490800D01*
X153599000Y-89492800D01*
X153600000Y-89494800D01*
X153602000Y-89496800D01*
X153603000Y-89499800D01*
X153604000Y-89501800D01*
X153605000Y-89504800D01*
X153605000Y-89506800D01*
X153606000Y-89509800D01*
X153606000Y-89511800D01*
X153607000Y-89514800D01*
X153607000Y-89516800D01*
X153607000Y-89519800D01*
X153607000Y-90919800D01*
X153607000Y-90922800D01*
X153607000Y-90924800D01*
X153606000Y-90927800D01*
X153606000Y-90929800D01*
X153605000Y-90932800D01*
X153605000Y-90934800D01*
X153604000Y-90937800D01*
X153603000Y-90939800D01*
X153602000Y-90942800D01*
X153600000Y-90944800D01*
X153599000Y-90946800D01*
X153597000Y-90948800D01*
X153596000Y-90950800D01*
X153594000Y-90952800D01*
X153592000Y-90954800D01*
X153590000Y-90956800D01*
X153588000Y-90958800D01*
X153586000Y-90959800D01*
X153584000Y-90961800D01*
X153582000Y-90962800D01*
X153580000Y-90964800D01*
X153577000Y-90965800D01*
X153575000Y-90966800D01*
X153572000Y-90967800D01*
X153570000Y-90967800D01*
X153567000Y-90968800D01*
X153565000Y-90968800D01*
X153562000Y-90969800D01*
X153560000Y-90969800D01*
X153557000Y-90969800D01*
X153207000Y-90969800D01*
X153204000Y-90969800D01*
X153202000Y-90969800D01*
X153199000Y-90968800D01*
X153197000Y-90968800D01*
X153194000Y-90967800D01*
X153192000Y-90967800D01*
X153189000Y-90966800D01*
X153187000Y-90965800D01*
X153184000Y-90964800D01*
X153182000Y-90962800D01*
X153180000Y-90961800D01*
X153178000Y-90959800D01*
X153176000Y-90958800D01*
X153174000Y-90956800D01*
X153172000Y-90954800D01*
X153170000Y-90952800D01*
X153168000Y-90950800D01*
X153167000Y-90948800D01*
X153165000Y-90946800D01*
X153164000Y-90944800D01*
X153162000Y-90942800D01*
X153161000Y-90939800D01*
X153160000Y-90937800D01*
X153159000Y-90934800D01*
X153159000Y-90932800D01*
X153158000Y-90929800D01*
X153158000Y-90927800D01*
X153157000Y-90924800D01*
X153157000Y-90922800D01*
X153157000Y-90919800D01*
X153157000Y-89519800D01*
X153157000Y-89516800D01*
X153157000Y-89514800D01*
X153158000Y-89511800D01*
X153158000Y-89509800D01*
X153159000Y-89506800D01*
X153159000Y-89504800D01*
X153160000Y-89501800D01*
X153161000Y-89499800D01*
X153162000Y-89496800D01*
X153164000Y-89494800D01*
X153165000Y-89492800D01*
X153167000Y-89490800D01*
X153168000Y-89488800D01*
X153170000Y-89486800D01*
X153172000Y-89484800D01*
X153174000Y-89482800D01*
X153176000Y-89480800D01*
X153178000Y-89479800D01*
X153180000Y-89477800D01*
X153182000Y-89476800D01*
X153184000Y-89474800D01*
X153187000Y-89473800D01*
X153189000Y-89472800D01*
X153192000Y-89471800D01*
X153194000Y-89471800D01*
X153197000Y-89470800D01*
X153199000Y-89470800D01*
X153202000Y-89469800D01*
X153204000Y-89469800D01*
X153207000Y-89469800D01*
X153557000Y-89469800D01*
X153560000Y-89469800D01*
X153562000Y-89469800D01*
X153565000Y-89470800D01*
G37*
X153565000Y-95270800D02*
X153567000Y-95270800D01*
X153570000Y-95271800D01*
X153572000Y-95271800D01*
X153575000Y-95272800D01*
X153577000Y-95273800D01*
X153580000Y-95274800D01*
X153582000Y-95276800D01*
X153584000Y-95277800D01*
X153586000Y-95279800D01*
X153588000Y-95280800D01*
X153590000Y-95282800D01*
X153592000Y-95284800D01*
X153594000Y-95286800D01*
X153596000Y-95288800D01*
X153597000Y-95290800D01*
X153599000Y-95292800D01*
X153600000Y-95294800D01*
X153602000Y-95296800D01*
X153603000Y-95299800D01*
X153604000Y-95301800D01*
X153605000Y-95304800D01*
X153605000Y-95306800D01*
X153606000Y-95309800D01*
X153606000Y-95311800D01*
X153607000Y-95314800D01*
X153607000Y-95316800D01*
X153607000Y-95319800D01*
X153607000Y-96719800D01*
X153607000Y-96722800D01*
X153607000Y-96724800D01*
X153606000Y-96727800D01*
X153606000Y-96729800D01*
X153605000Y-96732800D01*
X153605000Y-96734800D01*
X153604000Y-96737800D01*
X153603000Y-96739800D01*
X153602000Y-96742800D01*
X153600000Y-96744800D01*
X153599000Y-96746800D01*
X153597000Y-96748800D01*
X153596000Y-96750800D01*
X153594000Y-96752800D01*
X153592000Y-96754800D01*
X153590000Y-96756800D01*
X153588000Y-96758800D01*
X153586000Y-96759800D01*
X153584000Y-96761800D01*
X153582000Y-96762800D01*
X153580000Y-96764800D01*
X153577000Y-96765800D01*
X153575000Y-96766800D01*
X153572000Y-96767800D01*
X153570000Y-96767800D01*
X153567000Y-96768800D01*
X153565000Y-96768800D01*
X153562000Y-96769800D01*
X153560000Y-96769800D01*
X153557000Y-96769800D01*
X153207000Y-96769800D01*
X153204000Y-96769800D01*
X153202000Y-96769800D01*
X153199000Y-96768800D01*
X153197000Y-96768800D01*
X153194000Y-96767800D01*
X153192000Y-96767800D01*
X153189000Y-96766800D01*
X153187000Y-96765800D01*
X153184000Y-96764800D01*
X153182000Y-96762800D01*
X153180000Y-96761800D01*
X153178000Y-96759800D01*
X153176000Y-96758800D01*
X153174000Y-96756800D01*
X153172000Y-96754800D01*
X153170000Y-96752800D01*
X153168000Y-96750800D01*
X153167000Y-96748800D01*
X153165000Y-96746800D01*
X153164000Y-96744800D01*
X153162000Y-96742800D01*
X153161000Y-96739800D01*
X153160000Y-96737800D01*
X153159000Y-96734800D01*
X153159000Y-96732800D01*
X153158000Y-96729800D01*
X153158000Y-96727800D01*
X153157000Y-96724800D01*
X153157000Y-96722800D01*
X153157000Y-96719800D01*
X153157000Y-95319800D01*
X153157000Y-95316800D01*
X153157000Y-95314800D01*
X153158000Y-95311800D01*
X153158000Y-95309800D01*
X153159000Y-95306800D01*
X153159000Y-95304800D01*
X153160000Y-95301800D01*
X153161000Y-95299800D01*
X153162000Y-95296800D01*
X153164000Y-95294800D01*
X153165000Y-95292800D01*
X153167000Y-95290800D01*
X153168000Y-95288800D01*
X153170000Y-95286800D01*
X153172000Y-95284800D01*
X153174000Y-95282800D01*
X153176000Y-95280800D01*
X153178000Y-95279800D01*
X153180000Y-95277800D01*
X153182000Y-95276800D01*
X153184000Y-95274800D01*
X153187000Y-95273800D01*
X153189000Y-95272800D01*
X153192000Y-95271800D01*
X153194000Y-95271800D01*
X153197000Y-95270800D01*
X153199000Y-95270800D01*
X153202000Y-95269800D01*
X153204000Y-95269800D01*
X153207000Y-95269800D01*
X153557000Y-95269800D01*
X153560000Y-95269800D01*
X153562000Y-95269800D01*
X153565000Y-95270800D01*
G36*
X153565000Y-95270800D02*
G01*
X153567000Y-95270800D01*
X153570000Y-95271800D01*
X153572000Y-95271800D01*
X153575000Y-95272800D01*
X153577000Y-95273800D01*
X153580000Y-95274800D01*
X153582000Y-95276800D01*
X153584000Y-95277800D01*
X153586000Y-95279800D01*
X153588000Y-95280800D01*
X153590000Y-95282800D01*
X153592000Y-95284800D01*
X153594000Y-95286800D01*
X153596000Y-95288800D01*
X153597000Y-95290800D01*
X153599000Y-95292800D01*
X153600000Y-95294800D01*
X153602000Y-95296800D01*
X153603000Y-95299800D01*
X153604000Y-95301800D01*
X153605000Y-95304800D01*
X153605000Y-95306800D01*
X153606000Y-95309800D01*
X153606000Y-95311800D01*
X153607000Y-95314800D01*
X153607000Y-95316800D01*
X153607000Y-95319800D01*
X153607000Y-96719800D01*
X153607000Y-96722800D01*
X153607000Y-96724800D01*
X153606000Y-96727800D01*
X153606000Y-96729800D01*
X153605000Y-96732800D01*
X153605000Y-96734800D01*
X153604000Y-96737800D01*
X153603000Y-96739800D01*
X153602000Y-96742800D01*
X153600000Y-96744800D01*
X153599000Y-96746800D01*
X153597000Y-96748800D01*
X153596000Y-96750800D01*
X153594000Y-96752800D01*
X153592000Y-96754800D01*
X153590000Y-96756800D01*
X153588000Y-96758800D01*
X153586000Y-96759800D01*
X153584000Y-96761800D01*
X153582000Y-96762800D01*
X153580000Y-96764800D01*
X153577000Y-96765800D01*
X153575000Y-96766800D01*
X153572000Y-96767800D01*
X153570000Y-96767800D01*
X153567000Y-96768800D01*
X153565000Y-96768800D01*
X153562000Y-96769800D01*
X153560000Y-96769800D01*
X153557000Y-96769800D01*
X153207000Y-96769800D01*
X153204000Y-96769800D01*
X153202000Y-96769800D01*
X153199000Y-96768800D01*
X153197000Y-96768800D01*
X153194000Y-96767800D01*
X153192000Y-96767800D01*
X153189000Y-96766800D01*
X153187000Y-96765800D01*
X153184000Y-96764800D01*
X153182000Y-96762800D01*
X153180000Y-96761800D01*
X153178000Y-96759800D01*
X153176000Y-96758800D01*
X153174000Y-96756800D01*
X153172000Y-96754800D01*
X153170000Y-96752800D01*
X153168000Y-96750800D01*
X153167000Y-96748800D01*
X153165000Y-96746800D01*
X153164000Y-96744800D01*
X153162000Y-96742800D01*
X153161000Y-96739800D01*
X153160000Y-96737800D01*
X153159000Y-96734800D01*
X153159000Y-96732800D01*
X153158000Y-96729800D01*
X153158000Y-96727800D01*
X153157000Y-96724800D01*
X153157000Y-96722800D01*
X153157000Y-96719800D01*
X153157000Y-95319800D01*
X153157000Y-95316800D01*
X153157000Y-95314800D01*
X153158000Y-95311800D01*
X153158000Y-95309800D01*
X153159000Y-95306800D01*
X153159000Y-95304800D01*
X153160000Y-95301800D01*
X153161000Y-95299800D01*
X153162000Y-95296800D01*
X153164000Y-95294800D01*
X153165000Y-95292800D01*
X153167000Y-95290800D01*
X153168000Y-95288800D01*
X153170000Y-95286800D01*
X153172000Y-95284800D01*
X153174000Y-95282800D01*
X153176000Y-95280800D01*
X153178000Y-95279800D01*
X153180000Y-95277800D01*
X153182000Y-95276800D01*
X153184000Y-95274800D01*
X153187000Y-95273800D01*
X153189000Y-95272800D01*
X153192000Y-95271800D01*
X153194000Y-95271800D01*
X153197000Y-95270800D01*
X153199000Y-95270800D01*
X153202000Y-95269800D01*
X153204000Y-95269800D01*
X153207000Y-95269800D01*
X153557000Y-95269800D01*
X153560000Y-95269800D01*
X153562000Y-95269800D01*
X153565000Y-95270800D01*
G37*
X154215000Y-89470800D02*
X154217000Y-89470800D01*
X154220000Y-89471800D01*
X154222000Y-89471800D01*
X154225000Y-89472800D01*
X154227000Y-89473800D01*
X154230000Y-89474800D01*
X154232000Y-89476800D01*
X154234000Y-89477800D01*
X154236000Y-89479800D01*
X154238000Y-89480800D01*
X154240000Y-89482800D01*
X154242000Y-89484800D01*
X154244000Y-89486800D01*
X154246000Y-89488800D01*
X154247000Y-89490800D01*
X154249000Y-89492800D01*
X154250000Y-89494800D01*
X154252000Y-89496800D01*
X154253000Y-89499800D01*
X154254000Y-89501800D01*
X154255000Y-89504800D01*
X154255000Y-89506800D01*
X154256000Y-89509800D01*
X154256000Y-89511800D01*
X154257000Y-89514800D01*
X154257000Y-89516800D01*
X154257000Y-89519800D01*
X154257000Y-90919800D01*
X154257000Y-90922800D01*
X154257000Y-90924800D01*
X154256000Y-90927800D01*
X154256000Y-90929800D01*
X154255000Y-90932800D01*
X154255000Y-90934800D01*
X154254000Y-90937800D01*
X154253000Y-90939800D01*
X154252000Y-90942800D01*
X154250000Y-90944800D01*
X154249000Y-90946800D01*
X154247000Y-90948800D01*
X154246000Y-90950800D01*
X154244000Y-90952800D01*
X154242000Y-90954800D01*
X154240000Y-90956800D01*
X154238000Y-90958800D01*
X154236000Y-90959800D01*
X154234000Y-90961800D01*
X154232000Y-90962800D01*
X154230000Y-90964800D01*
X154227000Y-90965800D01*
X154225000Y-90966800D01*
X154222000Y-90967800D01*
X154220000Y-90967800D01*
X154217000Y-90968800D01*
X154215000Y-90968800D01*
X154212000Y-90969800D01*
X154210000Y-90969800D01*
X154207000Y-90969800D01*
X153857000Y-90969800D01*
X153854000Y-90969800D01*
X153852000Y-90969800D01*
X153849000Y-90968800D01*
X153847000Y-90968800D01*
X153844000Y-90967800D01*
X153842000Y-90967800D01*
X153839000Y-90966800D01*
X153837000Y-90965800D01*
X153834000Y-90964800D01*
X153832000Y-90962800D01*
X153830000Y-90961800D01*
X153828000Y-90959800D01*
X153826000Y-90958800D01*
X153824000Y-90956800D01*
X153822000Y-90954800D01*
X153820000Y-90952800D01*
X153818000Y-90950800D01*
X153817000Y-90948800D01*
X153815000Y-90946800D01*
X153814000Y-90944800D01*
X153812000Y-90942800D01*
X153811000Y-90939800D01*
X153810000Y-90937800D01*
X153809000Y-90934800D01*
X153809000Y-90932800D01*
X153808000Y-90929800D01*
X153808000Y-90927800D01*
X153807000Y-90924800D01*
X153807000Y-90922800D01*
X153807000Y-90919800D01*
X153807000Y-89519800D01*
X153807000Y-89516800D01*
X153807000Y-89514800D01*
X153808000Y-89511800D01*
X153808000Y-89509800D01*
X153809000Y-89506800D01*
X153809000Y-89504800D01*
X153810000Y-89501800D01*
X153811000Y-89499800D01*
X153812000Y-89496800D01*
X153814000Y-89494800D01*
X153815000Y-89492800D01*
X153817000Y-89490800D01*
X153818000Y-89488800D01*
X153820000Y-89486800D01*
X153822000Y-89484800D01*
X153824000Y-89482800D01*
X153826000Y-89480800D01*
X153828000Y-89479800D01*
X153830000Y-89477800D01*
X153832000Y-89476800D01*
X153834000Y-89474800D01*
X153837000Y-89473800D01*
X153839000Y-89472800D01*
X153842000Y-89471800D01*
X153844000Y-89471800D01*
X153847000Y-89470800D01*
X153849000Y-89470800D01*
X153852000Y-89469800D01*
X153854000Y-89469800D01*
X153857000Y-89469800D01*
X154207000Y-89469800D01*
X154210000Y-89469800D01*
X154212000Y-89469800D01*
X154215000Y-89470800D01*
G36*
X154215000Y-89470800D02*
G01*
X154217000Y-89470800D01*
X154220000Y-89471800D01*
X154222000Y-89471800D01*
X154225000Y-89472800D01*
X154227000Y-89473800D01*
X154230000Y-89474800D01*
X154232000Y-89476800D01*
X154234000Y-89477800D01*
X154236000Y-89479800D01*
X154238000Y-89480800D01*
X154240000Y-89482800D01*
X154242000Y-89484800D01*
X154244000Y-89486800D01*
X154246000Y-89488800D01*
X154247000Y-89490800D01*
X154249000Y-89492800D01*
X154250000Y-89494800D01*
X154252000Y-89496800D01*
X154253000Y-89499800D01*
X154254000Y-89501800D01*
X154255000Y-89504800D01*
X154255000Y-89506800D01*
X154256000Y-89509800D01*
X154256000Y-89511800D01*
X154257000Y-89514800D01*
X154257000Y-89516800D01*
X154257000Y-89519800D01*
X154257000Y-90919800D01*
X154257000Y-90922800D01*
X154257000Y-90924800D01*
X154256000Y-90927800D01*
X154256000Y-90929800D01*
X154255000Y-90932800D01*
X154255000Y-90934800D01*
X154254000Y-90937800D01*
X154253000Y-90939800D01*
X154252000Y-90942800D01*
X154250000Y-90944800D01*
X154249000Y-90946800D01*
X154247000Y-90948800D01*
X154246000Y-90950800D01*
X154244000Y-90952800D01*
X154242000Y-90954800D01*
X154240000Y-90956800D01*
X154238000Y-90958800D01*
X154236000Y-90959800D01*
X154234000Y-90961800D01*
X154232000Y-90962800D01*
X154230000Y-90964800D01*
X154227000Y-90965800D01*
X154225000Y-90966800D01*
X154222000Y-90967800D01*
X154220000Y-90967800D01*
X154217000Y-90968800D01*
X154215000Y-90968800D01*
X154212000Y-90969800D01*
X154210000Y-90969800D01*
X154207000Y-90969800D01*
X153857000Y-90969800D01*
X153854000Y-90969800D01*
X153852000Y-90969800D01*
X153849000Y-90968800D01*
X153847000Y-90968800D01*
X153844000Y-90967800D01*
X153842000Y-90967800D01*
X153839000Y-90966800D01*
X153837000Y-90965800D01*
X153834000Y-90964800D01*
X153832000Y-90962800D01*
X153830000Y-90961800D01*
X153828000Y-90959800D01*
X153826000Y-90958800D01*
X153824000Y-90956800D01*
X153822000Y-90954800D01*
X153820000Y-90952800D01*
X153818000Y-90950800D01*
X153817000Y-90948800D01*
X153815000Y-90946800D01*
X153814000Y-90944800D01*
X153812000Y-90942800D01*
X153811000Y-90939800D01*
X153810000Y-90937800D01*
X153809000Y-90934800D01*
X153809000Y-90932800D01*
X153808000Y-90929800D01*
X153808000Y-90927800D01*
X153807000Y-90924800D01*
X153807000Y-90922800D01*
X153807000Y-90919800D01*
X153807000Y-89519800D01*
X153807000Y-89516800D01*
X153807000Y-89514800D01*
X153808000Y-89511800D01*
X153808000Y-89509800D01*
X153809000Y-89506800D01*
X153809000Y-89504800D01*
X153810000Y-89501800D01*
X153811000Y-89499800D01*
X153812000Y-89496800D01*
X153814000Y-89494800D01*
X153815000Y-89492800D01*
X153817000Y-89490800D01*
X153818000Y-89488800D01*
X153820000Y-89486800D01*
X153822000Y-89484800D01*
X153824000Y-89482800D01*
X153826000Y-89480800D01*
X153828000Y-89479800D01*
X153830000Y-89477800D01*
X153832000Y-89476800D01*
X153834000Y-89474800D01*
X153837000Y-89473800D01*
X153839000Y-89472800D01*
X153842000Y-89471800D01*
X153844000Y-89471800D01*
X153847000Y-89470800D01*
X153849000Y-89470800D01*
X153852000Y-89469800D01*
X153854000Y-89469800D01*
X153857000Y-89469800D01*
X154207000Y-89469800D01*
X154210000Y-89469800D01*
X154212000Y-89469800D01*
X154215000Y-89470800D01*
G37*
X154215000Y-95270800D02*
X154217000Y-95270800D01*
X154220000Y-95271800D01*
X154222000Y-95271800D01*
X154225000Y-95272800D01*
X154227000Y-95273800D01*
X154230000Y-95274800D01*
X154232000Y-95276800D01*
X154234000Y-95277800D01*
X154236000Y-95279800D01*
X154238000Y-95280800D01*
X154240000Y-95282800D01*
X154242000Y-95284800D01*
X154244000Y-95286800D01*
X154246000Y-95288800D01*
X154247000Y-95290800D01*
X154249000Y-95292800D01*
X154250000Y-95294800D01*
X154252000Y-95296800D01*
X154253000Y-95299800D01*
X154254000Y-95301800D01*
X154255000Y-95304800D01*
X154255000Y-95306800D01*
X154256000Y-95309800D01*
X154256000Y-95311800D01*
X154257000Y-95314800D01*
X154257000Y-95316800D01*
X154257000Y-95319800D01*
X154257000Y-96719800D01*
X154257000Y-96722800D01*
X154257000Y-96724800D01*
X154256000Y-96727800D01*
X154256000Y-96729800D01*
X154255000Y-96732800D01*
X154255000Y-96734800D01*
X154254000Y-96737800D01*
X154253000Y-96739800D01*
X154252000Y-96742800D01*
X154250000Y-96744800D01*
X154249000Y-96746800D01*
X154247000Y-96748800D01*
X154246000Y-96750800D01*
X154244000Y-96752800D01*
X154242000Y-96754800D01*
X154240000Y-96756800D01*
X154238000Y-96758800D01*
X154236000Y-96759800D01*
X154234000Y-96761800D01*
X154232000Y-96762800D01*
X154230000Y-96764800D01*
X154227000Y-96765800D01*
X154225000Y-96766800D01*
X154222000Y-96767800D01*
X154220000Y-96767800D01*
X154217000Y-96768800D01*
X154215000Y-96768800D01*
X154212000Y-96769800D01*
X154210000Y-96769800D01*
X154207000Y-96769800D01*
X153857000Y-96769800D01*
X153854000Y-96769800D01*
X153852000Y-96769800D01*
X153849000Y-96768800D01*
X153847000Y-96768800D01*
X153844000Y-96767800D01*
X153842000Y-96767800D01*
X153839000Y-96766800D01*
X153837000Y-96765800D01*
X153834000Y-96764800D01*
X153832000Y-96762800D01*
X153830000Y-96761800D01*
X153828000Y-96759800D01*
X153826000Y-96758800D01*
X153824000Y-96756800D01*
X153822000Y-96754800D01*
X153820000Y-96752800D01*
X153818000Y-96750800D01*
X153817000Y-96748800D01*
X153815000Y-96746800D01*
X153814000Y-96744800D01*
X153812000Y-96742800D01*
X153811000Y-96739800D01*
X153810000Y-96737800D01*
X153809000Y-96734800D01*
X153809000Y-96732800D01*
X153808000Y-96729800D01*
X153808000Y-96727800D01*
X153807000Y-96724800D01*
X153807000Y-96722800D01*
X153807000Y-96719800D01*
X153807000Y-95319800D01*
X153807000Y-95316800D01*
X153807000Y-95314800D01*
X153808000Y-95311800D01*
X153808000Y-95309800D01*
X153809000Y-95306800D01*
X153809000Y-95304800D01*
X153810000Y-95301800D01*
X153811000Y-95299800D01*
X153812000Y-95296800D01*
X153814000Y-95294800D01*
X153815000Y-95292800D01*
X153817000Y-95290800D01*
X153818000Y-95288800D01*
X153820000Y-95286800D01*
X153822000Y-95284800D01*
X153824000Y-95282800D01*
X153826000Y-95280800D01*
X153828000Y-95279800D01*
X153830000Y-95277800D01*
X153832000Y-95276800D01*
X153834000Y-95274800D01*
X153837000Y-95273800D01*
X153839000Y-95272800D01*
X153842000Y-95271800D01*
X153844000Y-95271800D01*
X153847000Y-95270800D01*
X153849000Y-95270800D01*
X153852000Y-95269800D01*
X153854000Y-95269800D01*
X153857000Y-95269800D01*
X154207000Y-95269800D01*
X154210000Y-95269800D01*
X154212000Y-95269800D01*
X154215000Y-95270800D01*
G36*
X154215000Y-95270800D02*
G01*
X154217000Y-95270800D01*
X154220000Y-95271800D01*
X154222000Y-95271800D01*
X154225000Y-95272800D01*
X154227000Y-95273800D01*
X154230000Y-95274800D01*
X154232000Y-95276800D01*
X154234000Y-95277800D01*
X154236000Y-95279800D01*
X154238000Y-95280800D01*
X154240000Y-95282800D01*
X154242000Y-95284800D01*
X154244000Y-95286800D01*
X154246000Y-95288800D01*
X154247000Y-95290800D01*
X154249000Y-95292800D01*
X154250000Y-95294800D01*
X154252000Y-95296800D01*
X154253000Y-95299800D01*
X154254000Y-95301800D01*
X154255000Y-95304800D01*
X154255000Y-95306800D01*
X154256000Y-95309800D01*
X154256000Y-95311800D01*
X154257000Y-95314800D01*
X154257000Y-95316800D01*
X154257000Y-95319800D01*
X154257000Y-96719800D01*
X154257000Y-96722800D01*
X154257000Y-96724800D01*
X154256000Y-96727800D01*
X154256000Y-96729800D01*
X154255000Y-96732800D01*
X154255000Y-96734800D01*
X154254000Y-96737800D01*
X154253000Y-96739800D01*
X154252000Y-96742800D01*
X154250000Y-96744800D01*
X154249000Y-96746800D01*
X154247000Y-96748800D01*
X154246000Y-96750800D01*
X154244000Y-96752800D01*
X154242000Y-96754800D01*
X154240000Y-96756800D01*
X154238000Y-96758800D01*
X154236000Y-96759800D01*
X154234000Y-96761800D01*
X154232000Y-96762800D01*
X154230000Y-96764800D01*
X154227000Y-96765800D01*
X154225000Y-96766800D01*
X154222000Y-96767800D01*
X154220000Y-96767800D01*
X154217000Y-96768800D01*
X154215000Y-96768800D01*
X154212000Y-96769800D01*
X154210000Y-96769800D01*
X154207000Y-96769800D01*
X153857000Y-96769800D01*
X153854000Y-96769800D01*
X153852000Y-96769800D01*
X153849000Y-96768800D01*
X153847000Y-96768800D01*
X153844000Y-96767800D01*
X153842000Y-96767800D01*
X153839000Y-96766800D01*
X153837000Y-96765800D01*
X153834000Y-96764800D01*
X153832000Y-96762800D01*
X153830000Y-96761800D01*
X153828000Y-96759800D01*
X153826000Y-96758800D01*
X153824000Y-96756800D01*
X153822000Y-96754800D01*
X153820000Y-96752800D01*
X153818000Y-96750800D01*
X153817000Y-96748800D01*
X153815000Y-96746800D01*
X153814000Y-96744800D01*
X153812000Y-96742800D01*
X153811000Y-96739800D01*
X153810000Y-96737800D01*
X153809000Y-96734800D01*
X153809000Y-96732800D01*
X153808000Y-96729800D01*
X153808000Y-96727800D01*
X153807000Y-96724800D01*
X153807000Y-96722800D01*
X153807000Y-96719800D01*
X153807000Y-95319800D01*
X153807000Y-95316800D01*
X153807000Y-95314800D01*
X153808000Y-95311800D01*
X153808000Y-95309800D01*
X153809000Y-95306800D01*
X153809000Y-95304800D01*
X153810000Y-95301800D01*
X153811000Y-95299800D01*
X153812000Y-95296800D01*
X153814000Y-95294800D01*
X153815000Y-95292800D01*
X153817000Y-95290800D01*
X153818000Y-95288800D01*
X153820000Y-95286800D01*
X153822000Y-95284800D01*
X153824000Y-95282800D01*
X153826000Y-95280800D01*
X153828000Y-95279800D01*
X153830000Y-95277800D01*
X153832000Y-95276800D01*
X153834000Y-95274800D01*
X153837000Y-95273800D01*
X153839000Y-95272800D01*
X153842000Y-95271800D01*
X153844000Y-95271800D01*
X153847000Y-95270800D01*
X153849000Y-95270800D01*
X153852000Y-95269800D01*
X153854000Y-95269800D01*
X153857000Y-95269800D01*
X154207000Y-95269800D01*
X154210000Y-95269800D01*
X154212000Y-95269800D01*
X154215000Y-95270800D01*
G37*
X154865000Y-89470800D02*
X154867000Y-89470800D01*
X154870000Y-89471800D01*
X154872000Y-89471800D01*
X154875000Y-89472800D01*
X154877000Y-89473800D01*
X154880000Y-89474800D01*
X154882000Y-89476800D01*
X154884000Y-89477800D01*
X154886000Y-89479800D01*
X154888000Y-89480800D01*
X154890000Y-89482800D01*
X154892000Y-89484800D01*
X154894000Y-89486800D01*
X154896000Y-89488800D01*
X154897000Y-89490800D01*
X154899000Y-89492800D01*
X154900000Y-89494800D01*
X154902000Y-89496800D01*
X154903000Y-89499800D01*
X154904000Y-89501800D01*
X154905000Y-89504800D01*
X154905000Y-89506800D01*
X154906000Y-89509800D01*
X154906000Y-89511800D01*
X154907000Y-89514800D01*
X154907000Y-89516800D01*
X154907000Y-89519800D01*
X154907000Y-90919800D01*
X154907000Y-90922800D01*
X154907000Y-90924800D01*
X154906000Y-90927800D01*
X154906000Y-90929800D01*
X154905000Y-90932800D01*
X154905000Y-90934800D01*
X154904000Y-90937800D01*
X154903000Y-90939800D01*
X154902000Y-90942800D01*
X154900000Y-90944800D01*
X154899000Y-90946800D01*
X154897000Y-90948800D01*
X154896000Y-90950800D01*
X154894000Y-90952800D01*
X154892000Y-90954800D01*
X154890000Y-90956800D01*
X154888000Y-90958800D01*
X154886000Y-90959800D01*
X154884000Y-90961800D01*
X154882000Y-90962800D01*
X154880000Y-90964800D01*
X154877000Y-90965800D01*
X154875000Y-90966800D01*
X154872000Y-90967800D01*
X154870000Y-90967800D01*
X154867000Y-90968800D01*
X154865000Y-90968800D01*
X154862000Y-90969800D01*
X154860000Y-90969800D01*
X154857000Y-90969800D01*
X154507000Y-90969800D01*
X154504000Y-90969800D01*
X154502000Y-90969800D01*
X154499000Y-90968800D01*
X154497000Y-90968800D01*
X154494000Y-90967800D01*
X154492000Y-90967800D01*
X154489000Y-90966800D01*
X154487000Y-90965800D01*
X154484000Y-90964800D01*
X154482000Y-90962800D01*
X154480000Y-90961800D01*
X154478000Y-90959800D01*
X154476000Y-90958800D01*
X154474000Y-90956800D01*
X154472000Y-90954800D01*
X154470000Y-90952800D01*
X154468000Y-90950800D01*
X154467000Y-90948800D01*
X154465000Y-90946800D01*
X154464000Y-90944800D01*
X154462000Y-90942800D01*
X154461000Y-90939800D01*
X154460000Y-90937800D01*
X154459000Y-90934800D01*
X154459000Y-90932800D01*
X154458000Y-90929800D01*
X154458000Y-90927800D01*
X154457000Y-90924800D01*
X154457000Y-90922800D01*
X154457000Y-90919800D01*
X154457000Y-89519800D01*
X154457000Y-89516800D01*
X154457000Y-89514800D01*
X154458000Y-89511800D01*
X154458000Y-89509800D01*
X154459000Y-89506800D01*
X154459000Y-89504800D01*
X154460000Y-89501800D01*
X154461000Y-89499800D01*
X154462000Y-89496800D01*
X154464000Y-89494800D01*
X154465000Y-89492800D01*
X154467000Y-89490800D01*
X154468000Y-89488800D01*
X154470000Y-89486800D01*
X154472000Y-89484800D01*
X154474000Y-89482800D01*
X154476000Y-89480800D01*
X154478000Y-89479800D01*
X154480000Y-89477800D01*
X154482000Y-89476800D01*
X154484000Y-89474800D01*
X154487000Y-89473800D01*
X154489000Y-89472800D01*
X154492000Y-89471800D01*
X154494000Y-89471800D01*
X154497000Y-89470800D01*
X154499000Y-89470800D01*
X154502000Y-89469800D01*
X154504000Y-89469800D01*
X154507000Y-89469800D01*
X154857000Y-89469800D01*
X154860000Y-89469800D01*
X154862000Y-89469800D01*
X154865000Y-89470800D01*
G36*
X154865000Y-89470800D02*
G01*
X154867000Y-89470800D01*
X154870000Y-89471800D01*
X154872000Y-89471800D01*
X154875000Y-89472800D01*
X154877000Y-89473800D01*
X154880000Y-89474800D01*
X154882000Y-89476800D01*
X154884000Y-89477800D01*
X154886000Y-89479800D01*
X154888000Y-89480800D01*
X154890000Y-89482800D01*
X154892000Y-89484800D01*
X154894000Y-89486800D01*
X154896000Y-89488800D01*
X154897000Y-89490800D01*
X154899000Y-89492800D01*
X154900000Y-89494800D01*
X154902000Y-89496800D01*
X154903000Y-89499800D01*
X154904000Y-89501800D01*
X154905000Y-89504800D01*
X154905000Y-89506800D01*
X154906000Y-89509800D01*
X154906000Y-89511800D01*
X154907000Y-89514800D01*
X154907000Y-89516800D01*
X154907000Y-89519800D01*
X154907000Y-90919800D01*
X154907000Y-90922800D01*
X154907000Y-90924800D01*
X154906000Y-90927800D01*
X154906000Y-90929800D01*
X154905000Y-90932800D01*
X154905000Y-90934800D01*
X154904000Y-90937800D01*
X154903000Y-90939800D01*
X154902000Y-90942800D01*
X154900000Y-90944800D01*
X154899000Y-90946800D01*
X154897000Y-90948800D01*
X154896000Y-90950800D01*
X154894000Y-90952800D01*
X154892000Y-90954800D01*
X154890000Y-90956800D01*
X154888000Y-90958800D01*
X154886000Y-90959800D01*
X154884000Y-90961800D01*
X154882000Y-90962800D01*
X154880000Y-90964800D01*
X154877000Y-90965800D01*
X154875000Y-90966800D01*
X154872000Y-90967800D01*
X154870000Y-90967800D01*
X154867000Y-90968800D01*
X154865000Y-90968800D01*
X154862000Y-90969800D01*
X154860000Y-90969800D01*
X154857000Y-90969800D01*
X154507000Y-90969800D01*
X154504000Y-90969800D01*
X154502000Y-90969800D01*
X154499000Y-90968800D01*
X154497000Y-90968800D01*
X154494000Y-90967800D01*
X154492000Y-90967800D01*
X154489000Y-90966800D01*
X154487000Y-90965800D01*
X154484000Y-90964800D01*
X154482000Y-90962800D01*
X154480000Y-90961800D01*
X154478000Y-90959800D01*
X154476000Y-90958800D01*
X154474000Y-90956800D01*
X154472000Y-90954800D01*
X154470000Y-90952800D01*
X154468000Y-90950800D01*
X154467000Y-90948800D01*
X154465000Y-90946800D01*
X154464000Y-90944800D01*
X154462000Y-90942800D01*
X154461000Y-90939800D01*
X154460000Y-90937800D01*
X154459000Y-90934800D01*
X154459000Y-90932800D01*
X154458000Y-90929800D01*
X154458000Y-90927800D01*
X154457000Y-90924800D01*
X154457000Y-90922800D01*
X154457000Y-90919800D01*
X154457000Y-89519800D01*
X154457000Y-89516800D01*
X154457000Y-89514800D01*
X154458000Y-89511800D01*
X154458000Y-89509800D01*
X154459000Y-89506800D01*
X154459000Y-89504800D01*
X154460000Y-89501800D01*
X154461000Y-89499800D01*
X154462000Y-89496800D01*
X154464000Y-89494800D01*
X154465000Y-89492800D01*
X154467000Y-89490800D01*
X154468000Y-89488800D01*
X154470000Y-89486800D01*
X154472000Y-89484800D01*
X154474000Y-89482800D01*
X154476000Y-89480800D01*
X154478000Y-89479800D01*
X154480000Y-89477800D01*
X154482000Y-89476800D01*
X154484000Y-89474800D01*
X154487000Y-89473800D01*
X154489000Y-89472800D01*
X154492000Y-89471800D01*
X154494000Y-89471800D01*
X154497000Y-89470800D01*
X154499000Y-89470800D01*
X154502000Y-89469800D01*
X154504000Y-89469800D01*
X154507000Y-89469800D01*
X154857000Y-89469800D01*
X154860000Y-89469800D01*
X154862000Y-89469800D01*
X154865000Y-89470800D01*
G37*
X154865000Y-95270800D02*
X154867000Y-95270800D01*
X154870000Y-95271800D01*
X154872000Y-95271800D01*
X154875000Y-95272800D01*
X154877000Y-95273800D01*
X154880000Y-95274800D01*
X154882000Y-95276800D01*
X154884000Y-95277800D01*
X154886000Y-95279800D01*
X154888000Y-95280800D01*
X154890000Y-95282800D01*
X154892000Y-95284800D01*
X154894000Y-95286800D01*
X154896000Y-95288800D01*
X154897000Y-95290800D01*
X154899000Y-95292800D01*
X154900000Y-95294800D01*
X154902000Y-95296800D01*
X154903000Y-95299800D01*
X154904000Y-95301800D01*
X154905000Y-95304800D01*
X154905000Y-95306800D01*
X154906000Y-95309800D01*
X154906000Y-95311800D01*
X154907000Y-95314800D01*
X154907000Y-95316800D01*
X154907000Y-95319800D01*
X154907000Y-96719800D01*
X154907000Y-96722800D01*
X154907000Y-96724800D01*
X154906000Y-96727800D01*
X154906000Y-96729800D01*
X154905000Y-96732800D01*
X154905000Y-96734800D01*
X154904000Y-96737800D01*
X154903000Y-96739800D01*
X154902000Y-96742800D01*
X154900000Y-96744800D01*
X154899000Y-96746800D01*
X154897000Y-96748800D01*
X154896000Y-96750800D01*
X154894000Y-96752800D01*
X154892000Y-96754800D01*
X154890000Y-96756800D01*
X154888000Y-96758800D01*
X154886000Y-96759800D01*
X154884000Y-96761800D01*
X154882000Y-96762800D01*
X154880000Y-96764800D01*
X154877000Y-96765800D01*
X154875000Y-96766800D01*
X154872000Y-96767800D01*
X154870000Y-96767800D01*
X154867000Y-96768800D01*
X154865000Y-96768800D01*
X154862000Y-96769800D01*
X154860000Y-96769800D01*
X154857000Y-96769800D01*
X154507000Y-96769800D01*
X154504000Y-96769800D01*
X154502000Y-96769800D01*
X154499000Y-96768800D01*
X154497000Y-96768800D01*
X154494000Y-96767800D01*
X154492000Y-96767800D01*
X154489000Y-96766800D01*
X154487000Y-96765800D01*
X154484000Y-96764800D01*
X154482000Y-96762800D01*
X154480000Y-96761800D01*
X154478000Y-96759800D01*
X154476000Y-96758800D01*
X154474000Y-96756800D01*
X154472000Y-96754800D01*
X154470000Y-96752800D01*
X154468000Y-96750800D01*
X154467000Y-96748800D01*
X154465000Y-96746800D01*
X154464000Y-96744800D01*
X154462000Y-96742800D01*
X154461000Y-96739800D01*
X154460000Y-96737800D01*
X154459000Y-96734800D01*
X154459000Y-96732800D01*
X154458000Y-96729800D01*
X154458000Y-96727800D01*
X154457000Y-96724800D01*
X154457000Y-96722800D01*
X154457000Y-96719800D01*
X154457000Y-95319800D01*
X154457000Y-95316800D01*
X154457000Y-95314800D01*
X154458000Y-95311800D01*
X154458000Y-95309800D01*
X154459000Y-95306800D01*
X154459000Y-95304800D01*
X154460000Y-95301800D01*
X154461000Y-95299800D01*
X154462000Y-95296800D01*
X154464000Y-95294800D01*
X154465000Y-95292800D01*
X154467000Y-95290800D01*
X154468000Y-95288800D01*
X154470000Y-95286800D01*
X154472000Y-95284800D01*
X154474000Y-95282800D01*
X154476000Y-95280800D01*
X154478000Y-95279800D01*
X154480000Y-95277800D01*
X154482000Y-95276800D01*
X154484000Y-95274800D01*
X154487000Y-95273800D01*
X154489000Y-95272800D01*
X154492000Y-95271800D01*
X154494000Y-95271800D01*
X154497000Y-95270800D01*
X154499000Y-95270800D01*
X154502000Y-95269800D01*
X154504000Y-95269800D01*
X154507000Y-95269800D01*
X154857000Y-95269800D01*
X154860000Y-95269800D01*
X154862000Y-95269800D01*
X154865000Y-95270800D01*
G36*
X154865000Y-95270800D02*
G01*
X154867000Y-95270800D01*
X154870000Y-95271800D01*
X154872000Y-95271800D01*
X154875000Y-95272800D01*
X154877000Y-95273800D01*
X154880000Y-95274800D01*
X154882000Y-95276800D01*
X154884000Y-95277800D01*
X154886000Y-95279800D01*
X154888000Y-95280800D01*
X154890000Y-95282800D01*
X154892000Y-95284800D01*
X154894000Y-95286800D01*
X154896000Y-95288800D01*
X154897000Y-95290800D01*
X154899000Y-95292800D01*
X154900000Y-95294800D01*
X154902000Y-95296800D01*
X154903000Y-95299800D01*
X154904000Y-95301800D01*
X154905000Y-95304800D01*
X154905000Y-95306800D01*
X154906000Y-95309800D01*
X154906000Y-95311800D01*
X154907000Y-95314800D01*
X154907000Y-95316800D01*
X154907000Y-95319800D01*
X154907000Y-96719800D01*
X154907000Y-96722800D01*
X154907000Y-96724800D01*
X154906000Y-96727800D01*
X154906000Y-96729800D01*
X154905000Y-96732800D01*
X154905000Y-96734800D01*
X154904000Y-96737800D01*
X154903000Y-96739800D01*
X154902000Y-96742800D01*
X154900000Y-96744800D01*
X154899000Y-96746800D01*
X154897000Y-96748800D01*
X154896000Y-96750800D01*
X154894000Y-96752800D01*
X154892000Y-96754800D01*
X154890000Y-96756800D01*
X154888000Y-96758800D01*
X154886000Y-96759800D01*
X154884000Y-96761800D01*
X154882000Y-96762800D01*
X154880000Y-96764800D01*
X154877000Y-96765800D01*
X154875000Y-96766800D01*
X154872000Y-96767800D01*
X154870000Y-96767800D01*
X154867000Y-96768800D01*
X154865000Y-96768800D01*
X154862000Y-96769800D01*
X154860000Y-96769800D01*
X154857000Y-96769800D01*
X154507000Y-96769800D01*
X154504000Y-96769800D01*
X154502000Y-96769800D01*
X154499000Y-96768800D01*
X154497000Y-96768800D01*
X154494000Y-96767800D01*
X154492000Y-96767800D01*
X154489000Y-96766800D01*
X154487000Y-96765800D01*
X154484000Y-96764800D01*
X154482000Y-96762800D01*
X154480000Y-96761800D01*
X154478000Y-96759800D01*
X154476000Y-96758800D01*
X154474000Y-96756800D01*
X154472000Y-96754800D01*
X154470000Y-96752800D01*
X154468000Y-96750800D01*
X154467000Y-96748800D01*
X154465000Y-96746800D01*
X154464000Y-96744800D01*
X154462000Y-96742800D01*
X154461000Y-96739800D01*
X154460000Y-96737800D01*
X154459000Y-96734800D01*
X154459000Y-96732800D01*
X154458000Y-96729800D01*
X154458000Y-96727800D01*
X154457000Y-96724800D01*
X154457000Y-96722800D01*
X154457000Y-96719800D01*
X154457000Y-95319800D01*
X154457000Y-95316800D01*
X154457000Y-95314800D01*
X154458000Y-95311800D01*
X154458000Y-95309800D01*
X154459000Y-95306800D01*
X154459000Y-95304800D01*
X154460000Y-95301800D01*
X154461000Y-95299800D01*
X154462000Y-95296800D01*
X154464000Y-95294800D01*
X154465000Y-95292800D01*
X154467000Y-95290800D01*
X154468000Y-95288800D01*
X154470000Y-95286800D01*
X154472000Y-95284800D01*
X154474000Y-95282800D01*
X154476000Y-95280800D01*
X154478000Y-95279800D01*
X154480000Y-95277800D01*
X154482000Y-95276800D01*
X154484000Y-95274800D01*
X154487000Y-95273800D01*
X154489000Y-95272800D01*
X154492000Y-95271800D01*
X154494000Y-95271800D01*
X154497000Y-95270800D01*
X154499000Y-95270800D01*
X154502000Y-95269800D01*
X154504000Y-95269800D01*
X154507000Y-95269800D01*
X154857000Y-95269800D01*
X154860000Y-95269800D01*
X154862000Y-95269800D01*
X154865000Y-95270800D01*
G37*
X155515000Y-89470800D02*
X155517000Y-89470800D01*
X155520000Y-89471800D01*
X155522000Y-89471800D01*
X155525000Y-89472800D01*
X155527000Y-89473800D01*
X155530000Y-89474800D01*
X155532000Y-89476800D01*
X155534000Y-89477800D01*
X155536000Y-89479800D01*
X155538000Y-89480800D01*
X155540000Y-89482800D01*
X155542000Y-89484800D01*
X155544000Y-89486800D01*
X155546000Y-89488800D01*
X155547000Y-89490800D01*
X155549000Y-89492800D01*
X155550000Y-89494800D01*
X155552000Y-89496800D01*
X155553000Y-89499800D01*
X155554000Y-89501800D01*
X155555000Y-89504800D01*
X155555000Y-89506800D01*
X155556000Y-89509800D01*
X155556000Y-89511800D01*
X155557000Y-89514800D01*
X155557000Y-89516800D01*
X155557000Y-89519800D01*
X155557000Y-90919800D01*
X155557000Y-90922800D01*
X155557000Y-90924800D01*
X155556000Y-90927800D01*
X155556000Y-90929800D01*
X155555000Y-90932800D01*
X155555000Y-90934800D01*
X155554000Y-90937800D01*
X155553000Y-90939800D01*
X155552000Y-90942800D01*
X155550000Y-90944800D01*
X155549000Y-90946800D01*
X155547000Y-90948800D01*
X155546000Y-90950800D01*
X155544000Y-90952800D01*
X155542000Y-90954800D01*
X155540000Y-90956800D01*
X155538000Y-90958800D01*
X155536000Y-90959800D01*
X155534000Y-90961800D01*
X155532000Y-90962800D01*
X155530000Y-90964800D01*
X155527000Y-90965800D01*
X155525000Y-90966800D01*
X155522000Y-90967800D01*
X155520000Y-90967800D01*
X155517000Y-90968800D01*
X155515000Y-90968800D01*
X155512000Y-90969800D01*
X155510000Y-90969800D01*
X155507000Y-90969800D01*
X155157000Y-90969800D01*
X155154000Y-90969800D01*
X155152000Y-90969800D01*
X155149000Y-90968800D01*
X155147000Y-90968800D01*
X155144000Y-90967800D01*
X155142000Y-90967800D01*
X155139000Y-90966800D01*
X155137000Y-90965800D01*
X155134000Y-90964800D01*
X155132000Y-90962800D01*
X155130000Y-90961800D01*
X155128000Y-90959800D01*
X155126000Y-90958800D01*
X155124000Y-90956800D01*
X155122000Y-90954800D01*
X155120000Y-90952800D01*
X155118000Y-90950800D01*
X155117000Y-90948800D01*
X155115000Y-90946800D01*
X155114000Y-90944800D01*
X155112000Y-90942800D01*
X155111000Y-90939800D01*
X155110000Y-90937800D01*
X155109000Y-90934800D01*
X155109000Y-90932800D01*
X155108000Y-90929800D01*
X155108000Y-90927800D01*
X155107000Y-90924800D01*
X155107000Y-90922800D01*
X155107000Y-90919800D01*
X155107000Y-89519800D01*
X155107000Y-89516800D01*
X155107000Y-89514800D01*
X155108000Y-89511800D01*
X155108000Y-89509800D01*
X155109000Y-89506800D01*
X155109000Y-89504800D01*
X155110000Y-89501800D01*
X155111000Y-89499800D01*
X155112000Y-89496800D01*
X155114000Y-89494800D01*
X155115000Y-89492800D01*
X155117000Y-89490800D01*
X155118000Y-89488800D01*
X155120000Y-89486800D01*
X155122000Y-89484800D01*
X155124000Y-89482800D01*
X155126000Y-89480800D01*
X155128000Y-89479800D01*
X155130000Y-89477800D01*
X155132000Y-89476800D01*
X155134000Y-89474800D01*
X155137000Y-89473800D01*
X155139000Y-89472800D01*
X155142000Y-89471800D01*
X155144000Y-89471800D01*
X155147000Y-89470800D01*
X155149000Y-89470800D01*
X155152000Y-89469800D01*
X155154000Y-89469800D01*
X155157000Y-89469800D01*
X155507000Y-89469800D01*
X155510000Y-89469800D01*
X155512000Y-89469800D01*
X155515000Y-89470800D01*
G36*
X155515000Y-89470800D02*
G01*
X155517000Y-89470800D01*
X155520000Y-89471800D01*
X155522000Y-89471800D01*
X155525000Y-89472800D01*
X155527000Y-89473800D01*
X155530000Y-89474800D01*
X155532000Y-89476800D01*
X155534000Y-89477800D01*
X155536000Y-89479800D01*
X155538000Y-89480800D01*
X155540000Y-89482800D01*
X155542000Y-89484800D01*
X155544000Y-89486800D01*
X155546000Y-89488800D01*
X155547000Y-89490800D01*
X155549000Y-89492800D01*
X155550000Y-89494800D01*
X155552000Y-89496800D01*
X155553000Y-89499800D01*
X155554000Y-89501800D01*
X155555000Y-89504800D01*
X155555000Y-89506800D01*
X155556000Y-89509800D01*
X155556000Y-89511800D01*
X155557000Y-89514800D01*
X155557000Y-89516800D01*
X155557000Y-89519800D01*
X155557000Y-90919800D01*
X155557000Y-90922800D01*
X155557000Y-90924800D01*
X155556000Y-90927800D01*
X155556000Y-90929800D01*
X155555000Y-90932800D01*
X155555000Y-90934800D01*
X155554000Y-90937800D01*
X155553000Y-90939800D01*
X155552000Y-90942800D01*
X155550000Y-90944800D01*
X155549000Y-90946800D01*
X155547000Y-90948800D01*
X155546000Y-90950800D01*
X155544000Y-90952800D01*
X155542000Y-90954800D01*
X155540000Y-90956800D01*
X155538000Y-90958800D01*
X155536000Y-90959800D01*
X155534000Y-90961800D01*
X155532000Y-90962800D01*
X155530000Y-90964800D01*
X155527000Y-90965800D01*
X155525000Y-90966800D01*
X155522000Y-90967800D01*
X155520000Y-90967800D01*
X155517000Y-90968800D01*
X155515000Y-90968800D01*
X155512000Y-90969800D01*
X155510000Y-90969800D01*
X155507000Y-90969800D01*
X155157000Y-90969800D01*
X155154000Y-90969800D01*
X155152000Y-90969800D01*
X155149000Y-90968800D01*
X155147000Y-90968800D01*
X155144000Y-90967800D01*
X155142000Y-90967800D01*
X155139000Y-90966800D01*
X155137000Y-90965800D01*
X155134000Y-90964800D01*
X155132000Y-90962800D01*
X155130000Y-90961800D01*
X155128000Y-90959800D01*
X155126000Y-90958800D01*
X155124000Y-90956800D01*
X155122000Y-90954800D01*
X155120000Y-90952800D01*
X155118000Y-90950800D01*
X155117000Y-90948800D01*
X155115000Y-90946800D01*
X155114000Y-90944800D01*
X155112000Y-90942800D01*
X155111000Y-90939800D01*
X155110000Y-90937800D01*
X155109000Y-90934800D01*
X155109000Y-90932800D01*
X155108000Y-90929800D01*
X155108000Y-90927800D01*
X155107000Y-90924800D01*
X155107000Y-90922800D01*
X155107000Y-90919800D01*
X155107000Y-89519800D01*
X155107000Y-89516800D01*
X155107000Y-89514800D01*
X155108000Y-89511800D01*
X155108000Y-89509800D01*
X155109000Y-89506800D01*
X155109000Y-89504800D01*
X155110000Y-89501800D01*
X155111000Y-89499800D01*
X155112000Y-89496800D01*
X155114000Y-89494800D01*
X155115000Y-89492800D01*
X155117000Y-89490800D01*
X155118000Y-89488800D01*
X155120000Y-89486800D01*
X155122000Y-89484800D01*
X155124000Y-89482800D01*
X155126000Y-89480800D01*
X155128000Y-89479800D01*
X155130000Y-89477800D01*
X155132000Y-89476800D01*
X155134000Y-89474800D01*
X155137000Y-89473800D01*
X155139000Y-89472800D01*
X155142000Y-89471800D01*
X155144000Y-89471800D01*
X155147000Y-89470800D01*
X155149000Y-89470800D01*
X155152000Y-89469800D01*
X155154000Y-89469800D01*
X155157000Y-89469800D01*
X155507000Y-89469800D01*
X155510000Y-89469800D01*
X155512000Y-89469800D01*
X155515000Y-89470800D01*
G37*
X155515000Y-95270800D02*
X155517000Y-95270800D01*
X155520000Y-95271800D01*
X155522000Y-95271800D01*
X155525000Y-95272800D01*
X155527000Y-95273800D01*
X155530000Y-95274800D01*
X155532000Y-95276800D01*
X155534000Y-95277800D01*
X155536000Y-95279800D01*
X155538000Y-95280800D01*
X155540000Y-95282800D01*
X155542000Y-95284800D01*
X155544000Y-95286800D01*
X155546000Y-95288800D01*
X155547000Y-95290800D01*
X155549000Y-95292800D01*
X155550000Y-95294800D01*
X155552000Y-95296800D01*
X155553000Y-95299800D01*
X155554000Y-95301800D01*
X155555000Y-95304800D01*
X155555000Y-95306800D01*
X155556000Y-95309800D01*
X155556000Y-95311800D01*
X155557000Y-95314800D01*
X155557000Y-95316800D01*
X155557000Y-95319800D01*
X155557000Y-96719800D01*
X155557000Y-96722800D01*
X155557000Y-96724800D01*
X155556000Y-96727800D01*
X155556000Y-96729800D01*
X155555000Y-96732800D01*
X155555000Y-96734800D01*
X155554000Y-96737800D01*
X155553000Y-96739800D01*
X155552000Y-96742800D01*
X155550000Y-96744800D01*
X155549000Y-96746800D01*
X155547000Y-96748800D01*
X155546000Y-96750800D01*
X155544000Y-96752800D01*
X155542000Y-96754800D01*
X155540000Y-96756800D01*
X155538000Y-96758800D01*
X155536000Y-96759800D01*
X155534000Y-96761800D01*
X155532000Y-96762800D01*
X155530000Y-96764800D01*
X155527000Y-96765800D01*
X155525000Y-96766800D01*
X155522000Y-96767800D01*
X155520000Y-96767800D01*
X155517000Y-96768800D01*
X155515000Y-96768800D01*
X155512000Y-96769800D01*
X155510000Y-96769800D01*
X155507000Y-96769800D01*
X155157000Y-96769800D01*
X155154000Y-96769800D01*
X155152000Y-96769800D01*
X155149000Y-96768800D01*
X155147000Y-96768800D01*
X155144000Y-96767800D01*
X155142000Y-96767800D01*
X155139000Y-96766800D01*
X155137000Y-96765800D01*
X155134000Y-96764800D01*
X155132000Y-96762800D01*
X155130000Y-96761800D01*
X155128000Y-96759800D01*
X155126000Y-96758800D01*
X155124000Y-96756800D01*
X155122000Y-96754800D01*
X155120000Y-96752800D01*
X155118000Y-96750800D01*
X155117000Y-96748800D01*
X155115000Y-96746800D01*
X155114000Y-96744800D01*
X155112000Y-96742800D01*
X155111000Y-96739800D01*
X155110000Y-96737800D01*
X155109000Y-96734800D01*
X155109000Y-96732800D01*
X155108000Y-96729800D01*
X155108000Y-96727800D01*
X155107000Y-96724800D01*
X155107000Y-96722800D01*
X155107000Y-96719800D01*
X155107000Y-95319800D01*
X155107000Y-95316800D01*
X155107000Y-95314800D01*
X155108000Y-95311800D01*
X155108000Y-95309800D01*
X155109000Y-95306800D01*
X155109000Y-95304800D01*
X155110000Y-95301800D01*
X155111000Y-95299800D01*
X155112000Y-95296800D01*
X155114000Y-95294800D01*
X155115000Y-95292800D01*
X155117000Y-95290800D01*
X155118000Y-95288800D01*
X155120000Y-95286800D01*
X155122000Y-95284800D01*
X155124000Y-95282800D01*
X155126000Y-95280800D01*
X155128000Y-95279800D01*
X155130000Y-95277800D01*
X155132000Y-95276800D01*
X155134000Y-95274800D01*
X155137000Y-95273800D01*
X155139000Y-95272800D01*
X155142000Y-95271800D01*
X155144000Y-95271800D01*
X155147000Y-95270800D01*
X155149000Y-95270800D01*
X155152000Y-95269800D01*
X155154000Y-95269800D01*
X155157000Y-95269800D01*
X155507000Y-95269800D01*
X155510000Y-95269800D01*
X155512000Y-95269800D01*
X155515000Y-95270800D01*
G36*
X155515000Y-95270800D02*
G01*
X155517000Y-95270800D01*
X155520000Y-95271800D01*
X155522000Y-95271800D01*
X155525000Y-95272800D01*
X155527000Y-95273800D01*
X155530000Y-95274800D01*
X155532000Y-95276800D01*
X155534000Y-95277800D01*
X155536000Y-95279800D01*
X155538000Y-95280800D01*
X155540000Y-95282800D01*
X155542000Y-95284800D01*
X155544000Y-95286800D01*
X155546000Y-95288800D01*
X155547000Y-95290800D01*
X155549000Y-95292800D01*
X155550000Y-95294800D01*
X155552000Y-95296800D01*
X155553000Y-95299800D01*
X155554000Y-95301800D01*
X155555000Y-95304800D01*
X155555000Y-95306800D01*
X155556000Y-95309800D01*
X155556000Y-95311800D01*
X155557000Y-95314800D01*
X155557000Y-95316800D01*
X155557000Y-95319800D01*
X155557000Y-96719800D01*
X155557000Y-96722800D01*
X155557000Y-96724800D01*
X155556000Y-96727800D01*
X155556000Y-96729800D01*
X155555000Y-96732800D01*
X155555000Y-96734800D01*
X155554000Y-96737800D01*
X155553000Y-96739800D01*
X155552000Y-96742800D01*
X155550000Y-96744800D01*
X155549000Y-96746800D01*
X155547000Y-96748800D01*
X155546000Y-96750800D01*
X155544000Y-96752800D01*
X155542000Y-96754800D01*
X155540000Y-96756800D01*
X155538000Y-96758800D01*
X155536000Y-96759800D01*
X155534000Y-96761800D01*
X155532000Y-96762800D01*
X155530000Y-96764800D01*
X155527000Y-96765800D01*
X155525000Y-96766800D01*
X155522000Y-96767800D01*
X155520000Y-96767800D01*
X155517000Y-96768800D01*
X155515000Y-96768800D01*
X155512000Y-96769800D01*
X155510000Y-96769800D01*
X155507000Y-96769800D01*
X155157000Y-96769800D01*
X155154000Y-96769800D01*
X155152000Y-96769800D01*
X155149000Y-96768800D01*
X155147000Y-96768800D01*
X155144000Y-96767800D01*
X155142000Y-96767800D01*
X155139000Y-96766800D01*
X155137000Y-96765800D01*
X155134000Y-96764800D01*
X155132000Y-96762800D01*
X155130000Y-96761800D01*
X155128000Y-96759800D01*
X155126000Y-96758800D01*
X155124000Y-96756800D01*
X155122000Y-96754800D01*
X155120000Y-96752800D01*
X155118000Y-96750800D01*
X155117000Y-96748800D01*
X155115000Y-96746800D01*
X155114000Y-96744800D01*
X155112000Y-96742800D01*
X155111000Y-96739800D01*
X155110000Y-96737800D01*
X155109000Y-96734800D01*
X155109000Y-96732800D01*
X155108000Y-96729800D01*
X155108000Y-96727800D01*
X155107000Y-96724800D01*
X155107000Y-96722800D01*
X155107000Y-96719800D01*
X155107000Y-95319800D01*
X155107000Y-95316800D01*
X155107000Y-95314800D01*
X155108000Y-95311800D01*
X155108000Y-95309800D01*
X155109000Y-95306800D01*
X155109000Y-95304800D01*
X155110000Y-95301800D01*
X155111000Y-95299800D01*
X155112000Y-95296800D01*
X155114000Y-95294800D01*
X155115000Y-95292800D01*
X155117000Y-95290800D01*
X155118000Y-95288800D01*
X155120000Y-95286800D01*
X155122000Y-95284800D01*
X155124000Y-95282800D01*
X155126000Y-95280800D01*
X155128000Y-95279800D01*
X155130000Y-95277800D01*
X155132000Y-95276800D01*
X155134000Y-95274800D01*
X155137000Y-95273800D01*
X155139000Y-95272800D01*
X155142000Y-95271800D01*
X155144000Y-95271800D01*
X155147000Y-95270800D01*
X155149000Y-95270800D01*
X155152000Y-95269800D01*
X155154000Y-95269800D01*
X155157000Y-95269800D01*
X155507000Y-95269800D01*
X155510000Y-95269800D01*
X155512000Y-95269800D01*
X155515000Y-95270800D01*
G37*
X108750000Y-75078300D02*
X108752000Y-75078300D01*
X108755000Y-75079300D01*
X108757000Y-75079300D01*
X108760000Y-75080300D01*
X108762000Y-75081300D01*
X108765000Y-75082300D01*
X108767000Y-75084300D01*
X108769000Y-75085300D01*
X108771000Y-75087300D01*
X108773000Y-75088300D01*
X108775000Y-75090300D01*
X108777000Y-75092300D01*
X108779000Y-75094300D01*
X108781000Y-75096300D01*
X108782000Y-75098300D01*
X108784000Y-75100300D01*
X108785000Y-75102300D01*
X108787000Y-75104300D01*
X108788000Y-75107300D01*
X108789000Y-75109300D01*
X108790000Y-75112300D01*
X108790000Y-75114300D01*
X108791000Y-75117300D01*
X108791000Y-75119300D01*
X108792000Y-75122300D01*
X108792000Y-75124300D01*
X108792000Y-75127300D01*
X108792000Y-75927300D01*
X108792000Y-75930300D01*
X108792000Y-75932300D01*
X108791000Y-75935300D01*
X108791000Y-75937300D01*
X108790000Y-75940300D01*
X108790000Y-75942300D01*
X108789000Y-75945300D01*
X108788000Y-75947300D01*
X108787000Y-75950300D01*
X108785000Y-75952300D01*
X108784000Y-75954300D01*
X108782000Y-75956300D01*
X108781000Y-75958300D01*
X108779000Y-75960300D01*
X108777000Y-75962300D01*
X108775000Y-75964300D01*
X108773000Y-75966300D01*
X108771000Y-75967300D01*
X108769000Y-75969300D01*
X108767000Y-75970300D01*
X108765000Y-75972300D01*
X108762000Y-75973300D01*
X108760000Y-75974300D01*
X108757000Y-75975300D01*
X108755000Y-75975300D01*
X108752000Y-75976300D01*
X108750000Y-75976300D01*
X108747000Y-75977300D01*
X108745000Y-75977300D01*
X108742000Y-75977300D01*
X108142000Y-75977300D01*
X108139000Y-75977300D01*
X108137000Y-75977300D01*
X108134000Y-75976300D01*
X108132000Y-75976300D01*
X108129000Y-75975300D01*
X108127000Y-75975300D01*
X108124000Y-75974300D01*
X108122000Y-75973300D01*
X108119000Y-75972300D01*
X108117000Y-75970300D01*
X108115000Y-75969300D01*
X108113000Y-75967300D01*
X108111000Y-75966300D01*
X108109000Y-75964300D01*
X108107000Y-75962300D01*
X108105000Y-75960300D01*
X108103000Y-75958300D01*
X108102000Y-75956300D01*
X108100000Y-75954300D01*
X108099000Y-75952300D01*
X108097000Y-75950300D01*
X108096000Y-75947300D01*
X108095000Y-75945300D01*
X108094000Y-75942300D01*
X108094000Y-75940300D01*
X108093000Y-75937300D01*
X108093000Y-75935300D01*
X108092000Y-75932300D01*
X108092000Y-75930300D01*
X108092000Y-75927300D01*
X108092000Y-75127300D01*
X108092000Y-75124300D01*
X108092000Y-75122300D01*
X108093000Y-75119300D01*
X108093000Y-75117300D01*
X108094000Y-75114300D01*
X108094000Y-75112300D01*
X108095000Y-75109300D01*
X108096000Y-75107300D01*
X108097000Y-75104300D01*
X108099000Y-75102300D01*
X108100000Y-75100300D01*
X108102000Y-75098300D01*
X108103000Y-75096300D01*
X108105000Y-75094300D01*
X108107000Y-75092300D01*
X108109000Y-75090300D01*
X108111000Y-75088300D01*
X108113000Y-75087300D01*
X108115000Y-75085300D01*
X108117000Y-75084300D01*
X108119000Y-75082300D01*
X108122000Y-75081300D01*
X108124000Y-75080300D01*
X108127000Y-75079300D01*
X108129000Y-75079300D01*
X108132000Y-75078300D01*
X108134000Y-75078300D01*
X108137000Y-75077300D01*
X108139000Y-75077300D01*
X108142000Y-75077300D01*
X108742000Y-75077300D01*
X108745000Y-75077300D01*
X108747000Y-75077300D01*
X108750000Y-75078300D01*
G36*
X108750000Y-75078300D02*
G01*
X108752000Y-75078300D01*
X108755000Y-75079300D01*
X108757000Y-75079300D01*
X108760000Y-75080300D01*
X108762000Y-75081300D01*
X108765000Y-75082300D01*
X108767000Y-75084300D01*
X108769000Y-75085300D01*
X108771000Y-75087300D01*
X108773000Y-75088300D01*
X108775000Y-75090300D01*
X108777000Y-75092300D01*
X108779000Y-75094300D01*
X108781000Y-75096300D01*
X108782000Y-75098300D01*
X108784000Y-75100300D01*
X108785000Y-75102300D01*
X108787000Y-75104300D01*
X108788000Y-75107300D01*
X108789000Y-75109300D01*
X108790000Y-75112300D01*
X108790000Y-75114300D01*
X108791000Y-75117300D01*
X108791000Y-75119300D01*
X108792000Y-75122300D01*
X108792000Y-75124300D01*
X108792000Y-75127300D01*
X108792000Y-75927300D01*
X108792000Y-75930300D01*
X108792000Y-75932300D01*
X108791000Y-75935300D01*
X108791000Y-75937300D01*
X108790000Y-75940300D01*
X108790000Y-75942300D01*
X108789000Y-75945300D01*
X108788000Y-75947300D01*
X108787000Y-75950300D01*
X108785000Y-75952300D01*
X108784000Y-75954300D01*
X108782000Y-75956300D01*
X108781000Y-75958300D01*
X108779000Y-75960300D01*
X108777000Y-75962300D01*
X108775000Y-75964300D01*
X108773000Y-75966300D01*
X108771000Y-75967300D01*
X108769000Y-75969300D01*
X108767000Y-75970300D01*
X108765000Y-75972300D01*
X108762000Y-75973300D01*
X108760000Y-75974300D01*
X108757000Y-75975300D01*
X108755000Y-75975300D01*
X108752000Y-75976300D01*
X108750000Y-75976300D01*
X108747000Y-75977300D01*
X108745000Y-75977300D01*
X108742000Y-75977300D01*
X108142000Y-75977300D01*
X108139000Y-75977300D01*
X108137000Y-75977300D01*
X108134000Y-75976300D01*
X108132000Y-75976300D01*
X108129000Y-75975300D01*
X108127000Y-75975300D01*
X108124000Y-75974300D01*
X108122000Y-75973300D01*
X108119000Y-75972300D01*
X108117000Y-75970300D01*
X108115000Y-75969300D01*
X108113000Y-75967300D01*
X108111000Y-75966300D01*
X108109000Y-75964300D01*
X108107000Y-75962300D01*
X108105000Y-75960300D01*
X108103000Y-75958300D01*
X108102000Y-75956300D01*
X108100000Y-75954300D01*
X108099000Y-75952300D01*
X108097000Y-75950300D01*
X108096000Y-75947300D01*
X108095000Y-75945300D01*
X108094000Y-75942300D01*
X108094000Y-75940300D01*
X108093000Y-75937300D01*
X108093000Y-75935300D01*
X108092000Y-75932300D01*
X108092000Y-75930300D01*
X108092000Y-75927300D01*
X108092000Y-75127300D01*
X108092000Y-75124300D01*
X108092000Y-75122300D01*
X108093000Y-75119300D01*
X108093000Y-75117300D01*
X108094000Y-75114300D01*
X108094000Y-75112300D01*
X108095000Y-75109300D01*
X108096000Y-75107300D01*
X108097000Y-75104300D01*
X108099000Y-75102300D01*
X108100000Y-75100300D01*
X108102000Y-75098300D01*
X108103000Y-75096300D01*
X108105000Y-75094300D01*
X108107000Y-75092300D01*
X108109000Y-75090300D01*
X108111000Y-75088300D01*
X108113000Y-75087300D01*
X108115000Y-75085300D01*
X108117000Y-75084300D01*
X108119000Y-75082300D01*
X108122000Y-75081300D01*
X108124000Y-75080300D01*
X108127000Y-75079300D01*
X108129000Y-75079300D01*
X108132000Y-75078300D01*
X108134000Y-75078300D01*
X108137000Y-75077300D01*
X108139000Y-75077300D01*
X108142000Y-75077300D01*
X108742000Y-75077300D01*
X108745000Y-75077300D01*
X108747000Y-75077300D01*
X108750000Y-75078300D01*
G37*
X109650000Y-75078300D02*
X109652000Y-75078300D01*
X109655000Y-75079300D01*
X109657000Y-75079300D01*
X109660000Y-75080300D01*
X109662000Y-75081300D01*
X109665000Y-75082300D01*
X109667000Y-75084300D01*
X109669000Y-75085300D01*
X109671000Y-75087300D01*
X109673000Y-75088300D01*
X109675000Y-75090300D01*
X109677000Y-75092300D01*
X109679000Y-75094300D01*
X109681000Y-75096300D01*
X109682000Y-75098300D01*
X109684000Y-75100300D01*
X109685000Y-75102300D01*
X109687000Y-75104300D01*
X109688000Y-75107300D01*
X109689000Y-75109300D01*
X109690000Y-75112300D01*
X109690000Y-75114300D01*
X109691000Y-75117300D01*
X109691000Y-75119300D01*
X109692000Y-75122300D01*
X109692000Y-75124300D01*
X109692000Y-75127300D01*
X109692000Y-75927300D01*
X109692000Y-75930300D01*
X109692000Y-75932300D01*
X109691000Y-75935300D01*
X109691000Y-75937300D01*
X109690000Y-75940300D01*
X109690000Y-75942300D01*
X109689000Y-75945300D01*
X109688000Y-75947300D01*
X109687000Y-75950300D01*
X109685000Y-75952300D01*
X109684000Y-75954300D01*
X109682000Y-75956300D01*
X109681000Y-75958300D01*
X109679000Y-75960300D01*
X109677000Y-75962300D01*
X109675000Y-75964300D01*
X109673000Y-75966300D01*
X109671000Y-75967300D01*
X109669000Y-75969300D01*
X109667000Y-75970300D01*
X109665000Y-75972300D01*
X109662000Y-75973300D01*
X109660000Y-75974300D01*
X109657000Y-75975300D01*
X109655000Y-75975300D01*
X109652000Y-75976300D01*
X109650000Y-75976300D01*
X109647000Y-75977300D01*
X109645000Y-75977300D01*
X109642000Y-75977300D01*
X109042000Y-75977300D01*
X109039000Y-75977300D01*
X109037000Y-75977300D01*
X109034000Y-75976300D01*
X109032000Y-75976300D01*
X109029000Y-75975300D01*
X109027000Y-75975300D01*
X109024000Y-75974300D01*
X109022000Y-75973300D01*
X109019000Y-75972300D01*
X109017000Y-75970300D01*
X109015000Y-75969300D01*
X109013000Y-75967300D01*
X109011000Y-75966300D01*
X109009000Y-75964300D01*
X109007000Y-75962300D01*
X109005000Y-75960300D01*
X109003000Y-75958300D01*
X109002000Y-75956300D01*
X109000000Y-75954300D01*
X108999000Y-75952300D01*
X108997000Y-75950300D01*
X108996000Y-75947300D01*
X108995000Y-75945300D01*
X108994000Y-75942300D01*
X108994000Y-75940300D01*
X108993000Y-75937300D01*
X108993000Y-75935300D01*
X108992000Y-75932300D01*
X108992000Y-75930300D01*
X108992000Y-75927300D01*
X108992000Y-75127300D01*
X108992000Y-75124300D01*
X108992000Y-75122300D01*
X108993000Y-75119300D01*
X108993000Y-75117300D01*
X108994000Y-75114300D01*
X108994000Y-75112300D01*
X108995000Y-75109300D01*
X108996000Y-75107300D01*
X108997000Y-75104300D01*
X108999000Y-75102300D01*
X109000000Y-75100300D01*
X109002000Y-75098300D01*
X109003000Y-75096300D01*
X109005000Y-75094300D01*
X109007000Y-75092300D01*
X109009000Y-75090300D01*
X109011000Y-75088300D01*
X109013000Y-75087300D01*
X109015000Y-75085300D01*
X109017000Y-75084300D01*
X109019000Y-75082300D01*
X109022000Y-75081300D01*
X109024000Y-75080300D01*
X109027000Y-75079300D01*
X109029000Y-75079300D01*
X109032000Y-75078300D01*
X109034000Y-75078300D01*
X109037000Y-75077300D01*
X109039000Y-75077300D01*
X109042000Y-75077300D01*
X109642000Y-75077300D01*
X109645000Y-75077300D01*
X109647000Y-75077300D01*
X109650000Y-75078300D01*
G36*
X109650000Y-75078300D02*
G01*
X109652000Y-75078300D01*
X109655000Y-75079300D01*
X109657000Y-75079300D01*
X109660000Y-75080300D01*
X109662000Y-75081300D01*
X109665000Y-75082300D01*
X109667000Y-75084300D01*
X109669000Y-75085300D01*
X109671000Y-75087300D01*
X109673000Y-75088300D01*
X109675000Y-75090300D01*
X109677000Y-75092300D01*
X109679000Y-75094300D01*
X109681000Y-75096300D01*
X109682000Y-75098300D01*
X109684000Y-75100300D01*
X109685000Y-75102300D01*
X109687000Y-75104300D01*
X109688000Y-75107300D01*
X109689000Y-75109300D01*
X109690000Y-75112300D01*
X109690000Y-75114300D01*
X109691000Y-75117300D01*
X109691000Y-75119300D01*
X109692000Y-75122300D01*
X109692000Y-75124300D01*
X109692000Y-75127300D01*
X109692000Y-75927300D01*
X109692000Y-75930300D01*
X109692000Y-75932300D01*
X109691000Y-75935300D01*
X109691000Y-75937300D01*
X109690000Y-75940300D01*
X109690000Y-75942300D01*
X109689000Y-75945300D01*
X109688000Y-75947300D01*
X109687000Y-75950300D01*
X109685000Y-75952300D01*
X109684000Y-75954300D01*
X109682000Y-75956300D01*
X109681000Y-75958300D01*
X109679000Y-75960300D01*
X109677000Y-75962300D01*
X109675000Y-75964300D01*
X109673000Y-75966300D01*
X109671000Y-75967300D01*
X109669000Y-75969300D01*
X109667000Y-75970300D01*
X109665000Y-75972300D01*
X109662000Y-75973300D01*
X109660000Y-75974300D01*
X109657000Y-75975300D01*
X109655000Y-75975300D01*
X109652000Y-75976300D01*
X109650000Y-75976300D01*
X109647000Y-75977300D01*
X109645000Y-75977300D01*
X109642000Y-75977300D01*
X109042000Y-75977300D01*
X109039000Y-75977300D01*
X109037000Y-75977300D01*
X109034000Y-75976300D01*
X109032000Y-75976300D01*
X109029000Y-75975300D01*
X109027000Y-75975300D01*
X109024000Y-75974300D01*
X109022000Y-75973300D01*
X109019000Y-75972300D01*
X109017000Y-75970300D01*
X109015000Y-75969300D01*
X109013000Y-75967300D01*
X109011000Y-75966300D01*
X109009000Y-75964300D01*
X109007000Y-75962300D01*
X109005000Y-75960300D01*
X109003000Y-75958300D01*
X109002000Y-75956300D01*
X109000000Y-75954300D01*
X108999000Y-75952300D01*
X108997000Y-75950300D01*
X108996000Y-75947300D01*
X108995000Y-75945300D01*
X108994000Y-75942300D01*
X108994000Y-75940300D01*
X108993000Y-75937300D01*
X108993000Y-75935300D01*
X108992000Y-75932300D01*
X108992000Y-75930300D01*
X108992000Y-75927300D01*
X108992000Y-75127300D01*
X108992000Y-75124300D01*
X108992000Y-75122300D01*
X108993000Y-75119300D01*
X108993000Y-75117300D01*
X108994000Y-75114300D01*
X108994000Y-75112300D01*
X108995000Y-75109300D01*
X108996000Y-75107300D01*
X108997000Y-75104300D01*
X108999000Y-75102300D01*
X109000000Y-75100300D01*
X109002000Y-75098300D01*
X109003000Y-75096300D01*
X109005000Y-75094300D01*
X109007000Y-75092300D01*
X109009000Y-75090300D01*
X109011000Y-75088300D01*
X109013000Y-75087300D01*
X109015000Y-75085300D01*
X109017000Y-75084300D01*
X109019000Y-75082300D01*
X109022000Y-75081300D01*
X109024000Y-75080300D01*
X109027000Y-75079300D01*
X109029000Y-75079300D01*
X109032000Y-75078300D01*
X109034000Y-75078300D01*
X109037000Y-75077300D01*
X109039000Y-75077300D01*
X109042000Y-75077300D01*
X109642000Y-75077300D01*
X109645000Y-75077300D01*
X109647000Y-75077300D01*
X109650000Y-75078300D01*
G37*
X108860000Y-92918300D02*
X108862000Y-92918300D01*
X108865000Y-92919300D01*
X108867000Y-92919300D01*
X108870000Y-92920300D01*
X108872000Y-92921300D01*
X108875000Y-92922300D01*
X108877000Y-92924300D01*
X108879000Y-92925300D01*
X108881000Y-92927300D01*
X108883000Y-92928300D01*
X108885000Y-92930300D01*
X108887000Y-92932300D01*
X108889000Y-92934300D01*
X108891000Y-92936300D01*
X108892000Y-92938300D01*
X108894000Y-92940300D01*
X108895000Y-92942300D01*
X108897000Y-92944300D01*
X108898000Y-92947300D01*
X108899000Y-92949300D01*
X108900000Y-92952300D01*
X108900000Y-92954300D01*
X108901000Y-92957300D01*
X108901000Y-92959300D01*
X108902000Y-92962300D01*
X108902000Y-92964300D01*
X108902000Y-92967300D01*
X108902000Y-93767300D01*
X108902000Y-93770300D01*
X108902000Y-93772300D01*
X108901000Y-93775300D01*
X108901000Y-93777300D01*
X108900000Y-93780300D01*
X108900000Y-93782300D01*
X108899000Y-93785300D01*
X108898000Y-93787300D01*
X108897000Y-93790300D01*
X108895000Y-93792300D01*
X108894000Y-93794300D01*
X108892000Y-93796300D01*
X108891000Y-93798300D01*
X108889000Y-93800300D01*
X108887000Y-93802300D01*
X108885000Y-93804300D01*
X108883000Y-93806300D01*
X108881000Y-93807300D01*
X108879000Y-93809300D01*
X108877000Y-93810300D01*
X108875000Y-93812300D01*
X108872000Y-93813300D01*
X108870000Y-93814300D01*
X108867000Y-93815300D01*
X108865000Y-93815300D01*
X108862000Y-93816300D01*
X108860000Y-93816300D01*
X108857000Y-93817300D01*
X108855000Y-93817300D01*
X108852000Y-93817300D01*
X108252000Y-93817300D01*
X108249000Y-93817300D01*
X108247000Y-93817300D01*
X108244000Y-93816300D01*
X108242000Y-93816300D01*
X108239000Y-93815300D01*
X108237000Y-93815300D01*
X108234000Y-93814300D01*
X108232000Y-93813300D01*
X108229000Y-93812300D01*
X108227000Y-93810300D01*
X108225000Y-93809300D01*
X108223000Y-93807300D01*
X108221000Y-93806300D01*
X108219000Y-93804300D01*
X108217000Y-93802300D01*
X108215000Y-93800300D01*
X108213000Y-93798300D01*
X108212000Y-93796300D01*
X108210000Y-93794300D01*
X108209000Y-93792300D01*
X108207000Y-93790300D01*
X108206000Y-93787300D01*
X108205000Y-93785300D01*
X108204000Y-93782300D01*
X108204000Y-93780300D01*
X108203000Y-93777300D01*
X108203000Y-93775300D01*
X108202000Y-93772300D01*
X108202000Y-93770300D01*
X108202000Y-93767300D01*
X108202000Y-92967300D01*
X108202000Y-92964300D01*
X108202000Y-92962300D01*
X108203000Y-92959300D01*
X108203000Y-92957300D01*
X108204000Y-92954300D01*
X108204000Y-92952300D01*
X108205000Y-92949300D01*
X108206000Y-92947300D01*
X108207000Y-92944300D01*
X108209000Y-92942300D01*
X108210000Y-92940300D01*
X108212000Y-92938300D01*
X108213000Y-92936300D01*
X108215000Y-92934300D01*
X108217000Y-92932300D01*
X108219000Y-92930300D01*
X108221000Y-92928300D01*
X108223000Y-92927300D01*
X108225000Y-92925300D01*
X108227000Y-92924300D01*
X108229000Y-92922300D01*
X108232000Y-92921300D01*
X108234000Y-92920300D01*
X108237000Y-92919300D01*
X108239000Y-92919300D01*
X108242000Y-92918300D01*
X108244000Y-92918300D01*
X108247000Y-92917300D01*
X108249000Y-92917300D01*
X108252000Y-92917300D01*
X108852000Y-92917300D01*
X108855000Y-92917300D01*
X108857000Y-92917300D01*
X108860000Y-92918300D01*
G36*
X108860000Y-92918300D02*
G01*
X108862000Y-92918300D01*
X108865000Y-92919300D01*
X108867000Y-92919300D01*
X108870000Y-92920300D01*
X108872000Y-92921300D01*
X108875000Y-92922300D01*
X108877000Y-92924300D01*
X108879000Y-92925300D01*
X108881000Y-92927300D01*
X108883000Y-92928300D01*
X108885000Y-92930300D01*
X108887000Y-92932300D01*
X108889000Y-92934300D01*
X108891000Y-92936300D01*
X108892000Y-92938300D01*
X108894000Y-92940300D01*
X108895000Y-92942300D01*
X108897000Y-92944300D01*
X108898000Y-92947300D01*
X108899000Y-92949300D01*
X108900000Y-92952300D01*
X108900000Y-92954300D01*
X108901000Y-92957300D01*
X108901000Y-92959300D01*
X108902000Y-92962300D01*
X108902000Y-92964300D01*
X108902000Y-92967300D01*
X108902000Y-93767300D01*
X108902000Y-93770300D01*
X108902000Y-93772300D01*
X108901000Y-93775300D01*
X108901000Y-93777300D01*
X108900000Y-93780300D01*
X108900000Y-93782300D01*
X108899000Y-93785300D01*
X108898000Y-93787300D01*
X108897000Y-93790300D01*
X108895000Y-93792300D01*
X108894000Y-93794300D01*
X108892000Y-93796300D01*
X108891000Y-93798300D01*
X108889000Y-93800300D01*
X108887000Y-93802300D01*
X108885000Y-93804300D01*
X108883000Y-93806300D01*
X108881000Y-93807300D01*
X108879000Y-93809300D01*
X108877000Y-93810300D01*
X108875000Y-93812300D01*
X108872000Y-93813300D01*
X108870000Y-93814300D01*
X108867000Y-93815300D01*
X108865000Y-93815300D01*
X108862000Y-93816300D01*
X108860000Y-93816300D01*
X108857000Y-93817300D01*
X108855000Y-93817300D01*
X108852000Y-93817300D01*
X108252000Y-93817300D01*
X108249000Y-93817300D01*
X108247000Y-93817300D01*
X108244000Y-93816300D01*
X108242000Y-93816300D01*
X108239000Y-93815300D01*
X108237000Y-93815300D01*
X108234000Y-93814300D01*
X108232000Y-93813300D01*
X108229000Y-93812300D01*
X108227000Y-93810300D01*
X108225000Y-93809300D01*
X108223000Y-93807300D01*
X108221000Y-93806300D01*
X108219000Y-93804300D01*
X108217000Y-93802300D01*
X108215000Y-93800300D01*
X108213000Y-93798300D01*
X108212000Y-93796300D01*
X108210000Y-93794300D01*
X108209000Y-93792300D01*
X108207000Y-93790300D01*
X108206000Y-93787300D01*
X108205000Y-93785300D01*
X108204000Y-93782300D01*
X108204000Y-93780300D01*
X108203000Y-93777300D01*
X108203000Y-93775300D01*
X108202000Y-93772300D01*
X108202000Y-93770300D01*
X108202000Y-93767300D01*
X108202000Y-92967300D01*
X108202000Y-92964300D01*
X108202000Y-92962300D01*
X108203000Y-92959300D01*
X108203000Y-92957300D01*
X108204000Y-92954300D01*
X108204000Y-92952300D01*
X108205000Y-92949300D01*
X108206000Y-92947300D01*
X108207000Y-92944300D01*
X108209000Y-92942300D01*
X108210000Y-92940300D01*
X108212000Y-92938300D01*
X108213000Y-92936300D01*
X108215000Y-92934300D01*
X108217000Y-92932300D01*
X108219000Y-92930300D01*
X108221000Y-92928300D01*
X108223000Y-92927300D01*
X108225000Y-92925300D01*
X108227000Y-92924300D01*
X108229000Y-92922300D01*
X108232000Y-92921300D01*
X108234000Y-92920300D01*
X108237000Y-92919300D01*
X108239000Y-92919300D01*
X108242000Y-92918300D01*
X108244000Y-92918300D01*
X108247000Y-92917300D01*
X108249000Y-92917300D01*
X108252000Y-92917300D01*
X108852000Y-92917300D01*
X108855000Y-92917300D01*
X108857000Y-92917300D01*
X108860000Y-92918300D01*
G37*
X109760000Y-92918300D02*
X109762000Y-92918300D01*
X109765000Y-92919300D01*
X109767000Y-92919300D01*
X109770000Y-92920300D01*
X109772000Y-92921300D01*
X109775000Y-92922300D01*
X109777000Y-92924300D01*
X109779000Y-92925300D01*
X109781000Y-92927300D01*
X109783000Y-92928300D01*
X109785000Y-92930300D01*
X109787000Y-92932300D01*
X109789000Y-92934300D01*
X109791000Y-92936300D01*
X109792000Y-92938300D01*
X109794000Y-92940300D01*
X109795000Y-92942300D01*
X109797000Y-92944300D01*
X109798000Y-92947300D01*
X109799000Y-92949300D01*
X109800000Y-92952300D01*
X109800000Y-92954300D01*
X109801000Y-92957300D01*
X109801000Y-92959300D01*
X109802000Y-92962300D01*
X109802000Y-92964300D01*
X109802000Y-92967300D01*
X109802000Y-93767300D01*
X109802000Y-93770300D01*
X109802000Y-93772300D01*
X109801000Y-93775300D01*
X109801000Y-93777300D01*
X109800000Y-93780300D01*
X109800000Y-93782300D01*
X109799000Y-93785300D01*
X109798000Y-93787300D01*
X109797000Y-93790300D01*
X109795000Y-93792300D01*
X109794000Y-93794300D01*
X109792000Y-93796300D01*
X109791000Y-93798300D01*
X109789000Y-93800300D01*
X109787000Y-93802300D01*
X109785000Y-93804300D01*
X109783000Y-93806300D01*
X109781000Y-93807300D01*
X109779000Y-93809300D01*
X109777000Y-93810300D01*
X109775000Y-93812300D01*
X109772000Y-93813300D01*
X109770000Y-93814300D01*
X109767000Y-93815300D01*
X109765000Y-93815300D01*
X109762000Y-93816300D01*
X109760000Y-93816300D01*
X109757000Y-93817300D01*
X109755000Y-93817300D01*
X109752000Y-93817300D01*
X109152000Y-93817300D01*
X109149000Y-93817300D01*
X109147000Y-93817300D01*
X109144000Y-93816300D01*
X109142000Y-93816300D01*
X109139000Y-93815300D01*
X109137000Y-93815300D01*
X109134000Y-93814300D01*
X109132000Y-93813300D01*
X109129000Y-93812300D01*
X109127000Y-93810300D01*
X109125000Y-93809300D01*
X109123000Y-93807300D01*
X109121000Y-93806300D01*
X109119000Y-93804300D01*
X109117000Y-93802300D01*
X109115000Y-93800300D01*
X109113000Y-93798300D01*
X109112000Y-93796300D01*
X109110000Y-93794300D01*
X109109000Y-93792300D01*
X109107000Y-93790300D01*
X109106000Y-93787300D01*
X109105000Y-93785300D01*
X109104000Y-93782300D01*
X109104000Y-93780300D01*
X109103000Y-93777300D01*
X109103000Y-93775300D01*
X109102000Y-93772300D01*
X109102000Y-93770300D01*
X109102000Y-93767300D01*
X109102000Y-92967300D01*
X109102000Y-92964300D01*
X109102000Y-92962300D01*
X109103000Y-92959300D01*
X109103000Y-92957300D01*
X109104000Y-92954300D01*
X109104000Y-92952300D01*
X109105000Y-92949300D01*
X109106000Y-92947300D01*
X109107000Y-92944300D01*
X109109000Y-92942300D01*
X109110000Y-92940300D01*
X109112000Y-92938300D01*
X109113000Y-92936300D01*
X109115000Y-92934300D01*
X109117000Y-92932300D01*
X109119000Y-92930300D01*
X109121000Y-92928300D01*
X109123000Y-92927300D01*
X109125000Y-92925300D01*
X109127000Y-92924300D01*
X109129000Y-92922300D01*
X109132000Y-92921300D01*
X109134000Y-92920300D01*
X109137000Y-92919300D01*
X109139000Y-92919300D01*
X109142000Y-92918300D01*
X109144000Y-92918300D01*
X109147000Y-92917300D01*
X109149000Y-92917300D01*
X109152000Y-92917300D01*
X109752000Y-92917300D01*
X109755000Y-92917300D01*
X109757000Y-92917300D01*
X109760000Y-92918300D01*
G36*
X109760000Y-92918300D02*
G01*
X109762000Y-92918300D01*
X109765000Y-92919300D01*
X109767000Y-92919300D01*
X109770000Y-92920300D01*
X109772000Y-92921300D01*
X109775000Y-92922300D01*
X109777000Y-92924300D01*
X109779000Y-92925300D01*
X109781000Y-92927300D01*
X109783000Y-92928300D01*
X109785000Y-92930300D01*
X109787000Y-92932300D01*
X109789000Y-92934300D01*
X109791000Y-92936300D01*
X109792000Y-92938300D01*
X109794000Y-92940300D01*
X109795000Y-92942300D01*
X109797000Y-92944300D01*
X109798000Y-92947300D01*
X109799000Y-92949300D01*
X109800000Y-92952300D01*
X109800000Y-92954300D01*
X109801000Y-92957300D01*
X109801000Y-92959300D01*
X109802000Y-92962300D01*
X109802000Y-92964300D01*
X109802000Y-92967300D01*
X109802000Y-93767300D01*
X109802000Y-93770300D01*
X109802000Y-93772300D01*
X109801000Y-93775300D01*
X109801000Y-93777300D01*
X109800000Y-93780300D01*
X109800000Y-93782300D01*
X109799000Y-93785300D01*
X109798000Y-93787300D01*
X109797000Y-93790300D01*
X109795000Y-93792300D01*
X109794000Y-93794300D01*
X109792000Y-93796300D01*
X109791000Y-93798300D01*
X109789000Y-93800300D01*
X109787000Y-93802300D01*
X109785000Y-93804300D01*
X109783000Y-93806300D01*
X109781000Y-93807300D01*
X109779000Y-93809300D01*
X109777000Y-93810300D01*
X109775000Y-93812300D01*
X109772000Y-93813300D01*
X109770000Y-93814300D01*
X109767000Y-93815300D01*
X109765000Y-93815300D01*
X109762000Y-93816300D01*
X109760000Y-93816300D01*
X109757000Y-93817300D01*
X109755000Y-93817300D01*
X109752000Y-93817300D01*
X109152000Y-93817300D01*
X109149000Y-93817300D01*
X109147000Y-93817300D01*
X109144000Y-93816300D01*
X109142000Y-93816300D01*
X109139000Y-93815300D01*
X109137000Y-93815300D01*
X109134000Y-93814300D01*
X109132000Y-93813300D01*
X109129000Y-93812300D01*
X109127000Y-93810300D01*
X109125000Y-93809300D01*
X109123000Y-93807300D01*
X109121000Y-93806300D01*
X109119000Y-93804300D01*
X109117000Y-93802300D01*
X109115000Y-93800300D01*
X109113000Y-93798300D01*
X109112000Y-93796300D01*
X109110000Y-93794300D01*
X109109000Y-93792300D01*
X109107000Y-93790300D01*
X109106000Y-93787300D01*
X109105000Y-93785300D01*
X109104000Y-93782300D01*
X109104000Y-93780300D01*
X109103000Y-93777300D01*
X109103000Y-93775300D01*
X109102000Y-93772300D01*
X109102000Y-93770300D01*
X109102000Y-93767300D01*
X109102000Y-92967300D01*
X109102000Y-92964300D01*
X109102000Y-92962300D01*
X109103000Y-92959300D01*
X109103000Y-92957300D01*
X109104000Y-92954300D01*
X109104000Y-92952300D01*
X109105000Y-92949300D01*
X109106000Y-92947300D01*
X109107000Y-92944300D01*
X109109000Y-92942300D01*
X109110000Y-92940300D01*
X109112000Y-92938300D01*
X109113000Y-92936300D01*
X109115000Y-92934300D01*
X109117000Y-92932300D01*
X109119000Y-92930300D01*
X109121000Y-92928300D01*
X109123000Y-92927300D01*
X109125000Y-92925300D01*
X109127000Y-92924300D01*
X109129000Y-92922300D01*
X109132000Y-92921300D01*
X109134000Y-92920300D01*
X109137000Y-92919300D01*
X109139000Y-92919300D01*
X109142000Y-92918300D01*
X109144000Y-92918300D01*
X109147000Y-92917300D01*
X109149000Y-92917300D01*
X109152000Y-92917300D01*
X109752000Y-92917300D01*
X109755000Y-92917300D01*
X109757000Y-92917300D01*
X109760000Y-92918300D01*
G37*
X142160000Y-92908300D02*
X142162000Y-92908300D01*
X142165000Y-92909300D01*
X142167000Y-92909300D01*
X142170000Y-92910300D01*
X142172000Y-92911300D01*
X142175000Y-92912300D01*
X142177000Y-92914300D01*
X142179000Y-92915300D01*
X142181000Y-92917300D01*
X142183000Y-92918300D01*
X142185000Y-92920300D01*
X142187000Y-92922300D01*
X142189000Y-92924300D01*
X142191000Y-92926300D01*
X142192000Y-92928300D01*
X142194000Y-92930300D01*
X142195000Y-92932300D01*
X142197000Y-92934300D01*
X142198000Y-92937300D01*
X142199000Y-92939300D01*
X142200000Y-92942300D01*
X142200000Y-92944300D01*
X142201000Y-92947300D01*
X142201000Y-92949300D01*
X142202000Y-92952300D01*
X142202000Y-92954300D01*
X142202000Y-92957300D01*
X142202000Y-93757300D01*
X142202000Y-93760300D01*
X142202000Y-93762300D01*
X142201000Y-93765300D01*
X142201000Y-93767300D01*
X142200000Y-93770300D01*
X142200000Y-93772300D01*
X142199000Y-93775300D01*
X142198000Y-93777300D01*
X142197000Y-93780300D01*
X142195000Y-93782300D01*
X142194000Y-93784300D01*
X142192000Y-93786300D01*
X142191000Y-93788300D01*
X142189000Y-93790300D01*
X142187000Y-93792300D01*
X142185000Y-93794300D01*
X142183000Y-93796300D01*
X142181000Y-93797300D01*
X142179000Y-93799300D01*
X142177000Y-93800300D01*
X142175000Y-93802300D01*
X142172000Y-93803300D01*
X142170000Y-93804300D01*
X142167000Y-93805300D01*
X142165000Y-93805300D01*
X142162000Y-93806300D01*
X142160000Y-93806300D01*
X142157000Y-93807300D01*
X142155000Y-93807300D01*
X142152000Y-93807300D01*
X141552000Y-93807300D01*
X141549000Y-93807300D01*
X141547000Y-93807300D01*
X141544000Y-93806300D01*
X141542000Y-93806300D01*
X141539000Y-93805300D01*
X141537000Y-93805300D01*
X141534000Y-93804300D01*
X141532000Y-93803300D01*
X141529000Y-93802300D01*
X141527000Y-93800300D01*
X141525000Y-93799300D01*
X141523000Y-93797300D01*
X141521000Y-93796300D01*
X141519000Y-93794300D01*
X141517000Y-93792300D01*
X141515000Y-93790300D01*
X141513000Y-93788300D01*
X141512000Y-93786300D01*
X141510000Y-93784300D01*
X141509000Y-93782300D01*
X141507000Y-93780300D01*
X141506000Y-93777300D01*
X141505000Y-93775300D01*
X141504000Y-93772300D01*
X141504000Y-93770300D01*
X141503000Y-93767300D01*
X141503000Y-93765300D01*
X141502000Y-93762300D01*
X141502000Y-93760300D01*
X141502000Y-93757300D01*
X141502000Y-92957300D01*
X141502000Y-92954300D01*
X141502000Y-92952300D01*
X141503000Y-92949300D01*
X141503000Y-92947300D01*
X141504000Y-92944300D01*
X141504000Y-92942300D01*
X141505000Y-92939300D01*
X141506000Y-92937300D01*
X141507000Y-92934300D01*
X141509000Y-92932300D01*
X141510000Y-92930300D01*
X141512000Y-92928300D01*
X141513000Y-92926300D01*
X141515000Y-92924300D01*
X141517000Y-92922300D01*
X141519000Y-92920300D01*
X141521000Y-92918300D01*
X141523000Y-92917300D01*
X141525000Y-92915300D01*
X141527000Y-92914300D01*
X141529000Y-92912300D01*
X141532000Y-92911300D01*
X141534000Y-92910300D01*
X141537000Y-92909300D01*
X141539000Y-92909300D01*
X141542000Y-92908300D01*
X141544000Y-92908300D01*
X141547000Y-92907300D01*
X141549000Y-92907300D01*
X141552000Y-92907300D01*
X142152000Y-92907300D01*
X142155000Y-92907300D01*
X142157000Y-92907300D01*
X142160000Y-92908300D01*
G36*
X142160000Y-92908300D02*
G01*
X142162000Y-92908300D01*
X142165000Y-92909300D01*
X142167000Y-92909300D01*
X142170000Y-92910300D01*
X142172000Y-92911300D01*
X142175000Y-92912300D01*
X142177000Y-92914300D01*
X142179000Y-92915300D01*
X142181000Y-92917300D01*
X142183000Y-92918300D01*
X142185000Y-92920300D01*
X142187000Y-92922300D01*
X142189000Y-92924300D01*
X142191000Y-92926300D01*
X142192000Y-92928300D01*
X142194000Y-92930300D01*
X142195000Y-92932300D01*
X142197000Y-92934300D01*
X142198000Y-92937300D01*
X142199000Y-92939300D01*
X142200000Y-92942300D01*
X142200000Y-92944300D01*
X142201000Y-92947300D01*
X142201000Y-92949300D01*
X142202000Y-92952300D01*
X142202000Y-92954300D01*
X142202000Y-92957300D01*
X142202000Y-93757300D01*
X142202000Y-93760300D01*
X142202000Y-93762300D01*
X142201000Y-93765300D01*
X142201000Y-93767300D01*
X142200000Y-93770300D01*
X142200000Y-93772300D01*
X142199000Y-93775300D01*
X142198000Y-93777300D01*
X142197000Y-93780300D01*
X142195000Y-93782300D01*
X142194000Y-93784300D01*
X142192000Y-93786300D01*
X142191000Y-93788300D01*
X142189000Y-93790300D01*
X142187000Y-93792300D01*
X142185000Y-93794300D01*
X142183000Y-93796300D01*
X142181000Y-93797300D01*
X142179000Y-93799300D01*
X142177000Y-93800300D01*
X142175000Y-93802300D01*
X142172000Y-93803300D01*
X142170000Y-93804300D01*
X142167000Y-93805300D01*
X142165000Y-93805300D01*
X142162000Y-93806300D01*
X142160000Y-93806300D01*
X142157000Y-93807300D01*
X142155000Y-93807300D01*
X142152000Y-93807300D01*
X141552000Y-93807300D01*
X141549000Y-93807300D01*
X141547000Y-93807300D01*
X141544000Y-93806300D01*
X141542000Y-93806300D01*
X141539000Y-93805300D01*
X141537000Y-93805300D01*
X141534000Y-93804300D01*
X141532000Y-93803300D01*
X141529000Y-93802300D01*
X141527000Y-93800300D01*
X141525000Y-93799300D01*
X141523000Y-93797300D01*
X141521000Y-93796300D01*
X141519000Y-93794300D01*
X141517000Y-93792300D01*
X141515000Y-93790300D01*
X141513000Y-93788300D01*
X141512000Y-93786300D01*
X141510000Y-93784300D01*
X141509000Y-93782300D01*
X141507000Y-93780300D01*
X141506000Y-93777300D01*
X141505000Y-93775300D01*
X141504000Y-93772300D01*
X141504000Y-93770300D01*
X141503000Y-93767300D01*
X141503000Y-93765300D01*
X141502000Y-93762300D01*
X141502000Y-93760300D01*
X141502000Y-93757300D01*
X141502000Y-92957300D01*
X141502000Y-92954300D01*
X141502000Y-92952300D01*
X141503000Y-92949300D01*
X141503000Y-92947300D01*
X141504000Y-92944300D01*
X141504000Y-92942300D01*
X141505000Y-92939300D01*
X141506000Y-92937300D01*
X141507000Y-92934300D01*
X141509000Y-92932300D01*
X141510000Y-92930300D01*
X141512000Y-92928300D01*
X141513000Y-92926300D01*
X141515000Y-92924300D01*
X141517000Y-92922300D01*
X141519000Y-92920300D01*
X141521000Y-92918300D01*
X141523000Y-92917300D01*
X141525000Y-92915300D01*
X141527000Y-92914300D01*
X141529000Y-92912300D01*
X141532000Y-92911300D01*
X141534000Y-92910300D01*
X141537000Y-92909300D01*
X141539000Y-92909300D01*
X141542000Y-92908300D01*
X141544000Y-92908300D01*
X141547000Y-92907300D01*
X141549000Y-92907300D01*
X141552000Y-92907300D01*
X142152000Y-92907300D01*
X142155000Y-92907300D01*
X142157000Y-92907300D01*
X142160000Y-92908300D01*
G37*
X143060000Y-92908300D02*
X143062000Y-92908300D01*
X143065000Y-92909300D01*
X143067000Y-92909300D01*
X143070000Y-92910300D01*
X143072000Y-92911300D01*
X143075000Y-92912300D01*
X143077000Y-92914300D01*
X143079000Y-92915300D01*
X143081000Y-92917300D01*
X143083000Y-92918300D01*
X143085000Y-92920300D01*
X143087000Y-92922300D01*
X143089000Y-92924300D01*
X143091000Y-92926300D01*
X143092000Y-92928300D01*
X143094000Y-92930300D01*
X143095000Y-92932300D01*
X143097000Y-92934300D01*
X143098000Y-92937300D01*
X143099000Y-92939300D01*
X143100000Y-92942300D01*
X143100000Y-92944300D01*
X143101000Y-92947300D01*
X143101000Y-92949300D01*
X143102000Y-92952300D01*
X143102000Y-92954300D01*
X143102000Y-92957300D01*
X143102000Y-93757300D01*
X143102000Y-93760300D01*
X143102000Y-93762300D01*
X143101000Y-93765300D01*
X143101000Y-93767300D01*
X143100000Y-93770300D01*
X143100000Y-93772300D01*
X143099000Y-93775300D01*
X143098000Y-93777300D01*
X143097000Y-93780300D01*
X143095000Y-93782300D01*
X143094000Y-93784300D01*
X143092000Y-93786300D01*
X143091000Y-93788300D01*
X143089000Y-93790300D01*
X143087000Y-93792300D01*
X143085000Y-93794300D01*
X143083000Y-93796300D01*
X143081000Y-93797300D01*
X143079000Y-93799300D01*
X143077000Y-93800300D01*
X143075000Y-93802300D01*
X143072000Y-93803300D01*
X143070000Y-93804300D01*
X143067000Y-93805300D01*
X143065000Y-93805300D01*
X143062000Y-93806300D01*
X143060000Y-93806300D01*
X143057000Y-93807300D01*
X143055000Y-93807300D01*
X143052000Y-93807300D01*
X142452000Y-93807300D01*
X142449000Y-93807300D01*
X142447000Y-93807300D01*
X142444000Y-93806300D01*
X142442000Y-93806300D01*
X142439000Y-93805300D01*
X142437000Y-93805300D01*
X142434000Y-93804300D01*
X142432000Y-93803300D01*
X142429000Y-93802300D01*
X142427000Y-93800300D01*
X142425000Y-93799300D01*
X142423000Y-93797300D01*
X142421000Y-93796300D01*
X142419000Y-93794300D01*
X142417000Y-93792300D01*
X142415000Y-93790300D01*
X142413000Y-93788300D01*
X142412000Y-93786300D01*
X142410000Y-93784300D01*
X142409000Y-93782300D01*
X142407000Y-93780300D01*
X142406000Y-93777300D01*
X142405000Y-93775300D01*
X142404000Y-93772300D01*
X142404000Y-93770300D01*
X142403000Y-93767300D01*
X142403000Y-93765300D01*
X142402000Y-93762300D01*
X142402000Y-93760300D01*
X142402000Y-93757300D01*
X142402000Y-92957300D01*
X142402000Y-92954300D01*
X142402000Y-92952300D01*
X142403000Y-92949300D01*
X142403000Y-92947300D01*
X142404000Y-92944300D01*
X142404000Y-92942300D01*
X142405000Y-92939300D01*
X142406000Y-92937300D01*
X142407000Y-92934300D01*
X142409000Y-92932300D01*
X142410000Y-92930300D01*
X142412000Y-92928300D01*
X142413000Y-92926300D01*
X142415000Y-92924300D01*
X142417000Y-92922300D01*
X142419000Y-92920300D01*
X142421000Y-92918300D01*
X142423000Y-92917300D01*
X142425000Y-92915300D01*
X142427000Y-92914300D01*
X142429000Y-92912300D01*
X142432000Y-92911300D01*
X142434000Y-92910300D01*
X142437000Y-92909300D01*
X142439000Y-92909300D01*
X142442000Y-92908300D01*
X142444000Y-92908300D01*
X142447000Y-92907300D01*
X142449000Y-92907300D01*
X142452000Y-92907300D01*
X143052000Y-92907300D01*
X143055000Y-92907300D01*
X143057000Y-92907300D01*
X143060000Y-92908300D01*
G36*
X143060000Y-92908300D02*
G01*
X143062000Y-92908300D01*
X143065000Y-92909300D01*
X143067000Y-92909300D01*
X143070000Y-92910300D01*
X143072000Y-92911300D01*
X143075000Y-92912300D01*
X143077000Y-92914300D01*
X143079000Y-92915300D01*
X143081000Y-92917300D01*
X143083000Y-92918300D01*
X143085000Y-92920300D01*
X143087000Y-92922300D01*
X143089000Y-92924300D01*
X143091000Y-92926300D01*
X143092000Y-92928300D01*
X143094000Y-92930300D01*
X143095000Y-92932300D01*
X143097000Y-92934300D01*
X143098000Y-92937300D01*
X143099000Y-92939300D01*
X143100000Y-92942300D01*
X143100000Y-92944300D01*
X143101000Y-92947300D01*
X143101000Y-92949300D01*
X143102000Y-92952300D01*
X143102000Y-92954300D01*
X143102000Y-92957300D01*
X143102000Y-93757300D01*
X143102000Y-93760300D01*
X143102000Y-93762300D01*
X143101000Y-93765300D01*
X143101000Y-93767300D01*
X143100000Y-93770300D01*
X143100000Y-93772300D01*
X143099000Y-93775300D01*
X143098000Y-93777300D01*
X143097000Y-93780300D01*
X143095000Y-93782300D01*
X143094000Y-93784300D01*
X143092000Y-93786300D01*
X143091000Y-93788300D01*
X143089000Y-93790300D01*
X143087000Y-93792300D01*
X143085000Y-93794300D01*
X143083000Y-93796300D01*
X143081000Y-93797300D01*
X143079000Y-93799300D01*
X143077000Y-93800300D01*
X143075000Y-93802300D01*
X143072000Y-93803300D01*
X143070000Y-93804300D01*
X143067000Y-93805300D01*
X143065000Y-93805300D01*
X143062000Y-93806300D01*
X143060000Y-93806300D01*
X143057000Y-93807300D01*
X143055000Y-93807300D01*
X143052000Y-93807300D01*
X142452000Y-93807300D01*
X142449000Y-93807300D01*
X142447000Y-93807300D01*
X142444000Y-93806300D01*
X142442000Y-93806300D01*
X142439000Y-93805300D01*
X142437000Y-93805300D01*
X142434000Y-93804300D01*
X142432000Y-93803300D01*
X142429000Y-93802300D01*
X142427000Y-93800300D01*
X142425000Y-93799300D01*
X142423000Y-93797300D01*
X142421000Y-93796300D01*
X142419000Y-93794300D01*
X142417000Y-93792300D01*
X142415000Y-93790300D01*
X142413000Y-93788300D01*
X142412000Y-93786300D01*
X142410000Y-93784300D01*
X142409000Y-93782300D01*
X142407000Y-93780300D01*
X142406000Y-93777300D01*
X142405000Y-93775300D01*
X142404000Y-93772300D01*
X142404000Y-93770300D01*
X142403000Y-93767300D01*
X142403000Y-93765300D01*
X142402000Y-93762300D01*
X142402000Y-93760300D01*
X142402000Y-93757300D01*
X142402000Y-92957300D01*
X142402000Y-92954300D01*
X142402000Y-92952300D01*
X142403000Y-92949300D01*
X142403000Y-92947300D01*
X142404000Y-92944300D01*
X142404000Y-92942300D01*
X142405000Y-92939300D01*
X142406000Y-92937300D01*
X142407000Y-92934300D01*
X142409000Y-92932300D01*
X142410000Y-92930300D01*
X142412000Y-92928300D01*
X142413000Y-92926300D01*
X142415000Y-92924300D01*
X142417000Y-92922300D01*
X142419000Y-92920300D01*
X142421000Y-92918300D01*
X142423000Y-92917300D01*
X142425000Y-92915300D01*
X142427000Y-92914300D01*
X142429000Y-92912300D01*
X142432000Y-92911300D01*
X142434000Y-92910300D01*
X142437000Y-92909300D01*
X142439000Y-92909300D01*
X142442000Y-92908300D01*
X142444000Y-92908300D01*
X142447000Y-92907300D01*
X142449000Y-92907300D01*
X142452000Y-92907300D01*
X143052000Y-92907300D01*
X143055000Y-92907300D01*
X143057000Y-92907300D01*
X143060000Y-92908300D01*
G37*
D11*
X131454500Y-92372300D03*
X130954500Y-92372300D03*
X130454500Y-92372300D03*
X129954500Y-92372300D03*
X129954500Y-94342300D03*
X130454500Y-94342300D03*
X130954500Y-94342300D03*
X131454500Y-94342300D03*
D12*
X147302000Y-78799800D03*
X145652000Y-78799800D03*
D13*
X121087000Y-89259800D03*
X122637000Y-89259800D03*
D14*
X107027000Y-89349800D03*
X104077000Y-89349800D03*
D15*
X143292000Y-68244800D03*
X143292000Y-66694800D03*
D11*
X159802000Y-76082300D03*
X159302000Y-76082300D03*
X158802000Y-76082300D03*
X158302000Y-76082300D03*
X158302000Y-78052300D03*
X158802000Y-78052300D03*
X159302000Y-78052300D03*
X159802000Y-78052300D03*
D13*
X159917000Y-72989800D03*
X161467000Y-72989800D03*
D14*
X118247000Y-88899800D03*
X115297000Y-88899800D03*
X156977000Y-80149800D03*
X154027000Y-80149800D03*
D16*
X151422000Y-86399800D03*
X151422000Y-88049800D03*
D12*
X111597000Y-78339800D03*
X109947000Y-78339800D03*
D17*
X144689500Y-68619800D03*
X144689500Y-69119800D03*
X144689500Y-69619800D03*
X144689500Y-70119800D03*
X146659500Y-70119800D03*
X146659500Y-69619800D03*
X146659500Y-69119800D03*
X146659500Y-68619800D03*
D13*
X143172000Y-89309800D03*
X144722000Y-89309800D03*
D14*
X118002000Y-97059800D03*
X115052000Y-97059800D03*
D13*
X109657000Y-71539800D03*
X111207000Y-71539800D03*
D18*
X149632000Y-91584800D03*
X149632000Y-89934800D03*
D14*
X106672000Y-97049800D03*
X103722000Y-97049800D03*
D19*
X149452000Y-71724800D03*
X149452000Y-74674800D03*
X141252000Y-71324800D03*
X141252000Y-74274800D03*
D11*
X120992000Y-92382300D03*
X120492000Y-92382300D03*
X119992000Y-92382300D03*
X119492000Y-92382300D03*
X119492000Y-94352300D03*
X119992000Y-94352300D03*
X120492000Y-94352300D03*
X120992000Y-94352300D03*
D12*
X144797000Y-97029800D03*
X143147000Y-97029800D03*
X111617000Y-97059800D03*
X109967000Y-97059800D03*
D14*
X157492000Y-72559800D03*
X154542000Y-72559800D03*
D12*
X144252000Y-78799800D03*
X142602000Y-78799800D03*
D13*
X156077000Y-98099800D03*
X157627000Y-98099800D03*
D14*
X140072000Y-97029800D03*
X137122000Y-97029800D03*
X107927000Y-71139800D03*
X104977000Y-71139800D03*
D13*
X131447000Y-89319800D03*
X132997000Y-89319800D03*
D16*
X154512000Y-86409800D03*
X154512000Y-88059800D03*
D20*
X118327000Y-90949800D03*
X116777000Y-90949800D03*
D16*
X156062000Y-86419800D03*
X156062000Y-88069800D03*
D11*
X109642000Y-74542300D03*
X109142000Y-74542300D03*
X108642000Y-74542300D03*
X108142000Y-74542300D03*
X108142000Y-76512300D03*
X108642000Y-76512300D03*
X109142000Y-76512300D03*
X109642000Y-76512300D03*
D20*
X108077000Y-73129800D03*
X106527000Y-73129800D03*
D14*
X140022000Y-88649800D03*
X137072000Y-88649800D03*
X128502000Y-88669800D03*
X125552000Y-88669800D03*
X128282000Y-97079800D03*
X125332000Y-97079800D03*
D16*
X149002000Y-67249800D03*
X149002000Y-68899800D03*
D21*
X143382000Y-71149800D03*
X143382000Y-72699800D03*
D11*
X109752000Y-92382300D03*
X109252000Y-92382300D03*
X108752000Y-92382300D03*
X108252000Y-92382300D03*
X108252000Y-94352300D03*
X108752000Y-94352300D03*
X109252000Y-94352300D03*
X109752000Y-94352300D03*
D20*
X106974239Y-91332724D03*
X105424239Y-91332724D03*
X128602000Y-90699800D03*
X127052000Y-90699800D03*
D13*
X109862000Y-89309800D03*
X111412000Y-89309800D03*
D12*
X122677000Y-97079800D03*
X121027000Y-97079800D03*
D20*
X140102000Y-90699800D03*
X138552000Y-90699800D03*
D14*
X106752000Y-78249800D03*
X103802000Y-78249800D03*
D18*
X149902000Y-88039800D03*
X149902000Y-86389800D03*
D12*
X161877000Y-79649800D03*
X160227000Y-79649800D03*
D20*
X157502000Y-74599800D03*
X155952000Y-74599800D03*
D11*
X143052000Y-92372300D03*
X142552000Y-92372300D03*
X142052000Y-92372300D03*
X141552000Y-92372300D03*
X141552000Y-94342300D03*
X142052000Y-94342300D03*
X142552000Y-94342300D03*
X143052000Y-94342300D03*
D12*
X133157000Y-97089800D03*
X131507000Y-97089800D03*
D22*
X98349000Y-49000000D02*
X166000000Y-49000000D01*
X166000000Y-118000000D01*
X98349000Y-118000000D01*
X98349000Y-49000000D01*
M02*
