%TF.GenerationSoftware,KiCad,Pcbnew,9.0.0*%
%TF.CreationDate,2026-01-23T14:52:09+07:00*%
%TF.ProjectId,Connector_Extension_Board_V1.0,436f6e6e-6563-4746-9f72-5f457874656e,rev?*%
%TF.SameCoordinates,Original*%
%TF.FileFunction,Copper,L4,Bot*%
%TF.FilePolarity,Positive*%
%FSLAX46Y46*%
G04 Gerber Fmt 4.6, Leading zero omitted, Abs format (unit mm)*
G04 Created by KiCad (PCBNEW 9.0.0) date 2026-01-23 14:52:09*
%MOMM*%
%LPD*%
G01*
G04 APERTURE LIST*
%TA.AperFunction,ComponentPad*%
%ADD10C,2.000000*%
%TD*%
%TA.AperFunction,ComponentPad*%
%ADD11C,5.800000*%
%TD*%
%TA.AperFunction,ComponentPad*%
%ADD12R,1.780000X1.780000*%
%TD*%
%TA.AperFunction,ComponentPad*%
%ADD13C,1.750000*%
%TD*%
%TA.AperFunction,ComponentPad*%
%ADD14C,0.500000*%
%TD*%
%TA.AperFunction,ComponentPad*%
%ADD15R,2.000000X2.000000*%
%TD*%
%TA.AperFunction,ComponentPad*%
%ADD16C,2.260600*%
%TD*%
%TA.AperFunction,ComponentPad*%
%ADD17R,1.520000X1.520000*%
%TD*%
%TA.AperFunction,ComponentPad*%
%ADD18C,1.520000*%
%TD*%
%TA.AperFunction,ViaPad*%
%ADD19C,0.500000*%
%TD*%
%TA.AperFunction,Conductor*%
%ADD20C,0.200000*%
%TD*%
%TA.AperFunction,Profile*%
%ADD21C,0.100000*%
%TD*%
G04 APERTURE END LIST*
D10*
X102562000Y-87249800D03*
D11*
X103500000Y-114500000D03*
X162500000Y-114500000D03*
D12*
X121343875Y-105129050D03*
D13*
X118803875Y-105129050D03*
D10*
X160962000Y-87749800D03*
D14*
X155182000Y-91919800D03*
X153982000Y-91919800D03*
X152782000Y-91919800D03*
X151582000Y-91919800D03*
X155182000Y-93119800D03*
X153982000Y-93119800D03*
X152782000Y-93119800D03*
X151582000Y-93119800D03*
X155182000Y-94319800D03*
X153982000Y-94319800D03*
X152782000Y-94319800D03*
X151582000Y-94319800D03*
D15*
X140307625Y-104549800D03*
D10*
X143807625Y-104549800D03*
D16*
X137807625Y-112459800D03*
X146307625Y-112459800D03*
D11*
X113000000Y-52500000D03*
D15*
X156392000Y-62349800D03*
D10*
X152892000Y-62349800D03*
D16*
X158892000Y-54439800D03*
X150392000Y-54439800D03*
D10*
X160962000Y-83789800D03*
D15*
X151762000Y-104549800D03*
D10*
X155262000Y-104549800D03*
D16*
X149262000Y-112459800D03*
X157762000Y-112459800D03*
D15*
X128853250Y-104549800D03*
D10*
X132353250Y-104549800D03*
D16*
X126353250Y-112459800D03*
X134853250Y-112459800D03*
D12*
X112314500Y-105129050D03*
D13*
X109774500Y-105129050D03*
D10*
X102562000Y-83289800D03*
D17*
X124252000Y-57389800D03*
D18*
X127252000Y-57389800D03*
X130252000Y-57389800D03*
D19*
X127327000Y-93549800D03*
X120702000Y-93349800D03*
X132802000Y-56449800D03*
X128077000Y-92799800D03*
X107302000Y-102949800D03*
X133853250Y-102949800D03*
X135353250Y-105949800D03*
X128077000Y-93549800D03*
X116952000Y-92799800D03*
X108052000Y-104449800D03*
X157252000Y-77247300D03*
X156802000Y-102949800D03*
X145852000Y-71924800D03*
X132802000Y-54199800D03*
X108052000Y-102949800D03*
X116302000Y-105199800D03*
X145677000Y-69949800D03*
X134603250Y-104449800D03*
X157552000Y-104449800D03*
X146002000Y-67749800D03*
X134603250Y-103699800D03*
X143052000Y-102949800D03*
X116302000Y-104449800D03*
X127327000Y-92799800D03*
X146802000Y-105199800D03*
X109477000Y-93349800D03*
X112152000Y-93699800D03*
X111402000Y-93699800D03*
X145252000Y-66999800D03*
X146002000Y-66999800D03*
X135353250Y-103699800D03*
X141652000Y-93349800D03*
X132052000Y-58699800D03*
X122627000Y-93699800D03*
X107227000Y-92799800D03*
X145252000Y-66249800D03*
X130052000Y-93374800D03*
X144552000Y-102949800D03*
X107127000Y-75699800D03*
X134603250Y-105949800D03*
X116302000Y-103699800D03*
X143852000Y-93674800D03*
X119677000Y-93374800D03*
X157552000Y-105199800D03*
X112152000Y-92949800D03*
X110552000Y-75849800D03*
X160677000Y-77397300D03*
X132802000Y-58699800D03*
X122627000Y-92949800D03*
X144602000Y-93674800D03*
X138927000Y-93524800D03*
X146802000Y-103699800D03*
X108452000Y-93374800D03*
X131077000Y-93349800D03*
X133752000Y-92949800D03*
X135353250Y-104449800D03*
X132802000Y-57949800D03*
X107302000Y-105949800D03*
X145102000Y-71924800D03*
X108052000Y-105199800D03*
X146802000Y-105949800D03*
X158302000Y-102949800D03*
X145852000Y-71174800D03*
X146002000Y-66249800D03*
X158302000Y-105199800D03*
X121877000Y-92949800D03*
X106477000Y-92799800D03*
X132802000Y-57199800D03*
X107127000Y-74949800D03*
X162177000Y-76647300D03*
X132802000Y-55699800D03*
X105627000Y-75699800D03*
X116302000Y-105949800D03*
X135353250Y-105199800D03*
X132802000Y-59449800D03*
X158302000Y-103699800D03*
X132252000Y-92949800D03*
X145352000Y-93674800D03*
X110552000Y-75099800D03*
X142677000Y-93324800D03*
X157552000Y-102949800D03*
X134603250Y-105199800D03*
X111302000Y-75849800D03*
X134603250Y-102949800D03*
X112052000Y-75099800D03*
X105727000Y-93549800D03*
X157552000Y-105949800D03*
X140427000Y-92774800D03*
X145252000Y-67749800D03*
X132052000Y-54199800D03*
X146052000Y-104449800D03*
X160677000Y-76647300D03*
X156502000Y-76497300D03*
X105727000Y-92799800D03*
X145302000Y-102949800D03*
X110652000Y-93699800D03*
X117052000Y-104449800D03*
X106477000Y-93549800D03*
X128827000Y-92799800D03*
X145352000Y-92924800D03*
X121877000Y-93699800D03*
X161427000Y-76647300D03*
X146802000Y-104449800D03*
X158477000Y-77072300D03*
X143802000Y-102949800D03*
X107302000Y-104449800D03*
X158302000Y-104449800D03*
X132052000Y-55699800D03*
X112052000Y-75849800D03*
X105627000Y-74949800D03*
X111302000Y-75099800D03*
X162177000Y-77397300D03*
X154552000Y-102949800D03*
X108352000Y-75524800D03*
X161427000Y-77397300D03*
X106377000Y-75699800D03*
X138927000Y-92774800D03*
X108052000Y-105949800D03*
X146052000Y-103699800D03*
X117052000Y-103699800D03*
X132052000Y-57949800D03*
X132802000Y-54949800D03*
X128827000Y-93549800D03*
X131603250Y-102949800D03*
X156502000Y-77247300D03*
X146802000Y-102949800D03*
X123377000Y-93699800D03*
X132052000Y-54949800D03*
X132052000Y-60199800D03*
X111402000Y-92949800D03*
X155302000Y-102949800D03*
X143852000Y-92924800D03*
X145852000Y-72674800D03*
X155752000Y-77247300D03*
X155752000Y-76497300D03*
X116952000Y-93549800D03*
X132052000Y-59449800D03*
X140427000Y-93524800D03*
X145102000Y-72674800D03*
X146052000Y-105949800D03*
X157252000Y-76497300D03*
X117052000Y-102949800D03*
X132802000Y-60199800D03*
X133103250Y-102949800D03*
X106377000Y-74949800D03*
X159502000Y-77047300D03*
X117702000Y-92799800D03*
X157552000Y-103699800D03*
X139677000Y-92774800D03*
X132353250Y-102949800D03*
X133752000Y-93699800D03*
X107302000Y-103699800D03*
X109377000Y-75499800D03*
X107227000Y-93549800D03*
X117052000Y-105199800D03*
X118452000Y-92799800D03*
X110652000Y-92949800D03*
X135353250Y-102949800D03*
X158302000Y-105949800D03*
X117702000Y-93549800D03*
X118452000Y-93549800D03*
X139677000Y-93524800D03*
X146052000Y-105199800D03*
X145652000Y-68924800D03*
X133002000Y-93699800D03*
X123377000Y-92949800D03*
X145102000Y-71174800D03*
X108052000Y-103699800D03*
X107302000Y-105199800D03*
X133002000Y-92949800D03*
X116302000Y-102949800D03*
X132252000Y-93699800D03*
X144602000Y-92924800D03*
X132052000Y-57199800D03*
X132052000Y-56449800D03*
X156052000Y-102949800D03*
X146052000Y-102949800D03*
X117052000Y-105949800D03*
X129454500Y-84949800D03*
X158052000Y-100199800D03*
X156552000Y-100949800D03*
X127302000Y-63199800D03*
X126552000Y-66199800D03*
X138802000Y-70449800D03*
X138052000Y-71199800D03*
X142552000Y-86449800D03*
X161302000Y-69949800D03*
X139552000Y-84949800D03*
X139552000Y-68199800D03*
X127302000Y-60949800D03*
X126552000Y-61699800D03*
X138427000Y-50749800D03*
X159052000Y-70699800D03*
X126552000Y-59449800D03*
X126552000Y-63949800D03*
X160552000Y-69949800D03*
X126552000Y-64699800D03*
X138802000Y-68199800D03*
X138052000Y-70449800D03*
X141802000Y-86449800D03*
X159552000Y-99449800D03*
X137572000Y-50749800D03*
X139552000Y-68949800D03*
X161302000Y-69199800D03*
X130204500Y-85699800D03*
X130204500Y-84949800D03*
X160552000Y-69199800D03*
X128052000Y-65449800D03*
X128052000Y-63199800D03*
X129454500Y-86449800D03*
X128704500Y-86449800D03*
X139552000Y-70449800D03*
X128052000Y-61699800D03*
X160552000Y-70699800D03*
X159802000Y-70699800D03*
X155802000Y-100949800D03*
X159552000Y-100199800D03*
X128052000Y-59449800D03*
X141052000Y-84949800D03*
X127302000Y-62449800D03*
X139552000Y-85699800D03*
X141802000Y-84949800D03*
X141802000Y-85699800D03*
X139552000Y-86449800D03*
X130954500Y-86449800D03*
X155802000Y-100199800D03*
X128052000Y-62449800D03*
X156552000Y-99449800D03*
X142552000Y-85699800D03*
X138802000Y-71199800D03*
X127954500Y-85699800D03*
X130954500Y-85699800D03*
X158802000Y-99449800D03*
X142552000Y-84949800D03*
X158052000Y-99449800D03*
X127302000Y-65449800D03*
X154302000Y-99449800D03*
X127302000Y-66199800D03*
X138052000Y-68949800D03*
X139552000Y-69699800D03*
X129454500Y-85699800D03*
X140302000Y-85699800D03*
X140302000Y-84949800D03*
X159552000Y-100949800D03*
X159802000Y-69199800D03*
X158302000Y-69949800D03*
X140302000Y-86449800D03*
X158302000Y-69199800D03*
X158802000Y-100949800D03*
X127954500Y-84949800D03*
X130954500Y-84949800D03*
X159052000Y-69199800D03*
X138802000Y-69699800D03*
X139552000Y-71199800D03*
X127302000Y-59449800D03*
X157302000Y-100949800D03*
X126552000Y-65449800D03*
X128704500Y-85699800D03*
X127302000Y-60199800D03*
X126552000Y-60949800D03*
X155052000Y-100199800D03*
X138802000Y-68949800D03*
X130204500Y-86449800D03*
X141052000Y-85699800D03*
X158802000Y-100199800D03*
X138052000Y-68199800D03*
X128052000Y-64699800D03*
X155052000Y-100949800D03*
X127302000Y-64699800D03*
X128052000Y-60949800D03*
X128052000Y-66199800D03*
X161302000Y-70699800D03*
X141052000Y-86449800D03*
X127302000Y-61699800D03*
X138052000Y-69699800D03*
X126552000Y-62449800D03*
X157302000Y-100199800D03*
X156552000Y-100199800D03*
X128704500Y-84949800D03*
X159052000Y-69949800D03*
X127954500Y-86449800D03*
X154302000Y-100199800D03*
X126552000Y-60199800D03*
X155802000Y-99449800D03*
X158302000Y-70699800D03*
X126552000Y-63199800D03*
X154302000Y-100949800D03*
X158052000Y-100949800D03*
X155052000Y-99449800D03*
X159802000Y-69949800D03*
X128052000Y-60199800D03*
X128052000Y-63949800D03*
X157302000Y-99449800D03*
X127302000Y-63949800D03*
X121052000Y-60199800D03*
X121052000Y-57949800D03*
X106302000Y-69199800D03*
X107802000Y-85239800D03*
X119552000Y-60199800D03*
X105552000Y-69199800D03*
X119552000Y-59449800D03*
X121052000Y-56449800D03*
X119742000Y-84959800D03*
X106302000Y-68449800D03*
X118992000Y-85709800D03*
X108552000Y-85239800D03*
X119552000Y-61699800D03*
X119742000Y-85709800D03*
X120492000Y-85709800D03*
X118992000Y-86459800D03*
X119552000Y-60949800D03*
X108552000Y-69199800D03*
X120302000Y-58699800D03*
X120302000Y-60949800D03*
X120302000Y-59449800D03*
X118992000Y-84959800D03*
X121052000Y-61699800D03*
X109302000Y-85239800D03*
X117492000Y-84959800D03*
X118242000Y-85709800D03*
X117492000Y-85709800D03*
X118242000Y-84959800D03*
X107052000Y-85989800D03*
X106302000Y-86739800D03*
X107052000Y-85239800D03*
X107802000Y-68449800D03*
X108552000Y-67699800D03*
X109302000Y-86739800D03*
X106302000Y-85239800D03*
X119552000Y-57949800D03*
X108552000Y-86739800D03*
X121052000Y-57199800D03*
X120302000Y-57199800D03*
X120302000Y-60199800D03*
X105552000Y-67699800D03*
X118242000Y-86459800D03*
X119552000Y-58699800D03*
X117492000Y-86459800D03*
X120302000Y-61699800D03*
X119552000Y-56449800D03*
X121052000Y-59449800D03*
X121052000Y-60949800D03*
X108552000Y-68449800D03*
X106302000Y-85989800D03*
X152962000Y-85699800D03*
X120302000Y-56449800D03*
X120302000Y-57949800D03*
X105552000Y-68449800D03*
X107052000Y-68449800D03*
X120492000Y-86459800D03*
X109302000Y-85989800D03*
X121052000Y-58699800D03*
X107052000Y-86739800D03*
X120492000Y-84959800D03*
X107802000Y-85989800D03*
X107052000Y-67699800D03*
X107802000Y-69199800D03*
X119742000Y-86459800D03*
X107802000Y-67699800D03*
X119552000Y-57199800D03*
X108552000Y-85989800D03*
X106302000Y-67699800D03*
X107802000Y-86739800D03*
X107052000Y-69199800D03*
X152552000Y-97699800D03*
X151802000Y-97699800D03*
X152552000Y-99949800D03*
X151052000Y-102199800D03*
X152552000Y-100699800D03*
X151802000Y-99199800D03*
X152552000Y-99199800D03*
X152552000Y-98449800D03*
X151802000Y-101449800D03*
X150302000Y-102199800D03*
X151802000Y-100699800D03*
X152552000Y-102199800D03*
X151802000Y-99949800D03*
X151052000Y-101449800D03*
X151802000Y-98449800D03*
X150302000Y-101449800D03*
X151802000Y-102199800D03*
X150302000Y-100699800D03*
X151052000Y-100699800D03*
X152552000Y-101449800D03*
X131279500Y-90499800D03*
X139954500Y-54872300D03*
X139952000Y-55649800D03*
X151377000Y-85049800D03*
X141752000Y-68774800D03*
X142877000Y-90499800D03*
X159527000Y-74474800D03*
X154502000Y-85099800D03*
D20*
X144302000Y-86449800D02*
X144302000Y-90199800D01*
X145052000Y-85699800D02*
X144302000Y-86449800D01*
X122812000Y-85709800D02*
X120492000Y-85709800D01*
X144302000Y-90199800D02*
X143052000Y-91449800D01*
X152962000Y-85699800D02*
X145052000Y-85699800D01*
X128552000Y-91449800D02*
X122812000Y-85709800D01*
X143052000Y-91449800D02*
X128552000Y-91449800D01*
X143327000Y-74924800D02*
X143327000Y-76999800D01*
X142877000Y-90499800D02*
X143327000Y-90049800D01*
X151377000Y-85049800D02*
X154452000Y-85049800D01*
X150917000Y-74474800D02*
X159527000Y-74474800D01*
X141752000Y-62974800D02*
X141752000Y-68774800D01*
X139954500Y-54972300D02*
X139952000Y-54974800D01*
X143327000Y-76999800D02*
X143327000Y-85049800D01*
X139952000Y-61174800D02*
X141752000Y-62974800D01*
X139954500Y-54872300D02*
X139954500Y-54972300D01*
X154452000Y-85049800D02*
X154502000Y-85099800D01*
X141752000Y-73349800D02*
X143327000Y-74924800D01*
X143327000Y-85049800D02*
X151377000Y-85049800D01*
X143327000Y-90049800D02*
X143327000Y-76999800D01*
X131279500Y-90499800D02*
X142877000Y-90499800D01*
X139952000Y-54974800D02*
X139952000Y-61174800D01*
X150467000Y-74924800D02*
X150917000Y-74474800D01*
X143327000Y-74924800D02*
X150467000Y-74924800D01*
X141752000Y-68774800D02*
X141752000Y-73349800D01*
%TA.AperFunction,Conductor*%
G36*
X125017677Y-55419485D02*
G01*
X125038319Y-55436119D01*
X125090681Y-55488481D01*
X125124166Y-55549804D01*
X125127000Y-55576162D01*
X125127000Y-60048438D01*
X125107315Y-60115477D01*
X125090681Y-60136119D01*
X123188319Y-62038481D01*
X123126996Y-62071966D01*
X123100638Y-62074800D01*
X119228362Y-62074800D01*
X119161323Y-62055115D01*
X119140681Y-62038481D01*
X118963319Y-61861119D01*
X118929834Y-61799796D01*
X118927000Y-61773438D01*
X118927000Y-56276162D01*
X118946685Y-56209123D01*
X118963319Y-56188481D01*
X119715681Y-55436119D01*
X119777004Y-55402634D01*
X119803362Y-55399800D01*
X124950638Y-55399800D01*
X125017677Y-55419485D01*
G37*
%TD.AperFunction*%
%TA.AperFunction,Conductor*%
G36*
X128567677Y-55469485D02*
G01*
X128588319Y-55486119D01*
X128765681Y-55663481D01*
X128799166Y-55724804D01*
X128802000Y-55751162D01*
X128802000Y-61839800D01*
X129265681Y-62303481D01*
X129299166Y-62364804D01*
X129302000Y-62391162D01*
X129302000Y-66398438D01*
X129282315Y-66465477D01*
X129265681Y-66486119D01*
X128588319Y-67163481D01*
X128526996Y-67196966D01*
X128500638Y-67199800D01*
X126353362Y-67199800D01*
X126286323Y-67180115D01*
X126265681Y-67163481D01*
X125838319Y-66736119D01*
X125804834Y-66674796D01*
X125802000Y-66648438D01*
X125802000Y-55751162D01*
X125821685Y-55684123D01*
X125838319Y-55663481D01*
X126015681Y-55486119D01*
X126077004Y-55452634D01*
X126103362Y-55449800D01*
X128500638Y-55449800D01*
X128567677Y-55469485D01*
G37*
%TD.AperFunction*%
%TA.AperFunction,Conductor*%
G36*
X152900039Y-95289485D02*
G01*
X152945794Y-95342289D01*
X152957000Y-95393800D01*
X152957000Y-105618438D01*
X152937315Y-105685477D01*
X152920681Y-105706119D01*
X152663319Y-105963481D01*
X152601996Y-105996966D01*
X152575638Y-105999800D01*
X150128362Y-105999800D01*
X150061323Y-105980115D01*
X150040681Y-105963481D01*
X149413319Y-105336119D01*
X149379834Y-105274796D01*
X149377000Y-105248438D01*
X149377000Y-99501162D01*
X149396685Y-99434123D01*
X149413319Y-99413481D01*
X151857000Y-96969800D01*
X151857000Y-95393800D01*
X151876685Y-95326761D01*
X151929489Y-95281006D01*
X151981000Y-95269800D01*
X152833000Y-95269800D01*
X152900039Y-95289485D01*
G37*
%TD.AperFunction*%
%TA.AperFunction,Conductor*%
G36*
X110699882Y-49520185D02*
G01*
X110745637Y-49572989D01*
X110755581Y-49642147D01*
X110726556Y-49705703D01*
X110711508Y-49720353D01*
X110579130Y-49828992D01*
X110328992Y-50079130D01*
X110104568Y-50352592D01*
X110104558Y-50352606D01*
X109908028Y-50646734D01*
X109908017Y-50646752D01*
X109741264Y-50958723D01*
X109741262Y-50958728D01*
X109605882Y-51285563D01*
X109503188Y-51624104D01*
X109503185Y-51624115D01*
X109434176Y-51971053D01*
X109434173Y-51971070D01*
X109407317Y-52243748D01*
X109399500Y-52323119D01*
X109399500Y-52676881D01*
X109406461Y-52747559D01*
X109434173Y-53028929D01*
X109434176Y-53028946D01*
X109503185Y-53375884D01*
X109503188Y-53375895D01*
X109605882Y-53714436D01*
X109662054Y-53850046D01*
X109736585Y-54029981D01*
X109741262Y-54041271D01*
X109741264Y-54041276D01*
X109908017Y-54353247D01*
X109908028Y-54353265D01*
X110104558Y-54647393D01*
X110104568Y-54647407D01*
X110328992Y-54920869D01*
X110579130Y-55171007D01*
X110579135Y-55171011D01*
X110579136Y-55171012D01*
X110852598Y-55395436D01*
X111146741Y-55591976D01*
X111146750Y-55591981D01*
X111146752Y-55591982D01*
X111458723Y-55758735D01*
X111458725Y-55758735D01*
X111458731Y-55758739D01*
X111785565Y-55894118D01*
X112124095Y-55996809D01*
X112124101Y-55996810D01*
X112124104Y-55996811D01*
X112124115Y-55996814D01*
X112341674Y-56040088D01*
X112471060Y-56065825D01*
X112823119Y-56100500D01*
X112823122Y-56100500D01*
X113176878Y-56100500D01*
X113176881Y-56100500D01*
X113528940Y-56065825D01*
X113700679Y-56031663D01*
X113875884Y-55996814D01*
X113875895Y-55996811D01*
X113875895Y-55996810D01*
X113875905Y-55996809D01*
X114214435Y-55894118D01*
X114541269Y-55758739D01*
X114853259Y-55591976D01*
X115147402Y-55395436D01*
X115420864Y-55171012D01*
X115671012Y-54920864D01*
X115895436Y-54647402D01*
X116091976Y-54353259D01*
X116258739Y-54041269D01*
X116394118Y-53714435D01*
X116496809Y-53375905D01*
X116496811Y-53375895D01*
X116496814Y-53375884D01*
X116531663Y-53200679D01*
X116565825Y-53028940D01*
X116600500Y-52676881D01*
X116600500Y-52323119D01*
X116565825Y-51971060D01*
X116540088Y-51841674D01*
X116496814Y-51624115D01*
X116496811Y-51624104D01*
X116496810Y-51624101D01*
X116496809Y-51624095D01*
X116394118Y-51285565D01*
X116258739Y-50958731D01*
X116097021Y-50656179D01*
X136621500Y-50656179D01*
X136621500Y-50843420D01*
X136658025Y-51027043D01*
X136658027Y-51027051D01*
X136729676Y-51200028D01*
X136729681Y-51200037D01*
X136833697Y-51355707D01*
X136833700Y-51355711D01*
X136966088Y-51488099D01*
X136966092Y-51488102D01*
X137121762Y-51592118D01*
X137121768Y-51592121D01*
X137121769Y-51592122D01*
X137294749Y-51663773D01*
X137478379Y-51700299D01*
X137478383Y-51700300D01*
X137478384Y-51700300D01*
X137665617Y-51700300D01*
X137665618Y-51700299D01*
X137849251Y-51663773D01*
X137952050Y-51621191D01*
X138021515Y-51613723D01*
X138046942Y-51621188D01*
X138149749Y-51663773D01*
X138333379Y-51700299D01*
X138333383Y-51700300D01*
X138333384Y-51700300D01*
X138520617Y-51700300D01*
X138520618Y-51700299D01*
X138704251Y-51663773D01*
X138877231Y-51592122D01*
X139032908Y-51488102D01*
X139165302Y-51355708D01*
X139269322Y-51200031D01*
X139340973Y-51027051D01*
X139377500Y-50843416D01*
X139377500Y-50656184D01*
X139340973Y-50472549D01*
X139269322Y-50299569D01*
X139269321Y-50299568D01*
X139269318Y-50299562D01*
X139165302Y-50143892D01*
X139165299Y-50143888D01*
X139032911Y-50011500D01*
X139032907Y-50011497D01*
X138877237Y-49907481D01*
X138877228Y-49907476D01*
X138704251Y-49835827D01*
X138704243Y-49835825D01*
X138520620Y-49799300D01*
X138520616Y-49799300D01*
X138333384Y-49799300D01*
X138333379Y-49799300D01*
X138149756Y-49835825D01*
X138149744Y-49835828D01*
X138046952Y-49878406D01*
X137977483Y-49885875D01*
X137952048Y-49878406D01*
X137849255Y-49835828D01*
X137849243Y-49835825D01*
X137665620Y-49799300D01*
X137665616Y-49799300D01*
X137478384Y-49799300D01*
X137478379Y-49799300D01*
X137294756Y-49835825D01*
X137294748Y-49835827D01*
X137121771Y-49907476D01*
X137121762Y-49907481D01*
X136966092Y-50011497D01*
X136966088Y-50011500D01*
X136833700Y-50143888D01*
X136833697Y-50143892D01*
X136729681Y-50299562D01*
X136729676Y-50299571D01*
X136658027Y-50472548D01*
X136658025Y-50472556D01*
X136621500Y-50656179D01*
X116097021Y-50656179D01*
X116091976Y-50646741D01*
X115895436Y-50352598D01*
X115671012Y-50079136D01*
X115671011Y-50079135D01*
X115671007Y-50079130D01*
X115420869Y-49828992D01*
X115288492Y-49720353D01*
X115249158Y-49662608D01*
X115247287Y-49592763D01*
X115283475Y-49532995D01*
X115346230Y-49502279D01*
X115367157Y-49500500D01*
X165375500Y-49500500D01*
X165442539Y-49520185D01*
X165488294Y-49572989D01*
X165499500Y-49624500D01*
X165499500Y-112132843D01*
X165479815Y-112199882D01*
X165427011Y-112245637D01*
X165357853Y-112255581D01*
X165294297Y-112226556D01*
X165279647Y-112211508D01*
X165171007Y-112079130D01*
X164920869Y-111828992D01*
X164647407Y-111604568D01*
X164647406Y-111604567D01*
X164647402Y-111604564D01*
X164353259Y-111408024D01*
X164353254Y-111408021D01*
X164353247Y-111408017D01*
X164041276Y-111241264D01*
X164041271Y-111241262D01*
X163714436Y-111105882D01*
X163375895Y-111003188D01*
X163375884Y-111003185D01*
X163028946Y-110934176D01*
X163028929Y-110934173D01*
X162762700Y-110907952D01*
X162676881Y-110899500D01*
X162323119Y-110899500D01*
X162243748Y-110907317D01*
X161971070Y-110934173D01*
X161971053Y-110934176D01*
X161624115Y-111003185D01*
X161624104Y-111003188D01*
X161285563Y-111105882D01*
X160958728Y-111241262D01*
X160958723Y-111241264D01*
X160646752Y-111408017D01*
X160646734Y-111408028D01*
X160352606Y-111604558D01*
X160352592Y-111604568D01*
X160079130Y-111828992D01*
X159828991Y-112079131D01*
X159775873Y-112143855D01*
X159718127Y-112183189D01*
X159648283Y-112185058D01*
X159588515Y-112148870D01*
X159560247Y-112097284D01*
X159499359Y-111870046D01*
X159407518Y-111648321D01*
X159287521Y-111440480D01*
X159169460Y-111286620D01*
X159141423Y-111250081D01*
X159141417Y-111250074D01*
X158971725Y-111080382D01*
X158971718Y-111080376D01*
X158781324Y-110934282D01*
X158781323Y-110934281D01*
X158781320Y-110934279D01*
X158573479Y-110814282D01*
X158573472Y-110814279D01*
X158351756Y-110722441D01*
X158235846Y-110691383D01*
X158119938Y-110660326D01*
X158067062Y-110653364D01*
X157882004Y-110629000D01*
X157881997Y-110629000D01*
X157642003Y-110629000D01*
X157641995Y-110629000D01*
X157430499Y-110656845D01*
X157404062Y-110660326D01*
X157346108Y-110675854D01*
X157172243Y-110722441D01*
X156950527Y-110814279D01*
X156950518Y-110814283D01*
X156802919Y-110899500D01*
X156742859Y-110934176D01*
X156742675Y-110934282D01*
X156552281Y-111080376D01*
X156552274Y-111080382D01*
X156382582Y-111250074D01*
X156382576Y-111250081D01*
X156236482Y-111440475D01*
X156116483Y-111648318D01*
X156116479Y-111648327D01*
X156024641Y-111870043D01*
X155978054Y-112043908D01*
X155968616Y-112079136D01*
X155962526Y-112101863D01*
X155931200Y-112339795D01*
X155931200Y-112579804D01*
X155944119Y-112677926D01*
X155962526Y-112817738D01*
X155993583Y-112933646D01*
X156024641Y-113049556D01*
X156116479Y-113271272D01*
X156116482Y-113271279D01*
X156236479Y-113479120D01*
X156236481Y-113479123D01*
X156236482Y-113479124D01*
X156382576Y-113669518D01*
X156382582Y-113669525D01*
X156552274Y-113839217D01*
X156552280Y-113839222D01*
X156742680Y-113985321D01*
X156950521Y-114105318D01*
X157045555Y-114144682D01*
X157172243Y-114197158D01*
X157172244Y-114197158D01*
X157172246Y-114197159D01*
X157404062Y-114259274D01*
X157642003Y-114290600D01*
X157642010Y-114290600D01*
X157881990Y-114290600D01*
X157881997Y-114290600D01*
X158119938Y-114259274D01*
X158351754Y-114197159D01*
X158573479Y-114105318D01*
X158732840Y-114013310D01*
X158800735Y-113996839D01*
X158866762Y-114019691D01*
X158909953Y-114074612D01*
X158918239Y-114132853D01*
X158908150Y-114235298D01*
X158899500Y-114323119D01*
X158899500Y-114676881D01*
X158901872Y-114700960D01*
X158934173Y-115028929D01*
X158934176Y-115028946D01*
X159003185Y-115375884D01*
X159003188Y-115375895D01*
X159105882Y-115714436D01*
X159241262Y-116041271D01*
X159241264Y-116041276D01*
X159408017Y-116353247D01*
X159408028Y-116353265D01*
X159604558Y-116647393D01*
X159604568Y-116647407D01*
X159828992Y-116920869D01*
X160079130Y-117171007D01*
X160211508Y-117279647D01*
X160250842Y-117337392D01*
X160252713Y-117407237D01*
X160216525Y-117467005D01*
X160153770Y-117497721D01*
X160132843Y-117499500D01*
X105867157Y-117499500D01*
X105800118Y-117479815D01*
X105754363Y-117427011D01*
X105744419Y-117357853D01*
X105773444Y-117294297D01*
X105788492Y-117279647D01*
X105824220Y-117250324D01*
X105920864Y-117171012D01*
X106171012Y-116920864D01*
X106395436Y-116647402D01*
X106591976Y-116353259D01*
X106758739Y-116041269D01*
X106894118Y-115714435D01*
X106996809Y-115375905D01*
X106996811Y-115375895D01*
X106996814Y-115375884D01*
X107052735Y-115094746D01*
X107065825Y-115028940D01*
X107082764Y-114856957D01*
X107108925Y-114792170D01*
X107165959Y-114751811D01*
X107235759Y-114748694D01*
X107293848Y-114781430D01*
X107372592Y-114860174D01*
X107554755Y-114992523D01*
X107626239Y-115028946D01*
X107755374Y-115094744D01*
X107755376Y-115094744D01*
X107755379Y-115094746D01*
X107870166Y-115132042D01*
X107969523Y-115164326D01*
X108080720Y-115181938D01*
X108191917Y-115199550D01*
X108191918Y-115199550D01*
X108417082Y-115199550D01*
X108417083Y-115199550D01*
X108639476Y-115164326D01*
X108853621Y-115094746D01*
X109054245Y-114992523D01*
X109236408Y-114860174D01*
X109395624Y-114700958D01*
X109527973Y-114518795D01*
X109630196Y-114318171D01*
X109699776Y-114104026D01*
X109735000Y-113881633D01*
X109735000Y-113656467D01*
X112354000Y-113656467D01*
X112354000Y-113881632D01*
X112389223Y-114104026D01*
X112458805Y-114318175D01*
X112561027Y-114518795D01*
X112693376Y-114700958D01*
X112852592Y-114860174D01*
X113034755Y-114992523D01*
X113106239Y-115028946D01*
X113235374Y-115094744D01*
X113235376Y-115094744D01*
X113235379Y-115094746D01*
X113350166Y-115132042D01*
X113449523Y-115164326D01*
X113560720Y-115181938D01*
X113671917Y-115199550D01*
X113671918Y-115199550D01*
X113897082Y-115199550D01*
X113897083Y-115199550D01*
X114119476Y-115164326D01*
X114333621Y-115094746D01*
X114534245Y-114992523D01*
X114716408Y-114860174D01*
X114875624Y-114700958D01*
X115007973Y-114518795D01*
X115110196Y-114318171D01*
X115179776Y-114104026D01*
X115215000Y-113881633D01*
X115215000Y-113656467D01*
X115903375Y-113656467D01*
X115903375Y-113881632D01*
X115938598Y-114104026D01*
X116008180Y-114318175D01*
X116110402Y-114518795D01*
X116242751Y-114700958D01*
X116401967Y-114860174D01*
X116584130Y-114992523D01*
X116655614Y-115028946D01*
X116784749Y-115094744D01*
X116784751Y-115094744D01*
X116784754Y-115094746D01*
X116899541Y-115132042D01*
X116998898Y-115164326D01*
X117110095Y-115181938D01*
X117221292Y-115199550D01*
X117221293Y-115199550D01*
X117446457Y-115199550D01*
X117446458Y-115199550D01*
X117668851Y-115164326D01*
X117882996Y-115094746D01*
X118083620Y-114992523D01*
X118265783Y-114860174D01*
X118424999Y-114700958D01*
X118557348Y-114518795D01*
X118659571Y-114318171D01*
X118729151Y-114104026D01*
X118764375Y-113881633D01*
X118764375Y-113656467D01*
X121383375Y-113656467D01*
X121383375Y-113881632D01*
X121418598Y-114104026D01*
X121488180Y-114318175D01*
X121590402Y-114518795D01*
X121722751Y-114700958D01*
X121881967Y-114860174D01*
X122064130Y-114992523D01*
X122135614Y-115028946D01*
X122264749Y-115094744D01*
X122264751Y-115094744D01*
X122264754Y-115094746D01*
X122379541Y-115132042D01*
X122478898Y-115164326D01*
X122590095Y-115181938D01*
X122701292Y-115199550D01*
X122701293Y-115199550D01*
X122926457Y-115199550D01*
X122926458Y-115199550D01*
X123148851Y-115164326D01*
X123362996Y-115094746D01*
X123563620Y-114992523D01*
X123745783Y-114860174D01*
X123904999Y-114700958D01*
X124037348Y-114518795D01*
X124139571Y-114318171D01*
X124209151Y-114104026D01*
X124244375Y-113881633D01*
X124244375Y-113656467D01*
X124209151Y-113434074D01*
X124139571Y-113219929D01*
X124139569Y-113219926D01*
X124139569Y-113219924D01*
X124079167Y-113101379D01*
X124037348Y-113019305D01*
X123904999Y-112837142D01*
X123745783Y-112677926D01*
X123563620Y-112545577D01*
X123368639Y-112446229D01*
X123368637Y-112446227D01*
X123363003Y-112443356D01*
X123148851Y-112373773D01*
X122956864Y-112343366D01*
X122934318Y-112339795D01*
X124522450Y-112339795D01*
X124522450Y-112579804D01*
X124535369Y-112677926D01*
X124553776Y-112817738D01*
X124584833Y-112933646D01*
X124615891Y-113049556D01*
X124707729Y-113271272D01*
X124707732Y-113271279D01*
X124827729Y-113479120D01*
X124827731Y-113479123D01*
X124827732Y-113479124D01*
X124973826Y-113669518D01*
X124973832Y-113669525D01*
X125143524Y-113839217D01*
X125143530Y-113839222D01*
X125333930Y-113985321D01*
X125541771Y-114105318D01*
X125636805Y-114144682D01*
X125763493Y-114197158D01*
X125763494Y-114197158D01*
X125763496Y-114197159D01*
X125995312Y-114259274D01*
X126233253Y-114290600D01*
X126233260Y-114290600D01*
X126473240Y-114290600D01*
X126473247Y-114290600D01*
X126711188Y-114259274D01*
X126943004Y-114197159D01*
X127164729Y-114105318D01*
X127372570Y-113985321D01*
X127562970Y-113839222D01*
X127732672Y-113669520D01*
X127878771Y-113479120D01*
X127998768Y-113271279D01*
X128090609Y-113049554D01*
X128152724Y-112817738D01*
X128184050Y-112579797D01*
X128184050Y-112343434D01*
X128827750Y-112343434D01*
X128827750Y-112576165D01*
X128827751Y-112576182D01*
X128837039Y-112646734D01*
X128858129Y-112806926D01*
X128898804Y-112958728D01*
X128918370Y-113031747D01*
X129007430Y-113246760D01*
X129007438Y-113246776D01*
X129123803Y-113448324D01*
X129123814Y-113448340D01*
X129265492Y-113632979D01*
X129265498Y-113632986D01*
X129430063Y-113797551D01*
X129430070Y-113797557D01*
X129539639Y-113881632D01*
X129614718Y-113939242D01*
X129614725Y-113939246D01*
X129816273Y-114055611D01*
X129816289Y-114055619D01*
X130031302Y-114144679D01*
X130031304Y-114144679D01*
X130031310Y-114144682D01*
X130256124Y-114204921D01*
X130486878Y-114235300D01*
X130486885Y-114235300D01*
X130719615Y-114235300D01*
X130719622Y-114235300D01*
X130950376Y-114204921D01*
X131175190Y-114144682D01*
X131344356Y-114074612D01*
X131390210Y-114055619D01*
X131390213Y-114055617D01*
X131390219Y-114055615D01*
X131591782Y-113939242D01*
X131776431Y-113797556D01*
X131941006Y-113632981D01*
X132082692Y-113448332D01*
X132199065Y-113246769D01*
X132210183Y-113219929D01*
X132288129Y-113031747D01*
X132288128Y-113031747D01*
X132288132Y-113031740D01*
X132348371Y-112806926D01*
X132378750Y-112576172D01*
X132378750Y-112343428D01*
X132378272Y-112339795D01*
X133022450Y-112339795D01*
X133022450Y-112579804D01*
X133035369Y-112677926D01*
X133053776Y-112817738D01*
X133084833Y-112933646D01*
X133115891Y-113049556D01*
X133207729Y-113271272D01*
X133207732Y-113271279D01*
X133327729Y-113479120D01*
X133327731Y-113479123D01*
X133327732Y-113479124D01*
X133473826Y-113669518D01*
X133473832Y-113669525D01*
X133643524Y-113839217D01*
X133643530Y-113839222D01*
X133833930Y-113985321D01*
X134041771Y-114105318D01*
X134136805Y-114144682D01*
X134263493Y-114197158D01*
X134263494Y-114197158D01*
X134263496Y-114197159D01*
X134495312Y-114259274D01*
X134733253Y-114290600D01*
X134733260Y-114290600D01*
X134973240Y-114290600D01*
X134973247Y-114290600D01*
X135211188Y-114259274D01*
X135443004Y-114197159D01*
X135664729Y-114105318D01*
X135872570Y-113985321D01*
X136062970Y-113839222D01*
X136232672Y-113669520D01*
X136232676Y-113669514D01*
X136235348Y-113666469D01*
X136236252Y-113667262D01*
X136288466Y-113629121D01*
X136358211Y-113624952D01*
X136419138Y-113659153D01*
X136425499Y-113666492D01*
X136425527Y-113666469D01*
X136428207Y-113669525D01*
X136597899Y-113839217D01*
X136597905Y-113839222D01*
X136788305Y-113985321D01*
X136996146Y-114105318D01*
X137091180Y-114144682D01*
X137217868Y-114197158D01*
X137217869Y-114197158D01*
X137217871Y-114197159D01*
X137449687Y-114259274D01*
X137687628Y-114290600D01*
X137687635Y-114290600D01*
X137927615Y-114290600D01*
X137927622Y-114290600D01*
X138165563Y-114259274D01*
X138397379Y-114197159D01*
X138619104Y-114105318D01*
X138826945Y-113985321D01*
X139017345Y-113839222D01*
X139187047Y-113669520D01*
X139333146Y-113479120D01*
X139453143Y-113271279D01*
X139544984Y-113049554D01*
X139607099Y-112817738D01*
X139638425Y-112579797D01*
X139638425Y-112343434D01*
X140282125Y-112343434D01*
X140282125Y-112576165D01*
X140282126Y-112576182D01*
X140291414Y-112646734D01*
X140312504Y-112806926D01*
X140353179Y-112958728D01*
X140372745Y-113031747D01*
X140461805Y-113246760D01*
X140461813Y-113246776D01*
X140578178Y-113448324D01*
X140578189Y-113448340D01*
X140719867Y-113632979D01*
X140719873Y-113632986D01*
X140884438Y-113797551D01*
X140884445Y-113797557D01*
X140994014Y-113881632D01*
X141069093Y-113939242D01*
X141069100Y-113939246D01*
X141270648Y-114055611D01*
X141270664Y-114055619D01*
X141485677Y-114144679D01*
X141485679Y-114144679D01*
X141485685Y-114144682D01*
X141710499Y-114204921D01*
X141941253Y-114235300D01*
X141941260Y-114235300D01*
X142173990Y-114235300D01*
X142173997Y-114235300D01*
X142404751Y-114204921D01*
X142629565Y-114144682D01*
X142798731Y-114074612D01*
X142844585Y-114055619D01*
X142844588Y-114055617D01*
X142844594Y-114055615D01*
X143046157Y-113939242D01*
X143230806Y-113797556D01*
X143395381Y-113632981D01*
X143537067Y-113448332D01*
X143653440Y-113246769D01*
X143664558Y-113219929D01*
X143742504Y-113031747D01*
X143742503Y-113031747D01*
X143742507Y-113031740D01*
X143802746Y-112806926D01*
X143833125Y-112576172D01*
X143833125Y-112343428D01*
X143832647Y-112339795D01*
X144476825Y-112339795D01*
X144476825Y-112579804D01*
X144489744Y-112677926D01*
X144508151Y-112817738D01*
X144539208Y-112933646D01*
X144570266Y-113049556D01*
X144662104Y-113271272D01*
X144662107Y-113271279D01*
X144782104Y-113479120D01*
X144782106Y-113479123D01*
X144782107Y-113479124D01*
X144928201Y-113669518D01*
X144928207Y-113669525D01*
X145097899Y-113839217D01*
X145097905Y-113839222D01*
X145288305Y-113985321D01*
X145496146Y-114105318D01*
X145591180Y-114144682D01*
X145717868Y-114197158D01*
X145717869Y-114197158D01*
X145717871Y-114197159D01*
X145949687Y-114259274D01*
X146187628Y-114290600D01*
X146187635Y-114290600D01*
X146427615Y-114290600D01*
X146427622Y-114290600D01*
X146665563Y-114259274D01*
X146897379Y-114197159D01*
X147119104Y-114105318D01*
X147326945Y-113985321D01*
X147517345Y-113839222D01*
X147687047Y-113669520D01*
X147687051Y-113669514D01*
X147689723Y-113666469D01*
X147690627Y-113667262D01*
X147742841Y-113629121D01*
X147812586Y-113624952D01*
X147873513Y-113659153D01*
X147879874Y-113666492D01*
X147879902Y-113666469D01*
X147882582Y-113669525D01*
X148052274Y-113839217D01*
X148052280Y-113839222D01*
X148242680Y-113985321D01*
X148450521Y-114105318D01*
X148545555Y-114144682D01*
X148672243Y-114197158D01*
X148672244Y-114197158D01*
X148672246Y-114197159D01*
X148904062Y-114259274D01*
X149142003Y-114290600D01*
X149142010Y-114290600D01*
X149381990Y-114290600D01*
X149381997Y-114290600D01*
X149619938Y-114259274D01*
X149851754Y-114197159D01*
X150073479Y-114105318D01*
X150281320Y-113985321D01*
X150471720Y-113839222D01*
X150641422Y-113669520D01*
X150787521Y-113479120D01*
X150907518Y-113271279D01*
X150999359Y-113049554D01*
X151061474Y-112817738D01*
X151092800Y-112579797D01*
X151092800Y-112343434D01*
X151736500Y-112343434D01*
X151736500Y-112576165D01*
X151736501Y-112576182D01*
X151745789Y-112646734D01*
X151766879Y-112806926D01*
X151807554Y-112958728D01*
X151827120Y-113031747D01*
X151916180Y-113246760D01*
X151916188Y-113246776D01*
X152032553Y-113448324D01*
X152032564Y-113448340D01*
X152174242Y-113632979D01*
X152174248Y-113632986D01*
X152338813Y-113797551D01*
X152338820Y-113797557D01*
X152448389Y-113881632D01*
X152523468Y-113939242D01*
X152523475Y-113939246D01*
X152725023Y-114055611D01*
X152725039Y-114055619D01*
X152940052Y-114144679D01*
X152940054Y-114144679D01*
X152940060Y-114144682D01*
X153164874Y-114204921D01*
X153395628Y-114235300D01*
X153395635Y-114235300D01*
X153628365Y-114235300D01*
X153628372Y-114235300D01*
X153859126Y-114204921D01*
X154083940Y-114144682D01*
X154253106Y-114074612D01*
X154298960Y-114055619D01*
X154298963Y-114055617D01*
X154298969Y-114055615D01*
X154500532Y-113939242D01*
X154685181Y-113797556D01*
X154849756Y-113632981D01*
X154991442Y-113448332D01*
X155107815Y-113246769D01*
X155118933Y-113219929D01*
X155196879Y-113031747D01*
X155196878Y-113031747D01*
X155196882Y-113031740D01*
X155257121Y-112806926D01*
X155287500Y-112576172D01*
X155287500Y-112343428D01*
X155257121Y-112112674D01*
X155196882Y-111887860D01*
X155196879Y-111887852D01*
X155107819Y-111672839D01*
X155107811Y-111672823D01*
X154991446Y-111471275D01*
X154991442Y-111471268D01*
X154919484Y-111377490D01*
X154849757Y-111286620D01*
X154849751Y-111286613D01*
X154685186Y-111122048D01*
X154685179Y-111122042D01*
X154500540Y-110980364D01*
X154500538Y-110980362D01*
X154500532Y-110980358D01*
X154500527Y-110980355D01*
X154500524Y-110980353D01*
X154298976Y-110863988D01*
X154298960Y-110863980D01*
X154083947Y-110774920D01*
X153859122Y-110714678D01*
X153628382Y-110684301D01*
X153628377Y-110684300D01*
X153628372Y-110684300D01*
X153395628Y-110684300D01*
X153395622Y-110684300D01*
X153395617Y-110684301D01*
X153164877Y-110714678D01*
X152940052Y-110774920D01*
X152725039Y-110863980D01*
X152725023Y-110863988D01*
X152523475Y-110980353D01*
X152523459Y-110980364D01*
X152338820Y-111122042D01*
X152338813Y-111122048D01*
X152174248Y-111286613D01*
X152174242Y-111286620D01*
X152032564Y-111471259D01*
X152032553Y-111471275D01*
X151916188Y-111672823D01*
X151916180Y-111672839D01*
X151827120Y-111887852D01*
X151766878Y-112112677D01*
X151736501Y-112343417D01*
X151736500Y-112343434D01*
X151092800Y-112343434D01*
X151092800Y-112339803D01*
X151061474Y-112101862D01*
X150999359Y-111870046D01*
X150907518Y-111648321D01*
X150787521Y-111440480D01*
X150669460Y-111286620D01*
X150641423Y-111250081D01*
X150641417Y-111250074D01*
X150471725Y-111080382D01*
X150471718Y-111080376D01*
X150281324Y-110934282D01*
X150281323Y-110934281D01*
X150281320Y-110934279D01*
X150073479Y-110814282D01*
X150073472Y-110814279D01*
X149851756Y-110722441D01*
X149735846Y-110691383D01*
X149619938Y-110660326D01*
X149567062Y-110653364D01*
X149382004Y-110629000D01*
X149381997Y-110629000D01*
X149142003Y-110629000D01*
X149141995Y-110629000D01*
X148930499Y-110656845D01*
X148904062Y-110660326D01*
X148846108Y-110675854D01*
X148672243Y-110722441D01*
X148450527Y-110814279D01*
X148450518Y-110814283D01*
X148302919Y-110899500D01*
X148242859Y-110934176D01*
X148242675Y-110934282D01*
X148052281Y-111080376D01*
X148052274Y-111080382D01*
X147882586Y-111250071D01*
X147879910Y-111253123D01*
X147879709Y-111252947D01*
X147879707Y-111252950D01*
X147879666Y-111252909D01*
X147879018Y-111252341D01*
X147826723Y-111290501D01*
X147756975Y-111294633D01*
X147696066Y-111260401D01*
X147689749Y-111253107D01*
X147689723Y-111253131D01*
X147687042Y-111250074D01*
X147517350Y-111080382D01*
X147517343Y-111080376D01*
X147326949Y-110934282D01*
X147326948Y-110934281D01*
X147326945Y-110934279D01*
X147119104Y-110814282D01*
X147119097Y-110814279D01*
X146897381Y-110722441D01*
X146781471Y-110691383D01*
X146665563Y-110660326D01*
X146612687Y-110653364D01*
X146427629Y-110629000D01*
X146427622Y-110629000D01*
X146187628Y-110629000D01*
X146187620Y-110629000D01*
X145976124Y-110656845D01*
X145949687Y-110660326D01*
X145891733Y-110675854D01*
X145717868Y-110722441D01*
X145496152Y-110814279D01*
X145496143Y-110814283D01*
X145348544Y-110899500D01*
X145288484Y-110934176D01*
X145288300Y-110934282D01*
X145097906Y-111080376D01*
X145097899Y-111080382D01*
X144928207Y-111250074D01*
X144928201Y-111250081D01*
X144782107Y-111440475D01*
X144662108Y-111648318D01*
X144662104Y-111648327D01*
X144570266Y-111870043D01*
X144523679Y-112043908D01*
X144514241Y-112079136D01*
X144508151Y-112101863D01*
X144476825Y-112339795D01*
X143832647Y-112339795D01*
X143802746Y-112112674D01*
X143742507Y-111887860D01*
X143742504Y-111887852D01*
X143653444Y-111672839D01*
X143653436Y-111672823D01*
X143537071Y-111471275D01*
X143537067Y-111471268D01*
X143465109Y-111377490D01*
X143395382Y-111286620D01*
X143395376Y-111286613D01*
X143230811Y-111122048D01*
X143230804Y-111122042D01*
X143046165Y-110980364D01*
X143046163Y-110980362D01*
X143046157Y-110980358D01*
X143046152Y-110980355D01*
X143046149Y-110980353D01*
X142844601Y-110863988D01*
X142844585Y-110863980D01*
X142629572Y-110774920D01*
X142404747Y-110714678D01*
X142174007Y-110684301D01*
X142174002Y-110684300D01*
X142173997Y-110684300D01*
X141941253Y-110684300D01*
X141941247Y-110684300D01*
X141941242Y-110684301D01*
X141710502Y-110714678D01*
X141485677Y-110774920D01*
X141270664Y-110863980D01*
X141270648Y-110863988D01*
X141069100Y-110980353D01*
X141069084Y-110980364D01*
X140884445Y-111122042D01*
X140884438Y-111122048D01*
X140719873Y-111286613D01*
X140719867Y-111286620D01*
X140578189Y-111471259D01*
X140578178Y-111471275D01*
X140461813Y-111672823D01*
X140461805Y-111672839D01*
X140372745Y-111887852D01*
X140312503Y-112112677D01*
X140282126Y-112343417D01*
X140282125Y-112343434D01*
X139638425Y-112343434D01*
X139638425Y-112339803D01*
X139607099Y-112101862D01*
X139544984Y-111870046D01*
X139453143Y-111648321D01*
X139333146Y-111440480D01*
X139215085Y-111286620D01*
X139187048Y-111250081D01*
X139187042Y-111250074D01*
X139017350Y-111080382D01*
X139017343Y-111080376D01*
X138826949Y-110934282D01*
X138826948Y-110934281D01*
X138826945Y-110934279D01*
X138619104Y-110814282D01*
X138619097Y-110814279D01*
X138397381Y-110722441D01*
X138281471Y-110691383D01*
X138165563Y-110660326D01*
X138112687Y-110653364D01*
X137927629Y-110629000D01*
X137927622Y-110629000D01*
X137687628Y-110629000D01*
X137687620Y-110629000D01*
X137476124Y-110656845D01*
X137449687Y-110660326D01*
X137391733Y-110675854D01*
X137217868Y-110722441D01*
X136996152Y-110814279D01*
X136996143Y-110814283D01*
X136848544Y-110899500D01*
X136788484Y-110934176D01*
X136788300Y-110934282D01*
X136597906Y-111080376D01*
X136597899Y-111080382D01*
X136428211Y-111250071D01*
X136425535Y-111253123D01*
X136425334Y-111252947D01*
X136425332Y-111252950D01*
X136425291Y-111252909D01*
X136424643Y-111252341D01*
X136372348Y-111290501D01*
X136302600Y-111294633D01*
X136241691Y-111260401D01*
X136235374Y-111253107D01*
X136235348Y-111253131D01*
X136232667Y-111250074D01*
X136062975Y-111080382D01*
X136062968Y-111080376D01*
X135872574Y-110934282D01*
X135872573Y-110934281D01*
X135872570Y-110934279D01*
X135664729Y-110814282D01*
X135664722Y-110814279D01*
X135443006Y-110722441D01*
X135327096Y-110691383D01*
X135211188Y-110660326D01*
X135158312Y-110653364D01*
X134973254Y-110629000D01*
X134973247Y-110629000D01*
X134733253Y-110629000D01*
X134733245Y-110629000D01*
X134521749Y-110656845D01*
X134495312Y-110660326D01*
X134437358Y-110675854D01*
X134263493Y-110722441D01*
X134041777Y-110814279D01*
X134041768Y-110814283D01*
X133894169Y-110899500D01*
X133834109Y-110934176D01*
X133833925Y-110934282D01*
X133643531Y-111080376D01*
X133643524Y-111080382D01*
X133473832Y-111250074D01*
X133473826Y-111250081D01*
X133327732Y-111440475D01*
X133207733Y-111648318D01*
X133207729Y-111648327D01*
X133115891Y-111870043D01*
X133069304Y-112043908D01*
X133059866Y-112079136D01*
X133053776Y-112101863D01*
X133022450Y-112339795D01*
X132378272Y-112339795D01*
X132348371Y-112112674D01*
X132288132Y-111887860D01*
X132288129Y-111887852D01*
X132199069Y-111672839D01*
X132199061Y-111672823D01*
X132082696Y-111471275D01*
X132082692Y-111471268D01*
X132010734Y-111377490D01*
X131941007Y-111286620D01*
X131941001Y-111286613D01*
X131776436Y-111122048D01*
X131776429Y-111122042D01*
X131591790Y-110980364D01*
X131591788Y-110980362D01*
X131591782Y-110980358D01*
X131591777Y-110980355D01*
X131591774Y-110980353D01*
X131390226Y-110863988D01*
X131390210Y-110863980D01*
X131175197Y-110774920D01*
X130950372Y-110714678D01*
X130719632Y-110684301D01*
X130719627Y-110684300D01*
X130719622Y-110684300D01*
X130486878Y-110684300D01*
X130486872Y-110684300D01*
X130486867Y-110684301D01*
X130256127Y-110714678D01*
X130031302Y-110774920D01*
X129816289Y-110863980D01*
X129816273Y-110863988D01*
X129614725Y-110980353D01*
X129614709Y-110980364D01*
X129430070Y-111122042D01*
X129430063Y-111122048D01*
X129265498Y-111286613D01*
X129265492Y-111286620D01*
X129123814Y-111471259D01*
X129123803Y-111471275D01*
X129007438Y-111672823D01*
X129007430Y-111672839D01*
X128918370Y-111887852D01*
X128858128Y-112112677D01*
X128827751Y-112343417D01*
X128827750Y-112343434D01*
X128184050Y-112343434D01*
X128184050Y-112339803D01*
X128152724Y-112101862D01*
X128090609Y-111870046D01*
X127998768Y-111648321D01*
X127878771Y-111440480D01*
X127760710Y-111286620D01*
X127732673Y-111250081D01*
X127732667Y-111250074D01*
X127562975Y-111080382D01*
X127562968Y-111080376D01*
X127372574Y-110934282D01*
X127372573Y-110934281D01*
X127372570Y-110934279D01*
X127164729Y-110814282D01*
X127164722Y-110814279D01*
X126943006Y-110722441D01*
X126827096Y-110691383D01*
X126711188Y-110660326D01*
X126658312Y-110653364D01*
X126473254Y-110629000D01*
X126473247Y-110629000D01*
X126233253Y-110629000D01*
X126233245Y-110629000D01*
X126021749Y-110656845D01*
X125995312Y-110660326D01*
X125937358Y-110675854D01*
X125763493Y-110722441D01*
X125541777Y-110814279D01*
X125541768Y-110814283D01*
X125394169Y-110899500D01*
X125334109Y-110934176D01*
X125333925Y-110934282D01*
X125143531Y-111080376D01*
X125143524Y-111080382D01*
X124973832Y-111250074D01*
X124973826Y-111250081D01*
X124827732Y-111440475D01*
X124707733Y-111648318D01*
X124707729Y-111648327D01*
X124615891Y-111870043D01*
X124569304Y-112043908D01*
X124559866Y-112079136D01*
X124553776Y-112101863D01*
X124522450Y-112339795D01*
X122934318Y-112339795D01*
X122926458Y-112338550D01*
X122701292Y-112338550D01*
X122674542Y-112342786D01*
X122478898Y-112373773D01*
X122264749Y-112443355D01*
X122064129Y-112545577D01*
X121881964Y-112677928D01*
X121722753Y-112837139D01*
X121590402Y-113019304D01*
X121488180Y-113219924D01*
X121418598Y-113434073D01*
X121383375Y-113656467D01*
X118764375Y-113656467D01*
X118729151Y-113434074D01*
X118659571Y-113219929D01*
X118659569Y-113219926D01*
X118659569Y-113219924D01*
X118599167Y-113101379D01*
X118557348Y-113019305D01*
X118424999Y-112837142D01*
X118265783Y-112677926D01*
X118083620Y-112545577D01*
X117883000Y-112443355D01*
X117668851Y-112373773D01*
X117476864Y-112343366D01*
X117446458Y-112338550D01*
X117221292Y-112338550D01*
X117194542Y-112342786D01*
X116998898Y-112373773D01*
X116784749Y-112443355D01*
X116584129Y-112545577D01*
X116401964Y-112677928D01*
X116242753Y-112837139D01*
X116110402Y-113019304D01*
X116008180Y-113219924D01*
X115938598Y-113434073D01*
X115903375Y-113656467D01*
X115215000Y-113656467D01*
X115179776Y-113434074D01*
X115110196Y-113219929D01*
X115110194Y-113219926D01*
X115110194Y-113219924D01*
X115049792Y-113101379D01*
X115007973Y-113019305D01*
X114875624Y-112837142D01*
X114716408Y-112677926D01*
X114534245Y-112545577D01*
X114333625Y-112443355D01*
X114119476Y-112373773D01*
X113927489Y-112343366D01*
X113897083Y-112338550D01*
X113671917Y-112338550D01*
X113645167Y-112342786D01*
X113449523Y-112373773D01*
X113235374Y-112443355D01*
X113034754Y-112545577D01*
X112852589Y-112677928D01*
X112693378Y-112837139D01*
X112561027Y-113019304D01*
X112458805Y-113219924D01*
X112389223Y-113434073D01*
X112354000Y-113656467D01*
X109735000Y-113656467D01*
X109699776Y-113434074D01*
X109630196Y-113219929D01*
X109630194Y-113219926D01*
X109630194Y-113219924D01*
X109569792Y-113101379D01*
X109527973Y-113019305D01*
X109395624Y-112837142D01*
X109236408Y-112677926D01*
X109054245Y-112545577D01*
X108853625Y-112443355D01*
X108639476Y-112373773D01*
X108447489Y-112343366D01*
X108417083Y-112338550D01*
X108191917Y-112338550D01*
X108165167Y-112342786D01*
X107969523Y-112373773D01*
X107755374Y-112443355D01*
X107554754Y-112545577D01*
X107372589Y-112677928D01*
X107213378Y-112837139D01*
X107081025Y-113019306D01*
X107039207Y-113101379D01*
X106991233Y-113152174D01*
X106923411Y-113168969D01*
X106857277Y-113146431D01*
X106814162Y-113092535D01*
X106758739Y-112958731D01*
X106693746Y-112837139D01*
X106591982Y-112646752D01*
X106591981Y-112646750D01*
X106591976Y-112646741D01*
X106395436Y-112352598D01*
X106171012Y-112079136D01*
X106171011Y-112079135D01*
X106171007Y-112079130D01*
X105920869Y-111828992D01*
X105647407Y-111604568D01*
X105647406Y-111604567D01*
X105647402Y-111604564D01*
X105353259Y-111408024D01*
X105353254Y-111408021D01*
X105353247Y-111408017D01*
X105041276Y-111241264D01*
X105041271Y-111241262D01*
X104714436Y-111105882D01*
X104375895Y-111003188D01*
X104375884Y-111003185D01*
X104028946Y-110934176D01*
X104028929Y-110934173D01*
X103762700Y-110907952D01*
X103676881Y-110899500D01*
X103323119Y-110899500D01*
X103243748Y-110907317D01*
X102971070Y-110934173D01*
X102971053Y-110934176D01*
X102624115Y-111003185D01*
X102624104Y-111003188D01*
X102285563Y-111105882D01*
X101958728Y-111241262D01*
X101958723Y-111241264D01*
X101646752Y-111408017D01*
X101646734Y-111408028D01*
X101352606Y-111604558D01*
X101352592Y-111604568D01*
X101079130Y-111828992D01*
X100828992Y-112079130D01*
X100604568Y-112352592D01*
X100604558Y-112352606D01*
X100408028Y-112646734D01*
X100408017Y-112646752D01*
X100241264Y-112958723D01*
X100241262Y-112958728D01*
X100105882Y-113285563D01*
X100003188Y-113624104D01*
X100003185Y-113624115D01*
X99934176Y-113971053D01*
X99934173Y-113971070D01*
X99908150Y-114235298D01*
X99899500Y-114323119D01*
X99899500Y-114676881D01*
X99901872Y-114700960D01*
X99934173Y-115028929D01*
X99934176Y-115028946D01*
X100003185Y-115375884D01*
X100003188Y-115375895D01*
X100105882Y-115714436D01*
X100241262Y-116041271D01*
X100241264Y-116041276D01*
X100408017Y-116353247D01*
X100408028Y-116353265D01*
X100604558Y-116647393D01*
X100604568Y-116647407D01*
X100828992Y-116920869D01*
X101079130Y-117171007D01*
X101211508Y-117279647D01*
X101250842Y-117337392D01*
X101252713Y-117407237D01*
X101216525Y-117467005D01*
X101153770Y-117497721D01*
X101132843Y-117499500D01*
X98973500Y-117499500D01*
X98906461Y-117479815D01*
X98860706Y-117427011D01*
X98849500Y-117375500D01*
X98849500Y-104182436D01*
X110724000Y-104182436D01*
X110724000Y-106075663D01*
X110730413Y-106146242D01*
X110730413Y-106146244D01*
X110730414Y-106146246D01*
X110748717Y-106204983D01*
X110781022Y-106308656D01*
X110869030Y-106454238D01*
X110989311Y-106574519D01*
X110989313Y-106574520D01*
X110989315Y-106574522D01*
X111134894Y-106662528D01*
X111297304Y-106713136D01*
X111367884Y-106719550D01*
X111367887Y-106719550D01*
X113261113Y-106719550D01*
X113261116Y-106719550D01*
X113331696Y-106713136D01*
X113494106Y-106662528D01*
X113639685Y-106574522D01*
X113759972Y-106454235D01*
X113847978Y-106308656D01*
X113898586Y-106146246D01*
X113905000Y-106075666D01*
X113905000Y-104182436D01*
X119753375Y-104182436D01*
X119753375Y-106075663D01*
X119759788Y-106146242D01*
X119759788Y-106146244D01*
X119759789Y-106146246D01*
X119778092Y-106204983D01*
X119810397Y-106308656D01*
X119898405Y-106454238D01*
X120018686Y-106574519D01*
X120018688Y-106574520D01*
X120018690Y-106574522D01*
X120164269Y-106662528D01*
X120326679Y-106713136D01*
X120397259Y-106719550D01*
X120397262Y-106719550D01*
X122290488Y-106719550D01*
X122290491Y-106719550D01*
X122361071Y-106713136D01*
X122523481Y-106662528D01*
X122669060Y-106574522D01*
X122789347Y-106454235D01*
X122877353Y-106308656D01*
X122927961Y-106146246D01*
X122934375Y-106075666D01*
X122934375Y-104182434D01*
X122927961Y-104111854D01*
X122877353Y-103949444D01*
X122789347Y-103803865D01*
X122789345Y-103803863D01*
X122789344Y-103803861D01*
X122669063Y-103683580D01*
X122669060Y-103683578D01*
X122523481Y-103595572D01*
X122361071Y-103544964D01*
X122361069Y-103544963D01*
X122361067Y-103544963D01*
X122311653Y-103540473D01*
X122290491Y-103538550D01*
X120397259Y-103538550D01*
X120378020Y-103540298D01*
X120326682Y-103544963D01*
X120164268Y-103595572D01*
X120018686Y-103683580D01*
X119898405Y-103803861D01*
X119810397Y-103949443D01*
X119759788Y-104111857D01*
X119753375Y-104182436D01*
X113905000Y-104182436D01*
X113905000Y-104182434D01*
X113898586Y-104111854D01*
X113847978Y-103949444D01*
X113759972Y-103803865D01*
X113759970Y-103803863D01*
X113759969Y-103803861D01*
X113639688Y-103683580D01*
X113494106Y-103595572D01*
X113331696Y-103544964D01*
X113331694Y-103544963D01*
X113331692Y-103544963D01*
X113282278Y-103540473D01*
X113261116Y-103538550D01*
X111367884Y-103538550D01*
X111348645Y-103540298D01*
X111297307Y-103544963D01*
X111134893Y-103595572D01*
X110989311Y-103683580D01*
X110869030Y-103803861D01*
X110781022Y-103949443D01*
X110730413Y-104111857D01*
X110724000Y-104182436D01*
X98849500Y-104182436D01*
X98849500Y-103493184D01*
X127152750Y-103493184D01*
X127152750Y-105606416D01*
X127153843Y-105618438D01*
X127159163Y-105676992D01*
X127209772Y-105839406D01*
X127297780Y-105984988D01*
X127418061Y-106105269D01*
X127418063Y-106105270D01*
X127418065Y-106105272D01*
X127563644Y-106193278D01*
X127726054Y-106243886D01*
X127796634Y-106250300D01*
X127796637Y-106250300D01*
X129909863Y-106250300D01*
X129909866Y-106250300D01*
X129980446Y-106243886D01*
X130142856Y-106193278D01*
X130288435Y-106105272D01*
X130408722Y-105984985D01*
X130496728Y-105839406D01*
X130547336Y-105676996D01*
X130553750Y-105606416D01*
X130553750Y-103493184D01*
X138607125Y-103493184D01*
X138607125Y-105606416D01*
X138608218Y-105618438D01*
X138613538Y-105676992D01*
X138664147Y-105839406D01*
X138752155Y-105984988D01*
X138872436Y-106105269D01*
X138872438Y-106105270D01*
X138872440Y-106105272D01*
X139018019Y-106193278D01*
X139180429Y-106243886D01*
X139251009Y-106250300D01*
X139251012Y-106250300D01*
X141364238Y-106250300D01*
X141364241Y-106250300D01*
X141434821Y-106243886D01*
X141597231Y-106193278D01*
X141742810Y-106105272D01*
X141863097Y-105984985D01*
X141951103Y-105839406D01*
X142001711Y-105676996D01*
X142008125Y-105606416D01*
X142008125Y-103493184D01*
X142001711Y-103422604D01*
X141951103Y-103260194D01*
X141863097Y-103114615D01*
X141863095Y-103114613D01*
X141863094Y-103114611D01*
X141742813Y-102994330D01*
X141597231Y-102906322D01*
X141434821Y-102855714D01*
X141434819Y-102855713D01*
X141434817Y-102855713D01*
X141385403Y-102851223D01*
X141364241Y-102849300D01*
X139251009Y-102849300D01*
X139231770Y-102851048D01*
X139180432Y-102855713D01*
X139018018Y-102906322D01*
X138872436Y-102994330D01*
X138752155Y-103114611D01*
X138664147Y-103260193D01*
X138613538Y-103422607D01*
X138608407Y-103479075D01*
X138607125Y-103493184D01*
X130553750Y-103493184D01*
X130547336Y-103422604D01*
X130496728Y-103260194D01*
X130408722Y-103114615D01*
X130408720Y-103114613D01*
X130408719Y-103114611D01*
X130288438Y-102994330D01*
X130142856Y-102906322D01*
X129980446Y-102855714D01*
X129980444Y-102855713D01*
X129980442Y-102855713D01*
X129931028Y-102851223D01*
X129909866Y-102849300D01*
X127796634Y-102849300D01*
X127777395Y-102851048D01*
X127726057Y-102855713D01*
X127563643Y-102906322D01*
X127418061Y-102994330D01*
X127297780Y-103114611D01*
X127209772Y-103260193D01*
X127159163Y-103422607D01*
X127154032Y-103479075D01*
X127152750Y-103493184D01*
X98849500Y-103493184D01*
X98849500Y-99501159D01*
X148671500Y-99501159D01*
X148671500Y-105248440D01*
X148675543Y-105323866D01*
X148678376Y-105350211D01*
X148678377Y-105350216D01*
X148697710Y-105454897D01*
X148728935Y-105533309D01*
X148760631Y-105612906D01*
X148760635Y-105612913D01*
X148794107Y-105674214D01*
X148809562Y-105701097D01*
X148914457Y-105834986D01*
X149228255Y-106148783D01*
X149541817Y-106462345D01*
X149598008Y-106512817D01*
X149598016Y-106512824D01*
X149608329Y-106521134D01*
X149618650Y-106529451D01*
X149618666Y-106529462D01*
X149618674Y-106529468D01*
X149706328Y-106589794D01*
X149706335Y-106589798D01*
X149767603Y-106616168D01*
X149862555Y-106657036D01*
X149929594Y-106676721D01*
X149959525Y-106684799D01*
X150095066Y-106701257D01*
X150128360Y-106705300D01*
X150128362Y-106705300D01*
X152575640Y-106705300D01*
X152587560Y-106704660D01*
X152651058Y-106701257D01*
X152677416Y-106698423D01*
X152782097Y-106679090D01*
X152940107Y-106616168D01*
X153001430Y-106582683D01*
X153028301Y-106567235D01*
X153162183Y-106462345D01*
X153419545Y-106204983D01*
X153470017Y-106148792D01*
X153486651Y-106128150D01*
X153546997Y-106040467D01*
X153614236Y-105884245D01*
X153633921Y-105817206D01*
X153641999Y-105787275D01*
X153662500Y-105618438D01*
X153662500Y-101897644D01*
X153682185Y-101830605D01*
X153734989Y-101784850D01*
X153804147Y-101774906D01*
X153845571Y-101790788D01*
X153846394Y-101789249D01*
X153851768Y-101792121D01*
X153851769Y-101792122D01*
X154024749Y-101863773D01*
X154195031Y-101897644D01*
X154208379Y-101900299D01*
X154208383Y-101900300D01*
X154208384Y-101900300D01*
X154395617Y-101900300D01*
X154395618Y-101900299D01*
X154579251Y-101863773D01*
X154629547Y-101842938D01*
X154699016Y-101835470D01*
X154724449Y-101842937D01*
X154774749Y-101863773D01*
X154945031Y-101897644D01*
X154958379Y-101900299D01*
X154958383Y-101900300D01*
X154958384Y-101900300D01*
X155145617Y-101900300D01*
X155145618Y-101900299D01*
X155329251Y-101863773D01*
X155379547Y-101842938D01*
X155449016Y-101835470D01*
X155474449Y-101842937D01*
X155524749Y-101863773D01*
X155695031Y-101897644D01*
X155708379Y-101900299D01*
X155708383Y-101900300D01*
X155708384Y-101900300D01*
X155895617Y-101900300D01*
X155895618Y-101900299D01*
X156079251Y-101863773D01*
X156129547Y-101842938D01*
X156199016Y-101835470D01*
X156224449Y-101842937D01*
X156274749Y-101863773D01*
X156445031Y-101897644D01*
X156458379Y-101900299D01*
X156458383Y-101900300D01*
X156458384Y-101900300D01*
X156645617Y-101900300D01*
X156645618Y-101900299D01*
X156829251Y-101863773D01*
X156879547Y-101842938D01*
X156949016Y-101835470D01*
X156974449Y-101842937D01*
X157024749Y-101863773D01*
X157195031Y-101897644D01*
X157208379Y-101900299D01*
X157208383Y-101900300D01*
X157208384Y-101900300D01*
X157395617Y-101900300D01*
X157395618Y-101900299D01*
X157579251Y-101863773D01*
X157629547Y-101842938D01*
X157699016Y-101835470D01*
X157724449Y-101842937D01*
X157774749Y-101863773D01*
X157945031Y-101897644D01*
X157958379Y-101900299D01*
X157958383Y-101900300D01*
X157958384Y-101900300D01*
X158145617Y-101900300D01*
X158145618Y-101900299D01*
X158329251Y-101863773D01*
X158379547Y-101842938D01*
X158449016Y-101835470D01*
X158474449Y-101842937D01*
X158524749Y-101863773D01*
X158695031Y-101897644D01*
X158708379Y-101900299D01*
X158708383Y-101900300D01*
X158708384Y-101900300D01*
X158895617Y-101900300D01*
X158895618Y-101900299D01*
X159079251Y-101863773D01*
X159129547Y-101842938D01*
X159199016Y-101835470D01*
X159224449Y-101842937D01*
X159274749Y-101863773D01*
X159445031Y-101897644D01*
X159458379Y-101900299D01*
X159458383Y-101900300D01*
X159458384Y-101900300D01*
X159645617Y-101900300D01*
X159645618Y-101900299D01*
X159829251Y-101863773D01*
X160002231Y-101792122D01*
X160157908Y-101688102D01*
X160290302Y-101555708D01*
X160394322Y-101400031D01*
X160465973Y-101227051D01*
X160502500Y-101043416D01*
X160502500Y-100856184D01*
X160465973Y-100672549D01*
X160445138Y-100622252D01*
X160437670Y-100552784D01*
X160445137Y-100527350D01*
X160465973Y-100477051D01*
X160502500Y-100293416D01*
X160502500Y-100106184D01*
X160465973Y-99922549D01*
X160445138Y-99872252D01*
X160437670Y-99802784D01*
X160445137Y-99777350D01*
X160465973Y-99727051D01*
X160502500Y-99543416D01*
X160502500Y-99356184D01*
X160465973Y-99172549D01*
X160394322Y-98999569D01*
X160394321Y-98999568D01*
X160394318Y-98999562D01*
X160290302Y-98843892D01*
X160290299Y-98843888D01*
X160157911Y-98711500D01*
X160157907Y-98711497D01*
X160002237Y-98607481D01*
X160002228Y-98607476D01*
X159829251Y-98535827D01*
X159829243Y-98535825D01*
X159645620Y-98499300D01*
X159645616Y-98499300D01*
X159458384Y-98499300D01*
X159458379Y-98499300D01*
X159274756Y-98535825D01*
X159274744Y-98535828D01*
X159224452Y-98556660D01*
X159154983Y-98564129D01*
X159129548Y-98556660D01*
X159079255Y-98535828D01*
X159079243Y-98535825D01*
X158895620Y-98499300D01*
X158895616Y-98499300D01*
X158708384Y-98499300D01*
X158708379Y-98499300D01*
X158524756Y-98535825D01*
X158524744Y-98535828D01*
X158474452Y-98556660D01*
X158404983Y-98564129D01*
X158379548Y-98556660D01*
X158329255Y-98535828D01*
X158329243Y-98535825D01*
X158145620Y-98499300D01*
X158145616Y-98499300D01*
X157958384Y-98499300D01*
X157958379Y-98499300D01*
X157774756Y-98535825D01*
X157774744Y-98535828D01*
X157724452Y-98556660D01*
X157654983Y-98564129D01*
X157629548Y-98556660D01*
X157579255Y-98535828D01*
X157579243Y-98535825D01*
X157395620Y-98499300D01*
X157395616Y-98499300D01*
X157208384Y-98499300D01*
X157208379Y-98499300D01*
X157024756Y-98535825D01*
X157024744Y-98535828D01*
X156974452Y-98556660D01*
X156904983Y-98564129D01*
X156879548Y-98556660D01*
X156829255Y-98535828D01*
X156829243Y-98535825D01*
X156645620Y-98499300D01*
X156645616Y-98499300D01*
X156458384Y-98499300D01*
X156458379Y-98499300D01*
X156274756Y-98535825D01*
X156274744Y-98535828D01*
X156224452Y-98556660D01*
X156154983Y-98564129D01*
X156129548Y-98556660D01*
X156079255Y-98535828D01*
X156079243Y-98535825D01*
X155895620Y-98499300D01*
X155895616Y-98499300D01*
X155708384Y-98499300D01*
X155708379Y-98499300D01*
X155524756Y-98535825D01*
X155524744Y-98535828D01*
X155474452Y-98556660D01*
X155404983Y-98564129D01*
X155379548Y-98556660D01*
X155329255Y-98535828D01*
X155329243Y-98535825D01*
X155145620Y-98499300D01*
X155145616Y-98499300D01*
X154958384Y-98499300D01*
X154958379Y-98499300D01*
X154774756Y-98535825D01*
X154774744Y-98535828D01*
X154724452Y-98556660D01*
X154654983Y-98564129D01*
X154629548Y-98556660D01*
X154579255Y-98535828D01*
X154579243Y-98535825D01*
X154395620Y-98499300D01*
X154395616Y-98499300D01*
X154208384Y-98499300D01*
X154208379Y-98499300D01*
X154024756Y-98535825D01*
X154024748Y-98535827D01*
X153851771Y-98607476D01*
X153846394Y-98610351D01*
X153845260Y-98608231D01*
X153788702Y-98625935D01*
X153721324Y-98607445D01*
X153674638Y-98555462D01*
X153662500Y-98501955D01*
X153662500Y-95393810D01*
X153662500Y-95393800D01*
X153646376Y-95243829D01*
X153635761Y-95195035D01*
X153635181Y-95192368D01*
X153635170Y-95192318D01*
X153632607Y-95180986D01*
X153574047Y-95021308D01*
X153478975Y-94880284D01*
X153433220Y-94827480D01*
X153433219Y-94827479D01*
X153433213Y-94827472D01*
X153390625Y-94782478D01*
X153390623Y-94782476D01*
X153390620Y-94782473D01*
X153255029Y-94679803D01*
X153255028Y-94679802D01*
X153098813Y-94612566D01*
X153098808Y-94612564D01*
X153098807Y-94612564D01*
X153031768Y-94592879D01*
X153001837Y-94584801D01*
X152917418Y-94574550D01*
X152833002Y-94564300D01*
X152833000Y-94564300D01*
X151981000Y-94564300D01*
X151980991Y-94564300D01*
X151980990Y-94564301D01*
X151831034Y-94580423D01*
X151831022Y-94580425D01*
X151779568Y-94591618D01*
X151768184Y-94594193D01*
X151608510Y-94652752D01*
X151608506Y-94652754D01*
X151467481Y-94747827D01*
X151414672Y-94793586D01*
X151369678Y-94836174D01*
X151369672Y-94836181D01*
X151267002Y-94971771D01*
X151199766Y-95127986D01*
X151180078Y-95195035D01*
X151172001Y-95224962D01*
X151172001Y-95224965D01*
X151151500Y-95393797D01*
X151151500Y-96626210D01*
X151131815Y-96693249D01*
X151115181Y-96713891D01*
X148914461Y-98914610D01*
X148863975Y-98970816D01*
X148847355Y-98991442D01*
X148847331Y-98991474D01*
X148787005Y-99079128D01*
X148787001Y-99079135D01*
X148719766Y-99235348D01*
X148700078Y-99302397D01*
X148692001Y-99332324D01*
X148692001Y-99332327D01*
X148671500Y-99501159D01*
X98849500Y-99501159D01*
X98849500Y-85146179D01*
X105351500Y-85146179D01*
X105351500Y-85333420D01*
X105388025Y-85517043D01*
X105388028Y-85517055D01*
X105408860Y-85567348D01*
X105416329Y-85636817D01*
X105408860Y-85662252D01*
X105388028Y-85712544D01*
X105388025Y-85712556D01*
X105351500Y-85896179D01*
X105351500Y-86083420D01*
X105388025Y-86267043D01*
X105388028Y-86267055D01*
X105408860Y-86317348D01*
X105416329Y-86386817D01*
X105408860Y-86412252D01*
X105388028Y-86462544D01*
X105388025Y-86462556D01*
X105351500Y-86646179D01*
X105351500Y-86833420D01*
X105388025Y-87017043D01*
X105388027Y-87017051D01*
X105459676Y-87190028D01*
X105459681Y-87190037D01*
X105563697Y-87345707D01*
X105563700Y-87345711D01*
X105696088Y-87478099D01*
X105696092Y-87478102D01*
X105851762Y-87582118D01*
X105851768Y-87582121D01*
X105851769Y-87582122D01*
X106024749Y-87653773D01*
X106208379Y-87690299D01*
X106208383Y-87690300D01*
X106208384Y-87690300D01*
X106395617Y-87690300D01*
X106395618Y-87690299D01*
X106579251Y-87653773D01*
X106629547Y-87632938D01*
X106699016Y-87625470D01*
X106724449Y-87632937D01*
X106774749Y-87653773D01*
X106958379Y-87690299D01*
X106958383Y-87690300D01*
X106958384Y-87690300D01*
X107145617Y-87690300D01*
X107145618Y-87690299D01*
X107329251Y-87653773D01*
X107379547Y-87632938D01*
X107449016Y-87625470D01*
X107474449Y-87632937D01*
X107524749Y-87653773D01*
X107708379Y-87690299D01*
X107708383Y-87690300D01*
X107708384Y-87690300D01*
X107895617Y-87690300D01*
X107895618Y-87690299D01*
X108079251Y-87653773D01*
X108129547Y-87632938D01*
X108199016Y-87625470D01*
X108224449Y-87632937D01*
X108274749Y-87653773D01*
X108458379Y-87690299D01*
X108458383Y-87690300D01*
X108458384Y-87690300D01*
X108645617Y-87690300D01*
X108645618Y-87690299D01*
X108829251Y-87653773D01*
X108879547Y-87632938D01*
X108949016Y-87625470D01*
X108974449Y-87632937D01*
X109024749Y-87653773D01*
X109208379Y-87690299D01*
X109208383Y-87690300D01*
X109208384Y-87690300D01*
X109395617Y-87690300D01*
X109395618Y-87690299D01*
X109579251Y-87653773D01*
X109752231Y-87582122D01*
X109907908Y-87478102D01*
X110040302Y-87345708D01*
X110144322Y-87190031D01*
X110215973Y-87017051D01*
X110252500Y-86833416D01*
X110252500Y-86646184D01*
X110215973Y-86462549D01*
X110195138Y-86412252D01*
X110187670Y-86342784D01*
X110195137Y-86317350D01*
X110215973Y-86267051D01*
X110252500Y-86083416D01*
X110252500Y-85896184D01*
X110215973Y-85712549D01*
X110195138Y-85662252D01*
X110187670Y-85592784D01*
X110195137Y-85567350D01*
X110215973Y-85517051D01*
X110252500Y-85333416D01*
X110252500Y-85146184D01*
X110215973Y-84962549D01*
X110176055Y-84866179D01*
X116541500Y-84866179D01*
X116541500Y-85053420D01*
X116578025Y-85237043D01*
X116578028Y-85237055D01*
X116598860Y-85287348D01*
X116606329Y-85356817D01*
X116598860Y-85382252D01*
X116578028Y-85432544D01*
X116578025Y-85432556D01*
X116541500Y-85616179D01*
X116541500Y-85803420D01*
X116578025Y-85987043D01*
X116578028Y-85987055D01*
X116598860Y-86037348D01*
X116606329Y-86106817D01*
X116598860Y-86132252D01*
X116578028Y-86182544D01*
X116578025Y-86182556D01*
X116541500Y-86366179D01*
X116541500Y-86553420D01*
X116578025Y-86737043D01*
X116578027Y-86737051D01*
X116649676Y-86910028D01*
X116649681Y-86910037D01*
X116753697Y-87065707D01*
X116753700Y-87065711D01*
X116886088Y-87198099D01*
X116886092Y-87198102D01*
X117041762Y-87302118D01*
X117041768Y-87302121D01*
X117041769Y-87302122D01*
X117214749Y-87373773D01*
X117398379Y-87410299D01*
X117398383Y-87410300D01*
X117398384Y-87410300D01*
X117585617Y-87410300D01*
X117585618Y-87410299D01*
X117769251Y-87373773D01*
X117819547Y-87352938D01*
X117889016Y-87345470D01*
X117914449Y-87352937D01*
X117964749Y-87373773D01*
X118148379Y-87410299D01*
X118148383Y-87410300D01*
X118148384Y-87410300D01*
X118335617Y-87410300D01*
X118335618Y-87410299D01*
X118519251Y-87373773D01*
X118569547Y-87352938D01*
X118639016Y-87345470D01*
X118664449Y-87352937D01*
X118714749Y-87373773D01*
X118898379Y-87410299D01*
X118898383Y-87410300D01*
X118898384Y-87410300D01*
X119085617Y-87410300D01*
X119085618Y-87410299D01*
X119269251Y-87373773D01*
X119319547Y-87352938D01*
X119389016Y-87345470D01*
X119414449Y-87352937D01*
X119464749Y-87373773D01*
X119648379Y-87410299D01*
X119648383Y-87410300D01*
X119648384Y-87410300D01*
X119835617Y-87410300D01*
X119835618Y-87410299D01*
X120019251Y-87373773D01*
X120069547Y-87352938D01*
X120139016Y-87345470D01*
X120164449Y-87352937D01*
X120214749Y-87373773D01*
X120398379Y-87410299D01*
X120398383Y-87410300D01*
X120398384Y-87410300D01*
X120585617Y-87410300D01*
X120585618Y-87410299D01*
X120769251Y-87373773D01*
X120942231Y-87302122D01*
X121097908Y-87198102D01*
X121230302Y-87065708D01*
X121334322Y-86910031D01*
X121405973Y-86737051D01*
X121423229Y-86650299D01*
X121431224Y-86610109D01*
X121463609Y-86548198D01*
X121524325Y-86513624D01*
X121552841Y-86510300D01*
X122429060Y-86510300D01*
X122496099Y-86529985D01*
X122516741Y-86546619D01*
X127930211Y-91960089D01*
X128041708Y-92071586D01*
X128041712Y-92071590D01*
X128172814Y-92159190D01*
X128172827Y-92159197D01*
X128318498Y-92219535D01*
X128318503Y-92219537D01*
X128473153Y-92250299D01*
X128473156Y-92250300D01*
X128473158Y-92250300D01*
X143130844Y-92250300D01*
X143130845Y-92250299D01*
X143285497Y-92219537D01*
X143431179Y-92159194D01*
X143562289Y-92071589D01*
X144923789Y-90710089D01*
X145011394Y-90578979D01*
X145071737Y-90433297D01*
X145102500Y-90278642D01*
X145102500Y-90120958D01*
X145102500Y-86832740D01*
X145122185Y-86765701D01*
X145138819Y-86745059D01*
X145347259Y-86536619D01*
X145408582Y-86503134D01*
X145434940Y-86500300D01*
X152411563Y-86500300D01*
X152478602Y-86519985D01*
X152480455Y-86521199D01*
X152511760Y-86542117D01*
X152511771Y-86542123D01*
X152539035Y-86553416D01*
X152684749Y-86613773D01*
X152868379Y-86650299D01*
X152868383Y-86650300D01*
X152868384Y-86650300D01*
X153055617Y-86650300D01*
X153055618Y-86650299D01*
X153239251Y-86613773D01*
X153412231Y-86542122D01*
X153567908Y-86438102D01*
X153700302Y-86305708D01*
X153804322Y-86150031D01*
X153867591Y-85997284D01*
X153911430Y-85942883D01*
X153977724Y-85920818D01*
X154045424Y-85938097D01*
X154051041Y-85941636D01*
X154051764Y-85942119D01*
X154051767Y-85942121D01*
X154051769Y-85942122D01*
X154224749Y-86013773D01*
X154408379Y-86050299D01*
X154408383Y-86050300D01*
X154408384Y-86050300D01*
X154595617Y-86050300D01*
X154595618Y-86050299D01*
X154779251Y-86013773D01*
X154952231Y-85942122D01*
X155107908Y-85838102D01*
X155240302Y-85705708D01*
X155344322Y-85550031D01*
X155415973Y-85377051D01*
X155452500Y-85193416D01*
X155452500Y-85006184D01*
X155415973Y-84822549D01*
X155344322Y-84649569D01*
X155344321Y-84649568D01*
X155344318Y-84649562D01*
X155240302Y-84493892D01*
X155240299Y-84493888D01*
X155107911Y-84361500D01*
X155107907Y-84361497D01*
X154952237Y-84257481D01*
X154952228Y-84257476D01*
X154779251Y-84185827D01*
X154779243Y-84185825D01*
X154595620Y-84149300D01*
X154595616Y-84149300D01*
X154408384Y-84149300D01*
X154408379Y-84149300D01*
X154224756Y-84185825D01*
X154224748Y-84185827D01*
X154094300Y-84239861D01*
X154046847Y-84249300D01*
X151927437Y-84249300D01*
X151860398Y-84229615D01*
X151858545Y-84228401D01*
X151827239Y-84207482D01*
X151827228Y-84207476D01*
X151654251Y-84135827D01*
X151654243Y-84135825D01*
X151470620Y-84099300D01*
X151470616Y-84099300D01*
X151283384Y-84099300D01*
X151283379Y-84099300D01*
X151099756Y-84135825D01*
X151099748Y-84135827D01*
X150926771Y-84207476D01*
X150926760Y-84207482D01*
X150895455Y-84228401D01*
X150828778Y-84249280D01*
X150826563Y-84249300D01*
X144251500Y-84249300D01*
X144184461Y-84229615D01*
X144138706Y-84176811D01*
X144127500Y-84125300D01*
X144127500Y-83678349D01*
X159261500Y-83678349D01*
X159261500Y-83901250D01*
X159261501Y-83901266D01*
X159290594Y-84122252D01*
X159290595Y-84122257D01*
X159290596Y-84122263D01*
X159345140Y-84325825D01*
X159348290Y-84337580D01*
X159348293Y-84337590D01*
X159419530Y-84509571D01*
X159433595Y-84543526D01*
X159545052Y-84736574D01*
X159545057Y-84736580D01*
X159545058Y-84736582D01*
X159680751Y-84913422D01*
X159680757Y-84913429D01*
X159838370Y-85071042D01*
X159838377Y-85071048D01*
X159936290Y-85146179D01*
X160015226Y-85206748D01*
X160208274Y-85318205D01*
X160248338Y-85334800D01*
X160362897Y-85382252D01*
X160414219Y-85403510D01*
X160629537Y-85461204D01*
X160850543Y-85490300D01*
X160850550Y-85490300D01*
X161073450Y-85490300D01*
X161073457Y-85490300D01*
X161294463Y-85461204D01*
X161509781Y-85403510D01*
X161715726Y-85318205D01*
X161908774Y-85206748D01*
X162085624Y-85071047D01*
X162243247Y-84913424D01*
X162378948Y-84736574D01*
X162490405Y-84543526D01*
X162575710Y-84337581D01*
X162633404Y-84122263D01*
X162662500Y-83901257D01*
X162662500Y-83678343D01*
X162633404Y-83457337D01*
X162575710Y-83242019D01*
X162490405Y-83036074D01*
X162378948Y-82843026D01*
X162243247Y-82666176D01*
X162243242Y-82666170D01*
X162085629Y-82508557D01*
X162085622Y-82508551D01*
X161908782Y-82372858D01*
X161908780Y-82372857D01*
X161908774Y-82372852D01*
X161715726Y-82261395D01*
X161715722Y-82261393D01*
X161509790Y-82176093D01*
X161509783Y-82176091D01*
X161509781Y-82176090D01*
X161294463Y-82118396D01*
X161294457Y-82118395D01*
X161294452Y-82118394D01*
X161073466Y-82089301D01*
X161073463Y-82089300D01*
X161073457Y-82089300D01*
X160850543Y-82089300D01*
X160850537Y-82089300D01*
X160850533Y-82089301D01*
X160629547Y-82118394D01*
X160629540Y-82118395D01*
X160629537Y-82118396D01*
X160451241Y-82166170D01*
X160414219Y-82176090D01*
X160414209Y-82176093D01*
X160208277Y-82261393D01*
X160208273Y-82261395D01*
X160015226Y-82372852D01*
X160015217Y-82372858D01*
X159838377Y-82508551D01*
X159838370Y-82508557D01*
X159680757Y-82666170D01*
X159680751Y-82666177D01*
X159545058Y-82843017D01*
X159545052Y-82843026D01*
X159433595Y-83036073D01*
X159433593Y-83036077D01*
X159348293Y-83242009D01*
X159348290Y-83242019D01*
X159305625Y-83401250D01*
X159290597Y-83457334D01*
X159290594Y-83457347D01*
X159261501Y-83678333D01*
X159261500Y-83678349D01*
X144127500Y-83678349D01*
X144127500Y-75849300D01*
X144147185Y-75782261D01*
X144199989Y-75736506D01*
X144251500Y-75725300D01*
X150545844Y-75725300D01*
X150545845Y-75725299D01*
X150700497Y-75694537D01*
X150846179Y-75634194D01*
X150977289Y-75546589D01*
X151212259Y-75311619D01*
X151273582Y-75278134D01*
X151299940Y-75275300D01*
X158976563Y-75275300D01*
X159043602Y-75294985D01*
X159045455Y-75296199D01*
X159076760Y-75317117D01*
X159076768Y-75317121D01*
X159076769Y-75317122D01*
X159249749Y-75388773D01*
X159433379Y-75425299D01*
X159433383Y-75425300D01*
X159433384Y-75425300D01*
X159620617Y-75425300D01*
X159620618Y-75425299D01*
X159804251Y-75388773D01*
X159977231Y-75317122D01*
X160132908Y-75213102D01*
X160265302Y-75080708D01*
X160369322Y-74925031D01*
X160440973Y-74752051D01*
X160477500Y-74568416D01*
X160477500Y-74381184D01*
X160440973Y-74197549D01*
X160369322Y-74024569D01*
X160369321Y-74024568D01*
X160369318Y-74024562D01*
X160265302Y-73868892D01*
X160265299Y-73868888D01*
X160132911Y-73736500D01*
X160132907Y-73736497D01*
X159977237Y-73632481D01*
X159977228Y-73632476D01*
X159804251Y-73560827D01*
X159804243Y-73560825D01*
X159620620Y-73524300D01*
X159620616Y-73524300D01*
X159433384Y-73524300D01*
X159433379Y-73524300D01*
X159249756Y-73560825D01*
X159249748Y-73560827D01*
X159076771Y-73632476D01*
X159076760Y-73632482D01*
X159045455Y-73653401D01*
X158978778Y-73674280D01*
X158976563Y-73674300D01*
X150838155Y-73674300D01*
X150683510Y-73705061D01*
X150683498Y-73705064D01*
X150537827Y-73765402D01*
X150537820Y-73765406D01*
X150501328Y-73789790D01*
X150464835Y-73814174D01*
X150464834Y-73814175D01*
X150406708Y-73853012D01*
X150406707Y-73853013D01*
X150171741Y-74087981D01*
X150110418Y-74121466D01*
X150084060Y-74124300D01*
X143709940Y-74124300D01*
X143642901Y-74104615D01*
X143622259Y-74087981D01*
X142588819Y-73054541D01*
X142555334Y-72993218D01*
X142552500Y-72966860D01*
X142552500Y-69325237D01*
X142563890Y-69273325D01*
X142567977Y-69264458D01*
X142594322Y-69225031D01*
X142643552Y-69106179D01*
X157351500Y-69106179D01*
X157351500Y-69293420D01*
X157388025Y-69477043D01*
X157388028Y-69477055D01*
X157408860Y-69527348D01*
X157416329Y-69596817D01*
X157408860Y-69622252D01*
X157388028Y-69672544D01*
X157388025Y-69672556D01*
X157351500Y-69856179D01*
X157351500Y-70043420D01*
X157388025Y-70227043D01*
X157388028Y-70227055D01*
X157408860Y-70277348D01*
X157416329Y-70346817D01*
X157408860Y-70372252D01*
X157388028Y-70422544D01*
X157388025Y-70422556D01*
X157351500Y-70606179D01*
X157351500Y-70793420D01*
X157388025Y-70977043D01*
X157388027Y-70977051D01*
X157459676Y-71150028D01*
X157459681Y-71150037D01*
X157563697Y-71305707D01*
X157563700Y-71305711D01*
X157696088Y-71438099D01*
X157696092Y-71438102D01*
X157851762Y-71542118D01*
X157851768Y-71542121D01*
X157851769Y-71542122D01*
X158024749Y-71613773D01*
X158207017Y-71650028D01*
X158208379Y-71650299D01*
X158208383Y-71650300D01*
X158208384Y-71650300D01*
X158395617Y-71650300D01*
X158395618Y-71650299D01*
X158579251Y-71613773D01*
X158629547Y-71592938D01*
X158699016Y-71585470D01*
X158724449Y-71592937D01*
X158774749Y-71613773D01*
X158957017Y-71650028D01*
X158958379Y-71650299D01*
X158958383Y-71650300D01*
X158958384Y-71650300D01*
X159145617Y-71650300D01*
X159145618Y-71650299D01*
X159329251Y-71613773D01*
X159379547Y-71592938D01*
X159449016Y-71585470D01*
X159474449Y-71592937D01*
X159524749Y-71613773D01*
X159707017Y-71650028D01*
X159708379Y-71650299D01*
X159708383Y-71650300D01*
X159708384Y-71650300D01*
X159895617Y-71650300D01*
X159895618Y-71650299D01*
X160079251Y-71613773D01*
X160129547Y-71592938D01*
X160199016Y-71585470D01*
X160224449Y-71592937D01*
X160274749Y-71613773D01*
X160457017Y-71650028D01*
X160458379Y-71650299D01*
X160458383Y-71650300D01*
X160458384Y-71650300D01*
X160645617Y-71650300D01*
X160645618Y-71650299D01*
X160829251Y-71613773D01*
X160879547Y-71592938D01*
X160949016Y-71585470D01*
X160974449Y-71592937D01*
X161024749Y-71613773D01*
X161207017Y-71650028D01*
X161208379Y-71650299D01*
X161208383Y-71650300D01*
X161208384Y-71650300D01*
X161395617Y-71650300D01*
X161395618Y-71650299D01*
X161579251Y-71613773D01*
X161752231Y-71542122D01*
X161907908Y-71438102D01*
X162040302Y-71305708D01*
X162144322Y-71150031D01*
X162215973Y-70977051D01*
X162252500Y-70793416D01*
X162252500Y-70606184D01*
X162215973Y-70422549D01*
X162195138Y-70372252D01*
X162187670Y-70302784D01*
X162195137Y-70277350D01*
X162215973Y-70227051D01*
X162252500Y-70043416D01*
X162252500Y-69856184D01*
X162215973Y-69672549D01*
X162195138Y-69622252D01*
X162187670Y-69552784D01*
X162195137Y-69527350D01*
X162215973Y-69477051D01*
X162252500Y-69293416D01*
X162252500Y-69106184D01*
X162215973Y-68922549D01*
X162160554Y-68788756D01*
X162144323Y-68749571D01*
X162144318Y-68749562D01*
X162040302Y-68593892D01*
X162040299Y-68593888D01*
X161907911Y-68461500D01*
X161907907Y-68461497D01*
X161752237Y-68357481D01*
X161752228Y-68357476D01*
X161579251Y-68285827D01*
X161579243Y-68285825D01*
X161395620Y-68249300D01*
X161395616Y-68249300D01*
X161208384Y-68249300D01*
X161208379Y-68249300D01*
X161024756Y-68285825D01*
X161024744Y-68285828D01*
X160974452Y-68306660D01*
X160904983Y-68314129D01*
X160879548Y-68306660D01*
X160829255Y-68285828D01*
X160829243Y-68285825D01*
X160645620Y-68249300D01*
X160645616Y-68249300D01*
X160458384Y-68249300D01*
X160458379Y-68249300D01*
X160274756Y-68285825D01*
X160274744Y-68285828D01*
X160224452Y-68306660D01*
X160154983Y-68314129D01*
X160129548Y-68306660D01*
X160079255Y-68285828D01*
X160079243Y-68285825D01*
X159895620Y-68249300D01*
X159895616Y-68249300D01*
X159708384Y-68249300D01*
X159708379Y-68249300D01*
X159524756Y-68285825D01*
X159524744Y-68285828D01*
X159474452Y-68306660D01*
X159404983Y-68314129D01*
X159379548Y-68306660D01*
X159329255Y-68285828D01*
X159329243Y-68285825D01*
X159145620Y-68249300D01*
X159145616Y-68249300D01*
X158958384Y-68249300D01*
X158958379Y-68249300D01*
X158774756Y-68285825D01*
X158774744Y-68285828D01*
X158724452Y-68306660D01*
X158654983Y-68314129D01*
X158629548Y-68306660D01*
X158579255Y-68285828D01*
X158579243Y-68285825D01*
X158395620Y-68249300D01*
X158395616Y-68249300D01*
X158208384Y-68249300D01*
X158208379Y-68249300D01*
X158024756Y-68285825D01*
X158024748Y-68285827D01*
X157851771Y-68357476D01*
X157851762Y-68357481D01*
X157696092Y-68461497D01*
X157696088Y-68461500D01*
X157563700Y-68593888D01*
X157563697Y-68593892D01*
X157459681Y-68749562D01*
X157459676Y-68749571D01*
X157388027Y-68922548D01*
X157388025Y-68922556D01*
X157351500Y-69106179D01*
X142643552Y-69106179D01*
X142665973Y-69052051D01*
X142702500Y-68868416D01*
X142702500Y-68681184D01*
X142665973Y-68497549D01*
X142594322Y-68324569D01*
X142582356Y-68306660D01*
X142573397Y-68293251D01*
X142552520Y-68226574D01*
X142552500Y-68224362D01*
X142552500Y-62895957D01*
X142552499Y-62895954D01*
X142532804Y-62796937D01*
X142521739Y-62741308D01*
X142521736Y-62741299D01*
X142503752Y-62697882D01*
X142461395Y-62595623D01*
X142461390Y-62595614D01*
X142373790Y-62464512D01*
X142373789Y-62464511D01*
X142262289Y-62353011D01*
X141202464Y-61293186D01*
X154691500Y-61293186D01*
X154691500Y-63406413D01*
X154697913Y-63476992D01*
X154748522Y-63639406D01*
X154836530Y-63784988D01*
X154956811Y-63905269D01*
X154956813Y-63905270D01*
X154956815Y-63905272D01*
X155102394Y-63993278D01*
X155264804Y-64043886D01*
X155335384Y-64050300D01*
X155335387Y-64050300D01*
X157448613Y-64050300D01*
X157448616Y-64050300D01*
X157519196Y-64043886D01*
X157681606Y-63993278D01*
X157827185Y-63905272D01*
X157947472Y-63784985D01*
X158035478Y-63639406D01*
X158086086Y-63476996D01*
X158092500Y-63406416D01*
X158092500Y-61293184D01*
X158086086Y-61222604D01*
X158035478Y-61060194D01*
X157947472Y-60914615D01*
X157947470Y-60914613D01*
X157947469Y-60914611D01*
X157827188Y-60794330D01*
X157681606Y-60706322D01*
X157519196Y-60655714D01*
X157519194Y-60655713D01*
X157519192Y-60655713D01*
X157469778Y-60651223D01*
X157448616Y-60649300D01*
X155335384Y-60649300D01*
X155316145Y-60651048D01*
X155264807Y-60655713D01*
X155102393Y-60706322D01*
X154956811Y-60794330D01*
X154836530Y-60914611D01*
X154748522Y-61060193D01*
X154697913Y-61222607D01*
X154691500Y-61293186D01*
X141202464Y-61293186D01*
X140788819Y-60879541D01*
X140755334Y-60818218D01*
X140752500Y-60791860D01*
X140752500Y-56200237D01*
X140772185Y-56133198D01*
X140773399Y-56131345D01*
X140794317Y-56100039D01*
X140794318Y-56100036D01*
X140794322Y-56100031D01*
X140865973Y-55927051D01*
X140902500Y-55743416D01*
X140902500Y-55556184D01*
X140865973Y-55372549D01*
X140840692Y-55311517D01*
X140833224Y-55242052D01*
X140840691Y-55216619D01*
X140868473Y-55149551D01*
X140905000Y-54965916D01*
X140905000Y-54778684D01*
X140868473Y-54595049D01*
X140796822Y-54422069D01*
X140796821Y-54422068D01*
X140796818Y-54422062D01*
X140771810Y-54384635D01*
X140728485Y-54319795D01*
X148561200Y-54319795D01*
X148561200Y-54559804D01*
X148582670Y-54722878D01*
X148592526Y-54797738D01*
X148611930Y-54870155D01*
X148654641Y-55029556D01*
X148746479Y-55251272D01*
X148746483Y-55251281D01*
X148768444Y-55289318D01*
X148866479Y-55459120D01*
X148866481Y-55459123D01*
X148866482Y-55459124D01*
X149012576Y-55649518D01*
X149012582Y-55649525D01*
X149182274Y-55819217D01*
X149182281Y-55819223D01*
X149279885Y-55894117D01*
X149372680Y-55965321D01*
X149580521Y-56085318D01*
X149675555Y-56124682D01*
X149802243Y-56177158D01*
X149802244Y-56177158D01*
X149802246Y-56177159D01*
X150034062Y-56239274D01*
X150272003Y-56270600D01*
X150272010Y-56270600D01*
X150511990Y-56270600D01*
X150511997Y-56270600D01*
X150749938Y-56239274D01*
X150981754Y-56177159D01*
X151203479Y-56085318D01*
X151411320Y-55965321D01*
X151601720Y-55819222D01*
X151771422Y-55649520D01*
X151917521Y-55459120D01*
X152037518Y-55251279D01*
X152129359Y-55029554D01*
X152191474Y-54797738D01*
X152222800Y-54559797D01*
X152222800Y-54323434D01*
X152866500Y-54323434D01*
X152866500Y-54556165D01*
X152866501Y-54556182D01*
X152896418Y-54783431D01*
X152896879Y-54786926D01*
X152944839Y-54965916D01*
X152957120Y-55011747D01*
X153046180Y-55226760D01*
X153046188Y-55226776D01*
X153162553Y-55428324D01*
X153162564Y-55428340D01*
X153304242Y-55612979D01*
X153304248Y-55612986D01*
X153468813Y-55777551D01*
X153468820Y-55777557D01*
X153568610Y-55854128D01*
X153653468Y-55919242D01*
X153653475Y-55919246D01*
X153855023Y-56035611D01*
X153855039Y-56035619D01*
X154070052Y-56124679D01*
X154070054Y-56124679D01*
X154070060Y-56124682D01*
X154294874Y-56184921D01*
X154525628Y-56215300D01*
X154525635Y-56215300D01*
X154758365Y-56215300D01*
X154758372Y-56215300D01*
X154989126Y-56184921D01*
X155213940Y-56124682D01*
X155308979Y-56085316D01*
X155428960Y-56035619D01*
X155428963Y-56035617D01*
X155428969Y-56035615D01*
X155630532Y-55919242D01*
X155815181Y-55777556D01*
X155979756Y-55612981D01*
X156121442Y-55428332D01*
X156237815Y-55226769D01*
X156269800Y-55149551D01*
X156326879Y-55011747D01*
X156326878Y-55011747D01*
X156326882Y-55011740D01*
X156387121Y-54786926D01*
X156417500Y-54556172D01*
X156417500Y-54323428D01*
X156417022Y-54319795D01*
X157061200Y-54319795D01*
X157061200Y-54559804D01*
X157082670Y-54722878D01*
X157092526Y-54797738D01*
X157111930Y-54870155D01*
X157154641Y-55029556D01*
X157246479Y-55251272D01*
X157246483Y-55251281D01*
X157268444Y-55289318D01*
X157366479Y-55459120D01*
X157366481Y-55459123D01*
X157366482Y-55459124D01*
X157512576Y-55649518D01*
X157512582Y-55649525D01*
X157682274Y-55819217D01*
X157682281Y-55819223D01*
X157779885Y-55894117D01*
X157872680Y-55965321D01*
X158080521Y-56085318D01*
X158175555Y-56124682D01*
X158302243Y-56177158D01*
X158302244Y-56177158D01*
X158302246Y-56177159D01*
X158534062Y-56239274D01*
X158772003Y-56270600D01*
X158772010Y-56270600D01*
X159011990Y-56270600D01*
X159011997Y-56270600D01*
X159249938Y-56239274D01*
X159481754Y-56177159D01*
X159703479Y-56085318D01*
X159911320Y-55965321D01*
X160101720Y-55819222D01*
X160271422Y-55649520D01*
X160417521Y-55459120D01*
X160537518Y-55251279D01*
X160629359Y-55029554D01*
X160691474Y-54797738D01*
X160722800Y-54559797D01*
X160722800Y-54319803D01*
X160691474Y-54081862D01*
X160629359Y-53850046D01*
X160537518Y-53628321D01*
X160417521Y-53420480D01*
X160299460Y-53266620D01*
X160271423Y-53230081D01*
X160271417Y-53230074D01*
X160101725Y-53060382D01*
X160101718Y-53060376D01*
X159911324Y-52914282D01*
X159911323Y-52914281D01*
X159911320Y-52914279D01*
X159703479Y-52794282D01*
X159703472Y-52794279D01*
X159481756Y-52702441D01*
X159365846Y-52671383D01*
X159249938Y-52640326D01*
X159197062Y-52633364D01*
X159012004Y-52609000D01*
X159011997Y-52609000D01*
X158772003Y-52609000D01*
X158771995Y-52609000D01*
X158560499Y-52636845D01*
X158534062Y-52640326D01*
X158476108Y-52655854D01*
X158302243Y-52702441D01*
X158080527Y-52794279D01*
X158080518Y-52794283D01*
X157872675Y-52914282D01*
X157682281Y-53060376D01*
X157682274Y-53060382D01*
X157512582Y-53230074D01*
X157512576Y-53230081D01*
X157366482Y-53420475D01*
X157246483Y-53628318D01*
X157246479Y-53628327D01*
X157154641Y-53850043D01*
X157125627Y-53958327D01*
X157097201Y-54064417D01*
X157092526Y-54081863D01*
X157061200Y-54319795D01*
X156417022Y-54319795D01*
X156387121Y-54092674D01*
X156326882Y-53867860D01*
X156325983Y-53865690D01*
X156237819Y-53652839D01*
X156237811Y-53652823D01*
X156121446Y-53451275D01*
X156121442Y-53451268D01*
X155979756Y-53266619D01*
X155979751Y-53266613D01*
X155815186Y-53102048D01*
X155815179Y-53102042D01*
X155630540Y-52960364D01*
X155630538Y-52960362D01*
X155630532Y-52960358D01*
X155630527Y-52960355D01*
X155630524Y-52960353D01*
X155428976Y-52843988D01*
X155428960Y-52843980D01*
X155213947Y-52754920D01*
X154989122Y-52694678D01*
X154758382Y-52664301D01*
X154758377Y-52664300D01*
X154758372Y-52664300D01*
X154525628Y-52664300D01*
X154525622Y-52664300D01*
X154525617Y-52664301D01*
X154294877Y-52694678D01*
X154070052Y-52754920D01*
X153855039Y-52843980D01*
X153855023Y-52843988D01*
X153653475Y-52960353D01*
X153653459Y-52960364D01*
X153468820Y-53102042D01*
X153468813Y-53102048D01*
X153304248Y-53266613D01*
X153304242Y-53266620D01*
X153162564Y-53451259D01*
X153162553Y-53451275D01*
X153046188Y-53652823D01*
X153046180Y-53652839D01*
X152957120Y-53867852D01*
X152896878Y-54092677D01*
X152866501Y-54323417D01*
X152866500Y-54323434D01*
X152222800Y-54323434D01*
X152222800Y-54319803D01*
X152191474Y-54081862D01*
X152129359Y-53850046D01*
X152037518Y-53628321D01*
X151917521Y-53420480D01*
X151799460Y-53266620D01*
X151771423Y-53230081D01*
X151771417Y-53230074D01*
X151601725Y-53060382D01*
X151601718Y-53060376D01*
X151411324Y-52914282D01*
X151411323Y-52914281D01*
X151411320Y-52914279D01*
X151203479Y-52794282D01*
X151203472Y-52794279D01*
X150981756Y-52702441D01*
X150865846Y-52671383D01*
X150749938Y-52640326D01*
X150697062Y-52633364D01*
X150512004Y-52609000D01*
X150511997Y-52609000D01*
X150272003Y-52609000D01*
X150271995Y-52609000D01*
X150060499Y-52636845D01*
X150034062Y-52640326D01*
X149976108Y-52655854D01*
X149802243Y-52702441D01*
X149580527Y-52794279D01*
X149580518Y-52794283D01*
X149372675Y-52914282D01*
X149182281Y-53060376D01*
X149182274Y-53060382D01*
X149012582Y-53230074D01*
X149012576Y-53230081D01*
X148866482Y-53420475D01*
X148746483Y-53628318D01*
X148746479Y-53628327D01*
X148654641Y-53850043D01*
X148625627Y-53958327D01*
X148597201Y-54064417D01*
X148592526Y-54081863D01*
X148561200Y-54319795D01*
X140728485Y-54319795D01*
X140692802Y-54266392D01*
X140692799Y-54266388D01*
X140560411Y-54134000D01*
X140560407Y-54133997D01*
X140404737Y-54029981D01*
X140404728Y-54029976D01*
X140231751Y-53958327D01*
X140231743Y-53958325D01*
X140048120Y-53921800D01*
X140048116Y-53921800D01*
X139860884Y-53921800D01*
X139860879Y-53921800D01*
X139677256Y-53958325D01*
X139677248Y-53958327D01*
X139504271Y-54029976D01*
X139504262Y-54029981D01*
X139348592Y-54133997D01*
X139348588Y-54134000D01*
X139216200Y-54266388D01*
X139216197Y-54266392D01*
X139112181Y-54422062D01*
X139112176Y-54422071D01*
X139040527Y-54595048D01*
X139040525Y-54595056D01*
X139004000Y-54778679D01*
X139004000Y-54965920D01*
X139040524Y-55149543D01*
X139040526Y-55149547D01*
X139040527Y-55149551D01*
X139058172Y-55192152D01*
X139065806Y-55210581D01*
X139073273Y-55280051D01*
X139065806Y-55305483D01*
X139038026Y-55372552D01*
X139038024Y-55372556D01*
X139001500Y-55556179D01*
X139001500Y-55743420D01*
X139038025Y-55927043D01*
X139038027Y-55927051D01*
X139109676Y-56100028D01*
X139109682Y-56100039D01*
X139130601Y-56131345D01*
X139151480Y-56198022D01*
X139151500Y-56200237D01*
X139151500Y-61253646D01*
X139182261Y-61408289D01*
X139182264Y-61408301D01*
X139242602Y-61553972D01*
X139242609Y-61553985D01*
X139330210Y-61685088D01*
X139330213Y-61685092D01*
X140915181Y-63270059D01*
X140948666Y-63331382D01*
X140951500Y-63357740D01*
X140951500Y-68224362D01*
X140931815Y-68291401D01*
X140930603Y-68293251D01*
X140909678Y-68324568D01*
X140838027Y-68497548D01*
X140838025Y-68497556D01*
X140801500Y-68681179D01*
X140801500Y-68868420D01*
X140838025Y-69052043D01*
X140838027Y-69052051D01*
X140909676Y-69225028D01*
X140909682Y-69225039D01*
X140930601Y-69256345D01*
X140951480Y-69323022D01*
X140951500Y-69325237D01*
X140951500Y-73428646D01*
X140982261Y-73583289D01*
X140982264Y-73583301D01*
X141042602Y-73728972D01*
X141042609Y-73728985D01*
X141130210Y-73860088D01*
X141130213Y-73860092D01*
X142490181Y-75220059D01*
X142523666Y-75281382D01*
X142526500Y-75307740D01*
X142526500Y-83883986D01*
X142518492Y-83911255D01*
X142513512Y-83939233D01*
X142508777Y-83944342D01*
X142506815Y-83951025D01*
X142485342Y-83969631D01*
X142466021Y-83990481D01*
X142457499Y-83993757D01*
X142454011Y-83996780D01*
X142433445Y-84004063D01*
X142430083Y-84004929D01*
X142274749Y-84035827D01*
X142216392Y-84059998D01*
X142207945Y-84062176D01*
X142181394Y-84061289D01*
X142154983Y-84064129D01*
X142140682Y-84059929D01*
X142138114Y-84059844D01*
X142136430Y-84058681D01*
X142129548Y-84056660D01*
X142079255Y-84035828D01*
X142079243Y-84035825D01*
X141895620Y-83999300D01*
X141895616Y-83999300D01*
X141708384Y-83999300D01*
X141708379Y-83999300D01*
X141524756Y-84035825D01*
X141524744Y-84035828D01*
X141474452Y-84056660D01*
X141404983Y-84064129D01*
X141379548Y-84056660D01*
X141329255Y-84035828D01*
X141329243Y-84035825D01*
X141145620Y-83999300D01*
X141145616Y-83999300D01*
X140958384Y-83999300D01*
X140958379Y-83999300D01*
X140774756Y-84035825D01*
X140774744Y-84035828D01*
X140724452Y-84056660D01*
X140654983Y-84064129D01*
X140629548Y-84056660D01*
X140579255Y-84035828D01*
X140579243Y-84035825D01*
X140395620Y-83999300D01*
X140395616Y-83999300D01*
X140208384Y-83999300D01*
X140208379Y-83999300D01*
X140024756Y-84035825D01*
X140024744Y-84035828D01*
X139974452Y-84056660D01*
X139904983Y-84064129D01*
X139879548Y-84056660D01*
X139829255Y-84035828D01*
X139829243Y-84035825D01*
X139645620Y-83999300D01*
X139645616Y-83999300D01*
X139458384Y-83999300D01*
X139458379Y-83999300D01*
X139274756Y-84035825D01*
X139274748Y-84035827D01*
X139101771Y-84107476D01*
X139101762Y-84107481D01*
X138946092Y-84211497D01*
X138946088Y-84211500D01*
X138813700Y-84343888D01*
X138813697Y-84343892D01*
X138709681Y-84499562D01*
X138709676Y-84499571D01*
X138638027Y-84672548D01*
X138638025Y-84672556D01*
X138601500Y-84856179D01*
X138601500Y-85043420D01*
X138638025Y-85227043D01*
X138638028Y-85227055D01*
X138658860Y-85277348D01*
X138666329Y-85346817D01*
X138658860Y-85372252D01*
X138638028Y-85422544D01*
X138638025Y-85422556D01*
X138601500Y-85606179D01*
X138601500Y-85793420D01*
X138638025Y-85977043D01*
X138638028Y-85977055D01*
X138658860Y-86027348D01*
X138666329Y-86096817D01*
X138658860Y-86122252D01*
X138638028Y-86172544D01*
X138638025Y-86172556D01*
X138601500Y-86356179D01*
X138601500Y-86543420D01*
X138638025Y-86727043D01*
X138638027Y-86727051D01*
X138709676Y-86900028D01*
X138709681Y-86900037D01*
X138813697Y-87055707D01*
X138813700Y-87055711D01*
X138946088Y-87188099D01*
X138946092Y-87188102D01*
X139101762Y-87292118D01*
X139101768Y-87292121D01*
X139101769Y-87292122D01*
X139274749Y-87363773D01*
X139434434Y-87395536D01*
X139458379Y-87400299D01*
X139458383Y-87400300D01*
X139458384Y-87400300D01*
X139645617Y-87400300D01*
X139645618Y-87400299D01*
X139829251Y-87363773D01*
X139879547Y-87342938D01*
X139949016Y-87335470D01*
X139974449Y-87342937D01*
X140024749Y-87363773D01*
X140184434Y-87395536D01*
X140208379Y-87400299D01*
X140208383Y-87400300D01*
X140208384Y-87400300D01*
X140395617Y-87400300D01*
X140395618Y-87400299D01*
X140579251Y-87363773D01*
X140629547Y-87342938D01*
X140699016Y-87335470D01*
X140724449Y-87342937D01*
X140774749Y-87363773D01*
X140934434Y-87395536D01*
X140958379Y-87400299D01*
X140958383Y-87400300D01*
X140958384Y-87400300D01*
X141145617Y-87400300D01*
X141145618Y-87400299D01*
X141329251Y-87363773D01*
X141379547Y-87342938D01*
X141449016Y-87335470D01*
X141474449Y-87342937D01*
X141524749Y-87363773D01*
X141684434Y-87395536D01*
X141708379Y-87400299D01*
X141708383Y-87400300D01*
X141708384Y-87400300D01*
X141895617Y-87400300D01*
X141895618Y-87400299D01*
X142079251Y-87363773D01*
X142129547Y-87342938D01*
X142151703Y-87340556D01*
X142172862Y-87333569D01*
X142189162Y-87336529D01*
X142199016Y-87335470D01*
X142207945Y-87337423D01*
X142216390Y-87339599D01*
X142274749Y-87363773D01*
X142430100Y-87394674D01*
X142433445Y-87395536D01*
X142460595Y-87411730D01*
X142488602Y-87426380D01*
X142490374Y-87429493D01*
X142493451Y-87431328D01*
X142507536Y-87459631D01*
X142523176Y-87487096D01*
X142523778Y-87492268D01*
X142524581Y-87493880D01*
X142524282Y-87496592D01*
X142526500Y-87515613D01*
X142526500Y-89533313D01*
X142506815Y-89600352D01*
X142454011Y-89646107D01*
X142449957Y-89647872D01*
X142426772Y-89657476D01*
X142395453Y-89678403D01*
X142328775Y-89699280D01*
X142326563Y-89699300D01*
X131829937Y-89699300D01*
X131762898Y-89679615D01*
X131761045Y-89678401D01*
X131729739Y-89657482D01*
X131729728Y-89657476D01*
X131556751Y-89585827D01*
X131556743Y-89585825D01*
X131373120Y-89549300D01*
X131373116Y-89549300D01*
X131185884Y-89549300D01*
X131185879Y-89549300D01*
X131002256Y-89585825D01*
X131002248Y-89585827D01*
X130829271Y-89657476D01*
X130829262Y-89657481D01*
X130673592Y-89761497D01*
X130673588Y-89761500D01*
X130541200Y-89893888D01*
X130541197Y-89893892D01*
X130437181Y-90049562D01*
X130437176Y-90049571D01*
X130365527Y-90222548D01*
X130365525Y-90222556D01*
X130329000Y-90406179D01*
X130329000Y-90525300D01*
X130309315Y-90592339D01*
X130256511Y-90638094D01*
X130205000Y-90649300D01*
X128934940Y-90649300D01*
X128867901Y-90629615D01*
X128847259Y-90612981D01*
X123322292Y-85088013D01*
X123322288Y-85088010D01*
X123191185Y-85000409D01*
X123191172Y-85000402D01*
X123104864Y-84964653D01*
X123045501Y-84940064D01*
X123045489Y-84940061D01*
X122890845Y-84909300D01*
X122890842Y-84909300D01*
X121552841Y-84909300D01*
X121485802Y-84889615D01*
X121456829Y-84856179D01*
X127004000Y-84856179D01*
X127004000Y-85043420D01*
X127040525Y-85227043D01*
X127040528Y-85227055D01*
X127061360Y-85277348D01*
X127068829Y-85346817D01*
X127061360Y-85372252D01*
X127040528Y-85422544D01*
X127040525Y-85422556D01*
X127004000Y-85606179D01*
X127004000Y-85793420D01*
X127040525Y-85977043D01*
X127040528Y-85977055D01*
X127061360Y-86027348D01*
X127068829Y-86096817D01*
X127061360Y-86122252D01*
X127040528Y-86172544D01*
X127040525Y-86172556D01*
X127004000Y-86356179D01*
X127004000Y-86543420D01*
X127040525Y-86727043D01*
X127040527Y-86727051D01*
X127112176Y-86900028D01*
X127112181Y-86900037D01*
X127216197Y-87055707D01*
X127216200Y-87055711D01*
X127348588Y-87188099D01*
X127348592Y-87188102D01*
X127504262Y-87292118D01*
X127504268Y-87292121D01*
X127504269Y-87292122D01*
X127677249Y-87363773D01*
X127836934Y-87395536D01*
X127860879Y-87400299D01*
X127860883Y-87400300D01*
X127860884Y-87400300D01*
X128048117Y-87400300D01*
X128048118Y-87400299D01*
X128231751Y-87363773D01*
X128282047Y-87342938D01*
X128351516Y-87335470D01*
X128376949Y-87342937D01*
X128427249Y-87363773D01*
X128586934Y-87395536D01*
X128610879Y-87400299D01*
X128610883Y-87400300D01*
X128610884Y-87400300D01*
X128798117Y-87400300D01*
X128798118Y-87400299D01*
X128981751Y-87363773D01*
X129032047Y-87342938D01*
X129101516Y-87335470D01*
X129126949Y-87342937D01*
X129177249Y-87363773D01*
X129336934Y-87395536D01*
X129360879Y-87400299D01*
X129360883Y-87400300D01*
X129360884Y-87400300D01*
X129548117Y-87400300D01*
X129548118Y-87400299D01*
X129731751Y-87363773D01*
X129782047Y-87342938D01*
X129851516Y-87335470D01*
X129876949Y-87342937D01*
X129927249Y-87363773D01*
X130086934Y-87395536D01*
X130110879Y-87400299D01*
X130110883Y-87400300D01*
X130110884Y-87400300D01*
X130298117Y-87400300D01*
X130298118Y-87400299D01*
X130481751Y-87363773D01*
X130532047Y-87342938D01*
X130601516Y-87335470D01*
X130626949Y-87342937D01*
X130677249Y-87363773D01*
X130836934Y-87395536D01*
X130860879Y-87400299D01*
X130860883Y-87400300D01*
X130860884Y-87400300D01*
X131048117Y-87400300D01*
X131048118Y-87400299D01*
X131231751Y-87363773D01*
X131404731Y-87292122D01*
X131560408Y-87188102D01*
X131692802Y-87055708D01*
X131796822Y-86900031D01*
X131868473Y-86727051D01*
X131905000Y-86543416D01*
X131905000Y-86356184D01*
X131868473Y-86172549D01*
X131847638Y-86122252D01*
X131840170Y-86052784D01*
X131847637Y-86027350D01*
X131868473Y-85977051D01*
X131905000Y-85793416D01*
X131905000Y-85606184D01*
X131868473Y-85422549D01*
X131847638Y-85372252D01*
X131840170Y-85302784D01*
X131847637Y-85277350D01*
X131868473Y-85227051D01*
X131905000Y-85043416D01*
X131905000Y-84856184D01*
X131868473Y-84672549D01*
X131796822Y-84499569D01*
X131796821Y-84499568D01*
X131796818Y-84499562D01*
X131692802Y-84343892D01*
X131692799Y-84343888D01*
X131560411Y-84211500D01*
X131560407Y-84211497D01*
X131404737Y-84107481D01*
X131404728Y-84107476D01*
X131231751Y-84035827D01*
X131231743Y-84035825D01*
X131048120Y-83999300D01*
X131048116Y-83999300D01*
X130860884Y-83999300D01*
X130860879Y-83999300D01*
X130677256Y-84035825D01*
X130677244Y-84035828D01*
X130626952Y-84056660D01*
X130557483Y-84064129D01*
X130532048Y-84056660D01*
X130481755Y-84035828D01*
X130481743Y-84035825D01*
X130298120Y-83999300D01*
X130298116Y-83999300D01*
X130110884Y-83999300D01*
X130110879Y-83999300D01*
X129927256Y-84035825D01*
X129927244Y-84035828D01*
X129876952Y-84056660D01*
X129807483Y-84064129D01*
X129782048Y-84056660D01*
X129731755Y-84035828D01*
X129731743Y-84035825D01*
X129548120Y-83999300D01*
X129548116Y-83999300D01*
X129360884Y-83999300D01*
X129360879Y-83999300D01*
X129177256Y-84035825D01*
X129177244Y-84035828D01*
X129126952Y-84056660D01*
X129057483Y-84064129D01*
X129032048Y-84056660D01*
X128981755Y-84035828D01*
X128981743Y-84035825D01*
X128798120Y-83999300D01*
X128798116Y-83999300D01*
X128610884Y-83999300D01*
X128610879Y-83999300D01*
X128427256Y-84035825D01*
X128427244Y-84035828D01*
X128376952Y-84056660D01*
X128307483Y-84064129D01*
X128282048Y-84056660D01*
X128231755Y-84035828D01*
X128231743Y-84035825D01*
X128048120Y-83999300D01*
X128048116Y-83999300D01*
X127860884Y-83999300D01*
X127860879Y-83999300D01*
X127677256Y-84035825D01*
X127677248Y-84035827D01*
X127504271Y-84107476D01*
X127504262Y-84107481D01*
X127348592Y-84211497D01*
X127348588Y-84211500D01*
X127216200Y-84343888D01*
X127216197Y-84343892D01*
X127112181Y-84499562D01*
X127112176Y-84499571D01*
X127040527Y-84672548D01*
X127040525Y-84672556D01*
X127004000Y-84856179D01*
X121456829Y-84856179D01*
X121440047Y-84836811D01*
X121431224Y-84809491D01*
X121405974Y-84682556D01*
X121405973Y-84682549D01*
X121334322Y-84509569D01*
X121334321Y-84509568D01*
X121334318Y-84509562D01*
X121230302Y-84353892D01*
X121230299Y-84353888D01*
X121097911Y-84221500D01*
X121097907Y-84221497D01*
X120942237Y-84117481D01*
X120942228Y-84117476D01*
X120769251Y-84045827D01*
X120769243Y-84045825D01*
X120585620Y-84009300D01*
X120585616Y-84009300D01*
X120398384Y-84009300D01*
X120398379Y-84009300D01*
X120214756Y-84045825D01*
X120214744Y-84045828D01*
X120164452Y-84066660D01*
X120094983Y-84074129D01*
X120069548Y-84066660D01*
X120019255Y-84045828D01*
X120019243Y-84045825D01*
X119835620Y-84009300D01*
X119835616Y-84009300D01*
X119648384Y-84009300D01*
X119648379Y-84009300D01*
X119464756Y-84045825D01*
X119464744Y-84045828D01*
X119414452Y-84066660D01*
X119344983Y-84074129D01*
X119319548Y-84066660D01*
X119269255Y-84045828D01*
X119269243Y-84045825D01*
X119085620Y-84009300D01*
X119085616Y-84009300D01*
X118898384Y-84009300D01*
X118898379Y-84009300D01*
X118714756Y-84045825D01*
X118714744Y-84045828D01*
X118664452Y-84066660D01*
X118594983Y-84074129D01*
X118569548Y-84066660D01*
X118519255Y-84045828D01*
X118519243Y-84045825D01*
X118335620Y-84009300D01*
X118335616Y-84009300D01*
X118148384Y-84009300D01*
X118148379Y-84009300D01*
X117964756Y-84045825D01*
X117964744Y-84045828D01*
X117914452Y-84066660D01*
X117844983Y-84074129D01*
X117819548Y-84066660D01*
X117769255Y-84045828D01*
X117769243Y-84045825D01*
X117585620Y-84009300D01*
X117585616Y-84009300D01*
X117398384Y-84009300D01*
X117398379Y-84009300D01*
X117214756Y-84045825D01*
X117214748Y-84045827D01*
X117041771Y-84117476D01*
X117041762Y-84117481D01*
X116886092Y-84221497D01*
X116886088Y-84221500D01*
X116753700Y-84353888D01*
X116753697Y-84353892D01*
X116649681Y-84509562D01*
X116649676Y-84509571D01*
X116578027Y-84682548D01*
X116578025Y-84682556D01*
X116541500Y-84866179D01*
X110176055Y-84866179D01*
X110157983Y-84822549D01*
X110144325Y-84789575D01*
X110144318Y-84789562D01*
X110040302Y-84633892D01*
X110040299Y-84633888D01*
X109907911Y-84501500D01*
X109907907Y-84501497D01*
X109752237Y-84397481D01*
X109752228Y-84397476D01*
X109579251Y-84325827D01*
X109579243Y-84325825D01*
X109395620Y-84289300D01*
X109395616Y-84289300D01*
X109208384Y-84289300D01*
X109208379Y-84289300D01*
X109024756Y-84325825D01*
X109024744Y-84325828D01*
X108974452Y-84346660D01*
X108904983Y-84354129D01*
X108879548Y-84346660D01*
X108829255Y-84325828D01*
X108829243Y-84325825D01*
X108645620Y-84289300D01*
X108645616Y-84289300D01*
X108458384Y-84289300D01*
X108458379Y-84289300D01*
X108274756Y-84325825D01*
X108274744Y-84325828D01*
X108224452Y-84346660D01*
X108154983Y-84354129D01*
X108129548Y-84346660D01*
X108079255Y-84325828D01*
X108079243Y-84325825D01*
X107895620Y-84289300D01*
X107895616Y-84289300D01*
X107708384Y-84289300D01*
X107708379Y-84289300D01*
X107524756Y-84325825D01*
X107524744Y-84325828D01*
X107474452Y-84346660D01*
X107404983Y-84354129D01*
X107379548Y-84346660D01*
X107329255Y-84325828D01*
X107329243Y-84325825D01*
X107145620Y-84289300D01*
X107145616Y-84289300D01*
X106958384Y-84289300D01*
X106958379Y-84289300D01*
X106774756Y-84325825D01*
X106774744Y-84325828D01*
X106724452Y-84346660D01*
X106654983Y-84354129D01*
X106629548Y-84346660D01*
X106579255Y-84325828D01*
X106579243Y-84325825D01*
X106395620Y-84289300D01*
X106395616Y-84289300D01*
X106208384Y-84289300D01*
X106208379Y-84289300D01*
X106024756Y-84325825D01*
X106024748Y-84325827D01*
X105851771Y-84397476D01*
X105851762Y-84397481D01*
X105696092Y-84501497D01*
X105696088Y-84501500D01*
X105563700Y-84633888D01*
X105563697Y-84633892D01*
X105459681Y-84789562D01*
X105459676Y-84789571D01*
X105388027Y-84962548D01*
X105388025Y-84962556D01*
X105351500Y-85146179D01*
X98849500Y-85146179D01*
X98849500Y-83178349D01*
X100861500Y-83178349D01*
X100861500Y-83401250D01*
X100861501Y-83401266D01*
X100890594Y-83622252D01*
X100890595Y-83622257D01*
X100890596Y-83622263D01*
X100948290Y-83837580D01*
X100948293Y-83837590D01*
X101011623Y-83990481D01*
X101033595Y-84043526D01*
X101145052Y-84236574D01*
X101145057Y-84236580D01*
X101145058Y-84236582D01*
X101280751Y-84413422D01*
X101280757Y-84413429D01*
X101438370Y-84571042D01*
X101438376Y-84571047D01*
X101615226Y-84706748D01*
X101808274Y-84818205D01*
X102014219Y-84903510D01*
X102229537Y-84961204D01*
X102450543Y-84990300D01*
X102450550Y-84990300D01*
X102673450Y-84990300D01*
X102673457Y-84990300D01*
X102894463Y-84961204D01*
X103109781Y-84903510D01*
X103315726Y-84818205D01*
X103508774Y-84706748D01*
X103685624Y-84571047D01*
X103843247Y-84413424D01*
X103978948Y-84236574D01*
X104090405Y-84043526D01*
X104175710Y-83837581D01*
X104233404Y-83622263D01*
X104262500Y-83401257D01*
X104262500Y-83178343D01*
X104233404Y-82957337D01*
X104175710Y-82742019D01*
X104090405Y-82536074D01*
X103978948Y-82343026D01*
X103843247Y-82166176D01*
X103843242Y-82166170D01*
X103685629Y-82008557D01*
X103685622Y-82008551D01*
X103508782Y-81872858D01*
X103508780Y-81872857D01*
X103508774Y-81872852D01*
X103315726Y-81761395D01*
X103315722Y-81761393D01*
X103109790Y-81676093D01*
X103109783Y-81676091D01*
X103109781Y-81676090D01*
X102894463Y-81618396D01*
X102894457Y-81618395D01*
X102894452Y-81618394D01*
X102673466Y-81589301D01*
X102673463Y-81589300D01*
X102673457Y-81589300D01*
X102450543Y-81589300D01*
X102450537Y-81589300D01*
X102450533Y-81589301D01*
X102229547Y-81618394D01*
X102229540Y-81618395D01*
X102229537Y-81618396D01*
X102014219Y-81676090D01*
X102014209Y-81676093D01*
X101808277Y-81761393D01*
X101808273Y-81761395D01*
X101615226Y-81872852D01*
X101615217Y-81872858D01*
X101438377Y-82008551D01*
X101438370Y-82008557D01*
X101280757Y-82166170D01*
X101280751Y-82166177D01*
X101145058Y-82343017D01*
X101145052Y-82343026D01*
X101033595Y-82536073D01*
X101033593Y-82536077D01*
X100948293Y-82742009D01*
X100948290Y-82742019D01*
X100890597Y-82957334D01*
X100890594Y-82957347D01*
X100861501Y-83178333D01*
X100861500Y-83178349D01*
X98849500Y-83178349D01*
X98849500Y-67606179D01*
X104601500Y-67606179D01*
X104601500Y-67793420D01*
X104638025Y-67977043D01*
X104638028Y-67977055D01*
X104658860Y-68027348D01*
X104666329Y-68096817D01*
X104658860Y-68122252D01*
X104638028Y-68172544D01*
X104638025Y-68172556D01*
X104601500Y-68356179D01*
X104601500Y-68543420D01*
X104638025Y-68727043D01*
X104638028Y-68727055D01*
X104658860Y-68777348D01*
X104666329Y-68846817D01*
X104658860Y-68872252D01*
X104638028Y-68922544D01*
X104638025Y-68922556D01*
X104601500Y-69106179D01*
X104601500Y-69293420D01*
X104638025Y-69477043D01*
X104638027Y-69477051D01*
X104709676Y-69650028D01*
X104709681Y-69650037D01*
X104813697Y-69805707D01*
X104813700Y-69805711D01*
X104946088Y-69938099D01*
X104946092Y-69938102D01*
X105101762Y-70042118D01*
X105101771Y-70042123D01*
X105127509Y-70052784D01*
X105274749Y-70113773D01*
X105458379Y-70150299D01*
X105458383Y-70150300D01*
X105458384Y-70150300D01*
X105645617Y-70150300D01*
X105645618Y-70150299D01*
X105829251Y-70113773D01*
X105879547Y-70092938D01*
X105949016Y-70085470D01*
X105974449Y-70092937D01*
X106024749Y-70113773D01*
X106208379Y-70150299D01*
X106208383Y-70150300D01*
X106208384Y-70150300D01*
X106395617Y-70150300D01*
X106395618Y-70150299D01*
X106579251Y-70113773D01*
X106629547Y-70092938D01*
X106699016Y-70085470D01*
X106724449Y-70092937D01*
X106774749Y-70113773D01*
X106958379Y-70150299D01*
X106958383Y-70150300D01*
X106958384Y-70150300D01*
X107145617Y-70150300D01*
X107145618Y-70150299D01*
X107329251Y-70113773D01*
X107379547Y-70092938D01*
X107449016Y-70085470D01*
X107474449Y-70092937D01*
X107524749Y-70113773D01*
X107708379Y-70150299D01*
X107708383Y-70150300D01*
X107708384Y-70150300D01*
X107895617Y-70150300D01*
X107895618Y-70150299D01*
X108079251Y-70113773D01*
X108129547Y-70092938D01*
X108199016Y-70085470D01*
X108224449Y-70092937D01*
X108274749Y-70113773D01*
X108458379Y-70150299D01*
X108458383Y-70150300D01*
X108458384Y-70150300D01*
X108645617Y-70150300D01*
X108645618Y-70150299D01*
X108829251Y-70113773D01*
X109002231Y-70042122D01*
X109157908Y-69938102D01*
X109290302Y-69805708D01*
X109394322Y-69650031D01*
X109465973Y-69477051D01*
X109502500Y-69293416D01*
X109502500Y-69106184D01*
X109465973Y-68922549D01*
X109445138Y-68872252D01*
X109437670Y-68802784D01*
X109445137Y-68777350D01*
X109465973Y-68727051D01*
X109502500Y-68543416D01*
X109502500Y-68356184D01*
X109465973Y-68172549D01*
X109445139Y-68122254D01*
X109443411Y-68106179D01*
X137101500Y-68106179D01*
X137101500Y-68293420D01*
X137138025Y-68477043D01*
X137138028Y-68477055D01*
X137158860Y-68527348D01*
X137166329Y-68596817D01*
X137158860Y-68622252D01*
X137138028Y-68672544D01*
X137138025Y-68672556D01*
X137101500Y-68856179D01*
X137101500Y-69043420D01*
X137138025Y-69227043D01*
X137138028Y-69227055D01*
X137158860Y-69277348D01*
X137166329Y-69346817D01*
X137158860Y-69372252D01*
X137138028Y-69422544D01*
X137138025Y-69422556D01*
X137101500Y-69606179D01*
X137101500Y-69793420D01*
X137138025Y-69977043D01*
X137138028Y-69977055D01*
X137158860Y-70027348D01*
X137166329Y-70096817D01*
X137158860Y-70122252D01*
X137138028Y-70172544D01*
X137138025Y-70172556D01*
X137101500Y-70356179D01*
X137101500Y-70543420D01*
X137138025Y-70727043D01*
X137138028Y-70727055D01*
X137158860Y-70777348D01*
X137166329Y-70846817D01*
X137158860Y-70872252D01*
X137138028Y-70922544D01*
X137138025Y-70922556D01*
X137101500Y-71106179D01*
X137101500Y-71293420D01*
X137138025Y-71477043D01*
X137138027Y-71477051D01*
X137209676Y-71650028D01*
X137209681Y-71650037D01*
X137313697Y-71805707D01*
X137313700Y-71805711D01*
X137446088Y-71938099D01*
X137446092Y-71938102D01*
X137601762Y-72042118D01*
X137601768Y-72042121D01*
X137601769Y-72042122D01*
X137774749Y-72113773D01*
X137958379Y-72150299D01*
X137958383Y-72150300D01*
X137958384Y-72150300D01*
X138145617Y-72150300D01*
X138145618Y-72150299D01*
X138329251Y-72113773D01*
X138379547Y-72092938D01*
X138449016Y-72085470D01*
X138474449Y-72092937D01*
X138524749Y-72113773D01*
X138708379Y-72150299D01*
X138708383Y-72150300D01*
X138708384Y-72150300D01*
X138895617Y-72150300D01*
X138895618Y-72150299D01*
X139079251Y-72113773D01*
X139129547Y-72092938D01*
X139199016Y-72085470D01*
X139224449Y-72092937D01*
X139274749Y-72113773D01*
X139458379Y-72150299D01*
X139458383Y-72150300D01*
X139458384Y-72150300D01*
X139645617Y-72150300D01*
X139645618Y-72150299D01*
X139829251Y-72113773D01*
X140002231Y-72042122D01*
X140157908Y-71938102D01*
X140290302Y-71805708D01*
X140394322Y-71650031D01*
X140465973Y-71477051D01*
X140502500Y-71293416D01*
X140502500Y-71106184D01*
X140465973Y-70922549D01*
X140445138Y-70872252D01*
X140437670Y-70802784D01*
X140445137Y-70777350D01*
X140465973Y-70727051D01*
X140502500Y-70543416D01*
X140502500Y-70356184D01*
X140465973Y-70172549D01*
X140445138Y-70122252D01*
X140437670Y-70052784D01*
X140445137Y-70027350D01*
X140465973Y-69977051D01*
X140502500Y-69793416D01*
X140502500Y-69606184D01*
X140465973Y-69422549D01*
X140445138Y-69372252D01*
X140437670Y-69302784D01*
X140445137Y-69277350D01*
X140465973Y-69227051D01*
X140502500Y-69043416D01*
X140502500Y-68856184D01*
X140465973Y-68672549D01*
X140445138Y-68622252D01*
X140437670Y-68552784D01*
X140445137Y-68527350D01*
X140465973Y-68477051D01*
X140502500Y-68293416D01*
X140502500Y-68106184D01*
X140465973Y-67922549D01*
X140394322Y-67749569D01*
X140394321Y-67749568D01*
X140394318Y-67749562D01*
X140290302Y-67593892D01*
X140290299Y-67593888D01*
X140157911Y-67461500D01*
X140157907Y-67461497D01*
X140002237Y-67357481D01*
X140002228Y-67357476D01*
X139829251Y-67285827D01*
X139829243Y-67285825D01*
X139645620Y-67249300D01*
X139645616Y-67249300D01*
X139458384Y-67249300D01*
X139458379Y-67249300D01*
X139274756Y-67285825D01*
X139274744Y-67285828D01*
X139224452Y-67306660D01*
X139154983Y-67314129D01*
X139129548Y-67306660D01*
X139079255Y-67285828D01*
X139079243Y-67285825D01*
X138895620Y-67249300D01*
X138895616Y-67249300D01*
X138708384Y-67249300D01*
X138708379Y-67249300D01*
X138524756Y-67285825D01*
X138524744Y-67285828D01*
X138474452Y-67306660D01*
X138404983Y-67314129D01*
X138379548Y-67306660D01*
X138329255Y-67285828D01*
X138329243Y-67285825D01*
X138145620Y-67249300D01*
X138145616Y-67249300D01*
X137958384Y-67249300D01*
X137958379Y-67249300D01*
X137774756Y-67285825D01*
X137774748Y-67285827D01*
X137601771Y-67357476D01*
X137601762Y-67357481D01*
X137446092Y-67461497D01*
X137446088Y-67461500D01*
X137313700Y-67593888D01*
X137313697Y-67593892D01*
X137209681Y-67749562D01*
X137209676Y-67749571D01*
X137138027Y-67922548D01*
X137138025Y-67922556D01*
X137101500Y-68106179D01*
X109443411Y-68106179D01*
X109437670Y-68052786D01*
X109445137Y-68027350D01*
X109465973Y-67977051D01*
X109502500Y-67793416D01*
X109502500Y-67606184D01*
X109465973Y-67422549D01*
X109394322Y-67249569D01*
X109394321Y-67249568D01*
X109394318Y-67249562D01*
X109290302Y-67093892D01*
X109290299Y-67093888D01*
X109157911Y-66961500D01*
X109157907Y-66961497D01*
X109002237Y-66857481D01*
X109002228Y-66857476D01*
X108829251Y-66785827D01*
X108829243Y-66785825D01*
X108645620Y-66749300D01*
X108645616Y-66749300D01*
X108458384Y-66749300D01*
X108458379Y-66749300D01*
X108274756Y-66785825D01*
X108274744Y-66785828D01*
X108224452Y-66806660D01*
X108154983Y-66814129D01*
X108129548Y-66806660D01*
X108079255Y-66785828D01*
X108079243Y-66785825D01*
X107895620Y-66749300D01*
X107895616Y-66749300D01*
X107708384Y-66749300D01*
X107708379Y-66749300D01*
X107524756Y-66785825D01*
X107524744Y-66785828D01*
X107474452Y-66806660D01*
X107404983Y-66814129D01*
X107379548Y-66806660D01*
X107329255Y-66785828D01*
X107329243Y-66785825D01*
X107145620Y-66749300D01*
X107145616Y-66749300D01*
X106958384Y-66749300D01*
X106958379Y-66749300D01*
X106774756Y-66785825D01*
X106774744Y-66785828D01*
X106724452Y-66806660D01*
X106654983Y-66814129D01*
X106629548Y-66806660D01*
X106579255Y-66785828D01*
X106579243Y-66785825D01*
X106395620Y-66749300D01*
X106395616Y-66749300D01*
X106208384Y-66749300D01*
X106208379Y-66749300D01*
X106024756Y-66785825D01*
X106024744Y-66785828D01*
X105974452Y-66806660D01*
X105904983Y-66814129D01*
X105879548Y-66806660D01*
X105829255Y-66785828D01*
X105829243Y-66785825D01*
X105645620Y-66749300D01*
X105645616Y-66749300D01*
X105458384Y-66749300D01*
X105458379Y-66749300D01*
X105274756Y-66785825D01*
X105274748Y-66785827D01*
X105101771Y-66857476D01*
X105101762Y-66857481D01*
X104946092Y-66961497D01*
X104946088Y-66961500D01*
X104813700Y-67093888D01*
X104813697Y-67093892D01*
X104709681Y-67249562D01*
X104709676Y-67249571D01*
X104638027Y-67422548D01*
X104638025Y-67422556D01*
X104601500Y-67606179D01*
X98849500Y-67606179D01*
X98849500Y-56276159D01*
X118221500Y-56276159D01*
X118221500Y-61773440D01*
X118225543Y-61848866D01*
X118228376Y-61875211D01*
X118228377Y-61875216D01*
X118247710Y-61979897D01*
X118266342Y-62026686D01*
X118310631Y-62137906D01*
X118310635Y-62137913D01*
X118344107Y-62199214D01*
X118359562Y-62226097D01*
X118464457Y-62359986D01*
X118568983Y-62464511D01*
X118641817Y-62537345D01*
X118698008Y-62587817D01*
X118698016Y-62587824D01*
X118707684Y-62595614D01*
X118718650Y-62604451D01*
X118718666Y-62604462D01*
X118718674Y-62604468D01*
X118806328Y-62664794D01*
X118806335Y-62664798D01*
X118867603Y-62691168D01*
X118962555Y-62732036D01*
X119029594Y-62751721D01*
X119059525Y-62759799D01*
X119195066Y-62776257D01*
X119228360Y-62780300D01*
X119228362Y-62780300D01*
X123100640Y-62780300D01*
X123112560Y-62779660D01*
X123176058Y-62776257D01*
X123202416Y-62773423D01*
X123307097Y-62754090D01*
X123465107Y-62691168D01*
X123526430Y-62657683D01*
X123553301Y-62642235D01*
X123687183Y-62537345D01*
X124884819Y-61339709D01*
X124946142Y-61306224D01*
X125015834Y-61311208D01*
X125071767Y-61353080D01*
X125096184Y-61418544D01*
X125096500Y-61427390D01*
X125096500Y-66648440D01*
X125100543Y-66723866D01*
X125103376Y-66750211D01*
X125117431Y-66826316D01*
X125122710Y-66854897D01*
X125143906Y-66908125D01*
X125185631Y-67012906D01*
X125185635Y-67012913D01*
X125219107Y-67074214D01*
X125234562Y-67101097D01*
X125339457Y-67234986D01*
X125565969Y-67461497D01*
X125766817Y-67662345D01*
X125823008Y-67712817D01*
X125823016Y-67712824D01*
X125833329Y-67721134D01*
X125843650Y-67729451D01*
X125843666Y-67729462D01*
X125843674Y-67729468D01*
X125931328Y-67789794D01*
X125931335Y-67789798D01*
X125992603Y-67816168D01*
X126087555Y-67857036D01*
X126154594Y-67876721D01*
X126184525Y-67884799D01*
X126320066Y-67901257D01*
X126353360Y-67905300D01*
X126353362Y-67905300D01*
X128500640Y-67905300D01*
X128512560Y-67904660D01*
X128576058Y-67901257D01*
X128602416Y-67898423D01*
X128707097Y-67879090D01*
X128865107Y-67816168D01*
X128926430Y-67782683D01*
X128953301Y-67767235D01*
X129087183Y-67662345D01*
X129764545Y-66984983D01*
X129815017Y-66928792D01*
X129831651Y-66908150D01*
X129891997Y-66820467D01*
X129959236Y-66664245D01*
X129978921Y-66597206D01*
X129986999Y-66567275D01*
X130007500Y-66398438D01*
X130007500Y-62391162D01*
X130003457Y-62315742D01*
X130000623Y-62289384D01*
X129981290Y-62184703D01*
X129918368Y-62026693D01*
X129912338Y-62015650D01*
X129884892Y-61965385D01*
X129869437Y-61938502D01*
X129764542Y-61804613D01*
X129543819Y-61583890D01*
X129510334Y-61522567D01*
X129507500Y-61496209D01*
X129507500Y-55751159D01*
X129506541Y-55733277D01*
X129503457Y-55675742D01*
X129500623Y-55649384D01*
X129481290Y-55544703D01*
X129418368Y-55386693D01*
X129410645Y-55372549D01*
X129384892Y-55325385D01*
X129369437Y-55298502D01*
X129325211Y-55242052D01*
X129264545Y-55164617D01*
X129264542Y-55164613D01*
X129087189Y-54987261D01*
X129087183Y-54987255D01*
X129030992Y-54936783D01*
X129030991Y-54936782D01*
X129030983Y-54936775D01*
X129010357Y-54920155D01*
X129010350Y-54920149D01*
X129010337Y-54920140D01*
X129010325Y-54920131D01*
X128922671Y-54859805D01*
X128922664Y-54859801D01*
X128766451Y-54792566D01*
X128766446Y-54792564D01*
X128766445Y-54792564D01*
X128699406Y-54772879D01*
X128669475Y-54764801D01*
X128585056Y-54754550D01*
X128500640Y-54744300D01*
X128500638Y-54744300D01*
X128336616Y-54744300D01*
X128269577Y-54724615D01*
X128223822Y-54671811D01*
X128213878Y-54602653D01*
X128242903Y-54539097D01*
X128261123Y-54521929D01*
X128408661Y-54408719D01*
X128464133Y-54353247D01*
X128570911Y-54246470D01*
X128570914Y-54246465D01*
X128570919Y-54246461D01*
X128710611Y-54064412D01*
X128825344Y-53865688D01*
X128913158Y-53653687D01*
X128972548Y-53432038D01*
X129002500Y-53204534D01*
X129002500Y-52975066D01*
X128972548Y-52747562D01*
X128913158Y-52525913D01*
X128825344Y-52313912D01*
X128710611Y-52115188D01*
X128710608Y-52115185D01*
X128710607Y-52115182D01*
X128570918Y-51933138D01*
X128570911Y-51933130D01*
X128408670Y-51770889D01*
X128408661Y-51770881D01*
X128226617Y-51631192D01*
X128209296Y-51621192D01*
X128027888Y-51516456D01*
X128027876Y-51516450D01*
X127815887Y-51428642D01*
X127594238Y-51369252D01*
X127556215Y-51364246D01*
X127366741Y-51339300D01*
X127366734Y-51339300D01*
X127137266Y-51339300D01*
X127137258Y-51339300D01*
X126920715Y-51367809D01*
X126909762Y-51369252D01*
X126816076Y-51394354D01*
X126688112Y-51428642D01*
X126476123Y-51516450D01*
X126476109Y-51516457D01*
X126277382Y-51631192D01*
X126095338Y-51770881D01*
X125933081Y-51933138D01*
X125793392Y-52115182D01*
X125678657Y-52313909D01*
X125678650Y-52313923D01*
X125590842Y-52525912D01*
X125531453Y-52747559D01*
X125531451Y-52747570D01*
X125501500Y-52975058D01*
X125501500Y-53204541D01*
X125524062Y-53375905D01*
X125531452Y-53432038D01*
X125584045Y-53628321D01*
X125590842Y-53653687D01*
X125678650Y-53865676D01*
X125678656Y-53865688D01*
X125780031Y-54041276D01*
X125793392Y-54064417D01*
X125933081Y-54246461D01*
X125933089Y-54246470D01*
X126095329Y-54408710D01*
X126095333Y-54408713D01*
X126095339Y-54408719D01*
X126242872Y-54521926D01*
X126284073Y-54578352D01*
X126288228Y-54648099D01*
X126254015Y-54709019D01*
X126192298Y-54741771D01*
X126167384Y-54744300D01*
X126103360Y-54744300D01*
X126027933Y-54748343D01*
X126001588Y-54751176D01*
X125896906Y-54770509D01*
X125896903Y-54770509D01*
X125896903Y-54770510D01*
X125871160Y-54780761D01*
X125738893Y-54833431D01*
X125738886Y-54833435D01*
X125677571Y-54866915D01*
X125650708Y-54882358D01*
X125650688Y-54882372D01*
X125639340Y-54891263D01*
X125574427Y-54917110D01*
X125505845Y-54903760D01*
X125482461Y-54887609D01*
X125482287Y-54887826D01*
X125482268Y-54887811D01*
X125482240Y-54887845D01*
X125480989Y-54886780D01*
X125460357Y-54870155D01*
X125460350Y-54870149D01*
X125460337Y-54870140D01*
X125460325Y-54870131D01*
X125372671Y-54809805D01*
X125372664Y-54809801D01*
X125216451Y-54742566D01*
X125216446Y-54742564D01*
X125216445Y-54742564D01*
X125149406Y-54722879D01*
X125119475Y-54714801D01*
X125035056Y-54704550D01*
X124950640Y-54694300D01*
X124950638Y-54694300D01*
X119803362Y-54694300D01*
X119803360Y-54694300D01*
X119727933Y-54698343D01*
X119701588Y-54701176D01*
X119596906Y-54720509D01*
X119596903Y-54720509D01*
X119596903Y-54720510D01*
X119590954Y-54722879D01*
X119438893Y-54783431D01*
X119438886Y-54783435D01*
X119377585Y-54816907D01*
X119350702Y-54832362D01*
X119216813Y-54937257D01*
X118464461Y-55689610D01*
X118413975Y-55745816D01*
X118397355Y-55766442D01*
X118397331Y-55766474D01*
X118337005Y-55854128D01*
X118337001Y-55854135D01*
X118269766Y-56010348D01*
X118250078Y-56077397D01*
X118243970Y-56100031D01*
X118242001Y-56107325D01*
X118235287Y-56162622D01*
X118221500Y-56276159D01*
X98849500Y-56276159D01*
X98849500Y-49624500D01*
X98869185Y-49557461D01*
X98921989Y-49511706D01*
X98973500Y-49500500D01*
X110632843Y-49500500D01*
X110699882Y-49520185D01*
G37*
%TD.AperFunction*%
D21*
X98349000Y-49000000D02*
X166000000Y-49000000D01*
X166000000Y-118000000D01*
X98349000Y-118000000D01*
X98349000Y-49000000D01*
M02*
