%TF.GenerationSoftware,KiCad,Pcbnew,9.0.0*%
%TF.CreationDate,2026-02-04T15:59:27+07:00*%
%TF.ProjectId,Connector_Extension_Board_V1.0,436f6e6e-6563-4746-9f72-5f457874656e,rev?*%
%TF.SameCoordinates,Original*%
%TF.FileFunction,Copper,L2,Inr*%
%TF.FilePolarity,Positive*%
%FSLAX46Y46*%
G04 Gerber Fmt 4.6, Leading zero omitted, Abs format (unit mm)*
G04 Created by KiCad (PCBNEW 9.0.0) date 2026-02-04 15:59:27*
%MOMM*%
%LPD*%
G01*
G04 APERTURE LIST*
%TA.AperFunction,ComponentPad*%
%ADD10C,2.000000*%
%TD*%
%TA.AperFunction,ComponentPad*%
%ADD11C,5.800000*%
%TD*%
%TA.AperFunction,ComponentPad*%
%ADD12R,1.780000X1.780000*%
%TD*%
%TA.AperFunction,ComponentPad*%
%ADD13C,1.750000*%
%TD*%
%TA.AperFunction,ComponentPad*%
%ADD14C,0.500000*%
%TD*%
%TA.AperFunction,ComponentPad*%
%ADD15R,2.000000X2.000000*%
%TD*%
%TA.AperFunction,ComponentPad*%
%ADD16C,2.260600*%
%TD*%
%TA.AperFunction,ComponentPad*%
%ADD17R,1.520000X1.520000*%
%TD*%
%TA.AperFunction,ComponentPad*%
%ADD18C,1.520000*%
%TD*%
%TA.AperFunction,ViaPad*%
%ADD19C,0.500000*%
%TD*%
%TA.AperFunction,Profile*%
%ADD20C,0.100000*%
%TD*%
G04 APERTURE END LIST*
D10*
X102502000Y-86099800D03*
D11*
X103500000Y-114500000D03*
X162500000Y-114500000D03*
D12*
X121343875Y-105129050D03*
D13*
X118803875Y-105129050D03*
D10*
X160902000Y-86599800D03*
D14*
X155182000Y-91919800D03*
X153982000Y-91919800D03*
X152782000Y-91919800D03*
X151582000Y-91919800D03*
X155182000Y-93119800D03*
X153982000Y-93119800D03*
X152782000Y-93119800D03*
X151582000Y-93119800D03*
X155182000Y-94319800D03*
X153982000Y-94319800D03*
X152782000Y-94319800D03*
X151582000Y-94319800D03*
D15*
X140307625Y-104549800D03*
D10*
X143807625Y-104549800D03*
D16*
X137807625Y-112459800D03*
X146307625Y-112459800D03*
D11*
X113000000Y-52500000D03*
D15*
X156392000Y-62349800D03*
D10*
X152892000Y-62349800D03*
D16*
X158892000Y-54439800D03*
X150392000Y-54439800D03*
D10*
X160902000Y-82639800D03*
D15*
X151762000Y-104549800D03*
D10*
X155262000Y-104549800D03*
D16*
X149262000Y-112459800D03*
X157762000Y-112459800D03*
D15*
X128853250Y-104549800D03*
D10*
X132353250Y-104549800D03*
D16*
X126353250Y-112459800D03*
X134853250Y-112459800D03*
D12*
X112314500Y-105129050D03*
D13*
X109774500Y-105129050D03*
D10*
X102502000Y-82139800D03*
D17*
X124252000Y-57389800D03*
D18*
X127252000Y-57389800D03*
X130252000Y-57389800D03*
X133252000Y-57389800D03*
D19*
X127327000Y-93549800D03*
X120702000Y-93349800D03*
X127852000Y-61399800D03*
X130352000Y-59149800D03*
X128077000Y-92799800D03*
X107302000Y-102949800D03*
X133853250Y-102949800D03*
X135353250Y-105949800D03*
X128077000Y-93549800D03*
X116952000Y-92799800D03*
X108052000Y-104449800D03*
X130352000Y-63649800D03*
X157252000Y-77247300D03*
X156802000Y-102949800D03*
X145852000Y-71924800D03*
X127852000Y-59149800D03*
X108052000Y-102949800D03*
X116302000Y-105199800D03*
X145677000Y-69949800D03*
X134603250Y-104449800D03*
X157552000Y-104449800D03*
X146002000Y-67749800D03*
X134603250Y-103699800D03*
X143052000Y-102949800D03*
X116302000Y-104449800D03*
X127327000Y-92799800D03*
X146802000Y-105199800D03*
X109477000Y-93349800D03*
X112152000Y-93699800D03*
X111402000Y-93699800D03*
X129602000Y-62149800D03*
X145252000Y-66999800D03*
X146002000Y-66999800D03*
X150052000Y-62699800D03*
X135353250Y-103699800D03*
X141652000Y-93349800D03*
X127102000Y-63649800D03*
X122627000Y-93699800D03*
X107227000Y-92799800D03*
X145252000Y-66249800D03*
X130052000Y-93374800D03*
X144552000Y-102949800D03*
X107127000Y-75699800D03*
X134603250Y-105949800D03*
X116302000Y-103699800D03*
X143852000Y-93674800D03*
X102302000Y-59949800D03*
X119677000Y-93374800D03*
X157552000Y-105199800D03*
X130352000Y-60649800D03*
X112152000Y-92949800D03*
X110552000Y-75849800D03*
X160677000Y-77397300D03*
X127852000Y-63649800D03*
X122627000Y-92949800D03*
X144602000Y-93674800D03*
X138927000Y-93524800D03*
X130352000Y-64399800D03*
X150802000Y-62699800D03*
X146802000Y-103699800D03*
X108452000Y-93374800D03*
X131077000Y-93349800D03*
X133752000Y-92949800D03*
X135353250Y-104449800D03*
X130352000Y-62149800D03*
X127852000Y-62899800D03*
X107302000Y-105949800D03*
X145102000Y-71924800D03*
X130352000Y-62899800D03*
X108052000Y-105199800D03*
X150052000Y-61949800D03*
X146802000Y-105949800D03*
X158302000Y-102949800D03*
X145852000Y-71174800D03*
X102302000Y-60699800D03*
X130352000Y-65149800D03*
X146002000Y-66249800D03*
X158302000Y-105199800D03*
X121877000Y-92949800D03*
X101552000Y-61449800D03*
X106477000Y-92799800D03*
X127852000Y-62149800D03*
X107127000Y-74949800D03*
X162177000Y-76647300D03*
X129602000Y-59149800D03*
X127852000Y-60649800D03*
X105627000Y-75699800D03*
X116302000Y-105949800D03*
X135353250Y-105199800D03*
X127852000Y-64399800D03*
X158302000Y-103699800D03*
X132252000Y-92949800D03*
X145352000Y-93674800D03*
X110552000Y-75099800D03*
X142677000Y-93324800D03*
X157552000Y-102949800D03*
X134603250Y-105199800D03*
X111302000Y-75849800D03*
X134603250Y-102949800D03*
X112052000Y-75099800D03*
X105727000Y-93549800D03*
X150802000Y-63449800D03*
X150802000Y-61949800D03*
X157552000Y-105949800D03*
X140427000Y-92774800D03*
X145252000Y-67749800D03*
X127102000Y-59149800D03*
X146052000Y-104449800D03*
X102302000Y-62199800D03*
X160677000Y-76647300D03*
X156502000Y-76497300D03*
X105727000Y-92799800D03*
X145302000Y-102949800D03*
X110652000Y-93699800D03*
X117052000Y-104449800D03*
X106477000Y-93549800D03*
X128827000Y-92799800D03*
X145352000Y-92924800D03*
X121877000Y-93699800D03*
X161427000Y-76647300D03*
X146802000Y-104449800D03*
X129602000Y-61399800D03*
X129602000Y-60649800D03*
X158477000Y-77072300D03*
X143802000Y-102949800D03*
X107302000Y-104449800D03*
X129602000Y-63649800D03*
X158302000Y-104449800D03*
X127102000Y-60649800D03*
X112052000Y-75849800D03*
X105627000Y-74949800D03*
X111302000Y-75099800D03*
X162177000Y-77397300D03*
X154552000Y-102949800D03*
X108352000Y-75524800D03*
X129602000Y-59899800D03*
X161427000Y-77397300D03*
X106377000Y-75699800D03*
X138927000Y-92774800D03*
X108052000Y-105949800D03*
X146052000Y-103699800D03*
X117052000Y-103699800D03*
X127102000Y-62899800D03*
X127852000Y-59899800D03*
X128827000Y-93549800D03*
X131603250Y-102949800D03*
X156502000Y-77247300D03*
X146802000Y-102949800D03*
X129602000Y-62899800D03*
X101552000Y-60699800D03*
X101552000Y-62199800D03*
X123377000Y-93699800D03*
X127102000Y-59899800D03*
X127102000Y-65149800D03*
X111402000Y-92949800D03*
X155302000Y-102949800D03*
X143852000Y-92924800D03*
X145852000Y-72674800D03*
X155752000Y-77247300D03*
X150802000Y-61199800D03*
X101552000Y-59949800D03*
X130352000Y-59899800D03*
X155752000Y-76497300D03*
X116952000Y-93549800D03*
X127102000Y-64399800D03*
X140427000Y-93524800D03*
X145102000Y-72674800D03*
X146052000Y-105949800D03*
X130352000Y-61399800D03*
X157252000Y-76497300D03*
X117052000Y-102949800D03*
X127852000Y-65149800D03*
X133103250Y-102949800D03*
X106377000Y-74949800D03*
X150052000Y-61199800D03*
X159502000Y-77047300D03*
X117702000Y-92799800D03*
X157552000Y-103699800D03*
X129602000Y-64399800D03*
X139677000Y-92774800D03*
X132353250Y-102949800D03*
X133752000Y-93699800D03*
X107302000Y-103699800D03*
X109377000Y-75499800D03*
X107227000Y-93549800D03*
X117052000Y-105199800D03*
X118452000Y-92799800D03*
X110652000Y-92949800D03*
X135353250Y-102949800D03*
X158302000Y-105949800D03*
X117702000Y-93549800D03*
X118452000Y-93549800D03*
X102302000Y-61449800D03*
X139677000Y-93524800D03*
X146052000Y-105199800D03*
X145652000Y-68924800D03*
X133002000Y-93699800D03*
X150052000Y-63449800D03*
X123377000Y-92949800D03*
X145102000Y-71174800D03*
X108052000Y-103699800D03*
X107302000Y-105199800D03*
X133002000Y-92949800D03*
X116302000Y-102949800D03*
X132252000Y-93699800D03*
X144602000Y-92924800D03*
X127102000Y-62149800D03*
X127102000Y-61399800D03*
X156052000Y-102949800D03*
X129602000Y-65149800D03*
X146052000Y-102949800D03*
X117052000Y-105949800D03*
X129454500Y-84949800D03*
X158052000Y-100199800D03*
X156552000Y-100949800D03*
X138802000Y-70449800D03*
X138052000Y-71199800D03*
X142552000Y-86449800D03*
X139552000Y-84949800D03*
X139552000Y-68199800D03*
X138802000Y-68199800D03*
X138052000Y-70449800D03*
X136152000Y-56049800D03*
X141802000Y-86449800D03*
X159552000Y-99449800D03*
X139552000Y-68949800D03*
X130204500Y-85699800D03*
X130204500Y-84949800D03*
X136152000Y-59049800D03*
X137652000Y-57549800D03*
X129454500Y-86449800D03*
X128704500Y-86449800D03*
X139552000Y-70449800D03*
X136152000Y-61299800D03*
X136902000Y-56799800D03*
X155802000Y-100949800D03*
X159552000Y-100199800D03*
X141052000Y-84949800D03*
X136902000Y-59799800D03*
X139552000Y-85699800D03*
X141802000Y-84949800D03*
X141802000Y-85699800D03*
X139552000Y-86449800D03*
X130954500Y-86449800D03*
X136152000Y-56799800D03*
X155802000Y-100199800D03*
X158052000Y-70999800D03*
X156552000Y-99449800D03*
X142552000Y-85699800D03*
X138802000Y-71199800D03*
X127954500Y-85699800D03*
X130954500Y-85699800D03*
X158802000Y-99449800D03*
X137652000Y-59799800D03*
X142552000Y-84949800D03*
X158052000Y-99449800D03*
X154302000Y-99449800D03*
X137652000Y-59049800D03*
X138052000Y-68949800D03*
X137652000Y-60549800D03*
X139552000Y-69699800D03*
X129454500Y-85699800D03*
X140302000Y-85699800D03*
X140302000Y-84949800D03*
X159552000Y-100949800D03*
X140302000Y-86449800D03*
X136902000Y-57549800D03*
X158802000Y-100949800D03*
X127954500Y-84949800D03*
X130954500Y-84949800D03*
X157302000Y-70249800D03*
X138802000Y-69699800D03*
X139552000Y-71199800D03*
X136152000Y-60549800D03*
X136902000Y-59049800D03*
X157302000Y-100949800D03*
X128704500Y-85699800D03*
X137652000Y-61299800D03*
X137652000Y-58299800D03*
X155052000Y-100199800D03*
X138802000Y-68949800D03*
X136152000Y-58299800D03*
X130204500Y-86449800D03*
X141052000Y-85699800D03*
X158052000Y-70249800D03*
X158802000Y-100199800D03*
X138052000Y-68199800D03*
X155052000Y-100949800D03*
X141052000Y-86449800D03*
X138052000Y-69699800D03*
X157302000Y-100199800D03*
X156552000Y-100199800D03*
X157302000Y-70999800D03*
X128704500Y-84949800D03*
X136902000Y-61299800D03*
X127954500Y-86449800D03*
X154302000Y-100199800D03*
X136902000Y-60549800D03*
X136152000Y-59799800D03*
X155802000Y-99449800D03*
X137652000Y-56799800D03*
X136902000Y-56049800D03*
X136152000Y-57549800D03*
X154302000Y-100949800D03*
X158052000Y-100949800D03*
X155052000Y-99449800D03*
X136902000Y-58299800D03*
X157302000Y-99449800D03*
X137652000Y-56049800D03*
X121052000Y-60199800D03*
X121052000Y-57949800D03*
X106302000Y-69199800D03*
X107802000Y-85239800D03*
X119552000Y-60199800D03*
X105552000Y-69199800D03*
X119552000Y-59449800D03*
X121052000Y-56449800D03*
X119742000Y-84959800D03*
X106302000Y-68449800D03*
X118992000Y-85709800D03*
X108552000Y-85239800D03*
X119552000Y-61699800D03*
X119742000Y-85709800D03*
X120492000Y-85709800D03*
X118992000Y-86459800D03*
X119552000Y-60949800D03*
X108552000Y-69199800D03*
X120302000Y-58699800D03*
X120302000Y-60949800D03*
X120302000Y-59449800D03*
X118992000Y-84959800D03*
X121052000Y-61699800D03*
X109302000Y-85239800D03*
X117492000Y-84959800D03*
X118242000Y-85709800D03*
X117492000Y-85709800D03*
X118242000Y-84959800D03*
X107052000Y-85989800D03*
X106302000Y-86739800D03*
X107052000Y-85239800D03*
X107802000Y-68449800D03*
X108552000Y-67699800D03*
X109302000Y-86739800D03*
X106302000Y-85239800D03*
X119552000Y-57949800D03*
X108552000Y-86739800D03*
X121052000Y-57199800D03*
X120302000Y-57199800D03*
X120302000Y-60199800D03*
X105552000Y-67699800D03*
X118242000Y-86459800D03*
X119552000Y-58699800D03*
X117492000Y-86459800D03*
X120302000Y-61699800D03*
X119552000Y-56449800D03*
X121052000Y-59449800D03*
X121052000Y-60949800D03*
X108552000Y-68449800D03*
X106302000Y-85989800D03*
X120302000Y-56449800D03*
X120302000Y-57949800D03*
X105552000Y-68449800D03*
X107052000Y-68449800D03*
X120492000Y-86459800D03*
X109302000Y-85989800D03*
X121052000Y-58699800D03*
X107052000Y-86739800D03*
X120492000Y-84959800D03*
X107802000Y-85989800D03*
X107052000Y-67699800D03*
X107802000Y-69199800D03*
X119742000Y-86459800D03*
X107802000Y-67699800D03*
X119552000Y-57199800D03*
X108552000Y-85989800D03*
X106302000Y-67699800D03*
X107802000Y-86739800D03*
X107052000Y-69199800D03*
X152552000Y-97699800D03*
X151802000Y-97699800D03*
X152552000Y-99949800D03*
X151052000Y-102199800D03*
X152552000Y-100699800D03*
X151802000Y-99199800D03*
X152552000Y-99199800D03*
X152552000Y-98449800D03*
X151802000Y-101449800D03*
X150302000Y-102199800D03*
X151802000Y-100699800D03*
X152552000Y-102199800D03*
X151802000Y-99949800D03*
X151052000Y-101449800D03*
X151802000Y-98449800D03*
X150302000Y-101449800D03*
X151802000Y-102199800D03*
X150302000Y-100699800D03*
X151052000Y-100699800D03*
X152552000Y-101449800D03*
X131279500Y-90499800D03*
X151422000Y-85599800D03*
X141752000Y-68774800D03*
X142877000Y-90499800D03*
X159527000Y-74474800D03*
X144252000Y-80199800D03*
%TA.AperFunction,Conductor*%
G36*
X155852000Y-91599800D02*
G01*
X155852000Y-94599800D01*
X155452000Y-94999800D01*
X151052000Y-94999800D01*
X150652000Y-94599800D01*
X150652000Y-91399800D01*
X150752000Y-91299800D01*
X155552000Y-91299800D01*
X155852000Y-91599800D01*
G37*
%TD.AperFunction*%
%TA.AperFunction,Conductor*%
G36*
X111206593Y-49520185D02*
G01*
X111252348Y-49572989D01*
X111262292Y-49642147D01*
X111233267Y-49705703D01*
X111208445Y-49727602D01*
X111031532Y-49845811D01*
X111031518Y-49845821D01*
X110780841Y-50051546D01*
X110551546Y-50280841D01*
X110345821Y-50531518D01*
X110345811Y-50531532D01*
X110165657Y-50801151D01*
X110165646Y-50801169D01*
X110012788Y-51087145D01*
X110012786Y-51087150D01*
X109888686Y-51386752D01*
X109794548Y-51697086D01*
X109794545Y-51697097D01*
X109731287Y-52015125D01*
X109731284Y-52015142D01*
X109721431Y-52115188D01*
X109699500Y-52337857D01*
X109699500Y-52662143D01*
X109702705Y-52694679D01*
X109731284Y-52984857D01*
X109731287Y-52984874D01*
X109794545Y-53302902D01*
X109794548Y-53302913D01*
X109888686Y-53613247D01*
X110012786Y-53912849D01*
X110012788Y-53912854D01*
X110165646Y-54198830D01*
X110165657Y-54198848D01*
X110345811Y-54468467D01*
X110345821Y-54468481D01*
X110551546Y-54719158D01*
X110780841Y-54948453D01*
X110780846Y-54948457D01*
X110780847Y-54948458D01*
X111031524Y-55154183D01*
X111301158Y-55334347D01*
X111301167Y-55334352D01*
X111301169Y-55334353D01*
X111587145Y-55487211D01*
X111587147Y-55487211D01*
X111587153Y-55487215D01*
X111886754Y-55611314D01*
X112197077Y-55705449D01*
X112197083Y-55705450D01*
X112197086Y-55705451D01*
X112197097Y-55705454D01*
X112396528Y-55745122D01*
X112515132Y-55768714D01*
X112837857Y-55800500D01*
X112837860Y-55800500D01*
X113162140Y-55800500D01*
X113162143Y-55800500D01*
X113484868Y-55768714D01*
X113642295Y-55737399D01*
X113802902Y-55705454D01*
X113802913Y-55705451D01*
X113802913Y-55705450D01*
X113802923Y-55705449D01*
X114113246Y-55611314D01*
X114412847Y-55487215D01*
X114698842Y-55334347D01*
X114968476Y-55154183D01*
X115219153Y-54948458D01*
X115448458Y-54719153D01*
X115654183Y-54468476D01*
X115834347Y-54198842D01*
X115987215Y-53912847D01*
X116111314Y-53613246D01*
X116205449Y-53302923D01*
X116205451Y-53302913D01*
X116205454Y-53302902D01*
X116245406Y-53102044D01*
X116268714Y-52984868D01*
X116269679Y-52975072D01*
X116269680Y-52975058D01*
X124651500Y-52975058D01*
X124651500Y-53204541D01*
X124664452Y-53302913D01*
X124681452Y-53432038D01*
X124681453Y-53432040D01*
X124740842Y-53653687D01*
X124828650Y-53865676D01*
X124828657Y-53865690D01*
X124943392Y-54064417D01*
X125083081Y-54246461D01*
X125083089Y-54246470D01*
X125245330Y-54408711D01*
X125245338Y-54408718D01*
X125427382Y-54548407D01*
X125427385Y-54548408D01*
X125427388Y-54548411D01*
X125626112Y-54663144D01*
X125626117Y-54663146D01*
X125626123Y-54663149D01*
X125717480Y-54700990D01*
X125838113Y-54750958D01*
X126059762Y-54810348D01*
X126287266Y-54840300D01*
X126287273Y-54840300D01*
X126516727Y-54840300D01*
X126516734Y-54840300D01*
X126744238Y-54810348D01*
X126965887Y-54750958D01*
X127177888Y-54663144D01*
X127376612Y-54548411D01*
X127558661Y-54408719D01*
X127558665Y-54408714D01*
X127558670Y-54408711D01*
X127720911Y-54246470D01*
X127720914Y-54246465D01*
X127720919Y-54246461D01*
X127860611Y-54064412D01*
X127975344Y-53865688D01*
X128063158Y-53653687D01*
X128122548Y-53432038D01*
X128152500Y-53204534D01*
X128152500Y-52975066D01*
X128152499Y-52975058D01*
X129351500Y-52975058D01*
X129351500Y-53204541D01*
X129364452Y-53302913D01*
X129381452Y-53432038D01*
X129381453Y-53432040D01*
X129440842Y-53653687D01*
X129528650Y-53865676D01*
X129528657Y-53865690D01*
X129643392Y-54064417D01*
X129783081Y-54246461D01*
X129783089Y-54246470D01*
X129945330Y-54408711D01*
X129945338Y-54408718D01*
X130127382Y-54548407D01*
X130127385Y-54548408D01*
X130127388Y-54548411D01*
X130326112Y-54663144D01*
X130326117Y-54663146D01*
X130326123Y-54663149D01*
X130417480Y-54700990D01*
X130538113Y-54750958D01*
X130759762Y-54810348D01*
X130987266Y-54840300D01*
X130987273Y-54840300D01*
X131216727Y-54840300D01*
X131216734Y-54840300D01*
X131444238Y-54810348D01*
X131665887Y-54750958D01*
X131877888Y-54663144D01*
X132076612Y-54548411D01*
X132258661Y-54408719D01*
X132258665Y-54408714D01*
X132258670Y-54408711D01*
X132420911Y-54246470D01*
X132420914Y-54246465D01*
X132420919Y-54246461D01*
X132560611Y-54064412D01*
X132675344Y-53865688D01*
X132763158Y-53653687D01*
X132822548Y-53432038D01*
X132852500Y-53204534D01*
X132852500Y-52975066D01*
X132822548Y-52747562D01*
X132763158Y-52525913D01*
X132685264Y-52337860D01*
X132675349Y-52313923D01*
X132675346Y-52313917D01*
X132675344Y-52313912D01*
X132560611Y-52115188D01*
X132560608Y-52115185D01*
X132560607Y-52115182D01*
X132420918Y-51933138D01*
X132420911Y-51933130D01*
X132258670Y-51770889D01*
X132258661Y-51770881D01*
X132076617Y-51631192D01*
X131877890Y-51516457D01*
X131877876Y-51516450D01*
X131665887Y-51428642D01*
X131444238Y-51369252D01*
X131406215Y-51364246D01*
X131216741Y-51339300D01*
X131216734Y-51339300D01*
X130987266Y-51339300D01*
X130987258Y-51339300D01*
X130770715Y-51367809D01*
X130759762Y-51369252D01*
X130694443Y-51386754D01*
X130538112Y-51428642D01*
X130326123Y-51516450D01*
X130326109Y-51516457D01*
X130127382Y-51631192D01*
X129945338Y-51770881D01*
X129783081Y-51933138D01*
X129643392Y-52115182D01*
X129528657Y-52313909D01*
X129528650Y-52313923D01*
X129440842Y-52525912D01*
X129381453Y-52747559D01*
X129381451Y-52747570D01*
X129351500Y-52975058D01*
X128152499Y-52975058D01*
X128122548Y-52747562D01*
X128063158Y-52525913D01*
X127985264Y-52337860D01*
X127975349Y-52313923D01*
X127975346Y-52313917D01*
X127975344Y-52313912D01*
X127860611Y-52115188D01*
X127860608Y-52115185D01*
X127860607Y-52115182D01*
X127720918Y-51933138D01*
X127720911Y-51933130D01*
X127558670Y-51770889D01*
X127558661Y-51770881D01*
X127376617Y-51631192D01*
X127177890Y-51516457D01*
X127177876Y-51516450D01*
X126965887Y-51428642D01*
X126744238Y-51369252D01*
X126706215Y-51364246D01*
X126516741Y-51339300D01*
X126516734Y-51339300D01*
X126287266Y-51339300D01*
X126287258Y-51339300D01*
X126070715Y-51367809D01*
X126059762Y-51369252D01*
X125994443Y-51386754D01*
X125838112Y-51428642D01*
X125626123Y-51516450D01*
X125626109Y-51516457D01*
X125427382Y-51631192D01*
X125245338Y-51770881D01*
X125083081Y-51933138D01*
X124943392Y-52115182D01*
X124828657Y-52313909D01*
X124828650Y-52313923D01*
X124740842Y-52525912D01*
X124681453Y-52747559D01*
X124681451Y-52747570D01*
X124651500Y-52975058D01*
X116269680Y-52975058D01*
X116271277Y-52958852D01*
X116271277Y-52958851D01*
X116297295Y-52694679D01*
X116300500Y-52662143D01*
X116300500Y-52337857D01*
X116268714Y-52015132D01*
X116245122Y-51896528D01*
X116205454Y-51697097D01*
X116205451Y-51697086D01*
X116205450Y-51697083D01*
X116205449Y-51697077D01*
X116111314Y-51386754D01*
X115987215Y-51087153D01*
X115834347Y-50801158D01*
X115654183Y-50531524D01*
X115448458Y-50280847D01*
X115448457Y-50280846D01*
X115448453Y-50280841D01*
X115219158Y-50051546D01*
X114968481Y-49845821D01*
X114968480Y-49845820D01*
X114968476Y-49845817D01*
X114791554Y-49727601D01*
X114746750Y-49673990D01*
X114738043Y-49604665D01*
X114768197Y-49541638D01*
X114827640Y-49504918D01*
X114860446Y-49500500D01*
X148228000Y-49500500D01*
X148295039Y-49520185D01*
X148340794Y-49572989D01*
X148352000Y-49624500D01*
X148352000Y-58599800D01*
X165375500Y-58599800D01*
X165442539Y-58619485D01*
X165488294Y-58672289D01*
X165499500Y-58723800D01*
X165499500Y-107500938D01*
X165479815Y-107567977D01*
X165463181Y-107588619D01*
X162488319Y-110563481D01*
X162426996Y-110596966D01*
X162400638Y-110599800D01*
X102503362Y-110599800D01*
X102436323Y-110580115D01*
X102415681Y-110563481D01*
X98885819Y-107033619D01*
X98852334Y-106972296D01*
X98849500Y-106945938D01*
X98849500Y-106193598D01*
X109275636Y-106193598D01*
X109323456Y-106217965D01*
X109323459Y-106217966D01*
X109499352Y-106275116D01*
X109682027Y-106304050D01*
X109866973Y-106304050D01*
X110049646Y-106275116D01*
X110225541Y-106217965D01*
X110225548Y-106217962D01*
X110273363Y-106193598D01*
X109774501Y-105694735D01*
X109774500Y-105694735D01*
X109275636Y-106193598D01*
X98849500Y-106193598D01*
X98849500Y-105036576D01*
X108599500Y-105036576D01*
X108599500Y-105221523D01*
X108628433Y-105404197D01*
X108685584Y-105580092D01*
X108709949Y-105627913D01*
X108709950Y-105627913D01*
X109208814Y-105129050D01*
X109208814Y-105129049D01*
X109142989Y-105063224D01*
X109274500Y-105063224D01*
X109274500Y-105194876D01*
X109308575Y-105322043D01*
X109374401Y-105436057D01*
X109467493Y-105529149D01*
X109581507Y-105594975D01*
X109708674Y-105629050D01*
X109840326Y-105629050D01*
X109967493Y-105594975D01*
X110081507Y-105529149D01*
X110174599Y-105436057D01*
X110240425Y-105322043D01*
X110274500Y-105194876D01*
X110274500Y-105129050D01*
X110340185Y-105129050D01*
X110839047Y-105627912D01*
X110880601Y-105621331D01*
X110949895Y-105630285D01*
X111003347Y-105675281D01*
X111023987Y-105742032D01*
X111024000Y-105743804D01*
X111024000Y-106050567D01*
X111034792Y-106118707D01*
X111038854Y-106144354D01*
X111096450Y-106257392D01*
X111096452Y-106257394D01*
X111096454Y-106257397D01*
X111186152Y-106347095D01*
X111186154Y-106347096D01*
X111186158Y-106347100D01*
X111299194Y-106404695D01*
X111299198Y-106404697D01*
X111392975Y-106419549D01*
X111392981Y-106419550D01*
X113236018Y-106419549D01*
X113329804Y-106404696D01*
X113442842Y-106347100D01*
X113532550Y-106257392D01*
X113565055Y-106193598D01*
X118305011Y-106193598D01*
X118352831Y-106217965D01*
X118352834Y-106217966D01*
X118528727Y-106275116D01*
X118711402Y-106304050D01*
X118896348Y-106304050D01*
X119079021Y-106275116D01*
X119254916Y-106217965D01*
X119254923Y-106217962D01*
X119302738Y-106193598D01*
X118803876Y-105694735D01*
X118803875Y-105694735D01*
X118305011Y-106193598D01*
X113565055Y-106193598D01*
X113590146Y-106144354D01*
X113590146Y-106144352D01*
X113590147Y-106144351D01*
X113592231Y-106131195D01*
X113592231Y-106131194D01*
X113604999Y-106050574D01*
X113605000Y-106050569D01*
X113604999Y-105036576D01*
X117628875Y-105036576D01*
X117628875Y-105221523D01*
X117657808Y-105404197D01*
X117714959Y-105580092D01*
X117739324Y-105627913D01*
X117739325Y-105627913D01*
X118238189Y-105129050D01*
X118238189Y-105129049D01*
X118172364Y-105063224D01*
X118303875Y-105063224D01*
X118303875Y-105194876D01*
X118337950Y-105322043D01*
X118403776Y-105436057D01*
X118496868Y-105529149D01*
X118610882Y-105594975D01*
X118738049Y-105629050D01*
X118869701Y-105629050D01*
X118996868Y-105594975D01*
X119110882Y-105529149D01*
X119203974Y-105436057D01*
X119269800Y-105322043D01*
X119303875Y-105194876D01*
X119303875Y-105129050D01*
X119369560Y-105129050D01*
X119868422Y-105627912D01*
X119909976Y-105621331D01*
X119979270Y-105630285D01*
X120032722Y-105675281D01*
X120053362Y-105742032D01*
X120053375Y-105743804D01*
X120053375Y-106050567D01*
X120064167Y-106118707D01*
X120068229Y-106144354D01*
X120125825Y-106257392D01*
X120125827Y-106257394D01*
X120125829Y-106257397D01*
X120215527Y-106347095D01*
X120215529Y-106347096D01*
X120215533Y-106347100D01*
X120328569Y-106404695D01*
X120328573Y-106404697D01*
X120422350Y-106419549D01*
X120422356Y-106419550D01*
X122265393Y-106419549D01*
X122359179Y-106404696D01*
X122472217Y-106347100D01*
X122561925Y-106257392D01*
X122619521Y-106144354D01*
X122619521Y-106144352D01*
X122619522Y-106144351D01*
X122634374Y-106050574D01*
X122634375Y-106050569D01*
X122634374Y-104207532D01*
X122619521Y-104113746D01*
X122561925Y-104000708D01*
X122561921Y-104000704D01*
X122561920Y-104000702D01*
X122472222Y-103911004D01*
X122472219Y-103911002D01*
X122472217Y-103911000D01*
X122395392Y-103871855D01*
X122359176Y-103853402D01*
X122265399Y-103838550D01*
X120422357Y-103838550D01*
X120341394Y-103851373D01*
X120328571Y-103853404D01*
X120215533Y-103911000D01*
X120215532Y-103911001D01*
X120215527Y-103911004D01*
X120125829Y-104000702D01*
X120125826Y-104000707D01*
X120068227Y-104113748D01*
X120053375Y-104207525D01*
X120053375Y-104514293D01*
X120033690Y-104581332D01*
X119980886Y-104627087D01*
X119911728Y-104637031D01*
X119909978Y-104636767D01*
X119868424Y-104630185D01*
X119369560Y-105129050D01*
X119303875Y-105129050D01*
X119303875Y-105063224D01*
X119269800Y-104936057D01*
X119203974Y-104822043D01*
X119110882Y-104728951D01*
X118996868Y-104663125D01*
X118869701Y-104629050D01*
X118738049Y-104629050D01*
X118610882Y-104663125D01*
X118496868Y-104728951D01*
X118403776Y-104822043D01*
X118337950Y-104936057D01*
X118303875Y-105063224D01*
X118172364Y-105063224D01*
X117739325Y-104630185D01*
X117714959Y-104678009D01*
X117714958Y-104678011D01*
X117657808Y-104853902D01*
X117628875Y-105036576D01*
X113604999Y-105036576D01*
X113604999Y-104207532D01*
X113590146Y-104113746D01*
X113565054Y-104064500D01*
X118305010Y-104064500D01*
X118803875Y-104563364D01*
X118803876Y-104563364D01*
X119302738Y-104064500D01*
X119302738Y-104064499D01*
X119254917Y-104040134D01*
X119079022Y-103982983D01*
X118896348Y-103954050D01*
X118711402Y-103954050D01*
X118528727Y-103982983D01*
X118352836Y-104040133D01*
X118352834Y-104040134D01*
X118305010Y-104064500D01*
X113565054Y-104064500D01*
X113532550Y-104000708D01*
X113532546Y-104000704D01*
X113532545Y-104000702D01*
X113442847Y-103911004D01*
X113442844Y-103911002D01*
X113442842Y-103911000D01*
X113366017Y-103871855D01*
X113329801Y-103853402D01*
X113236024Y-103838550D01*
X111392982Y-103838550D01*
X111312019Y-103851373D01*
X111299196Y-103853404D01*
X111186158Y-103911000D01*
X111186157Y-103911001D01*
X111186152Y-103911004D01*
X111096454Y-104000702D01*
X111096451Y-104000707D01*
X111038852Y-104113748D01*
X111024000Y-104207525D01*
X111024000Y-104514293D01*
X111004315Y-104581332D01*
X110951511Y-104627087D01*
X110882353Y-104637031D01*
X110880603Y-104636767D01*
X110839049Y-104630185D01*
X110340185Y-105129050D01*
X110274500Y-105129050D01*
X110274500Y-105063224D01*
X110240425Y-104936057D01*
X110174599Y-104822043D01*
X110081507Y-104728951D01*
X109967493Y-104663125D01*
X109840326Y-104629050D01*
X109708674Y-104629050D01*
X109581507Y-104663125D01*
X109467493Y-104728951D01*
X109374401Y-104822043D01*
X109308575Y-104936057D01*
X109274500Y-105063224D01*
X109142989Y-105063224D01*
X108709950Y-104630185D01*
X108685584Y-104678009D01*
X108685583Y-104678011D01*
X108628433Y-104853902D01*
X108599500Y-105036576D01*
X98849500Y-105036576D01*
X98849500Y-104064500D01*
X109275635Y-104064500D01*
X109774500Y-104563364D01*
X109774501Y-104563364D01*
X110273363Y-104064500D01*
X110273363Y-104064499D01*
X110225542Y-104040134D01*
X110049647Y-103982983D01*
X109866973Y-103954050D01*
X109682027Y-103954050D01*
X109499352Y-103982983D01*
X109323461Y-104040133D01*
X109323459Y-104040134D01*
X109275635Y-104064500D01*
X98849500Y-104064500D01*
X98849500Y-103518275D01*
X127452750Y-103518275D01*
X127452750Y-105581317D01*
X127459088Y-105621331D01*
X127467604Y-105675104D01*
X127525200Y-105788142D01*
X127525202Y-105788144D01*
X127525204Y-105788147D01*
X127614902Y-105877845D01*
X127614904Y-105877846D01*
X127614908Y-105877850D01*
X127727944Y-105935445D01*
X127727948Y-105935447D01*
X127821725Y-105950299D01*
X127821731Y-105950300D01*
X129884768Y-105950299D01*
X129978554Y-105935446D01*
X130091592Y-105877850D01*
X130181300Y-105788142D01*
X130222499Y-105707285D01*
X131761448Y-105707285D01*
X131854218Y-105754555D01*
X132048832Y-105817790D01*
X132250933Y-105849800D01*
X132455567Y-105849800D01*
X132657667Y-105817790D01*
X132852281Y-105754555D01*
X132945051Y-105707285D01*
X132353251Y-105115485D01*
X132353250Y-105115485D01*
X131761448Y-105707285D01*
X130222499Y-105707285D01*
X130238896Y-105675104D01*
X130238896Y-105675102D01*
X130238897Y-105675101D01*
X130238897Y-105675100D01*
X130243683Y-105644884D01*
X130243683Y-105644883D01*
X130253749Y-105581324D01*
X130253750Y-105581319D01*
X130253749Y-104447482D01*
X131053250Y-104447482D01*
X131053250Y-104652117D01*
X131085259Y-104854217D01*
X131148493Y-105048827D01*
X131148496Y-105048834D01*
X131195762Y-105141601D01*
X131787564Y-104549800D01*
X131787564Y-104549799D01*
X131720422Y-104482657D01*
X131843250Y-104482657D01*
X131843250Y-104616943D01*
X131878005Y-104746653D01*
X131945148Y-104862947D01*
X132040103Y-104957902D01*
X132156397Y-105025045D01*
X132286107Y-105059800D01*
X132420393Y-105059800D01*
X132550103Y-105025045D01*
X132666397Y-104957902D01*
X132761352Y-104862947D01*
X132828495Y-104746653D01*
X132863250Y-104616943D01*
X132863250Y-104549799D01*
X132918935Y-104549799D01*
X132918935Y-104549800D01*
X133510735Y-105141600D01*
X133558005Y-105048831D01*
X133621240Y-104854217D01*
X133653250Y-104652117D01*
X133653250Y-104447482D01*
X133621240Y-104245382D01*
X133558005Y-104050768D01*
X133510735Y-103957998D01*
X132918935Y-104549799D01*
X132863250Y-104549799D01*
X132863250Y-104482657D01*
X132828495Y-104352947D01*
X132761352Y-104236653D01*
X132666397Y-104141698D01*
X132550103Y-104074555D01*
X132420393Y-104039800D01*
X132286107Y-104039800D01*
X132156397Y-104074555D01*
X132040103Y-104141698D01*
X131945148Y-104236653D01*
X131878005Y-104352947D01*
X131843250Y-104482657D01*
X131720422Y-104482657D01*
X131195762Y-103957997D01*
X131148492Y-104050773D01*
X131148492Y-104050774D01*
X131085260Y-104245378D01*
X131085260Y-104245381D01*
X131053250Y-104447482D01*
X130253749Y-104447482D01*
X130253749Y-103518282D01*
X130253749Y-103518281D01*
X130253749Y-103518277D01*
X130243682Y-103454716D01*
X130243681Y-103454715D01*
X130238896Y-103424496D01*
X130222497Y-103392312D01*
X131761447Y-103392312D01*
X132353250Y-103984114D01*
X132353251Y-103984114D01*
X132819089Y-103518275D01*
X138907125Y-103518275D01*
X138907125Y-105581317D01*
X138913463Y-105621331D01*
X138921979Y-105675104D01*
X138979575Y-105788142D01*
X138979577Y-105788144D01*
X138979579Y-105788147D01*
X139069277Y-105877845D01*
X139069279Y-105877846D01*
X139069283Y-105877850D01*
X139182319Y-105935445D01*
X139182323Y-105935447D01*
X139276100Y-105950299D01*
X139276106Y-105950300D01*
X141339143Y-105950299D01*
X141432929Y-105935446D01*
X141545967Y-105877850D01*
X141635675Y-105788142D01*
X141676874Y-105707285D01*
X143215823Y-105707285D01*
X143308593Y-105754555D01*
X143503207Y-105817790D01*
X143705308Y-105849800D01*
X143909942Y-105849800D01*
X144112042Y-105817790D01*
X144306656Y-105754555D01*
X144399426Y-105707285D01*
X143807626Y-105115485D01*
X143807625Y-105115485D01*
X143215823Y-105707285D01*
X141676874Y-105707285D01*
X141693271Y-105675104D01*
X141693271Y-105675102D01*
X141693272Y-105675101D01*
X141693272Y-105675100D01*
X141698058Y-105644884D01*
X141698058Y-105644883D01*
X141708124Y-105581324D01*
X141708125Y-105581319D01*
X141708124Y-104447482D01*
X142507625Y-104447482D01*
X142507625Y-104652117D01*
X142539634Y-104854217D01*
X142602868Y-105048827D01*
X142602871Y-105048834D01*
X142650137Y-105141601D01*
X143241939Y-104549800D01*
X143241939Y-104549799D01*
X143174797Y-104482657D01*
X143297625Y-104482657D01*
X143297625Y-104616943D01*
X143332380Y-104746653D01*
X143399523Y-104862947D01*
X143494478Y-104957902D01*
X143610772Y-105025045D01*
X143740482Y-105059800D01*
X143874768Y-105059800D01*
X144004478Y-105025045D01*
X144120772Y-104957902D01*
X144215727Y-104862947D01*
X144282870Y-104746653D01*
X144317625Y-104616943D01*
X144317625Y-104549799D01*
X144373310Y-104549799D01*
X144373310Y-104549800D01*
X144965110Y-105141600D01*
X145012380Y-105048831D01*
X145075615Y-104854217D01*
X145107625Y-104652117D01*
X145107625Y-104447482D01*
X145075615Y-104245382D01*
X145012380Y-104050768D01*
X144965110Y-103957998D01*
X144373310Y-104549799D01*
X144317625Y-104549799D01*
X144317625Y-104482657D01*
X144282870Y-104352947D01*
X144215727Y-104236653D01*
X144120772Y-104141698D01*
X144004478Y-104074555D01*
X143874768Y-104039800D01*
X143740482Y-104039800D01*
X143610772Y-104074555D01*
X143494478Y-104141698D01*
X143399523Y-104236653D01*
X143332380Y-104352947D01*
X143297625Y-104482657D01*
X143174797Y-104482657D01*
X142650137Y-103957997D01*
X142602867Y-104050773D01*
X142602867Y-104050774D01*
X142539635Y-104245378D01*
X142539635Y-104245381D01*
X142507625Y-104447482D01*
X141708124Y-104447482D01*
X141708124Y-103518282D01*
X141708124Y-103518281D01*
X141708124Y-103518277D01*
X141698057Y-103454716D01*
X141698056Y-103454715D01*
X141693271Y-103424496D01*
X141676872Y-103392312D01*
X143215822Y-103392312D01*
X143807625Y-103984114D01*
X143807626Y-103984114D01*
X144273464Y-103518275D01*
X150361500Y-103518275D01*
X150361500Y-105581317D01*
X150367838Y-105621331D01*
X150376354Y-105675104D01*
X150433950Y-105788142D01*
X150433952Y-105788144D01*
X150433954Y-105788147D01*
X150523652Y-105877845D01*
X150523654Y-105877846D01*
X150523658Y-105877850D01*
X150636694Y-105935445D01*
X150636698Y-105935447D01*
X150730475Y-105950299D01*
X150730481Y-105950300D01*
X152793518Y-105950299D01*
X152887304Y-105935446D01*
X153000342Y-105877850D01*
X153090050Y-105788142D01*
X153131249Y-105707285D01*
X154670198Y-105707285D01*
X154762968Y-105754555D01*
X154957582Y-105817790D01*
X155159683Y-105849800D01*
X155364317Y-105849800D01*
X155566417Y-105817790D01*
X155761031Y-105754555D01*
X155853801Y-105707285D01*
X155262001Y-105115485D01*
X155262000Y-105115485D01*
X154670198Y-105707285D01*
X153131249Y-105707285D01*
X153147646Y-105675104D01*
X153147646Y-105675102D01*
X153147647Y-105675101D01*
X153147647Y-105675100D01*
X153152433Y-105644884D01*
X153152433Y-105644883D01*
X153162499Y-105581324D01*
X153162500Y-105581319D01*
X153162499Y-104447482D01*
X153962000Y-104447482D01*
X153962000Y-104652117D01*
X153994009Y-104854217D01*
X154057243Y-105048827D01*
X154057246Y-105048834D01*
X154104512Y-105141601D01*
X154696314Y-104549800D01*
X154696314Y-104549799D01*
X154629172Y-104482657D01*
X154752000Y-104482657D01*
X154752000Y-104616943D01*
X154786755Y-104746653D01*
X154853898Y-104862947D01*
X154948853Y-104957902D01*
X155065147Y-105025045D01*
X155194857Y-105059800D01*
X155329143Y-105059800D01*
X155458853Y-105025045D01*
X155575147Y-104957902D01*
X155670102Y-104862947D01*
X155737245Y-104746653D01*
X155772000Y-104616943D01*
X155772000Y-104549799D01*
X155827685Y-104549799D01*
X155827685Y-104549800D01*
X156419485Y-105141600D01*
X156466755Y-105048831D01*
X156529990Y-104854217D01*
X156562000Y-104652117D01*
X156562000Y-104447482D01*
X156529990Y-104245382D01*
X156466755Y-104050768D01*
X156419485Y-103957998D01*
X155827685Y-104549799D01*
X155772000Y-104549799D01*
X155772000Y-104482657D01*
X155737245Y-104352947D01*
X155670102Y-104236653D01*
X155575147Y-104141698D01*
X155458853Y-104074555D01*
X155329143Y-104039800D01*
X155194857Y-104039800D01*
X155065147Y-104074555D01*
X154948853Y-104141698D01*
X154853898Y-104236653D01*
X154786755Y-104352947D01*
X154752000Y-104482657D01*
X154629172Y-104482657D01*
X154104512Y-103957997D01*
X154057242Y-104050773D01*
X154057242Y-104050774D01*
X153994010Y-104245378D01*
X153994010Y-104245381D01*
X153962000Y-104447482D01*
X153162499Y-104447482D01*
X153162499Y-103518282D01*
X153162499Y-103518281D01*
X153162499Y-103518277D01*
X153152432Y-103454716D01*
X153152431Y-103454715D01*
X153147646Y-103424496D01*
X153131247Y-103392312D01*
X154670197Y-103392312D01*
X155262000Y-103984114D01*
X155262001Y-103984114D01*
X155853801Y-103392312D01*
X155761034Y-103345046D01*
X155761027Y-103345043D01*
X155566417Y-103281809D01*
X155364317Y-103249800D01*
X155159683Y-103249800D01*
X154957581Y-103281810D01*
X154957578Y-103281810D01*
X154762974Y-103345042D01*
X154762973Y-103345042D01*
X154670197Y-103392312D01*
X153131247Y-103392312D01*
X153090050Y-103311458D01*
X153090046Y-103311454D01*
X153090045Y-103311452D01*
X153000347Y-103221754D01*
X153000344Y-103221752D01*
X153000342Y-103221750D01*
X152923517Y-103182605D01*
X152887301Y-103164152D01*
X152793524Y-103149300D01*
X150730482Y-103149300D01*
X150649519Y-103162123D01*
X150636696Y-103164154D01*
X150523658Y-103221750D01*
X150523657Y-103221751D01*
X150523652Y-103221754D01*
X150433954Y-103311452D01*
X150433951Y-103311457D01*
X150376352Y-103424498D01*
X150361500Y-103518275D01*
X144273464Y-103518275D01*
X144366011Y-103425728D01*
X144399426Y-103392312D01*
X144306659Y-103345046D01*
X144306652Y-103345043D01*
X144112042Y-103281809D01*
X143909942Y-103249800D01*
X143705308Y-103249800D01*
X143503206Y-103281810D01*
X143503203Y-103281810D01*
X143308599Y-103345042D01*
X143308598Y-103345042D01*
X143215822Y-103392312D01*
X141676872Y-103392312D01*
X141635675Y-103311458D01*
X141635671Y-103311454D01*
X141635670Y-103311452D01*
X141545972Y-103221754D01*
X141545969Y-103221752D01*
X141545967Y-103221750D01*
X141469142Y-103182605D01*
X141432926Y-103164152D01*
X141339149Y-103149300D01*
X139276107Y-103149300D01*
X139195144Y-103162123D01*
X139182321Y-103164154D01*
X139069283Y-103221750D01*
X139069282Y-103221751D01*
X139069277Y-103221754D01*
X138979579Y-103311452D01*
X138979576Y-103311457D01*
X138921977Y-103424498D01*
X138907125Y-103518275D01*
X132819089Y-103518275D01*
X132911636Y-103425728D01*
X132945051Y-103392312D01*
X132852284Y-103345046D01*
X132852277Y-103345043D01*
X132657667Y-103281809D01*
X132455567Y-103249800D01*
X132250933Y-103249800D01*
X132048831Y-103281810D01*
X132048828Y-103281810D01*
X131854224Y-103345042D01*
X131854223Y-103345042D01*
X131761447Y-103392312D01*
X130222497Y-103392312D01*
X130181300Y-103311458D01*
X130181296Y-103311454D01*
X130181295Y-103311452D01*
X130091597Y-103221754D01*
X130091594Y-103221752D01*
X130091592Y-103221750D01*
X130014767Y-103182605D01*
X129978551Y-103164152D01*
X129884774Y-103149300D01*
X127821732Y-103149300D01*
X127740769Y-103162123D01*
X127727946Y-103164154D01*
X127614908Y-103221750D01*
X127614907Y-103221751D01*
X127614902Y-103221754D01*
X127525204Y-103311452D01*
X127525201Y-103311457D01*
X127467602Y-103424498D01*
X127452750Y-103518275D01*
X98849500Y-103518275D01*
X98849500Y-100763871D01*
X149651499Y-100763871D01*
X149676497Y-100889538D01*
X149676499Y-100889544D01*
X149725533Y-101007924D01*
X149728408Y-101013302D01*
X149726778Y-101014172D01*
X149745064Y-101072613D01*
X149727684Y-101135911D01*
X149728408Y-101136298D01*
X149726702Y-101139489D01*
X149726565Y-101139989D01*
X149725794Y-101141188D01*
X149725533Y-101141675D01*
X149676499Y-101260055D01*
X149676497Y-101260061D01*
X149651500Y-101385728D01*
X149651500Y-101385731D01*
X149651500Y-101513869D01*
X149651500Y-101513871D01*
X149651499Y-101513871D01*
X149676497Y-101639538D01*
X149676499Y-101639544D01*
X149725533Y-101757924D01*
X149728408Y-101763302D01*
X149726778Y-101764172D01*
X149745064Y-101822613D01*
X149727684Y-101885911D01*
X149728408Y-101886298D01*
X149726702Y-101889489D01*
X149726565Y-101889989D01*
X149725794Y-101891188D01*
X149725533Y-101891675D01*
X149676499Y-102010055D01*
X149676497Y-102010061D01*
X149651500Y-102135728D01*
X149651500Y-102135731D01*
X149651500Y-102263869D01*
X149651500Y-102263871D01*
X149651499Y-102263871D01*
X149676497Y-102389538D01*
X149676499Y-102389544D01*
X149725533Y-102507924D01*
X149725538Y-102507933D01*
X149796723Y-102614468D01*
X149796726Y-102614472D01*
X149887327Y-102705073D01*
X149887331Y-102705076D01*
X149993866Y-102776261D01*
X149993872Y-102776264D01*
X149993873Y-102776265D01*
X150112256Y-102825301D01*
X150112260Y-102825301D01*
X150112261Y-102825302D01*
X150237928Y-102850300D01*
X150237931Y-102850300D01*
X150366071Y-102850300D01*
X150450615Y-102833482D01*
X150491744Y-102825301D01*
X150610127Y-102776265D01*
X150610134Y-102776259D01*
X150615494Y-102773396D01*
X150616366Y-102775027D01*
X150674785Y-102756735D01*
X150738124Y-102774110D01*
X150738506Y-102773396D01*
X150741653Y-102775078D01*
X150742165Y-102775219D01*
X150743396Y-102776010D01*
X150743867Y-102776261D01*
X150743873Y-102776265D01*
X150862256Y-102825301D01*
X150862260Y-102825301D01*
X150862261Y-102825302D01*
X150987928Y-102850300D01*
X150987931Y-102850300D01*
X151116071Y-102850300D01*
X151200615Y-102833482D01*
X151241744Y-102825301D01*
X151360127Y-102776265D01*
X151360134Y-102776259D01*
X151365494Y-102773396D01*
X151366366Y-102775027D01*
X151424785Y-102756735D01*
X151488124Y-102774110D01*
X151488506Y-102773396D01*
X151491653Y-102775078D01*
X151492165Y-102775219D01*
X151493396Y-102776010D01*
X151493867Y-102776261D01*
X151493873Y-102776265D01*
X151612256Y-102825301D01*
X151612260Y-102825301D01*
X151612261Y-102825302D01*
X151737928Y-102850300D01*
X151737931Y-102850300D01*
X151866071Y-102850300D01*
X151950615Y-102833482D01*
X151991744Y-102825301D01*
X152110127Y-102776265D01*
X152110134Y-102776259D01*
X152115494Y-102773396D01*
X152116366Y-102775027D01*
X152174785Y-102756735D01*
X152238124Y-102774110D01*
X152238506Y-102773396D01*
X152241653Y-102775078D01*
X152242165Y-102775219D01*
X152243396Y-102776010D01*
X152243867Y-102776261D01*
X152243873Y-102776265D01*
X152362256Y-102825301D01*
X152362260Y-102825301D01*
X152362261Y-102825302D01*
X152487928Y-102850300D01*
X152487931Y-102850300D01*
X152616071Y-102850300D01*
X152700615Y-102833482D01*
X152741744Y-102825301D01*
X152860127Y-102776265D01*
X152966669Y-102705076D01*
X153057276Y-102614469D01*
X153128465Y-102507927D01*
X153177501Y-102389544D01*
X153202500Y-102263869D01*
X153202500Y-102135731D01*
X153202500Y-102135728D01*
X153177502Y-102010061D01*
X153177501Y-102010060D01*
X153177501Y-102010056D01*
X153128465Y-101891673D01*
X153128462Y-101891669D01*
X153125596Y-101886306D01*
X153127227Y-101885433D01*
X153108935Y-101827015D01*
X153126310Y-101763675D01*
X153125596Y-101763294D01*
X153127278Y-101760146D01*
X153127419Y-101759635D01*
X153128210Y-101758403D01*
X153128459Y-101757934D01*
X153128465Y-101757927D01*
X153177501Y-101639544D01*
X153200034Y-101526266D01*
X153202500Y-101513871D01*
X153202500Y-101385728D01*
X153177502Y-101260061D01*
X153177501Y-101260060D01*
X153177501Y-101260056D01*
X153128465Y-101141673D01*
X153128462Y-101141669D01*
X153125596Y-101136306D01*
X153127227Y-101135433D01*
X153108935Y-101077015D01*
X153126310Y-101013675D01*
X153125596Y-101013294D01*
X153127278Y-101010146D01*
X153127419Y-101009635D01*
X153128210Y-101008403D01*
X153128459Y-101007934D01*
X153128465Y-101007927D01*
X153177501Y-100889544D01*
X153202500Y-100763869D01*
X153202500Y-100635731D01*
X153202500Y-100635728D01*
X153177502Y-100510061D01*
X153177501Y-100510060D01*
X153177501Y-100510056D01*
X153128465Y-100391673D01*
X153128462Y-100391669D01*
X153125596Y-100386306D01*
X153127227Y-100385433D01*
X153108935Y-100327015D01*
X153126310Y-100263675D01*
X153125596Y-100263294D01*
X153127278Y-100260146D01*
X153127419Y-100259635D01*
X153128210Y-100258403D01*
X153128459Y-100257934D01*
X153128465Y-100257927D01*
X153177501Y-100139544D01*
X153185682Y-100098415D01*
X153202500Y-100013871D01*
X153202500Y-99885728D01*
X153177502Y-99760061D01*
X153177501Y-99760060D01*
X153177501Y-99760056D01*
X153128465Y-99641673D01*
X153128462Y-99641669D01*
X153125596Y-99636306D01*
X153127227Y-99635433D01*
X153108935Y-99577015D01*
X153116771Y-99531365D01*
X153121813Y-99517881D01*
X153124493Y-99513871D01*
X153651499Y-99513871D01*
X153676497Y-99639538D01*
X153676499Y-99639544D01*
X153725533Y-99757924D01*
X153728408Y-99763302D01*
X153726778Y-99764172D01*
X153745064Y-99822613D01*
X153727684Y-99885911D01*
X153728408Y-99886298D01*
X153726702Y-99889489D01*
X153726565Y-99889989D01*
X153725794Y-99891188D01*
X153725533Y-99891675D01*
X153676499Y-100010055D01*
X153676497Y-100010061D01*
X153651500Y-100135728D01*
X153651500Y-100135731D01*
X153651500Y-100263869D01*
X153651500Y-100263871D01*
X153651499Y-100263871D01*
X153676497Y-100389538D01*
X153676499Y-100389544D01*
X153725533Y-100507924D01*
X153728408Y-100513302D01*
X153726778Y-100514172D01*
X153745064Y-100572613D01*
X153727684Y-100635911D01*
X153728408Y-100636298D01*
X153726702Y-100639489D01*
X153726565Y-100639989D01*
X153725794Y-100641188D01*
X153725533Y-100641675D01*
X153676499Y-100760055D01*
X153676497Y-100760061D01*
X153651500Y-100885728D01*
X153651500Y-100885731D01*
X153651500Y-101013869D01*
X153651500Y-101013871D01*
X153651499Y-101013871D01*
X153676497Y-101139538D01*
X153676499Y-101139544D01*
X153725533Y-101257924D01*
X153725538Y-101257933D01*
X153796723Y-101364468D01*
X153796726Y-101364472D01*
X153887327Y-101455073D01*
X153887331Y-101455076D01*
X153993866Y-101526261D01*
X153993872Y-101526264D01*
X153993873Y-101526265D01*
X154112256Y-101575301D01*
X154112260Y-101575301D01*
X154112261Y-101575302D01*
X154237928Y-101600300D01*
X154237931Y-101600300D01*
X154366071Y-101600300D01*
X154450615Y-101583482D01*
X154491744Y-101575301D01*
X154610127Y-101526265D01*
X154610134Y-101526259D01*
X154615494Y-101523396D01*
X154616366Y-101525027D01*
X154674785Y-101506735D01*
X154738124Y-101524110D01*
X154738506Y-101523396D01*
X154741653Y-101525078D01*
X154742165Y-101525219D01*
X154743396Y-101526010D01*
X154743867Y-101526261D01*
X154743873Y-101526265D01*
X154862256Y-101575301D01*
X154862260Y-101575301D01*
X154862261Y-101575302D01*
X154987928Y-101600300D01*
X154987931Y-101600300D01*
X155116071Y-101600300D01*
X155200615Y-101583482D01*
X155241744Y-101575301D01*
X155360127Y-101526265D01*
X155360134Y-101526259D01*
X155365494Y-101523396D01*
X155366366Y-101525027D01*
X155424785Y-101506735D01*
X155488124Y-101524110D01*
X155488506Y-101523396D01*
X155491653Y-101525078D01*
X155492165Y-101525219D01*
X155493396Y-101526010D01*
X155493867Y-101526261D01*
X155493873Y-101526265D01*
X155612256Y-101575301D01*
X155612260Y-101575301D01*
X155612261Y-101575302D01*
X155737928Y-101600300D01*
X155737931Y-101600300D01*
X155866071Y-101600300D01*
X155950615Y-101583482D01*
X155991744Y-101575301D01*
X156110127Y-101526265D01*
X156110134Y-101526259D01*
X156115494Y-101523396D01*
X156116366Y-101525027D01*
X156174785Y-101506735D01*
X156238124Y-101524110D01*
X156238506Y-101523396D01*
X156241653Y-101525078D01*
X156242165Y-101525219D01*
X156243396Y-101526010D01*
X156243867Y-101526261D01*
X156243873Y-101526265D01*
X156362256Y-101575301D01*
X156362260Y-101575301D01*
X156362261Y-101575302D01*
X156487928Y-101600300D01*
X156487931Y-101600300D01*
X156616071Y-101600300D01*
X156700615Y-101583482D01*
X156741744Y-101575301D01*
X156860127Y-101526265D01*
X156860134Y-101526259D01*
X156865494Y-101523396D01*
X156866366Y-101525027D01*
X156924785Y-101506735D01*
X156988124Y-101524110D01*
X156988506Y-101523396D01*
X156991653Y-101525078D01*
X156992165Y-101525219D01*
X156993396Y-101526010D01*
X156993867Y-101526261D01*
X156993873Y-101526265D01*
X157112256Y-101575301D01*
X157112260Y-101575301D01*
X157112261Y-101575302D01*
X157237928Y-101600300D01*
X157237931Y-101600300D01*
X157366071Y-101600300D01*
X157450615Y-101583482D01*
X157491744Y-101575301D01*
X157610127Y-101526265D01*
X157610134Y-101526259D01*
X157615494Y-101523396D01*
X157616366Y-101525027D01*
X157674785Y-101506735D01*
X157738124Y-101524110D01*
X157738506Y-101523396D01*
X157741653Y-101525078D01*
X157742165Y-101525219D01*
X157743396Y-101526010D01*
X157743867Y-101526261D01*
X157743873Y-101526265D01*
X157862256Y-101575301D01*
X157862260Y-101575301D01*
X157862261Y-101575302D01*
X157987928Y-101600300D01*
X157987931Y-101600300D01*
X158116071Y-101600300D01*
X158200615Y-101583482D01*
X158241744Y-101575301D01*
X158360127Y-101526265D01*
X158360134Y-101526259D01*
X158365494Y-101523396D01*
X158366366Y-101525027D01*
X158424785Y-101506735D01*
X158488124Y-101524110D01*
X158488506Y-101523396D01*
X158491653Y-101525078D01*
X158492165Y-101525219D01*
X158493396Y-101526010D01*
X158493867Y-101526261D01*
X158493873Y-101526265D01*
X158612256Y-101575301D01*
X158612260Y-101575301D01*
X158612261Y-101575302D01*
X158737928Y-101600300D01*
X158737931Y-101600300D01*
X158866071Y-101600300D01*
X158950615Y-101583482D01*
X158991744Y-101575301D01*
X159110127Y-101526265D01*
X159110134Y-101526259D01*
X159115494Y-101523396D01*
X159116366Y-101525027D01*
X159174785Y-101506735D01*
X159238124Y-101524110D01*
X159238506Y-101523396D01*
X159241653Y-101525078D01*
X159242165Y-101525219D01*
X159243396Y-101526010D01*
X159243867Y-101526261D01*
X159243873Y-101526265D01*
X159362256Y-101575301D01*
X159362260Y-101575301D01*
X159362261Y-101575302D01*
X159487928Y-101600300D01*
X159487931Y-101600300D01*
X159616071Y-101600300D01*
X159700615Y-101583482D01*
X159741744Y-101575301D01*
X159860127Y-101526265D01*
X159966669Y-101455076D01*
X160057276Y-101364469D01*
X160128465Y-101257927D01*
X160177501Y-101139544D01*
X160202500Y-101013869D01*
X160202500Y-100885731D01*
X160202500Y-100885728D01*
X160177502Y-100760061D01*
X160177501Y-100760060D01*
X160177501Y-100760056D01*
X160128465Y-100641673D01*
X160128462Y-100641669D01*
X160125596Y-100636306D01*
X160127227Y-100635433D01*
X160108935Y-100577015D01*
X160126310Y-100513675D01*
X160125596Y-100513294D01*
X160127278Y-100510146D01*
X160127419Y-100509635D01*
X160128210Y-100508403D01*
X160128459Y-100507934D01*
X160128465Y-100507927D01*
X160177501Y-100389544D01*
X160198271Y-100285131D01*
X160202500Y-100263871D01*
X160202500Y-100135728D01*
X160177502Y-100010061D01*
X160177501Y-100010060D01*
X160177501Y-100010056D01*
X160128465Y-99891673D01*
X160128462Y-99891669D01*
X160125596Y-99886306D01*
X160127227Y-99885433D01*
X160108935Y-99827015D01*
X160126310Y-99763675D01*
X160125596Y-99763294D01*
X160127278Y-99760146D01*
X160127419Y-99759635D01*
X160128210Y-99758403D01*
X160128459Y-99757934D01*
X160128465Y-99757927D01*
X160177501Y-99639544D01*
X160202500Y-99513869D01*
X160202500Y-99385731D01*
X160202500Y-99385728D01*
X160177502Y-99260061D01*
X160177501Y-99260060D01*
X160177501Y-99260056D01*
X160128465Y-99141673D01*
X160128464Y-99141672D01*
X160128461Y-99141666D01*
X160057276Y-99035131D01*
X160057273Y-99035127D01*
X159966672Y-98944526D01*
X159966668Y-98944523D01*
X159860133Y-98873338D01*
X159860124Y-98873333D01*
X159741744Y-98824299D01*
X159741738Y-98824297D01*
X159616071Y-98799300D01*
X159616069Y-98799300D01*
X159487931Y-98799300D01*
X159487929Y-98799300D01*
X159362261Y-98824297D01*
X159362255Y-98824299D01*
X159243875Y-98873333D01*
X159238498Y-98876208D01*
X159237627Y-98874578D01*
X159179187Y-98892864D01*
X159115888Y-98875484D01*
X159115502Y-98876208D01*
X159112310Y-98874502D01*
X159111811Y-98874365D01*
X159110611Y-98873594D01*
X159110124Y-98873333D01*
X158991744Y-98824299D01*
X158991738Y-98824297D01*
X158866071Y-98799300D01*
X158866069Y-98799300D01*
X158737931Y-98799300D01*
X158737929Y-98799300D01*
X158612261Y-98824297D01*
X158612255Y-98824299D01*
X158493875Y-98873333D01*
X158488498Y-98876208D01*
X158487627Y-98874578D01*
X158429187Y-98892864D01*
X158365888Y-98875484D01*
X158365502Y-98876208D01*
X158362310Y-98874502D01*
X158361811Y-98874365D01*
X158360611Y-98873594D01*
X158360124Y-98873333D01*
X158241744Y-98824299D01*
X158241738Y-98824297D01*
X158116071Y-98799300D01*
X158116069Y-98799300D01*
X157987931Y-98799300D01*
X157987929Y-98799300D01*
X157862261Y-98824297D01*
X157862255Y-98824299D01*
X157743875Y-98873333D01*
X157738498Y-98876208D01*
X157737627Y-98874578D01*
X157679187Y-98892864D01*
X157615888Y-98875484D01*
X157615502Y-98876208D01*
X157612310Y-98874502D01*
X157611811Y-98874365D01*
X157610611Y-98873594D01*
X157610124Y-98873333D01*
X157491744Y-98824299D01*
X157491738Y-98824297D01*
X157366071Y-98799300D01*
X157366069Y-98799300D01*
X157237931Y-98799300D01*
X157237929Y-98799300D01*
X157112261Y-98824297D01*
X157112255Y-98824299D01*
X156993875Y-98873333D01*
X156988498Y-98876208D01*
X156987627Y-98874578D01*
X156929187Y-98892864D01*
X156865888Y-98875484D01*
X156865502Y-98876208D01*
X156862310Y-98874502D01*
X156861811Y-98874365D01*
X156860611Y-98873594D01*
X156860124Y-98873333D01*
X156741744Y-98824299D01*
X156741738Y-98824297D01*
X156616071Y-98799300D01*
X156616069Y-98799300D01*
X156487931Y-98799300D01*
X156487929Y-98799300D01*
X156362261Y-98824297D01*
X156362255Y-98824299D01*
X156243875Y-98873333D01*
X156238498Y-98876208D01*
X156237627Y-98874578D01*
X156179187Y-98892864D01*
X156115888Y-98875484D01*
X156115502Y-98876208D01*
X156112310Y-98874502D01*
X156111811Y-98874365D01*
X156110611Y-98873594D01*
X156110124Y-98873333D01*
X155991744Y-98824299D01*
X155991738Y-98824297D01*
X155866071Y-98799300D01*
X155866069Y-98799300D01*
X155737931Y-98799300D01*
X155737929Y-98799300D01*
X155612261Y-98824297D01*
X155612255Y-98824299D01*
X155493875Y-98873333D01*
X155488498Y-98876208D01*
X155487627Y-98874578D01*
X155429187Y-98892864D01*
X155365888Y-98875484D01*
X155365502Y-98876208D01*
X155362310Y-98874502D01*
X155361811Y-98874365D01*
X155360611Y-98873594D01*
X155360124Y-98873333D01*
X155241744Y-98824299D01*
X155241738Y-98824297D01*
X155116071Y-98799300D01*
X155116069Y-98799300D01*
X154987931Y-98799300D01*
X154987929Y-98799300D01*
X154862261Y-98824297D01*
X154862255Y-98824299D01*
X154743875Y-98873333D01*
X154738498Y-98876208D01*
X154737627Y-98874578D01*
X154679187Y-98892864D01*
X154615888Y-98875484D01*
X154615502Y-98876208D01*
X154612310Y-98874502D01*
X154611811Y-98874365D01*
X154610611Y-98873594D01*
X154610124Y-98873333D01*
X154491744Y-98824299D01*
X154491738Y-98824297D01*
X154366071Y-98799300D01*
X154366069Y-98799300D01*
X154237931Y-98799300D01*
X154237929Y-98799300D01*
X154112261Y-98824297D01*
X154112255Y-98824299D01*
X153993875Y-98873333D01*
X153993866Y-98873338D01*
X153887331Y-98944523D01*
X153887327Y-98944526D01*
X153796726Y-99035127D01*
X153796723Y-99035131D01*
X153725538Y-99141666D01*
X153725533Y-99141675D01*
X153676499Y-99260055D01*
X153676497Y-99260061D01*
X153651500Y-99385728D01*
X153651500Y-99385731D01*
X153651500Y-99513869D01*
X153651500Y-99513871D01*
X153651499Y-99513871D01*
X153124493Y-99513871D01*
X153128465Y-99507927D01*
X153177501Y-99389544D01*
X153202500Y-99263869D01*
X153202500Y-99135731D01*
X153202500Y-99135728D01*
X153177502Y-99010061D01*
X153177501Y-99010060D01*
X153177501Y-99010056D01*
X153128465Y-98891673D01*
X153128462Y-98891669D01*
X153125596Y-98886306D01*
X153127227Y-98885433D01*
X153108935Y-98827015D01*
X153126310Y-98763675D01*
X153125596Y-98763294D01*
X153127278Y-98760146D01*
X153127419Y-98759635D01*
X153128210Y-98758403D01*
X153128459Y-98757934D01*
X153128465Y-98757927D01*
X153177501Y-98639544D01*
X153202500Y-98513869D01*
X153202500Y-98385731D01*
X153202500Y-98385728D01*
X153177502Y-98260061D01*
X153177501Y-98260060D01*
X153177501Y-98260056D01*
X153128465Y-98141673D01*
X153128462Y-98141669D01*
X153125596Y-98136306D01*
X153127227Y-98135433D01*
X153108935Y-98077015D01*
X153126310Y-98013675D01*
X153125596Y-98013294D01*
X153127278Y-98010146D01*
X153127419Y-98009635D01*
X153128210Y-98008403D01*
X153128459Y-98007934D01*
X153128465Y-98007927D01*
X153177501Y-97889544D01*
X153202500Y-97763869D01*
X153202500Y-97635731D01*
X153202500Y-97635728D01*
X153177502Y-97510061D01*
X153177501Y-97510060D01*
X153177501Y-97510056D01*
X153128465Y-97391673D01*
X153128464Y-97391672D01*
X153128461Y-97391666D01*
X153057276Y-97285131D01*
X153057273Y-97285127D01*
X152966672Y-97194526D01*
X152966668Y-97194523D01*
X152860133Y-97123338D01*
X152860124Y-97123333D01*
X152741744Y-97074299D01*
X152741738Y-97074297D01*
X152616071Y-97049300D01*
X152616069Y-97049300D01*
X152487931Y-97049300D01*
X152487929Y-97049300D01*
X152362261Y-97074297D01*
X152362255Y-97074299D01*
X152243875Y-97123333D01*
X152238498Y-97126208D01*
X152237627Y-97124578D01*
X152179187Y-97142864D01*
X152115888Y-97125484D01*
X152115502Y-97126208D01*
X152112310Y-97124502D01*
X152111811Y-97124365D01*
X152110611Y-97123594D01*
X152110124Y-97123333D01*
X151991744Y-97074299D01*
X151991738Y-97074297D01*
X151866071Y-97049300D01*
X151866069Y-97049300D01*
X151737931Y-97049300D01*
X151737929Y-97049300D01*
X151612261Y-97074297D01*
X151612255Y-97074299D01*
X151493875Y-97123333D01*
X151493866Y-97123338D01*
X151387331Y-97194523D01*
X151387327Y-97194526D01*
X151296726Y-97285127D01*
X151296723Y-97285131D01*
X151225538Y-97391666D01*
X151225533Y-97391675D01*
X151176499Y-97510055D01*
X151176497Y-97510061D01*
X151151500Y-97635728D01*
X151151500Y-97635731D01*
X151151500Y-97763869D01*
X151151500Y-97763871D01*
X151151499Y-97763871D01*
X151176497Y-97889538D01*
X151176499Y-97889544D01*
X151225533Y-98007924D01*
X151228408Y-98013302D01*
X151226778Y-98014172D01*
X151245064Y-98072613D01*
X151227684Y-98135911D01*
X151228408Y-98136298D01*
X151226702Y-98139489D01*
X151226565Y-98139989D01*
X151225794Y-98141188D01*
X151225533Y-98141675D01*
X151176499Y-98260055D01*
X151176497Y-98260061D01*
X151151500Y-98385728D01*
X151151500Y-98385731D01*
X151151500Y-98513869D01*
X151151500Y-98513871D01*
X151151499Y-98513871D01*
X151176497Y-98639538D01*
X151176499Y-98639544D01*
X151225533Y-98757924D01*
X151228408Y-98763302D01*
X151226778Y-98764172D01*
X151245064Y-98822613D01*
X151227684Y-98885911D01*
X151228408Y-98886298D01*
X151226702Y-98889489D01*
X151226565Y-98889989D01*
X151225794Y-98891188D01*
X151225533Y-98891675D01*
X151176499Y-99010055D01*
X151176497Y-99010061D01*
X151151500Y-99135728D01*
X151151500Y-99135731D01*
X151151500Y-99263869D01*
X151151500Y-99263871D01*
X151151499Y-99263871D01*
X151176497Y-99389538D01*
X151176499Y-99389544D01*
X151225533Y-99507924D01*
X151228408Y-99513302D01*
X151226778Y-99514172D01*
X151245064Y-99572613D01*
X151227684Y-99635911D01*
X151228408Y-99636298D01*
X151226702Y-99639489D01*
X151226565Y-99639989D01*
X151225794Y-99641188D01*
X151225533Y-99641675D01*
X151176499Y-99760055D01*
X151176497Y-99760061D01*
X151151500Y-99885728D01*
X151151500Y-99925300D01*
X151131815Y-99992339D01*
X151079011Y-100038094D01*
X151027500Y-100049300D01*
X150987929Y-100049300D01*
X150862261Y-100074297D01*
X150862255Y-100074299D01*
X150743875Y-100123333D01*
X150738498Y-100126208D01*
X150737627Y-100124578D01*
X150679187Y-100142864D01*
X150615888Y-100125484D01*
X150615502Y-100126208D01*
X150612310Y-100124502D01*
X150611811Y-100124365D01*
X150610611Y-100123594D01*
X150610124Y-100123333D01*
X150491744Y-100074299D01*
X150491738Y-100074297D01*
X150366071Y-100049300D01*
X150366069Y-100049300D01*
X150237931Y-100049300D01*
X150237929Y-100049300D01*
X150112261Y-100074297D01*
X150112255Y-100074299D01*
X149993875Y-100123333D01*
X149993866Y-100123338D01*
X149887331Y-100194523D01*
X149887327Y-100194526D01*
X149796726Y-100285127D01*
X149796723Y-100285131D01*
X149725538Y-100391666D01*
X149725533Y-100391675D01*
X149676499Y-100510055D01*
X149676497Y-100510061D01*
X149651500Y-100635728D01*
X149651500Y-100635731D01*
X149651500Y-100763869D01*
X149651500Y-100763871D01*
X149651499Y-100763871D01*
X98849500Y-100763871D01*
X98849500Y-91399800D01*
X150652000Y-91399800D01*
X150652000Y-94599800D01*
X151052000Y-94999800D01*
X155452000Y-94999800D01*
X155852000Y-94599800D01*
X155852000Y-91599800D01*
X155552000Y-91299800D01*
X150752000Y-91299800D01*
X150652000Y-91399800D01*
X98849500Y-91399800D01*
X98849500Y-90563871D01*
X130628999Y-90563871D01*
X130653997Y-90689538D01*
X130653999Y-90689544D01*
X130703033Y-90807924D01*
X130703038Y-90807933D01*
X130774223Y-90914468D01*
X130774226Y-90914472D01*
X130864827Y-91005073D01*
X130864831Y-91005076D01*
X130971366Y-91076261D01*
X130971372Y-91076264D01*
X130971373Y-91076265D01*
X131089756Y-91125301D01*
X131089760Y-91125301D01*
X131089761Y-91125302D01*
X131215428Y-91150300D01*
X131215431Y-91150300D01*
X131343571Y-91150300D01*
X131428115Y-91133482D01*
X131469244Y-91125301D01*
X131587627Y-91076265D01*
X131694169Y-91005076D01*
X131784776Y-90914469D01*
X131855965Y-90807927D01*
X131905001Y-90689544D01*
X131930000Y-90563871D01*
X142226499Y-90563871D01*
X142251497Y-90689538D01*
X142251499Y-90689544D01*
X142300533Y-90807924D01*
X142300538Y-90807933D01*
X142371723Y-90914468D01*
X142371726Y-90914472D01*
X142462327Y-91005073D01*
X142462331Y-91005076D01*
X142568866Y-91076261D01*
X142568872Y-91076264D01*
X142568873Y-91076265D01*
X142687256Y-91125301D01*
X142687260Y-91125301D01*
X142687261Y-91125302D01*
X142812928Y-91150300D01*
X142812931Y-91150300D01*
X142941071Y-91150300D01*
X143025615Y-91133482D01*
X143066744Y-91125301D01*
X143185127Y-91076265D01*
X143291669Y-91005076D01*
X143382276Y-90914469D01*
X143453465Y-90807927D01*
X143502501Y-90689544D01*
X143527500Y-90563869D01*
X143527500Y-90435731D01*
X143527500Y-90435728D01*
X143502502Y-90310061D01*
X143502501Y-90310060D01*
X143502501Y-90310056D01*
X143453465Y-90191673D01*
X143453464Y-90191672D01*
X143453461Y-90191666D01*
X143382276Y-90085131D01*
X143382273Y-90085127D01*
X143291672Y-89994526D01*
X143291668Y-89994523D01*
X143185133Y-89923338D01*
X143185124Y-89923333D01*
X143066744Y-89874299D01*
X143066738Y-89874297D01*
X142941071Y-89849300D01*
X142941069Y-89849300D01*
X142812931Y-89849300D01*
X142812929Y-89849300D01*
X142687261Y-89874297D01*
X142687255Y-89874299D01*
X142568875Y-89923333D01*
X142568866Y-89923338D01*
X142462331Y-89994523D01*
X142462327Y-89994526D01*
X142371726Y-90085127D01*
X142371723Y-90085131D01*
X142300538Y-90191666D01*
X142300533Y-90191675D01*
X142251499Y-90310055D01*
X142251497Y-90310061D01*
X142226500Y-90435728D01*
X142226500Y-90435731D01*
X142226500Y-90563869D01*
X142226500Y-90563871D01*
X142226499Y-90563871D01*
X131930000Y-90563871D01*
X131930000Y-90563869D01*
X131930000Y-90435731D01*
X131930000Y-90435728D01*
X131905002Y-90310061D01*
X131905001Y-90310060D01*
X131905001Y-90310056D01*
X131855965Y-90191673D01*
X131855964Y-90191672D01*
X131855961Y-90191666D01*
X131784776Y-90085131D01*
X131784773Y-90085127D01*
X131694172Y-89994526D01*
X131694168Y-89994523D01*
X131587633Y-89923338D01*
X131587624Y-89923333D01*
X131469244Y-89874299D01*
X131469238Y-89874297D01*
X131343571Y-89849300D01*
X131343569Y-89849300D01*
X131215431Y-89849300D01*
X131215429Y-89849300D01*
X131089761Y-89874297D01*
X131089755Y-89874299D01*
X130971375Y-89923333D01*
X130971366Y-89923338D01*
X130864831Y-89994523D01*
X130864827Y-89994526D01*
X130774226Y-90085127D01*
X130774223Y-90085131D01*
X130703038Y-90191666D01*
X130703033Y-90191675D01*
X130653999Y-90310055D01*
X130653997Y-90310061D01*
X130629000Y-90435728D01*
X130629000Y-90435731D01*
X130629000Y-90563869D01*
X130629000Y-90563871D01*
X130628999Y-90563871D01*
X98849500Y-90563871D01*
X98849500Y-87757285D01*
X160310198Y-87757285D01*
X160402968Y-87804555D01*
X160597582Y-87867790D01*
X160799683Y-87899800D01*
X161004317Y-87899800D01*
X161206417Y-87867790D01*
X161401031Y-87804555D01*
X161493801Y-87757285D01*
X160902001Y-87165485D01*
X160902000Y-87165485D01*
X160310198Y-87757285D01*
X98849500Y-87757285D01*
X98849500Y-87257285D01*
X101910198Y-87257285D01*
X102002968Y-87304555D01*
X102197582Y-87367790D01*
X102399683Y-87399800D01*
X102604317Y-87399800D01*
X102806417Y-87367790D01*
X103001031Y-87304555D01*
X103093801Y-87257285D01*
X102502001Y-86665485D01*
X102502000Y-86665485D01*
X101910198Y-87257285D01*
X98849500Y-87257285D01*
X98849500Y-85997482D01*
X101202000Y-85997482D01*
X101202000Y-86202117D01*
X101234009Y-86404217D01*
X101297243Y-86598827D01*
X101297246Y-86598834D01*
X101344512Y-86691601D01*
X101936314Y-86099800D01*
X101936314Y-86099799D01*
X101870489Y-86033974D01*
X102002000Y-86033974D01*
X102002000Y-86165626D01*
X102036075Y-86292793D01*
X102101901Y-86406807D01*
X102194993Y-86499899D01*
X102309007Y-86565725D01*
X102436174Y-86599800D01*
X102567826Y-86599800D01*
X102694993Y-86565725D01*
X102809007Y-86499899D01*
X102902099Y-86406807D01*
X102967925Y-86292793D01*
X103002000Y-86165626D01*
X103002000Y-86099799D01*
X103067685Y-86099799D01*
X103067685Y-86099800D01*
X103659485Y-86691600D01*
X103706755Y-86598831D01*
X103769990Y-86404217D01*
X103802000Y-86202117D01*
X103802000Y-85997482D01*
X103769990Y-85795382D01*
X103706755Y-85600768D01*
X103659485Y-85507998D01*
X103067685Y-86099799D01*
X103002000Y-86099799D01*
X103002000Y-86033974D01*
X102967925Y-85906807D01*
X102902099Y-85792793D01*
X102809007Y-85699701D01*
X102694993Y-85633875D01*
X102567826Y-85599800D01*
X102436174Y-85599800D01*
X102309007Y-85633875D01*
X102194993Y-85699701D01*
X102101901Y-85792793D01*
X102036075Y-85906807D01*
X102002000Y-86033974D01*
X101870489Y-86033974D01*
X101344512Y-85507997D01*
X101297242Y-85600773D01*
X101297242Y-85600774D01*
X101234013Y-85795371D01*
X101234010Y-85795381D01*
X101202000Y-85997482D01*
X98849500Y-85997482D01*
X98849500Y-84942312D01*
X101910197Y-84942312D01*
X102502000Y-85534114D01*
X102502001Y-85534114D01*
X102732243Y-85303871D01*
X105651499Y-85303871D01*
X105676497Y-85429538D01*
X105676499Y-85429544D01*
X105725533Y-85547924D01*
X105728408Y-85553302D01*
X105726778Y-85554172D01*
X105745064Y-85612613D01*
X105727684Y-85675911D01*
X105728408Y-85676298D01*
X105726702Y-85679489D01*
X105726565Y-85679989D01*
X105725794Y-85681188D01*
X105725533Y-85681675D01*
X105676499Y-85800055D01*
X105676497Y-85800061D01*
X105651500Y-85925728D01*
X105651500Y-85925731D01*
X105651500Y-86053869D01*
X105651500Y-86053871D01*
X105651499Y-86053871D01*
X105676497Y-86179538D01*
X105676499Y-86179544D01*
X105725533Y-86297924D01*
X105728408Y-86303302D01*
X105726778Y-86304172D01*
X105745064Y-86362613D01*
X105727684Y-86425911D01*
X105728408Y-86426298D01*
X105726702Y-86429489D01*
X105726565Y-86429989D01*
X105725794Y-86431188D01*
X105725533Y-86431675D01*
X105676499Y-86550055D01*
X105676497Y-86550061D01*
X105651500Y-86675728D01*
X105651500Y-86675731D01*
X105651500Y-86803869D01*
X105651500Y-86803871D01*
X105651499Y-86803871D01*
X105676497Y-86929538D01*
X105676499Y-86929544D01*
X105725533Y-87047924D01*
X105725538Y-87047933D01*
X105796723Y-87154468D01*
X105796726Y-87154472D01*
X105887327Y-87245073D01*
X105887331Y-87245076D01*
X105993866Y-87316261D01*
X105993872Y-87316264D01*
X105993873Y-87316265D01*
X106112256Y-87365301D01*
X106112260Y-87365301D01*
X106112261Y-87365302D01*
X106237928Y-87390300D01*
X106237931Y-87390300D01*
X106366071Y-87390300D01*
X106479231Y-87367790D01*
X106491744Y-87365301D01*
X106610127Y-87316265D01*
X106610134Y-87316259D01*
X106615494Y-87313396D01*
X106616366Y-87315027D01*
X106674785Y-87296735D01*
X106738124Y-87314110D01*
X106738506Y-87313396D01*
X106741653Y-87315078D01*
X106742165Y-87315219D01*
X106743396Y-87316010D01*
X106743867Y-87316261D01*
X106743873Y-87316265D01*
X106862256Y-87365301D01*
X106862260Y-87365301D01*
X106862261Y-87365302D01*
X106987928Y-87390300D01*
X106987931Y-87390300D01*
X107116071Y-87390300D01*
X107229231Y-87367790D01*
X107241744Y-87365301D01*
X107360127Y-87316265D01*
X107360134Y-87316259D01*
X107365494Y-87313396D01*
X107366366Y-87315027D01*
X107424785Y-87296735D01*
X107488124Y-87314110D01*
X107488506Y-87313396D01*
X107491653Y-87315078D01*
X107492165Y-87315219D01*
X107493396Y-87316010D01*
X107493867Y-87316261D01*
X107493873Y-87316265D01*
X107612256Y-87365301D01*
X107612260Y-87365301D01*
X107612261Y-87365302D01*
X107737928Y-87390300D01*
X107737931Y-87390300D01*
X107866071Y-87390300D01*
X107979231Y-87367790D01*
X107991744Y-87365301D01*
X108110127Y-87316265D01*
X108110134Y-87316259D01*
X108115494Y-87313396D01*
X108116366Y-87315027D01*
X108174785Y-87296735D01*
X108238124Y-87314110D01*
X108238506Y-87313396D01*
X108241653Y-87315078D01*
X108242165Y-87315219D01*
X108243396Y-87316010D01*
X108243867Y-87316261D01*
X108243873Y-87316265D01*
X108362256Y-87365301D01*
X108362260Y-87365301D01*
X108362261Y-87365302D01*
X108487928Y-87390300D01*
X108487931Y-87390300D01*
X108616071Y-87390300D01*
X108729231Y-87367790D01*
X108741744Y-87365301D01*
X108860127Y-87316265D01*
X108860134Y-87316259D01*
X108865494Y-87313396D01*
X108866366Y-87315027D01*
X108924785Y-87296735D01*
X108988124Y-87314110D01*
X108988506Y-87313396D01*
X108991653Y-87315078D01*
X108992165Y-87315219D01*
X108993396Y-87316010D01*
X108993867Y-87316261D01*
X108993873Y-87316265D01*
X109112256Y-87365301D01*
X109112260Y-87365301D01*
X109112261Y-87365302D01*
X109237928Y-87390300D01*
X109237931Y-87390300D01*
X109366071Y-87390300D01*
X109479231Y-87367790D01*
X109491744Y-87365301D01*
X109610127Y-87316265D01*
X109716669Y-87245076D01*
X109807276Y-87154469D01*
X109878465Y-87047927D01*
X109927501Y-86929544D01*
X109952500Y-86803869D01*
X109952500Y-86675731D01*
X109952500Y-86675728D01*
X109927502Y-86550061D01*
X109927501Y-86550060D01*
X109927501Y-86550056D01*
X109878465Y-86431673D01*
X109878462Y-86431669D01*
X109875596Y-86426306D01*
X109877227Y-86425433D01*
X109858935Y-86367015D01*
X109876310Y-86303675D01*
X109875596Y-86303294D01*
X109877278Y-86300146D01*
X109877419Y-86299635D01*
X109878210Y-86298403D01*
X109878459Y-86297934D01*
X109878465Y-86297927D01*
X109927501Y-86179544D01*
X109945907Y-86087015D01*
X109952500Y-86053871D01*
X109952500Y-85925728D01*
X109927502Y-85800061D01*
X109927501Y-85800060D01*
X109927501Y-85800056D01*
X109878465Y-85681673D01*
X109878462Y-85681669D01*
X109875596Y-85676306D01*
X109877227Y-85675433D01*
X109858935Y-85617015D01*
X109876310Y-85553675D01*
X109875596Y-85553294D01*
X109877278Y-85550146D01*
X109877419Y-85549635D01*
X109878210Y-85548403D01*
X109878459Y-85547934D01*
X109878465Y-85547927D01*
X109927501Y-85429544D01*
X109939865Y-85367389D01*
X109952500Y-85303871D01*
X109952500Y-85175728D01*
X109927502Y-85050061D01*
X109927501Y-85050060D01*
X109927501Y-85050056D01*
X109916655Y-85023871D01*
X116841499Y-85023871D01*
X116866497Y-85149538D01*
X116866499Y-85149544D01*
X116915533Y-85267924D01*
X116918408Y-85273302D01*
X116916778Y-85274172D01*
X116935064Y-85332613D01*
X116917684Y-85395911D01*
X116918408Y-85396298D01*
X116916702Y-85399489D01*
X116916565Y-85399989D01*
X116915794Y-85401188D01*
X116915533Y-85401675D01*
X116866499Y-85520055D01*
X116866497Y-85520061D01*
X116841500Y-85645728D01*
X116841500Y-85645731D01*
X116841500Y-85773869D01*
X116841500Y-85773871D01*
X116841499Y-85773871D01*
X116866497Y-85899538D01*
X116866499Y-85899544D01*
X116915533Y-86017924D01*
X116918408Y-86023302D01*
X116916778Y-86024172D01*
X116935064Y-86082613D01*
X116917684Y-86145911D01*
X116918408Y-86146298D01*
X116916702Y-86149489D01*
X116916565Y-86149989D01*
X116915794Y-86151188D01*
X116915533Y-86151675D01*
X116866499Y-86270055D01*
X116866497Y-86270061D01*
X116841500Y-86395728D01*
X116841500Y-86395731D01*
X116841500Y-86523869D01*
X116841500Y-86523871D01*
X116841499Y-86523871D01*
X116866497Y-86649538D01*
X116866499Y-86649544D01*
X116915533Y-86767924D01*
X116915538Y-86767933D01*
X116986723Y-86874468D01*
X116986726Y-86874472D01*
X117077327Y-86965073D01*
X117077331Y-86965076D01*
X117183866Y-87036261D01*
X117183872Y-87036264D01*
X117183873Y-87036265D01*
X117302256Y-87085301D01*
X117302260Y-87085301D01*
X117302261Y-87085302D01*
X117427928Y-87110300D01*
X117427931Y-87110300D01*
X117556071Y-87110300D01*
X117640615Y-87093482D01*
X117681744Y-87085301D01*
X117800127Y-87036265D01*
X117800134Y-87036259D01*
X117805494Y-87033396D01*
X117806366Y-87035027D01*
X117864785Y-87016735D01*
X117928124Y-87034110D01*
X117928506Y-87033396D01*
X117931653Y-87035078D01*
X117932165Y-87035219D01*
X117933396Y-87036010D01*
X117933867Y-87036261D01*
X117933873Y-87036265D01*
X118052256Y-87085301D01*
X118052260Y-87085301D01*
X118052261Y-87085302D01*
X118177928Y-87110300D01*
X118177931Y-87110300D01*
X118306071Y-87110300D01*
X118390615Y-87093482D01*
X118431744Y-87085301D01*
X118550127Y-87036265D01*
X118550134Y-87036259D01*
X118555494Y-87033396D01*
X118556366Y-87035027D01*
X118614785Y-87016735D01*
X118678124Y-87034110D01*
X118678506Y-87033396D01*
X118681653Y-87035078D01*
X118682165Y-87035219D01*
X118683396Y-87036010D01*
X118683867Y-87036261D01*
X118683873Y-87036265D01*
X118802256Y-87085301D01*
X118802260Y-87085301D01*
X118802261Y-87085302D01*
X118927928Y-87110300D01*
X118927931Y-87110300D01*
X119056071Y-87110300D01*
X119140615Y-87093482D01*
X119181744Y-87085301D01*
X119300127Y-87036265D01*
X119300134Y-87036259D01*
X119305494Y-87033396D01*
X119306366Y-87035027D01*
X119364785Y-87016735D01*
X119428124Y-87034110D01*
X119428506Y-87033396D01*
X119431653Y-87035078D01*
X119432165Y-87035219D01*
X119433396Y-87036010D01*
X119433867Y-87036261D01*
X119433873Y-87036265D01*
X119552256Y-87085301D01*
X119552260Y-87085301D01*
X119552261Y-87085302D01*
X119677928Y-87110300D01*
X119677931Y-87110300D01*
X119806071Y-87110300D01*
X119890615Y-87093482D01*
X119931744Y-87085301D01*
X120050127Y-87036265D01*
X120050134Y-87036259D01*
X120055494Y-87033396D01*
X120056366Y-87035027D01*
X120114785Y-87016735D01*
X120178124Y-87034110D01*
X120178506Y-87033396D01*
X120181653Y-87035078D01*
X120182165Y-87035219D01*
X120183396Y-87036010D01*
X120183867Y-87036261D01*
X120183873Y-87036265D01*
X120302256Y-87085301D01*
X120302260Y-87085301D01*
X120302261Y-87085302D01*
X120427928Y-87110300D01*
X120427931Y-87110300D01*
X120556071Y-87110300D01*
X120640615Y-87093482D01*
X120681744Y-87085301D01*
X120800127Y-87036265D01*
X120906669Y-86965076D01*
X120997276Y-86874469D01*
X121068465Y-86767927D01*
X121117501Y-86649544D01*
X121142500Y-86523869D01*
X121142500Y-86395731D01*
X121142500Y-86395728D01*
X121117502Y-86270061D01*
X121117501Y-86270060D01*
X121117501Y-86270056D01*
X121068465Y-86151673D01*
X121068462Y-86151669D01*
X121065596Y-86146306D01*
X121067227Y-86145433D01*
X121048935Y-86087015D01*
X121066310Y-86023675D01*
X121065596Y-86023294D01*
X121067278Y-86020146D01*
X121067419Y-86019635D01*
X121068210Y-86018403D01*
X121068459Y-86017934D01*
X121068465Y-86017927D01*
X121117501Y-85899544D01*
X121142500Y-85773869D01*
X121142500Y-85645731D01*
X121142500Y-85645728D01*
X121117502Y-85520061D01*
X121117501Y-85520060D01*
X121117501Y-85520056D01*
X121068465Y-85401673D01*
X121068462Y-85401669D01*
X121065596Y-85396306D01*
X121067227Y-85395433D01*
X121048935Y-85337015D01*
X121066310Y-85273675D01*
X121065596Y-85273294D01*
X121067278Y-85270146D01*
X121067419Y-85269635D01*
X121068210Y-85268403D01*
X121068459Y-85267934D01*
X121068465Y-85267927D01*
X121117501Y-85149544D01*
X121128445Y-85094526D01*
X121142500Y-85023871D01*
X121142500Y-85013871D01*
X127303999Y-85013871D01*
X127328997Y-85139538D01*
X127328999Y-85139544D01*
X127378033Y-85257924D01*
X127380908Y-85263302D01*
X127379278Y-85264172D01*
X127397564Y-85322613D01*
X127380184Y-85385911D01*
X127380908Y-85386298D01*
X127379202Y-85389489D01*
X127379065Y-85389989D01*
X127378294Y-85391188D01*
X127378033Y-85391675D01*
X127328999Y-85510055D01*
X127328997Y-85510061D01*
X127304000Y-85635728D01*
X127304000Y-85635731D01*
X127304000Y-85763869D01*
X127304000Y-85763871D01*
X127303999Y-85763871D01*
X127328997Y-85889538D01*
X127328999Y-85889544D01*
X127378033Y-86007924D01*
X127380908Y-86013302D01*
X127379278Y-86014172D01*
X127397564Y-86072613D01*
X127380184Y-86135911D01*
X127380908Y-86136298D01*
X127379202Y-86139489D01*
X127379065Y-86139989D01*
X127378294Y-86141188D01*
X127378033Y-86141675D01*
X127328999Y-86260055D01*
X127328997Y-86260061D01*
X127304000Y-86385728D01*
X127304000Y-86385731D01*
X127304000Y-86513869D01*
X127304000Y-86513871D01*
X127303999Y-86513871D01*
X127328997Y-86639538D01*
X127328999Y-86639544D01*
X127378033Y-86757924D01*
X127378038Y-86757933D01*
X127449223Y-86864468D01*
X127449226Y-86864472D01*
X127539827Y-86955073D01*
X127539831Y-86955076D01*
X127646366Y-87026261D01*
X127646372Y-87026264D01*
X127646373Y-87026265D01*
X127764756Y-87075301D01*
X127764760Y-87075301D01*
X127764761Y-87075302D01*
X127890428Y-87100300D01*
X127890431Y-87100300D01*
X128018571Y-87100300D01*
X128103115Y-87083482D01*
X128144244Y-87075301D01*
X128262627Y-87026265D01*
X128262634Y-87026259D01*
X128267994Y-87023396D01*
X128268866Y-87025027D01*
X128327285Y-87006735D01*
X128390624Y-87024110D01*
X128391006Y-87023396D01*
X128394153Y-87025078D01*
X128394665Y-87025219D01*
X128395896Y-87026010D01*
X128396367Y-87026261D01*
X128396373Y-87026265D01*
X128514756Y-87075301D01*
X128514760Y-87075301D01*
X128514761Y-87075302D01*
X128640428Y-87100300D01*
X128640431Y-87100300D01*
X128768571Y-87100300D01*
X128853115Y-87083482D01*
X128894244Y-87075301D01*
X129012627Y-87026265D01*
X129012634Y-87026259D01*
X129017994Y-87023396D01*
X129018866Y-87025027D01*
X129077285Y-87006735D01*
X129140624Y-87024110D01*
X129141006Y-87023396D01*
X129144153Y-87025078D01*
X129144665Y-87025219D01*
X129145896Y-87026010D01*
X129146367Y-87026261D01*
X129146373Y-87026265D01*
X129264756Y-87075301D01*
X129264760Y-87075301D01*
X129264761Y-87075302D01*
X129390428Y-87100300D01*
X129390431Y-87100300D01*
X129518571Y-87100300D01*
X129603115Y-87083482D01*
X129644244Y-87075301D01*
X129762627Y-87026265D01*
X129762634Y-87026259D01*
X129767994Y-87023396D01*
X129768866Y-87025027D01*
X129827285Y-87006735D01*
X129890624Y-87024110D01*
X129891006Y-87023396D01*
X129894153Y-87025078D01*
X129894665Y-87025219D01*
X129895896Y-87026010D01*
X129896367Y-87026261D01*
X129896373Y-87026265D01*
X130014756Y-87075301D01*
X130014760Y-87075301D01*
X130014761Y-87075302D01*
X130140428Y-87100300D01*
X130140431Y-87100300D01*
X130268571Y-87100300D01*
X130353115Y-87083482D01*
X130394244Y-87075301D01*
X130512627Y-87026265D01*
X130512634Y-87026259D01*
X130517994Y-87023396D01*
X130518866Y-87025027D01*
X130577285Y-87006735D01*
X130640624Y-87024110D01*
X130641006Y-87023396D01*
X130644153Y-87025078D01*
X130644665Y-87025219D01*
X130645896Y-87026010D01*
X130646367Y-87026261D01*
X130646373Y-87026265D01*
X130764756Y-87075301D01*
X130764760Y-87075301D01*
X130764761Y-87075302D01*
X130890428Y-87100300D01*
X130890431Y-87100300D01*
X131018571Y-87100300D01*
X131103115Y-87083482D01*
X131144244Y-87075301D01*
X131262627Y-87026265D01*
X131369169Y-86955076D01*
X131459776Y-86864469D01*
X131530965Y-86757927D01*
X131580001Y-86639544D01*
X131601001Y-86533974D01*
X131605000Y-86513871D01*
X131605000Y-86385728D01*
X131580002Y-86260061D01*
X131580001Y-86260060D01*
X131580001Y-86260056D01*
X131530965Y-86141673D01*
X131530962Y-86141669D01*
X131528096Y-86136306D01*
X131529727Y-86135433D01*
X131511435Y-86077015D01*
X131528810Y-86013675D01*
X131528096Y-86013294D01*
X131529778Y-86010146D01*
X131529919Y-86009635D01*
X131530710Y-86008403D01*
X131530959Y-86007934D01*
X131530965Y-86007927D01*
X131580001Y-85889544D01*
X131599894Y-85789538D01*
X131605000Y-85763871D01*
X131605000Y-85635728D01*
X131580002Y-85510061D01*
X131580001Y-85510060D01*
X131580001Y-85510056D01*
X131530965Y-85391673D01*
X131530962Y-85391669D01*
X131528096Y-85386306D01*
X131529727Y-85385433D01*
X131511435Y-85327015D01*
X131528810Y-85263675D01*
X131528096Y-85263294D01*
X131529778Y-85260146D01*
X131529919Y-85259635D01*
X131530710Y-85258403D01*
X131530959Y-85257934D01*
X131530965Y-85257927D01*
X131580001Y-85139544D01*
X131597803Y-85050051D01*
X131605000Y-85013871D01*
X138901499Y-85013871D01*
X138926497Y-85139538D01*
X138926499Y-85139544D01*
X138975533Y-85257924D01*
X138978408Y-85263302D01*
X138976778Y-85264172D01*
X138995064Y-85322613D01*
X138977684Y-85385911D01*
X138978408Y-85386298D01*
X138976702Y-85389489D01*
X138976565Y-85389989D01*
X138975794Y-85391188D01*
X138975533Y-85391675D01*
X138926499Y-85510055D01*
X138926497Y-85510061D01*
X138901500Y-85635728D01*
X138901500Y-85635731D01*
X138901500Y-85763869D01*
X138901500Y-85763871D01*
X138901499Y-85763871D01*
X138926497Y-85889538D01*
X138926499Y-85889544D01*
X138975533Y-86007924D01*
X138978408Y-86013302D01*
X138976778Y-86014172D01*
X138995064Y-86072613D01*
X138977684Y-86135911D01*
X138978408Y-86136298D01*
X138976702Y-86139489D01*
X138976565Y-86139989D01*
X138975794Y-86141188D01*
X138975533Y-86141675D01*
X138926499Y-86260055D01*
X138926497Y-86260061D01*
X138901500Y-86385728D01*
X138901500Y-86385731D01*
X138901500Y-86513869D01*
X138901500Y-86513871D01*
X138901499Y-86513871D01*
X138926497Y-86639538D01*
X138926499Y-86639544D01*
X138975533Y-86757924D01*
X138975538Y-86757933D01*
X139046723Y-86864468D01*
X139046726Y-86864472D01*
X139137327Y-86955073D01*
X139137331Y-86955076D01*
X139243866Y-87026261D01*
X139243872Y-87026264D01*
X139243873Y-87026265D01*
X139362256Y-87075301D01*
X139362260Y-87075301D01*
X139362261Y-87075302D01*
X139487928Y-87100300D01*
X139487931Y-87100300D01*
X139616071Y-87100300D01*
X139700615Y-87083482D01*
X139741744Y-87075301D01*
X139860127Y-87026265D01*
X139860134Y-87026259D01*
X139865494Y-87023396D01*
X139866366Y-87025027D01*
X139924785Y-87006735D01*
X139988124Y-87024110D01*
X139988506Y-87023396D01*
X139991653Y-87025078D01*
X139992165Y-87025219D01*
X139993396Y-87026010D01*
X139993867Y-87026261D01*
X139993873Y-87026265D01*
X140112256Y-87075301D01*
X140112260Y-87075301D01*
X140112261Y-87075302D01*
X140237928Y-87100300D01*
X140237931Y-87100300D01*
X140366071Y-87100300D01*
X140450615Y-87083482D01*
X140491744Y-87075301D01*
X140610127Y-87026265D01*
X140610134Y-87026259D01*
X140615494Y-87023396D01*
X140616366Y-87025027D01*
X140674785Y-87006735D01*
X140738124Y-87024110D01*
X140738506Y-87023396D01*
X140741653Y-87025078D01*
X140742165Y-87025219D01*
X140743396Y-87026010D01*
X140743867Y-87026261D01*
X140743873Y-87026265D01*
X140862256Y-87075301D01*
X140862260Y-87075301D01*
X140862261Y-87075302D01*
X140987928Y-87100300D01*
X140987931Y-87100300D01*
X141116071Y-87100300D01*
X141200615Y-87083482D01*
X141241744Y-87075301D01*
X141360127Y-87026265D01*
X141360134Y-87026259D01*
X141365494Y-87023396D01*
X141366366Y-87025027D01*
X141424785Y-87006735D01*
X141488124Y-87024110D01*
X141488506Y-87023396D01*
X141491653Y-87025078D01*
X141492165Y-87025219D01*
X141493396Y-87026010D01*
X141493867Y-87026261D01*
X141493873Y-87026265D01*
X141612256Y-87075301D01*
X141612260Y-87075301D01*
X141612261Y-87075302D01*
X141737928Y-87100300D01*
X141737931Y-87100300D01*
X141866071Y-87100300D01*
X141950615Y-87083482D01*
X141991744Y-87075301D01*
X142110127Y-87026265D01*
X142110134Y-87026259D01*
X142115494Y-87023396D01*
X142116366Y-87025027D01*
X142174785Y-87006735D01*
X142238124Y-87024110D01*
X142238506Y-87023396D01*
X142241653Y-87025078D01*
X142242165Y-87025219D01*
X142243396Y-87026010D01*
X142243867Y-87026261D01*
X142243873Y-87026265D01*
X142362256Y-87075301D01*
X142362260Y-87075301D01*
X142362261Y-87075302D01*
X142487928Y-87100300D01*
X142487931Y-87100300D01*
X142616071Y-87100300D01*
X142700615Y-87083482D01*
X142741744Y-87075301D01*
X142860127Y-87026265D01*
X142966669Y-86955076D01*
X143057276Y-86864469D01*
X143128465Y-86757927D01*
X143177501Y-86639544D01*
X143198501Y-86533974D01*
X143202500Y-86513871D01*
X143202500Y-86497482D01*
X159602000Y-86497482D01*
X159602000Y-86702117D01*
X159634009Y-86904217D01*
X159697243Y-87098827D01*
X159697246Y-87098834D01*
X159744512Y-87191601D01*
X160336314Y-86599800D01*
X160336314Y-86599799D01*
X160270489Y-86533974D01*
X160402000Y-86533974D01*
X160402000Y-86665626D01*
X160436075Y-86792793D01*
X160501901Y-86906807D01*
X160594993Y-86999899D01*
X160709007Y-87065725D01*
X160836174Y-87099800D01*
X160967826Y-87099800D01*
X161094993Y-87065725D01*
X161209007Y-86999899D01*
X161302099Y-86906807D01*
X161367925Y-86792793D01*
X161402000Y-86665626D01*
X161402000Y-86599799D01*
X161467685Y-86599799D01*
X161467685Y-86599800D01*
X162059485Y-87191600D01*
X162106755Y-87098831D01*
X162169990Y-86904217D01*
X162202000Y-86702117D01*
X162202000Y-86497482D01*
X162169990Y-86295382D01*
X162106755Y-86100768D01*
X162059485Y-86007998D01*
X161467685Y-86599799D01*
X161402000Y-86599799D01*
X161402000Y-86533974D01*
X161367925Y-86406807D01*
X161302099Y-86292793D01*
X161209007Y-86199701D01*
X161094993Y-86133875D01*
X160967826Y-86099800D01*
X160836174Y-86099800D01*
X160709007Y-86133875D01*
X160594993Y-86199701D01*
X160501901Y-86292793D01*
X160436075Y-86406807D01*
X160402000Y-86533974D01*
X160270489Y-86533974D01*
X159744512Y-86007997D01*
X159697242Y-86100773D01*
X159697242Y-86100774D01*
X159634010Y-86295378D01*
X159634010Y-86295381D01*
X159602000Y-86497482D01*
X143202500Y-86497482D01*
X143202500Y-86385728D01*
X143177502Y-86260061D01*
X143177501Y-86260060D01*
X143177501Y-86260056D01*
X143128465Y-86141673D01*
X143128462Y-86141669D01*
X143125596Y-86136306D01*
X143127227Y-86135433D01*
X143108935Y-86077015D01*
X143126310Y-86013675D01*
X143125596Y-86013294D01*
X143127278Y-86010146D01*
X143127419Y-86009635D01*
X143128210Y-86008403D01*
X143128459Y-86007934D01*
X143128465Y-86007927D01*
X143177501Y-85889544D01*
X143197394Y-85789538D01*
X143202500Y-85763871D01*
X143202500Y-85663871D01*
X150771499Y-85663871D01*
X150796497Y-85789538D01*
X150796499Y-85789544D01*
X150845533Y-85907924D01*
X150845538Y-85907933D01*
X150916723Y-86014468D01*
X150916726Y-86014472D01*
X151007327Y-86105073D01*
X151007331Y-86105076D01*
X151113866Y-86176261D01*
X151113875Y-86176266D01*
X151121789Y-86179544D01*
X151232256Y-86225301D01*
X151232260Y-86225301D01*
X151232261Y-86225302D01*
X151357928Y-86250300D01*
X151357931Y-86250300D01*
X151486071Y-86250300D01*
X151570615Y-86233482D01*
X151611744Y-86225301D01*
X151730127Y-86176265D01*
X151836669Y-86105076D01*
X151927276Y-86014469D01*
X151998465Y-85907927D01*
X152047501Y-85789544D01*
X152055682Y-85748415D01*
X152072500Y-85663871D01*
X152072500Y-85535732D01*
X152067284Y-85509509D01*
X152067284Y-85509506D01*
X152053917Y-85442312D01*
X160310197Y-85442312D01*
X160902000Y-86034114D01*
X160902001Y-86034114D01*
X161493801Y-85442312D01*
X161401034Y-85395046D01*
X161401027Y-85395043D01*
X161206417Y-85331809D01*
X161004317Y-85299800D01*
X160799683Y-85299800D01*
X160597581Y-85331810D01*
X160597578Y-85331810D01*
X160402974Y-85395042D01*
X160402973Y-85395042D01*
X160310197Y-85442312D01*
X152053917Y-85442312D01*
X152047502Y-85410061D01*
X152047501Y-85410060D01*
X152047501Y-85410056D01*
X151998465Y-85291673D01*
X151998464Y-85291672D01*
X151998461Y-85291666D01*
X151927276Y-85185131D01*
X151927273Y-85185127D01*
X151836672Y-85094526D01*
X151836668Y-85094523D01*
X151730133Y-85023338D01*
X151730124Y-85023333D01*
X151611744Y-84974299D01*
X151611738Y-84974297D01*
X151486071Y-84949300D01*
X151486069Y-84949300D01*
X151357931Y-84949300D01*
X151357929Y-84949300D01*
X151232261Y-84974297D01*
X151232255Y-84974299D01*
X151113875Y-85023333D01*
X151113866Y-85023338D01*
X151007331Y-85094523D01*
X151007327Y-85094526D01*
X150916726Y-85185127D01*
X150916723Y-85185131D01*
X150845538Y-85291666D01*
X150845533Y-85291675D01*
X150796499Y-85410055D01*
X150796497Y-85410061D01*
X150771500Y-85535728D01*
X150771500Y-85535731D01*
X150771500Y-85663869D01*
X150771500Y-85663871D01*
X150771499Y-85663871D01*
X143202500Y-85663871D01*
X143202500Y-85635728D01*
X143188078Y-85563231D01*
X143177501Y-85510056D01*
X143128465Y-85391673D01*
X143121559Y-85381337D01*
X143116458Y-85367389D01*
X143115114Y-85346749D01*
X143108935Y-85327015D01*
X143112891Y-85312592D01*
X143111920Y-85297667D01*
X143121948Y-85279578D01*
X143126310Y-85263675D01*
X143125596Y-85263294D01*
X143127278Y-85260146D01*
X143127419Y-85259635D01*
X143128210Y-85258403D01*
X143128459Y-85257934D01*
X143128465Y-85257927D01*
X143177501Y-85139544D01*
X143195303Y-85050051D01*
X143202500Y-85013871D01*
X143202500Y-84885728D01*
X143177502Y-84760061D01*
X143177501Y-84760060D01*
X143177501Y-84760056D01*
X143128465Y-84641673D01*
X143128464Y-84641672D01*
X143128461Y-84641666D01*
X143057276Y-84535131D01*
X143057273Y-84535127D01*
X142966672Y-84444526D01*
X142966668Y-84444523D01*
X142860133Y-84373338D01*
X142860124Y-84373333D01*
X142741744Y-84324299D01*
X142741738Y-84324297D01*
X142616071Y-84299300D01*
X142616069Y-84299300D01*
X142487931Y-84299300D01*
X142487929Y-84299300D01*
X142362261Y-84324297D01*
X142362255Y-84324299D01*
X142243875Y-84373333D01*
X142238498Y-84376208D01*
X142237627Y-84374578D01*
X142179187Y-84392864D01*
X142115888Y-84375484D01*
X142115502Y-84376208D01*
X142112310Y-84374502D01*
X142111811Y-84374365D01*
X142110611Y-84373594D01*
X142110124Y-84373333D01*
X141991744Y-84324299D01*
X141991738Y-84324297D01*
X141866071Y-84299300D01*
X141866069Y-84299300D01*
X141737931Y-84299300D01*
X141737929Y-84299300D01*
X141612261Y-84324297D01*
X141612255Y-84324299D01*
X141493875Y-84373333D01*
X141488498Y-84376208D01*
X141487627Y-84374578D01*
X141429187Y-84392864D01*
X141365888Y-84375484D01*
X141365502Y-84376208D01*
X141362310Y-84374502D01*
X141361811Y-84374365D01*
X141360611Y-84373594D01*
X141360124Y-84373333D01*
X141241744Y-84324299D01*
X141241738Y-84324297D01*
X141116071Y-84299300D01*
X141116069Y-84299300D01*
X140987931Y-84299300D01*
X140987929Y-84299300D01*
X140862261Y-84324297D01*
X140862255Y-84324299D01*
X140743875Y-84373333D01*
X140738498Y-84376208D01*
X140737627Y-84374578D01*
X140679187Y-84392864D01*
X140615888Y-84375484D01*
X140615502Y-84376208D01*
X140612310Y-84374502D01*
X140611811Y-84374365D01*
X140610611Y-84373594D01*
X140610124Y-84373333D01*
X140491744Y-84324299D01*
X140491738Y-84324297D01*
X140366071Y-84299300D01*
X140366069Y-84299300D01*
X140237931Y-84299300D01*
X140237929Y-84299300D01*
X140112261Y-84324297D01*
X140112255Y-84324299D01*
X139993875Y-84373333D01*
X139988498Y-84376208D01*
X139987627Y-84374578D01*
X139929187Y-84392864D01*
X139865888Y-84375484D01*
X139865502Y-84376208D01*
X139862310Y-84374502D01*
X139861811Y-84374365D01*
X139860611Y-84373594D01*
X139860124Y-84373333D01*
X139741744Y-84324299D01*
X139741738Y-84324297D01*
X139616071Y-84299300D01*
X139616069Y-84299300D01*
X139487931Y-84299300D01*
X139487929Y-84299300D01*
X139362261Y-84324297D01*
X139362255Y-84324299D01*
X139243875Y-84373333D01*
X139243866Y-84373338D01*
X139137331Y-84444523D01*
X139137327Y-84444526D01*
X139046726Y-84535127D01*
X139046723Y-84535131D01*
X138975538Y-84641666D01*
X138975533Y-84641675D01*
X138926499Y-84760055D01*
X138926497Y-84760061D01*
X138901500Y-84885728D01*
X138901500Y-84885731D01*
X138901500Y-85013869D01*
X138901500Y-85013871D01*
X138901499Y-85013871D01*
X131605000Y-85013871D01*
X131605000Y-84885728D01*
X131580002Y-84760061D01*
X131580001Y-84760060D01*
X131580001Y-84760056D01*
X131530965Y-84641673D01*
X131530964Y-84641672D01*
X131530961Y-84641666D01*
X131459776Y-84535131D01*
X131459773Y-84535127D01*
X131369172Y-84444526D01*
X131369168Y-84444523D01*
X131262633Y-84373338D01*
X131262624Y-84373333D01*
X131144244Y-84324299D01*
X131144238Y-84324297D01*
X131018571Y-84299300D01*
X131018569Y-84299300D01*
X130890431Y-84299300D01*
X130890429Y-84299300D01*
X130764761Y-84324297D01*
X130764755Y-84324299D01*
X130646375Y-84373333D01*
X130640998Y-84376208D01*
X130640127Y-84374578D01*
X130581687Y-84392864D01*
X130518388Y-84375484D01*
X130518002Y-84376208D01*
X130514810Y-84374502D01*
X130514311Y-84374365D01*
X130513111Y-84373594D01*
X130512624Y-84373333D01*
X130394244Y-84324299D01*
X130394238Y-84324297D01*
X130268571Y-84299300D01*
X130268569Y-84299300D01*
X130140431Y-84299300D01*
X130140429Y-84299300D01*
X130014761Y-84324297D01*
X130014755Y-84324299D01*
X129896375Y-84373333D01*
X129890998Y-84376208D01*
X129890127Y-84374578D01*
X129831687Y-84392864D01*
X129768388Y-84375484D01*
X129768002Y-84376208D01*
X129764810Y-84374502D01*
X129764311Y-84374365D01*
X129763111Y-84373594D01*
X129762624Y-84373333D01*
X129644244Y-84324299D01*
X129644238Y-84324297D01*
X129518571Y-84299300D01*
X129518569Y-84299300D01*
X129390431Y-84299300D01*
X129390429Y-84299300D01*
X129264761Y-84324297D01*
X129264755Y-84324299D01*
X129146375Y-84373333D01*
X129140998Y-84376208D01*
X129140127Y-84374578D01*
X129081687Y-84392864D01*
X129018388Y-84375484D01*
X129018002Y-84376208D01*
X129014810Y-84374502D01*
X129014311Y-84374365D01*
X129013111Y-84373594D01*
X129012624Y-84373333D01*
X128894244Y-84324299D01*
X128894238Y-84324297D01*
X128768571Y-84299300D01*
X128768569Y-84299300D01*
X128640431Y-84299300D01*
X128640429Y-84299300D01*
X128514761Y-84324297D01*
X128514755Y-84324299D01*
X128396375Y-84373333D01*
X128390998Y-84376208D01*
X128390127Y-84374578D01*
X128331687Y-84392864D01*
X128268388Y-84375484D01*
X128268002Y-84376208D01*
X128264810Y-84374502D01*
X128264311Y-84374365D01*
X128263111Y-84373594D01*
X128262624Y-84373333D01*
X128144244Y-84324299D01*
X128144238Y-84324297D01*
X128018571Y-84299300D01*
X128018569Y-84299300D01*
X127890431Y-84299300D01*
X127890429Y-84299300D01*
X127764761Y-84324297D01*
X127764755Y-84324299D01*
X127646375Y-84373333D01*
X127646366Y-84373338D01*
X127539831Y-84444523D01*
X127539827Y-84444526D01*
X127449226Y-84535127D01*
X127449223Y-84535131D01*
X127378038Y-84641666D01*
X127378033Y-84641675D01*
X127328999Y-84760055D01*
X127328997Y-84760061D01*
X127304000Y-84885728D01*
X127304000Y-84885731D01*
X127304000Y-85013869D01*
X127304000Y-85013871D01*
X127303999Y-85013871D01*
X121142500Y-85013871D01*
X121142500Y-84895733D01*
X121142499Y-84895724D01*
X121117502Y-84770061D01*
X121117501Y-84770060D01*
X121117501Y-84770056D01*
X121074186Y-84665484D01*
X121068466Y-84651675D01*
X121068461Y-84651666D01*
X120997276Y-84545131D01*
X120997273Y-84545127D01*
X120906672Y-84454526D01*
X120906668Y-84454523D01*
X120800133Y-84383338D01*
X120800124Y-84383333D01*
X120681744Y-84334299D01*
X120681738Y-84334297D01*
X120556071Y-84309300D01*
X120556069Y-84309300D01*
X120427931Y-84309300D01*
X120427929Y-84309300D01*
X120302261Y-84334297D01*
X120302255Y-84334299D01*
X120183875Y-84383333D01*
X120178498Y-84386208D01*
X120177627Y-84384578D01*
X120119187Y-84402864D01*
X120055888Y-84385484D01*
X120055502Y-84386208D01*
X120052310Y-84384502D01*
X120051811Y-84384365D01*
X120050611Y-84383594D01*
X120050124Y-84383333D01*
X119931744Y-84334299D01*
X119931738Y-84334297D01*
X119806071Y-84309300D01*
X119806069Y-84309300D01*
X119677931Y-84309300D01*
X119677929Y-84309300D01*
X119552261Y-84334297D01*
X119552255Y-84334299D01*
X119433875Y-84383333D01*
X119428498Y-84386208D01*
X119427627Y-84384578D01*
X119369187Y-84402864D01*
X119305888Y-84385484D01*
X119305502Y-84386208D01*
X119302310Y-84384502D01*
X119301811Y-84384365D01*
X119300611Y-84383594D01*
X119300124Y-84383333D01*
X119181744Y-84334299D01*
X119181738Y-84334297D01*
X119056071Y-84309300D01*
X119056069Y-84309300D01*
X118927931Y-84309300D01*
X118927929Y-84309300D01*
X118802261Y-84334297D01*
X118802255Y-84334299D01*
X118683875Y-84383333D01*
X118678498Y-84386208D01*
X118677627Y-84384578D01*
X118619187Y-84402864D01*
X118555888Y-84385484D01*
X118555502Y-84386208D01*
X118552310Y-84384502D01*
X118551811Y-84384365D01*
X118550611Y-84383594D01*
X118550124Y-84383333D01*
X118431744Y-84334299D01*
X118431738Y-84334297D01*
X118306071Y-84309300D01*
X118306069Y-84309300D01*
X118177931Y-84309300D01*
X118177929Y-84309300D01*
X118052261Y-84334297D01*
X118052255Y-84334299D01*
X117933875Y-84383333D01*
X117928498Y-84386208D01*
X117927627Y-84384578D01*
X117869187Y-84402864D01*
X117805888Y-84385484D01*
X117805502Y-84386208D01*
X117802310Y-84384502D01*
X117801811Y-84384365D01*
X117800611Y-84383594D01*
X117800124Y-84383333D01*
X117681744Y-84334299D01*
X117681738Y-84334297D01*
X117556071Y-84309300D01*
X117556069Y-84309300D01*
X117427931Y-84309300D01*
X117427929Y-84309300D01*
X117302261Y-84334297D01*
X117302255Y-84334299D01*
X117183875Y-84383333D01*
X117183866Y-84383338D01*
X117077331Y-84454523D01*
X117077327Y-84454526D01*
X116986726Y-84545127D01*
X116986723Y-84545131D01*
X116915538Y-84651666D01*
X116915533Y-84651675D01*
X116866499Y-84770055D01*
X116866497Y-84770061D01*
X116841500Y-84895728D01*
X116841500Y-84895731D01*
X116841500Y-85023869D01*
X116841500Y-85023871D01*
X116841499Y-85023871D01*
X109916655Y-85023871D01*
X109912512Y-85013869D01*
X109880710Y-84937091D01*
X109880709Y-84937090D01*
X109878469Y-84931681D01*
X109878461Y-84931666D01*
X109807276Y-84825131D01*
X109807273Y-84825127D01*
X109716672Y-84734526D01*
X109716668Y-84734523D01*
X109610133Y-84663338D01*
X109610124Y-84663333D01*
X109491744Y-84614299D01*
X109491738Y-84614297D01*
X109366071Y-84589300D01*
X109366069Y-84589300D01*
X109237931Y-84589300D01*
X109237929Y-84589300D01*
X109112261Y-84614297D01*
X109112255Y-84614299D01*
X108993875Y-84663333D01*
X108988498Y-84666208D01*
X108987627Y-84664578D01*
X108929187Y-84682864D01*
X108865888Y-84665484D01*
X108865502Y-84666208D01*
X108862310Y-84664502D01*
X108861811Y-84664365D01*
X108860611Y-84663594D01*
X108860124Y-84663333D01*
X108741744Y-84614299D01*
X108741738Y-84614297D01*
X108616071Y-84589300D01*
X108616069Y-84589300D01*
X108487931Y-84589300D01*
X108487929Y-84589300D01*
X108362261Y-84614297D01*
X108362255Y-84614299D01*
X108243875Y-84663333D01*
X108238498Y-84666208D01*
X108237627Y-84664578D01*
X108179187Y-84682864D01*
X108115888Y-84665484D01*
X108115502Y-84666208D01*
X108112310Y-84664502D01*
X108111811Y-84664365D01*
X108110611Y-84663594D01*
X108110124Y-84663333D01*
X107991744Y-84614299D01*
X107991738Y-84614297D01*
X107866071Y-84589300D01*
X107866069Y-84589300D01*
X107737931Y-84589300D01*
X107737929Y-84589300D01*
X107612261Y-84614297D01*
X107612255Y-84614299D01*
X107493875Y-84663333D01*
X107488498Y-84666208D01*
X107487627Y-84664578D01*
X107429187Y-84682864D01*
X107365888Y-84665484D01*
X107365502Y-84666208D01*
X107362310Y-84664502D01*
X107361811Y-84664365D01*
X107360611Y-84663594D01*
X107360124Y-84663333D01*
X107241744Y-84614299D01*
X107241738Y-84614297D01*
X107116071Y-84589300D01*
X107116069Y-84589300D01*
X106987931Y-84589300D01*
X106987929Y-84589300D01*
X106862261Y-84614297D01*
X106862255Y-84614299D01*
X106743875Y-84663333D01*
X106738498Y-84666208D01*
X106737627Y-84664578D01*
X106679187Y-84682864D01*
X106615888Y-84665484D01*
X106615502Y-84666208D01*
X106612310Y-84664502D01*
X106611811Y-84664365D01*
X106610611Y-84663594D01*
X106610124Y-84663333D01*
X106491744Y-84614299D01*
X106491738Y-84614297D01*
X106366071Y-84589300D01*
X106366069Y-84589300D01*
X106237931Y-84589300D01*
X106237929Y-84589300D01*
X106112261Y-84614297D01*
X106112255Y-84614299D01*
X105993875Y-84663333D01*
X105993866Y-84663338D01*
X105887331Y-84734523D01*
X105887327Y-84734526D01*
X105796726Y-84825127D01*
X105796723Y-84825131D01*
X105725538Y-84931666D01*
X105725533Y-84931675D01*
X105676499Y-85050055D01*
X105676497Y-85050061D01*
X105651500Y-85175728D01*
X105651500Y-85175731D01*
X105651500Y-85303869D01*
X105651500Y-85303871D01*
X105651499Y-85303871D01*
X102732243Y-85303871D01*
X102954156Y-85081958D01*
X103093801Y-84942312D01*
X103001034Y-84895046D01*
X103001027Y-84895043D01*
X102806417Y-84831809D01*
X102604317Y-84799800D01*
X102399683Y-84799800D01*
X102197581Y-84831810D01*
X102197578Y-84831810D01*
X102002974Y-84895042D01*
X102002973Y-84895042D01*
X101910197Y-84942312D01*
X98849500Y-84942312D01*
X98849500Y-82029578D01*
X101101500Y-82029578D01*
X101101500Y-82250022D01*
X101118742Y-82358886D01*
X101135985Y-82467752D01*
X101204103Y-82677403D01*
X101204104Y-82677406D01*
X101304187Y-82873825D01*
X101433752Y-83052158D01*
X101433756Y-83052163D01*
X101589636Y-83208043D01*
X101589641Y-83208047D01*
X101745192Y-83321060D01*
X101767978Y-83337615D01*
X101896375Y-83403037D01*
X101964393Y-83437695D01*
X101964396Y-83437696D01*
X102069221Y-83471755D01*
X102174049Y-83505815D01*
X102391778Y-83540300D01*
X102391779Y-83540300D01*
X102612221Y-83540300D01*
X102612222Y-83540300D01*
X102829951Y-83505815D01*
X103039606Y-83437695D01*
X103236022Y-83337615D01*
X103414365Y-83208042D01*
X103570242Y-83052165D01*
X103699815Y-82873822D01*
X103799895Y-82677406D01*
X103799896Y-82677403D01*
X103847927Y-82529578D01*
X159501500Y-82529578D01*
X159501500Y-82750021D01*
X159535985Y-82967752D01*
X159604103Y-83177403D01*
X159604104Y-83177406D01*
X159672122Y-83310896D01*
X159685736Y-83337615D01*
X159704187Y-83373825D01*
X159833752Y-83552158D01*
X159833756Y-83552163D01*
X159989636Y-83708043D01*
X159989641Y-83708047D01*
X160145192Y-83821060D01*
X160167978Y-83837615D01*
X160296375Y-83903037D01*
X160364393Y-83937695D01*
X160364396Y-83937696D01*
X160469221Y-83971755D01*
X160574049Y-84005815D01*
X160791778Y-84040300D01*
X160791779Y-84040300D01*
X161012221Y-84040300D01*
X161012222Y-84040300D01*
X161229951Y-84005815D01*
X161439606Y-83937695D01*
X161636022Y-83837615D01*
X161814365Y-83708042D01*
X161970242Y-83552165D01*
X162099815Y-83373822D01*
X162199895Y-83177406D01*
X162268015Y-82967751D01*
X162302500Y-82750022D01*
X162302500Y-82529578D01*
X162268015Y-82311849D01*
X162199895Y-82102194D01*
X162199895Y-82102193D01*
X162162895Y-82029578D01*
X162099815Y-81905778D01*
X162031571Y-81811847D01*
X161970247Y-81727441D01*
X161970243Y-81727436D01*
X161814363Y-81571556D01*
X161814358Y-81571552D01*
X161636025Y-81441987D01*
X161636024Y-81441986D01*
X161636022Y-81441985D01*
X161564955Y-81405774D01*
X161439606Y-81341904D01*
X161439603Y-81341903D01*
X161229952Y-81273785D01*
X161121086Y-81256542D01*
X161012222Y-81239300D01*
X160791778Y-81239300D01*
X160719201Y-81250795D01*
X160574047Y-81273785D01*
X160364396Y-81341903D01*
X160364393Y-81341904D01*
X160167974Y-81441987D01*
X159989641Y-81571552D01*
X159989636Y-81571556D01*
X159833756Y-81727436D01*
X159833752Y-81727441D01*
X159704187Y-81905774D01*
X159604104Y-82102193D01*
X159604103Y-82102196D01*
X159535985Y-82311847D01*
X159501500Y-82529578D01*
X103847927Y-82529578D01*
X103861960Y-82486388D01*
X103861960Y-82486387D01*
X103868014Y-82467754D01*
X103868013Y-82467754D01*
X103868015Y-82467751D01*
X103902500Y-82250022D01*
X103902500Y-82029578D01*
X103868015Y-81811849D01*
X103799895Y-81602194D01*
X103799895Y-81602193D01*
X103765237Y-81534175D01*
X103699815Y-81405778D01*
X103653408Y-81341904D01*
X103570247Y-81227441D01*
X103570243Y-81227436D01*
X103414363Y-81071556D01*
X103414358Y-81071552D01*
X103236025Y-80941987D01*
X103236024Y-80941986D01*
X103236022Y-80941985D01*
X103173096Y-80909922D01*
X103039606Y-80841904D01*
X103039603Y-80841903D01*
X102829952Y-80773785D01*
X102721086Y-80756542D01*
X102612222Y-80739300D01*
X102391778Y-80739300D01*
X102319201Y-80750795D01*
X102174047Y-80773785D01*
X101964396Y-80841903D01*
X101964393Y-80841904D01*
X101767974Y-80941987D01*
X101589641Y-81071552D01*
X101589636Y-81071556D01*
X101433756Y-81227436D01*
X101433752Y-81227441D01*
X101304187Y-81405774D01*
X101204104Y-81602193D01*
X101204103Y-81602196D01*
X101135985Y-81811847D01*
X101135985Y-81811849D01*
X101101500Y-82029578D01*
X98849500Y-82029578D01*
X98849500Y-80263871D01*
X143601499Y-80263871D01*
X143626497Y-80389538D01*
X143626499Y-80389544D01*
X143675533Y-80507924D01*
X143675538Y-80507933D01*
X143746723Y-80614468D01*
X143746726Y-80614472D01*
X143837327Y-80705073D01*
X143837331Y-80705076D01*
X143943866Y-80776261D01*
X143943872Y-80776264D01*
X143943873Y-80776265D01*
X144062256Y-80825301D01*
X144062260Y-80825301D01*
X144062261Y-80825302D01*
X144187928Y-80850300D01*
X144187931Y-80850300D01*
X144316071Y-80850300D01*
X144400615Y-80833482D01*
X144441744Y-80825301D01*
X144560127Y-80776265D01*
X144666669Y-80705076D01*
X144757276Y-80614469D01*
X144828465Y-80507927D01*
X144877501Y-80389544D01*
X144902500Y-80263869D01*
X144902500Y-80135731D01*
X144902500Y-80135728D01*
X144877502Y-80010061D01*
X144877501Y-80010060D01*
X144877501Y-80010056D01*
X144828465Y-79891673D01*
X144828464Y-79891672D01*
X144828461Y-79891666D01*
X144757276Y-79785131D01*
X144757273Y-79785127D01*
X144666672Y-79694526D01*
X144666668Y-79694523D01*
X144560133Y-79623338D01*
X144560124Y-79623333D01*
X144441744Y-79574299D01*
X144441738Y-79574297D01*
X144316071Y-79549300D01*
X144316069Y-79549300D01*
X144187931Y-79549300D01*
X144187929Y-79549300D01*
X144062261Y-79574297D01*
X144062255Y-79574299D01*
X143943875Y-79623333D01*
X143943866Y-79623338D01*
X143837331Y-79694523D01*
X143837327Y-79694526D01*
X143746726Y-79785127D01*
X143746723Y-79785131D01*
X143675538Y-79891666D01*
X143675533Y-79891675D01*
X143626499Y-80010055D01*
X143626497Y-80010061D01*
X143601500Y-80135728D01*
X143601500Y-80135731D01*
X143601500Y-80263869D01*
X143601500Y-80263871D01*
X143601499Y-80263871D01*
X98849500Y-80263871D01*
X98849500Y-74538871D01*
X158876499Y-74538871D01*
X158901497Y-74664538D01*
X158901499Y-74664544D01*
X158950533Y-74782924D01*
X158950538Y-74782933D01*
X159021723Y-74889468D01*
X159021726Y-74889472D01*
X159112327Y-74980073D01*
X159112331Y-74980076D01*
X159218866Y-75051261D01*
X159218872Y-75051264D01*
X159218873Y-75051265D01*
X159337256Y-75100301D01*
X159337260Y-75100301D01*
X159337261Y-75100302D01*
X159462928Y-75125300D01*
X159462931Y-75125300D01*
X159591071Y-75125300D01*
X159675615Y-75108482D01*
X159716744Y-75100301D01*
X159835127Y-75051265D01*
X159941669Y-74980076D01*
X160032276Y-74889469D01*
X160103465Y-74782927D01*
X160152501Y-74664544D01*
X160177500Y-74538869D01*
X160177500Y-74410731D01*
X160177500Y-74410728D01*
X160152502Y-74285061D01*
X160152501Y-74285060D01*
X160152501Y-74285056D01*
X160103465Y-74166673D01*
X160103464Y-74166672D01*
X160103461Y-74166666D01*
X160032276Y-74060131D01*
X160032273Y-74060127D01*
X159941672Y-73969526D01*
X159941668Y-73969523D01*
X159835133Y-73898338D01*
X159835124Y-73898333D01*
X159716744Y-73849299D01*
X159716738Y-73849297D01*
X159591071Y-73824300D01*
X159591069Y-73824300D01*
X159462931Y-73824300D01*
X159462929Y-73824300D01*
X159337261Y-73849297D01*
X159337255Y-73849299D01*
X159218875Y-73898333D01*
X159218866Y-73898338D01*
X159112331Y-73969523D01*
X159112327Y-73969526D01*
X159021726Y-74060127D01*
X159021723Y-74060131D01*
X158950538Y-74166666D01*
X158950533Y-74166675D01*
X158901499Y-74285055D01*
X158901497Y-74285061D01*
X158876500Y-74410728D01*
X158876500Y-74410731D01*
X158876500Y-74538869D01*
X158876500Y-74538871D01*
X158876499Y-74538871D01*
X98849500Y-74538871D01*
X98849500Y-67763871D01*
X104901499Y-67763871D01*
X104926497Y-67889538D01*
X104926499Y-67889544D01*
X104975533Y-68007924D01*
X104978408Y-68013302D01*
X104976778Y-68014172D01*
X104995064Y-68072613D01*
X104977684Y-68135911D01*
X104978408Y-68136298D01*
X104976702Y-68139489D01*
X104976565Y-68139989D01*
X104975794Y-68141188D01*
X104975533Y-68141675D01*
X104926499Y-68260055D01*
X104926497Y-68260061D01*
X104901500Y-68385728D01*
X104901500Y-68385731D01*
X104901500Y-68513869D01*
X104901500Y-68513871D01*
X104901499Y-68513871D01*
X104926497Y-68639538D01*
X104926499Y-68639544D01*
X104975533Y-68757924D01*
X104978408Y-68763302D01*
X104976778Y-68764172D01*
X104995064Y-68822613D01*
X104977684Y-68885911D01*
X104978408Y-68886298D01*
X104976702Y-68889489D01*
X104976565Y-68889989D01*
X104975794Y-68891188D01*
X104975533Y-68891675D01*
X104926499Y-69010055D01*
X104926497Y-69010061D01*
X104901500Y-69135728D01*
X104901500Y-69135731D01*
X104901500Y-69263869D01*
X104901500Y-69263871D01*
X104901499Y-69263871D01*
X104926497Y-69389538D01*
X104926499Y-69389544D01*
X104975533Y-69507924D01*
X104975538Y-69507933D01*
X105046723Y-69614468D01*
X105046726Y-69614472D01*
X105137327Y-69705073D01*
X105137331Y-69705076D01*
X105243866Y-69776261D01*
X105243872Y-69776264D01*
X105243873Y-69776265D01*
X105362256Y-69825301D01*
X105362260Y-69825301D01*
X105362261Y-69825302D01*
X105487928Y-69850300D01*
X105487931Y-69850300D01*
X105616071Y-69850300D01*
X105700615Y-69833482D01*
X105741744Y-69825301D01*
X105860127Y-69776265D01*
X105860134Y-69776259D01*
X105865494Y-69773396D01*
X105866366Y-69775027D01*
X105924785Y-69756735D01*
X105988124Y-69774110D01*
X105988506Y-69773396D01*
X105991653Y-69775078D01*
X105992165Y-69775219D01*
X105993396Y-69776010D01*
X105993867Y-69776261D01*
X105993873Y-69776265D01*
X106112256Y-69825301D01*
X106112260Y-69825301D01*
X106112261Y-69825302D01*
X106237928Y-69850300D01*
X106237931Y-69850300D01*
X106366071Y-69850300D01*
X106450615Y-69833482D01*
X106491744Y-69825301D01*
X106610127Y-69776265D01*
X106610134Y-69776259D01*
X106615494Y-69773396D01*
X106616366Y-69775027D01*
X106674785Y-69756735D01*
X106738124Y-69774110D01*
X106738506Y-69773396D01*
X106741653Y-69775078D01*
X106742165Y-69775219D01*
X106743396Y-69776010D01*
X106743867Y-69776261D01*
X106743873Y-69776265D01*
X106862256Y-69825301D01*
X106862260Y-69825301D01*
X106862261Y-69825302D01*
X106987928Y-69850300D01*
X106987931Y-69850300D01*
X107116071Y-69850300D01*
X107200615Y-69833482D01*
X107241744Y-69825301D01*
X107360127Y-69776265D01*
X107360134Y-69776259D01*
X107365494Y-69773396D01*
X107366366Y-69775027D01*
X107424785Y-69756735D01*
X107488124Y-69774110D01*
X107488506Y-69773396D01*
X107491653Y-69775078D01*
X107492165Y-69775219D01*
X107493396Y-69776010D01*
X107493867Y-69776261D01*
X107493873Y-69776265D01*
X107612256Y-69825301D01*
X107612260Y-69825301D01*
X107612261Y-69825302D01*
X107737928Y-69850300D01*
X107737931Y-69850300D01*
X107866071Y-69850300D01*
X107950615Y-69833482D01*
X107991744Y-69825301D01*
X108110127Y-69776265D01*
X108110134Y-69776259D01*
X108115494Y-69773396D01*
X108116366Y-69775027D01*
X108174785Y-69756735D01*
X108238124Y-69774110D01*
X108238506Y-69773396D01*
X108241653Y-69775078D01*
X108242165Y-69775219D01*
X108243396Y-69776010D01*
X108243867Y-69776261D01*
X108243873Y-69776265D01*
X108362256Y-69825301D01*
X108362260Y-69825301D01*
X108362261Y-69825302D01*
X108487928Y-69850300D01*
X108487931Y-69850300D01*
X108616071Y-69850300D01*
X108700615Y-69833482D01*
X108741744Y-69825301D01*
X108860127Y-69776265D01*
X108966669Y-69705076D01*
X109057276Y-69614469D01*
X109128465Y-69507927D01*
X109177501Y-69389544D01*
X109202500Y-69263869D01*
X109202500Y-69135731D01*
X109202500Y-69135728D01*
X109177502Y-69010061D01*
X109177501Y-69010060D01*
X109177501Y-69010056D01*
X109128465Y-68891673D01*
X109128462Y-68891669D01*
X109125596Y-68886306D01*
X109127227Y-68885433D01*
X109108935Y-68827015D01*
X109126310Y-68763675D01*
X109125596Y-68763294D01*
X109127278Y-68760146D01*
X109127419Y-68759635D01*
X109128210Y-68758403D01*
X109128459Y-68757934D01*
X109128465Y-68757927D01*
X109177501Y-68639544D01*
X109190815Y-68572613D01*
X109202500Y-68513871D01*
X109202500Y-68385728D01*
X109178260Y-68263871D01*
X137401499Y-68263871D01*
X137426497Y-68389538D01*
X137426499Y-68389544D01*
X137475533Y-68507924D01*
X137478408Y-68513302D01*
X137476778Y-68514172D01*
X137495064Y-68572613D01*
X137477684Y-68635911D01*
X137478408Y-68636298D01*
X137476702Y-68639489D01*
X137476565Y-68639989D01*
X137475794Y-68641188D01*
X137475533Y-68641675D01*
X137426499Y-68760055D01*
X137426497Y-68760061D01*
X137401500Y-68885728D01*
X137401500Y-68885731D01*
X137401500Y-69013869D01*
X137401500Y-69013871D01*
X137401499Y-69013871D01*
X137426497Y-69139538D01*
X137426499Y-69139544D01*
X137475533Y-69257924D01*
X137478408Y-69263302D01*
X137476778Y-69264172D01*
X137495064Y-69322613D01*
X137477684Y-69385911D01*
X137478408Y-69386298D01*
X137476702Y-69389489D01*
X137476565Y-69389989D01*
X137475794Y-69391188D01*
X137475533Y-69391675D01*
X137426499Y-69510055D01*
X137426497Y-69510061D01*
X137401500Y-69635728D01*
X137401500Y-69635731D01*
X137401500Y-69763869D01*
X137401500Y-69763871D01*
X137401499Y-69763871D01*
X137426497Y-69889538D01*
X137426499Y-69889544D01*
X137475533Y-70007924D01*
X137478408Y-70013302D01*
X137476778Y-70014172D01*
X137495064Y-70072613D01*
X137477684Y-70135911D01*
X137478408Y-70136298D01*
X137476702Y-70139489D01*
X137476565Y-70139989D01*
X137475794Y-70141188D01*
X137475533Y-70141675D01*
X137426499Y-70260055D01*
X137426497Y-70260061D01*
X137401500Y-70385728D01*
X137401500Y-70385731D01*
X137401500Y-70513869D01*
X137401500Y-70513871D01*
X137401499Y-70513871D01*
X137426497Y-70639538D01*
X137426499Y-70639544D01*
X137475533Y-70757924D01*
X137478408Y-70763302D01*
X137476778Y-70764172D01*
X137495064Y-70822613D01*
X137477684Y-70885911D01*
X137478408Y-70886298D01*
X137476702Y-70889489D01*
X137476565Y-70889989D01*
X137475794Y-70891188D01*
X137475533Y-70891675D01*
X137426499Y-71010055D01*
X137426497Y-71010061D01*
X137401500Y-71135728D01*
X137401500Y-71135731D01*
X137401500Y-71263869D01*
X137401500Y-71263871D01*
X137401499Y-71263871D01*
X137426497Y-71389538D01*
X137426499Y-71389544D01*
X137475533Y-71507924D01*
X137475538Y-71507933D01*
X137546723Y-71614468D01*
X137546726Y-71614472D01*
X137637327Y-71705073D01*
X137637331Y-71705076D01*
X137743866Y-71776261D01*
X137743872Y-71776264D01*
X137743873Y-71776265D01*
X137862256Y-71825301D01*
X137862260Y-71825301D01*
X137862261Y-71825302D01*
X137987928Y-71850300D01*
X137987931Y-71850300D01*
X138116071Y-71850300D01*
X138200615Y-71833482D01*
X138241744Y-71825301D01*
X138360127Y-71776265D01*
X138360134Y-71776259D01*
X138365494Y-71773396D01*
X138366366Y-71775027D01*
X138424785Y-71756735D01*
X138488124Y-71774110D01*
X138488506Y-71773396D01*
X138491653Y-71775078D01*
X138492165Y-71775219D01*
X138493396Y-71776010D01*
X138493867Y-71776261D01*
X138493873Y-71776265D01*
X138612256Y-71825301D01*
X138612260Y-71825301D01*
X138612261Y-71825302D01*
X138737928Y-71850300D01*
X138737931Y-71850300D01*
X138866071Y-71850300D01*
X138950615Y-71833482D01*
X138991744Y-71825301D01*
X139110127Y-71776265D01*
X139110134Y-71776259D01*
X139115494Y-71773396D01*
X139116366Y-71775027D01*
X139174785Y-71756735D01*
X139238124Y-71774110D01*
X139238506Y-71773396D01*
X139241653Y-71775078D01*
X139242165Y-71775219D01*
X139243396Y-71776010D01*
X139243867Y-71776261D01*
X139243873Y-71776265D01*
X139362256Y-71825301D01*
X139362260Y-71825301D01*
X139362261Y-71825302D01*
X139487928Y-71850300D01*
X139487931Y-71850300D01*
X139616071Y-71850300D01*
X139700615Y-71833482D01*
X139741744Y-71825301D01*
X139860127Y-71776265D01*
X139966669Y-71705076D01*
X140057276Y-71614469D01*
X140128465Y-71507927D01*
X140177501Y-71389544D01*
X140202500Y-71263869D01*
X140202500Y-71135731D01*
X140202500Y-71135728D01*
X140177502Y-71010061D01*
X140177501Y-71010060D01*
X140177501Y-71010056D01*
X140128465Y-70891673D01*
X140128462Y-70891669D01*
X140125596Y-70886306D01*
X140127227Y-70885433D01*
X140108935Y-70827015D01*
X140126310Y-70763675D01*
X140125596Y-70763294D01*
X140127278Y-70760146D01*
X140127419Y-70759635D01*
X140128210Y-70758403D01*
X140128459Y-70757934D01*
X140128465Y-70757927D01*
X140177501Y-70639544D01*
X140192667Y-70563302D01*
X140202500Y-70513871D01*
X140202500Y-70385728D01*
X140188206Y-70313871D01*
X156651499Y-70313871D01*
X156676497Y-70439538D01*
X156676499Y-70439544D01*
X156725533Y-70557924D01*
X156728408Y-70563302D01*
X156726778Y-70564172D01*
X156745064Y-70622613D01*
X156727684Y-70685911D01*
X156728408Y-70686298D01*
X156726702Y-70689489D01*
X156726565Y-70689989D01*
X156725794Y-70691188D01*
X156725533Y-70691675D01*
X156676499Y-70810055D01*
X156676497Y-70810061D01*
X156651500Y-70935728D01*
X156651500Y-70935731D01*
X156651500Y-71063869D01*
X156651500Y-71063871D01*
X156651499Y-71063871D01*
X156676497Y-71189538D01*
X156676499Y-71189544D01*
X156725533Y-71307924D01*
X156725538Y-71307933D01*
X156796723Y-71414468D01*
X156796726Y-71414472D01*
X156887327Y-71505073D01*
X156887331Y-71505076D01*
X156993866Y-71576261D01*
X156993872Y-71576264D01*
X156993873Y-71576265D01*
X157112256Y-71625301D01*
X157112260Y-71625301D01*
X157112261Y-71625302D01*
X157237928Y-71650300D01*
X157237931Y-71650300D01*
X157366071Y-71650300D01*
X157450615Y-71633482D01*
X157491744Y-71625301D01*
X157610127Y-71576265D01*
X157610134Y-71576259D01*
X157615494Y-71573396D01*
X157616366Y-71575027D01*
X157674785Y-71556735D01*
X157738124Y-71574110D01*
X157738506Y-71573396D01*
X157741653Y-71575078D01*
X157742165Y-71575219D01*
X157743396Y-71576010D01*
X157743867Y-71576261D01*
X157743873Y-71576265D01*
X157862256Y-71625301D01*
X157862260Y-71625301D01*
X157862261Y-71625302D01*
X157987928Y-71650300D01*
X157987931Y-71650300D01*
X158116071Y-71650300D01*
X158200615Y-71633482D01*
X158241744Y-71625301D01*
X158360127Y-71576265D01*
X158466669Y-71505076D01*
X158557276Y-71414469D01*
X158628465Y-71307927D01*
X158677501Y-71189544D01*
X158702500Y-71063869D01*
X158702500Y-70935731D01*
X158702500Y-70935728D01*
X158677502Y-70810061D01*
X158677501Y-70810060D01*
X158677501Y-70810056D01*
X158628465Y-70691673D01*
X158628462Y-70691669D01*
X158625596Y-70686306D01*
X158627227Y-70685433D01*
X158608935Y-70627015D01*
X158626310Y-70563675D01*
X158625596Y-70563294D01*
X158627278Y-70560146D01*
X158627419Y-70559635D01*
X158628210Y-70558403D01*
X158628459Y-70557934D01*
X158628465Y-70557927D01*
X158677501Y-70439544D01*
X158702500Y-70313869D01*
X158702500Y-70185731D01*
X158702500Y-70185728D01*
X158677502Y-70060061D01*
X158677501Y-70060060D01*
X158677501Y-70060056D01*
X158628465Y-69941673D01*
X158628464Y-69941672D01*
X158628461Y-69941666D01*
X158557276Y-69835131D01*
X158557273Y-69835127D01*
X158466672Y-69744526D01*
X158466668Y-69744523D01*
X158360133Y-69673338D01*
X158360124Y-69673333D01*
X158241744Y-69624299D01*
X158241738Y-69624297D01*
X158116071Y-69599300D01*
X158116069Y-69599300D01*
X157987931Y-69599300D01*
X157987929Y-69599300D01*
X157862261Y-69624297D01*
X157862255Y-69624299D01*
X157743875Y-69673333D01*
X157738498Y-69676208D01*
X157737627Y-69674578D01*
X157679187Y-69692864D01*
X157615888Y-69675484D01*
X157615502Y-69676208D01*
X157612310Y-69674502D01*
X157611811Y-69674365D01*
X157610611Y-69673594D01*
X157610124Y-69673333D01*
X157491744Y-69624299D01*
X157491738Y-69624297D01*
X157366071Y-69599300D01*
X157366069Y-69599300D01*
X157237931Y-69599300D01*
X157237929Y-69599300D01*
X157112261Y-69624297D01*
X157112255Y-69624299D01*
X156993875Y-69673333D01*
X156993866Y-69673338D01*
X156887331Y-69744523D01*
X156887327Y-69744526D01*
X156796726Y-69835127D01*
X156796723Y-69835131D01*
X156725538Y-69941666D01*
X156725533Y-69941675D01*
X156676499Y-70060055D01*
X156676497Y-70060061D01*
X156651500Y-70185728D01*
X156651500Y-70185731D01*
X156651500Y-70313869D01*
X156651500Y-70313871D01*
X156651499Y-70313871D01*
X140188206Y-70313871D01*
X140177502Y-70260061D01*
X140177501Y-70260060D01*
X140177501Y-70260056D01*
X140128465Y-70141673D01*
X140123607Y-70134403D01*
X140119163Y-70124161D01*
X140116171Y-70100125D01*
X140108935Y-70077015D01*
X140111934Y-70066080D01*
X140110534Y-70054826D01*
X140121012Y-70032988D01*
X140126310Y-70013675D01*
X140125596Y-70013294D01*
X140127278Y-70010146D01*
X140127419Y-70009635D01*
X140128210Y-70008403D01*
X140128459Y-70007934D01*
X140128465Y-70007927D01*
X140177501Y-69889544D01*
X140200034Y-69776266D01*
X140202500Y-69763871D01*
X140202500Y-69635728D01*
X140177502Y-69510061D01*
X140177501Y-69510060D01*
X140177501Y-69510056D01*
X140128465Y-69391673D01*
X140128462Y-69391669D01*
X140125596Y-69386306D01*
X140127227Y-69385433D01*
X140108935Y-69327015D01*
X140126310Y-69263675D01*
X140125596Y-69263294D01*
X140127278Y-69260146D01*
X140127419Y-69259635D01*
X140128210Y-69258403D01*
X140128459Y-69257934D01*
X140128465Y-69257927D01*
X140177501Y-69139544D01*
X140202500Y-69013869D01*
X140202500Y-68885731D01*
X140202500Y-68885728D01*
X140193179Y-68838871D01*
X141101499Y-68838871D01*
X141126497Y-68964538D01*
X141126499Y-68964544D01*
X141175533Y-69082924D01*
X141175538Y-69082933D01*
X141246723Y-69189468D01*
X141246726Y-69189472D01*
X141337327Y-69280073D01*
X141337331Y-69280076D01*
X141443866Y-69351261D01*
X141443872Y-69351264D01*
X141443873Y-69351265D01*
X141562256Y-69400301D01*
X141562260Y-69400301D01*
X141562261Y-69400302D01*
X141687928Y-69425300D01*
X141687931Y-69425300D01*
X141816071Y-69425300D01*
X141900615Y-69408482D01*
X141941744Y-69400301D01*
X142060127Y-69351265D01*
X142166669Y-69280076D01*
X142257276Y-69189469D01*
X142328465Y-69082927D01*
X142377501Y-68964544D01*
X142402500Y-68838869D01*
X142402500Y-68710731D01*
X142402500Y-68710728D01*
X142377502Y-68585061D01*
X142377501Y-68585060D01*
X142377501Y-68585056D01*
X142328465Y-68466673D01*
X142328464Y-68466672D01*
X142328461Y-68466666D01*
X142257276Y-68360131D01*
X142257273Y-68360127D01*
X142166672Y-68269526D01*
X142166668Y-68269523D01*
X142060133Y-68198338D01*
X142060124Y-68198333D01*
X141941744Y-68149299D01*
X141941738Y-68149297D01*
X141816071Y-68124300D01*
X141816069Y-68124300D01*
X141687931Y-68124300D01*
X141687929Y-68124300D01*
X141562261Y-68149297D01*
X141562255Y-68149299D01*
X141443875Y-68198333D01*
X141443866Y-68198338D01*
X141337331Y-68269523D01*
X141337327Y-68269526D01*
X141246726Y-68360127D01*
X141246723Y-68360131D01*
X141175538Y-68466666D01*
X141175533Y-68466675D01*
X141126499Y-68585055D01*
X141126497Y-68585061D01*
X141101500Y-68710728D01*
X141101500Y-68710731D01*
X141101500Y-68838869D01*
X141101500Y-68838871D01*
X141101499Y-68838871D01*
X140193179Y-68838871D01*
X140177502Y-68760061D01*
X140177501Y-68760060D01*
X140177501Y-68760056D01*
X140128465Y-68641673D01*
X140123498Y-68634239D01*
X140119006Y-68623796D01*
X140116115Y-68599944D01*
X140108935Y-68577015D01*
X140111987Y-68565888D01*
X140110599Y-68554434D01*
X140121063Y-68532804D01*
X140126310Y-68513675D01*
X140125596Y-68513294D01*
X140127278Y-68510146D01*
X140127419Y-68509635D01*
X140128210Y-68508403D01*
X140128459Y-68507934D01*
X140128465Y-68507927D01*
X140177501Y-68389544D01*
X140201375Y-68269524D01*
X140202500Y-68263871D01*
X140202500Y-68135728D01*
X140177502Y-68010061D01*
X140177501Y-68010060D01*
X140177501Y-68010056D01*
X140128465Y-67891673D01*
X140128464Y-67891672D01*
X140128461Y-67891666D01*
X140057276Y-67785131D01*
X140057273Y-67785127D01*
X139966672Y-67694526D01*
X139966668Y-67694523D01*
X139860133Y-67623338D01*
X139860124Y-67623333D01*
X139741744Y-67574299D01*
X139741738Y-67574297D01*
X139616071Y-67549300D01*
X139616069Y-67549300D01*
X139487931Y-67549300D01*
X139487929Y-67549300D01*
X139362261Y-67574297D01*
X139362255Y-67574299D01*
X139243875Y-67623333D01*
X139238498Y-67626208D01*
X139237627Y-67624578D01*
X139179187Y-67642864D01*
X139115888Y-67625484D01*
X139115502Y-67626208D01*
X139112310Y-67624502D01*
X139111811Y-67624365D01*
X139110611Y-67623594D01*
X139110124Y-67623333D01*
X138991744Y-67574299D01*
X138991738Y-67574297D01*
X138866071Y-67549300D01*
X138866069Y-67549300D01*
X138737931Y-67549300D01*
X138737929Y-67549300D01*
X138612261Y-67574297D01*
X138612255Y-67574299D01*
X138493875Y-67623333D01*
X138488498Y-67626208D01*
X138487627Y-67624578D01*
X138429187Y-67642864D01*
X138365888Y-67625484D01*
X138365502Y-67626208D01*
X138362310Y-67624502D01*
X138361811Y-67624365D01*
X138360611Y-67623594D01*
X138360124Y-67623333D01*
X138241744Y-67574299D01*
X138241738Y-67574297D01*
X138116071Y-67549300D01*
X138116069Y-67549300D01*
X137987931Y-67549300D01*
X137987929Y-67549300D01*
X137862261Y-67574297D01*
X137862255Y-67574299D01*
X137743875Y-67623333D01*
X137743866Y-67623338D01*
X137637331Y-67694523D01*
X137637327Y-67694526D01*
X137546726Y-67785127D01*
X137546723Y-67785131D01*
X137475538Y-67891666D01*
X137475533Y-67891675D01*
X137426499Y-68010055D01*
X137426497Y-68010061D01*
X137401500Y-68135728D01*
X137401500Y-68135731D01*
X137401500Y-68263869D01*
X137401500Y-68263871D01*
X137401499Y-68263871D01*
X109178260Y-68263871D01*
X109177502Y-68260061D01*
X109177501Y-68260060D01*
X109177501Y-68260056D01*
X109128465Y-68141673D01*
X109124127Y-68135182D01*
X109119917Y-68125864D01*
X109116440Y-68100983D01*
X109108935Y-68077015D01*
X109111688Y-68066977D01*
X109110248Y-68056667D01*
X109120773Y-68033858D01*
X109126310Y-68013675D01*
X109125596Y-68013294D01*
X109127278Y-68010146D01*
X109127419Y-68009635D01*
X109128210Y-68008403D01*
X109128459Y-68007934D01*
X109128465Y-68007927D01*
X109177501Y-67889544D01*
X109198271Y-67785131D01*
X109202500Y-67763871D01*
X109202500Y-67635728D01*
X109177502Y-67510061D01*
X109177501Y-67510060D01*
X109177501Y-67510056D01*
X109128465Y-67391673D01*
X109128464Y-67391672D01*
X109128461Y-67391666D01*
X109057276Y-67285131D01*
X109057273Y-67285127D01*
X108966672Y-67194526D01*
X108966668Y-67194523D01*
X108860133Y-67123338D01*
X108860124Y-67123333D01*
X108741744Y-67074299D01*
X108741738Y-67074297D01*
X108616071Y-67049300D01*
X108616069Y-67049300D01*
X108487931Y-67049300D01*
X108487929Y-67049300D01*
X108362261Y-67074297D01*
X108362255Y-67074299D01*
X108243875Y-67123333D01*
X108238498Y-67126208D01*
X108237627Y-67124578D01*
X108179187Y-67142864D01*
X108115888Y-67125484D01*
X108115502Y-67126208D01*
X108112310Y-67124502D01*
X108111811Y-67124365D01*
X108110611Y-67123594D01*
X108110124Y-67123333D01*
X107991744Y-67074299D01*
X107991738Y-67074297D01*
X107866071Y-67049300D01*
X107866069Y-67049300D01*
X107737931Y-67049300D01*
X107737929Y-67049300D01*
X107612261Y-67074297D01*
X107612255Y-67074299D01*
X107493875Y-67123333D01*
X107488498Y-67126208D01*
X107487627Y-67124578D01*
X107429187Y-67142864D01*
X107365888Y-67125484D01*
X107365502Y-67126208D01*
X107362310Y-67124502D01*
X107361811Y-67124365D01*
X107360611Y-67123594D01*
X107360124Y-67123333D01*
X107241744Y-67074299D01*
X107241738Y-67074297D01*
X107116071Y-67049300D01*
X107116069Y-67049300D01*
X106987931Y-67049300D01*
X106987929Y-67049300D01*
X106862261Y-67074297D01*
X106862255Y-67074299D01*
X106743875Y-67123333D01*
X106738498Y-67126208D01*
X106737627Y-67124578D01*
X106679187Y-67142864D01*
X106615888Y-67125484D01*
X106615502Y-67126208D01*
X106612310Y-67124502D01*
X106611811Y-67124365D01*
X106610611Y-67123594D01*
X106610124Y-67123333D01*
X106491744Y-67074299D01*
X106491738Y-67074297D01*
X106366071Y-67049300D01*
X106366069Y-67049300D01*
X106237931Y-67049300D01*
X106237929Y-67049300D01*
X106112261Y-67074297D01*
X106112255Y-67074299D01*
X105993875Y-67123333D01*
X105988498Y-67126208D01*
X105987627Y-67124578D01*
X105929187Y-67142864D01*
X105865888Y-67125484D01*
X105865502Y-67126208D01*
X105862310Y-67124502D01*
X105861811Y-67124365D01*
X105860611Y-67123594D01*
X105860124Y-67123333D01*
X105741744Y-67074299D01*
X105741738Y-67074297D01*
X105616071Y-67049300D01*
X105616069Y-67049300D01*
X105487931Y-67049300D01*
X105487929Y-67049300D01*
X105362261Y-67074297D01*
X105362255Y-67074299D01*
X105243875Y-67123333D01*
X105243866Y-67123338D01*
X105137331Y-67194523D01*
X105137327Y-67194526D01*
X105046726Y-67285127D01*
X105046723Y-67285131D01*
X104975538Y-67391666D01*
X104975533Y-67391675D01*
X104926499Y-67510055D01*
X104926497Y-67510061D01*
X104901500Y-67635728D01*
X104901500Y-67635731D01*
X104901500Y-67763869D01*
X104901500Y-67763871D01*
X104901499Y-67763871D01*
X98849500Y-67763871D01*
X98849500Y-63507285D01*
X152300198Y-63507285D01*
X152392968Y-63554555D01*
X152587582Y-63617790D01*
X152789683Y-63649800D01*
X152994317Y-63649800D01*
X153196417Y-63617790D01*
X153391031Y-63554555D01*
X153483801Y-63507285D01*
X152892001Y-62915485D01*
X152892000Y-62915485D01*
X152300198Y-63507285D01*
X98849500Y-63507285D01*
X98849500Y-56513871D01*
X118901499Y-56513871D01*
X118926497Y-56639538D01*
X118926499Y-56639544D01*
X118975533Y-56757924D01*
X118978408Y-56763302D01*
X118976778Y-56764172D01*
X118995064Y-56822613D01*
X118977684Y-56885911D01*
X118978408Y-56886298D01*
X118976702Y-56889489D01*
X118976565Y-56889989D01*
X118975794Y-56891188D01*
X118975533Y-56891675D01*
X118926499Y-57010055D01*
X118926497Y-57010061D01*
X118901500Y-57135728D01*
X118901500Y-57135731D01*
X118901500Y-57263869D01*
X118901500Y-57263871D01*
X118901499Y-57263871D01*
X118926497Y-57389538D01*
X118926499Y-57389544D01*
X118975533Y-57507924D01*
X118978408Y-57513302D01*
X118976778Y-57514172D01*
X118995064Y-57572613D01*
X118977684Y-57635911D01*
X118978408Y-57636298D01*
X118976702Y-57639489D01*
X118976565Y-57639989D01*
X118975794Y-57641188D01*
X118975533Y-57641675D01*
X118926499Y-57760055D01*
X118926497Y-57760061D01*
X118901500Y-57885728D01*
X118901500Y-57885731D01*
X118901500Y-58013869D01*
X118901500Y-58013871D01*
X118901499Y-58013871D01*
X118926497Y-58139538D01*
X118926499Y-58139544D01*
X118975533Y-58257924D01*
X118978408Y-58263302D01*
X118976778Y-58264172D01*
X118995064Y-58322613D01*
X118977684Y-58385911D01*
X118978408Y-58386298D01*
X118976702Y-58389489D01*
X118976565Y-58389989D01*
X118975794Y-58391188D01*
X118975533Y-58391675D01*
X118926499Y-58510055D01*
X118926497Y-58510061D01*
X118901500Y-58635728D01*
X118901500Y-58635731D01*
X118901500Y-58763869D01*
X118901500Y-58763871D01*
X118901499Y-58763871D01*
X118926497Y-58889538D01*
X118926499Y-58889544D01*
X118975533Y-59007924D01*
X118978408Y-59013302D01*
X118976778Y-59014172D01*
X118995064Y-59072613D01*
X118977684Y-59135911D01*
X118978408Y-59136298D01*
X118976702Y-59139489D01*
X118976565Y-59139989D01*
X118975794Y-59141188D01*
X118975533Y-59141675D01*
X118926499Y-59260055D01*
X118926497Y-59260061D01*
X118901500Y-59385728D01*
X118901500Y-59385731D01*
X118901500Y-59513869D01*
X118901500Y-59513871D01*
X118901499Y-59513871D01*
X118926497Y-59639538D01*
X118926499Y-59639544D01*
X118975533Y-59757924D01*
X118978408Y-59763302D01*
X118976778Y-59764172D01*
X118995064Y-59822613D01*
X118977684Y-59885911D01*
X118978408Y-59886298D01*
X118976702Y-59889489D01*
X118976565Y-59889989D01*
X118975794Y-59891188D01*
X118975533Y-59891675D01*
X118926499Y-60010055D01*
X118926497Y-60010061D01*
X118901500Y-60135728D01*
X118901500Y-60135731D01*
X118901500Y-60263869D01*
X118901500Y-60263871D01*
X118901499Y-60263871D01*
X118926497Y-60389538D01*
X118926499Y-60389544D01*
X118975533Y-60507924D01*
X118978408Y-60513302D01*
X118976778Y-60514172D01*
X118995064Y-60572613D01*
X118977684Y-60635911D01*
X118978408Y-60636298D01*
X118976702Y-60639489D01*
X118976565Y-60639989D01*
X118975794Y-60641188D01*
X118975533Y-60641675D01*
X118926499Y-60760055D01*
X118926497Y-60760061D01*
X118901500Y-60885728D01*
X118901500Y-60885731D01*
X118901500Y-61013869D01*
X118901500Y-61013871D01*
X118901499Y-61013871D01*
X118926497Y-61139538D01*
X118926499Y-61139544D01*
X118975533Y-61257924D01*
X118978408Y-61263302D01*
X118976778Y-61264172D01*
X118995064Y-61322613D01*
X118977684Y-61385911D01*
X118978408Y-61386298D01*
X118976702Y-61389489D01*
X118976565Y-61389989D01*
X118975794Y-61391188D01*
X118975533Y-61391675D01*
X118926499Y-61510055D01*
X118926497Y-61510061D01*
X118901500Y-61635728D01*
X118901500Y-61635731D01*
X118901500Y-61763869D01*
X118901500Y-61763871D01*
X118901499Y-61763871D01*
X118926497Y-61889538D01*
X118926499Y-61889544D01*
X118975533Y-62007924D01*
X118975538Y-62007933D01*
X119046723Y-62114468D01*
X119046726Y-62114472D01*
X119137327Y-62205073D01*
X119137331Y-62205076D01*
X119243866Y-62276261D01*
X119243875Y-62276266D01*
X119270692Y-62287374D01*
X119362256Y-62325301D01*
X119362260Y-62325301D01*
X119362261Y-62325302D01*
X119487928Y-62350300D01*
X119487931Y-62350300D01*
X119616071Y-62350300D01*
X119700615Y-62333482D01*
X119741744Y-62325301D01*
X119860127Y-62276265D01*
X119860134Y-62276259D01*
X119865494Y-62273396D01*
X119866366Y-62275027D01*
X119924785Y-62256735D01*
X119988124Y-62274110D01*
X119988506Y-62273396D01*
X119991653Y-62275078D01*
X119992165Y-62275219D01*
X119993396Y-62276010D01*
X119993867Y-62276261D01*
X119993873Y-62276265D01*
X120112256Y-62325301D01*
X120112260Y-62325301D01*
X120112261Y-62325302D01*
X120237928Y-62350300D01*
X120237931Y-62350300D01*
X120366071Y-62350300D01*
X120450615Y-62333482D01*
X120491744Y-62325301D01*
X120610127Y-62276265D01*
X120610134Y-62276259D01*
X120615494Y-62273396D01*
X120616366Y-62275027D01*
X120674785Y-62256735D01*
X120738124Y-62274110D01*
X120738506Y-62273396D01*
X120741653Y-62275078D01*
X120742165Y-62275219D01*
X120743396Y-62276010D01*
X120743867Y-62276261D01*
X120743873Y-62276265D01*
X120862256Y-62325301D01*
X120862260Y-62325301D01*
X120862261Y-62325302D01*
X120987928Y-62350300D01*
X120987931Y-62350300D01*
X121116071Y-62350300D01*
X121200615Y-62333482D01*
X121241744Y-62325301D01*
X121360127Y-62276265D01*
X121403204Y-62247482D01*
X151592000Y-62247482D01*
X151592000Y-62452117D01*
X151624009Y-62654217D01*
X151687243Y-62848827D01*
X151687246Y-62848834D01*
X151734512Y-62941601D01*
X152326314Y-62349800D01*
X152326314Y-62349799D01*
X152259172Y-62282657D01*
X152382000Y-62282657D01*
X152382000Y-62416943D01*
X152416755Y-62546653D01*
X152483898Y-62662947D01*
X152578853Y-62757902D01*
X152695147Y-62825045D01*
X152824857Y-62859800D01*
X152959143Y-62859800D01*
X153088853Y-62825045D01*
X153205147Y-62757902D01*
X153300102Y-62662947D01*
X153367245Y-62546653D01*
X153402000Y-62416943D01*
X153402000Y-62349799D01*
X153457685Y-62349799D01*
X153457685Y-62349800D01*
X154049485Y-62941600D01*
X154096755Y-62848831D01*
X154159990Y-62654217D01*
X154192000Y-62452117D01*
X154192000Y-62247482D01*
X154159990Y-62045382D01*
X154096755Y-61850768D01*
X154049485Y-61757998D01*
X153457685Y-62349799D01*
X153402000Y-62349799D01*
X153402000Y-62282657D01*
X153367245Y-62152947D01*
X153300102Y-62036653D01*
X153205147Y-61941698D01*
X153088853Y-61874555D01*
X152959143Y-61839800D01*
X152824857Y-61839800D01*
X152695147Y-61874555D01*
X152578853Y-61941698D01*
X152483898Y-62036653D01*
X152416755Y-62152947D01*
X152382000Y-62282657D01*
X152259172Y-62282657D01*
X151734512Y-61757997D01*
X151687242Y-61850773D01*
X151687242Y-61850774D01*
X151624010Y-62045378D01*
X151624010Y-62045381D01*
X151592000Y-62247482D01*
X121403204Y-62247482D01*
X121466669Y-62205076D01*
X121466672Y-62205073D01*
X121516811Y-62154935D01*
X121557273Y-62114472D01*
X121557276Y-62114469D01*
X121628465Y-62007927D01*
X121677501Y-61889544D01*
X121702500Y-61763869D01*
X121702500Y-61635731D01*
X121702500Y-61635728D01*
X121677502Y-61510061D01*
X121677501Y-61510060D01*
X121677501Y-61510056D01*
X121628465Y-61391673D01*
X121628462Y-61391669D01*
X121625596Y-61386306D01*
X121627227Y-61385433D01*
X121608935Y-61327015D01*
X121626310Y-61263675D01*
X121625596Y-61263294D01*
X121627278Y-61260146D01*
X121627419Y-61259635D01*
X121628210Y-61258403D01*
X121628459Y-61257934D01*
X121628465Y-61257927D01*
X121677501Y-61139544D01*
X121700932Y-61021751D01*
X121702500Y-61013871D01*
X121702500Y-60885728D01*
X121677502Y-60760061D01*
X121677501Y-60760060D01*
X121677501Y-60760056D01*
X121628465Y-60641673D01*
X121628462Y-60641669D01*
X121625596Y-60636306D01*
X121627227Y-60635433D01*
X121608935Y-60577015D01*
X121626310Y-60513675D01*
X121625596Y-60513294D01*
X121627278Y-60510146D01*
X121627419Y-60509635D01*
X121628210Y-60508403D01*
X121628459Y-60507934D01*
X121628465Y-60507927D01*
X121677501Y-60389544D01*
X121702500Y-60263869D01*
X121702500Y-60135731D01*
X121702500Y-60135728D01*
X121677502Y-60010061D01*
X121677501Y-60010060D01*
X121677501Y-60010056D01*
X121628465Y-59891673D01*
X121628462Y-59891669D01*
X121625596Y-59886306D01*
X121627227Y-59885433D01*
X121608935Y-59827015D01*
X121626310Y-59763675D01*
X121625596Y-59763294D01*
X121627278Y-59760146D01*
X121627419Y-59759635D01*
X121628210Y-59758403D01*
X121628459Y-59757934D01*
X121628465Y-59757927D01*
X121677501Y-59639544D01*
X121702500Y-59513869D01*
X121702500Y-59385731D01*
X121702500Y-59385728D01*
X121677502Y-59260061D01*
X121677501Y-59260060D01*
X121677501Y-59260056D01*
X121628465Y-59141673D01*
X121628462Y-59141669D01*
X121625596Y-59136306D01*
X121627227Y-59135433D01*
X121608935Y-59077015D01*
X121626310Y-59013675D01*
X121625596Y-59013294D01*
X121627278Y-59010146D01*
X121627419Y-59009635D01*
X121628210Y-59008403D01*
X121628459Y-59007934D01*
X121628465Y-59007927D01*
X121677501Y-58889544D01*
X121702500Y-58763869D01*
X121702500Y-58635731D01*
X121702500Y-58635728D01*
X121677502Y-58510061D01*
X121677501Y-58510060D01*
X121677501Y-58510056D01*
X121628465Y-58391673D01*
X121628462Y-58391669D01*
X121625596Y-58386306D01*
X121627227Y-58385433D01*
X121608935Y-58327015D01*
X121626310Y-58263675D01*
X121625596Y-58263294D01*
X121627278Y-58260146D01*
X121627419Y-58259635D01*
X121628210Y-58258403D01*
X121628459Y-58257934D01*
X121628465Y-58257927D01*
X121677501Y-58139544D01*
X121702500Y-58013869D01*
X121702500Y-57885731D01*
X121702500Y-57885728D01*
X121677502Y-57760061D01*
X121677501Y-57760060D01*
X121677501Y-57760056D01*
X121628465Y-57641673D01*
X121628462Y-57641669D01*
X121625596Y-57636306D01*
X121627227Y-57635433D01*
X121608935Y-57577015D01*
X121626310Y-57513675D01*
X121625596Y-57513294D01*
X121627278Y-57510146D01*
X121627419Y-57509635D01*
X121628210Y-57508403D01*
X121628459Y-57507934D01*
X121628465Y-57507927D01*
X121677501Y-57389544D01*
X121695618Y-57298467D01*
X121702500Y-57263871D01*
X121702500Y-57135728D01*
X121677502Y-57010061D01*
X121677501Y-57010060D01*
X121677501Y-57010056D01*
X121628465Y-56891673D01*
X121628462Y-56891669D01*
X121625596Y-56886306D01*
X121627227Y-56885433D01*
X121608935Y-56827015D01*
X121615752Y-56784195D01*
X121620966Y-56769149D01*
X121628465Y-56757927D01*
X121677501Y-56639544D01*
X121685710Y-56598275D01*
X123091500Y-56598275D01*
X123091500Y-58181317D01*
X123100118Y-58235728D01*
X123106354Y-58275104D01*
X123163950Y-58388142D01*
X123163952Y-58388144D01*
X123163954Y-58388147D01*
X123253652Y-58477845D01*
X123253654Y-58477846D01*
X123253658Y-58477850D01*
X123366694Y-58535445D01*
X123366698Y-58535447D01*
X123460475Y-58550299D01*
X123460481Y-58550300D01*
X125043518Y-58550299D01*
X125137304Y-58535446D01*
X125250342Y-58477850D01*
X125340050Y-58388142D01*
X125350938Y-58366773D01*
X126840710Y-58366773D01*
X126942808Y-58409064D01*
X126942816Y-58409066D01*
X127147594Y-58449799D01*
X127147598Y-58449800D01*
X127356402Y-58449800D01*
X127356405Y-58449799D01*
X127561183Y-58409066D01*
X127561187Y-58409065D01*
X127663288Y-58366773D01*
X129840710Y-58366773D01*
X129942808Y-58409064D01*
X129942816Y-58409066D01*
X130147594Y-58449799D01*
X130147598Y-58449800D01*
X130356402Y-58449800D01*
X130356405Y-58449799D01*
X130561183Y-58409066D01*
X130561187Y-58409065D01*
X130663288Y-58366773D01*
X130252001Y-57955486D01*
X130252000Y-57955486D01*
X129840710Y-58366773D01*
X127663288Y-58366773D01*
X127252001Y-57955486D01*
X127252000Y-57955486D01*
X126840710Y-58366773D01*
X125350938Y-58366773D01*
X125397646Y-58275104D01*
X125399378Y-58264172D01*
X125412499Y-58181324D01*
X125412500Y-58181319D01*
X125412499Y-57285394D01*
X126192000Y-57285394D01*
X126192000Y-57494205D01*
X126232733Y-57698983D01*
X126232735Y-57698991D01*
X126275025Y-57801088D01*
X126686314Y-57389800D01*
X126686314Y-57389799D01*
X126619172Y-57322657D01*
X126742000Y-57322657D01*
X126742000Y-57456943D01*
X126776755Y-57586653D01*
X126843898Y-57702947D01*
X126938853Y-57797902D01*
X127055147Y-57865045D01*
X127184857Y-57899800D01*
X127319143Y-57899800D01*
X127448853Y-57865045D01*
X127565147Y-57797902D01*
X127660102Y-57702947D01*
X127727245Y-57586653D01*
X127762000Y-57456943D01*
X127762000Y-57389799D01*
X127817686Y-57389799D01*
X127817686Y-57389800D01*
X128228973Y-57801088D01*
X128271265Y-57698987D01*
X128271266Y-57698983D01*
X128311999Y-57494205D01*
X128312000Y-57494202D01*
X128312000Y-57285398D01*
X128311999Y-57285394D01*
X129192000Y-57285394D01*
X129192000Y-57494205D01*
X129232733Y-57698983D01*
X129232735Y-57698991D01*
X129275025Y-57801088D01*
X129686314Y-57389800D01*
X129686314Y-57389799D01*
X129619172Y-57322657D01*
X129742000Y-57322657D01*
X129742000Y-57456943D01*
X129776755Y-57586653D01*
X129843898Y-57702947D01*
X129938853Y-57797902D01*
X130055147Y-57865045D01*
X130184857Y-57899800D01*
X130319143Y-57899800D01*
X130448853Y-57865045D01*
X130565147Y-57797902D01*
X130660102Y-57702947D01*
X130727245Y-57586653D01*
X130762000Y-57456943D01*
X130762000Y-57389799D01*
X130817686Y-57389799D01*
X130817686Y-57389801D01*
X131228973Y-57801088D01*
X131271265Y-57698987D01*
X131271266Y-57698983D01*
X131311999Y-57494205D01*
X131312000Y-57494202D01*
X131312000Y-57298467D01*
X132091500Y-57298467D01*
X132091500Y-57481133D01*
X132095743Y-57507924D01*
X132120075Y-57661547D01*
X132120075Y-57661548D01*
X132120076Y-57661551D01*
X132176523Y-57835277D01*
X132259452Y-57998034D01*
X132366821Y-58145815D01*
X132495985Y-58274979D01*
X132643766Y-58382348D01*
X132806523Y-58465277D01*
X132980249Y-58521724D01*
X133160667Y-58550300D01*
X133160668Y-58550300D01*
X133343332Y-58550300D01*
X133343333Y-58550300D01*
X133523751Y-58521724D01*
X133697477Y-58465277D01*
X133860234Y-58382348D01*
X134008015Y-58274979D01*
X134137179Y-58145815D01*
X134244548Y-57998034D01*
X134327477Y-57835277D01*
X134383924Y-57661551D01*
X134412500Y-57481133D01*
X134412500Y-57298467D01*
X134383924Y-57118049D01*
X134327477Y-56944323D01*
X134244548Y-56781566D01*
X134137179Y-56633785D01*
X134008015Y-56504621D01*
X133860234Y-56397252D01*
X133783989Y-56358403D01*
X133697479Y-56314324D01*
X133697478Y-56314323D01*
X133697477Y-56314323D01*
X133523751Y-56257876D01*
X133523749Y-56257875D01*
X133523747Y-56257875D01*
X133397778Y-56237923D01*
X133343333Y-56229300D01*
X133160667Y-56229300D01*
X133118843Y-56235924D01*
X132980252Y-56257875D01*
X132980251Y-56257875D01*
X132806520Y-56314324D01*
X132643765Y-56397252D01*
X132495982Y-56504623D01*
X132366823Y-56633782D01*
X132259452Y-56781565D01*
X132176524Y-56944320D01*
X132120075Y-57118051D01*
X132120075Y-57118052D01*
X132093571Y-57285394D01*
X132091500Y-57298467D01*
X131312000Y-57298467D01*
X131312000Y-57285398D01*
X131311999Y-57285394D01*
X131271266Y-57080616D01*
X131271264Y-57080608D01*
X131228973Y-56978510D01*
X130817686Y-57389799D01*
X130762000Y-57389799D01*
X130762000Y-57322657D01*
X130727245Y-57192947D01*
X130660102Y-57076653D01*
X130565147Y-56981698D01*
X130448853Y-56914555D01*
X130319143Y-56879800D01*
X130184857Y-56879800D01*
X130055147Y-56914555D01*
X129938853Y-56981698D01*
X129843898Y-57076653D01*
X129776755Y-57192947D01*
X129742000Y-57322657D01*
X129619172Y-57322657D01*
X129275025Y-56978510D01*
X129232735Y-57080607D01*
X129232732Y-57080616D01*
X129192000Y-57285394D01*
X128311999Y-57285394D01*
X128271266Y-57080616D01*
X128271264Y-57080608D01*
X128228973Y-56978510D01*
X127817686Y-57389799D01*
X127762000Y-57389799D01*
X127762000Y-57322657D01*
X127727245Y-57192947D01*
X127660102Y-57076653D01*
X127565147Y-56981698D01*
X127448853Y-56914555D01*
X127319143Y-56879800D01*
X127184857Y-56879800D01*
X127055147Y-56914555D01*
X126938853Y-56981698D01*
X126843898Y-57076653D01*
X126776755Y-57192947D01*
X126742000Y-57322657D01*
X126619172Y-57322657D01*
X126275025Y-56978510D01*
X126232735Y-57080607D01*
X126232732Y-57080616D01*
X126192000Y-57285394D01*
X125412499Y-57285394D01*
X125412499Y-56598282D01*
X125397646Y-56504496D01*
X125350937Y-56412825D01*
X126840710Y-56412825D01*
X127252000Y-56824114D01*
X127252001Y-56824114D01*
X127663288Y-56412825D01*
X129840710Y-56412825D01*
X130252000Y-56824114D01*
X130252001Y-56824114D01*
X130663288Y-56412825D01*
X130561191Y-56370535D01*
X130561183Y-56370533D01*
X130356405Y-56329800D01*
X130147594Y-56329800D01*
X129942816Y-56370532D01*
X129942807Y-56370535D01*
X129840710Y-56412825D01*
X127663288Y-56412825D01*
X127561191Y-56370535D01*
X127561183Y-56370533D01*
X127356405Y-56329800D01*
X127147594Y-56329800D01*
X126942816Y-56370532D01*
X126942807Y-56370535D01*
X126840710Y-56412825D01*
X125350937Y-56412825D01*
X125340050Y-56391458D01*
X125340048Y-56391456D01*
X125340045Y-56391452D01*
X125250347Y-56301754D01*
X125250344Y-56301752D01*
X125250342Y-56301750D01*
X125164233Y-56257875D01*
X125137301Y-56244152D01*
X125043524Y-56229300D01*
X123460482Y-56229300D01*
X123379519Y-56242123D01*
X123366696Y-56244154D01*
X123253658Y-56301750D01*
X123253657Y-56301751D01*
X123253652Y-56301754D01*
X123163954Y-56391452D01*
X123163951Y-56391457D01*
X123106352Y-56504498D01*
X123091500Y-56598275D01*
X121685710Y-56598275D01*
X121693152Y-56560859D01*
X121693154Y-56560856D01*
X121702499Y-56513873D01*
X121702500Y-56513871D01*
X121702500Y-56385728D01*
X121677502Y-56260061D01*
X121677501Y-56260060D01*
X121677501Y-56260056D01*
X121628465Y-56141673D01*
X121628464Y-56141672D01*
X121628461Y-56141666D01*
X121609889Y-56113871D01*
X135501499Y-56113871D01*
X135526497Y-56239538D01*
X135526499Y-56239544D01*
X135575533Y-56357924D01*
X135578408Y-56363302D01*
X135576778Y-56364172D01*
X135595064Y-56422613D01*
X135577684Y-56485911D01*
X135578408Y-56486298D01*
X135576702Y-56489489D01*
X135576565Y-56489989D01*
X135575794Y-56491188D01*
X135575533Y-56491675D01*
X135526499Y-56610055D01*
X135526497Y-56610061D01*
X135501500Y-56735728D01*
X135501500Y-56735731D01*
X135501500Y-56863869D01*
X135501500Y-56863871D01*
X135501499Y-56863871D01*
X135526497Y-56989538D01*
X135526499Y-56989544D01*
X135575533Y-57107924D01*
X135578408Y-57113302D01*
X135576778Y-57114172D01*
X135595064Y-57172613D01*
X135577684Y-57235911D01*
X135578408Y-57236298D01*
X135576702Y-57239489D01*
X135576565Y-57239989D01*
X135575794Y-57241188D01*
X135575533Y-57241675D01*
X135526499Y-57360055D01*
X135526497Y-57360061D01*
X135501500Y-57485728D01*
X135501500Y-57485731D01*
X135501500Y-57613869D01*
X135501500Y-57613871D01*
X135501499Y-57613871D01*
X135526497Y-57739538D01*
X135526499Y-57739544D01*
X135575533Y-57857924D01*
X135578408Y-57863302D01*
X135576778Y-57864172D01*
X135595064Y-57922613D01*
X135577684Y-57985911D01*
X135578408Y-57986298D01*
X135576702Y-57989489D01*
X135576565Y-57989989D01*
X135575794Y-57991188D01*
X135575533Y-57991675D01*
X135526499Y-58110055D01*
X135526497Y-58110061D01*
X135501500Y-58235728D01*
X135501500Y-58235731D01*
X135501500Y-58363869D01*
X135501500Y-58363871D01*
X135501499Y-58363871D01*
X135526497Y-58489538D01*
X135526499Y-58489544D01*
X135575533Y-58607924D01*
X135578408Y-58613302D01*
X135576778Y-58614172D01*
X135595064Y-58672613D01*
X135577684Y-58735911D01*
X135578408Y-58736298D01*
X135576702Y-58739489D01*
X135576565Y-58739989D01*
X135575794Y-58741188D01*
X135575533Y-58741675D01*
X135526499Y-58860055D01*
X135526497Y-58860061D01*
X135501500Y-58985728D01*
X135501500Y-58985731D01*
X135501500Y-59113869D01*
X135501500Y-59113871D01*
X135501499Y-59113871D01*
X135526497Y-59239538D01*
X135526499Y-59239544D01*
X135575533Y-59357924D01*
X135578408Y-59363302D01*
X135576778Y-59364172D01*
X135595064Y-59422613D01*
X135577684Y-59485911D01*
X135578408Y-59486298D01*
X135576702Y-59489489D01*
X135576565Y-59489989D01*
X135575794Y-59491188D01*
X135575533Y-59491675D01*
X135526499Y-59610055D01*
X135526497Y-59610061D01*
X135501500Y-59735728D01*
X135501500Y-59735731D01*
X135501500Y-59863869D01*
X135501500Y-59863871D01*
X135501499Y-59863871D01*
X135526497Y-59989538D01*
X135526499Y-59989544D01*
X135575533Y-60107924D01*
X135578408Y-60113302D01*
X135576778Y-60114172D01*
X135595064Y-60172613D01*
X135577684Y-60235911D01*
X135578408Y-60236298D01*
X135576702Y-60239489D01*
X135576565Y-60239989D01*
X135575794Y-60241188D01*
X135575533Y-60241675D01*
X135526499Y-60360055D01*
X135526497Y-60360061D01*
X135501500Y-60485728D01*
X135501500Y-60485731D01*
X135501500Y-60613869D01*
X135501500Y-60613871D01*
X135501499Y-60613871D01*
X135526497Y-60739538D01*
X135526499Y-60739544D01*
X135575533Y-60857924D01*
X135578408Y-60863302D01*
X135576778Y-60864172D01*
X135595064Y-60922613D01*
X135577684Y-60985911D01*
X135578408Y-60986298D01*
X135576702Y-60989489D01*
X135576565Y-60989989D01*
X135575794Y-60991188D01*
X135575533Y-60991675D01*
X135526499Y-61110055D01*
X135526497Y-61110061D01*
X135501500Y-61235728D01*
X135501500Y-61235731D01*
X135501500Y-61363869D01*
X135501500Y-61363871D01*
X135501499Y-61363871D01*
X135526497Y-61489538D01*
X135526499Y-61489544D01*
X135575533Y-61607924D01*
X135575538Y-61607933D01*
X135646723Y-61714468D01*
X135646726Y-61714472D01*
X135737327Y-61805073D01*
X135737331Y-61805076D01*
X135843866Y-61876261D01*
X135843872Y-61876264D01*
X135843873Y-61876265D01*
X135962256Y-61925301D01*
X135962260Y-61925301D01*
X135962261Y-61925302D01*
X136087928Y-61950300D01*
X136087931Y-61950300D01*
X136216071Y-61950300D01*
X136300615Y-61933482D01*
X136341744Y-61925301D01*
X136460127Y-61876265D01*
X136460134Y-61876259D01*
X136465494Y-61873396D01*
X136466366Y-61875027D01*
X136524785Y-61856735D01*
X136588124Y-61874110D01*
X136588506Y-61873396D01*
X136591653Y-61875078D01*
X136592165Y-61875219D01*
X136593396Y-61876010D01*
X136593867Y-61876261D01*
X136593873Y-61876265D01*
X136712256Y-61925301D01*
X136712260Y-61925301D01*
X136712261Y-61925302D01*
X136837928Y-61950300D01*
X136837931Y-61950300D01*
X136966071Y-61950300D01*
X137050615Y-61933482D01*
X137091744Y-61925301D01*
X137210127Y-61876265D01*
X137210134Y-61876259D01*
X137215494Y-61873396D01*
X137216366Y-61875027D01*
X137274785Y-61856735D01*
X137338124Y-61874110D01*
X137338506Y-61873396D01*
X137341653Y-61875078D01*
X137342165Y-61875219D01*
X137343396Y-61876010D01*
X137343867Y-61876261D01*
X137343873Y-61876265D01*
X137462256Y-61925301D01*
X137462260Y-61925301D01*
X137462261Y-61925302D01*
X137587928Y-61950300D01*
X137587931Y-61950300D01*
X137716071Y-61950300D01*
X137800615Y-61933482D01*
X137841744Y-61925301D01*
X137960127Y-61876265D01*
X138066669Y-61805076D01*
X138157276Y-61714469D01*
X138228465Y-61607927D01*
X138277501Y-61489544D01*
X138296969Y-61391674D01*
X138302500Y-61363871D01*
X138302500Y-61235728D01*
X138293864Y-61192312D01*
X152300197Y-61192312D01*
X152892000Y-61784114D01*
X152892001Y-61784114D01*
X153357839Y-61318275D01*
X154991500Y-61318275D01*
X154991500Y-63381317D01*
X155002292Y-63449457D01*
X155006354Y-63475104D01*
X155063950Y-63588142D01*
X155063952Y-63588144D01*
X155063954Y-63588147D01*
X155153652Y-63677845D01*
X155153654Y-63677846D01*
X155153658Y-63677850D01*
X155266694Y-63735445D01*
X155266698Y-63735447D01*
X155360475Y-63750299D01*
X155360481Y-63750300D01*
X157423518Y-63750299D01*
X157517304Y-63735446D01*
X157630342Y-63677850D01*
X157720050Y-63588142D01*
X157777646Y-63475104D01*
X157777646Y-63475102D01*
X157777647Y-63475101D01*
X157792499Y-63381324D01*
X157792500Y-63381319D01*
X157792499Y-61318282D01*
X157777646Y-61224496D01*
X157720050Y-61111458D01*
X157720046Y-61111454D01*
X157720045Y-61111452D01*
X157630347Y-61021754D01*
X157630344Y-61021752D01*
X157630342Y-61021750D01*
X157553517Y-60982605D01*
X157517301Y-60964152D01*
X157423524Y-60949300D01*
X155360482Y-60949300D01*
X155279519Y-60962123D01*
X155266696Y-60964154D01*
X155153658Y-61021750D01*
X155153657Y-61021751D01*
X155153652Y-61021754D01*
X155063954Y-61111452D01*
X155063951Y-61111457D01*
X155063950Y-61111458D01*
X155046838Y-61145042D01*
X155006352Y-61224498D01*
X154991500Y-61318275D01*
X153357839Y-61318275D01*
X153450386Y-61225728D01*
X153483801Y-61192312D01*
X153391034Y-61145046D01*
X153391027Y-61145043D01*
X153196417Y-61081809D01*
X152994317Y-61049800D01*
X152789683Y-61049800D01*
X152587581Y-61081810D01*
X152587578Y-61081810D01*
X152392974Y-61145042D01*
X152392973Y-61145042D01*
X152300197Y-61192312D01*
X138293864Y-61192312D01*
X138277502Y-61110061D01*
X138277501Y-61110060D01*
X138277501Y-61110056D01*
X138228465Y-60991673D01*
X138228462Y-60991669D01*
X138225596Y-60986306D01*
X138227227Y-60985433D01*
X138208935Y-60927015D01*
X138226310Y-60863675D01*
X138225596Y-60863294D01*
X138227278Y-60860146D01*
X138227419Y-60859635D01*
X138228210Y-60858403D01*
X138228459Y-60857934D01*
X138228465Y-60857927D01*
X138277501Y-60739544D01*
X138296969Y-60641674D01*
X138302500Y-60613871D01*
X138302500Y-60485728D01*
X138277502Y-60360061D01*
X138277501Y-60360060D01*
X138277501Y-60360056D01*
X138228465Y-60241673D01*
X138228462Y-60241669D01*
X138225596Y-60236306D01*
X138227227Y-60235433D01*
X138208935Y-60177015D01*
X138226310Y-60113675D01*
X138225596Y-60113294D01*
X138227278Y-60110146D01*
X138227419Y-60109635D01*
X138228210Y-60108403D01*
X138228459Y-60107934D01*
X138228465Y-60107927D01*
X138277501Y-59989544D01*
X138296969Y-59891674D01*
X138302500Y-59863871D01*
X138302500Y-59735728D01*
X138277502Y-59610061D01*
X138277501Y-59610060D01*
X138277501Y-59610056D01*
X138228465Y-59491673D01*
X138228462Y-59491669D01*
X138225596Y-59486306D01*
X138227227Y-59485433D01*
X138208935Y-59427015D01*
X138226310Y-59363675D01*
X138225596Y-59363294D01*
X138227278Y-59360146D01*
X138227419Y-59359635D01*
X138228210Y-59358403D01*
X138228459Y-59357934D01*
X138228465Y-59357927D01*
X138277501Y-59239544D01*
X138296969Y-59141674D01*
X138302500Y-59113871D01*
X138302500Y-58985728D01*
X138277502Y-58860061D01*
X138277501Y-58860060D01*
X138277501Y-58860056D01*
X138228465Y-58741673D01*
X138228462Y-58741669D01*
X138225596Y-58736306D01*
X138227227Y-58735433D01*
X138208935Y-58677015D01*
X138226310Y-58613675D01*
X138225596Y-58613294D01*
X138227278Y-58610146D01*
X138227419Y-58609635D01*
X138228210Y-58608403D01*
X138228459Y-58607934D01*
X138228465Y-58607927D01*
X138277501Y-58489544D01*
X138296969Y-58391674D01*
X138302500Y-58363871D01*
X138302500Y-58235728D01*
X138277502Y-58110061D01*
X138277501Y-58110060D01*
X138277501Y-58110056D01*
X138228465Y-57991673D01*
X138228462Y-57991669D01*
X138225596Y-57986306D01*
X138227227Y-57985433D01*
X138208935Y-57927015D01*
X138226310Y-57863675D01*
X138225596Y-57863294D01*
X138227278Y-57860146D01*
X138227419Y-57859635D01*
X138228210Y-57858403D01*
X138228459Y-57857934D01*
X138228465Y-57857927D01*
X138277501Y-57739544D01*
X138296969Y-57641674D01*
X138302500Y-57613871D01*
X138302500Y-57485728D01*
X138277502Y-57360061D01*
X138277501Y-57360060D01*
X138277501Y-57360056D01*
X138228465Y-57241673D01*
X138228462Y-57241669D01*
X138225596Y-57236306D01*
X138227227Y-57235433D01*
X138208935Y-57177015D01*
X138226310Y-57113675D01*
X138225596Y-57113294D01*
X138227278Y-57110146D01*
X138227419Y-57109635D01*
X138228210Y-57108403D01*
X138228459Y-57107934D01*
X138228465Y-57107927D01*
X138277501Y-56989544D01*
X138296969Y-56891674D01*
X138302500Y-56863871D01*
X138302500Y-56735728D01*
X138277502Y-56610061D01*
X138277501Y-56610060D01*
X138277501Y-56610056D01*
X138228465Y-56491673D01*
X138228462Y-56491669D01*
X138225596Y-56486306D01*
X138227227Y-56485433D01*
X138208935Y-56427015D01*
X138226310Y-56363675D01*
X138225596Y-56363294D01*
X138227278Y-56360146D01*
X138227419Y-56359635D01*
X138228210Y-56358403D01*
X138228459Y-56357934D01*
X138228465Y-56357927D01*
X138277501Y-56239544D01*
X138285682Y-56198415D01*
X138302500Y-56113871D01*
X138302500Y-55985728D01*
X138277502Y-55860061D01*
X138277501Y-55860060D01*
X138277501Y-55860056D01*
X138228465Y-55741673D01*
X138228464Y-55741672D01*
X138228461Y-55741666D01*
X138157276Y-55635131D01*
X138157273Y-55635127D01*
X138066672Y-55544526D01*
X138066668Y-55544523D01*
X137960133Y-55473338D01*
X137960124Y-55473333D01*
X137841744Y-55424299D01*
X137841738Y-55424297D01*
X137716071Y-55399300D01*
X137716069Y-55399300D01*
X137587931Y-55399300D01*
X137587929Y-55399300D01*
X137462261Y-55424297D01*
X137462255Y-55424299D01*
X137343875Y-55473333D01*
X137338498Y-55476208D01*
X137337627Y-55474578D01*
X137279187Y-55492864D01*
X137215888Y-55475484D01*
X137215502Y-55476208D01*
X137212310Y-55474502D01*
X137211811Y-55474365D01*
X137210611Y-55473594D01*
X137210124Y-55473333D01*
X137091744Y-55424299D01*
X137091738Y-55424297D01*
X136966071Y-55399300D01*
X136966069Y-55399300D01*
X136837931Y-55399300D01*
X136837929Y-55399300D01*
X136712261Y-55424297D01*
X136712255Y-55424299D01*
X136593875Y-55473333D01*
X136588498Y-55476208D01*
X136587627Y-55474578D01*
X136529187Y-55492864D01*
X136465888Y-55475484D01*
X136465502Y-55476208D01*
X136462310Y-55474502D01*
X136461811Y-55474365D01*
X136460611Y-55473594D01*
X136460124Y-55473333D01*
X136341744Y-55424299D01*
X136341738Y-55424297D01*
X136216071Y-55399300D01*
X136216069Y-55399300D01*
X136087931Y-55399300D01*
X136087929Y-55399300D01*
X135962261Y-55424297D01*
X135962255Y-55424299D01*
X135843875Y-55473333D01*
X135843866Y-55473338D01*
X135737331Y-55544523D01*
X135737327Y-55544526D01*
X135646726Y-55635127D01*
X135646723Y-55635131D01*
X135575538Y-55741666D01*
X135575533Y-55741675D01*
X135526499Y-55860055D01*
X135526497Y-55860061D01*
X135501500Y-55985728D01*
X135501500Y-55985731D01*
X135501500Y-56113869D01*
X135501500Y-56113871D01*
X135501499Y-56113871D01*
X121609889Y-56113871D01*
X121566229Y-56048530D01*
X121566228Y-56048529D01*
X121557274Y-56035128D01*
X121466672Y-55944526D01*
X121466668Y-55944523D01*
X121360133Y-55873338D01*
X121360124Y-55873333D01*
X121241744Y-55824299D01*
X121241738Y-55824297D01*
X121116071Y-55799300D01*
X121116069Y-55799300D01*
X120987931Y-55799300D01*
X120987929Y-55799300D01*
X120862261Y-55824297D01*
X120862255Y-55824299D01*
X120743875Y-55873333D01*
X120738498Y-55876208D01*
X120737627Y-55874578D01*
X120679187Y-55892864D01*
X120615888Y-55875484D01*
X120615502Y-55876208D01*
X120612310Y-55874502D01*
X120611811Y-55874365D01*
X120610611Y-55873594D01*
X120610124Y-55873333D01*
X120491744Y-55824299D01*
X120491738Y-55824297D01*
X120366071Y-55799300D01*
X120366069Y-55799300D01*
X120237931Y-55799300D01*
X120237929Y-55799300D01*
X120112261Y-55824297D01*
X120112255Y-55824299D01*
X119993875Y-55873333D01*
X119988498Y-55876208D01*
X119987627Y-55874578D01*
X119929187Y-55892864D01*
X119865888Y-55875484D01*
X119865502Y-55876208D01*
X119862310Y-55874502D01*
X119861811Y-55874365D01*
X119860611Y-55873594D01*
X119860124Y-55873333D01*
X119741744Y-55824299D01*
X119741738Y-55824297D01*
X119616071Y-55799300D01*
X119616069Y-55799300D01*
X119487931Y-55799300D01*
X119487929Y-55799300D01*
X119362261Y-55824297D01*
X119362255Y-55824299D01*
X119243875Y-55873333D01*
X119243866Y-55873338D01*
X119137331Y-55944523D01*
X119137327Y-55944526D01*
X119046726Y-56035127D01*
X119046723Y-56035131D01*
X118975538Y-56141666D01*
X118975533Y-56141675D01*
X118926499Y-56260055D01*
X118926497Y-56260061D01*
X118901500Y-56385728D01*
X118901500Y-56385731D01*
X118901500Y-56513869D01*
X118901500Y-56513871D01*
X118901499Y-56513871D01*
X98849500Y-56513871D01*
X98849500Y-49624500D01*
X98869185Y-49557461D01*
X98921989Y-49511706D01*
X98973500Y-49500500D01*
X111139554Y-49500500D01*
X111206593Y-49520185D01*
G37*
%TD.AperFunction*%
D20*
X98349000Y-49000000D02*
X166000000Y-49000000D01*
X166000000Y-118000000D01*
X98349000Y-118000000D01*
X98349000Y-49000000D01*
M02*
