M48
; DRILL file {KiCad 9.0.0} date 2026-02-04T15:59:30+0700
; FORMAT={-:-/ absolute / metric / decimal}
; #@! TF.CreationDate,2026-02-04T15:59:30+07:00
; #@! TF.GenerationSoftware,Kicad,Pcbnew,9.0.0
; #@! TF.FileFunction,Plated,1,4,PTH
FMAT,2
METRIC
; #@! TA.AperFunction,Plated,PTH,ViaDrill
T1C0.300
; #@! TA.AperFunction,Plated,PTH,ComponentDrill
T2C0.300
; #@! TA.AperFunction,Plated,PTH,ComponentDrill
T3C1.000
; #@! TA.AperFunction,Plated,PTH,ComponentDrill
T4C1.020
; #@! TA.AperFunction,Plated,PTH,ComponentDrill
T5C1.753
; #@! TA.AperFunction,Plated,PTH,ComponentDrill
T6C3.100
%
G90
G05
T1
X101.552Y-59.95
X101.552Y-60.7
X101.552Y-61.45
X101.552Y-62.2
X102.302Y-59.95
X102.302Y-60.7
X102.302Y-61.45
X102.302Y-62.2
X105.552Y-67.7
X105.552Y-68.45
X105.552Y-69.2
X105.627Y-74.95
X105.627Y-75.7
X105.727Y-92.8
X105.727Y-93.55
X106.302Y-67.7
X106.302Y-68.45
X106.302Y-69.2
X106.302Y-85.24
X106.302Y-85.99
X106.302Y-86.74
X106.377Y-74.95
X106.377Y-75.7
X106.477Y-92.8
X106.477Y-93.55
X107.052Y-67.7
X107.052Y-68.45
X107.052Y-69.2
X107.052Y-85.24
X107.052Y-85.99
X107.052Y-86.74
X107.127Y-74.95
X107.127Y-75.7
X107.227Y-92.8
X107.227Y-93.55
X107.302Y-102.95
X107.302Y-103.7
X107.302Y-104.45
X107.302Y-105.2
X107.302Y-105.95
X107.802Y-67.7
X107.802Y-68.45
X107.802Y-69.2
X107.802Y-85.24
X107.802Y-85.99
X107.802Y-86.74
X108.052Y-102.95
X108.052Y-103.7
X108.052Y-104.45
X108.052Y-105.2
X108.052Y-105.95
X108.352Y-75.525
X108.452Y-93.375
X108.552Y-67.7
X108.552Y-68.45
X108.552Y-69.2
X108.552Y-85.24
X108.552Y-85.99
X108.552Y-86.74
X109.302Y-85.24
X109.302Y-85.99
X109.302Y-86.74
X109.377Y-75.5
X109.477Y-93.35
X110.552Y-75.1
X110.552Y-75.85
X110.652Y-92.95
X110.652Y-93.7
X111.302Y-75.1
X111.302Y-75.85
X111.402Y-92.95
X111.402Y-93.7
X112.052Y-75.1
X112.052Y-75.85
X112.152Y-92.95
X112.152Y-93.7
X116.302Y-102.95
X116.302Y-103.7
X116.302Y-104.45
X116.302Y-105.2
X116.302Y-105.95
X116.952Y-92.8
X116.952Y-93.55
X117.052Y-102.95
X117.052Y-103.7
X117.052Y-104.45
X117.052Y-105.2
X117.052Y-105.95
X117.492Y-84.96
X117.492Y-85.71
X117.492Y-86.46
X117.702Y-92.8
X117.702Y-93.55
X118.242Y-84.96
X118.242Y-85.71
X118.242Y-86.46
X118.452Y-92.8
X118.452Y-93.55
X118.992Y-84.96
X118.992Y-85.71
X118.992Y-86.46
X119.552Y-56.45
X119.552Y-57.2
X119.552Y-57.95
X119.552Y-58.7
X119.552Y-59.45
X119.552Y-60.2
X119.552Y-60.95
X119.552Y-61.7
X119.677Y-93.375
X119.742Y-84.96
X119.742Y-85.71
X119.742Y-86.46
X120.302Y-56.45
X120.302Y-57.2
X120.302Y-57.95
X120.302Y-58.7
X120.302Y-59.45
X120.302Y-60.2
X120.302Y-60.95
X120.302Y-61.7
X120.492Y-84.96
X120.492Y-85.71
X120.492Y-86.46
X120.702Y-93.35
X121.052Y-56.45
X121.052Y-57.2
X121.052Y-57.95
X121.052Y-58.7
X121.052Y-59.45
X121.052Y-60.2
X121.052Y-60.95
X121.052Y-61.7
X121.877Y-92.95
X121.877Y-93.7
X122.627Y-92.95
X122.627Y-93.7
X123.377Y-92.95
X123.377Y-93.7
X127.102Y-59.15
X127.102Y-59.9
X127.102Y-60.65
X127.102Y-61.4
X127.102Y-62.15
X127.102Y-62.9
X127.102Y-63.65
X127.102Y-64.4
X127.102Y-65.15
X127.327Y-92.8
X127.327Y-93.55
X127.852Y-59.15
X127.852Y-59.9
X127.852Y-60.65
X127.852Y-61.4
X127.852Y-62.15
X127.852Y-62.9
X127.852Y-63.65
X127.852Y-64.4
X127.852Y-65.15
X127.954Y-84.95
X127.954Y-85.7
X127.954Y-86.45
X128.077Y-92.8
X128.077Y-93.55
X128.704Y-84.95
X128.704Y-85.7
X128.704Y-86.45
X128.827Y-92.8
X128.827Y-93.55
X129.454Y-84.95
X129.454Y-85.7
X129.454Y-86.45
X129.602Y-59.15
X129.602Y-59.9
X129.602Y-60.65
X129.602Y-61.4
X129.602Y-62.15
X129.602Y-62.9
X129.602Y-63.65
X129.602Y-64.4
X129.602Y-65.15
X130.052Y-93.375
X130.204Y-84.95
X130.204Y-85.7
X130.204Y-86.45
X130.352Y-59.15
X130.352Y-59.9
X130.352Y-60.65
X130.352Y-61.4
X130.352Y-62.15
X130.352Y-62.9
X130.352Y-63.65
X130.352Y-64.4
X130.352Y-65.15
X130.954Y-84.95
X130.954Y-85.7
X130.954Y-86.45
X131.077Y-93.35
X131.279Y-90.5
X131.603Y-102.95
X132.252Y-92.95
X132.252Y-93.7
X132.353Y-102.95
X133.002Y-92.95
X133.002Y-93.7
X133.103Y-102.95
X133.752Y-92.95
X133.752Y-93.7
X133.853Y-102.95
X134.603Y-102.95
X134.603Y-103.7
X134.603Y-104.45
X134.603Y-105.2
X134.603Y-105.95
X135.353Y-102.95
X135.353Y-103.7
X135.353Y-104.45
X135.353Y-105.2
X135.353Y-105.95
X136.152Y-56.05
X136.152Y-56.8
X136.152Y-57.55
X136.152Y-58.3
X136.152Y-59.05
X136.152Y-59.8
X136.152Y-60.55
X136.152Y-61.3
X136.902Y-56.05
X136.902Y-56.8
X136.902Y-57.55
X136.902Y-58.3
X136.902Y-59.05
X136.902Y-59.8
X136.902Y-60.55
X136.902Y-61.3
X137.652Y-56.05
X137.652Y-56.8
X137.652Y-57.55
X137.652Y-58.3
X137.652Y-59.05
X137.652Y-59.8
X137.652Y-60.55
X137.652Y-61.3
X138.052Y-68.2
X138.052Y-68.95
X138.052Y-69.7
X138.052Y-70.45
X138.052Y-71.2
X138.802Y-68.2
X138.802Y-68.95
X138.802Y-69.7
X138.802Y-70.45
X138.802Y-71.2
X138.927Y-92.775
X138.927Y-93.525
X139.552Y-68.2
X139.552Y-68.95
X139.552Y-69.7
X139.552Y-70.45
X139.552Y-71.2
X139.552Y-84.95
X139.552Y-85.7
X139.552Y-86.45
X139.677Y-92.775
X139.677Y-93.525
X140.302Y-84.95
X140.302Y-85.7
X140.302Y-86.45
X140.427Y-92.775
X140.427Y-93.525
X141.052Y-84.95
X141.052Y-85.7
X141.052Y-86.45
X141.652Y-93.35
X141.752Y-68.775
X141.802Y-84.95
X141.802Y-85.7
X141.802Y-86.45
X142.552Y-84.95
X142.552Y-85.7
X142.552Y-86.45
X142.677Y-93.325
X142.877Y-90.5
X143.052Y-102.95
X143.802Y-102.95
X143.852Y-92.925
X143.852Y-93.675
X144.252Y-80.2
X144.552Y-102.95
X144.602Y-92.925
X144.602Y-93.675
X145.102Y-71.175
X145.102Y-71.925
X145.102Y-72.675
X145.252Y-66.25
X145.252Y-67.0
X145.252Y-67.75
X145.302Y-102.95
X145.352Y-92.925
X145.352Y-93.675
X145.652Y-68.925
X145.677Y-69.95
X145.852Y-71.175
X145.852Y-71.925
X145.852Y-72.675
X146.002Y-66.25
X146.002Y-67.0
X146.002Y-67.75
X146.052Y-102.95
X146.052Y-103.7
X146.052Y-104.45
X146.052Y-105.2
X146.052Y-105.95
X146.802Y-102.95
X146.802Y-103.7
X146.802Y-104.45
X146.802Y-105.2
X146.802Y-105.95
X150.052Y-61.2
X150.052Y-61.95
X150.052Y-62.7
X150.052Y-63.45
X150.302Y-100.7
X150.302Y-101.45
X150.302Y-102.2
X150.802Y-61.2
X150.802Y-61.95
X150.802Y-62.7
X150.802Y-63.45
X151.052Y-100.7
X151.052Y-101.45
X151.052Y-102.2
X151.422Y-85.6
X151.802Y-97.7
X151.802Y-98.45
X151.802Y-99.2
X151.802Y-99.95
X151.802Y-100.7
X151.802Y-101.45
X151.802Y-102.2
X152.552Y-97.7
X152.552Y-98.45
X152.552Y-99.2
X152.552Y-99.95
X152.552Y-100.7
X152.552Y-101.45
X152.552Y-102.2
X154.302Y-99.45
X154.302Y-100.2
X154.302Y-100.95
X154.552Y-102.95
X155.052Y-99.45
X155.052Y-100.2
X155.052Y-100.95
X155.302Y-102.95
X155.752Y-76.497
X155.752Y-77.247
X155.802Y-99.45
X155.802Y-100.2
X155.802Y-100.95
X156.052Y-102.95
X156.502Y-76.497
X156.502Y-77.247
X156.552Y-99.45
X156.552Y-100.2
X156.552Y-100.95
X156.802Y-102.95
X157.252Y-76.497
X157.252Y-77.247
X157.302Y-70.25
X157.302Y-71.0
X157.302Y-99.45
X157.302Y-100.2
X157.302Y-100.95
X157.552Y-102.95
X157.552Y-103.7
X157.552Y-104.45
X157.552Y-105.2
X157.552Y-105.95
X158.052Y-70.25
X158.052Y-71.0
X158.052Y-99.45
X158.052Y-100.2
X158.052Y-100.95
X158.302Y-102.95
X158.302Y-103.7
X158.302Y-104.45
X158.302Y-105.2
X158.302Y-105.95
X158.477Y-77.072
X158.802Y-99.45
X158.802Y-100.2
X158.802Y-100.95
X159.502Y-77.047
X159.527Y-74.475
X159.552Y-99.45
X159.552Y-100.2
X159.552Y-100.95
X160.677Y-76.647
X160.677Y-77.397
X161.427Y-76.647
X161.427Y-77.397
X162.177Y-76.647
X162.177Y-77.397
T2
X151.582Y-91.92
X151.582Y-93.12
X151.582Y-94.32
X152.782Y-91.92
X152.782Y-93.12
X152.782Y-94.32
X153.982Y-91.92
X153.982Y-93.12
X153.982Y-94.32
X155.182Y-91.92
X155.182Y-93.12
X155.182Y-94.32
T3
X102.502Y-82.14
X102.502Y-86.1
X109.774Y-105.129
X112.314Y-105.129
X118.804Y-105.129
X121.344Y-105.129
X160.902Y-82.64
X160.902Y-86.6
T4
X124.252Y-57.39
X127.252Y-57.39
X128.853Y-104.55
X130.252Y-57.39
X132.353Y-104.55
X133.252Y-57.39
X140.308Y-104.55
X143.808Y-104.55
X151.762Y-104.55
X152.892Y-62.35
X155.262Y-104.55
X156.392Y-62.35
T5
X126.353Y-112.46
X134.853Y-112.46
X137.808Y-112.46
X146.308Y-112.46
X149.262Y-112.46
X150.392Y-54.44
X157.762Y-112.46
X158.892Y-54.44
T6
X103.5Y-114.5
X113.0Y-52.5
X162.5Y-114.5
M30
