M48
; DRILL file {KiCad 9.0.0} date 2026-01-23T14:49:36+0700
; FORMAT={-:-/ absolute / metric / decimal}
; #@! TF.CreationDate,2026-01-23T14:49:36+07:00
; #@! TF.GenerationSoftware,Kicad,Pcbnew,9.0.0
; #@! TF.FileFunction,Plated,1,4,PTH
FMAT,2
METRIC
; #@! TA.AperFunction,Plated,PTH,ViaDrill
T1C0.200
; #@! TA.AperFunction,Plated,PTH,ViaDrill
T2C0.300
; #@! TA.AperFunction,Plated,PTH,ViaDrill
T3C0.400
; #@! TA.AperFunction,Plated,PTH,ComponentDrill
T4C1.000
; #@! TA.AperFunction,Plated,PTH,ComponentDrill
T5C1.020
%
G90
G05
T1
X94.372Y-62.264
X94.529Y-60.61
X95.556Y-60.923
X95.556Y-61.717
X95.556Y-62.532
X96.201Y-61.717
X96.22Y-62.532
X101.842Y-89.87
X101.879Y-88.056
X102.906Y-88.369
X102.906Y-89.163
X102.906Y-89.978
X103.551Y-89.163
X103.57Y-89.978
T2
X84.052Y-54.45
X84.052Y-55.45
X84.052Y-56.45
X84.052Y-57.45
X84.052Y-58.45
X84.052Y-59.45
X86.417Y-56.37
X87.266Y-52.645
X88.012Y-56.47
X88.266Y-52.645
X89.266Y-52.645
X89.432Y-59.44
X89.782Y-58.32
X89.922Y-59.96
X90.266Y-52.645
X90.302Y-66.45
X90.302Y-67.45
X90.302Y-68.45
X90.302Y-69.45
X90.302Y-70.45
X90.302Y-71.45
X90.302Y-72.45
X90.302Y-73.45
X91.266Y-52.645
X91.302Y-66.45
X91.302Y-67.45
X91.302Y-68.45
X91.302Y-69.45
X91.302Y-70.45
X91.302Y-71.45
X91.302Y-72.45
X91.302Y-73.45
X91.302Y-74.45
X92.052Y-56.95
X92.052Y-57.7
X92.266Y-52.645
X92.302Y-66.45
X92.302Y-67.45
X92.302Y-68.45
X92.897Y-54.665
X93.252Y-64.1
X93.252Y-65.1
X93.302Y-66.45
X93.302Y-67.45
X93.302Y-68.45
X94.057Y-82.24
X94.302Y-66.45
X94.302Y-67.45
X94.302Y-68.45
X94.432Y-54.64
X94.612Y-57.86
X94.802Y-79.45
X95.052Y-94.3
X95.052Y-95.3
X95.052Y-96.3
X95.052Y-97.3
X95.052Y-98.3
X95.052Y-99.3
X95.052Y-100.2
X95.052Y-101.2
X95.052Y-102.2
X95.052Y-103.2
X95.052Y-104.2
X95.052Y-105.2
X95.652Y-82.44
X95.802Y-63.95
X95.802Y-79.45
X96.052Y-93.3
X96.052Y-94.3
X96.052Y-95.3
X96.052Y-96.3
X96.052Y-97.3
X96.052Y-98.3
X96.052Y-99.3
X96.052Y-100.2
X96.052Y-101.2
X96.052Y-102.2
X96.052Y-103.2
X96.052Y-104.2
X96.052Y-105.2
X96.622Y-52.99
X96.622Y-53.99
X96.802Y-64.7
X96.802Y-65.45
X96.802Y-79.45
X97.052Y-93.3
X97.052Y-94.3
X97.052Y-95.3
X97.052Y-96.3
X97.052Y-97.3
X97.052Y-98.3
X97.052Y-99.3
X97.052Y-100.2
X97.052Y-101.2
X97.052Y-102.2
X97.052Y-103.2
X97.052Y-104.2
X97.052Y-105.2
X97.282Y-85.04
X97.622Y-52.99
X97.622Y-53.99
X97.652Y-86.71
X97.802Y-79.45
X98.052Y-93.3
X98.122Y-87.24
X98.622Y-52.99
X98.622Y-53.99
X98.802Y-79.45
X99.802Y-79.45
X100.252Y-91.5
X100.252Y-92.3
X100.372Y-81.39
X102.182Y-84.95
X103.277Y-91.4
X104.052Y-73.45
X104.052Y-74.45
X104.052Y-75.45
X104.052Y-76.45
X104.052Y-77.45
X104.052Y-78.45
X104.052Y-79.45
X104.377Y-91.85
X104.377Y-92.65
X105.052Y-73.45
X105.052Y-74.45
X105.052Y-75.45
X105.052Y-76.45
X105.052Y-77.45
X105.052Y-78.45
X105.052Y-79.45
X107.552Y-79.95
X107.552Y-80.95
X108.552Y-79.95
X108.552Y-80.95
X108.802Y-99.2
X108.802Y-100.2
X108.802Y-101.2
X108.802Y-102.2
X108.802Y-104.45
X108.802Y-105.45
X108.802Y-106.45
X108.802Y-107.45
X109.552Y-79.95
X109.552Y-80.95
X109.552Y-99.2
X109.552Y-100.2
X109.552Y-101.2
X109.552Y-102.2
X109.552Y-104.45
X109.552Y-105.45
X109.552Y-106.45
X109.552Y-107.45
X116.552Y-53.2
X116.802Y-57.05
X116.802Y-57.89
X117.552Y-53.2
X117.552Y-59.7
X117.802Y-96.45
X117.802Y-97.45
X117.802Y-98.45
X117.802Y-99.45
X117.802Y-100.45
X117.802Y-101.45
X117.802Y-102.45
X117.802Y-103.45
X117.802Y-104.45
X117.802Y-105.45
X117.802Y-106.45
X117.802Y-107.45
X118.552Y-53.2
X118.552Y-59.7
X119.552Y-53.2
X119.552Y-59.7
X120.552Y-53.2
X120.552Y-59.7
X121.552Y-53.2
X121.552Y-59.7
X122.552Y-53.2
X122.552Y-59.7
X123.552Y-53.2
X123.552Y-59.7
X124.302Y-81.7
X124.302Y-96.7
X124.302Y-97.7
X124.302Y-98.7
X124.302Y-99.7
X124.302Y-100.7
X124.302Y-101.7
X124.302Y-102.95
X124.302Y-103.95
X124.302Y-104.95
X124.302Y-105.95
X124.302Y-106.95
X124.302Y-107.95
X124.552Y-53.2
X124.552Y-59.7
X124.802Y-87.95
X124.802Y-89.2
X125.302Y-81.7
X125.552Y-53.2
X125.552Y-59.7
X125.802Y-87.95
X125.802Y-89.2
X126.302Y-81.7
X126.552Y-53.2
X126.552Y-59.7
X126.802Y-67.45
X126.802Y-68.45
X126.802Y-69.45
X126.802Y-70.45
X126.802Y-71.45
X126.802Y-72.45
X126.802Y-73.45
X126.802Y-74.45
X126.802Y-75.45
X126.802Y-76.45
X126.802Y-77.45
X126.802Y-87.95
X126.802Y-89.2
X127.302Y-81.7
X127.552Y-53.2
X127.552Y-59.7
X127.802Y-67.45
X127.802Y-68.45
X127.802Y-69.45
X127.802Y-70.45
X127.802Y-71.45
X127.802Y-72.45
X127.802Y-73.45
X127.802Y-74.45
X127.802Y-75.45
X127.802Y-76.45
X127.802Y-77.45
X127.802Y-87.95
X127.802Y-89.2
X128.302Y-81.7
X128.552Y-53.2
X128.552Y-59.7
X128.802Y-87.95
X128.802Y-89.2
X129.302Y-81.7
X129.552Y-53.2
X129.552Y-59.7
X129.802Y-87.95
X129.802Y-89.2
X130.302Y-81.7
X130.552Y-53.2
X130.552Y-59.7
X130.552Y-97.95
X130.552Y-98.95
X130.552Y-99.95
X130.552Y-100.95
X130.552Y-101.95
X130.552Y-102.95
X130.552Y-103.95
X130.552Y-104.95
X130.552Y-105.95
X130.552Y-106.95
X130.552Y-107.95
X130.552Y-108.95
X131.052Y-87.95
X131.052Y-89.2
X131.302Y-81.7
X131.552Y-53.2
X131.552Y-59.7
X132.052Y-87.95
X132.052Y-89.2
X132.302Y-81.7
X132.552Y-53.2
X132.552Y-59.7
X133.052Y-87.95
X133.052Y-89.2
X133.302Y-81.7
X133.552Y-53.2
X133.552Y-59.7
X134.052Y-87.95
X134.052Y-89.2
X134.302Y-81.7
X134.552Y-53.2
X134.552Y-59.7
X135.052Y-87.95
X135.052Y-89.2
X135.252Y-100.7
X135.252Y-101.7
X135.252Y-102.7
X135.302Y-81.7
X135.552Y-53.2
X135.552Y-59.7
X135.552Y-95.95
X135.552Y-96.95
X135.552Y-97.95
X136.052Y-87.95
X136.052Y-89.2
X136.252Y-100.7
X136.252Y-101.7
X136.252Y-102.7
X136.552Y-53.2
X136.552Y-95.95
X136.552Y-96.95
X136.552Y-97.95
X137.252Y-100.7
X137.252Y-101.7
X137.252Y-102.7
X137.552Y-53.2
X137.552Y-95.95
X137.552Y-96.95
X137.552Y-97.95
X138.552Y-53.2
X139.052Y-92.45
X139.552Y-53.2
X139.802Y-62.45
X139.802Y-63.45
X139.802Y-71.45
X139.802Y-72.45
X139.802Y-79.2
X139.802Y-80.2
X139.802Y-85.95
X139.802Y-86.95
X139.802Y-90.2
X139.802Y-91.2
X140.052Y-92.45
X140.802Y-62.45
X140.802Y-63.45
X140.802Y-71.45
X140.802Y-72.45
X140.802Y-79.2
X140.802Y-80.2
X140.802Y-85.95
X140.802Y-86.95
X140.802Y-90.2
X140.802Y-91.2
X141.052Y-92.45
X141.452Y-101.7
X141.452Y-102.7
X141.802Y-62.45
X141.802Y-63.45
X141.802Y-71.45
X141.802Y-72.45
X141.802Y-79.2
X141.802Y-80.2
X141.802Y-85.95
X141.802Y-86.95
X141.802Y-90.2
X141.802Y-91.2
X142.052Y-92.45
X142.452Y-101.7
X142.452Y-102.7
X143.052Y-92.45
X143.452Y-101.7
X143.452Y-102.7
X145.872Y-59.425
X145.872Y-60.175
X145.942Y-69.81
X145.952Y-70.75
X147.622Y-60.14
X151.492Y-64.76
T3
X100.552Y-84.95
X144.802Y-64.2
X149.552Y-61.45
X150.802Y-67.2
T5
X140.087Y-94.12
X140.087Y-97.12
X140.087Y-100.12
T4
G00X108.802Y-76.404
M15
G01X108.802Y-72.004
M16
G05
G00X131.702Y-75.254
M15
G01X131.702Y-70.854
M16
G05
M30
