G04 #@! TF.GenerationSoftware,KiCad,Pcbnew,9.0.0*
G04 #@! TF.CreationDate,2026-01-23T14:49:33+07:00*
G04 #@! TF.ProjectId,Power_management_V2,506f7765-725f-46d6-916e-6167656d656e,rev?*
G04 #@! TF.SameCoordinates,Original*
G04 #@! TF.FileFunction,Paste,Top*
G04 #@! TF.FilePolarity,Positive*
%FSLAX46Y46*%
G04 Gerber Fmt 4.6, Leading zero omitted, Abs format (unit mm)*
G04 Created by KiCad (PCBNEW 9.0.0) date 2026-01-23 14:49:33*
%MOMM*%
%LPD*%
G01*
G04 APERTURE LIST*
G04 Aperture macros list*
%AMRoundRect*
0 Rectangle with rounded corners*
0 $1 Rounding radius*
0 $2 $3 $4 $5 $6 $7 $8 $9 X,Y pos of 4 corners*
0 Add a 4 corners polygon primitive as box body*
4,1,4,$2,$3,$4,$5,$6,$7,$8,$9,$2,$3,0*
0 Add four circle primitives for the rounded corners*
1,1,$1+$1,$2,$3*
1,1,$1+$1,$4,$5*
1,1,$1+$1,$6,$7*
1,1,$1+$1,$8,$9*
0 Add four rect primitives between the rounded corners*
20,1,$1+$1,$2,$3,$4,$5,0*
20,1,$1+$1,$4,$5,$6,$7,0*
20,1,$1+$1,$6,$7,$8,$9,0*
20,1,$1+$1,$8,$9,$2,$3,0*%
G04 Aperture macros list end*
%ADD10C,0.010000*%
%ADD11RoundRect,0.225000X-0.250000X0.225000X-0.250000X-0.225000X0.250000X-0.225000X0.250000X0.225000X0*%
%ADD12RoundRect,0.200000X-0.275000X0.200000X-0.275000X-0.200000X0.275000X-0.200000X0.275000X0.200000X0*%
%ADD13RoundRect,0.250000X1.100000X-0.325000X1.100000X0.325000X-1.100000X0.325000X-1.100000X-0.325000X0*%
%ADD14RoundRect,0.225000X0.225000X0.250000X-0.225000X0.250000X-0.225000X-0.250000X0.225000X-0.250000X0*%
%ADD15RoundRect,0.250000X0.325000X1.100000X-0.325000X1.100000X-0.325000X-1.100000X0.325000X-1.100000X0*%
%ADD16RoundRect,0.200000X0.200000X0.275000X-0.200000X0.275000X-0.200000X-0.275000X0.200000X-0.275000X0*%
%ADD17RoundRect,0.250000X-0.325000X-1.100000X0.325000X-1.100000X0.325000X1.100000X-0.325000X1.100000X0*%
%ADD18RoundRect,0.250000X0.325000X0.650000X-0.325000X0.650000X-0.325000X-0.650000X0.325000X-0.650000X0*%
%ADD19RoundRect,0.225000X0.250000X-0.225000X0.250000X0.225000X-0.250000X0.225000X-0.250000X-0.225000X0*%
%ADD20RoundRect,0.200000X0.275000X-0.200000X0.275000X0.200000X-0.275000X0.200000X-0.275000X-0.200000X0*%
%ADD21RoundRect,0.200000X-0.200000X-0.275000X0.200000X-0.275000X0.200000X0.275000X-0.200000X0.275000X0*%
%ADD22R,3.100000X5.000000*%
%ADD23RoundRect,0.250000X-1.100000X0.325000X-1.100000X-0.325000X1.100000X-0.325000X1.100000X0.325000X0*%
%ADD24RoundRect,0.700000X-0.700000X-2.650000X0.700000X-2.650000X0.700000X2.650000X-0.700000X2.650000X0*%
%ADD25R,0.730000X0.300000*%
%ADD26R,0.300000X0.725000*%
%ADD27R,0.725000X0.300000*%
%ADD28R,1.050000X1.575000*%
%ADD29R,0.380000X0.580000*%
%ADD30RoundRect,0.700000X0.700000X2.650000X-0.700000X2.650000X-0.700000X-2.650000X0.700000X-2.650000X0*%
%ADD31RoundRect,0.150000X-0.512500X-0.150000X0.512500X-0.150000X0.512500X0.150000X-0.512500X0.150000X0*%
G04 #@! TA.AperFunction,Profile*
%ADD32C,0.200000*%
G04 #@! TD*
G04 #@! TA.AperFunction,Profile*
%ADD33C,0.150000*%
G04 #@! TD*
G04 APERTURE END LIST*
D10*
X94972000Y-63394800D02*
X94672000Y-63394800D01*
X94672000Y-62844800D01*
X94522000Y-62844800D01*
X94522000Y-63394800D01*
X94222000Y-63394800D01*
X94222000Y-62844800D01*
X93922000Y-62844800D01*
X93922000Y-61694800D01*
X94972000Y-61694800D01*
X94972000Y-63394800D01*
G36*
X94972000Y-63394800D02*
G01*
X94672000Y-63394800D01*
X94672000Y-62844800D01*
X94522000Y-62844800D01*
X94522000Y-63394800D01*
X94222000Y-63394800D01*
X94222000Y-62844800D01*
X93922000Y-62844800D01*
X93922000Y-61694800D01*
X94972000Y-61694800D01*
X94972000Y-63394800D01*
G37*
X95727000Y-60669800D02*
X96472000Y-60669800D01*
X96472000Y-62844800D01*
X96322000Y-62844800D01*
X96322000Y-63394800D01*
X96022000Y-63394800D01*
X96022000Y-62844800D01*
X95872000Y-62844800D01*
X95872000Y-63394800D01*
X95572000Y-63394800D01*
X95572000Y-62844800D01*
X95272000Y-62844800D01*
X95272000Y-60019800D01*
X95727000Y-60019800D01*
X95727000Y-60669800D01*
G36*
X95727000Y-60669800D02*
G01*
X96472000Y-60669800D01*
X96472000Y-62844800D01*
X96322000Y-62844800D01*
X96322000Y-63394800D01*
X96022000Y-63394800D01*
X96022000Y-62844800D01*
X95872000Y-62844800D01*
X95872000Y-63394800D01*
X95572000Y-63394800D01*
X95572000Y-62844800D01*
X95272000Y-62844800D01*
X95272000Y-60019800D01*
X95727000Y-60019800D01*
X95727000Y-60669800D01*
G37*
X97497000Y-60669800D02*
X97047000Y-60669800D01*
X97047000Y-60819800D01*
X97497000Y-60819800D01*
X97497000Y-61119800D01*
X97047000Y-61119800D01*
X97047000Y-61519800D01*
X97497000Y-61519800D01*
X97497000Y-61819800D01*
X97047000Y-61819800D01*
X97047000Y-61969800D01*
X97497000Y-61969800D01*
X97497000Y-62269800D01*
X97047000Y-62269800D01*
X97047000Y-62419800D01*
X97497000Y-62419800D01*
X97497000Y-62719800D01*
X96772000Y-62719800D01*
X96772000Y-60369800D01*
X97497000Y-60369800D01*
X97497000Y-60669800D01*
G36*
X97497000Y-60669800D02*
G01*
X97047000Y-60669800D01*
X97047000Y-60819800D01*
X97497000Y-60819800D01*
X97497000Y-61119800D01*
X97047000Y-61119800D01*
X97047000Y-61519800D01*
X97497000Y-61519800D01*
X97497000Y-61819800D01*
X97047000Y-61819800D01*
X97047000Y-61969800D01*
X97497000Y-61969800D01*
X97497000Y-62269800D01*
X97047000Y-62269800D01*
X97047000Y-62419800D01*
X97497000Y-62419800D01*
X97497000Y-62719800D01*
X96772000Y-62719800D01*
X96772000Y-60369800D01*
X97497000Y-60369800D01*
X97497000Y-60669800D01*
G37*
X102322000Y-90924800D02*
X102022000Y-90924800D01*
X102022000Y-90374800D01*
X101872000Y-90374800D01*
X101872000Y-90924800D01*
X101572000Y-90924800D01*
X101572000Y-90374800D01*
X101272000Y-90374800D01*
X101272000Y-89224800D01*
X102322000Y-89224800D01*
X102322000Y-90924800D01*
G36*
X102322000Y-90924800D02*
G01*
X102022000Y-90924800D01*
X102022000Y-90374800D01*
X101872000Y-90374800D01*
X101872000Y-90924800D01*
X101572000Y-90924800D01*
X101572000Y-90374800D01*
X101272000Y-90374800D01*
X101272000Y-89224800D01*
X102322000Y-89224800D01*
X102322000Y-90924800D01*
G37*
X103077000Y-88199800D02*
X103822000Y-88199800D01*
X103822000Y-90374800D01*
X103672000Y-90374800D01*
X103672000Y-90924800D01*
X103372000Y-90924800D01*
X103372000Y-90374800D01*
X103222000Y-90374800D01*
X103222000Y-90924800D01*
X102922000Y-90924800D01*
X102922000Y-90374800D01*
X102622000Y-90374800D01*
X102622000Y-87549800D01*
X103077000Y-87549800D01*
X103077000Y-88199800D01*
G36*
X103077000Y-88199800D02*
G01*
X103822000Y-88199800D01*
X103822000Y-90374800D01*
X103672000Y-90374800D01*
X103672000Y-90924800D01*
X103372000Y-90924800D01*
X103372000Y-90374800D01*
X103222000Y-90374800D01*
X103222000Y-90924800D01*
X102922000Y-90924800D01*
X102922000Y-90374800D01*
X102622000Y-90374800D01*
X102622000Y-87549800D01*
X103077000Y-87549800D01*
X103077000Y-88199800D01*
G37*
X104847000Y-88199800D02*
X104397000Y-88199800D01*
X104397000Y-88349800D01*
X104847000Y-88349800D01*
X104847000Y-88649800D01*
X104397000Y-88649800D01*
X104397000Y-89049800D01*
X104847000Y-89049800D01*
X104847000Y-89349800D01*
X104397000Y-89349800D01*
X104397000Y-89499800D01*
X104847000Y-89499800D01*
X104847000Y-89799800D01*
X104397000Y-89799800D01*
X104397000Y-89949800D01*
X104847000Y-89949800D01*
X104847000Y-90249800D01*
X104122000Y-90249800D01*
X104122000Y-87899800D01*
X104847000Y-87899800D01*
X104847000Y-88199800D01*
G36*
X104847000Y-88199800D02*
G01*
X104397000Y-88199800D01*
X104397000Y-88349800D01*
X104847000Y-88349800D01*
X104847000Y-88649800D01*
X104397000Y-88649800D01*
X104397000Y-89049800D01*
X104847000Y-89049800D01*
X104847000Y-89349800D01*
X104397000Y-89349800D01*
X104397000Y-89499800D01*
X104847000Y-89499800D01*
X104847000Y-89799800D01*
X104397000Y-89799800D01*
X104397000Y-89949800D01*
X104847000Y-89949800D01*
X104847000Y-90249800D01*
X104122000Y-90249800D01*
X104122000Y-87899800D01*
X104847000Y-87899800D01*
X104847000Y-88199800D01*
G37*
D11*
X150282000Y-63134800D03*
X150282000Y-64684800D03*
D12*
X94157000Y-83344800D03*
X94157000Y-84994800D03*
D13*
X125682000Y-57764800D03*
X125682000Y-54814800D03*
D14*
X91272000Y-61987300D03*
X89722000Y-61987300D03*
D13*
X135502000Y-86289800D03*
X135502000Y-83339800D03*
D15*
X122592000Y-103999800D03*
X119642000Y-103999800D03*
D16*
X95707000Y-81289800D03*
X94057000Y-81289800D03*
D14*
X98227000Y-89449800D03*
X96677000Y-89449800D03*
X128157000Y-94869800D03*
X126607000Y-94869800D03*
D17*
X125912000Y-97369800D03*
X128862000Y-97369800D03*
D13*
X132122000Y-86214800D03*
X132122000Y-83264800D03*
D18*
X107177000Y-83624800D03*
X104227000Y-83624800D03*
D19*
X94432000Y-56954800D03*
X94432000Y-55404800D03*
D20*
X95667000Y-84994800D03*
X95667000Y-83344800D03*
D14*
X95907000Y-65077300D03*
X94357000Y-65077300D03*
X103287000Y-92359800D03*
X101737000Y-92359800D03*
D13*
X125452000Y-86199800D03*
X125452000Y-83249800D03*
X129112000Y-57784800D03*
X129112000Y-54834800D03*
D21*
X145927000Y-61479800D03*
X147577000Y-61479800D03*
D22*
X110462000Y-88269800D03*
X121562000Y-88269800D03*
D23*
X118962000Y-61364800D03*
X118962000Y-64314800D03*
D16*
X91332000Y-63527300D03*
X89682000Y-63527300D03*
D13*
X128752000Y-86214800D03*
X128752000Y-83264800D03*
D12*
X97282000Y-82399800D03*
X97282000Y-84049800D03*
D18*
X99687000Y-55759800D03*
X96737000Y-55759800D03*
D24*
X99722000Y-97159800D03*
X106222000Y-97159800D03*
D25*
X97132000Y-60069800D03*
D26*
X96622000Y-59157300D03*
X96172000Y-59157300D03*
X95722000Y-59157300D03*
X95272000Y-59157300D03*
X94822000Y-59157300D03*
X94372000Y-59157300D03*
X93922000Y-59157300D03*
D27*
X93259500Y-59619800D03*
X93259500Y-60069800D03*
X93259500Y-60519800D03*
X93259500Y-60969800D03*
X93259500Y-61669800D03*
X93259500Y-62119800D03*
X93259500Y-62569800D03*
D28*
X94447000Y-60607300D03*
D29*
X96187000Y-60109800D03*
D16*
X100412000Y-82464800D03*
X98762000Y-82464800D03*
D13*
X132562000Y-57814800D03*
X132562000Y-54864800D03*
D12*
X145942000Y-66999800D03*
X145942000Y-68649800D03*
D30*
X123942000Y-73109800D03*
X117442000Y-73109800D03*
D31*
X146197000Y-63169800D03*
X146197000Y-64119800D03*
X146197000Y-65069800D03*
X148472000Y-65069800D03*
X148472000Y-64119800D03*
X148472000Y-63169800D03*
D12*
X89732000Y-55674800D03*
X89732000Y-57324800D03*
D23*
X122502000Y-61344800D03*
X122502000Y-64294800D03*
D17*
X125892000Y-104189800D03*
X128842000Y-104189800D03*
D24*
X99742000Y-105079800D03*
X106242000Y-105079800D03*
D13*
X118862000Y-57814800D03*
X118862000Y-54864800D03*
D15*
X122592000Y-97279800D03*
X119642000Y-97279800D03*
D16*
X98277000Y-90989800D03*
X96627000Y-90989800D03*
D15*
X122592000Y-100609800D03*
X119642000Y-100609800D03*
D13*
X122282000Y-57839800D03*
X122282000Y-54889800D03*
D19*
X102017000Y-83997300D03*
X102017000Y-82447300D03*
D12*
X86482000Y-57314800D03*
X86482000Y-58964800D03*
D16*
X92897000Y-55779800D03*
X91247000Y-55779800D03*
D20*
X88022000Y-58959800D03*
X88022000Y-57309800D03*
D17*
X125892000Y-107589800D03*
X128842000Y-107589800D03*
D16*
X88057000Y-55309800D03*
X86407000Y-55309800D03*
X149147000Y-67034800D03*
X147497000Y-67034800D03*
D25*
X104482000Y-87599800D03*
D26*
X103972000Y-86687300D03*
X103522000Y-86687300D03*
X103072000Y-86687300D03*
X102622000Y-86687300D03*
X102172000Y-86687300D03*
X101722000Y-86687300D03*
X101272000Y-86687300D03*
D27*
X100609500Y-87149800D03*
X100609500Y-87599800D03*
X100609500Y-88049800D03*
X100609500Y-88499800D03*
X100609500Y-89199800D03*
X100609500Y-89649800D03*
X100609500Y-90099800D03*
D28*
X101797000Y-88137300D03*
D29*
X103537000Y-87639800D03*
D11*
X135052000Y-55349800D03*
X135052000Y-56899800D03*
D17*
X125892000Y-100689800D03*
X128842000Y-100689800D03*
D15*
X122592000Y-107389800D03*
X119642000Y-107389800D03*
D22*
X103712000Y-59939800D03*
X114812000Y-59939800D03*
D24*
X93322000Y-72749800D03*
X99822000Y-72749800D03*
D32*
X148552000Y-79699800D02*
X148552000Y-107699800D01*
X108052001Y-109699800D02*
G75*
G02*
X110052000Y-111699799I-1J-2000000D01*
G01*
X84051999Y-51699800D02*
X156552000Y-51699800D01*
X84051998Y-77699800D02*
G75*
G02*
X82052000Y-75699802I2J2000000D01*
G01*
X92052000Y-107699802D02*
X92052000Y-79699799D01*
X148552000Y-107699800D02*
G75*
G02*
X146552000Y-109699800I-2000000J0D01*
G01*
X148552000Y-79699800D02*
G75*
G02*
X150552000Y-77699800I2000000J0D01*
G01*
D33*
X156252000Y-64699800D02*
G75*
G02*
X152852000Y-64699800I-1700000J0D01*
G01*
X152852000Y-64699800D02*
G75*
G02*
X156252000Y-64699800I1700000J0D01*
G01*
D32*
X130552000Y-115699800D02*
G75*
G02*
X128552000Y-117699800I-2000000J0D01*
G01*
X112051998Y-117699800D02*
X128552000Y-117699800D01*
X112051998Y-117699800D02*
G75*
G02*
X110052000Y-115699802I2J2000000D01*
G01*
X146552000Y-109699800D02*
X132552000Y-109699800D01*
X156552000Y-77699800D02*
X150552000Y-77699800D01*
X82052000Y-53699799D02*
X82052000Y-75699802D01*
X108052001Y-109699800D02*
X94051998Y-109699800D01*
X94051998Y-109699800D02*
G75*
G02*
X92052000Y-107699802I2J2000000D01*
G01*
D33*
X122002000Y-112049800D02*
G75*
G02*
X118602000Y-112049800I-1700000J0D01*
G01*
X118602000Y-112049800D02*
G75*
G02*
X122002000Y-112049800I1700000J0D01*
G01*
D32*
X158552000Y-75699800D02*
X158552000Y-53699800D01*
X82052000Y-53699799D02*
G75*
G02*
X84051999Y-51699800I2000000J-1D01*
G01*
D33*
X87752000Y-64699800D02*
G75*
G02*
X84352000Y-64699800I-1700000J0D01*
G01*
X84352000Y-64699800D02*
G75*
G02*
X87752000Y-64699800I1700000J0D01*
G01*
D32*
X110052000Y-115699802D02*
X110052000Y-111699799D01*
X158552000Y-75699800D02*
G75*
G02*
X156552000Y-77699800I-2000000J0D01*
G01*
X130552000Y-111699800D02*
G75*
G02*
X132552000Y-109699800I2000000J0D01*
G01*
X156552000Y-51699800D02*
G75*
G02*
X158552000Y-53699800I0J-2000000D01*
G01*
X130552000Y-111699800D02*
X130552000Y-115699800D01*
X90052001Y-77699800D02*
G75*
G02*
X92052000Y-79699799I-1J-2000000D01*
G01*
X90052001Y-77699800D02*
X84051998Y-77699800D01*
M02*
