G04 #@! TF.GenerationSoftware,KiCad,Pcbnew,9.0.0*
G04 #@! TF.CreationDate,2026-02-04T15:57:25+07:00*
G04 #@! TF.ProjectId,Power_management_V2,506f7765-725f-46d6-916e-6167656d656e,rev?*
G04 #@! TF.SameCoordinates,Original*
G04 #@! TF.FileFunction,Copper,L4,Bot*
G04 #@! TF.FilePolarity,Positive*
%FSLAX46Y46*%
G04 Gerber Fmt 4.6, Leading zero omitted, Abs format (unit mm)*
G04 Created by KiCad (PCBNEW 9.0.0) date 2026-02-04 15:57:25*
%MOMM*%
%LPD*%
G01*
G04 APERTURE LIST*
G04 Aperture macros list*
%AMRoundRect*
0 Rectangle with rounded corners*
0 $1 Rounding radius*
0 $2 $3 $4 $5 $6 $7 $8 $9 X,Y pos of 4 corners*
0 Add a 4 corners polygon primitive as box body*
4,1,4,$2,$3,$4,$5,$6,$7,$8,$9,$2,$3,0*
0 Add four circle primitives for the rounded corners*
1,1,$1+$1,$2,$3*
1,1,$1+$1,$4,$5*
1,1,$1+$1,$6,$7*
1,1,$1+$1,$8,$9*
0 Add four rect primitives between the rounded corners*
20,1,$1+$1,$2,$3,$4,$5,0*
20,1,$1+$1,$4,$5,$6,$7,0*
20,1,$1+$1,$6,$7,$8,$9,0*
20,1,$1+$1,$8,$9,$2,$3,0*%
G04 Aperture macros list end*
G04 #@! TA.AperFunction,ComponentPad*
%ADD10R,1.520000X2.000000*%
G04 #@! TD*
G04 #@! TA.AperFunction,ComponentPad*
%ADD11C,1.520000*%
G04 #@! TD*
G04 #@! TA.AperFunction,ComponentPad*
%ADD12RoundRect,1.000000X1.000000X3.200000X-1.000000X3.200000X-1.000000X-3.200000X1.000000X-3.200000X0*%
G04 #@! TD*
G04 #@! TA.AperFunction,ViaPad*
%ADD13C,0.500000*%
G04 #@! TD*
G04 #@! TA.AperFunction,ViaPad*
%ADD14C,0.450000*%
G04 #@! TD*
G04 #@! TA.AperFunction,Conductor*
%ADD15C,0.300000*%
G04 #@! TD*
G04 #@! TA.AperFunction,Conductor*
%ADD16C,0.200000*%
G04 #@! TD*
G04 #@! TA.AperFunction,Profile*
%ADD17C,0.200000*%
G04 #@! TD*
G04 #@! TA.AperFunction,Profile*
%ADD18C,0.150000*%
G04 #@! TD*
G04 APERTURE END LIST*
D10*
X144512000Y-92719800D03*
D11*
X141512000Y-92719800D03*
X138512000Y-92719800D03*
X135512000Y-92719800D03*
D12*
X131702000Y-73053800D03*
X108802000Y-74203800D03*
D13*
X131552000Y-104899800D03*
X114752000Y-103999800D03*
X136552000Y-103999800D03*
X117752000Y-103999800D03*
X120652000Y-104899800D03*
X130652000Y-53314800D03*
X125852000Y-81699800D03*
X108552000Y-80949800D03*
X124652000Y-103999800D03*
D14*
X99656466Y-61038237D03*
D13*
X134852000Y-81699800D03*
X108552000Y-79949800D03*
X122652000Y-104899800D03*
X135552000Y-103999800D03*
X109552000Y-102499800D03*
X146952000Y-98599800D03*
X101722000Y-53104800D03*
X133552000Y-104899800D03*
X125652000Y-53314800D03*
X137552000Y-104899800D03*
X133852000Y-81699800D03*
X109552000Y-100499800D03*
X138552000Y-103999800D03*
X114752000Y-104899800D03*
X127552000Y-103999800D03*
X136552000Y-104899800D03*
X122652000Y-53314800D03*
X113752000Y-103999800D03*
X104052000Y-75449800D03*
X109552000Y-107449800D03*
X107552000Y-79949800D03*
X105052000Y-75449800D03*
X108802000Y-102499800D03*
D14*
X100301192Y-61832156D03*
D13*
X129852000Y-81699800D03*
X133652000Y-53314800D03*
X131652000Y-53314800D03*
X127852000Y-81699800D03*
X102722000Y-53104800D03*
X133552000Y-103999800D03*
X132852000Y-81699800D03*
X140952000Y-96799800D03*
X108802000Y-100499800D03*
X128552000Y-103999800D03*
X104052000Y-77449800D03*
X138552000Y-104899800D03*
X123652000Y-103999800D03*
X107552000Y-80949800D03*
X128552000Y-104899800D03*
X127552000Y-104899800D03*
D14*
X99656466Y-62647388D03*
D13*
X117752000Y-104899800D03*
X132552000Y-103999800D03*
X129652000Y-53314800D03*
X105052000Y-77449800D03*
D14*
X102906466Y-89978388D03*
D13*
X100902000Y-65564800D03*
X104377000Y-92649800D03*
X108802000Y-105449800D03*
X104377000Y-91849800D03*
X123652000Y-53314800D03*
X109552000Y-106449800D03*
X118752000Y-104899800D03*
X138652000Y-53314800D03*
X126652000Y-53314800D03*
X105052000Y-78449800D03*
X145952000Y-96799800D03*
X146952000Y-96799800D03*
X121652000Y-103999800D03*
X104052000Y-79449800D03*
X119752000Y-104899800D03*
X131852000Y-81699800D03*
X139552000Y-104899800D03*
X141952000Y-97699800D03*
X140552000Y-104899800D03*
X105052000Y-73449800D03*
X100902000Y-64814800D03*
X129552000Y-104899800D03*
D14*
X100319841Y-62647388D03*
D13*
X142952000Y-98599800D03*
X140352000Y-95399800D03*
X121652000Y-53314800D03*
X142652000Y-53314800D03*
X130852000Y-81699800D03*
X142502000Y-64129800D03*
X115752000Y-104899800D03*
X109552000Y-101499800D03*
D14*
X103569841Y-89978388D03*
D13*
X124652000Y-53314800D03*
X104052000Y-74449800D03*
X145952000Y-97699800D03*
X142952000Y-97699800D03*
X144952000Y-98599800D03*
X140352000Y-94499800D03*
X138352000Y-94499800D03*
X136852000Y-81699800D03*
D14*
X103551192Y-89163156D03*
D13*
X135852000Y-81699800D03*
X143952000Y-96799800D03*
X145952000Y-98599800D03*
X131552000Y-103999800D03*
X126652000Y-103999800D03*
X113752000Y-104899800D03*
X100722000Y-53104800D03*
X97952000Y-87499800D03*
X115752000Y-103999800D03*
X123652000Y-104899800D03*
X109552000Y-80949800D03*
X109552000Y-105449800D03*
X148002000Y-67899800D03*
X139352000Y-94499800D03*
X132652000Y-53314800D03*
X144952000Y-97699800D03*
X134552000Y-103999800D03*
D14*
X102906466Y-88369237D03*
D13*
X127652000Y-53314800D03*
X116752000Y-104899800D03*
X128652000Y-53314800D03*
X139552000Y-103999800D03*
X108802000Y-103499800D03*
X139352000Y-95399800D03*
D14*
X102906466Y-89163156D03*
D13*
X101722000Y-54104800D03*
X138352000Y-95399800D03*
X141952000Y-98599800D03*
X140552000Y-103999800D03*
X125652000Y-104899800D03*
X109552000Y-104449800D03*
X132552000Y-104899800D03*
X142952000Y-96799800D03*
X134552000Y-104899800D03*
X104052000Y-76449800D03*
X126852000Y-81699800D03*
X135652000Y-53314800D03*
X141952000Y-96799800D03*
X144952000Y-96799800D03*
X116752000Y-103999800D03*
X118752000Y-103999800D03*
X92352000Y-63099800D03*
X140652000Y-53314800D03*
X124652000Y-104899800D03*
X105052000Y-76449800D03*
X105052000Y-74449800D03*
X119752000Y-103999800D03*
X135552000Y-104899800D03*
X120652000Y-103999800D03*
X130552000Y-104899800D03*
X99902000Y-64064800D03*
X108802000Y-104449800D03*
X141352000Y-95399800D03*
X120652000Y-53314800D03*
X102722000Y-54104800D03*
X141652000Y-53314800D03*
X129552000Y-103999800D03*
X103277000Y-91399800D03*
X147012000Y-61459800D03*
X134652000Y-53314800D03*
X139652000Y-53314800D03*
X125652000Y-103999800D03*
X104052000Y-78449800D03*
X108802000Y-101499800D03*
D14*
X99656466Y-61832156D03*
D13*
X143952000Y-97699800D03*
X108802000Y-107449800D03*
X121652000Y-104899800D03*
X93052000Y-60899800D03*
X100722000Y-54104800D03*
X141352000Y-94499800D03*
X137552000Y-103999800D03*
X140952000Y-97699800D03*
X108802000Y-106449800D03*
X109552000Y-103499800D03*
X122652000Y-103999800D03*
X105052000Y-79449800D03*
X109552000Y-79949800D03*
X143952000Y-98599800D03*
X146952000Y-97699800D03*
X137652000Y-53314800D03*
X128852000Y-81699800D03*
X130552000Y-103999800D03*
X140952000Y-98599800D03*
X104052000Y-73449800D03*
X126652000Y-104899800D03*
X136652000Y-53314800D03*
X97552000Y-90199800D03*
X126802000Y-73449800D03*
X96052000Y-103199800D03*
X95052000Y-104199800D03*
X94402000Y-66564800D03*
X94302000Y-67449800D03*
X95052000Y-101199800D03*
X97052000Y-101199800D03*
X91302000Y-72449800D03*
X126802000Y-75449800D03*
X127802000Y-73449800D03*
X126802000Y-70449800D03*
X145082000Y-60149800D03*
X126802000Y-68449800D03*
X95052000Y-97299800D03*
X127802000Y-71449800D03*
X92302000Y-68449800D03*
X127802000Y-69449800D03*
X90302000Y-72449800D03*
X95052000Y-94299800D03*
X91302000Y-74449800D03*
X127802000Y-76449800D03*
X97052000Y-94299800D03*
X97052000Y-93299800D03*
D14*
X101842000Y-89869800D03*
D13*
X96052000Y-94299800D03*
X95052000Y-100199800D03*
X97052000Y-98299800D03*
X100252000Y-92299800D03*
X92302000Y-67449800D03*
X127802000Y-68449800D03*
X126802000Y-76449800D03*
X96052000Y-98299800D03*
X95402000Y-66564800D03*
X126802000Y-72449800D03*
X97052000Y-103199800D03*
X96052000Y-99299800D03*
X97352000Y-64214800D03*
X126802000Y-77449800D03*
D14*
X98472000Y-62378800D03*
D13*
X127802000Y-75449800D03*
X96052000Y-100199800D03*
X96402000Y-66564800D03*
X90302000Y-67449800D03*
X126802000Y-71449800D03*
X97052000Y-97299800D03*
X93302000Y-68449800D03*
X100252000Y-91499800D03*
X127802000Y-67449800D03*
X91302000Y-68449800D03*
X95052000Y-105199800D03*
X97052000Y-95299800D03*
X90302000Y-71449800D03*
X97052000Y-96299800D03*
X97052000Y-100199800D03*
X95052000Y-102199800D03*
X96052000Y-102199800D03*
X91302000Y-69449800D03*
X90302000Y-68449800D03*
X97352000Y-65214800D03*
X95052000Y-103199800D03*
X91302000Y-73449800D03*
X126802000Y-67449800D03*
X94302000Y-68449800D03*
X97052000Y-105199800D03*
X96052000Y-101199800D03*
X95052000Y-98299800D03*
X97052000Y-99299800D03*
X98402000Y-66564800D03*
X91302000Y-70449800D03*
X146652000Y-69099800D03*
X126802000Y-69449800D03*
X97402000Y-66564800D03*
X93302000Y-67449800D03*
X127802000Y-77449800D03*
X127802000Y-70449800D03*
X127802000Y-72449800D03*
X96052000Y-97299800D03*
X96052000Y-105199800D03*
X95052000Y-99299800D03*
X148952000Y-64769800D03*
X90302000Y-73449800D03*
X97052000Y-102199800D03*
X91302000Y-71449800D03*
X96052000Y-95299800D03*
X96052000Y-96299800D03*
X126802000Y-74449800D03*
X127802000Y-74449800D03*
X96052000Y-104199800D03*
X90302000Y-70449800D03*
X97052000Y-104199800D03*
X91302000Y-67449800D03*
X96052000Y-93299800D03*
X95052000Y-96299800D03*
X98052000Y-93299800D03*
X90302000Y-69449800D03*
X95052000Y-95299800D03*
X98532000Y-54754800D03*
X92366071Y-52759927D03*
X91366071Y-52759927D03*
X96152000Y-57064800D03*
X88152000Y-56564800D03*
D14*
X98628728Y-60725061D03*
D13*
X95366071Y-52759927D03*
X93366071Y-52759927D03*
X88152000Y-59564800D03*
X96997000Y-54779800D03*
X88152000Y-55564800D03*
X94366071Y-52759927D03*
X88152000Y-54564800D03*
X88152000Y-57564800D03*
X88152000Y-58564800D03*
X96366071Y-52759927D03*
X96152000Y-57814800D03*
X92112000Y-56584800D03*
X94057000Y-82239800D03*
X102182000Y-84949800D03*
X134942000Y-88559800D03*
X129052000Y-92749800D03*
X124692000Y-88559800D03*
X124802000Y-92749800D03*
X127692000Y-88559800D03*
X128692000Y-88559800D03*
X123462000Y-97394800D03*
X127712000Y-97394800D03*
X132052000Y-92749800D03*
X123462000Y-96144800D03*
X128052000Y-92749800D03*
X132942000Y-88559800D03*
X121462000Y-97394800D03*
X122462000Y-96144800D03*
X129712000Y-97394800D03*
X133052000Y-92749800D03*
X126712000Y-97394800D03*
X128712000Y-96144800D03*
X125462000Y-97394800D03*
X135942000Y-88559800D03*
X97252000Y-84699800D03*
X125802000Y-92749800D03*
X129692000Y-88559800D03*
X126802000Y-92749800D03*
X130942000Y-88559800D03*
X121462000Y-96144800D03*
X126712000Y-96144800D03*
X131052000Y-92749800D03*
X131712000Y-97394800D03*
X120462000Y-96144800D03*
X130712000Y-96144800D03*
X130052000Y-92749800D03*
X122462000Y-97394800D03*
X131712000Y-96144800D03*
X127712000Y-96144800D03*
X128712000Y-97394800D03*
X130712000Y-97394800D03*
X129712000Y-96144800D03*
X133942000Y-88559800D03*
X120462000Y-97394800D03*
X131942000Y-88559800D03*
X125462000Y-96144800D03*
X124462000Y-96144800D03*
X121802000Y-92749800D03*
X123802000Y-92749800D03*
X125692000Y-88559800D03*
X122802000Y-92749800D03*
X124462000Y-97394800D03*
X126692000Y-88559800D03*
X98712000Y-57974800D03*
X90517000Y-56484800D03*
X120902000Y-58004800D03*
X141802000Y-80199800D03*
X139802000Y-79199800D03*
X93832000Y-58099800D03*
X126652000Y-59814800D03*
X133652000Y-59814800D03*
X131652000Y-59814800D03*
X141802000Y-86899800D03*
X141802000Y-79199800D03*
X139802000Y-80199800D03*
X137652000Y-59814800D03*
X121652000Y-59814800D03*
X123652000Y-59814800D03*
X139802000Y-86899800D03*
X134652000Y-59814800D03*
X135652000Y-59814800D03*
X144552000Y-89599800D03*
X124652000Y-59814800D03*
X143552000Y-90599800D03*
X139442000Y-67799800D03*
X142752000Y-85899800D03*
X145552000Y-89599800D03*
X144552000Y-90599800D03*
X144752000Y-85899800D03*
X140802000Y-80199800D03*
X143552000Y-89599800D03*
X142752000Y-86899800D03*
X140442000Y-66799800D03*
X143752000Y-86899800D03*
X146752000Y-91499800D03*
X140442000Y-64759800D03*
X144752000Y-86899800D03*
X136652000Y-59814800D03*
X146752000Y-92499800D03*
X139652000Y-59814800D03*
X140452000Y-70899800D03*
X140802000Y-79199800D03*
X139442000Y-65799800D03*
X139442000Y-63759800D03*
X141802000Y-85899800D03*
X140442000Y-65799800D03*
X129652000Y-59814800D03*
X122652000Y-59814800D03*
X140452000Y-69899800D03*
X139452000Y-69899800D03*
X130652000Y-59814800D03*
X145552000Y-90599800D03*
X120902000Y-57164800D03*
X143752000Y-85899800D03*
X140452000Y-68899800D03*
X140442000Y-67799800D03*
X128652000Y-59814800D03*
X127652000Y-59814800D03*
X132652000Y-59814800D03*
X139802000Y-85899800D03*
X125652000Y-59814800D03*
X139442000Y-64759800D03*
X140442000Y-63759800D03*
X138652000Y-59814800D03*
X146752000Y-93499800D03*
X139452000Y-70899800D03*
X139452000Y-68899800D03*
X140802000Y-85899800D03*
X140442000Y-62759800D03*
X139442000Y-66799800D03*
X140802000Y-86899800D03*
X139442000Y-62759800D03*
X98702000Y-87149800D03*
X95352000Y-60184800D03*
X94775727Y-59708820D03*
X143332000Y-59434800D03*
X143332000Y-60184800D03*
X98188047Y-86635847D03*
X95802000Y-79449800D03*
X94802000Y-79449800D03*
X100552000Y-84949800D03*
X95652000Y-82439800D03*
D14*
X101878728Y-88056061D03*
D13*
X100372000Y-81389800D03*
X99352000Y-81199800D03*
X97802000Y-79449800D03*
X98802000Y-79449800D03*
X99802000Y-79449800D03*
X96802000Y-79449800D03*
X98352000Y-81199800D03*
D15*
X94082980Y-59708820D02*
X93847000Y-59944800D01*
X94775727Y-59708820D02*
X94082980Y-59708820D01*
X93847000Y-59944800D02*
X90462000Y-59944800D01*
D16*
X97952000Y-89799800D02*
X97552000Y-90199800D01*
X93052000Y-62399800D02*
X92352000Y-63099800D01*
X97952000Y-87499800D02*
X97952000Y-89799800D01*
X93052000Y-60899800D02*
X93052000Y-62399800D01*
X94057000Y-82239800D02*
X94592000Y-81704800D01*
X94592000Y-81704800D02*
X98937000Y-81704800D01*
X98937000Y-81704800D02*
X102182000Y-84949800D01*
X97282000Y-84729800D02*
X97882000Y-84729800D01*
X118002000Y-86449800D02*
X123802000Y-92249800D01*
X99602000Y-86449800D02*
X118002000Y-86449800D01*
X97252000Y-84699800D02*
X97282000Y-84729800D01*
X123802000Y-92249800D02*
X123802000Y-92749800D01*
X97882000Y-84729800D02*
X99602000Y-86449800D01*
X91167000Y-55834800D02*
X97552000Y-55834800D01*
X97552000Y-55834800D02*
X98712000Y-56994800D01*
X98712000Y-56994800D02*
X98712000Y-57974800D01*
X90517000Y-56484800D02*
X91167000Y-55834800D01*
X93832000Y-58099800D02*
X94952000Y-58099800D01*
X94952000Y-58099800D02*
X95767000Y-58914800D01*
X116527000Y-57164800D02*
X120902000Y-57164800D01*
X120902000Y-58004800D02*
X120902000Y-57164800D01*
X95767000Y-58914800D02*
X99052000Y-58914800D01*
X115377000Y-56014800D02*
X116527000Y-57164800D01*
X101952000Y-56014800D02*
X115377000Y-56014800D01*
X99052000Y-58914800D02*
X101952000Y-56014800D01*
D15*
X91552000Y-60044800D02*
X91552000Y-65049800D01*
X91452000Y-59944800D02*
X91552000Y-60044800D01*
X98627000Y-53474800D02*
X91342000Y-53474800D01*
D16*
X94775727Y-59708820D02*
X94876020Y-59708820D01*
D15*
X143332000Y-59434800D02*
X143332000Y-58909800D01*
X91342000Y-53474800D02*
X89142000Y-55674800D01*
X91552000Y-65049800D02*
X89552000Y-67049800D01*
D16*
X98224095Y-86635847D02*
X98188047Y-86635847D01*
D15*
X89552000Y-74324800D02*
X93322000Y-78094800D01*
X89142000Y-58624800D02*
X90462000Y-59944800D01*
X143322000Y-58899800D02*
X143322000Y-57169800D01*
X90462000Y-59944800D02*
X91452000Y-59944800D01*
D16*
X98702000Y-87149800D02*
X98652000Y-87099800D01*
X98652000Y-87099800D02*
X98652000Y-87063752D01*
D15*
X93322000Y-78094800D02*
X93322000Y-84299800D01*
X94876020Y-59708820D02*
X95352000Y-60184800D01*
X89552000Y-67049800D02*
X89552000Y-74324800D01*
X143322000Y-57169800D02*
X141142000Y-54989800D01*
X95658047Y-86635847D02*
X98188047Y-86635847D01*
X100142000Y-54989800D02*
X98627000Y-53474800D01*
X143332000Y-59434800D02*
X143332000Y-60184800D01*
X89142000Y-55674800D02*
X89142000Y-58624800D01*
X93322000Y-84299800D02*
X95658047Y-86635847D01*
X98652000Y-87063752D02*
X98224095Y-86635847D01*
X141142000Y-54989800D02*
X100142000Y-54989800D01*
G04 #@! TA.AperFunction,Conductor*
G36*
X147692000Y-94598438D02*
G01*
X147683355Y-94627878D01*
X147676832Y-94657865D01*
X147673077Y-94662880D01*
X147672315Y-94665477D01*
X147655681Y-94686119D01*
X147528319Y-94813481D01*
X147466996Y-94846966D01*
X147440638Y-94849800D01*
X143753362Y-94849800D01*
X143686323Y-94830115D01*
X143665681Y-94813481D01*
X142938319Y-94086119D01*
X142904834Y-94024796D01*
X142902000Y-93998438D01*
X142902000Y-93767644D01*
X143252000Y-93767644D01*
X143258401Y-93827172D01*
X143258403Y-93827179D01*
X143308645Y-93961886D01*
X143308649Y-93961893D01*
X143394809Y-94076987D01*
X143394812Y-94076990D01*
X143509906Y-94163150D01*
X143509913Y-94163154D01*
X143644620Y-94213396D01*
X143644627Y-94213398D01*
X143704155Y-94219799D01*
X143704172Y-94219800D01*
X144112000Y-94219800D01*
X144912000Y-94219800D01*
X145319828Y-94219800D01*
X145319844Y-94219799D01*
X145379372Y-94213398D01*
X145379379Y-94213396D01*
X145514086Y-94163154D01*
X145514093Y-94163150D01*
X145629187Y-94076990D01*
X145629190Y-94076987D01*
X145715350Y-93961893D01*
X145715354Y-93961886D01*
X145765596Y-93827179D01*
X145765598Y-93827172D01*
X145771999Y-93767644D01*
X145772000Y-93767627D01*
X145772000Y-93119800D01*
X144912000Y-93119800D01*
X144912000Y-94219800D01*
X144112000Y-94219800D01*
X144112000Y-93119800D01*
X143252000Y-93119800D01*
X143252000Y-93767644D01*
X142902000Y-93767644D01*
X142902000Y-92652657D01*
X144002000Y-92652657D01*
X144002000Y-92786943D01*
X144036755Y-92916653D01*
X144103898Y-93032947D01*
X144198853Y-93127902D01*
X144315147Y-93195045D01*
X144444857Y-93229800D01*
X144579143Y-93229800D01*
X144708853Y-93195045D01*
X144825147Y-93127902D01*
X144920102Y-93032947D01*
X144987245Y-92916653D01*
X145022000Y-92786943D01*
X145022000Y-92652657D01*
X144987245Y-92522947D01*
X144920102Y-92406653D01*
X144833249Y-92319800D01*
X144912000Y-92319800D01*
X145772000Y-92319800D01*
X145772000Y-91671972D01*
X145771999Y-91671955D01*
X145765598Y-91612427D01*
X145765596Y-91612420D01*
X145715354Y-91477713D01*
X145715350Y-91477706D01*
X145629190Y-91362612D01*
X145629187Y-91362609D01*
X145514093Y-91276449D01*
X145514086Y-91276445D01*
X145379379Y-91226203D01*
X145379372Y-91226201D01*
X145319844Y-91219800D01*
X144912000Y-91219800D01*
X144912000Y-92319800D01*
X144833249Y-92319800D01*
X144825147Y-92311698D01*
X144708853Y-92244555D01*
X144579143Y-92209800D01*
X144444857Y-92209800D01*
X144315147Y-92244555D01*
X144198853Y-92311698D01*
X144103898Y-92406653D01*
X144036755Y-92522947D01*
X144002000Y-92652657D01*
X142902000Y-92652657D01*
X142902000Y-91671955D01*
X143252000Y-91671955D01*
X143252000Y-92319800D01*
X144112000Y-92319800D01*
X144112000Y-91219800D01*
X143704155Y-91219800D01*
X143644627Y-91226201D01*
X143644620Y-91226203D01*
X143509913Y-91276445D01*
X143509906Y-91276449D01*
X143394812Y-91362609D01*
X143394809Y-91362612D01*
X143308649Y-91477706D01*
X143308645Y-91477713D01*
X143258403Y-91612420D01*
X143258401Y-91612427D01*
X143252000Y-91671955D01*
X142902000Y-91671955D01*
X142902000Y-90649800D01*
X141742000Y-89489800D01*
X141742000Y-88099800D01*
X142102000Y-87739800D01*
X147692000Y-87739800D01*
X147692000Y-94598438D01*
G37*
G04 #@! TD.AperFunction*
G04 #@! TA.AperFunction,Conductor*
G36*
X140077677Y-56449485D02*
G01*
X140098319Y-56466119D01*
X141755681Y-58123481D01*
X141789166Y-58184804D01*
X141792000Y-58211162D01*
X141792000Y-68019800D01*
X147655681Y-73883481D01*
X147689166Y-73944804D01*
X147692000Y-73971162D01*
X147692000Y-87739800D01*
X142102000Y-87739800D01*
X141742000Y-88099800D01*
X141742000Y-89489800D01*
X140123362Y-89489800D01*
X140056323Y-89470115D01*
X140035681Y-89453481D01*
X138268319Y-87686119D01*
X138234834Y-87624796D01*
X138232000Y-87598438D01*
X138232000Y-64879800D01*
X136792000Y-63439800D01*
X116078362Y-63439800D01*
X116011323Y-63420115D01*
X115990681Y-63403481D01*
X115663319Y-63076119D01*
X115629834Y-63014796D01*
X115627000Y-62988438D01*
X115627000Y-57566162D01*
X115646685Y-57499123D01*
X115663319Y-57478481D01*
X116675681Y-56466119D01*
X116737004Y-56432634D01*
X116763362Y-56429800D01*
X140010638Y-56429800D01*
X140077677Y-56449485D01*
G37*
G04 #@! TD.AperFunction*
G04 #@! TA.AperFunction,Conductor*
G36*
X102269005Y-89244485D02*
G01*
X102314760Y-89297289D01*
X102325966Y-89348800D01*
X102325966Y-93079262D01*
X102326375Y-93096993D01*
X102327000Y-93106806D01*
X102327000Y-93674800D01*
X102795681Y-94143481D01*
X102829166Y-94204804D01*
X102832000Y-94231162D01*
X102832000Y-108128438D01*
X102812315Y-108195477D01*
X102795681Y-108216119D01*
X101848819Y-109162981D01*
X101787496Y-109196466D01*
X101761138Y-109199300D01*
X94852862Y-109199300D01*
X94785823Y-109179615D01*
X94765181Y-109162981D01*
X93168319Y-107566119D01*
X93134834Y-107504796D01*
X93132000Y-107478438D01*
X93132000Y-95131162D01*
X93151685Y-95064123D01*
X93168319Y-95043481D01*
X96125681Y-92086119D01*
X96187004Y-92052634D01*
X96213362Y-92049800D01*
X99422000Y-92049800D01*
X99752000Y-91719800D01*
X99752000Y-91091162D01*
X99771685Y-91024123D01*
X99788319Y-91003481D01*
X100085681Y-90706119D01*
X100147004Y-90672634D01*
X100173362Y-90669800D01*
X100972000Y-90669800D01*
X101267000Y-90374800D01*
X101267000Y-89348800D01*
X101286685Y-89281761D01*
X101339489Y-89236006D01*
X101391000Y-89224800D01*
X102201966Y-89224800D01*
X102269005Y-89244485D01*
G37*
G04 #@! TD.AperFunction*
G04 #@! TA.AperFunction,Conductor*
G36*
X141967677Y-90519485D02*
G01*
X141988319Y-90536119D01*
X142565681Y-91113481D01*
X142599166Y-91174804D01*
X142602000Y-91201162D01*
X142602000Y-92151551D01*
X142600617Y-92151551D01*
X142602000Y-92164426D01*
X142602000Y-92192972D01*
X142599274Y-92205757D01*
X142592740Y-92217839D01*
X142592565Y-92218264D01*
X142592521Y-92218245D01*
X142588622Y-92225455D01*
X142582315Y-92246937D01*
X142572328Y-92255590D01*
X142566041Y-92267218D01*
X142546430Y-92278031D01*
X142529511Y-92292692D01*
X142516430Y-92294572D01*
X142504856Y-92300955D01*
X142497054Y-92300429D01*
X142077686Y-92719799D01*
X142077686Y-92719801D01*
X142500111Y-93142226D01*
X142523399Y-93144310D01*
X142578577Y-93187172D01*
X142599274Y-93233843D01*
X142602000Y-93246628D01*
X142602000Y-93269254D01*
X142601449Y-93276533D01*
X142602000Y-93281660D01*
X142602000Y-94849800D01*
X142902000Y-95149800D01*
X147800638Y-95149800D01*
X147830078Y-95158444D01*
X147860065Y-95164968D01*
X147865080Y-95168722D01*
X147867677Y-95169485D01*
X147888319Y-95186119D01*
X147965681Y-95263481D01*
X147999166Y-95324804D01*
X148002000Y-95351162D01*
X148002000Y-98749800D01*
X147352000Y-99399800D01*
X139852000Y-99399800D01*
X139452000Y-98999800D01*
X139452000Y-97699800D01*
X137102000Y-95349800D01*
X137102000Y-93696773D01*
X138100710Y-93696773D01*
X138202808Y-93739064D01*
X138202816Y-93739066D01*
X138407594Y-93779799D01*
X138407598Y-93779800D01*
X138616402Y-93779800D01*
X138616405Y-93779799D01*
X138821183Y-93739066D01*
X138821187Y-93739065D01*
X138923288Y-93696773D01*
X141100710Y-93696773D01*
X141202808Y-93739064D01*
X141202816Y-93739066D01*
X141407594Y-93779799D01*
X141407598Y-93779800D01*
X141616402Y-93779800D01*
X141616405Y-93779799D01*
X141821183Y-93739066D01*
X141821187Y-93739065D01*
X141923288Y-93696773D01*
X141512001Y-93285486D01*
X141512000Y-93285486D01*
X141100710Y-93696773D01*
X138923288Y-93696773D01*
X138512001Y-93285486D01*
X138512000Y-93285486D01*
X138100710Y-93696773D01*
X137102000Y-93696773D01*
X137102000Y-92615394D01*
X137452000Y-92615394D01*
X137452000Y-92824205D01*
X137492733Y-93028983D01*
X137492735Y-93028991D01*
X137535025Y-93131088D01*
X137946314Y-92719800D01*
X137946314Y-92719799D01*
X137879172Y-92652657D01*
X138002000Y-92652657D01*
X138002000Y-92786943D01*
X138036755Y-92916653D01*
X138103898Y-93032947D01*
X138198853Y-93127902D01*
X138315147Y-93195045D01*
X138444857Y-93229800D01*
X138579143Y-93229800D01*
X138708853Y-93195045D01*
X138825147Y-93127902D01*
X138920102Y-93032947D01*
X138987245Y-92916653D01*
X139022000Y-92786943D01*
X139022000Y-92719799D01*
X139077686Y-92719799D01*
X139077686Y-92719801D01*
X139488973Y-93131088D01*
X139531265Y-93028987D01*
X139531266Y-93028983D01*
X139571999Y-92824205D01*
X139572000Y-92824202D01*
X139572000Y-92615398D01*
X139571999Y-92615394D01*
X140452000Y-92615394D01*
X140452000Y-92824205D01*
X140492733Y-93028983D01*
X140492735Y-93028991D01*
X140535025Y-93131088D01*
X140946314Y-92719800D01*
X140946314Y-92719799D01*
X140879172Y-92652657D01*
X141002000Y-92652657D01*
X141002000Y-92786943D01*
X141036755Y-92916653D01*
X141103898Y-93032947D01*
X141198853Y-93127902D01*
X141315147Y-93195045D01*
X141444857Y-93229800D01*
X141579143Y-93229800D01*
X141708853Y-93195045D01*
X141825147Y-93127902D01*
X141920102Y-93032947D01*
X141987245Y-92916653D01*
X142022000Y-92786943D01*
X142022000Y-92652657D01*
X141987245Y-92522947D01*
X141920102Y-92406653D01*
X141825147Y-92311698D01*
X141708853Y-92244555D01*
X141579143Y-92209800D01*
X141444857Y-92209800D01*
X141315147Y-92244555D01*
X141198853Y-92311698D01*
X141103898Y-92406653D01*
X141036755Y-92522947D01*
X141002000Y-92652657D01*
X140879172Y-92652657D01*
X140535025Y-92308510D01*
X140492735Y-92410607D01*
X140492732Y-92410616D01*
X140452000Y-92615394D01*
X139571999Y-92615394D01*
X139531266Y-92410616D01*
X139531264Y-92410608D01*
X139488973Y-92308510D01*
X139077686Y-92719799D01*
X139022000Y-92719799D01*
X139022000Y-92652657D01*
X138987245Y-92522947D01*
X138920102Y-92406653D01*
X138825147Y-92311698D01*
X138708853Y-92244555D01*
X138579143Y-92209800D01*
X138444857Y-92209800D01*
X138315147Y-92244555D01*
X138198853Y-92311698D01*
X138103898Y-92406653D01*
X138036755Y-92522947D01*
X138002000Y-92652657D01*
X137879172Y-92652657D01*
X137535025Y-92308510D01*
X137492735Y-92410607D01*
X137492732Y-92410616D01*
X137452000Y-92615394D01*
X137102000Y-92615394D01*
X137102000Y-91742825D01*
X138100710Y-91742825D01*
X138512000Y-92154114D01*
X138512001Y-92154114D01*
X138923288Y-91742825D01*
X141100710Y-91742825D01*
X141512000Y-92154114D01*
X141512001Y-92154114D01*
X141923288Y-91742825D01*
X141821191Y-91700535D01*
X141821183Y-91700533D01*
X141616405Y-91659800D01*
X141407594Y-91659800D01*
X141202816Y-91700532D01*
X141202807Y-91700535D01*
X141100710Y-91742825D01*
X138923288Y-91742825D01*
X138821191Y-91700535D01*
X138821183Y-91700533D01*
X138616405Y-91659800D01*
X138407594Y-91659800D01*
X138202816Y-91700532D01*
X138202807Y-91700535D01*
X138100710Y-91742825D01*
X137102000Y-91742825D01*
X137102000Y-90623800D01*
X137121685Y-90556761D01*
X137174489Y-90511006D01*
X137226000Y-90499800D01*
X141900638Y-90499800D01*
X141967677Y-90519485D01*
G37*
G04 #@! TD.AperFunction*
G04 #@! TA.AperFunction,Conductor*
G36*
X104452000Y-87399800D02*
G01*
X104602000Y-87549800D01*
X104602000Y-93574800D01*
X104227000Y-93949800D01*
X103502000Y-93949800D01*
X102631466Y-93079266D01*
X102631466Y-87349800D01*
X102706466Y-87274800D01*
X104452000Y-87274800D01*
X104452000Y-87399800D01*
G37*
G04 #@! TD.AperFunction*
G04 #@! TA.AperFunction,Conductor*
G36*
X101252000Y-59914800D02*
G01*
X101402000Y-60064800D01*
X101402000Y-66089800D01*
X100777000Y-66714800D01*
X100181466Y-66714800D01*
X99367500Y-65900834D01*
X99367500Y-62128806D01*
X99367500Y-62128800D01*
X99363739Y-62081014D01*
X99358894Y-62050421D01*
X99352487Y-62020046D01*
X99352486Y-62020043D01*
X99323463Y-61958953D01*
X99311466Y-61905743D01*
X99311466Y-59984800D01*
X99506466Y-59789800D01*
X101252000Y-59789800D01*
X101252000Y-59914800D01*
G37*
G04 #@! TD.AperFunction*
G04 #@! TA.AperFunction,Conductor*
G36*
X155467677Y-52319485D02*
G01*
X155488319Y-52336119D01*
X156621752Y-53469552D01*
X156655237Y-53530875D01*
X156658071Y-53557233D01*
X156658071Y-61670700D01*
X156638386Y-61737739D01*
X156585582Y-61783494D01*
X156516424Y-61793438D01*
X156465180Y-61773802D01*
X156351366Y-61697754D01*
X156351365Y-61697753D01*
X156351360Y-61697750D01*
X156351355Y-61697747D01*
X156351348Y-61697743D01*
X156048450Y-61535840D01*
X156048438Y-61535835D01*
X155731119Y-61404397D01*
X155498491Y-61333830D01*
X155402431Y-61304691D01*
X155402428Y-61304690D01*
X155402427Y-61304690D01*
X155065554Y-61237681D01*
X154824732Y-61213963D01*
X154723737Y-61204016D01*
X154380263Y-61204016D01*
X154288323Y-61213071D01*
X154038445Y-61237681D01*
X153701572Y-61304690D01*
X153372880Y-61404397D01*
X153055561Y-61535835D01*
X153055549Y-61535840D01*
X152752651Y-61697743D01*
X152752633Y-61697754D01*
X152467060Y-61888568D01*
X152467046Y-61888578D01*
X152201538Y-62106475D01*
X151958675Y-62349338D01*
X151740778Y-62614846D01*
X151740768Y-62614860D01*
X151549954Y-62900433D01*
X151549943Y-62900451D01*
X151388040Y-63203349D01*
X151388035Y-63203361D01*
X151256597Y-63520680D01*
X151156890Y-63849372D01*
X151089881Y-64186245D01*
X151056216Y-64528066D01*
X151056216Y-64871533D01*
X151089881Y-65213354D01*
X151156890Y-65550227D01*
X151256597Y-65878919D01*
X151388035Y-66196238D01*
X151388040Y-66196250D01*
X151549943Y-66499148D01*
X151549954Y-66499166D01*
X151740768Y-66784739D01*
X151740778Y-66784753D01*
X151958675Y-67050261D01*
X152201538Y-67293124D01*
X152201543Y-67293128D01*
X152201544Y-67293129D01*
X152467052Y-67511026D01*
X152752640Y-67701850D01*
X152752649Y-67701855D01*
X152752651Y-67701856D01*
X153055549Y-67863759D01*
X153055551Y-67863759D01*
X153055557Y-67863763D01*
X153238056Y-67939356D01*
X153372880Y-67995202D01*
X153372884Y-67995203D01*
X153372886Y-67995204D01*
X153701569Y-68094909D01*
X154038443Y-68161918D01*
X154380263Y-68195584D01*
X154380266Y-68195584D01*
X154723734Y-68195584D01*
X154723737Y-68195584D01*
X155065557Y-68161918D01*
X155402431Y-68094909D01*
X155731114Y-67995204D01*
X156048443Y-67863763D01*
X156351360Y-67701850D01*
X156465182Y-67625796D01*
X156531857Y-67604919D01*
X156599237Y-67623403D01*
X156645928Y-67675382D01*
X156658071Y-67728899D01*
X156658071Y-76448438D01*
X156638386Y-76515477D01*
X156621752Y-76536119D01*
X155994890Y-77162981D01*
X155933567Y-77196466D01*
X155907209Y-77199300D01*
X150400746Y-77199300D01*
X150276306Y-77214410D01*
X150100449Y-77235763D01*
X149855258Y-77296197D01*
X149825583Y-77299800D01*
X149203362Y-77299800D01*
X149136323Y-77280115D01*
X149115681Y-77263481D01*
X148588319Y-76736119D01*
X148554834Y-76674796D01*
X148552000Y-76648438D01*
X148552000Y-73299800D01*
X144292691Y-69040491D01*
X146201500Y-69040491D01*
X146201500Y-69159109D01*
X146232201Y-69273686D01*
X146291511Y-69376413D01*
X146375387Y-69460289D01*
X146478114Y-69519599D01*
X146592691Y-69550300D01*
X146592694Y-69550300D01*
X146711306Y-69550300D01*
X146711309Y-69550300D01*
X146825886Y-69519599D01*
X146928613Y-69460289D01*
X147012489Y-69376413D01*
X147071799Y-69273686D01*
X147102500Y-69159109D01*
X147102500Y-69040491D01*
X147071799Y-68925914D01*
X147012489Y-68823187D01*
X146928613Y-68739311D01*
X146825886Y-68680001D01*
X146711309Y-68649300D01*
X146592691Y-68649300D01*
X146478114Y-68680001D01*
X146478112Y-68680001D01*
X146478112Y-68680002D01*
X146375387Y-68739311D01*
X146375384Y-68739313D01*
X146291513Y-68823184D01*
X146291511Y-68823187D01*
X146232201Y-68925914D01*
X146201500Y-69040491D01*
X144292691Y-69040491D01*
X142288319Y-67036119D01*
X142254834Y-66974796D01*
X142252000Y-66948438D01*
X142252000Y-64710491D01*
X148501500Y-64710491D01*
X148501500Y-64829109D01*
X148532201Y-64943686D01*
X148591511Y-65046413D01*
X148675387Y-65130289D01*
X148778114Y-65189599D01*
X148892691Y-65220300D01*
X148892694Y-65220300D01*
X149011306Y-65220300D01*
X149011309Y-65220300D01*
X149125886Y-65189599D01*
X149228613Y-65130289D01*
X149312489Y-65046413D01*
X149371799Y-64943686D01*
X149402500Y-64829109D01*
X149402500Y-64710491D01*
X149371799Y-64595914D01*
X149312489Y-64493187D01*
X149228613Y-64409311D01*
X149125886Y-64350001D01*
X149011309Y-64319300D01*
X148892691Y-64319300D01*
X148778114Y-64350001D01*
X148778112Y-64350001D01*
X148778112Y-64350002D01*
X148675387Y-64409311D01*
X148675384Y-64409313D01*
X148591513Y-64493184D01*
X148591511Y-64493187D01*
X148537975Y-64585914D01*
X148532201Y-64595914D01*
X148501500Y-64710491D01*
X142252000Y-64710491D01*
X142252000Y-62851162D01*
X142271685Y-62784123D01*
X142288319Y-62763481D01*
X143314061Y-61737739D01*
X144352000Y-60699800D01*
X144352000Y-60090491D01*
X144631500Y-60090491D01*
X144631500Y-60209109D01*
X144662201Y-60323686D01*
X144721511Y-60426413D01*
X144805387Y-60510289D01*
X144908114Y-60569599D01*
X145022691Y-60600300D01*
X145022694Y-60600300D01*
X145141306Y-60600300D01*
X145141309Y-60600300D01*
X145255886Y-60569599D01*
X145358613Y-60510289D01*
X145442489Y-60426413D01*
X145501799Y-60323686D01*
X145532500Y-60209109D01*
X145532500Y-60090491D01*
X145501799Y-59975914D01*
X145442489Y-59873187D01*
X145358613Y-59789311D01*
X145255886Y-59730001D01*
X145141309Y-59699300D01*
X145022691Y-59699300D01*
X144908114Y-59730001D01*
X144908112Y-59730001D01*
X144908112Y-59730002D01*
X144805387Y-59789311D01*
X144805384Y-59789313D01*
X144721513Y-59873184D01*
X144721511Y-59873187D01*
X144662201Y-59975914D01*
X144631500Y-60090491D01*
X144352000Y-60090491D01*
X144352000Y-56199800D01*
X142552000Y-54399800D01*
X100503362Y-54399800D01*
X100473921Y-54391155D01*
X100443935Y-54384632D01*
X100438919Y-54380877D01*
X100436323Y-54380115D01*
X100415681Y-54363481D01*
X100288319Y-54236119D01*
X100254834Y-54174796D01*
X100252000Y-54148438D01*
X100252000Y-52651162D01*
X100271685Y-52584123D01*
X100288319Y-52563481D01*
X100515681Y-52336119D01*
X100577004Y-52302634D01*
X100603362Y-52299800D01*
X155400638Y-52299800D01*
X155467677Y-52319485D01*
G37*
G04 #@! TD.AperFunction*
G04 #@! TA.AperFunction,Conductor*
G36*
X136317677Y-87869485D02*
G01*
X136338319Y-87886119D01*
X136515681Y-88063481D01*
X136549166Y-88124804D01*
X136552000Y-88151162D01*
X136552000Y-92244350D01*
X136548616Y-92248871D01*
X136535838Y-92261648D01*
X136535833Y-92261650D01*
X136077686Y-92719799D01*
X136077686Y-92719801D01*
X136535825Y-93177940D01*
X136535840Y-93177954D01*
X136548619Y-93190733D01*
X136552000Y-93196924D01*
X136552000Y-93362714D01*
X136552000Y-96688438D01*
X136532315Y-96755477D01*
X136515681Y-96776119D01*
X135478319Y-97813481D01*
X135416996Y-97846966D01*
X135390638Y-97849800D01*
X120458362Y-97849800D01*
X120391323Y-97830115D01*
X120370681Y-97813481D01*
X119988319Y-97431119D01*
X119954834Y-97369796D01*
X119952000Y-97343438D01*
X119952000Y-93696773D01*
X135100710Y-93696773D01*
X135202808Y-93739064D01*
X135202816Y-93739066D01*
X135407594Y-93779799D01*
X135407598Y-93779800D01*
X135616402Y-93779800D01*
X135616405Y-93779799D01*
X135821183Y-93739066D01*
X135821187Y-93739065D01*
X135923288Y-93696773D01*
X135512001Y-93285486D01*
X135512000Y-93285486D01*
X135100710Y-93696773D01*
X119952000Y-93696773D01*
X119952000Y-92201162D01*
X119971685Y-92134123D01*
X119988319Y-92113481D01*
X120437302Y-91664498D01*
X133467500Y-91664498D01*
X133467500Y-91815101D01*
X133496877Y-91962788D01*
X133496879Y-91962796D01*
X133554507Y-92101924D01*
X133554512Y-92101933D01*
X133638173Y-92227139D01*
X133638176Y-92227143D01*
X133744656Y-92333623D01*
X133744660Y-92333626D01*
X133869866Y-92417287D01*
X133869872Y-92417290D01*
X133869873Y-92417291D01*
X134009004Y-92474921D01*
X134153702Y-92503703D01*
X134156698Y-92504299D01*
X134156702Y-92504300D01*
X134156703Y-92504300D01*
X134307298Y-92504300D01*
X134313360Y-92503703D01*
X134313573Y-92505870D01*
X134373387Y-92511216D01*
X134428569Y-92554072D01*
X134451821Y-92619959D01*
X134452000Y-92626611D01*
X134452000Y-92824205D01*
X134492733Y-93028983D01*
X134492735Y-93028991D01*
X134535025Y-93131088D01*
X135002000Y-92664113D01*
X135002000Y-92786943D01*
X135036755Y-92916653D01*
X135103898Y-93032947D01*
X135198853Y-93127902D01*
X135315147Y-93195045D01*
X135444857Y-93229800D01*
X135579143Y-93229800D01*
X135708853Y-93195045D01*
X135825147Y-93127902D01*
X135920102Y-93032947D01*
X135987245Y-92916653D01*
X136022000Y-92786943D01*
X136022000Y-92652657D01*
X135987245Y-92522947D01*
X135920102Y-92406653D01*
X135825147Y-92311698D01*
X135708853Y-92244555D01*
X135579143Y-92209800D01*
X135456313Y-92209800D01*
X135923288Y-91742825D01*
X135821191Y-91700535D01*
X135821183Y-91700533D01*
X135616405Y-91659800D01*
X135407594Y-91659800D01*
X135202816Y-91700533D01*
X135202804Y-91700536D01*
X135158418Y-91718922D01*
X135088949Y-91726391D01*
X135026470Y-91695116D01*
X134990818Y-91635027D01*
X134989349Y-91628552D01*
X134967122Y-91516811D01*
X134967121Y-91516804D01*
X134909491Y-91377673D01*
X134909490Y-91377672D01*
X134909487Y-91377666D01*
X134825826Y-91252460D01*
X134825823Y-91252456D01*
X134719343Y-91145976D01*
X134719339Y-91145973D01*
X134594133Y-91062312D01*
X134594124Y-91062307D01*
X134454996Y-91004679D01*
X134454988Y-91004677D01*
X134307301Y-90975300D01*
X134307297Y-90975300D01*
X134156703Y-90975300D01*
X134156698Y-90975300D01*
X134009011Y-91004677D01*
X134009003Y-91004679D01*
X133869875Y-91062307D01*
X133869866Y-91062312D01*
X133744660Y-91145973D01*
X133744656Y-91145976D01*
X133638176Y-91252456D01*
X133638173Y-91252460D01*
X133554512Y-91377666D01*
X133554507Y-91377675D01*
X133496879Y-91516803D01*
X133496877Y-91516811D01*
X133467500Y-91664498D01*
X120437302Y-91664498D01*
X124215681Y-87886119D01*
X124277004Y-87852634D01*
X124303362Y-87849800D01*
X136250638Y-87849800D01*
X136317677Y-87869485D01*
G37*
G04 #@! TD.AperFunction*
G04 #@! TA.AperFunction,Conductor*
G36*
X134667677Y-66919485D02*
G01*
X134688319Y-66936119D01*
X135415681Y-67663481D01*
X135449166Y-67724804D01*
X135452000Y-67751162D01*
X135452000Y-77748438D01*
X135432315Y-77815477D01*
X135415681Y-77836119D01*
X134788319Y-78463481D01*
X134726996Y-78496966D01*
X134700638Y-78499800D01*
X126603362Y-78499800D01*
X126536323Y-78480115D01*
X126515681Y-78463481D01*
X125888319Y-77836119D01*
X125854834Y-77774796D01*
X125852000Y-77748438D01*
X125852000Y-76336610D01*
X129202000Y-76336610D01*
X129208417Y-76439973D01*
X129208418Y-76439976D01*
X129259432Y-76683272D01*
X129259435Y-76683282D01*
X129349793Y-76914849D01*
X129477046Y-77128408D01*
X129637703Y-77318094D01*
X129637705Y-77318096D01*
X129827391Y-77478753D01*
X130040950Y-77606006D01*
X130272517Y-77696364D01*
X130272527Y-77696367D01*
X130452000Y-77733998D01*
X132952000Y-77733998D01*
X133131472Y-77696367D01*
X133131482Y-77696364D01*
X133363049Y-77606006D01*
X133576608Y-77478753D01*
X133766294Y-77318096D01*
X133766296Y-77318094D01*
X133926953Y-77128408D01*
X134054206Y-76914849D01*
X134144564Y-76683282D01*
X134144567Y-76683272D01*
X134195581Y-76439976D01*
X134195582Y-76439973D01*
X134201999Y-76336610D01*
X134202000Y-76336593D01*
X134202000Y-74303800D01*
X132952000Y-74303800D01*
X132952000Y-77733998D01*
X130452000Y-77733998D01*
X130452000Y-74303800D01*
X129202000Y-74303800D01*
X129202000Y-76336610D01*
X125852000Y-76336610D01*
X125852000Y-69770989D01*
X129202000Y-69770989D01*
X129202000Y-71803800D01*
X130452000Y-71803800D01*
X130452000Y-70787974D01*
X131202000Y-70787974D01*
X131202000Y-75319626D01*
X131236075Y-75446793D01*
X131301901Y-75560807D01*
X131394993Y-75653899D01*
X131509007Y-75719725D01*
X131636174Y-75753800D01*
X131767826Y-75753800D01*
X131894993Y-75719725D01*
X132009007Y-75653899D01*
X132102099Y-75560807D01*
X132167925Y-75446793D01*
X132202000Y-75319626D01*
X132202000Y-71803800D01*
X132952000Y-71803800D01*
X134202000Y-71803800D01*
X134202000Y-69771006D01*
X134201999Y-69770989D01*
X134195582Y-69667626D01*
X134195581Y-69667623D01*
X134144567Y-69424327D01*
X134144564Y-69424317D01*
X134054206Y-69192750D01*
X133926953Y-68979191D01*
X133766296Y-68789505D01*
X133766294Y-68789503D01*
X133576608Y-68628846D01*
X133363049Y-68501593D01*
X133131480Y-68411234D01*
X133131472Y-68411232D01*
X132952000Y-68373600D01*
X132952000Y-71803800D01*
X132202000Y-71803800D01*
X132202000Y-70787974D01*
X132167925Y-70660807D01*
X132102099Y-70546793D01*
X132009007Y-70453701D01*
X131894993Y-70387875D01*
X131767826Y-70353800D01*
X131636174Y-70353800D01*
X131509007Y-70387875D01*
X131394993Y-70453701D01*
X131301901Y-70546793D01*
X131236075Y-70660807D01*
X131202000Y-70787974D01*
X130452000Y-70787974D01*
X130452000Y-68373600D01*
X130451999Y-68373600D01*
X130272527Y-68411232D01*
X130272519Y-68411234D01*
X130040950Y-68501593D01*
X129827391Y-68628846D01*
X129637705Y-68789503D01*
X129637703Y-68789505D01*
X129477046Y-68979191D01*
X129349793Y-69192750D01*
X129259435Y-69424317D01*
X129259432Y-69424327D01*
X129208418Y-69667623D01*
X129208417Y-69667626D01*
X129202000Y-69770989D01*
X125852000Y-69770989D01*
X125852000Y-67651162D01*
X125871685Y-67584123D01*
X125888319Y-67563481D01*
X126515681Y-66936119D01*
X126577004Y-66902634D01*
X126603362Y-66899800D01*
X134600638Y-66899800D01*
X134667677Y-66919485D01*
G37*
G04 #@! TD.AperFunction*
G04 #@! TA.AperFunction,Conductor*
G36*
X117851784Y-86869985D02*
G01*
X117872426Y-86886619D01*
X120181122Y-89195315D01*
X120214607Y-89256638D01*
X120209623Y-89326330D01*
X120181122Y-89370677D01*
X119052000Y-90499799D01*
X119052000Y-90499800D01*
X119052000Y-97499800D01*
X121052000Y-99499800D01*
X135652000Y-99499800D01*
X137102000Y-98049800D01*
X137102000Y-95349800D01*
X139452000Y-97699800D01*
X139452000Y-98999800D01*
X139852000Y-99399800D01*
X147352000Y-99399800D01*
X148002000Y-98749800D01*
X148002000Y-107998437D01*
X147982315Y-108065476D01*
X147965681Y-108086118D01*
X146921965Y-109129833D01*
X146860642Y-109163318D01*
X146774067Y-109182151D01*
X146756556Y-109184669D01*
X146573731Y-109197745D01*
X146556417Y-109198984D01*
X146547572Y-109199300D01*
X132400740Y-109199300D01*
X132397000Y-109199526D01*
X132396987Y-109199323D01*
X132389126Y-109199800D01*
X122366534Y-109199800D01*
X122299495Y-109180115D01*
X122297643Y-109178902D01*
X122101366Y-109047754D01*
X122101365Y-109047753D01*
X122101360Y-109047750D01*
X122101355Y-109047747D01*
X122101348Y-109047743D01*
X121798450Y-108885840D01*
X121798438Y-108885835D01*
X121481119Y-108754397D01*
X121241679Y-108681764D01*
X121152431Y-108654691D01*
X121152428Y-108654690D01*
X121152427Y-108654690D01*
X120815554Y-108587681D01*
X120574732Y-108563963D01*
X120473737Y-108554016D01*
X120130263Y-108554016D01*
X120038323Y-108563071D01*
X119788445Y-108587681D01*
X119451572Y-108654690D01*
X119122880Y-108754397D01*
X118805561Y-108885835D01*
X118805549Y-108885840D01*
X118502651Y-109047743D01*
X118502633Y-109047754D01*
X118306357Y-109178902D01*
X118239679Y-109199780D01*
X118237466Y-109199800D01*
X108214876Y-109199800D01*
X108207014Y-109199323D01*
X108207002Y-109199526D01*
X108203262Y-109199300D01*
X108203254Y-109199300D01*
X108117893Y-109199300D01*
X105602862Y-109199300D01*
X105535823Y-109179615D01*
X105515181Y-109162981D01*
X104088319Y-107736119D01*
X104054834Y-107674796D01*
X104052000Y-107648438D01*
X104052000Y-94499800D01*
X103502000Y-93949800D01*
X104227000Y-93949800D01*
X104602000Y-93574800D01*
X104602000Y-87549800D01*
X104452000Y-87399800D01*
X104452000Y-87274800D01*
X102706466Y-87274800D01*
X102631466Y-87349800D01*
X102631466Y-89348800D01*
X102624484Y-89283859D01*
X102613278Y-89232348D01*
X102602764Y-89195689D01*
X102602321Y-89194145D01*
X102602320Y-89194144D01*
X102602320Y-89194142D01*
X102599790Y-89189817D01*
X102568962Y-89137103D01*
X102552000Y-89074503D01*
X102552000Y-86974300D01*
X102571685Y-86907261D01*
X102624489Y-86861506D01*
X102676000Y-86850300D01*
X117784745Y-86850300D01*
X117851784Y-86869985D01*
G37*
G04 #@! TD.AperFunction*
G04 #@! TA.AperFunction,Conductor*
G36*
X113497817Y-59311558D02*
G01*
X113564788Y-59331470D01*
X113585076Y-59347876D01*
X115215681Y-60978481D01*
X115249166Y-61039804D01*
X115252000Y-61066162D01*
X115252000Y-64799800D01*
X116252000Y-65799800D01*
X122000638Y-65799800D01*
X122067677Y-65819485D01*
X122088319Y-65836119D01*
X124615681Y-68363481D01*
X124649166Y-68424804D01*
X124652000Y-68451162D01*
X124652000Y-78399800D01*
X125752000Y-79499800D01*
X136700638Y-79499800D01*
X136767677Y-79519485D01*
X136788319Y-79536119D01*
X137815681Y-80563481D01*
X137849166Y-80624804D01*
X137852000Y-80651162D01*
X137852000Y-86448438D01*
X137832315Y-86515477D01*
X137815681Y-86536119D01*
X137488319Y-86863481D01*
X137426996Y-86896966D01*
X137400638Y-86899800D01*
X122651999Y-86899800D01*
X120922877Y-88628922D01*
X120861554Y-88662407D01*
X120791862Y-88657423D01*
X120747515Y-88628922D01*
X118247915Y-86129322D01*
X118247913Y-86129320D01*
X118202250Y-86102956D01*
X118156589Y-86076593D01*
X118105657Y-86062946D01*
X118054727Y-86049300D01*
X118054726Y-86049300D01*
X102676000Y-86049300D01*
X102608961Y-86029615D01*
X102563206Y-85976811D01*
X102552000Y-85925300D01*
X102552000Y-85409686D01*
X102571685Y-85342647D01*
X102588319Y-85322005D01*
X102622509Y-85287815D01*
X102694984Y-85162285D01*
X102732500Y-85022275D01*
X102732500Y-84877325D01*
X102694984Y-84737315D01*
X102622509Y-84611785D01*
X102588319Y-84577595D01*
X102554834Y-84516272D01*
X102552000Y-84489914D01*
X102552000Y-80924801D01*
X102551999Y-80924799D01*
X99108449Y-77493665D01*
X106002000Y-77493665D01*
X106008303Y-77605899D01*
X106008304Y-77605912D01*
X106058455Y-77870970D01*
X106058460Y-77870987D01*
X106147560Y-78125620D01*
X106147562Y-78125624D01*
X106273621Y-78364139D01*
X106273624Y-78364145D01*
X106433824Y-78581208D01*
X106624591Y-78771975D01*
X106841654Y-78932175D01*
X106841660Y-78932178D01*
X107080175Y-79058237D01*
X107080179Y-79058239D01*
X107334812Y-79147339D01*
X107334831Y-79147345D01*
X107551998Y-79188433D01*
X107552000Y-79188433D01*
X110052000Y-79188433D01*
X110052001Y-79188433D01*
X110269168Y-79147345D01*
X110269187Y-79147339D01*
X110523820Y-79058239D01*
X110523824Y-79058237D01*
X110762339Y-78932178D01*
X110762345Y-78932175D01*
X110979408Y-78771975D01*
X111170175Y-78581208D01*
X111330375Y-78364145D01*
X111330378Y-78364139D01*
X111456437Y-78125624D01*
X111456439Y-78125620D01*
X111545539Y-77870987D01*
X111545544Y-77870970D01*
X111595695Y-77605912D01*
X111595696Y-77605899D01*
X111601999Y-77493665D01*
X111602000Y-77493651D01*
X111602000Y-75453800D01*
X110052000Y-75453800D01*
X110052000Y-79188433D01*
X107552000Y-79188433D01*
X107552000Y-75453800D01*
X106002000Y-75453800D01*
X106002000Y-77493665D01*
X99108449Y-77493665D01*
X97388477Y-75779895D01*
X97354882Y-75718633D01*
X97352000Y-75692056D01*
X97352000Y-70913934D01*
X106002000Y-70913934D01*
X106002000Y-72953800D01*
X107552000Y-72953800D01*
X107552000Y-71937974D01*
X108302000Y-71937974D01*
X108302000Y-76469626D01*
X108336075Y-76596793D01*
X108401901Y-76710807D01*
X108494993Y-76803899D01*
X108609007Y-76869725D01*
X108736174Y-76903800D01*
X108867826Y-76903800D01*
X108994993Y-76869725D01*
X109109007Y-76803899D01*
X109202099Y-76710807D01*
X109267925Y-76596793D01*
X109302000Y-76469626D01*
X109302000Y-72953800D01*
X110052000Y-72953800D01*
X111602000Y-72953800D01*
X111602000Y-70913948D01*
X111601999Y-70913934D01*
X111595696Y-70801700D01*
X111595695Y-70801687D01*
X111545544Y-70536629D01*
X111545539Y-70536612D01*
X111456439Y-70281979D01*
X111456437Y-70281975D01*
X111330378Y-70043460D01*
X111330375Y-70043454D01*
X111170175Y-69826391D01*
X110979408Y-69635624D01*
X110762345Y-69475424D01*
X110762339Y-69475421D01*
X110523824Y-69349362D01*
X110523820Y-69349360D01*
X110269187Y-69260260D01*
X110269170Y-69260255D01*
X110052000Y-69219164D01*
X110052000Y-72953800D01*
X109302000Y-72953800D01*
X109302000Y-71937974D01*
X109267925Y-71810807D01*
X109202099Y-71696793D01*
X109109007Y-71603701D01*
X108994993Y-71537875D01*
X108867826Y-71503800D01*
X108736174Y-71503800D01*
X108609007Y-71537875D01*
X108494993Y-71603701D01*
X108401901Y-71696793D01*
X108336075Y-71810807D01*
X108302000Y-71937974D01*
X107552000Y-71937974D01*
X107552000Y-69219164D01*
X107551999Y-69219164D01*
X107334829Y-69260255D01*
X107334812Y-69260260D01*
X107080179Y-69349360D01*
X107080175Y-69349362D01*
X106841660Y-69475421D01*
X106841654Y-69475424D01*
X106624591Y-69635624D01*
X106433824Y-69826391D01*
X106273624Y-70043454D01*
X106273621Y-70043460D01*
X106147562Y-70281975D01*
X106147560Y-70281979D01*
X106058460Y-70536612D01*
X106058455Y-70536629D01*
X106008304Y-70801687D01*
X106008303Y-70801700D01*
X106002000Y-70913934D01*
X97352000Y-70913934D01*
X97352000Y-69851162D01*
X97371685Y-69784123D01*
X97388319Y-69763481D01*
X97932636Y-69219164D01*
X99311466Y-67840334D01*
X99311466Y-66933671D01*
X99326584Y-66874335D01*
X99333641Y-66861386D01*
X99352548Y-66803195D01*
X99367500Y-66708792D01*
X99367500Y-65900834D01*
X100181466Y-66714800D01*
X100777000Y-66714800D01*
X101402000Y-66089800D01*
X101402000Y-60064800D01*
X101252000Y-59914800D01*
X101252000Y-59789800D01*
X99506466Y-59789800D01*
X99311466Y-59984800D01*
X99311466Y-59387794D01*
X99331151Y-59320755D01*
X99383955Y-59275000D01*
X99435884Y-59263795D01*
X113497817Y-59311558D01*
G37*
G04 #@! TD.AperFunction*
G04 #@! TA.AperFunction,Conductor*
G36*
X99021191Y-62048707D02*
G01*
X99057155Y-62098207D01*
X99062000Y-62128800D01*
X99062000Y-66708792D01*
X99043093Y-66766983D01*
X99033004Y-66778796D01*
X96552000Y-69259800D01*
X96551999Y-69259799D01*
X96492000Y-69319799D01*
X96492000Y-73768792D01*
X96473093Y-73826983D01*
X96463004Y-73838796D01*
X95370996Y-74930804D01*
X95316479Y-74958581D01*
X95300992Y-74959800D01*
X90865111Y-74959800D01*
X90806920Y-74940893D01*
X90795107Y-74930804D01*
X90031496Y-74167193D01*
X90003719Y-74112676D01*
X90002500Y-74097189D01*
X90002500Y-67400308D01*
X90021407Y-67342117D01*
X90031496Y-67330304D01*
X92653004Y-64708796D01*
X92707521Y-64681019D01*
X92723008Y-64679800D01*
X96271999Y-64679800D01*
X96272000Y-64679800D01*
X96962000Y-63989800D01*
X96962000Y-62320808D01*
X96980907Y-62262617D01*
X96990996Y-62250804D01*
X97183004Y-62058796D01*
X97237521Y-62031019D01*
X97253008Y-62029800D01*
X98963000Y-62029800D01*
X99021191Y-62048707D01*
G37*
G04 #@! TD.AperFunction*
D17*
X148552000Y-79699800D02*
X148552000Y-107699800D01*
X108052001Y-109699800D02*
G75*
G02*
X110052000Y-111699799I-1J-2000000D01*
G01*
X84051999Y-51699800D02*
X156552000Y-51699800D01*
X84051998Y-77699800D02*
G75*
G02*
X82052000Y-75699802I2J2000000D01*
G01*
X92052000Y-107699802D02*
X92052000Y-79699799D01*
X148552000Y-107699800D02*
G75*
G02*
X146552000Y-109699800I-2000000J0D01*
G01*
X148552000Y-79699800D02*
G75*
G02*
X150552000Y-77699800I2000000J0D01*
G01*
D18*
X156252000Y-64699800D02*
G75*
G02*
X152852000Y-64699800I-1700000J0D01*
G01*
X152852000Y-64699800D02*
G75*
G02*
X156252000Y-64699800I1700000J0D01*
G01*
D17*
X130552000Y-115699800D02*
G75*
G02*
X128552000Y-117699800I-2000000J0D01*
G01*
X112051998Y-117699800D02*
X128552000Y-117699800D01*
X112051998Y-117699800D02*
G75*
G02*
X110052000Y-115699802I2J2000000D01*
G01*
X146552000Y-109699800D02*
X132552000Y-109699800D01*
X156552000Y-77699800D02*
X150552000Y-77699800D01*
X82052000Y-53699799D02*
X82052000Y-75699802D01*
X108052001Y-109699800D02*
X94051998Y-109699800D01*
X94051998Y-109699800D02*
G75*
G02*
X92052000Y-107699802I2J2000000D01*
G01*
D18*
X122002000Y-112049800D02*
G75*
G02*
X118602000Y-112049800I-1700000J0D01*
G01*
X118602000Y-112049800D02*
G75*
G02*
X122002000Y-112049800I1700000J0D01*
G01*
D17*
X158552000Y-75699800D02*
X158552000Y-53699800D01*
X82052000Y-53699799D02*
G75*
G02*
X84051999Y-51699800I2000000J-1D01*
G01*
D18*
X87752000Y-64699800D02*
G75*
G02*
X84352000Y-64699800I-1700000J0D01*
G01*
X84352000Y-64699800D02*
G75*
G02*
X87752000Y-64699800I1700000J0D01*
G01*
D17*
X110052000Y-115699802D02*
X110052000Y-111699799D01*
X158552000Y-75699800D02*
G75*
G02*
X156552000Y-77699800I-2000000J0D01*
G01*
X130552000Y-111699800D02*
G75*
G02*
X132552000Y-109699800I2000000J0D01*
G01*
X156552000Y-51699800D02*
G75*
G02*
X158552000Y-53699800I0J-2000000D01*
G01*
X130552000Y-111699800D02*
X130552000Y-115699800D01*
X90052001Y-77699800D02*
G75*
G02*
X92052000Y-79699799I-1J-2000000D01*
G01*
X90052001Y-77699800D02*
X84051998Y-77699800D01*
M02*
