G04 #@! TF.GenerationSoftware,KiCad,Pcbnew,9.0.0*
G04 #@! TF.CreationDate,2026-01-23T14:49:33+07:00*
G04 #@! TF.ProjectId,Power_management_V2,506f7765-725f-46d6-916e-6167656d656e,rev?*
G04 #@! TF.SameCoordinates,Original*
G04 #@! TF.FileFunction,Soldermask,Top*
G04 #@! TF.FilePolarity,Negative*
%FSLAX46Y46*%
G04 Gerber Fmt 4.6, Leading zero omitted, Abs format (unit mm)*
G04 Created by KiCad (PCBNEW 9.0.0) date 2026-01-23 14:49:33*
%MOMM*%
%LPD*%
G01*
G04 APERTURE LIST*
G04 Aperture macros list*
%AMRoundRect*
0 Rectangle with rounded corners*
0 $1 Rounding radius*
0 $2 $3 $4 $5 $6 $7 $8 $9 X,Y pos of 4 corners*
0 Add a 4 corners polygon primitive as box body*
4,1,4,$2,$3,$4,$5,$6,$7,$8,$9,$2,$3,0*
0 Add four circle primitives for the rounded corners*
1,1,$1+$1,$2,$3*
1,1,$1+$1,$4,$5*
1,1,$1+$1,$6,$7*
1,1,$1+$1,$8,$9*
0 Add four rect primitives between the rounded corners*
20,1,$1+$1,$2,$3,$4,$5,0*
20,1,$1+$1,$4,$5,$6,$7,0*
20,1,$1+$1,$6,$7,$8,$9,0*
20,1,$1+$1,$8,$9,$2,$3,0*%
G04 Aperture macros list end*
%ADD10C,0.586200*%
%ADD11C,0.836200*%
%ADD12C,0.010000*%
%ADD13RoundRect,0.225000X-0.250000X0.225000X-0.250000X-0.225000X0.250000X-0.225000X0.250000X0.225000X0*%
%ADD14C,1.020000*%
%ADD15RoundRect,0.200000X-0.275000X0.200000X-0.275000X-0.200000X0.275000X-0.200000X0.275000X0.200000X0*%
%ADD16RoundRect,0.250000X1.100000X-0.325000X1.100000X0.325000X-1.100000X0.325000X-1.100000X-0.325000X0*%
%ADD17RoundRect,0.225000X0.225000X0.250000X-0.225000X0.250000X-0.225000X-0.250000X0.225000X-0.250000X0*%
%ADD18RoundRect,0.250000X0.325000X1.100000X-0.325000X1.100000X-0.325000X-1.100000X0.325000X-1.100000X0*%
%ADD19RoundRect,0.200000X0.200000X0.275000X-0.200000X0.275000X-0.200000X-0.275000X0.200000X-0.275000X0*%
%ADD20RoundRect,0.250000X-0.325000X-1.100000X0.325000X-1.100000X0.325000X1.100000X-0.325000X1.100000X0*%
%ADD21RoundRect,0.250000X0.325000X0.650000X-0.325000X0.650000X-0.325000X-0.650000X0.325000X-0.650000X0*%
%ADD22RoundRect,0.225000X0.250000X-0.225000X0.250000X0.225000X-0.250000X0.225000X-0.250000X-0.225000X0*%
%ADD23RoundRect,0.200000X0.275000X-0.200000X0.275000X0.200000X-0.275000X0.200000X-0.275000X-0.200000X0*%
%ADD24RoundRect,0.200000X-0.200000X-0.275000X0.200000X-0.275000X0.200000X0.275000X-0.200000X0.275000X0*%
%ADD25RoundRect,0.102000X-1.550000X-2.500000X1.550000X-2.500000X1.550000X2.500000X-1.550000X2.500000X0*%
%ADD26RoundRect,0.250000X-1.100000X0.325000X-1.100000X-0.325000X1.100000X-0.325000X1.100000X0.325000X0*%
%ADD27RoundRect,0.700000X-0.700000X-2.650000X0.700000X-2.650000X0.700000X2.650000X-0.700000X2.650000X0*%
%ADD28RoundRect,0.700000X0.700000X2.650000X-0.700000X2.650000X-0.700000X-2.650000X0.700000X-2.650000X0*%
%ADD29RoundRect,0.150000X-0.512500X-0.150000X0.512500X-0.150000X0.512500X0.150000X-0.512500X0.150000X0*%
%ADD30RoundRect,1.000000X1.000000X3.200000X-1.000000X3.200000X-1.000000X-3.200000X1.000000X-3.200000X0*%
G04 #@! TA.AperFunction,Profile*
%ADD31C,0.200000*%
G04 #@! TD*
G04 #@! TA.AperFunction,Profile*
%ADD32C,0.150000*%
G04 #@! TD*
G04 APERTURE END LIST*
D10*
X139400100Y-101399800D02*
G75*
G02*
X138813900Y-101399800I-293100J0D01*
G01*
X138813900Y-101399800D02*
G75*
G02*
X139400100Y-101399800I293100J0D01*
G01*
D11*
X140505100Y-97119800D02*
G75*
G02*
X139668900Y-97119800I-418100J0D01*
G01*
X139668900Y-97119800D02*
G75*
G02*
X140505100Y-97119800I418100J0D01*
G01*
X140505100Y-100119800D02*
G75*
G02*
X139668900Y-100119800I-418100J0D01*
G01*
X139668900Y-100119800D02*
G75*
G02*
X140505100Y-100119800I418100J0D01*
G01*
D12*
X140923200Y-94956000D02*
X139250800Y-94956000D01*
X139250800Y-93283600D01*
X140923200Y-93283600D01*
X140923200Y-94956000D01*
G36*
X140923200Y-94956000D02*
G01*
X139250800Y-94956000D01*
X139250800Y-93283600D01*
X140923200Y-93283600D01*
X140923200Y-94956000D01*
G37*
X93672000Y-59819800D02*
X92847000Y-59819800D01*
X92847000Y-59419800D01*
X93672000Y-59419800D01*
X93672000Y-59819800D01*
G36*
X93672000Y-59819800D02*
G01*
X92847000Y-59819800D01*
X92847000Y-59419800D01*
X93672000Y-59419800D01*
X93672000Y-59819800D01*
G37*
X93672000Y-60269800D02*
X92847000Y-60269800D01*
X92847000Y-59869800D01*
X93672000Y-59869800D01*
X93672000Y-60269800D01*
G36*
X93672000Y-60269800D02*
G01*
X92847000Y-60269800D01*
X92847000Y-59869800D01*
X93672000Y-59869800D01*
X93672000Y-60269800D01*
G37*
X93672000Y-60719800D02*
X92847000Y-60719800D01*
X92847000Y-60319800D01*
X93672000Y-60319800D01*
X93672000Y-60719800D01*
G36*
X93672000Y-60719800D02*
G01*
X92847000Y-60719800D01*
X92847000Y-60319800D01*
X93672000Y-60319800D01*
X93672000Y-60719800D01*
G37*
X93672000Y-61169800D02*
X92847000Y-61169800D01*
X92847000Y-60769800D01*
X93672000Y-60769800D01*
X93672000Y-61169800D01*
G36*
X93672000Y-61169800D02*
G01*
X92847000Y-61169800D01*
X92847000Y-60769800D01*
X93672000Y-60769800D01*
X93672000Y-61169800D01*
G37*
X93672000Y-61869800D02*
X92847000Y-61869800D01*
X92847000Y-61469800D01*
X93672000Y-61469800D01*
X93672000Y-61869800D01*
G36*
X93672000Y-61869800D02*
G01*
X92847000Y-61869800D01*
X92847000Y-61469800D01*
X93672000Y-61469800D01*
X93672000Y-61869800D01*
G37*
X93672000Y-62319800D02*
X92847000Y-62319800D01*
X92847000Y-61919800D01*
X93672000Y-61919800D01*
X93672000Y-62319800D01*
G36*
X93672000Y-62319800D02*
G01*
X92847000Y-62319800D01*
X92847000Y-61919800D01*
X93672000Y-61919800D01*
X93672000Y-62319800D01*
G37*
X93672000Y-62769800D02*
X92847000Y-62769800D01*
X92847000Y-62369800D01*
X93672000Y-62369800D01*
X93672000Y-62769800D01*
G36*
X93672000Y-62769800D02*
G01*
X92847000Y-62769800D01*
X92847000Y-62369800D01*
X93672000Y-62369800D01*
X93672000Y-62769800D01*
G37*
X94122000Y-59569800D02*
X93722000Y-59569800D01*
X93722000Y-58744800D01*
X94122000Y-58744800D01*
X94122000Y-59569800D01*
G36*
X94122000Y-59569800D02*
G01*
X93722000Y-59569800D01*
X93722000Y-58744800D01*
X94122000Y-58744800D01*
X94122000Y-59569800D01*
G37*
X95022000Y-61444800D02*
X93872000Y-61444800D01*
X93872000Y-59769800D01*
X95022000Y-59769800D01*
X95022000Y-61444800D01*
G36*
X95022000Y-61444800D02*
G01*
X93872000Y-61444800D01*
X93872000Y-59769800D01*
X95022000Y-59769800D01*
X95022000Y-61444800D01*
G37*
X94572000Y-59569800D02*
X94172000Y-59569800D01*
X94172000Y-58744800D01*
X94572000Y-58744800D01*
X94572000Y-59569800D01*
G36*
X94572000Y-59569800D02*
G01*
X94172000Y-59569800D01*
X94172000Y-58744800D01*
X94572000Y-58744800D01*
X94572000Y-59569800D01*
G37*
X95022000Y-59569800D02*
X94622000Y-59569800D01*
X94622000Y-58744800D01*
X95022000Y-58744800D01*
X95022000Y-59569800D01*
G36*
X95022000Y-59569800D02*
G01*
X94622000Y-59569800D01*
X94622000Y-58744800D01*
X95022000Y-58744800D01*
X95022000Y-59569800D01*
G37*
X95472000Y-59569800D02*
X95072000Y-59569800D01*
X95072000Y-58744800D01*
X95472000Y-58744800D01*
X95472000Y-59569800D01*
G36*
X95472000Y-59569800D02*
G01*
X95072000Y-59569800D01*
X95072000Y-58744800D01*
X95472000Y-58744800D01*
X95472000Y-59569800D01*
G37*
X95922000Y-59569800D02*
X95522000Y-59569800D01*
X95522000Y-58744800D01*
X95922000Y-58744800D01*
X95922000Y-59569800D01*
G36*
X95922000Y-59569800D02*
G01*
X95522000Y-59569800D01*
X95522000Y-58744800D01*
X95922000Y-58744800D01*
X95922000Y-59569800D01*
G37*
X96427000Y-60449800D02*
X95947000Y-60449800D01*
X95947000Y-59769800D01*
X96427000Y-59769800D01*
X96427000Y-60449800D01*
G36*
X96427000Y-60449800D02*
G01*
X95947000Y-60449800D01*
X95947000Y-59769800D01*
X96427000Y-59769800D01*
X96427000Y-60449800D01*
G37*
X96372000Y-59569800D02*
X95972000Y-59569800D01*
X95972000Y-58744800D01*
X96372000Y-58744800D01*
X96372000Y-59569800D01*
G36*
X96372000Y-59569800D02*
G01*
X95972000Y-59569800D01*
X95972000Y-58744800D01*
X96372000Y-58744800D01*
X96372000Y-59569800D01*
G37*
X96822000Y-59569800D02*
X96422000Y-59569800D01*
X96422000Y-58744800D01*
X96822000Y-58744800D01*
X96822000Y-59569800D01*
G36*
X96822000Y-59569800D02*
G01*
X96422000Y-59569800D01*
X96422000Y-58744800D01*
X96822000Y-58744800D01*
X96822000Y-59569800D01*
G37*
X97544500Y-60269800D02*
X96719500Y-60269800D01*
X96719500Y-59869800D01*
X97544500Y-59869800D01*
X97544500Y-60269800D01*
G36*
X97544500Y-60269800D02*
G01*
X96719500Y-60269800D01*
X96719500Y-59869800D01*
X97544500Y-59869800D01*
X97544500Y-60269800D01*
G37*
X95022000Y-63444800D02*
X94622000Y-63444800D01*
X94622000Y-62894800D01*
X94572000Y-62894800D01*
X94572000Y-63444800D01*
X94172000Y-63444800D01*
X94172000Y-62894800D01*
X93872000Y-62894800D01*
X93872000Y-61644800D01*
X95022000Y-61644800D01*
X95022000Y-63444800D01*
G36*
X95022000Y-63444800D02*
G01*
X94622000Y-63444800D01*
X94622000Y-62894800D01*
X94572000Y-62894800D01*
X94572000Y-63444800D01*
X94172000Y-63444800D01*
X94172000Y-62894800D01*
X93872000Y-62894800D01*
X93872000Y-61644800D01*
X95022000Y-61644800D01*
X95022000Y-63444800D01*
G37*
X95777000Y-60619800D02*
X96522000Y-60619800D01*
X96522000Y-62894800D01*
X96372000Y-62894800D01*
X96372000Y-63444800D01*
X95972000Y-63444800D01*
X95972000Y-62894800D01*
X95922000Y-62894800D01*
X95922000Y-63444800D01*
X95522000Y-63444800D01*
X95522000Y-62894800D01*
X95222000Y-62894800D01*
X95222000Y-59969800D01*
X95777000Y-59969800D01*
X95777000Y-60619800D01*
G36*
X95777000Y-60619800D02*
G01*
X96522000Y-60619800D01*
X96522000Y-62894800D01*
X96372000Y-62894800D01*
X96372000Y-63444800D01*
X95972000Y-63444800D01*
X95972000Y-62894800D01*
X95922000Y-62894800D01*
X95922000Y-63444800D01*
X95522000Y-63444800D01*
X95522000Y-62894800D01*
X95222000Y-62894800D01*
X95222000Y-59969800D01*
X95777000Y-59969800D01*
X95777000Y-60619800D01*
G37*
X97547000Y-60719800D02*
X97097000Y-60719800D01*
X97097000Y-60819800D01*
X97547000Y-60819800D01*
X97547000Y-61169800D01*
X97097000Y-61169800D01*
X97097000Y-61469800D01*
X97547000Y-61469800D01*
X97547000Y-61869800D01*
X97097000Y-61869800D01*
X97097000Y-61919800D01*
X97547000Y-61919800D01*
X97547000Y-62319800D01*
X97097000Y-62319800D01*
X97097000Y-62369800D01*
X97547000Y-62369800D01*
X97547000Y-62769800D01*
X96722000Y-62769800D01*
X96722000Y-60319800D01*
X97547000Y-60319800D01*
X97547000Y-60719800D01*
G36*
X97547000Y-60719800D02*
G01*
X97097000Y-60719800D01*
X97097000Y-60819800D01*
X97547000Y-60819800D01*
X97547000Y-61169800D01*
X97097000Y-61169800D01*
X97097000Y-61469800D01*
X97547000Y-61469800D01*
X97547000Y-61869800D01*
X97097000Y-61869800D01*
X97097000Y-61919800D01*
X97547000Y-61919800D01*
X97547000Y-62319800D01*
X97097000Y-62319800D01*
X97097000Y-62369800D01*
X97547000Y-62369800D01*
X97547000Y-62769800D01*
X96722000Y-62769800D01*
X96722000Y-60319800D01*
X97547000Y-60319800D01*
X97547000Y-60719800D01*
G37*
X101022000Y-87349800D02*
X100197000Y-87349800D01*
X100197000Y-86949800D01*
X101022000Y-86949800D01*
X101022000Y-87349800D01*
G36*
X101022000Y-87349800D02*
G01*
X100197000Y-87349800D01*
X100197000Y-86949800D01*
X101022000Y-86949800D01*
X101022000Y-87349800D01*
G37*
X101022000Y-87799800D02*
X100197000Y-87799800D01*
X100197000Y-87399800D01*
X101022000Y-87399800D01*
X101022000Y-87799800D01*
G36*
X101022000Y-87799800D02*
G01*
X100197000Y-87799800D01*
X100197000Y-87399800D01*
X101022000Y-87399800D01*
X101022000Y-87799800D01*
G37*
X101022000Y-88249800D02*
X100197000Y-88249800D01*
X100197000Y-87849800D01*
X101022000Y-87849800D01*
X101022000Y-88249800D01*
G36*
X101022000Y-88249800D02*
G01*
X100197000Y-88249800D01*
X100197000Y-87849800D01*
X101022000Y-87849800D01*
X101022000Y-88249800D01*
G37*
X101022000Y-88699800D02*
X100197000Y-88699800D01*
X100197000Y-88299800D01*
X101022000Y-88299800D01*
X101022000Y-88699800D01*
G36*
X101022000Y-88699800D02*
G01*
X100197000Y-88699800D01*
X100197000Y-88299800D01*
X101022000Y-88299800D01*
X101022000Y-88699800D01*
G37*
X101022000Y-89399800D02*
X100197000Y-89399800D01*
X100197000Y-88999800D01*
X101022000Y-88999800D01*
X101022000Y-89399800D01*
G36*
X101022000Y-89399800D02*
G01*
X100197000Y-89399800D01*
X100197000Y-88999800D01*
X101022000Y-88999800D01*
X101022000Y-89399800D01*
G37*
X101022000Y-89849800D02*
X100197000Y-89849800D01*
X100197000Y-89449800D01*
X101022000Y-89449800D01*
X101022000Y-89849800D01*
G36*
X101022000Y-89849800D02*
G01*
X100197000Y-89849800D01*
X100197000Y-89449800D01*
X101022000Y-89449800D01*
X101022000Y-89849800D01*
G37*
X101022000Y-90299800D02*
X100197000Y-90299800D01*
X100197000Y-89899800D01*
X101022000Y-89899800D01*
X101022000Y-90299800D01*
G36*
X101022000Y-90299800D02*
G01*
X100197000Y-90299800D01*
X100197000Y-89899800D01*
X101022000Y-89899800D01*
X101022000Y-90299800D01*
G37*
X101472000Y-87099800D02*
X101072000Y-87099800D01*
X101072000Y-86274800D01*
X101472000Y-86274800D01*
X101472000Y-87099800D01*
G36*
X101472000Y-87099800D02*
G01*
X101072000Y-87099800D01*
X101072000Y-86274800D01*
X101472000Y-86274800D01*
X101472000Y-87099800D01*
G37*
X102372000Y-88974800D02*
X101222000Y-88974800D01*
X101222000Y-87299800D01*
X102372000Y-87299800D01*
X102372000Y-88974800D01*
G36*
X102372000Y-88974800D02*
G01*
X101222000Y-88974800D01*
X101222000Y-87299800D01*
X102372000Y-87299800D01*
X102372000Y-88974800D01*
G37*
X101922000Y-87099800D02*
X101522000Y-87099800D01*
X101522000Y-86274800D01*
X101922000Y-86274800D01*
X101922000Y-87099800D01*
G36*
X101922000Y-87099800D02*
G01*
X101522000Y-87099800D01*
X101522000Y-86274800D01*
X101922000Y-86274800D01*
X101922000Y-87099800D01*
G37*
X102372000Y-87099800D02*
X101972000Y-87099800D01*
X101972000Y-86274800D01*
X102372000Y-86274800D01*
X102372000Y-87099800D01*
G36*
X102372000Y-87099800D02*
G01*
X101972000Y-87099800D01*
X101972000Y-86274800D01*
X102372000Y-86274800D01*
X102372000Y-87099800D01*
G37*
X102822000Y-87099800D02*
X102422000Y-87099800D01*
X102422000Y-86274800D01*
X102822000Y-86274800D01*
X102822000Y-87099800D01*
G36*
X102822000Y-87099800D02*
G01*
X102422000Y-87099800D01*
X102422000Y-86274800D01*
X102822000Y-86274800D01*
X102822000Y-87099800D01*
G37*
X103272000Y-87099800D02*
X102872000Y-87099800D01*
X102872000Y-86274800D01*
X103272000Y-86274800D01*
X103272000Y-87099800D01*
G36*
X103272000Y-87099800D02*
G01*
X102872000Y-87099800D01*
X102872000Y-86274800D01*
X103272000Y-86274800D01*
X103272000Y-87099800D01*
G37*
X103777000Y-87979800D02*
X103297000Y-87979800D01*
X103297000Y-87299800D01*
X103777000Y-87299800D01*
X103777000Y-87979800D01*
G36*
X103777000Y-87979800D02*
G01*
X103297000Y-87979800D01*
X103297000Y-87299800D01*
X103777000Y-87299800D01*
X103777000Y-87979800D01*
G37*
X103722000Y-87099800D02*
X103322000Y-87099800D01*
X103322000Y-86274800D01*
X103722000Y-86274800D01*
X103722000Y-87099800D01*
G36*
X103722000Y-87099800D02*
G01*
X103322000Y-87099800D01*
X103322000Y-86274800D01*
X103722000Y-86274800D01*
X103722000Y-87099800D01*
G37*
X104172000Y-87099800D02*
X103772000Y-87099800D01*
X103772000Y-86274800D01*
X104172000Y-86274800D01*
X104172000Y-87099800D01*
G36*
X104172000Y-87099800D02*
G01*
X103772000Y-87099800D01*
X103772000Y-86274800D01*
X104172000Y-86274800D01*
X104172000Y-87099800D01*
G37*
X104894500Y-87799800D02*
X104069500Y-87799800D01*
X104069500Y-87399800D01*
X104894500Y-87399800D01*
X104894500Y-87799800D01*
G36*
X104894500Y-87799800D02*
G01*
X104069500Y-87799800D01*
X104069500Y-87399800D01*
X104894500Y-87399800D01*
X104894500Y-87799800D01*
G37*
X102372000Y-90974800D02*
X101972000Y-90974800D01*
X101972000Y-90424800D01*
X101922000Y-90424800D01*
X101922000Y-90974800D01*
X101522000Y-90974800D01*
X101522000Y-90424800D01*
X101222000Y-90424800D01*
X101222000Y-89174800D01*
X102372000Y-89174800D01*
X102372000Y-90974800D01*
G36*
X102372000Y-90974800D02*
G01*
X101972000Y-90974800D01*
X101972000Y-90424800D01*
X101922000Y-90424800D01*
X101922000Y-90974800D01*
X101522000Y-90974800D01*
X101522000Y-90424800D01*
X101222000Y-90424800D01*
X101222000Y-89174800D01*
X102372000Y-89174800D01*
X102372000Y-90974800D01*
G37*
X103127000Y-88149800D02*
X103872000Y-88149800D01*
X103872000Y-90424800D01*
X103722000Y-90424800D01*
X103722000Y-90974800D01*
X103322000Y-90974800D01*
X103322000Y-90424800D01*
X103272000Y-90424800D01*
X103272000Y-90974800D01*
X102872000Y-90974800D01*
X102872000Y-90424800D01*
X102572000Y-90424800D01*
X102572000Y-87499800D01*
X103127000Y-87499800D01*
X103127000Y-88149800D01*
G36*
X103127000Y-88149800D02*
G01*
X103872000Y-88149800D01*
X103872000Y-90424800D01*
X103722000Y-90424800D01*
X103722000Y-90974800D01*
X103322000Y-90974800D01*
X103322000Y-90424800D01*
X103272000Y-90424800D01*
X103272000Y-90974800D01*
X102872000Y-90974800D01*
X102872000Y-90424800D01*
X102572000Y-90424800D01*
X102572000Y-87499800D01*
X103127000Y-87499800D01*
X103127000Y-88149800D01*
G37*
X104897000Y-88249800D02*
X104447000Y-88249800D01*
X104447000Y-88349800D01*
X104897000Y-88349800D01*
X104897000Y-88699800D01*
X104447000Y-88699800D01*
X104447000Y-88999800D01*
X104897000Y-88999800D01*
X104897000Y-89399800D01*
X104447000Y-89399800D01*
X104447000Y-89449800D01*
X104897000Y-89449800D01*
X104897000Y-89849800D01*
X104447000Y-89849800D01*
X104447000Y-89899800D01*
X104897000Y-89899800D01*
X104897000Y-90299800D01*
X104072000Y-90299800D01*
X104072000Y-87849800D01*
X104897000Y-87849800D01*
X104897000Y-88249800D01*
G36*
X104897000Y-88249800D02*
G01*
X104447000Y-88249800D01*
X104447000Y-88349800D01*
X104897000Y-88349800D01*
X104897000Y-88699800D01*
X104447000Y-88699800D01*
X104447000Y-88999800D01*
X104897000Y-88999800D01*
X104897000Y-89399800D01*
X104447000Y-89399800D01*
X104447000Y-89449800D01*
X104897000Y-89449800D01*
X104897000Y-89849800D01*
X104447000Y-89849800D01*
X104447000Y-89899800D01*
X104897000Y-89899800D01*
X104897000Y-90299800D01*
X104072000Y-90299800D01*
X104072000Y-87849800D01*
X104897000Y-87849800D01*
X104897000Y-88249800D01*
G37*
D13*
X150282000Y-63134800D03*
X150282000Y-64684800D03*
D14*
X139107000Y-101399800D03*
D15*
X94157000Y-83344800D03*
X94157000Y-84994800D03*
D16*
X125682000Y-57764800D03*
X125682000Y-54814800D03*
D17*
X91272000Y-61987300D03*
X89722000Y-61987300D03*
D16*
X135502000Y-86289800D03*
X135502000Y-83339800D03*
D18*
X122592000Y-103999800D03*
X119642000Y-103999800D03*
D19*
X95707000Y-81289800D03*
X94057000Y-81289800D03*
D17*
X98227000Y-89449800D03*
X96677000Y-89449800D03*
X128157000Y-94869800D03*
X126607000Y-94869800D03*
D20*
X125912000Y-97369800D03*
X128862000Y-97369800D03*
D16*
X132122000Y-86214800D03*
X132122000Y-83264800D03*
D21*
X107177000Y-83624800D03*
X104227000Y-83624800D03*
D22*
X94432000Y-56954800D03*
X94432000Y-55404800D03*
D23*
X95667000Y-84994800D03*
X95667000Y-83344800D03*
D17*
X95907000Y-65077300D03*
X94357000Y-65077300D03*
X103287000Y-92359800D03*
X101737000Y-92359800D03*
D16*
X125452000Y-86199800D03*
X125452000Y-83249800D03*
X129112000Y-57784800D03*
X129112000Y-54834800D03*
D24*
X145927000Y-61479800D03*
X147577000Y-61479800D03*
D25*
X110462000Y-88269800D03*
X121562000Y-88269800D03*
D26*
X118962000Y-61364800D03*
X118962000Y-64314800D03*
D19*
X91332000Y-63527300D03*
X89682000Y-63527300D03*
D16*
X128752000Y-86214800D03*
X128752000Y-83264800D03*
D15*
X97282000Y-82399800D03*
X97282000Y-84049800D03*
D21*
X99687000Y-55759800D03*
X96737000Y-55759800D03*
D27*
X99722000Y-97159800D03*
X106222000Y-97159800D03*
D19*
X100412000Y-82464800D03*
X98762000Y-82464800D03*
D16*
X132562000Y-57814800D03*
X132562000Y-54864800D03*
D15*
X145942000Y-66999800D03*
X145942000Y-68649800D03*
D28*
X123942000Y-73109800D03*
X117442000Y-73109800D03*
D29*
X146197000Y-63169800D03*
X146197000Y-64119800D03*
X146197000Y-65069800D03*
X148472000Y-65069800D03*
X148472000Y-64119800D03*
X148472000Y-63169800D03*
D15*
X89732000Y-55674800D03*
X89732000Y-57324800D03*
D26*
X122502000Y-61344800D03*
X122502000Y-64294800D03*
D20*
X125892000Y-104189800D03*
X128842000Y-104189800D03*
D27*
X99742000Y-105079800D03*
X106242000Y-105079800D03*
D16*
X118862000Y-57814800D03*
X118862000Y-54864800D03*
D18*
X122592000Y-97279800D03*
X119642000Y-97279800D03*
D19*
X98277000Y-90989800D03*
X96627000Y-90989800D03*
D18*
X122592000Y-100609800D03*
X119642000Y-100609800D03*
D16*
X122282000Y-57839800D03*
X122282000Y-54889800D03*
D22*
X102017000Y-83997300D03*
X102017000Y-82447300D03*
D15*
X86482000Y-57314800D03*
X86482000Y-58964800D03*
D30*
X131702000Y-73053800D03*
X108802000Y-74203800D03*
D19*
X92897000Y-55779800D03*
X91247000Y-55779800D03*
D23*
X88022000Y-58959800D03*
X88022000Y-57309800D03*
D20*
X125892000Y-107589800D03*
X128842000Y-107589800D03*
D19*
X88057000Y-55309800D03*
X86407000Y-55309800D03*
X149147000Y-67034800D03*
X147497000Y-67034800D03*
D13*
X135052000Y-55349800D03*
X135052000Y-56899800D03*
D20*
X125892000Y-100689800D03*
X128842000Y-100689800D03*
D18*
X122592000Y-107389800D03*
X119642000Y-107389800D03*
D25*
X103712000Y-59939800D03*
X114812000Y-59939800D03*
D27*
X93322000Y-72749800D03*
X99822000Y-72749800D03*
D31*
X148552000Y-79699800D02*
X148552000Y-107699800D01*
X108052001Y-109699800D02*
G75*
G02*
X110052000Y-111699799I-1J-2000000D01*
G01*
X84051999Y-51699800D02*
X156552000Y-51699800D01*
X84051998Y-77699800D02*
G75*
G02*
X82052000Y-75699802I2J2000000D01*
G01*
X92052000Y-107699802D02*
X92052000Y-79699799D01*
X148552000Y-107699800D02*
G75*
G02*
X146552000Y-109699800I-2000000J0D01*
G01*
X148552000Y-79699800D02*
G75*
G02*
X150552000Y-77699800I2000000J0D01*
G01*
D32*
X156252000Y-64699800D02*
G75*
G02*
X152852000Y-64699800I-1700000J0D01*
G01*
X152852000Y-64699800D02*
G75*
G02*
X156252000Y-64699800I1700000J0D01*
G01*
D31*
X130552000Y-115699800D02*
G75*
G02*
X128552000Y-117699800I-2000000J0D01*
G01*
X112051998Y-117699800D02*
X128552000Y-117699800D01*
X112051998Y-117699800D02*
G75*
G02*
X110052000Y-115699802I2J2000000D01*
G01*
X146552000Y-109699800D02*
X132552000Y-109699800D01*
X156552000Y-77699800D02*
X150552000Y-77699800D01*
X82052000Y-53699799D02*
X82052000Y-75699802D01*
X108052001Y-109699800D02*
X94051998Y-109699800D01*
X94051998Y-109699800D02*
G75*
G02*
X92052000Y-107699802I2J2000000D01*
G01*
D32*
X122002000Y-112049800D02*
G75*
G02*
X118602000Y-112049800I-1700000J0D01*
G01*
X118602000Y-112049800D02*
G75*
G02*
X122002000Y-112049800I1700000J0D01*
G01*
D31*
X158552000Y-75699800D02*
X158552000Y-53699800D01*
X82052000Y-53699799D02*
G75*
G02*
X84051999Y-51699800I2000000J-1D01*
G01*
D32*
X87752000Y-64699800D02*
G75*
G02*
X84352000Y-64699800I-1700000J0D01*
G01*
X84352000Y-64699800D02*
G75*
G02*
X87752000Y-64699800I1700000J0D01*
G01*
D31*
X110052000Y-115699802D02*
X110052000Y-111699799D01*
X158552000Y-75699800D02*
G75*
G02*
X156552000Y-77699800I-2000000J0D01*
G01*
X130552000Y-111699800D02*
G75*
G02*
X132552000Y-109699800I2000000J0D01*
G01*
X156552000Y-51699800D02*
G75*
G02*
X158552000Y-53699800I0J-2000000D01*
G01*
X130552000Y-111699800D02*
X130552000Y-115699800D01*
X90052001Y-77699800D02*
G75*
G02*
X92052000Y-79699799I-1J-2000000D01*
G01*
X90052001Y-77699800D02*
X84051998Y-77699800D01*
M02*
