G04 #@! TF.GenerationSoftware,KiCad,Pcbnew,9.0.0*
G04 #@! TF.CreationDate,2026-02-04T15:57:26+07:00*
G04 #@! TF.ProjectId,Power_management_V2,506f7765-725f-46d6-916e-6167656d656e,rev?*
G04 #@! TF.SameCoordinates,Original*
G04 #@! TF.FileFunction,Soldermask,Bot*
G04 #@! TF.FilePolarity,Negative*
%FSLAX46Y46*%
G04 Gerber Fmt 4.6, Leading zero omitted, Abs format (unit mm)*
G04 Created by KiCad (PCBNEW 9.0.0) date 2026-02-04 15:57:26*
%MOMM*%
%LPD*%
G01*
G04 APERTURE LIST*
G04 Aperture macros list*
%AMRoundRect*
0 Rectangle with rounded corners*
0 $1 Rounding radius*
0 $2 $3 $4 $5 $6 $7 $8 $9 X,Y pos of 4 corners*
0 Add a 4 corners polygon primitive as box body*
4,1,4,$2,$3,$4,$5,$6,$7,$8,$9,$2,$3,0*
0 Add four circle primitives for the rounded corners*
1,1,$1+$1,$2,$3*
1,1,$1+$1,$4,$5*
1,1,$1+$1,$6,$7*
1,1,$1+$1,$8,$9*
0 Add four rect primitives between the rounded corners*
20,1,$1+$1,$2,$3,$4,$5,0*
20,1,$1+$1,$4,$5,$6,$7,0*
20,1,$1+$1,$6,$7,$8,$9,0*
20,1,$1+$1,$8,$9,$2,$3,0*%
G04 Aperture macros list end*
%ADD10C,0.586200*%
%ADD11C,0.836200*%
%ADD12C,0.010000*%
%ADD13C,1.020000*%
%ADD14RoundRect,1.000000X1.000000X3.200000X-1.000000X3.200000X-1.000000X-3.200000X1.000000X-3.200000X0*%
G04 #@! TA.AperFunction,Profile*
%ADD15C,0.200000*%
G04 #@! TD*
G04 #@! TA.AperFunction,Profile*
%ADD16C,0.150000*%
G04 #@! TD*
G04 APERTURE END LIST*
D10*
X134525100Y-91739800D02*
G75*
G02*
X133938900Y-91739800I-293100J0D01*
G01*
X133938900Y-91739800D02*
G75*
G02*
X134525100Y-91739800I293100J0D01*
G01*
D11*
X135930100Y-92719800D02*
G75*
G02*
X135093900Y-92719800I-418100J0D01*
G01*
X135093900Y-92719800D02*
G75*
G02*
X135930100Y-92719800I418100J0D01*
G01*
X138930100Y-92719800D02*
G75*
G02*
X138093900Y-92719800I-418100J0D01*
G01*
X138093900Y-92719800D02*
G75*
G02*
X138930100Y-92719800I418100J0D01*
G01*
X141930100Y-92719800D02*
G75*
G02*
X141093900Y-92719800I-418100J0D01*
G01*
X141093900Y-92719800D02*
G75*
G02*
X141930100Y-92719800I418100J0D01*
G01*
D12*
X145348200Y-93556000D02*
X143675800Y-93556000D01*
X143675800Y-91883600D01*
X145348200Y-91883600D01*
X145348200Y-93556000D01*
G36*
X145348200Y-93556000D02*
G01*
X143675800Y-93556000D01*
X143675800Y-91883600D01*
X145348200Y-91883600D01*
X145348200Y-93556000D01*
G37*
D13*
X134232000Y-91739800D03*
D14*
X131702000Y-73053800D03*
X108802000Y-74203800D03*
D15*
X148552000Y-79699800D02*
X148552000Y-107699800D01*
X108052001Y-109699800D02*
G75*
G02*
X110052000Y-111699799I-1J-2000000D01*
G01*
X84051999Y-51699800D02*
X156552000Y-51699800D01*
X84051998Y-77699800D02*
G75*
G02*
X82052000Y-75699802I2J2000000D01*
G01*
X92052000Y-107699802D02*
X92052000Y-79699799D01*
X148552000Y-107699800D02*
G75*
G02*
X146552000Y-109699800I-2000000J0D01*
G01*
X148552000Y-79699800D02*
G75*
G02*
X150552000Y-77699800I2000000J0D01*
G01*
D16*
X156252000Y-64699800D02*
G75*
G02*
X152852000Y-64699800I-1700000J0D01*
G01*
X152852000Y-64699800D02*
G75*
G02*
X156252000Y-64699800I1700000J0D01*
G01*
D15*
X130552000Y-115699800D02*
G75*
G02*
X128552000Y-117699800I-2000000J0D01*
G01*
X112051998Y-117699800D02*
X128552000Y-117699800D01*
X112051998Y-117699800D02*
G75*
G02*
X110052000Y-115699802I2J2000000D01*
G01*
X146552000Y-109699800D02*
X132552000Y-109699800D01*
X156552000Y-77699800D02*
X150552000Y-77699800D01*
X82052000Y-53699799D02*
X82052000Y-75699802D01*
X108052001Y-109699800D02*
X94051998Y-109699800D01*
X94051998Y-109699800D02*
G75*
G02*
X92052000Y-107699802I2J2000000D01*
G01*
D16*
X122002000Y-112049800D02*
G75*
G02*
X118602000Y-112049800I-1700000J0D01*
G01*
X118602000Y-112049800D02*
G75*
G02*
X122002000Y-112049800I1700000J0D01*
G01*
D15*
X158552000Y-75699800D02*
X158552000Y-53699800D01*
X82052000Y-53699799D02*
G75*
G02*
X84051999Y-51699800I2000000J-1D01*
G01*
D16*
X87752000Y-64699800D02*
G75*
G02*
X84352000Y-64699800I-1700000J0D01*
G01*
X84352000Y-64699800D02*
G75*
G02*
X87752000Y-64699800I1700000J0D01*
G01*
D15*
X110052000Y-115699802D02*
X110052000Y-111699799D01*
X158552000Y-75699800D02*
G75*
G02*
X156552000Y-77699800I-2000000J0D01*
G01*
X130552000Y-111699800D02*
G75*
G02*
X132552000Y-109699800I2000000J0D01*
G01*
X156552000Y-51699800D02*
G75*
G02*
X158552000Y-53699800I0J-2000000D01*
G01*
X130552000Y-111699800D02*
X130552000Y-115699800D01*
X90052001Y-77699800D02*
G75*
G02*
X92052000Y-79699799I-1J-2000000D01*
G01*
X90052001Y-77699800D02*
X84051998Y-77699800D01*
M02*
