G04 #@! TF.GenerationSoftware,KiCad,Pcbnew,9.0.0*
G04 #@! TF.CreationDate,2026-02-25T14:45:48+07:00*
G04 #@! TF.ProjectId,Power_management_V2,506f7765-725f-46d6-916e-6167656d656e,rev?*
G04 #@! TF.SameCoordinates,Original*
G04 #@! TF.FileFunction,Soldermask,Top*
G04 #@! TF.FilePolarity,Negative*
%FSLAX46Y46*%
G04 Gerber Fmt 4.6, Leading zero omitted, Abs format (unit mm)*
G04 Created by KiCad (PCBNEW 9.0.0) date 2026-02-25 14:45:48*
%MOMM*%
%LPD*%
G01*
G04 APERTURE LIST*
G04 Aperture macros list*
%AMRoundRect*
0 Rectangle with rounded corners*
0 $1 Rounding radius*
0 $2 $3 $4 $5 $6 $7 $8 $9 X,Y pos of 4 corners*
0 Add a 4 corners polygon primitive as box body*
4,1,4,$2,$3,$4,$5,$6,$7,$8,$9,$2,$3,0*
0 Add four circle primitives for the rounded corners*
1,1,$1+$1,$2,$3*
1,1,$1+$1,$4,$5*
1,1,$1+$1,$6,$7*
1,1,$1+$1,$8,$9*
0 Add four rect primitives between the rounded corners*
20,1,$1+$1,$2,$3,$4,$5,0*
20,1,$1+$1,$4,$5,$6,$7,0*
20,1,$1+$1,$6,$7,$8,$9,0*
20,1,$1+$1,$8,$9,$2,$3,0*%
G04 Aperture macros list end*
%ADD10C,0.876200*%
%ADD11C,0.836200*%
%ADD12C,0.010000*%
%ADD13C,1.600000*%
%ADD14R,2.000000X2.000000*%
%ADD15C,2.000000*%
%ADD16RoundRect,0.225000X-0.250000X0.225000X-0.250000X-0.225000X0.250000X-0.225000X0.250000X0.225000X0*%
%ADD17RoundRect,0.200000X-0.275000X0.200000X-0.275000X-0.200000X0.275000X-0.200000X0.275000X0.200000X0*%
%ADD18RoundRect,0.250000X1.100000X-0.325000X1.100000X0.325000X-1.100000X0.325000X-1.100000X-0.325000X0*%
%ADD19RoundRect,0.225000X0.250000X-0.225000X0.250000X0.225000X-0.250000X0.225000X-0.250000X-0.225000X0*%
%ADD20RoundRect,0.225000X0.225000X0.250000X-0.225000X0.250000X-0.225000X-0.250000X0.225000X-0.250000X0*%
%ADD21RoundRect,0.250000X-1.100000X0.325000X-1.100000X-0.325000X1.100000X-0.325000X1.100000X0.325000X0*%
%ADD22RoundRect,0.200000X0.200000X0.275000X-0.200000X0.275000X-0.200000X-0.275000X0.200000X-0.275000X0*%
%ADD23RoundRect,0.250000X0.250000X0.475000X-0.250000X0.475000X-0.250000X-0.475000X0.250000X-0.475000X0*%
%ADD24RoundRect,0.200000X0.275000X-0.200000X0.275000X0.200000X-0.275000X0.200000X-0.275000X-0.200000X0*%
%ADD25RoundRect,0.200000X-0.200000X-0.275000X0.200000X-0.275000X0.200000X0.275000X-0.200000X0.275000X0*%
%ADD26RoundRect,0.102000X-1.550000X-2.500000X1.550000X-2.500000X1.550000X2.500000X-1.550000X2.500000X0*%
%ADD27RoundRect,0.700000X-0.700000X-2.650000X0.700000X-2.650000X0.700000X2.650000X-0.700000X2.650000X0*%
%ADD28R,0.730000X0.300000*%
%ADD29R,0.300000X0.725000*%
%ADD30R,0.725000X0.300000*%
%ADD31R,0.380000X0.580000*%
%ADD32RoundRect,0.700000X0.700000X2.650000X-0.700000X2.650000X-0.700000X-2.650000X0.700000X-2.650000X0*%
%ADD33RoundRect,0.150000X-0.512500X-0.150000X0.512500X-0.150000X0.512500X0.150000X-0.512500X0.150000X0*%
%ADD34RoundRect,0.250000X0.325000X1.100000X-0.325000X1.100000X-0.325000X-1.100000X0.325000X-1.100000X0*%
%ADD35RoundRect,1.000000X1.000000X3.200000X-1.000000X3.200000X-1.000000X-3.200000X1.000000X-3.200000X0*%
G04 #@! TA.AperFunction,Profile*
%ADD36C,0.200000*%
G04 #@! TD*
G04 #@! TA.AperFunction,Profile*
%ADD37C,0.150000*%
G04 #@! TD*
G04 APERTURE END LIST*
D10*
X136365100Y-95054800D02*
G75*
G02*
X135488900Y-95054800I-438100J0D01*
G01*
X135488900Y-95054800D02*
G75*
G02*
X136365100Y-95054800I438100J0D01*
G01*
D11*
X138095100Y-92824800D02*
G75*
G02*
X137258900Y-92824800I-418100J0D01*
G01*
X137258900Y-92824800D02*
G75*
G02*
X138095100Y-92824800I418100J0D01*
G01*
X141595100Y-92824800D02*
G75*
G02*
X140758900Y-92824800I-418100J0D01*
G01*
X140758900Y-92824800D02*
G75*
G02*
X141595100Y-92824800I418100J0D01*
G01*
X145095100Y-92824800D02*
G75*
G02*
X144258900Y-92824800I-418100J0D01*
G01*
X144258900Y-92824800D02*
G75*
G02*
X145095100Y-92824800I418100J0D01*
G01*
D12*
X135013200Y-93661000D02*
X133340800Y-93661000D01*
X133340800Y-91988600D01*
X135013200Y-91988600D01*
X135013200Y-93661000D01*
G36*
X135013200Y-93661000D02*
G01*
X133340800Y-93661000D01*
X133340800Y-91988600D01*
X135013200Y-91988600D01*
X135013200Y-93661000D01*
G37*
X99122000Y-61559800D02*
X97972000Y-61559800D01*
X97972000Y-59884800D01*
X99122000Y-59884800D01*
X99122000Y-61559800D01*
G36*
X99122000Y-61559800D02*
G01*
X97972000Y-61559800D01*
X97972000Y-59884800D01*
X99122000Y-59884800D01*
X99122000Y-61559800D01*
G37*
X99122000Y-63559800D02*
X98722000Y-63559800D01*
X98722000Y-63009800D01*
X98672000Y-63009800D01*
X98672000Y-63559800D01*
X98272000Y-63559800D01*
X98272000Y-63009800D01*
X97972000Y-63009800D01*
X97972000Y-61759800D01*
X99122000Y-61759800D01*
X99122000Y-63559800D01*
G36*
X99122000Y-63559800D02*
G01*
X98722000Y-63559800D01*
X98722000Y-63009800D01*
X98672000Y-63009800D01*
X98672000Y-63559800D01*
X98272000Y-63559800D01*
X98272000Y-63009800D01*
X97972000Y-63009800D01*
X97972000Y-61759800D01*
X99122000Y-61759800D01*
X99122000Y-63559800D01*
G37*
X99877000Y-60734800D02*
X100622000Y-60734800D01*
X100622000Y-63009800D01*
X100472000Y-63009800D01*
X100472000Y-63559800D01*
X100072000Y-63559800D01*
X100072000Y-63009800D01*
X100022000Y-63009800D01*
X100022000Y-63559800D01*
X99622000Y-63559800D01*
X99622000Y-63009800D01*
X99322000Y-63009800D01*
X99322000Y-60084800D01*
X99877000Y-60084800D01*
X99877000Y-60734800D01*
G36*
X99877000Y-60734800D02*
G01*
X100622000Y-60734800D01*
X100622000Y-63009800D01*
X100472000Y-63009800D01*
X100472000Y-63559800D01*
X100072000Y-63559800D01*
X100072000Y-63009800D01*
X100022000Y-63009800D01*
X100022000Y-63559800D01*
X99622000Y-63559800D01*
X99622000Y-63009800D01*
X99322000Y-63009800D01*
X99322000Y-60084800D01*
X99877000Y-60084800D01*
X99877000Y-60734800D01*
G37*
X101647000Y-60834800D02*
X101197000Y-60834800D01*
X101197000Y-60934800D01*
X101647000Y-60934800D01*
X101647000Y-61284800D01*
X101197000Y-61284800D01*
X101197000Y-61584800D01*
X101647000Y-61584800D01*
X101647000Y-61984800D01*
X101197000Y-61984800D01*
X101197000Y-62034800D01*
X101647000Y-62034800D01*
X101647000Y-62434800D01*
X101197000Y-62434800D01*
X101197000Y-62484800D01*
X101647000Y-62484800D01*
X101647000Y-62884800D01*
X100822000Y-62884800D01*
X100822000Y-60434800D01*
X101647000Y-60434800D01*
X101647000Y-60834800D01*
G36*
X101647000Y-60834800D02*
G01*
X101197000Y-60834800D01*
X101197000Y-60934800D01*
X101647000Y-60934800D01*
X101647000Y-61284800D01*
X101197000Y-61284800D01*
X101197000Y-61584800D01*
X101647000Y-61584800D01*
X101647000Y-61984800D01*
X101197000Y-61984800D01*
X101197000Y-62034800D01*
X101647000Y-62034800D01*
X101647000Y-62434800D01*
X101197000Y-62434800D01*
X101197000Y-62484800D01*
X101647000Y-62484800D01*
X101647000Y-62884800D01*
X100822000Y-62884800D01*
X100822000Y-60434800D01*
X101647000Y-60434800D01*
X101647000Y-60834800D01*
G37*
X102372000Y-88974800D02*
X101222000Y-88974800D01*
X101222000Y-87299800D01*
X102372000Y-87299800D01*
X102372000Y-88974800D01*
G36*
X102372000Y-88974800D02*
G01*
X101222000Y-88974800D01*
X101222000Y-87299800D01*
X102372000Y-87299800D01*
X102372000Y-88974800D01*
G37*
X102372000Y-90974800D02*
X101972000Y-90974800D01*
X101972000Y-90424800D01*
X101922000Y-90424800D01*
X101922000Y-90974800D01*
X101522000Y-90974800D01*
X101522000Y-90424800D01*
X101222000Y-90424800D01*
X101222000Y-89174800D01*
X102372000Y-89174800D01*
X102372000Y-90974800D01*
G36*
X102372000Y-90974800D02*
G01*
X101972000Y-90974800D01*
X101972000Y-90424800D01*
X101922000Y-90424800D01*
X101922000Y-90974800D01*
X101522000Y-90974800D01*
X101522000Y-90424800D01*
X101222000Y-90424800D01*
X101222000Y-89174800D01*
X102372000Y-89174800D01*
X102372000Y-90974800D01*
G37*
X103127000Y-88149800D02*
X103872000Y-88149800D01*
X103872000Y-90424800D01*
X103722000Y-90424800D01*
X103722000Y-90974800D01*
X103322000Y-90974800D01*
X103322000Y-90424800D01*
X103272000Y-90424800D01*
X103272000Y-90974800D01*
X102872000Y-90974800D01*
X102872000Y-90424800D01*
X102572000Y-90424800D01*
X102572000Y-87499800D01*
X103127000Y-87499800D01*
X103127000Y-88149800D01*
G36*
X103127000Y-88149800D02*
G01*
X103872000Y-88149800D01*
X103872000Y-90424800D01*
X103722000Y-90424800D01*
X103722000Y-90974800D01*
X103322000Y-90974800D01*
X103322000Y-90424800D01*
X103272000Y-90424800D01*
X103272000Y-90974800D01*
X102872000Y-90974800D01*
X102872000Y-90424800D01*
X102572000Y-90424800D01*
X102572000Y-87499800D01*
X103127000Y-87499800D01*
X103127000Y-88149800D01*
G37*
X104897000Y-88249800D02*
X104447000Y-88249800D01*
X104447000Y-88349800D01*
X104897000Y-88349800D01*
X104897000Y-88699800D01*
X104447000Y-88699800D01*
X104447000Y-88999800D01*
X104897000Y-88999800D01*
X104897000Y-89399800D01*
X104447000Y-89399800D01*
X104447000Y-89449800D01*
X104897000Y-89449800D01*
X104897000Y-89849800D01*
X104447000Y-89849800D01*
X104447000Y-89899800D01*
X104897000Y-89899800D01*
X104897000Y-90299800D01*
X104072000Y-90299800D01*
X104072000Y-87849800D01*
X104897000Y-87849800D01*
X104897000Y-88249800D01*
G36*
X104897000Y-88249800D02*
G01*
X104447000Y-88249800D01*
X104447000Y-88349800D01*
X104897000Y-88349800D01*
X104897000Y-88699800D01*
X104447000Y-88699800D01*
X104447000Y-88999800D01*
X104897000Y-88999800D01*
X104897000Y-89399800D01*
X104447000Y-89399800D01*
X104447000Y-89449800D01*
X104897000Y-89449800D01*
X104897000Y-89849800D01*
X104447000Y-89849800D01*
X104447000Y-89899800D01*
X104897000Y-89899800D01*
X104897000Y-90299800D01*
X104072000Y-90299800D01*
X104072000Y-87849800D01*
X104897000Y-87849800D01*
X104897000Y-88249800D01*
G37*
D13*
X135927000Y-95054800D03*
D14*
X134177000Y-92824800D03*
D15*
X137677000Y-92824800D03*
X141177000Y-92824800D03*
X144677000Y-92824800D03*
D16*
X148592000Y-57694800D03*
X148592000Y-59244800D03*
D17*
X94157000Y-83344800D03*
X94157000Y-84994800D03*
D18*
X129782000Y-57879800D03*
X129782000Y-54929800D03*
D19*
X121577000Y-64524800D03*
X121577000Y-62974800D03*
D20*
X94942000Y-62859800D03*
X93392000Y-62859800D03*
D18*
X136652000Y-86099800D03*
X136652000Y-83149800D03*
D21*
X119482000Y-99324800D03*
X119482000Y-102274800D03*
D22*
X95707000Y-81289800D03*
X94057000Y-81289800D03*
D20*
X98227000Y-89449800D03*
X96677000Y-89449800D03*
D19*
X97292000Y-87064800D03*
X97292000Y-85514800D03*
D21*
X136632000Y-99324800D03*
X136632000Y-102274800D03*
D18*
X133302000Y-86099800D03*
X133302000Y-83149800D03*
D23*
X106127000Y-83624800D03*
X104227000Y-83624800D03*
D19*
X98532000Y-57069800D03*
X98532000Y-55519800D03*
D24*
X95667000Y-84994800D03*
X95667000Y-83344800D03*
D20*
X100007000Y-65192300D03*
X98457000Y-65192300D03*
X103287000Y-92359800D03*
X101737000Y-92359800D03*
D18*
X126602000Y-86099800D03*
X126602000Y-83149800D03*
X133212000Y-57899800D03*
X133212000Y-54949800D03*
D16*
X124052000Y-83849800D03*
X124052000Y-85399800D03*
D25*
X144237000Y-56039800D03*
X145887000Y-56039800D03*
D26*
X110262000Y-88524800D03*
X121362000Y-88524800D03*
D21*
X124127000Y-62174800D03*
X124127000Y-65124800D03*
D22*
X95002000Y-64399800D03*
X93352000Y-64399800D03*
D18*
X129952000Y-86099800D03*
X129952000Y-83149800D03*
D17*
X97282000Y-82399800D03*
X97282000Y-84049800D03*
D23*
X102737000Y-55874800D03*
X100837000Y-55874800D03*
D27*
X99722000Y-97159800D03*
X106222000Y-97159800D03*
D28*
X101232000Y-60184800D03*
D29*
X100722000Y-59272300D03*
X100272000Y-59272300D03*
X99822000Y-59272300D03*
X99372000Y-59272300D03*
X98922000Y-59272300D03*
X98472000Y-59272300D03*
X98022000Y-59272300D03*
D30*
X97359500Y-59734800D03*
X97359500Y-60184800D03*
X97359500Y-60634800D03*
X97359500Y-61084800D03*
X97359500Y-61784800D03*
X97359500Y-62234800D03*
X97359500Y-62684800D03*
D31*
X100287000Y-60224800D03*
D22*
X100412000Y-82464800D03*
X98762000Y-82464800D03*
D18*
X136662000Y-57929800D03*
X136662000Y-54979800D03*
D17*
X145722000Y-61104800D03*
X145722000Y-62754800D03*
D32*
X123942000Y-73109800D03*
X117442000Y-73109800D03*
D33*
X144507000Y-57729800D03*
X144507000Y-58679800D03*
X144507000Y-59629800D03*
X146782000Y-59629800D03*
X146782000Y-58679800D03*
X146782000Y-57729800D03*
D17*
X93832000Y-55789800D03*
X93832000Y-57439800D03*
D21*
X127477000Y-62174800D03*
X127477000Y-65124800D03*
X129772000Y-99324800D03*
X129772000Y-102274800D03*
D27*
X99742000Y-105079800D03*
X106242000Y-105079800D03*
D18*
X122962000Y-57929800D03*
X122962000Y-54979800D03*
D34*
X115027000Y-96749800D03*
X112077000Y-96749800D03*
D22*
X98277000Y-90989800D03*
X96627000Y-90989800D03*
D21*
X116052000Y-99324800D03*
X116052000Y-102274800D03*
D18*
X126382000Y-57954800D03*
X126382000Y-55004800D03*
D19*
X102017000Y-83997300D03*
X102017000Y-82447300D03*
D17*
X90582000Y-57429800D03*
X90582000Y-59079800D03*
D35*
X131702000Y-73053800D03*
X108802000Y-74203800D03*
D22*
X96997000Y-55894800D03*
X95347000Y-55894800D03*
D24*
X92122000Y-59074800D03*
X92122000Y-57424800D03*
D21*
X126342000Y-99324800D03*
X126342000Y-102274800D03*
D22*
X92157000Y-55424800D03*
X90507000Y-55424800D03*
X148857000Y-61189800D03*
X147207000Y-61189800D03*
D28*
X104482000Y-87599800D03*
D29*
X103972000Y-86687300D03*
X103522000Y-86687300D03*
X103072000Y-86687300D03*
X102622000Y-86687300D03*
X102172000Y-86687300D03*
X101722000Y-86687300D03*
X101272000Y-86687300D03*
D30*
X100609500Y-87149800D03*
X100609500Y-87599800D03*
X100609500Y-88049800D03*
X100609500Y-88499800D03*
X100609500Y-89199800D03*
X100609500Y-89649800D03*
X100609500Y-90099800D03*
D31*
X103537000Y-87639800D03*
D19*
X93822000Y-60414800D03*
X93822000Y-58864800D03*
D21*
X133202000Y-99324800D03*
X133202000Y-102274800D03*
X122912000Y-99324800D03*
X122912000Y-102274800D03*
D26*
X107812000Y-60054800D03*
X118912000Y-60054800D03*
D27*
X93322000Y-72749800D03*
X99822000Y-72749800D03*
D36*
X148552000Y-79699800D02*
X148552000Y-107699800D01*
X108052001Y-109699800D02*
G75*
G02*
X110052000Y-111699799I-1J-2000000D01*
G01*
X84051999Y-51699800D02*
X156552000Y-51699800D01*
X84051998Y-77699800D02*
G75*
G02*
X82052000Y-75699802I2J2000000D01*
G01*
X92052000Y-107699802D02*
X92052000Y-79699799D01*
X148552000Y-107699800D02*
G75*
G02*
X146552000Y-109699800I-2000000J0D01*
G01*
X148552000Y-79699800D02*
G75*
G02*
X150552000Y-77699800I2000000J0D01*
G01*
D37*
X156252000Y-64699800D02*
G75*
G02*
X152852000Y-64699800I-1700000J0D01*
G01*
X152852000Y-64699800D02*
G75*
G02*
X156252000Y-64699800I1700000J0D01*
G01*
D36*
X130552000Y-115699800D02*
G75*
G02*
X128552000Y-117699800I-2000000J0D01*
G01*
X112051998Y-117699800D02*
X128552000Y-117699800D01*
X112051998Y-117699800D02*
G75*
G02*
X110052000Y-115699802I2J2000000D01*
G01*
X146552000Y-109699800D02*
X132552000Y-109699800D01*
X156552000Y-77699800D02*
X150552000Y-77699800D01*
X82052000Y-53699799D02*
X82052000Y-75699802D01*
X108052001Y-109699800D02*
X94051998Y-109699800D01*
X94051998Y-109699800D02*
G75*
G02*
X92052000Y-107699802I2J2000000D01*
G01*
D37*
X122002000Y-112049800D02*
G75*
G02*
X118602000Y-112049800I-1700000J0D01*
G01*
X118602000Y-112049800D02*
G75*
G02*
X122002000Y-112049800I1700000J0D01*
G01*
D36*
X158552000Y-75699800D02*
X158552000Y-53699800D01*
X82052000Y-53699799D02*
G75*
G02*
X84051999Y-51699800I2000000J-1D01*
G01*
D37*
X87752000Y-64699800D02*
G75*
G02*
X84352000Y-64699800I-1700000J0D01*
G01*
X84352000Y-64699800D02*
G75*
G02*
X87752000Y-64699800I1700000J0D01*
G01*
D36*
X110052000Y-115699802D02*
X110052000Y-111699799D01*
X158552000Y-75699800D02*
G75*
G02*
X156552000Y-77699800I-2000000J0D01*
G01*
X130552000Y-111699800D02*
G75*
G02*
X132552000Y-109699800I2000000J0D01*
G01*
X156552000Y-51699800D02*
G75*
G02*
X158552000Y-53699800I0J-2000000D01*
G01*
X130552000Y-111699800D02*
X130552000Y-115699800D01*
X90052001Y-77699800D02*
G75*
G02*
X92052000Y-79699799I-1J-2000000D01*
G01*
X90052001Y-77699800D02*
X84051998Y-77699800D01*
M02*
