G04 #@! TF.GenerationSoftware,KiCad,Pcbnew,9.0.0*
G04 #@! TF.CreationDate,2026-02-04T15:57:26+07:00*
G04 #@! TF.ProjectId,Power_management_V2,506f7765-725f-46d6-916e-6167656d656e,rev?*
G04 #@! TF.SameCoordinates,Original*
G04 #@! TF.FileFunction,Paste,Top*
G04 #@! TF.FilePolarity,Positive*
%FSLAX46Y46*%
G04 Gerber Fmt 4.6, Leading zero omitted, Abs format (unit mm)*
G04 Created by KiCad (PCBNEW 9.0.0) date 2026-02-04 15:57:26*
%MOMM*%
%LPD*%
G01*
G04 APERTURE LIST*
G04 Aperture macros list*
%AMRoundRect*
0 Rectangle with rounded corners*
0 $1 Rounding radius*
0 $2 $3 $4 $5 $6 $7 $8 $9 X,Y pos of 4 corners*
0 Add a 4 corners polygon primitive as box body*
4,1,4,$2,$3,$4,$5,$6,$7,$8,$9,$2,$3,0*
0 Add four circle primitives for the rounded corners*
1,1,$1+$1,$2,$3*
1,1,$1+$1,$4,$5*
1,1,$1+$1,$6,$7*
1,1,$1+$1,$8,$9*
0 Add four rect primitives between the rounded corners*
20,1,$1+$1,$2,$3,$4,$5,0*
20,1,$1+$1,$4,$5,$6,$7,0*
20,1,$1+$1,$6,$7,$8,$9,0*
20,1,$1+$1,$8,$9,$2,$3,0*%
G04 Aperture macros list end*
%ADD10C,0.010000*%
%ADD11RoundRect,0.225000X-0.250000X0.225000X-0.250000X-0.225000X0.250000X-0.225000X0.250000X0.225000X0*%
%ADD12RoundRect,0.200000X-0.275000X0.200000X-0.275000X-0.200000X0.275000X-0.200000X0.275000X0.200000X0*%
%ADD13RoundRect,0.250000X1.100000X-0.325000X1.100000X0.325000X-1.100000X0.325000X-1.100000X-0.325000X0*%
%ADD14RoundRect,0.225000X0.225000X0.250000X-0.225000X0.250000X-0.225000X-0.250000X0.225000X-0.250000X0*%
%ADD15RoundRect,0.250000X-1.100000X0.325000X-1.100000X-0.325000X1.100000X-0.325000X1.100000X0.325000X0*%
%ADD16RoundRect,0.200000X0.200000X0.275000X-0.200000X0.275000X-0.200000X-0.275000X0.200000X-0.275000X0*%
%ADD17RoundRect,0.225000X0.250000X-0.225000X0.250000X0.225000X-0.250000X0.225000X-0.250000X-0.225000X0*%
%ADD18RoundRect,0.250000X0.325000X0.650000X-0.325000X0.650000X-0.325000X-0.650000X0.325000X-0.650000X0*%
%ADD19RoundRect,0.200000X0.275000X-0.200000X0.275000X0.200000X-0.275000X0.200000X-0.275000X-0.200000X0*%
%ADD20RoundRect,0.200000X-0.200000X-0.275000X0.200000X-0.275000X0.200000X0.275000X-0.200000X0.275000X0*%
%ADD21R,3.100000X5.000000*%
%ADD22RoundRect,0.700000X-0.700000X-2.650000X0.700000X-2.650000X0.700000X2.650000X-0.700000X2.650000X0*%
%ADD23R,0.730000X0.300000*%
%ADD24R,0.300000X0.725000*%
%ADD25R,0.725000X0.300000*%
%ADD26R,1.050000X1.575000*%
%ADD27R,0.380000X0.580000*%
%ADD28RoundRect,0.700000X0.700000X2.650000X-0.700000X2.650000X-0.700000X-2.650000X0.700000X-2.650000X0*%
%ADD29RoundRect,0.150000X-0.512500X-0.150000X0.512500X-0.150000X0.512500X0.150000X-0.512500X0.150000X0*%
%ADD30RoundRect,0.250000X0.325000X1.100000X-0.325000X1.100000X-0.325000X-1.100000X0.325000X-1.100000X0*%
G04 #@! TA.AperFunction,Profile*
%ADD31C,0.200000*%
G04 #@! TD*
G04 #@! TA.AperFunction,Profile*
%ADD32C,0.150000*%
G04 #@! TD*
G04 APERTURE END LIST*
D10*
X99072000Y-63509800D02*
X98772000Y-63509800D01*
X98772000Y-62959800D01*
X98622000Y-62959800D01*
X98622000Y-63509800D01*
X98322000Y-63509800D01*
X98322000Y-62959800D01*
X98022000Y-62959800D01*
X98022000Y-61809800D01*
X99072000Y-61809800D01*
X99072000Y-63509800D01*
G36*
X99072000Y-63509800D02*
G01*
X98772000Y-63509800D01*
X98772000Y-62959800D01*
X98622000Y-62959800D01*
X98622000Y-63509800D01*
X98322000Y-63509800D01*
X98322000Y-62959800D01*
X98022000Y-62959800D01*
X98022000Y-61809800D01*
X99072000Y-61809800D01*
X99072000Y-63509800D01*
G37*
X99827000Y-60784800D02*
X100572000Y-60784800D01*
X100572000Y-62959800D01*
X100422000Y-62959800D01*
X100422000Y-63509800D01*
X100122000Y-63509800D01*
X100122000Y-62959800D01*
X99972000Y-62959800D01*
X99972000Y-63509800D01*
X99672000Y-63509800D01*
X99672000Y-62959800D01*
X99372000Y-62959800D01*
X99372000Y-60134800D01*
X99827000Y-60134800D01*
X99827000Y-60784800D01*
G36*
X99827000Y-60784800D02*
G01*
X100572000Y-60784800D01*
X100572000Y-62959800D01*
X100422000Y-62959800D01*
X100422000Y-63509800D01*
X100122000Y-63509800D01*
X100122000Y-62959800D01*
X99972000Y-62959800D01*
X99972000Y-63509800D01*
X99672000Y-63509800D01*
X99672000Y-62959800D01*
X99372000Y-62959800D01*
X99372000Y-60134800D01*
X99827000Y-60134800D01*
X99827000Y-60784800D01*
G37*
X101597000Y-60784800D02*
X101147000Y-60784800D01*
X101147000Y-60934800D01*
X101597000Y-60934800D01*
X101597000Y-61234800D01*
X101147000Y-61234800D01*
X101147000Y-61634800D01*
X101597000Y-61634800D01*
X101597000Y-61934800D01*
X101147000Y-61934800D01*
X101147000Y-62084800D01*
X101597000Y-62084800D01*
X101597000Y-62384800D01*
X101147000Y-62384800D01*
X101147000Y-62534800D01*
X101597000Y-62534800D01*
X101597000Y-62834800D01*
X100872000Y-62834800D01*
X100872000Y-60484800D01*
X101597000Y-60484800D01*
X101597000Y-60784800D01*
G36*
X101597000Y-60784800D02*
G01*
X101147000Y-60784800D01*
X101147000Y-60934800D01*
X101597000Y-60934800D01*
X101597000Y-61234800D01*
X101147000Y-61234800D01*
X101147000Y-61634800D01*
X101597000Y-61634800D01*
X101597000Y-61934800D01*
X101147000Y-61934800D01*
X101147000Y-62084800D01*
X101597000Y-62084800D01*
X101597000Y-62384800D01*
X101147000Y-62384800D01*
X101147000Y-62534800D01*
X101597000Y-62534800D01*
X101597000Y-62834800D01*
X100872000Y-62834800D01*
X100872000Y-60484800D01*
X101597000Y-60484800D01*
X101597000Y-60784800D01*
G37*
X102322000Y-90924800D02*
X102022000Y-90924800D01*
X102022000Y-90374800D01*
X101872000Y-90374800D01*
X101872000Y-90924800D01*
X101572000Y-90924800D01*
X101572000Y-90374800D01*
X101272000Y-90374800D01*
X101272000Y-89224800D01*
X102322000Y-89224800D01*
X102322000Y-90924800D01*
G36*
X102322000Y-90924800D02*
G01*
X102022000Y-90924800D01*
X102022000Y-90374800D01*
X101872000Y-90374800D01*
X101872000Y-90924800D01*
X101572000Y-90924800D01*
X101572000Y-90374800D01*
X101272000Y-90374800D01*
X101272000Y-89224800D01*
X102322000Y-89224800D01*
X102322000Y-90924800D01*
G37*
X103077000Y-88199800D02*
X103822000Y-88199800D01*
X103822000Y-90374800D01*
X103672000Y-90374800D01*
X103672000Y-90924800D01*
X103372000Y-90924800D01*
X103372000Y-90374800D01*
X103222000Y-90374800D01*
X103222000Y-90924800D01*
X102922000Y-90924800D01*
X102922000Y-90374800D01*
X102622000Y-90374800D01*
X102622000Y-87549800D01*
X103077000Y-87549800D01*
X103077000Y-88199800D01*
G36*
X103077000Y-88199800D02*
G01*
X103822000Y-88199800D01*
X103822000Y-90374800D01*
X103672000Y-90374800D01*
X103672000Y-90924800D01*
X103372000Y-90924800D01*
X103372000Y-90374800D01*
X103222000Y-90374800D01*
X103222000Y-90924800D01*
X102922000Y-90924800D01*
X102922000Y-90374800D01*
X102622000Y-90374800D01*
X102622000Y-87549800D01*
X103077000Y-87549800D01*
X103077000Y-88199800D01*
G37*
X104847000Y-88199800D02*
X104397000Y-88199800D01*
X104397000Y-88349800D01*
X104847000Y-88349800D01*
X104847000Y-88649800D01*
X104397000Y-88649800D01*
X104397000Y-89049800D01*
X104847000Y-89049800D01*
X104847000Y-89349800D01*
X104397000Y-89349800D01*
X104397000Y-89499800D01*
X104847000Y-89499800D01*
X104847000Y-89799800D01*
X104397000Y-89799800D01*
X104397000Y-89949800D01*
X104847000Y-89949800D01*
X104847000Y-90249800D01*
X104122000Y-90249800D01*
X104122000Y-87899800D01*
X104847000Y-87899800D01*
X104847000Y-88199800D01*
G36*
X104847000Y-88199800D02*
G01*
X104397000Y-88199800D01*
X104397000Y-88349800D01*
X104847000Y-88349800D01*
X104847000Y-88649800D01*
X104397000Y-88649800D01*
X104397000Y-89049800D01*
X104847000Y-89049800D01*
X104847000Y-89349800D01*
X104397000Y-89349800D01*
X104397000Y-89499800D01*
X104847000Y-89499800D01*
X104847000Y-89799800D01*
X104397000Y-89799800D01*
X104397000Y-89949800D01*
X104847000Y-89949800D01*
X104847000Y-90249800D01*
X104122000Y-90249800D01*
X104122000Y-87899800D01*
X104847000Y-87899800D01*
X104847000Y-88199800D01*
G37*
D11*
X147742000Y-63144800D03*
X147742000Y-64694800D03*
D12*
X94157000Y-83344800D03*
X94157000Y-84994800D03*
D13*
X129782000Y-57879800D03*
X129782000Y-54929800D03*
D14*
X94942000Y-62859800D03*
X93392000Y-62859800D03*
D13*
X135502000Y-86214800D03*
X135502000Y-83264800D03*
D15*
X119442000Y-99309800D03*
X119442000Y-102259800D03*
D16*
X95707000Y-81289800D03*
X94057000Y-81289800D03*
D14*
X98227000Y-89449800D03*
X96677000Y-89449800D03*
D17*
X97292000Y-87064800D03*
X97292000Y-85514800D03*
D15*
X136632000Y-99309800D03*
X136632000Y-102259800D03*
D13*
X132152000Y-86214800D03*
X132152000Y-83264800D03*
D18*
X107177000Y-83624800D03*
X104227000Y-83624800D03*
D17*
X98532000Y-57069800D03*
X98532000Y-55519800D03*
D19*
X95667000Y-84994800D03*
X95667000Y-83344800D03*
D14*
X100007000Y-65192300D03*
X98457000Y-65192300D03*
X103287000Y-92359800D03*
X101737000Y-92359800D03*
D13*
X125452000Y-86214800D03*
X125452000Y-83264800D03*
X133212000Y-57899800D03*
X133212000Y-54949800D03*
D20*
X143387000Y-61489800D03*
X145037000Y-61489800D03*
D21*
X110262000Y-85399800D03*
X121362000Y-85399800D03*
D15*
X123062000Y-62149800D03*
X123062000Y-65099800D03*
D16*
X95002000Y-64399800D03*
X93352000Y-64399800D03*
D13*
X128802000Y-86214800D03*
X128802000Y-83264800D03*
D12*
X97282000Y-82399800D03*
X97282000Y-84049800D03*
D18*
X103787000Y-55874800D03*
X100837000Y-55874800D03*
D22*
X99722000Y-97159800D03*
X106222000Y-97159800D03*
D23*
X101232000Y-60184800D03*
D24*
X100722000Y-59272300D03*
X100272000Y-59272300D03*
X99822000Y-59272300D03*
X99372000Y-59272300D03*
X98922000Y-59272300D03*
X98472000Y-59272300D03*
X98022000Y-59272300D03*
D25*
X97359500Y-59734800D03*
X97359500Y-60184800D03*
X97359500Y-60634800D03*
X97359500Y-61084800D03*
X97359500Y-61784800D03*
X97359500Y-62234800D03*
X97359500Y-62684800D03*
D26*
X98547000Y-60722300D03*
D27*
X100287000Y-60224800D03*
D16*
X100412000Y-82464800D03*
X98762000Y-82464800D03*
D13*
X136662000Y-57929800D03*
X136662000Y-54979800D03*
D12*
X144872000Y-66554800D03*
X144872000Y-68204800D03*
D28*
X123942000Y-73109800D03*
X117442000Y-73109800D03*
D29*
X143657000Y-63179800D03*
X143657000Y-64129800D03*
X143657000Y-65079800D03*
X145932000Y-65079800D03*
X145932000Y-64129800D03*
X145932000Y-63179800D03*
D12*
X93832000Y-55789800D03*
X93832000Y-57439800D03*
D15*
X126602000Y-62129800D03*
X126602000Y-65079800D03*
X129756000Y-99309800D03*
X129756000Y-102259800D03*
D22*
X99742000Y-105079800D03*
X106242000Y-105079800D03*
D13*
X122962000Y-57929800D03*
X122962000Y-54979800D03*
D30*
X116617000Y-94969800D03*
X113667000Y-94969800D03*
D16*
X98277000Y-90989800D03*
X96627000Y-90989800D03*
D30*
X116617000Y-98299800D03*
X113667000Y-98299800D03*
D13*
X126382000Y-57954800D03*
X126382000Y-55004800D03*
D17*
X102017000Y-83997300D03*
X102017000Y-82447300D03*
D12*
X90582000Y-57429800D03*
X90582000Y-59079800D03*
D16*
X96997000Y-55894800D03*
X95347000Y-55894800D03*
D19*
X92122000Y-59074800D03*
X92122000Y-57424800D03*
D15*
X126318000Y-99309800D03*
X126318000Y-102259800D03*
D16*
X92157000Y-55424800D03*
X90507000Y-55424800D03*
X148007000Y-66639800D03*
X146357000Y-66639800D03*
D23*
X104482000Y-87599800D03*
D24*
X103972000Y-86687300D03*
X103522000Y-86687300D03*
X103072000Y-86687300D03*
X102622000Y-86687300D03*
X102172000Y-86687300D03*
X101722000Y-86687300D03*
X101272000Y-86687300D03*
D25*
X100609500Y-87149800D03*
X100609500Y-87599800D03*
X100609500Y-88049800D03*
X100609500Y-88499800D03*
X100609500Y-89199800D03*
X100609500Y-89649800D03*
X100609500Y-90099800D03*
D26*
X101797000Y-88137300D03*
D27*
X103537000Y-87639800D03*
D17*
X93822000Y-60414800D03*
X93822000Y-58864800D03*
D15*
X133194000Y-99309800D03*
X133194000Y-102259800D03*
X122880000Y-99309800D03*
X122880000Y-102259800D03*
D21*
X107812000Y-60054800D03*
X118912000Y-60054800D03*
D22*
X93322000Y-72749800D03*
X99822000Y-72749800D03*
D31*
X148552000Y-79699800D02*
X148552000Y-107699800D01*
X108052001Y-109699800D02*
G75*
G02*
X110052000Y-111699799I-1J-2000000D01*
G01*
X84051999Y-51699800D02*
X156552000Y-51699800D01*
X84051998Y-77699800D02*
G75*
G02*
X82052000Y-75699802I2J2000000D01*
G01*
X92052000Y-107699802D02*
X92052000Y-79699799D01*
X148552000Y-107699800D02*
G75*
G02*
X146552000Y-109699800I-2000000J0D01*
G01*
X148552000Y-79699800D02*
G75*
G02*
X150552000Y-77699800I2000000J0D01*
G01*
D32*
X156252000Y-64699800D02*
G75*
G02*
X152852000Y-64699800I-1700000J0D01*
G01*
X152852000Y-64699800D02*
G75*
G02*
X156252000Y-64699800I1700000J0D01*
G01*
D31*
X130552000Y-115699800D02*
G75*
G02*
X128552000Y-117699800I-2000000J0D01*
G01*
X112051998Y-117699800D02*
X128552000Y-117699800D01*
X112051998Y-117699800D02*
G75*
G02*
X110052000Y-115699802I2J2000000D01*
G01*
X146552000Y-109699800D02*
X132552000Y-109699800D01*
X156552000Y-77699800D02*
X150552000Y-77699800D01*
X82052000Y-53699799D02*
X82052000Y-75699802D01*
X108052001Y-109699800D02*
X94051998Y-109699800D01*
X94051998Y-109699800D02*
G75*
G02*
X92052000Y-107699802I2J2000000D01*
G01*
D32*
X122002000Y-112049800D02*
G75*
G02*
X118602000Y-112049800I-1700000J0D01*
G01*
X118602000Y-112049800D02*
G75*
G02*
X122002000Y-112049800I1700000J0D01*
G01*
D31*
X158552000Y-75699800D02*
X158552000Y-53699800D01*
X82052000Y-53699799D02*
G75*
G02*
X84051999Y-51699800I2000000J-1D01*
G01*
D32*
X87752000Y-64699800D02*
G75*
G02*
X84352000Y-64699800I-1700000J0D01*
G01*
X84352000Y-64699800D02*
G75*
G02*
X87752000Y-64699800I1700000J0D01*
G01*
D31*
X110052000Y-115699802D02*
X110052000Y-111699799D01*
X158552000Y-75699800D02*
G75*
G02*
X156552000Y-77699800I-2000000J0D01*
G01*
X130552000Y-111699800D02*
G75*
G02*
X132552000Y-109699800I2000000J0D01*
G01*
X156552000Y-51699800D02*
G75*
G02*
X158552000Y-53699800I0J-2000000D01*
G01*
X130552000Y-111699800D02*
X130552000Y-115699800D01*
X90052001Y-77699800D02*
G75*
G02*
X92052000Y-79699799I-1J-2000000D01*
G01*
X90052001Y-77699800D02*
X84051998Y-77699800D01*
M02*
