G04 #@! TF.GenerationSoftware,KiCad,Pcbnew,9.0.0*
G04 #@! TF.CreationDate,2026-02-24T13:33:21+07:00*
G04 #@! TF.ProjectId,Power_management_V2,506f7765-725f-46d6-916e-6167656d656e,rev?*
G04 #@! TF.SameCoordinates,Original*
G04 #@! TF.FileFunction,Copper,L2,Inr*
G04 #@! TF.FilePolarity,Positive*
%FSLAX46Y46*%
G04 Gerber Fmt 4.6, Leading zero omitted, Abs format (unit mm)*
G04 Created by KiCad (PCBNEW 9.0.0) date 2026-02-24 13:33:21*
%MOMM*%
%LPD*%
G01*
G04 APERTURE LIST*
G04 Aperture macros list*
%AMRoundRect*
0 Rectangle with rounded corners*
0 $1 Rounding radius*
0 $2 $3 $4 $5 $6 $7 $8 $9 X,Y pos of 4 corners*
0 Add a 4 corners polygon primitive as box body*
4,1,4,$2,$3,$4,$5,$6,$7,$8,$9,$2,$3,0*
0 Add four circle primitives for the rounded corners*
1,1,$1+$1,$2,$3*
1,1,$1+$1,$4,$5*
1,1,$1+$1,$6,$7*
1,1,$1+$1,$8,$9*
0 Add four rect primitives between the rounded corners*
20,1,$1+$1,$2,$3,$4,$5,0*
20,1,$1+$1,$4,$5,$6,$7,0*
20,1,$1+$1,$6,$7,$8,$9,0*
20,1,$1+$1,$8,$9,$2,$3,0*%
G04 Aperture macros list end*
G04 #@! TA.AperFunction,ComponentPad*
%ADD10R,1.550000X2.000000*%
G04 #@! TD*
G04 #@! TA.AperFunction,ComponentPad*
%ADD11C,1.550000*%
G04 #@! TD*
G04 #@! TA.AperFunction,ComponentPad*
%ADD12RoundRect,1.000000X1.000000X3.200000X-1.000000X3.200000X-1.000000X-3.200000X1.000000X-3.200000X0*%
G04 #@! TD*
G04 #@! TA.AperFunction,ViaPad*
%ADD13C,0.500000*%
G04 #@! TD*
G04 #@! TA.AperFunction,ViaPad*
%ADD14C,0.450000*%
G04 #@! TD*
G04 #@! TA.AperFunction,Profile*
%ADD15C,0.200000*%
G04 #@! TD*
G04 #@! TA.AperFunction,Profile*
%ADD16C,0.150000*%
G04 #@! TD*
G04 APERTURE END LIST*
D10*
X144512000Y-92719800D03*
D11*
X141512000Y-92719800D03*
X138512000Y-92719800D03*
X135512000Y-92719800D03*
D12*
X131702000Y-73053800D03*
X108802000Y-74203800D03*
D13*
X131552000Y-104899800D03*
X114752000Y-103999800D03*
X136552000Y-103999800D03*
X117752000Y-103999800D03*
X120652000Y-104899800D03*
X130652000Y-53314800D03*
X125852000Y-81699800D03*
X108552000Y-80949800D03*
X124652000Y-103999800D03*
D14*
X99656466Y-61038237D03*
D13*
X134852000Y-81699800D03*
X108552000Y-79949800D03*
X122652000Y-104899800D03*
X135552000Y-103999800D03*
X109552000Y-102499800D03*
D14*
X103552000Y-88474800D03*
D13*
X146952000Y-98599800D03*
X101722000Y-53104800D03*
X133552000Y-104899800D03*
X125652000Y-53314800D03*
X137552000Y-104899800D03*
X133852000Y-81699800D03*
X109552000Y-100499800D03*
X138552000Y-103999800D03*
X114752000Y-104899800D03*
X127552000Y-103999800D03*
X136552000Y-104899800D03*
X122652000Y-53314800D03*
X113752000Y-103999800D03*
X104052000Y-75449800D03*
X109552000Y-107449800D03*
X107552000Y-79949800D03*
X105052000Y-75449800D03*
X108802000Y-102499800D03*
D14*
X100301192Y-61832156D03*
D13*
X129852000Y-81699800D03*
X133652000Y-53314800D03*
X131652000Y-53314800D03*
X127852000Y-81699800D03*
X102722000Y-53104800D03*
X133552000Y-103999800D03*
X132852000Y-81699800D03*
X140952000Y-96799800D03*
X108802000Y-100499800D03*
X128552000Y-103999800D03*
X104052000Y-77449800D03*
X138552000Y-104899800D03*
X123652000Y-103999800D03*
X107552000Y-80949800D03*
X128552000Y-104899800D03*
D14*
X100302000Y-61038237D03*
D13*
X127552000Y-104899800D03*
D14*
X99656466Y-62647388D03*
D13*
X117752000Y-104899800D03*
X132552000Y-103999800D03*
X129652000Y-53314800D03*
X105052000Y-77449800D03*
D14*
X102906466Y-89978388D03*
D13*
X100902000Y-65564800D03*
X104377000Y-92649800D03*
X108802000Y-105449800D03*
X104377000Y-91849800D03*
X123652000Y-53314800D03*
X109552000Y-106449800D03*
X118752000Y-104899800D03*
X138652000Y-53314800D03*
X126652000Y-53314800D03*
X105052000Y-78449800D03*
X145952000Y-96799800D03*
X146952000Y-96799800D03*
X121652000Y-103999800D03*
X104052000Y-79449800D03*
X119752000Y-104899800D03*
X131852000Y-81699800D03*
X139552000Y-104899800D03*
X141952000Y-97699800D03*
X140552000Y-104899800D03*
X105052000Y-73449800D03*
X100902000Y-64814800D03*
X129552000Y-104899800D03*
D14*
X99656466Y-60374800D03*
X100319841Y-62647388D03*
D13*
X142952000Y-98599800D03*
X140352000Y-95399800D03*
X121652000Y-53314800D03*
X142652000Y-53314800D03*
X130852000Y-81699800D03*
X143352000Y-58679800D03*
X115752000Y-104899800D03*
X109552000Y-101499800D03*
D14*
X103569841Y-89978388D03*
D13*
X124652000Y-53314800D03*
X104052000Y-74449800D03*
X145952000Y-97699800D03*
X142952000Y-97699800D03*
X144952000Y-98599800D03*
X140352000Y-94499800D03*
X138352000Y-94499800D03*
X136852000Y-81699800D03*
D14*
X103551192Y-89163156D03*
D13*
X135852000Y-81699800D03*
X143952000Y-96799800D03*
X145952000Y-98599800D03*
X131552000Y-103999800D03*
X126652000Y-103999800D03*
X113752000Y-104899800D03*
X100722000Y-53104800D03*
X97952000Y-87499800D03*
X115752000Y-103999800D03*
X123652000Y-104899800D03*
X109552000Y-80949800D03*
X109552000Y-105449800D03*
X148852000Y-62449800D03*
X139352000Y-94499800D03*
X132652000Y-53314800D03*
X144952000Y-97699800D03*
X134552000Y-103999800D03*
D14*
X102906466Y-88474800D03*
D13*
X127652000Y-53314800D03*
X116752000Y-104899800D03*
X128652000Y-53314800D03*
X139552000Y-103999800D03*
X108802000Y-103499800D03*
X139352000Y-95399800D03*
D14*
X102906466Y-89163156D03*
D13*
X101722000Y-54104800D03*
X138352000Y-95399800D03*
X141952000Y-98599800D03*
X140552000Y-103999800D03*
X125652000Y-104899800D03*
X109552000Y-104449800D03*
X132552000Y-104899800D03*
X142952000Y-96799800D03*
X134552000Y-104899800D03*
X104052000Y-76449800D03*
X126852000Y-81699800D03*
X135652000Y-53314800D03*
X141952000Y-96799800D03*
X144952000Y-96799800D03*
X116752000Y-103999800D03*
X118752000Y-103999800D03*
X92352000Y-63099800D03*
X140652000Y-53314800D03*
X124652000Y-104899800D03*
X105052000Y-76449800D03*
X105052000Y-74449800D03*
X119752000Y-103999800D03*
X135552000Y-104899800D03*
X120652000Y-103999800D03*
X130552000Y-104899800D03*
X99902000Y-64064800D03*
X108802000Y-104449800D03*
X141352000Y-95399800D03*
X120652000Y-53314800D03*
X102722000Y-54104800D03*
X141652000Y-53314800D03*
X129552000Y-103999800D03*
X103277000Y-91399800D03*
X147862000Y-56009800D03*
X134652000Y-53314800D03*
X139652000Y-53314800D03*
X125652000Y-103999800D03*
X104052000Y-78449800D03*
X108802000Y-101499800D03*
D14*
X99656466Y-61832156D03*
D13*
X143952000Y-97699800D03*
X108802000Y-107449800D03*
X121652000Y-104899800D03*
X93052000Y-60899800D03*
X100722000Y-54104800D03*
X141352000Y-94499800D03*
D14*
X102906466Y-87799800D03*
D13*
X137552000Y-103999800D03*
X140952000Y-97699800D03*
X108802000Y-106449800D03*
X109552000Y-103499800D03*
X122652000Y-103999800D03*
X105052000Y-79449800D03*
X109552000Y-79949800D03*
X143952000Y-98599800D03*
X146952000Y-97699800D03*
X137652000Y-53314800D03*
X128852000Y-81699800D03*
X130552000Y-103999800D03*
X140952000Y-98599800D03*
X104052000Y-73449800D03*
X126652000Y-104899800D03*
X136652000Y-53314800D03*
X97552000Y-90199800D03*
X126802000Y-73449800D03*
X96052000Y-103199800D03*
X95052000Y-104199800D03*
X94402000Y-66564800D03*
X94302000Y-67449800D03*
X95052000Y-101199800D03*
X97052000Y-101199800D03*
X133402000Y-65724800D03*
X91302000Y-72449800D03*
X136402000Y-71849800D03*
X126802000Y-75449800D03*
X127802000Y-73449800D03*
X126802000Y-70449800D03*
X145932000Y-54699800D03*
X126802000Y-68449800D03*
X95052000Y-97299800D03*
X127802000Y-71449800D03*
X92302000Y-68449800D03*
X136402000Y-67849800D03*
X127802000Y-69449800D03*
X90302000Y-72449800D03*
X95052000Y-94299800D03*
X91302000Y-74449800D03*
X127802000Y-76449800D03*
X97052000Y-94299800D03*
X97052000Y-93299800D03*
D14*
X101842000Y-89869800D03*
D13*
X96052000Y-94299800D03*
X95052000Y-100199800D03*
X136402000Y-68849800D03*
X97052000Y-98299800D03*
X100252000Y-92299800D03*
X92302000Y-67449800D03*
X130402000Y-65724800D03*
X127802000Y-68449800D03*
X126802000Y-76449800D03*
X96052000Y-98299800D03*
X95402000Y-66564800D03*
X126802000Y-72449800D03*
X97052000Y-103199800D03*
X96052000Y-99299800D03*
X97352000Y-64214800D03*
X126802000Y-77449800D03*
D14*
X98472000Y-62378800D03*
D13*
X127802000Y-75449800D03*
X96052000Y-100199800D03*
X96402000Y-66564800D03*
X90302000Y-67449800D03*
X126802000Y-71449800D03*
X97052000Y-97299800D03*
X93302000Y-68449800D03*
X100252000Y-91499800D03*
X127802000Y-67449800D03*
X136402000Y-75999800D03*
X91302000Y-68449800D03*
X95052000Y-105199800D03*
X97052000Y-95299800D03*
X90302000Y-71449800D03*
X97052000Y-96299800D03*
X97052000Y-100199800D03*
X95052000Y-102199800D03*
X132402000Y-65724800D03*
X96052000Y-102199800D03*
X91302000Y-69449800D03*
X90302000Y-68449800D03*
X97352000Y-65214800D03*
X95052000Y-103199800D03*
X91302000Y-73449800D03*
X136402000Y-69849800D03*
X126802000Y-67449800D03*
X134402000Y-65724800D03*
X94302000Y-68449800D03*
X97052000Y-105199800D03*
X96052000Y-101199800D03*
X135402000Y-65724800D03*
X136402000Y-66849800D03*
X95052000Y-98299800D03*
X97052000Y-99299800D03*
X98402000Y-66564800D03*
X91302000Y-70449800D03*
X147502000Y-63649800D03*
X126802000Y-69449800D03*
X97402000Y-66564800D03*
X93302000Y-67449800D03*
X127802000Y-77449800D03*
X127802000Y-70449800D03*
X136402000Y-73999800D03*
X127802000Y-72449800D03*
X96052000Y-97299800D03*
X96052000Y-105199800D03*
X95052000Y-99299800D03*
X149802000Y-59319800D03*
X90302000Y-73449800D03*
X97052000Y-102199800D03*
X91302000Y-71449800D03*
X96052000Y-95299800D03*
X96052000Y-96299800D03*
X136402000Y-74999800D03*
X126802000Y-74449800D03*
X136402000Y-70849800D03*
X127802000Y-74449800D03*
X96052000Y-104199800D03*
X136402000Y-72849800D03*
X90302000Y-70449800D03*
X97052000Y-104199800D03*
X136402000Y-76999800D03*
X91302000Y-67449800D03*
X96052000Y-93299800D03*
X136402000Y-65724800D03*
X95052000Y-96299800D03*
X98052000Y-93299800D03*
X131402000Y-65724800D03*
X90302000Y-69449800D03*
X95052000Y-95299800D03*
X98532000Y-54524800D03*
X92366071Y-52759927D03*
X91366071Y-52759927D03*
D14*
X98902000Y-60699800D03*
D13*
X96152000Y-57064800D03*
X88152000Y-56564800D03*
D14*
X98352000Y-61199800D03*
D13*
X95366071Y-52759927D03*
D14*
X98352000Y-60224800D03*
D13*
X93366071Y-52759927D03*
X88152000Y-59564800D03*
X96997000Y-54779800D03*
X88152000Y-55564800D03*
X94366071Y-52759927D03*
X88152000Y-54564800D03*
X88152000Y-57564800D03*
X88152000Y-58564800D03*
X96366071Y-52759927D03*
X96152000Y-57814800D03*
X92127000Y-56449800D03*
X94057000Y-82239800D03*
X102182000Y-84949800D03*
X134942000Y-88559800D03*
X129052000Y-92749800D03*
X124692000Y-88559800D03*
X124802000Y-92749800D03*
X127692000Y-88559800D03*
X128692000Y-88559800D03*
X123462000Y-97394800D03*
X127712000Y-97394800D03*
X132052000Y-92749800D03*
X123462000Y-96144800D03*
X128052000Y-92749800D03*
X132942000Y-88559800D03*
X121462000Y-97394800D03*
X122462000Y-96144800D03*
X129712000Y-97394800D03*
X133052000Y-92749800D03*
X126712000Y-97394800D03*
X128712000Y-96144800D03*
X125462000Y-97394800D03*
X135942000Y-88559800D03*
X97252000Y-84699800D03*
X125802000Y-92749800D03*
X129692000Y-88559800D03*
X126802000Y-92749800D03*
X130942000Y-88559800D03*
X121462000Y-96144800D03*
X126712000Y-96144800D03*
X131052000Y-92749800D03*
X131712000Y-97394800D03*
X120462000Y-96144800D03*
X130712000Y-96144800D03*
X130052000Y-92749800D03*
X122462000Y-97394800D03*
X131712000Y-96144800D03*
X127712000Y-96144800D03*
X128712000Y-97394800D03*
X130712000Y-97394800D03*
X129712000Y-96144800D03*
X133942000Y-88559800D03*
X120462000Y-97394800D03*
X131942000Y-88559800D03*
X125462000Y-96144800D03*
X124462000Y-96144800D03*
X121802000Y-92749800D03*
X123802000Y-92749800D03*
X125692000Y-88559800D03*
X122802000Y-92749800D03*
X124462000Y-97394800D03*
X126692000Y-88559800D03*
X98712000Y-57974800D03*
X90517000Y-56484800D03*
X120902000Y-58004800D03*
X145577000Y-80124800D03*
X144577000Y-82124800D03*
X93832000Y-58099800D03*
X126652000Y-59814800D03*
X133652000Y-59814800D03*
X131652000Y-59814800D03*
X145577000Y-86299800D03*
X144577000Y-80124800D03*
X145577000Y-82124800D03*
X137652000Y-59814800D03*
X121652000Y-59814800D03*
X123652000Y-59814800D03*
X145577000Y-88299800D03*
X134652000Y-59814800D03*
X135652000Y-59814800D03*
X144552000Y-89599800D03*
X124652000Y-59814800D03*
X143552000Y-90599800D03*
X139442000Y-67799800D03*
X144577000Y-85349800D03*
X145552000Y-89599800D03*
X144552000Y-90599800D03*
X144577000Y-83349800D03*
X145577000Y-81124800D03*
X143552000Y-89599800D03*
X145577000Y-85349800D03*
X140442000Y-66799800D03*
X145577000Y-84349800D03*
X146752000Y-91499800D03*
X140442000Y-64759800D03*
X145577000Y-83349800D03*
X136652000Y-59814800D03*
X146752000Y-92499800D03*
X139652000Y-59814800D03*
X140452000Y-70899800D03*
X144577000Y-81124800D03*
X139442000Y-65799800D03*
X139442000Y-63759800D03*
X144577000Y-86299800D03*
X140442000Y-65799800D03*
X129652000Y-59814800D03*
X122652000Y-59814800D03*
X140452000Y-69899800D03*
X139452000Y-69899800D03*
X130652000Y-59814800D03*
X145552000Y-90599800D03*
X120902000Y-57164800D03*
X144577000Y-84349800D03*
X140452000Y-68899800D03*
X140442000Y-67799800D03*
X128652000Y-59814800D03*
X127652000Y-59814800D03*
X132652000Y-59814800D03*
X144577000Y-88299800D03*
X125652000Y-59814800D03*
X139442000Y-64759800D03*
X140442000Y-63759800D03*
X138652000Y-59814800D03*
X146752000Y-93499800D03*
X139452000Y-70899800D03*
X139452000Y-68899800D03*
X144577000Y-87299800D03*
X140442000Y-62759800D03*
X139442000Y-66799800D03*
X145577000Y-87299800D03*
X139442000Y-62759800D03*
X98702000Y-87149800D03*
X95352000Y-60184800D03*
X94775727Y-59708820D03*
X143427000Y-56049800D03*
X142627000Y-56049800D03*
X98188047Y-86635847D03*
X95802000Y-79449800D03*
X94802000Y-79449800D03*
D14*
X102002000Y-88124800D03*
D13*
X100552000Y-84949800D03*
X95652000Y-82439800D03*
D14*
X101552000Y-87674800D03*
D13*
X100372000Y-81389800D03*
D14*
X101552000Y-88574800D03*
D13*
X99352000Y-81199800D03*
X97802000Y-79449800D03*
X98802000Y-79449800D03*
X99802000Y-79449800D03*
X96802000Y-79449800D03*
X98352000Y-81199800D03*
G04 #@! TA.AperFunction,Conductor*
G36*
X136517677Y-64119485D02*
G01*
X136538319Y-64136119D01*
X137565681Y-65163481D01*
X137599166Y-65224804D01*
X137602000Y-65251162D01*
X137602000Y-77023438D01*
X137582315Y-77090477D01*
X137565681Y-77111119D01*
X136243319Y-78433481D01*
X136181996Y-78466966D01*
X136155638Y-78469800D01*
X129970000Y-78469800D01*
X128852000Y-77351800D01*
X128852000Y-76336610D01*
X129202000Y-76336610D01*
X129208417Y-76439973D01*
X129208418Y-76439976D01*
X129259432Y-76683272D01*
X129259435Y-76683282D01*
X129349793Y-76914849D01*
X129477046Y-77128408D01*
X129637703Y-77318094D01*
X129637705Y-77318096D01*
X129827391Y-77478753D01*
X130040950Y-77606006D01*
X130272517Y-77696364D01*
X130272527Y-77696367D01*
X130452000Y-77733998D01*
X132952000Y-77733998D01*
X133131472Y-77696367D01*
X133131482Y-77696364D01*
X133363049Y-77606006D01*
X133576608Y-77478753D01*
X133766294Y-77318096D01*
X133766296Y-77318094D01*
X133926953Y-77128408D01*
X134054206Y-76914849D01*
X134144564Y-76683282D01*
X134144567Y-76683272D01*
X134195581Y-76439976D01*
X134195582Y-76439973D01*
X134201999Y-76336610D01*
X134202000Y-76336593D01*
X134202000Y-74303800D01*
X132952000Y-74303800D01*
X132952000Y-77733998D01*
X130452000Y-77733998D01*
X130452000Y-74303800D01*
X129202000Y-74303800D01*
X129202000Y-76336610D01*
X128852000Y-76336610D01*
X128852000Y-69770989D01*
X129202000Y-69770989D01*
X129202000Y-71803800D01*
X130452000Y-71803800D01*
X130452000Y-70787974D01*
X131202000Y-70787974D01*
X131202000Y-75319626D01*
X131236075Y-75446793D01*
X131301901Y-75560807D01*
X131394993Y-75653899D01*
X131509007Y-75719725D01*
X131636174Y-75753800D01*
X131767826Y-75753800D01*
X131894993Y-75719725D01*
X132009007Y-75653899D01*
X132102099Y-75560807D01*
X132167925Y-75446793D01*
X132202000Y-75319626D01*
X132202000Y-71803800D01*
X132952000Y-71803800D01*
X134202000Y-71803800D01*
X134202000Y-69771006D01*
X134201999Y-69770989D01*
X134195582Y-69667626D01*
X134195581Y-69667623D01*
X134144567Y-69424327D01*
X134144564Y-69424317D01*
X134054206Y-69192750D01*
X133926953Y-68979191D01*
X133766296Y-68789505D01*
X133766294Y-68789503D01*
X133576608Y-68628846D01*
X133363049Y-68501593D01*
X133131480Y-68411234D01*
X133131472Y-68411232D01*
X132952000Y-68373600D01*
X132952000Y-71803800D01*
X132202000Y-71803800D01*
X132202000Y-70787974D01*
X132167925Y-70660807D01*
X132102099Y-70546793D01*
X132009007Y-70453701D01*
X131894993Y-70387875D01*
X131767826Y-70353800D01*
X131636174Y-70353800D01*
X131509007Y-70387875D01*
X131394993Y-70453701D01*
X131301901Y-70546793D01*
X131236075Y-70660807D01*
X131202000Y-70787974D01*
X130452000Y-70787974D01*
X130452000Y-68373600D01*
X130451999Y-68373600D01*
X130272527Y-68411232D01*
X130272519Y-68411234D01*
X130040950Y-68501593D01*
X129827391Y-68628846D01*
X129637705Y-68789503D01*
X129637703Y-68789505D01*
X129477046Y-68979191D01*
X129349793Y-69192750D01*
X129259435Y-69424317D01*
X129259432Y-69424327D01*
X129208418Y-69667623D01*
X129208417Y-69667626D01*
X129202000Y-69770989D01*
X128852000Y-69770989D01*
X128852000Y-67099800D01*
X129302000Y-67099800D01*
X129927000Y-66474800D01*
X129927000Y-64651162D01*
X129946685Y-64584123D01*
X129963319Y-64563481D01*
X130390681Y-64136119D01*
X130452004Y-64102634D01*
X130478362Y-64099800D01*
X136450638Y-64099800D01*
X136517677Y-64119485D01*
G37*
G04 #@! TD.AperFunction*
G04 #@! TA.AperFunction,Conductor*
G36*
X101221631Y-78968707D02*
G01*
X101233444Y-78978796D01*
X102250452Y-79995804D01*
X102278229Y-80050321D01*
X102279448Y-80065808D01*
X102279448Y-84446300D01*
X102260541Y-84504491D01*
X102211041Y-84540455D01*
X102180448Y-84545300D01*
X102128747Y-84545300D01*
X102065782Y-84562171D01*
X102025864Y-84572867D01*
X101933635Y-84626116D01*
X101858316Y-84701435D01*
X101805067Y-84793664D01*
X101805066Y-84793669D01*
X101777500Y-84896547D01*
X101777500Y-85003053D01*
X101797242Y-85076732D01*
X101805067Y-85105935D01*
X101858316Y-85198164D01*
X101858318Y-85198166D01*
X101858320Y-85198169D01*
X101933631Y-85273480D01*
X101933633Y-85273481D01*
X101933635Y-85273483D01*
X102025865Y-85326732D01*
X102025863Y-85326732D01*
X102025867Y-85326733D01*
X102025869Y-85326734D01*
X102128747Y-85354300D01*
X102128749Y-85354300D01*
X102180448Y-85354300D01*
X102238639Y-85373207D01*
X102274603Y-85422707D01*
X102279448Y-85453300D01*
X102279448Y-88098456D01*
X102277534Y-88104346D01*
X102278722Y-88110427D01*
X102268229Y-88132984D01*
X102260541Y-88156647D01*
X102252916Y-88165905D01*
X102231645Y-88188759D01*
X102229581Y-88189905D01*
X102217525Y-88205616D01*
X102217503Y-88205644D01*
X102195989Y-88233674D01*
X102194958Y-88235380D01*
X102185090Y-88250147D01*
X102172792Y-88265134D01*
X102166637Y-88271291D01*
X102166623Y-88271305D01*
X102142342Y-88295584D01*
X102127346Y-88307891D01*
X102109844Y-88319586D01*
X102109816Y-88319605D01*
X102084180Y-88339276D01*
X102084151Y-88339300D01*
X102054135Y-88365623D01*
X102054099Y-88365657D01*
X101792857Y-88626899D01*
X101792823Y-88626935D01*
X101766500Y-88656951D01*
X101766476Y-88656980D01*
X101746805Y-88682616D01*
X101746786Y-88682644D01*
X101735093Y-88700143D01*
X101722784Y-88715142D01*
X101692344Y-88745582D01*
X101677345Y-88757891D01*
X101659836Y-88769590D01*
X101659831Y-88769594D01*
X101634178Y-88789278D01*
X101634144Y-88789306D01*
X101627958Y-88794732D01*
X101571741Y-88818885D01*
X101562683Y-88819300D01*
X93653362Y-88819300D01*
X93620716Y-88821050D01*
X93620701Y-88821051D01*
X93594311Y-88823888D01*
X93587348Y-88824718D01*
X93587324Y-88824724D01*
X93580642Y-88826901D01*
X93519457Y-88826948D01*
X93479974Y-88802774D01*
X92581496Y-87904296D01*
X92553719Y-87849779D01*
X92552500Y-87834292D01*
X92552500Y-87446547D01*
X97547500Y-87446547D01*
X97547500Y-87553053D01*
X97549415Y-87560199D01*
X97575067Y-87655935D01*
X97628316Y-87748164D01*
X97628318Y-87748166D01*
X97628320Y-87748169D01*
X97703631Y-87823480D01*
X97703633Y-87823481D01*
X97703635Y-87823483D01*
X97795865Y-87876732D01*
X97795863Y-87876732D01*
X97795867Y-87876733D01*
X97795869Y-87876734D01*
X97898747Y-87904300D01*
X97898749Y-87904300D01*
X98005251Y-87904300D01*
X98005253Y-87904300D01*
X98108131Y-87876734D01*
X98108133Y-87876732D01*
X98108135Y-87876732D01*
X98200364Y-87823483D01*
X98200364Y-87823482D01*
X98200369Y-87823480D01*
X98275680Y-87748169D01*
X98328934Y-87655931D01*
X98354586Y-87560195D01*
X98387908Y-87508884D01*
X98445029Y-87486957D01*
X98499711Y-87500084D01*
X98545869Y-87526734D01*
X98648747Y-87554300D01*
X98648749Y-87554300D01*
X98755251Y-87554300D01*
X98755253Y-87554300D01*
X98858131Y-87526734D01*
X98858133Y-87526732D01*
X98858135Y-87526732D01*
X98950364Y-87473483D01*
X98950364Y-87473482D01*
X98950369Y-87473480D01*
X99025680Y-87398169D01*
X99078934Y-87305931D01*
X99106500Y-87203053D01*
X99106500Y-87096547D01*
X99078934Y-86993669D01*
X99078932Y-86993666D01*
X99078932Y-86993664D01*
X99025683Y-86901435D01*
X99025681Y-86901433D01*
X99025680Y-86901431D01*
X98950369Y-86826120D01*
X98950366Y-86826118D01*
X98950364Y-86826116D01*
X98858134Y-86772867D01*
X98858136Y-86772867D01*
X98818217Y-86762171D01*
X98755253Y-86745300D01*
X98691547Y-86745300D01*
X98633356Y-86726393D01*
X98597392Y-86676893D01*
X98592547Y-86646300D01*
X98592547Y-86582595D01*
X98582996Y-86546949D01*
X98564981Y-86479716D01*
X98564979Y-86479713D01*
X98564979Y-86479711D01*
X98511730Y-86387482D01*
X98511728Y-86387480D01*
X98511727Y-86387478D01*
X98436416Y-86312167D01*
X98436413Y-86312165D01*
X98436411Y-86312163D01*
X98344181Y-86258914D01*
X98344183Y-86258914D01*
X98304264Y-86248218D01*
X98241300Y-86231347D01*
X98134794Y-86231347D01*
X98071829Y-86248218D01*
X98031911Y-86258914D01*
X97939682Y-86312163D01*
X97864363Y-86387482D01*
X97811114Y-86479711D01*
X97811113Y-86479716D01*
X97783547Y-86582594D01*
X97783547Y-86689100D01*
X97798606Y-86745300D01*
X97811114Y-86791982D01*
X97864363Y-86884211D01*
X97864365Y-86884213D01*
X97864367Y-86884216D01*
X97916860Y-86936709D01*
X97944636Y-86991224D01*
X97935065Y-87051656D01*
X97891800Y-87094921D01*
X97872479Y-87102337D01*
X97795869Y-87122865D01*
X97795865Y-87122867D01*
X97703635Y-87176116D01*
X97628316Y-87251435D01*
X97575067Y-87343664D01*
X97575066Y-87343669D01*
X97547500Y-87446547D01*
X92552500Y-87446547D01*
X92552500Y-84646547D01*
X96847500Y-84646547D01*
X96847500Y-84753053D01*
X96855733Y-84783778D01*
X96875067Y-84855935D01*
X96928316Y-84948164D01*
X96928318Y-84948166D01*
X96928320Y-84948169D01*
X97003631Y-85023480D01*
X97003633Y-85023481D01*
X97003635Y-85023483D01*
X97095865Y-85076732D01*
X97095863Y-85076732D01*
X97095867Y-85076733D01*
X97095869Y-85076734D01*
X97198747Y-85104300D01*
X97198749Y-85104300D01*
X97305251Y-85104300D01*
X97305253Y-85104300D01*
X97408131Y-85076734D01*
X97408133Y-85076732D01*
X97408135Y-85076732D01*
X97500364Y-85023483D01*
X97500364Y-85023482D01*
X97500369Y-85023480D01*
X97575680Y-84948169D01*
X97628934Y-84855931D01*
X97656500Y-84753053D01*
X97656500Y-84646547D01*
X97628934Y-84543669D01*
X97628932Y-84543666D01*
X97628932Y-84543664D01*
X97575683Y-84451435D01*
X97575681Y-84451433D01*
X97575680Y-84451431D01*
X97500369Y-84376120D01*
X97500366Y-84376118D01*
X97500364Y-84376116D01*
X97408134Y-84322867D01*
X97408136Y-84322867D01*
X97368217Y-84312171D01*
X97305253Y-84295300D01*
X97198747Y-84295300D01*
X97135782Y-84312171D01*
X97095864Y-84322867D01*
X97003635Y-84376116D01*
X96928316Y-84451435D01*
X96875067Y-84543664D01*
X96875066Y-84543669D01*
X96847500Y-84646547D01*
X92552500Y-84646547D01*
X92552500Y-82186547D01*
X93652500Y-82186547D01*
X93652500Y-82293053D01*
X93671870Y-82365342D01*
X93680067Y-82395935D01*
X93733316Y-82488164D01*
X93733318Y-82488166D01*
X93733320Y-82488169D01*
X93808631Y-82563480D01*
X93808633Y-82563481D01*
X93808635Y-82563483D01*
X93900865Y-82616732D01*
X93900863Y-82616732D01*
X93900867Y-82616733D01*
X93900869Y-82616734D01*
X94003747Y-82644300D01*
X94003749Y-82644300D01*
X94110251Y-82644300D01*
X94110253Y-82644300D01*
X94213131Y-82616734D01*
X94213133Y-82616732D01*
X94213135Y-82616732D01*
X94305364Y-82563483D01*
X94305364Y-82563482D01*
X94305369Y-82563480D01*
X94380680Y-82488169D01*
X94433934Y-82395931D01*
X94461500Y-82293053D01*
X94461500Y-82186547D01*
X94433934Y-82083669D01*
X94433932Y-82083666D01*
X94433932Y-82083664D01*
X94380683Y-81991435D01*
X94380681Y-81991433D01*
X94380680Y-81991431D01*
X94305369Y-81916120D01*
X94305366Y-81916118D01*
X94305364Y-81916116D01*
X94213134Y-81862867D01*
X94213136Y-81862867D01*
X94173217Y-81852171D01*
X94110253Y-81835300D01*
X94003747Y-81835300D01*
X93940782Y-81852171D01*
X93900864Y-81862867D01*
X93808635Y-81916116D01*
X93733316Y-81991435D01*
X93680067Y-82083664D01*
X93680066Y-82083669D01*
X93652500Y-82186547D01*
X92552500Y-82186547D01*
X92552500Y-79740308D01*
X92571407Y-79682117D01*
X92581496Y-79670304D01*
X93273004Y-78978796D01*
X93327521Y-78951019D01*
X93343008Y-78949800D01*
X101163440Y-78949800D01*
X101221631Y-78968707D01*
G37*
G04 #@! TD.AperFunction*
G04 #@! TA.AperFunction,Conductor*
G36*
X98034683Y-52219207D02*
G01*
X98046496Y-52229296D01*
X99067504Y-53250304D01*
X99095281Y-53304821D01*
X99096500Y-53320308D01*
X99096500Y-57558241D01*
X99077593Y-57616432D01*
X99028093Y-57652396D01*
X98966907Y-57652396D01*
X98948000Y-57643978D01*
X98868132Y-57597866D01*
X98833838Y-57588677D01*
X98765253Y-57570300D01*
X98658747Y-57570300D01*
X98595782Y-57587171D01*
X98555864Y-57597867D01*
X98463635Y-57651116D01*
X98388316Y-57726435D01*
X98335067Y-57818664D01*
X98335066Y-57818669D01*
X98307500Y-57921547D01*
X98307500Y-58028053D01*
X98327500Y-58102694D01*
X98335067Y-58130935D01*
X98388316Y-58223164D01*
X98388318Y-58223166D01*
X98388320Y-58223169D01*
X98463631Y-58298480D01*
X98463633Y-58298481D01*
X98463635Y-58298483D01*
X98555865Y-58351732D01*
X98555863Y-58351732D01*
X98555867Y-58351733D01*
X98555869Y-58351734D01*
X98658747Y-58379300D01*
X98658749Y-58379300D01*
X98765251Y-58379300D01*
X98765253Y-58379300D01*
X98868131Y-58351734D01*
X98868133Y-58351732D01*
X98868135Y-58351732D01*
X98948000Y-58305622D01*
X99007848Y-58292900D01*
X99063744Y-58317786D01*
X99094337Y-58370774D01*
X99096500Y-58391358D01*
X99096500Y-60519126D01*
X99099113Y-60559009D01*
X99103335Y-60591076D01*
X99103341Y-60591111D01*
X99105096Y-60599931D01*
X99107000Y-60619252D01*
X99107000Y-60780344D01*
X99105098Y-60799658D01*
X99103338Y-60808503D01*
X99103335Y-60808519D01*
X99099113Y-60840591D01*
X99096500Y-60880472D01*
X99096500Y-61093913D01*
X99077593Y-61152104D01*
X99067504Y-61163917D01*
X98695617Y-61535804D01*
X98641100Y-61563581D01*
X98625613Y-61564800D01*
X83303008Y-61564800D01*
X83244817Y-61545893D01*
X83233004Y-61535804D01*
X82775996Y-61078796D01*
X82772369Y-61071678D01*
X82765907Y-61066983D01*
X82758743Y-61044934D01*
X82748219Y-61024279D01*
X82747000Y-61008792D01*
X82747000Y-60846547D01*
X92647500Y-60846547D01*
X92647500Y-60953053D01*
X92662435Y-61008792D01*
X92675067Y-61055935D01*
X92728316Y-61148164D01*
X92728318Y-61148166D01*
X92728320Y-61148169D01*
X92803631Y-61223480D01*
X92803633Y-61223481D01*
X92803635Y-61223483D01*
X92895865Y-61276732D01*
X92895863Y-61276732D01*
X92895867Y-61276733D01*
X92895869Y-61276734D01*
X92998747Y-61304300D01*
X92998749Y-61304300D01*
X93105251Y-61304300D01*
X93105253Y-61304300D01*
X93208131Y-61276734D01*
X93208133Y-61276732D01*
X93208135Y-61276732D01*
X93300364Y-61223483D01*
X93300364Y-61223482D01*
X93300369Y-61223480D01*
X93375680Y-61148169D01*
X93415733Y-61078796D01*
X93428932Y-61055935D01*
X93428932Y-61055933D01*
X93428934Y-61055931D01*
X93456500Y-60953053D01*
X93456500Y-60846547D01*
X93428934Y-60743669D01*
X93428932Y-60743666D01*
X93428932Y-60743664D01*
X93375683Y-60651435D01*
X93375681Y-60651433D01*
X93375680Y-60651431D01*
X93300369Y-60576120D01*
X93300366Y-60576118D01*
X93300364Y-60576116D01*
X93208134Y-60522867D01*
X93208136Y-60522867D01*
X93168217Y-60512171D01*
X93105253Y-60495300D01*
X92998747Y-60495300D01*
X92935782Y-60512171D01*
X92895864Y-60522867D01*
X92803635Y-60576116D01*
X92728316Y-60651435D01*
X92675067Y-60743664D01*
X92675066Y-60743669D01*
X92647500Y-60846547D01*
X82747000Y-60846547D01*
X82747000Y-59655567D01*
X94371227Y-59655567D01*
X94371227Y-59762073D01*
X94388605Y-59826930D01*
X94398794Y-59864955D01*
X94452043Y-59957184D01*
X94452045Y-59957186D01*
X94452047Y-59957189D01*
X94527358Y-60032500D01*
X94527360Y-60032501D01*
X94527362Y-60032503D01*
X94619592Y-60085752D01*
X94619590Y-60085752D01*
X94619594Y-60085753D01*
X94619596Y-60085754D01*
X94722474Y-60113320D01*
X94722476Y-60113320D01*
X94828979Y-60113320D01*
X94828980Y-60113320D01*
X94828980Y-60113319D01*
X94835412Y-60112473D01*
X94835838Y-60115710D01*
X94883567Y-60117999D01*
X94931287Y-60156293D01*
X94947500Y-60210581D01*
X94947500Y-60238053D01*
X94971810Y-60328780D01*
X94975067Y-60340935D01*
X95028316Y-60433164D01*
X95028318Y-60433166D01*
X95028320Y-60433169D01*
X95103631Y-60508480D01*
X95103633Y-60508481D01*
X95103635Y-60508483D01*
X95195865Y-60561732D01*
X95195863Y-60561732D01*
X95195867Y-60561733D01*
X95195869Y-60561734D01*
X95298747Y-60589300D01*
X95298749Y-60589300D01*
X95405251Y-60589300D01*
X95405253Y-60589300D01*
X95508131Y-60561734D01*
X95508133Y-60561732D01*
X95508135Y-60561732D01*
X95600364Y-60508483D01*
X95600364Y-60508482D01*
X95600369Y-60508480D01*
X95675680Y-60433169D01*
X95728934Y-60340931D01*
X95756500Y-60238053D01*
X95756500Y-60131547D01*
X95728934Y-60028669D01*
X95728932Y-60028666D01*
X95728932Y-60028664D01*
X95675683Y-59936435D01*
X95675681Y-59936433D01*
X95675680Y-59936431D01*
X95600369Y-59861120D01*
X95600366Y-59861118D01*
X95600364Y-59861116D01*
X95508134Y-59807867D01*
X95508136Y-59807867D01*
X95468217Y-59797171D01*
X95405253Y-59780300D01*
X95298747Y-59780300D01*
X95298746Y-59780300D01*
X95292315Y-59781147D01*
X95291901Y-59778007D01*
X95243638Y-59775420D01*
X95196134Y-59736858D01*
X95180227Y-59683038D01*
X95180227Y-59655568D01*
X95170362Y-59618752D01*
X95152661Y-59552689D01*
X95152659Y-59552686D01*
X95152659Y-59552684D01*
X95099410Y-59460455D01*
X95099408Y-59460453D01*
X95099407Y-59460451D01*
X95024096Y-59385140D01*
X95024093Y-59385138D01*
X95024091Y-59385136D01*
X94931861Y-59331887D01*
X94931863Y-59331887D01*
X94891944Y-59321191D01*
X94828980Y-59304320D01*
X94722474Y-59304320D01*
X94659509Y-59321191D01*
X94619591Y-59331887D01*
X94527362Y-59385136D01*
X94452043Y-59460455D01*
X94398794Y-59552684D01*
X94398793Y-59552689D01*
X94371227Y-59655567D01*
X82747000Y-59655567D01*
X82747000Y-58046547D01*
X93427500Y-58046547D01*
X93427500Y-58153053D01*
X93448949Y-58233103D01*
X93455067Y-58255935D01*
X93508316Y-58348164D01*
X93508318Y-58348166D01*
X93508320Y-58348169D01*
X93583631Y-58423480D01*
X93583633Y-58423481D01*
X93583635Y-58423483D01*
X93675865Y-58476732D01*
X93675863Y-58476732D01*
X93675867Y-58476733D01*
X93675869Y-58476734D01*
X93778747Y-58504300D01*
X93778749Y-58504300D01*
X93885251Y-58504300D01*
X93885253Y-58504300D01*
X93988131Y-58476734D01*
X93988133Y-58476732D01*
X93988135Y-58476732D01*
X94080364Y-58423483D01*
X94080364Y-58423482D01*
X94080369Y-58423480D01*
X94155680Y-58348169D01*
X94180245Y-58305622D01*
X94208932Y-58255935D01*
X94208932Y-58255933D01*
X94208934Y-58255931D01*
X94236500Y-58153053D01*
X94236500Y-58046547D01*
X94208934Y-57943669D01*
X94208932Y-57943666D01*
X94208932Y-57943664D01*
X94155683Y-57851435D01*
X94155681Y-57851433D01*
X94155680Y-57851431D01*
X94080369Y-57776120D01*
X94080366Y-57776118D01*
X94080364Y-57776116D01*
X93988134Y-57722867D01*
X93988136Y-57722867D01*
X93948217Y-57712171D01*
X93885253Y-57695300D01*
X93778747Y-57695300D01*
X93715782Y-57712171D01*
X93675864Y-57722867D01*
X93583635Y-57776116D01*
X93508316Y-57851435D01*
X93455067Y-57943664D01*
X93455066Y-57943669D01*
X93427500Y-58046547D01*
X82747000Y-58046547D01*
X82747000Y-56431547D01*
X90112500Y-56431547D01*
X90112500Y-56538053D01*
X90136810Y-56628780D01*
X90140067Y-56640935D01*
X90193316Y-56733164D01*
X90193318Y-56733166D01*
X90193320Y-56733169D01*
X90268631Y-56808480D01*
X90268633Y-56808481D01*
X90268635Y-56808483D01*
X90360865Y-56861732D01*
X90360863Y-56861732D01*
X90360867Y-56861733D01*
X90360869Y-56861734D01*
X90463747Y-56889300D01*
X90463749Y-56889300D01*
X90570251Y-56889300D01*
X90570253Y-56889300D01*
X90673131Y-56861734D01*
X90673133Y-56861732D01*
X90673135Y-56861732D01*
X90765364Y-56808483D01*
X90765364Y-56808482D01*
X90765369Y-56808480D01*
X90840680Y-56733169D01*
X90893934Y-56640931D01*
X90921500Y-56538053D01*
X90921500Y-56431547D01*
X90893934Y-56328669D01*
X90893932Y-56328666D01*
X90893932Y-56328664D01*
X90840683Y-56236435D01*
X90840681Y-56236433D01*
X90840680Y-56236431D01*
X90765369Y-56161120D01*
X90765366Y-56161118D01*
X90765364Y-56161116D01*
X90673134Y-56107867D01*
X90673136Y-56107867D01*
X90633217Y-56097171D01*
X90570253Y-56080300D01*
X90463747Y-56080300D01*
X90400782Y-56097171D01*
X90360864Y-56107867D01*
X90268635Y-56161116D01*
X90193316Y-56236435D01*
X90140067Y-56328664D01*
X90140066Y-56328669D01*
X90112500Y-56431547D01*
X82747000Y-56431547D01*
X82747000Y-53125807D01*
X82765907Y-53067616D01*
X82775990Y-53055809D01*
X83520571Y-52311228D01*
X83555968Y-52288481D01*
X83622909Y-52263513D01*
X83636448Y-52259537D01*
X83831692Y-52217065D01*
X83845651Y-52215058D01*
X84025567Y-52202190D01*
X84048477Y-52200552D01*
X84055539Y-52200300D01*
X84117891Y-52200300D01*
X97976492Y-52200300D01*
X98034683Y-52219207D01*
G37*
G04 #@! TD.AperFunction*
G04 #@! TA.AperFunction,Conductor*
G36*
X129302000Y-67099800D02*
G01*
X128852000Y-67099800D01*
X128852000Y-77351800D01*
X129970000Y-78469800D01*
X134781999Y-78469800D01*
X134760238Y-78478814D01*
X134726996Y-78496966D01*
X134700638Y-78499800D01*
X126603362Y-78499800D01*
X126536323Y-78480115D01*
X126515681Y-78463481D01*
X125888319Y-77836119D01*
X125854834Y-77774796D01*
X125852000Y-77748438D01*
X125852000Y-67651162D01*
X125871685Y-67584123D01*
X125888319Y-67563481D01*
X126515681Y-66936119D01*
X126577004Y-66902634D01*
X126603362Y-66899800D01*
X129502000Y-66899800D01*
X129302000Y-67099800D01*
G37*
G04 #@! TD.AperFunction*
G04 #@! TA.AperFunction,Conductor*
G36*
X154968177Y-52219985D02*
G01*
X154988819Y-52236619D01*
X158015181Y-55262981D01*
X158048666Y-55324304D01*
X158051500Y-55350662D01*
X158051500Y-75695372D01*
X158051184Y-75704219D01*
X158036869Y-75904357D01*
X158034351Y-75921868D01*
X157992646Y-76113587D01*
X157987662Y-76130563D01*
X157919090Y-76314409D01*
X157911740Y-76330501D01*
X157817711Y-76502704D01*
X157808146Y-76517589D01*
X157690558Y-76674667D01*
X157678972Y-76688037D01*
X157540237Y-76826772D01*
X157526867Y-76838358D01*
X157369789Y-76955946D01*
X157354904Y-76965511D01*
X157182701Y-77059540D01*
X157166609Y-77066890D01*
X156982763Y-77135462D01*
X156965787Y-77140446D01*
X156774068Y-77182151D01*
X156756557Y-77184669D01*
X156575779Y-77197599D01*
X156556417Y-77198984D01*
X156547572Y-77199300D01*
X150400746Y-77199300D01*
X150100447Y-77235763D01*
X150100437Y-77235765D01*
X150018801Y-77255886D01*
X149990146Y-77259485D01*
X148603539Y-77270882D01*
X148027000Y-77749799D01*
X148002042Y-107998497D01*
X147982302Y-108065521D01*
X147965723Y-108086076D01*
X147363319Y-108688481D01*
X147301996Y-108721966D01*
X147275638Y-108724800D01*
X93528362Y-108724800D01*
X93461323Y-108705115D01*
X93440681Y-108688481D01*
X92663319Y-107911119D01*
X92629834Y-107849796D01*
X92627000Y-107823438D01*
X92627000Y-94227325D01*
X94501500Y-94227325D01*
X94501500Y-94372275D01*
X94539016Y-94512285D01*
X94539017Y-94512288D01*
X94611488Y-94637811D01*
X94611493Y-94637817D01*
X94685795Y-94712119D01*
X94719280Y-94773442D01*
X94714296Y-94843134D01*
X94685795Y-94887481D01*
X94611493Y-94961782D01*
X94611488Y-94961788D01*
X94539017Y-95087311D01*
X94539016Y-95087315D01*
X94501500Y-95227325D01*
X94501500Y-95372275D01*
X94539016Y-95512285D01*
X94539017Y-95512288D01*
X94611488Y-95637811D01*
X94611493Y-95637817D01*
X94685795Y-95712119D01*
X94719280Y-95773442D01*
X94714296Y-95843134D01*
X94685795Y-95887481D01*
X94611493Y-95961782D01*
X94611488Y-95961788D01*
X94539017Y-96087311D01*
X94539016Y-96087315D01*
X94501500Y-96227325D01*
X94501500Y-96372275D01*
X94538673Y-96511005D01*
X94539017Y-96512288D01*
X94611488Y-96637811D01*
X94611493Y-96637817D01*
X94685795Y-96712119D01*
X94719280Y-96773442D01*
X94714296Y-96843134D01*
X94685795Y-96887481D01*
X94611493Y-96961782D01*
X94611488Y-96961788D01*
X94539017Y-97087311D01*
X94539016Y-97087315D01*
X94501500Y-97227325D01*
X94501500Y-97372275D01*
X94539016Y-97512285D01*
X94539017Y-97512288D01*
X94611488Y-97637811D01*
X94611493Y-97637817D01*
X94685795Y-97712119D01*
X94719280Y-97773442D01*
X94714296Y-97843134D01*
X94685795Y-97887481D01*
X94611493Y-97961782D01*
X94611488Y-97961788D01*
X94539017Y-98087311D01*
X94539016Y-98087315D01*
X94501500Y-98227325D01*
X94501500Y-98372275D01*
X94539016Y-98512285D01*
X94539017Y-98512288D01*
X94611488Y-98637811D01*
X94611493Y-98637817D01*
X94685795Y-98712119D01*
X94719280Y-98773442D01*
X94714296Y-98843134D01*
X94685795Y-98887481D01*
X94611493Y-98961782D01*
X94611488Y-98961788D01*
X94539017Y-99087311D01*
X94539016Y-99087315D01*
X94501500Y-99227325D01*
X94501500Y-99372275D01*
X94539016Y-99512285D01*
X94539017Y-99512288D01*
X94611488Y-99637811D01*
X94611489Y-99637812D01*
X94611491Y-99637815D01*
X94635795Y-99662119D01*
X94635796Y-99662120D01*
X94669280Y-99723444D01*
X94664294Y-99793135D01*
X94635796Y-99837480D01*
X94611488Y-99861788D01*
X94539017Y-99987311D01*
X94539016Y-99987315D01*
X94501500Y-100127325D01*
X94501500Y-100272275D01*
X94539016Y-100412285D01*
X94539017Y-100412288D01*
X94611488Y-100537811D01*
X94611493Y-100537817D01*
X94685795Y-100612119D01*
X94719280Y-100673442D01*
X94714296Y-100743134D01*
X94685795Y-100787481D01*
X94611493Y-100861782D01*
X94611488Y-100861788D01*
X94539017Y-100987311D01*
X94539016Y-100987315D01*
X94501500Y-101127325D01*
X94501500Y-101272275D01*
X94539016Y-101412285D01*
X94539017Y-101412288D01*
X94611488Y-101537811D01*
X94611493Y-101537817D01*
X94685795Y-101612119D01*
X94719280Y-101673442D01*
X94714296Y-101743134D01*
X94685795Y-101787481D01*
X94611493Y-101861782D01*
X94611488Y-101861788D01*
X94539017Y-101987311D01*
X94539016Y-101987315D01*
X94501500Y-102127325D01*
X94501500Y-102272275D01*
X94539016Y-102412285D01*
X94539017Y-102412288D01*
X94611488Y-102537811D01*
X94611493Y-102537817D01*
X94685795Y-102612119D01*
X94719280Y-102673442D01*
X94714296Y-102743134D01*
X94685795Y-102787481D01*
X94611493Y-102861782D01*
X94611488Y-102861788D01*
X94539017Y-102987311D01*
X94539016Y-102987315D01*
X94501500Y-103127325D01*
X94501500Y-103272275D01*
X94539016Y-103412285D01*
X94539017Y-103412288D01*
X94611488Y-103537811D01*
X94611493Y-103537817D01*
X94685795Y-103612119D01*
X94719280Y-103673442D01*
X94714296Y-103743134D01*
X94685795Y-103787481D01*
X94611493Y-103861782D01*
X94611488Y-103861788D01*
X94539017Y-103987311D01*
X94539016Y-103987315D01*
X94501500Y-104127325D01*
X94501500Y-104272275D01*
X94539016Y-104412285D01*
X94539017Y-104412288D01*
X94611488Y-104537811D01*
X94611493Y-104537817D01*
X94685795Y-104612119D01*
X94719280Y-104673442D01*
X94714296Y-104743134D01*
X94685795Y-104787481D01*
X94611493Y-104861782D01*
X94611488Y-104861788D01*
X94539017Y-104987311D01*
X94539016Y-104987315D01*
X94501500Y-105127325D01*
X94501500Y-105272275D01*
X94539016Y-105412285D01*
X94539017Y-105412288D01*
X94611488Y-105537811D01*
X94611490Y-105537813D01*
X94611491Y-105537815D01*
X94713985Y-105640309D01*
X94713986Y-105640310D01*
X94713988Y-105640311D01*
X94839511Y-105712782D01*
X94839512Y-105712782D01*
X94839515Y-105712784D01*
X94979525Y-105750300D01*
X94979528Y-105750300D01*
X95124472Y-105750300D01*
X95124475Y-105750300D01*
X95264485Y-105712784D01*
X95390015Y-105640309D01*
X95464319Y-105566005D01*
X95525642Y-105532520D01*
X95595334Y-105537504D01*
X95639681Y-105566005D01*
X95713985Y-105640309D01*
X95713986Y-105640310D01*
X95713988Y-105640311D01*
X95839511Y-105712782D01*
X95839512Y-105712782D01*
X95839515Y-105712784D01*
X95979525Y-105750300D01*
X95979528Y-105750300D01*
X96124472Y-105750300D01*
X96124475Y-105750300D01*
X96264485Y-105712784D01*
X96390015Y-105640309D01*
X96464319Y-105566005D01*
X96525642Y-105532520D01*
X96595334Y-105537504D01*
X96639681Y-105566005D01*
X96713985Y-105640309D01*
X96713986Y-105640310D01*
X96713988Y-105640311D01*
X96839511Y-105712782D01*
X96839512Y-105712782D01*
X96839515Y-105712784D01*
X96979525Y-105750300D01*
X96979528Y-105750300D01*
X97124472Y-105750300D01*
X97124475Y-105750300D01*
X97264485Y-105712784D01*
X97390015Y-105640309D01*
X97492509Y-105537815D01*
X97564984Y-105412285D01*
X97602500Y-105272275D01*
X97602500Y-105127325D01*
X97564984Y-104987315D01*
X97492509Y-104861785D01*
X97418205Y-104787481D01*
X97384720Y-104726158D01*
X97389704Y-104656466D01*
X97418205Y-104612119D01*
X97492509Y-104537815D01*
X97564984Y-104412285D01*
X97602500Y-104272275D01*
X97602500Y-104127325D01*
X97564984Y-103987315D01*
X97492509Y-103861785D01*
X97418205Y-103787481D01*
X97384720Y-103726158D01*
X97389704Y-103656466D01*
X97418205Y-103612119D01*
X97492509Y-103537815D01*
X97564984Y-103412285D01*
X97602500Y-103272275D01*
X97602500Y-103127325D01*
X97564984Y-102987315D01*
X97492509Y-102861785D01*
X97418205Y-102787481D01*
X97384720Y-102726158D01*
X97389704Y-102656466D01*
X97418205Y-102612119D01*
X97492509Y-102537815D01*
X97564984Y-102412285D01*
X97602500Y-102272275D01*
X97602500Y-102127325D01*
X97564984Y-101987315D01*
X97492509Y-101861785D01*
X97418205Y-101787481D01*
X97384720Y-101726158D01*
X97389704Y-101656466D01*
X97418205Y-101612119D01*
X97492509Y-101537815D01*
X97564984Y-101412285D01*
X97602500Y-101272275D01*
X97602500Y-101127325D01*
X97564984Y-100987315D01*
X97492509Y-100861785D01*
X97418205Y-100787481D01*
X97384720Y-100726158D01*
X97389704Y-100656466D01*
X97418205Y-100612119D01*
X97492509Y-100537815D01*
X97564984Y-100412285D01*
X97602500Y-100272275D01*
X97602500Y-100127325D01*
X97564984Y-99987315D01*
X97492509Y-99861785D01*
X97468204Y-99837480D01*
X97434720Y-99776158D01*
X97439704Y-99706466D01*
X97468205Y-99662119D01*
X97492509Y-99637815D01*
X97564984Y-99512285D01*
X97602500Y-99372275D01*
X97602500Y-99227325D01*
X97564984Y-99087315D01*
X97492509Y-98961785D01*
X97418205Y-98887481D01*
X97384720Y-98826158D01*
X97389704Y-98756466D01*
X97418205Y-98712119D01*
X97492509Y-98637815D01*
X97564984Y-98512285D01*
X97602500Y-98372275D01*
X97602500Y-98227325D01*
X97564984Y-98087315D01*
X97492509Y-97961785D01*
X97418205Y-97887481D01*
X97384720Y-97826158D01*
X97389704Y-97756466D01*
X97418205Y-97712119D01*
X97492509Y-97637815D01*
X97564984Y-97512285D01*
X97602500Y-97372275D01*
X97602500Y-97227325D01*
X97564984Y-97087315D01*
X97547357Y-97056785D01*
X97492511Y-96961788D01*
X97492506Y-96961782D01*
X97418205Y-96887481D01*
X97384720Y-96826158D01*
X97389704Y-96756466D01*
X97418205Y-96712119D01*
X97435024Y-96695300D01*
X97492509Y-96637815D01*
X97564984Y-96512285D01*
X97602500Y-96372275D01*
X97602500Y-96227325D01*
X97564984Y-96087315D01*
X97556329Y-96072325D01*
X119911500Y-96072325D01*
X119911500Y-96217275D01*
X119936090Y-96309044D01*
X119949017Y-96357288D01*
X120021488Y-96482811D01*
X120021490Y-96482813D01*
X120021491Y-96482815D01*
X120123985Y-96585309D01*
X120123986Y-96585310D01*
X120123988Y-96585311D01*
X120256553Y-96661848D01*
X120254971Y-96664587D01*
X120297774Y-96699081D01*
X120319838Y-96765375D01*
X120302558Y-96833074D01*
X120255859Y-96876551D01*
X120256553Y-96877752D01*
X120123988Y-96954288D01*
X120123982Y-96954293D01*
X120021493Y-97056782D01*
X120021488Y-97056788D01*
X119949017Y-97182311D01*
X119949016Y-97182315D01*
X119911500Y-97322325D01*
X119911500Y-97467275D01*
X119936090Y-97559044D01*
X119949017Y-97607288D01*
X120021488Y-97732811D01*
X120021490Y-97732813D01*
X120021491Y-97732815D01*
X120123985Y-97835309D01*
X120123986Y-97835310D01*
X120123988Y-97835311D01*
X120249511Y-97907782D01*
X120249512Y-97907782D01*
X120249515Y-97907784D01*
X120389525Y-97945300D01*
X120389528Y-97945300D01*
X120534472Y-97945300D01*
X120534475Y-97945300D01*
X120674485Y-97907784D01*
X120800015Y-97835309D01*
X120874319Y-97761005D01*
X120935642Y-97727520D01*
X121005334Y-97732504D01*
X121049681Y-97761005D01*
X121123985Y-97835309D01*
X121123986Y-97835310D01*
X121123988Y-97835311D01*
X121249511Y-97907782D01*
X121249512Y-97907782D01*
X121249515Y-97907784D01*
X121389525Y-97945300D01*
X121389528Y-97945300D01*
X121534472Y-97945300D01*
X121534475Y-97945300D01*
X121674485Y-97907784D01*
X121800015Y-97835309D01*
X121874319Y-97761005D01*
X121935642Y-97727520D01*
X122005334Y-97732504D01*
X122049681Y-97761005D01*
X122123985Y-97835309D01*
X122123986Y-97835310D01*
X122123988Y-97835311D01*
X122249511Y-97907782D01*
X122249512Y-97907782D01*
X122249515Y-97907784D01*
X122389525Y-97945300D01*
X122389528Y-97945300D01*
X122534472Y-97945300D01*
X122534475Y-97945300D01*
X122674485Y-97907784D01*
X122800015Y-97835309D01*
X122874319Y-97761005D01*
X122935642Y-97727520D01*
X123005334Y-97732504D01*
X123049681Y-97761005D01*
X123123985Y-97835309D01*
X123123986Y-97835310D01*
X123123988Y-97835311D01*
X123249511Y-97907782D01*
X123249512Y-97907782D01*
X123249515Y-97907784D01*
X123389525Y-97945300D01*
X123389528Y-97945300D01*
X123534472Y-97945300D01*
X123534475Y-97945300D01*
X123674485Y-97907784D01*
X123800015Y-97835309D01*
X123874319Y-97761005D01*
X123935642Y-97727520D01*
X124005334Y-97732504D01*
X124049681Y-97761005D01*
X124123985Y-97835309D01*
X124123986Y-97835310D01*
X124123988Y-97835311D01*
X124249511Y-97907782D01*
X124249512Y-97907782D01*
X124249515Y-97907784D01*
X124389525Y-97945300D01*
X124389528Y-97945300D01*
X124534472Y-97945300D01*
X124534475Y-97945300D01*
X124674485Y-97907784D01*
X124800015Y-97835309D01*
X124874319Y-97761005D01*
X124935642Y-97727520D01*
X125005334Y-97732504D01*
X125049681Y-97761005D01*
X125123985Y-97835309D01*
X125123986Y-97835310D01*
X125123988Y-97835311D01*
X125249511Y-97907782D01*
X125249512Y-97907782D01*
X125249515Y-97907784D01*
X125389525Y-97945300D01*
X125389528Y-97945300D01*
X125534472Y-97945300D01*
X125534475Y-97945300D01*
X125674485Y-97907784D01*
X125800015Y-97835309D01*
X125902509Y-97732815D01*
X125928653Y-97687531D01*
X125979048Y-97600247D01*
X125981791Y-97601831D01*
X126016254Y-97559044D01*
X126082543Y-97536962D01*
X126150247Y-97554224D01*
X126193758Y-97600936D01*
X126194952Y-97600247D01*
X126271488Y-97732811D01*
X126271490Y-97732813D01*
X126271491Y-97732815D01*
X126373985Y-97835309D01*
X126373986Y-97835310D01*
X126373988Y-97835311D01*
X126499511Y-97907782D01*
X126499512Y-97907782D01*
X126499515Y-97907784D01*
X126639525Y-97945300D01*
X126639528Y-97945300D01*
X126784472Y-97945300D01*
X126784475Y-97945300D01*
X126924485Y-97907784D01*
X127050015Y-97835309D01*
X127124319Y-97761005D01*
X127185642Y-97727520D01*
X127255334Y-97732504D01*
X127299681Y-97761005D01*
X127373985Y-97835309D01*
X127373986Y-97835310D01*
X127373988Y-97835311D01*
X127499511Y-97907782D01*
X127499512Y-97907782D01*
X127499515Y-97907784D01*
X127639525Y-97945300D01*
X127639528Y-97945300D01*
X127784472Y-97945300D01*
X127784475Y-97945300D01*
X127924485Y-97907784D01*
X128050015Y-97835309D01*
X128124319Y-97761005D01*
X128185642Y-97727520D01*
X128255334Y-97732504D01*
X128299681Y-97761005D01*
X128373985Y-97835309D01*
X128373986Y-97835310D01*
X128373988Y-97835311D01*
X128499511Y-97907782D01*
X128499512Y-97907782D01*
X128499515Y-97907784D01*
X128639525Y-97945300D01*
X128639528Y-97945300D01*
X128784472Y-97945300D01*
X128784475Y-97945300D01*
X128924485Y-97907784D01*
X129050015Y-97835309D01*
X129124319Y-97761005D01*
X129185642Y-97727520D01*
X129255334Y-97732504D01*
X129299681Y-97761005D01*
X129373985Y-97835309D01*
X129373986Y-97835310D01*
X129373988Y-97835311D01*
X129499511Y-97907782D01*
X129499512Y-97907782D01*
X129499515Y-97907784D01*
X129639525Y-97945300D01*
X129639528Y-97945300D01*
X129784472Y-97945300D01*
X129784475Y-97945300D01*
X129924485Y-97907784D01*
X130050015Y-97835309D01*
X130124319Y-97761005D01*
X130185642Y-97727520D01*
X130255334Y-97732504D01*
X130299681Y-97761005D01*
X130373985Y-97835309D01*
X130373986Y-97835310D01*
X130373988Y-97835311D01*
X130499511Y-97907782D01*
X130499512Y-97907782D01*
X130499515Y-97907784D01*
X130639525Y-97945300D01*
X130639528Y-97945300D01*
X130784472Y-97945300D01*
X130784475Y-97945300D01*
X130924485Y-97907784D01*
X131050015Y-97835309D01*
X131124319Y-97761005D01*
X131185642Y-97727520D01*
X131255334Y-97732504D01*
X131299681Y-97761005D01*
X131373985Y-97835309D01*
X131373986Y-97835310D01*
X131373988Y-97835311D01*
X131499511Y-97907782D01*
X131499512Y-97907782D01*
X131499515Y-97907784D01*
X131639525Y-97945300D01*
X131639528Y-97945300D01*
X131784472Y-97945300D01*
X131784475Y-97945300D01*
X131924485Y-97907784D01*
X132050015Y-97835309D01*
X132152509Y-97732815D01*
X132224984Y-97607285D01*
X132262500Y-97467275D01*
X132262500Y-97322325D01*
X132224984Y-97182315D01*
X132170133Y-97087311D01*
X132152511Y-97056788D01*
X132152506Y-97056782D01*
X132050017Y-96954293D01*
X132050011Y-96954288D01*
X131917447Y-96877752D01*
X131919031Y-96875008D01*
X131876244Y-96840546D01*
X131854162Y-96774257D01*
X131871424Y-96706553D01*
X131918136Y-96663041D01*
X131917447Y-96661848D01*
X132004731Y-96611453D01*
X132050015Y-96585309D01*
X132152509Y-96482815D01*
X132224984Y-96357285D01*
X132262500Y-96217275D01*
X132262500Y-96072325D01*
X132224984Y-95932315D01*
X132182823Y-95859291D01*
X132152511Y-95806788D01*
X132152506Y-95806782D01*
X132050017Y-95704293D01*
X132050011Y-95704288D01*
X131924488Y-95631817D01*
X131924489Y-95631817D01*
X131913006Y-95628740D01*
X131784475Y-95594300D01*
X131639525Y-95594300D01*
X131510993Y-95628740D01*
X131499511Y-95631817D01*
X131373988Y-95704288D01*
X131373982Y-95704293D01*
X131299681Y-95778595D01*
X131238358Y-95812080D01*
X131168666Y-95807096D01*
X131124319Y-95778595D01*
X131050017Y-95704293D01*
X131050011Y-95704288D01*
X130924488Y-95631817D01*
X130924489Y-95631817D01*
X130913006Y-95628740D01*
X130784475Y-95594300D01*
X130639525Y-95594300D01*
X130510993Y-95628740D01*
X130499511Y-95631817D01*
X130373988Y-95704288D01*
X130373982Y-95704293D01*
X130299681Y-95778595D01*
X130238358Y-95812080D01*
X130168666Y-95807096D01*
X130124319Y-95778595D01*
X130050017Y-95704293D01*
X130050011Y-95704288D01*
X129924488Y-95631817D01*
X129924489Y-95631817D01*
X129913006Y-95628740D01*
X129784475Y-95594300D01*
X129639525Y-95594300D01*
X129510993Y-95628740D01*
X129499511Y-95631817D01*
X129373988Y-95704288D01*
X129373982Y-95704293D01*
X129299681Y-95778595D01*
X129238358Y-95812080D01*
X129168666Y-95807096D01*
X129124319Y-95778595D01*
X129050017Y-95704293D01*
X129050011Y-95704288D01*
X128924488Y-95631817D01*
X128924489Y-95631817D01*
X128913006Y-95628740D01*
X128784475Y-95594300D01*
X128639525Y-95594300D01*
X128510993Y-95628740D01*
X128499511Y-95631817D01*
X128373988Y-95704288D01*
X128373982Y-95704293D01*
X128299681Y-95778595D01*
X128238358Y-95812080D01*
X128168666Y-95807096D01*
X128124319Y-95778595D01*
X128050017Y-95704293D01*
X128050011Y-95704288D01*
X127924488Y-95631817D01*
X127924489Y-95631817D01*
X127913006Y-95628740D01*
X127784475Y-95594300D01*
X127639525Y-95594300D01*
X127510993Y-95628740D01*
X127499511Y-95631817D01*
X127373988Y-95704288D01*
X127373982Y-95704293D01*
X127299681Y-95778595D01*
X127238358Y-95812080D01*
X127168666Y-95807096D01*
X127124319Y-95778595D01*
X127050017Y-95704293D01*
X127050011Y-95704288D01*
X126924488Y-95631817D01*
X126924489Y-95631817D01*
X126913006Y-95628740D01*
X126784475Y-95594300D01*
X126639525Y-95594300D01*
X126510993Y-95628740D01*
X126499511Y-95631817D01*
X126373988Y-95704288D01*
X126373982Y-95704293D01*
X126271493Y-95806782D01*
X126271488Y-95806788D01*
X126194952Y-95939353D01*
X126192212Y-95937771D01*
X126157719Y-95980574D01*
X126091425Y-96002638D01*
X126023726Y-95985358D01*
X125980248Y-95938659D01*
X125979048Y-95939353D01*
X125902511Y-95806788D01*
X125902506Y-95806782D01*
X125800017Y-95704293D01*
X125800011Y-95704288D01*
X125674488Y-95631817D01*
X125674489Y-95631817D01*
X125663006Y-95628740D01*
X125534475Y-95594300D01*
X125389525Y-95594300D01*
X125260993Y-95628740D01*
X125249511Y-95631817D01*
X125123988Y-95704288D01*
X125123982Y-95704293D01*
X125049681Y-95778595D01*
X124988358Y-95812080D01*
X124918666Y-95807096D01*
X124874319Y-95778595D01*
X124800017Y-95704293D01*
X124800011Y-95704288D01*
X124674488Y-95631817D01*
X124674489Y-95631817D01*
X124663006Y-95628740D01*
X124534475Y-95594300D01*
X124389525Y-95594300D01*
X124260993Y-95628740D01*
X124249511Y-95631817D01*
X124123988Y-95704288D01*
X124123982Y-95704293D01*
X124049681Y-95778595D01*
X123988358Y-95812080D01*
X123918666Y-95807096D01*
X123874319Y-95778595D01*
X123800017Y-95704293D01*
X123800011Y-95704288D01*
X123674488Y-95631817D01*
X123674489Y-95631817D01*
X123663006Y-95628740D01*
X123534475Y-95594300D01*
X123389525Y-95594300D01*
X123260993Y-95628740D01*
X123249511Y-95631817D01*
X123123988Y-95704288D01*
X123123982Y-95704293D01*
X123049681Y-95778595D01*
X122988358Y-95812080D01*
X122918666Y-95807096D01*
X122874319Y-95778595D01*
X122800017Y-95704293D01*
X122800011Y-95704288D01*
X122674488Y-95631817D01*
X122674489Y-95631817D01*
X122663006Y-95628740D01*
X122534475Y-95594300D01*
X122389525Y-95594300D01*
X122260993Y-95628740D01*
X122249511Y-95631817D01*
X122123988Y-95704288D01*
X122123982Y-95704293D01*
X122049681Y-95778595D01*
X121988358Y-95812080D01*
X121918666Y-95807096D01*
X121874319Y-95778595D01*
X121800017Y-95704293D01*
X121800011Y-95704288D01*
X121674488Y-95631817D01*
X121674489Y-95631817D01*
X121663006Y-95628740D01*
X121534475Y-95594300D01*
X121389525Y-95594300D01*
X121260993Y-95628740D01*
X121249511Y-95631817D01*
X121123988Y-95704288D01*
X121123982Y-95704293D01*
X121049681Y-95778595D01*
X120988358Y-95812080D01*
X120918666Y-95807096D01*
X120874319Y-95778595D01*
X120800017Y-95704293D01*
X120800011Y-95704288D01*
X120674488Y-95631817D01*
X120674489Y-95631817D01*
X120663006Y-95628740D01*
X120534475Y-95594300D01*
X120389525Y-95594300D01*
X120260993Y-95628740D01*
X120249511Y-95631817D01*
X120123988Y-95704288D01*
X120123982Y-95704293D01*
X120021493Y-95806782D01*
X120021488Y-95806788D01*
X119949017Y-95932311D01*
X119949016Y-95932315D01*
X119911500Y-96072325D01*
X97556329Y-96072325D01*
X97492511Y-95961788D01*
X97492506Y-95961782D01*
X97418205Y-95887481D01*
X97384720Y-95826158D01*
X97389704Y-95756466D01*
X97418205Y-95712119D01*
X97426036Y-95704288D01*
X97492509Y-95637815D01*
X97564984Y-95512285D01*
X97602500Y-95372275D01*
X97602500Y-95227325D01*
X97564984Y-95087315D01*
X97492509Y-94961785D01*
X97418205Y-94887481D01*
X97384720Y-94826158D01*
X97389704Y-94756466D01*
X97418205Y-94712119D01*
X97492509Y-94637815D01*
X97564984Y-94512285D01*
X97602500Y-94372275D01*
X97602500Y-94227325D01*
X97564984Y-94087315D01*
X97543613Y-94050300D01*
X97492511Y-93961788D01*
X97492506Y-93961782D01*
X97418205Y-93887481D01*
X97413866Y-93879535D01*
X97406619Y-93874110D01*
X97397384Y-93849350D01*
X97384720Y-93826158D01*
X97385365Y-93817128D01*
X97382202Y-93808646D01*
X97387818Y-93782825D01*
X97389704Y-93756466D01*
X97395522Y-93747412D01*
X97397054Y-93740373D01*
X97418205Y-93712119D01*
X97464319Y-93666005D01*
X97525642Y-93632520D01*
X97595334Y-93637504D01*
X97639681Y-93666005D01*
X97713985Y-93740309D01*
X97713986Y-93740310D01*
X97713988Y-93740311D01*
X97839511Y-93812782D01*
X97839512Y-93812782D01*
X97839515Y-93812784D01*
X97979525Y-93850300D01*
X97979528Y-93850300D01*
X98124472Y-93850300D01*
X98124475Y-93850300D01*
X98264485Y-93812784D01*
X98390015Y-93740309D01*
X98492509Y-93637815D01*
X98564984Y-93512285D01*
X98602500Y-93372275D01*
X98602500Y-93227325D01*
X98564984Y-93087315D01*
X98548804Y-93059291D01*
X98492511Y-92961788D01*
X98492506Y-92961782D01*
X98390017Y-92859293D01*
X98390011Y-92859288D01*
X98264488Y-92786817D01*
X98264489Y-92786817D01*
X98253006Y-92783740D01*
X98124475Y-92749300D01*
X97979525Y-92749300D01*
X97850993Y-92783740D01*
X97839511Y-92786817D01*
X97713988Y-92859288D01*
X97713982Y-92859293D01*
X97639681Y-92933595D01*
X97578358Y-92967080D01*
X97508666Y-92962096D01*
X97464319Y-92933595D01*
X97390017Y-92859293D01*
X97390011Y-92859288D01*
X97264488Y-92786817D01*
X97264489Y-92786817D01*
X97253006Y-92783740D01*
X97124475Y-92749300D01*
X96979525Y-92749300D01*
X96850993Y-92783740D01*
X96839511Y-92786817D01*
X96713988Y-92859288D01*
X96713982Y-92859293D01*
X96639681Y-92933595D01*
X96578358Y-92967080D01*
X96508666Y-92962096D01*
X96464319Y-92933595D01*
X96390017Y-92859293D01*
X96390011Y-92859288D01*
X96264488Y-92786817D01*
X96264489Y-92786817D01*
X96253006Y-92783740D01*
X96124475Y-92749300D01*
X95979525Y-92749300D01*
X95850993Y-92783740D01*
X95839511Y-92786817D01*
X95713988Y-92859288D01*
X95713982Y-92859293D01*
X95611493Y-92961782D01*
X95611488Y-92961788D01*
X95539017Y-93087311D01*
X95538965Y-93087504D01*
X95501500Y-93227325D01*
X95501500Y-93372275D01*
X95539016Y-93512285D01*
X95539017Y-93512288D01*
X95611488Y-93637811D01*
X95611493Y-93637817D01*
X95685795Y-93712119D01*
X95690133Y-93720064D01*
X95697381Y-93725490D01*
X95706615Y-93750249D01*
X95719280Y-93773442D01*
X95718634Y-93782471D01*
X95721798Y-93790954D01*
X95716181Y-93816774D01*
X95714296Y-93843134D01*
X95708477Y-93852187D01*
X95706946Y-93859227D01*
X95685795Y-93887481D01*
X95639681Y-93933595D01*
X95578358Y-93967080D01*
X95508666Y-93962096D01*
X95464319Y-93933595D01*
X95390017Y-93859293D01*
X95390011Y-93859288D01*
X95264488Y-93786817D01*
X95264489Y-93786817D01*
X95253006Y-93783740D01*
X95124475Y-93749300D01*
X94979525Y-93749300D01*
X94850993Y-93783740D01*
X94839511Y-93786817D01*
X94713988Y-93859288D01*
X94713982Y-93859293D01*
X94611493Y-93961782D01*
X94611488Y-93961788D01*
X94539017Y-94087311D01*
X94539016Y-94087315D01*
X94501500Y-94227325D01*
X92627000Y-94227325D01*
X92627000Y-91427325D01*
X99701500Y-91427325D01*
X99701500Y-91572275D01*
X99729010Y-91674943D01*
X99739017Y-91712288D01*
X99811482Y-91837800D01*
X99827955Y-91905700D01*
X99811482Y-91961800D01*
X99739017Y-92087311D01*
X99734583Y-92103855D01*
X99701500Y-92227325D01*
X99701500Y-92372275D01*
X99734691Y-92496143D01*
X99739017Y-92512288D01*
X99811488Y-92637811D01*
X99811490Y-92637813D01*
X99811491Y-92637815D01*
X99913985Y-92740309D01*
X99913986Y-92740310D01*
X99913988Y-92740311D01*
X100039511Y-92812782D01*
X100039512Y-92812782D01*
X100039515Y-92812784D01*
X100179525Y-92850300D01*
X100179528Y-92850300D01*
X100324472Y-92850300D01*
X100324475Y-92850300D01*
X100464485Y-92812784D01*
X100590015Y-92740309D01*
X100652999Y-92677325D01*
X121251500Y-92677325D01*
X121251500Y-92822275D01*
X121289016Y-92962285D01*
X121289017Y-92962288D01*
X121361488Y-93087811D01*
X121361490Y-93087813D01*
X121361491Y-93087815D01*
X121463985Y-93190309D01*
X121463986Y-93190310D01*
X121463988Y-93190311D01*
X121589511Y-93262782D01*
X121589512Y-93262782D01*
X121589515Y-93262784D01*
X121729525Y-93300300D01*
X121729528Y-93300300D01*
X121874472Y-93300300D01*
X121874475Y-93300300D01*
X122014485Y-93262784D01*
X122140015Y-93190309D01*
X122214319Y-93116005D01*
X122275642Y-93082520D01*
X122345334Y-93087504D01*
X122389681Y-93116005D01*
X122463985Y-93190309D01*
X122463986Y-93190310D01*
X122463988Y-93190311D01*
X122589511Y-93262782D01*
X122589512Y-93262782D01*
X122589515Y-93262784D01*
X122729525Y-93300300D01*
X122729528Y-93300300D01*
X122874472Y-93300300D01*
X122874475Y-93300300D01*
X123014485Y-93262784D01*
X123140015Y-93190309D01*
X123214319Y-93116005D01*
X123275642Y-93082520D01*
X123345334Y-93087504D01*
X123389681Y-93116005D01*
X123463985Y-93190309D01*
X123463986Y-93190310D01*
X123463988Y-93190311D01*
X123589511Y-93262782D01*
X123589512Y-93262782D01*
X123589515Y-93262784D01*
X123729525Y-93300300D01*
X123729528Y-93300300D01*
X123874472Y-93300300D01*
X123874475Y-93300300D01*
X124014485Y-93262784D01*
X124140015Y-93190309D01*
X124214319Y-93116005D01*
X124275642Y-93082520D01*
X124345334Y-93087504D01*
X124389681Y-93116005D01*
X124463985Y-93190309D01*
X124463986Y-93190310D01*
X124463988Y-93190311D01*
X124589511Y-93262782D01*
X124589512Y-93262782D01*
X124589515Y-93262784D01*
X124729525Y-93300300D01*
X124729528Y-93300300D01*
X124874472Y-93300300D01*
X124874475Y-93300300D01*
X125014485Y-93262784D01*
X125140015Y-93190309D01*
X125214319Y-93116005D01*
X125275642Y-93082520D01*
X125345334Y-93087504D01*
X125389681Y-93116005D01*
X125463985Y-93190309D01*
X125463986Y-93190310D01*
X125463988Y-93190311D01*
X125589511Y-93262782D01*
X125589512Y-93262782D01*
X125589515Y-93262784D01*
X125729525Y-93300300D01*
X125729528Y-93300300D01*
X125874472Y-93300300D01*
X125874475Y-93300300D01*
X126014485Y-93262784D01*
X126140015Y-93190309D01*
X126214319Y-93116005D01*
X126275642Y-93082520D01*
X126345334Y-93087504D01*
X126389681Y-93116005D01*
X126463985Y-93190309D01*
X126463986Y-93190310D01*
X126463988Y-93190311D01*
X126589511Y-93262782D01*
X126589512Y-93262782D01*
X126589515Y-93262784D01*
X126729525Y-93300300D01*
X126729528Y-93300300D01*
X126874472Y-93300300D01*
X126874475Y-93300300D01*
X127014485Y-93262784D01*
X127140015Y-93190309D01*
X127242509Y-93087815D01*
X127302001Y-92984773D01*
X127319048Y-92955247D01*
X127321791Y-92956831D01*
X127356254Y-92914044D01*
X127422543Y-92891962D01*
X127490247Y-92909224D01*
X127533758Y-92955936D01*
X127534952Y-92955247D01*
X127611488Y-93087811D01*
X127611490Y-93087813D01*
X127611491Y-93087815D01*
X127713985Y-93190309D01*
X127713986Y-93190310D01*
X127713988Y-93190311D01*
X127839511Y-93262782D01*
X127839512Y-93262782D01*
X127839515Y-93262784D01*
X127979525Y-93300300D01*
X127979528Y-93300300D01*
X128124472Y-93300300D01*
X128124475Y-93300300D01*
X128264485Y-93262784D01*
X128390015Y-93190309D01*
X128464319Y-93116005D01*
X128525642Y-93082520D01*
X128595334Y-93087504D01*
X128639681Y-93116005D01*
X128713985Y-93190309D01*
X128713986Y-93190310D01*
X128713988Y-93190311D01*
X128839511Y-93262782D01*
X128839512Y-93262782D01*
X128839515Y-93262784D01*
X128979525Y-93300300D01*
X128979528Y-93300300D01*
X129124472Y-93300300D01*
X129124475Y-93300300D01*
X129264485Y-93262784D01*
X129390015Y-93190309D01*
X129464319Y-93116005D01*
X129525642Y-93082520D01*
X129595334Y-93087504D01*
X129639681Y-93116005D01*
X129713985Y-93190309D01*
X129713986Y-93190310D01*
X129713988Y-93190311D01*
X129839511Y-93262782D01*
X129839512Y-93262782D01*
X129839515Y-93262784D01*
X129979525Y-93300300D01*
X129979528Y-93300300D01*
X130124472Y-93300300D01*
X130124475Y-93300300D01*
X130264485Y-93262784D01*
X130390015Y-93190309D01*
X130464319Y-93116005D01*
X130525642Y-93082520D01*
X130595334Y-93087504D01*
X130639681Y-93116005D01*
X130713985Y-93190309D01*
X130713986Y-93190310D01*
X130713988Y-93190311D01*
X130839511Y-93262782D01*
X130839512Y-93262782D01*
X130839515Y-93262784D01*
X130979525Y-93300300D01*
X130979528Y-93300300D01*
X131124472Y-93300300D01*
X131124475Y-93300300D01*
X131264485Y-93262784D01*
X131390015Y-93190309D01*
X131464319Y-93116005D01*
X131525642Y-93082520D01*
X131595334Y-93087504D01*
X131639681Y-93116005D01*
X131713985Y-93190309D01*
X131713986Y-93190310D01*
X131713988Y-93190311D01*
X131839511Y-93262782D01*
X131839512Y-93262782D01*
X131839515Y-93262784D01*
X131979525Y-93300300D01*
X131979528Y-93300300D01*
X132124472Y-93300300D01*
X132124475Y-93300300D01*
X132264485Y-93262784D01*
X132390015Y-93190309D01*
X132464319Y-93116005D01*
X132525642Y-93082520D01*
X132595334Y-93087504D01*
X132639681Y-93116005D01*
X132713985Y-93190309D01*
X132713986Y-93190310D01*
X132713988Y-93190311D01*
X132839511Y-93262782D01*
X132839512Y-93262782D01*
X132839515Y-93262784D01*
X132979525Y-93300300D01*
X132979528Y-93300300D01*
X133124472Y-93300300D01*
X133124475Y-93300300D01*
X133264485Y-93262784D01*
X133390015Y-93190309D01*
X133492509Y-93087815D01*
X133564984Y-92962285D01*
X133602500Y-92822275D01*
X133602500Y-92677325D01*
X133564984Y-92537315D01*
X133541212Y-92496142D01*
X133524740Y-92428243D01*
X133547592Y-92362216D01*
X133602513Y-92319025D01*
X133672066Y-92312383D01*
X133729790Y-92342140D01*
X133730388Y-92341412D01*
X133733785Y-92344200D01*
X133734169Y-92344398D01*
X133734917Y-92345129D01*
X133735098Y-92345277D01*
X133862768Y-92430584D01*
X134004628Y-92489345D01*
X134132733Y-92514826D01*
X134155221Y-92519299D01*
X134155225Y-92519300D01*
X134312500Y-92519300D01*
X134379539Y-92538985D01*
X134425294Y-92591789D01*
X134436500Y-92643300D01*
X134436500Y-92804449D01*
X134462981Y-92971647D01*
X134515296Y-93132653D01*
X134544674Y-93190309D01*
X134581602Y-93262784D01*
X134592152Y-93283488D01*
X134691648Y-93420434D01*
X134691652Y-93420439D01*
X134811360Y-93540147D01*
X134811365Y-93540151D01*
X134930817Y-93626937D01*
X134948315Y-93639650D01*
X135044425Y-93688620D01*
X135099146Y-93716503D01*
X135099148Y-93716503D01*
X135099151Y-93716505D01*
X135172403Y-93740306D01*
X135260152Y-93768818D01*
X135427351Y-93795300D01*
X135427356Y-93795300D01*
X135596649Y-93795300D01*
X135763847Y-93768818D01*
X135776619Y-93764668D01*
X135924849Y-93716505D01*
X135937620Y-93709998D01*
X138087484Y-93709998D01*
X138099343Y-93716040D01*
X138260273Y-93768330D01*
X138427391Y-93794800D01*
X138596609Y-93794800D01*
X138763726Y-93768330D01*
X138924656Y-93716041D01*
X138936513Y-93709999D01*
X138936513Y-93709998D01*
X141087484Y-93709998D01*
X141099343Y-93716040D01*
X141260273Y-93768330D01*
X141427391Y-93794800D01*
X141596609Y-93794800D01*
X141763726Y-93768330D01*
X141924656Y-93716041D01*
X141936513Y-93709999D01*
X141936513Y-93709998D01*
X141512001Y-93285485D01*
X141512000Y-93285485D01*
X141087484Y-93709998D01*
X138936513Y-93709998D01*
X138512001Y-93285485D01*
X138512000Y-93285485D01*
X138087484Y-93709998D01*
X135937620Y-93709998D01*
X136075685Y-93639650D01*
X136125069Y-93603770D01*
X136176128Y-93566675D01*
X136212635Y-93540151D01*
X136212637Y-93540148D01*
X136212641Y-93540146D01*
X136332346Y-93420441D01*
X136431850Y-93283485D01*
X136508705Y-93132649D01*
X136561018Y-92971647D01*
X136562531Y-92962096D01*
X136587500Y-92804449D01*
X136587500Y-92635190D01*
X137437000Y-92635190D01*
X137437000Y-92804409D01*
X137463469Y-92971526D01*
X137463469Y-92971527D01*
X137515756Y-93132450D01*
X137515761Y-93132462D01*
X137521799Y-93144313D01*
X137521800Y-93144314D01*
X137946314Y-92719801D01*
X137946314Y-92719799D01*
X137877197Y-92650682D01*
X137987000Y-92650682D01*
X137987000Y-92788918D01*
X138022778Y-92922442D01*
X138091896Y-93042157D01*
X138189643Y-93139904D01*
X138309358Y-93209022D01*
X138442882Y-93244800D01*
X138581118Y-93244800D01*
X138714642Y-93209022D01*
X138834357Y-93139904D01*
X138932104Y-93042157D01*
X139001222Y-92922442D01*
X139037000Y-92788918D01*
X139037000Y-92719799D01*
X139077685Y-92719799D01*
X139077685Y-92719800D01*
X139502198Y-93144313D01*
X139502199Y-93144313D01*
X139508241Y-93132456D01*
X139560530Y-92971526D01*
X139587000Y-92804409D01*
X139587000Y-92635190D01*
X140437000Y-92635190D01*
X140437000Y-92804409D01*
X140463469Y-92971526D01*
X140463469Y-92971527D01*
X140515756Y-93132450D01*
X140515761Y-93132462D01*
X140521799Y-93144313D01*
X140521800Y-93144314D01*
X140946314Y-92719800D01*
X140946314Y-92719799D01*
X140877197Y-92650682D01*
X140987000Y-92650682D01*
X140987000Y-92788918D01*
X141022778Y-92922442D01*
X141091896Y-93042157D01*
X141189643Y-93139904D01*
X141309358Y-93209022D01*
X141442882Y-93244800D01*
X141581118Y-93244800D01*
X141714642Y-93209022D01*
X141834357Y-93139904D01*
X141932104Y-93042157D01*
X142001222Y-92922442D01*
X142037000Y-92788918D01*
X142037000Y-92719799D01*
X142077685Y-92719799D01*
X142077685Y-92719800D01*
X142502198Y-93144313D01*
X142502199Y-93144313D01*
X142508241Y-93132456D01*
X142560530Y-92971526D01*
X142587000Y-92804409D01*
X142587000Y-92635190D01*
X142560530Y-92468073D01*
X142508240Y-92307143D01*
X142508240Y-92307142D01*
X142502198Y-92295284D01*
X142077685Y-92719799D01*
X142037000Y-92719799D01*
X142037000Y-92650682D01*
X142001222Y-92517158D01*
X141932104Y-92397443D01*
X141834357Y-92299696D01*
X141714642Y-92230578D01*
X141581118Y-92194800D01*
X141442882Y-92194800D01*
X141309358Y-92230578D01*
X141189643Y-92299696D01*
X141091896Y-92397443D01*
X141022778Y-92517158D01*
X140987000Y-92650682D01*
X140877197Y-92650682D01*
X140521800Y-92295284D01*
X140521799Y-92295285D01*
X140515759Y-92307140D01*
X140463469Y-92468073D01*
X140437000Y-92635190D01*
X139587000Y-92635190D01*
X139560530Y-92468073D01*
X139508240Y-92307143D01*
X139508240Y-92307142D01*
X139502198Y-92295284D01*
X139077685Y-92719799D01*
X139037000Y-92719799D01*
X139037000Y-92650682D01*
X139001222Y-92517158D01*
X138932104Y-92397443D01*
X138834357Y-92299696D01*
X138714642Y-92230578D01*
X138581118Y-92194800D01*
X138442882Y-92194800D01*
X138309358Y-92230578D01*
X138189643Y-92299696D01*
X138091896Y-92397443D01*
X138022778Y-92517158D01*
X137987000Y-92650682D01*
X137877197Y-92650682D01*
X137521800Y-92295284D01*
X137521799Y-92295285D01*
X137515759Y-92307140D01*
X137463469Y-92468073D01*
X137437000Y-92635190D01*
X136587500Y-92635190D01*
X136587500Y-92635150D01*
X136561018Y-92467952D01*
X136520808Y-92344200D01*
X136508705Y-92306951D01*
X136508703Y-92306948D01*
X136508703Y-92306946D01*
X136468133Y-92227325D01*
X136431850Y-92156115D01*
X136381861Y-92087311D01*
X136332351Y-92019165D01*
X136332347Y-92019160D01*
X136212639Y-91899452D01*
X136212634Y-91899448D01*
X136176124Y-91872922D01*
X136075688Y-91799952D01*
X136075687Y-91799951D01*
X136075685Y-91799950D01*
X136012499Y-91767755D01*
X135937617Y-91729600D01*
X138087484Y-91729600D01*
X138512000Y-92154114D01*
X138512001Y-92154114D01*
X138936514Y-91729600D01*
X141087484Y-91729600D01*
X141512000Y-92154114D01*
X141512001Y-92154114D01*
X141936514Y-91729600D01*
X141936514Y-91729599D01*
X141924662Y-91723561D01*
X141924650Y-91723556D01*
X141774997Y-91674931D01*
X143436500Y-91674931D01*
X143436500Y-93764656D01*
X143436502Y-93764682D01*
X143439413Y-93789787D01*
X143439415Y-93789791D01*
X143484793Y-93892564D01*
X143484794Y-93892565D01*
X143564235Y-93972006D01*
X143667009Y-94017385D01*
X143692135Y-94020300D01*
X145331864Y-94020299D01*
X145331879Y-94020297D01*
X145331882Y-94020297D01*
X145356987Y-94017386D01*
X145356988Y-94017385D01*
X145356991Y-94017385D01*
X145459765Y-93972006D01*
X145539206Y-93892565D01*
X145584585Y-93789791D01*
X145587500Y-93764665D01*
X145587499Y-91674936D01*
X145587074Y-91671269D01*
X145584586Y-91649812D01*
X145584585Y-91649810D01*
X145584585Y-91649809D01*
X145539206Y-91547035D01*
X145459765Y-91467594D01*
X145459763Y-91467593D01*
X145368565Y-91427325D01*
X146201500Y-91427325D01*
X146201500Y-91572275D01*
X146229010Y-91674943D01*
X146239017Y-91712288D01*
X146311488Y-91837811D01*
X146311493Y-91837817D01*
X146385795Y-91912119D01*
X146419280Y-91973442D01*
X146414296Y-92043134D01*
X146385795Y-92087481D01*
X146311493Y-92161782D01*
X146311488Y-92161788D01*
X146239017Y-92287311D01*
X146239016Y-92287315D01*
X146201500Y-92427325D01*
X146201500Y-92572275D01*
X146229649Y-92677327D01*
X146239017Y-92712288D01*
X146311488Y-92837811D01*
X146311493Y-92837817D01*
X146385795Y-92912119D01*
X146419280Y-92973442D01*
X146414296Y-93043134D01*
X146385795Y-93087481D01*
X146311493Y-93161782D01*
X146311488Y-93161788D01*
X146239017Y-93287311D01*
X146239016Y-93287315D01*
X146201500Y-93427325D01*
X146201500Y-93572275D01*
X146238972Y-93712119D01*
X146239017Y-93712288D01*
X146311488Y-93837811D01*
X146311490Y-93837813D01*
X146311491Y-93837815D01*
X146413985Y-93940309D01*
X146413986Y-93940310D01*
X146413988Y-93940311D01*
X146539511Y-94012782D01*
X146539512Y-94012782D01*
X146539515Y-94012784D01*
X146679525Y-94050300D01*
X146679528Y-94050300D01*
X146824472Y-94050300D01*
X146824475Y-94050300D01*
X146964485Y-94012784D01*
X147090015Y-93940309D01*
X147192509Y-93837815D01*
X147264984Y-93712285D01*
X147302500Y-93572275D01*
X147302500Y-93427325D01*
X147264984Y-93287315D01*
X147263927Y-93285485D01*
X147192511Y-93161788D01*
X147192506Y-93161782D01*
X147118205Y-93087481D01*
X147084720Y-93026158D01*
X147089704Y-92956466D01*
X147118205Y-92912119D01*
X147138362Y-92891962D01*
X147192509Y-92837815D01*
X147264984Y-92712285D01*
X147302500Y-92572275D01*
X147302500Y-92427325D01*
X147264984Y-92287315D01*
X147235828Y-92236816D01*
X147192511Y-92161788D01*
X147192506Y-92161782D01*
X147118205Y-92087481D01*
X147084720Y-92026158D01*
X147089704Y-91956466D01*
X147118205Y-91912119D01*
X147136423Y-91893901D01*
X147192509Y-91837815D01*
X147264984Y-91712285D01*
X147302500Y-91572275D01*
X147302500Y-91427325D01*
X147264984Y-91287315D01*
X147239337Y-91242894D01*
X147192511Y-91161788D01*
X147192506Y-91161782D01*
X147090017Y-91059293D01*
X147090011Y-91059288D01*
X146964488Y-90986817D01*
X146964489Y-90986817D01*
X146953006Y-90983740D01*
X146824475Y-90949300D01*
X146679525Y-90949300D01*
X146550993Y-90983740D01*
X146539511Y-90986817D01*
X146413988Y-91059288D01*
X146413982Y-91059293D01*
X146311493Y-91161782D01*
X146311488Y-91161788D01*
X146239017Y-91287311D01*
X146239016Y-91287315D01*
X146201500Y-91427325D01*
X145368565Y-91427325D01*
X145356992Y-91422215D01*
X145331865Y-91419300D01*
X143692143Y-91419300D01*
X143692117Y-91419302D01*
X143667012Y-91422213D01*
X143667008Y-91422215D01*
X143564235Y-91467593D01*
X143484794Y-91547034D01*
X143439415Y-91649806D01*
X143439415Y-91649808D01*
X143436500Y-91674931D01*
X141774997Y-91674931D01*
X141763726Y-91671269D01*
X141596609Y-91644800D01*
X141427391Y-91644800D01*
X141260273Y-91671269D01*
X141099340Y-91723559D01*
X141087485Y-91729599D01*
X141087484Y-91729600D01*
X138936514Y-91729600D01*
X138936513Y-91729599D01*
X138924662Y-91723561D01*
X138924650Y-91723556D01*
X138763726Y-91671269D01*
X138596609Y-91644800D01*
X138427391Y-91644800D01*
X138260273Y-91671269D01*
X138099340Y-91723559D01*
X138087485Y-91729599D01*
X138087484Y-91729600D01*
X135937617Y-91729600D01*
X135924853Y-91723096D01*
X135763847Y-91670781D01*
X135596649Y-91644300D01*
X135596644Y-91644300D01*
X135427356Y-91644300D01*
X135427351Y-91644300D01*
X135260151Y-91670782D01*
X135260148Y-91670782D01*
X135160756Y-91703077D01*
X135090915Y-91705072D01*
X135031082Y-91668991D01*
X135000821Y-91609338D01*
X134981545Y-91512428D01*
X134922784Y-91370568D01*
X134837477Y-91242898D01*
X134837474Y-91242894D01*
X134728905Y-91134325D01*
X134728901Y-91134322D01*
X134601229Y-91049014D01*
X134459372Y-90990255D01*
X134459365Y-90990253D01*
X134308778Y-90960300D01*
X134308774Y-90960300D01*
X134155226Y-90960300D01*
X134155221Y-90960300D01*
X134004634Y-90990253D01*
X134004627Y-90990255D01*
X133862770Y-91049014D01*
X133735098Y-91134322D01*
X133735094Y-91134325D01*
X133626525Y-91242894D01*
X133626522Y-91242898D01*
X133541214Y-91370570D01*
X133482455Y-91512427D01*
X133482453Y-91512434D01*
X133452500Y-91663021D01*
X133452500Y-91816578D01*
X133482453Y-91967165D01*
X133482455Y-91967172D01*
X133541214Y-92109029D01*
X133558573Y-92135008D01*
X133579451Y-92201686D01*
X133560967Y-92269066D01*
X133508988Y-92315756D01*
X133440018Y-92326932D01*
X133393471Y-92311286D01*
X133264488Y-92236817D01*
X133264489Y-92236817D01*
X133253006Y-92233740D01*
X133124475Y-92199300D01*
X132979525Y-92199300D01*
X132850993Y-92233740D01*
X132839511Y-92236817D01*
X132713988Y-92309288D01*
X132713982Y-92309293D01*
X132639681Y-92383595D01*
X132578358Y-92417080D01*
X132508666Y-92412096D01*
X132464319Y-92383595D01*
X132390017Y-92309293D01*
X132390011Y-92309288D01*
X132264488Y-92236817D01*
X132264489Y-92236817D01*
X132253006Y-92233740D01*
X132124475Y-92199300D01*
X131979525Y-92199300D01*
X131850993Y-92233740D01*
X131839511Y-92236817D01*
X131713988Y-92309288D01*
X131713982Y-92309293D01*
X131639681Y-92383595D01*
X131578358Y-92417080D01*
X131508666Y-92412096D01*
X131464319Y-92383595D01*
X131390017Y-92309293D01*
X131390011Y-92309288D01*
X131264488Y-92236817D01*
X131264489Y-92236817D01*
X131253006Y-92233740D01*
X131124475Y-92199300D01*
X130979525Y-92199300D01*
X130850993Y-92233740D01*
X130839511Y-92236817D01*
X130713988Y-92309288D01*
X130713982Y-92309293D01*
X130639681Y-92383595D01*
X130578358Y-92417080D01*
X130508666Y-92412096D01*
X130464319Y-92383595D01*
X130390017Y-92309293D01*
X130390011Y-92309288D01*
X130264488Y-92236817D01*
X130264489Y-92236817D01*
X130253006Y-92233740D01*
X130124475Y-92199300D01*
X129979525Y-92199300D01*
X129850993Y-92233740D01*
X129839511Y-92236817D01*
X129713988Y-92309288D01*
X129713982Y-92309293D01*
X129639681Y-92383595D01*
X129578358Y-92417080D01*
X129508666Y-92412096D01*
X129464319Y-92383595D01*
X129390017Y-92309293D01*
X129390011Y-92309288D01*
X129264488Y-92236817D01*
X129264489Y-92236817D01*
X129253006Y-92233740D01*
X129124475Y-92199300D01*
X128979525Y-92199300D01*
X128850993Y-92233740D01*
X128839511Y-92236817D01*
X128713988Y-92309288D01*
X128713982Y-92309293D01*
X128639681Y-92383595D01*
X128578358Y-92417080D01*
X128508666Y-92412096D01*
X128464319Y-92383595D01*
X128390017Y-92309293D01*
X128390011Y-92309288D01*
X128264488Y-92236817D01*
X128264489Y-92236817D01*
X128253006Y-92233740D01*
X128124475Y-92199300D01*
X127979525Y-92199300D01*
X127850993Y-92233740D01*
X127839511Y-92236817D01*
X127713988Y-92309288D01*
X127713982Y-92309293D01*
X127611493Y-92411782D01*
X127611488Y-92411788D01*
X127534952Y-92544353D01*
X127532212Y-92542771D01*
X127497719Y-92585574D01*
X127431425Y-92607638D01*
X127363726Y-92590358D01*
X127320248Y-92543659D01*
X127319048Y-92544353D01*
X127242511Y-92411788D01*
X127242506Y-92411782D01*
X127140017Y-92309293D01*
X127140011Y-92309288D01*
X127014488Y-92236817D01*
X127014489Y-92236817D01*
X127003006Y-92233740D01*
X126874475Y-92199300D01*
X126729525Y-92199300D01*
X126600993Y-92233740D01*
X126589511Y-92236817D01*
X126463988Y-92309288D01*
X126463982Y-92309293D01*
X126389681Y-92383595D01*
X126328358Y-92417080D01*
X126258666Y-92412096D01*
X126214319Y-92383595D01*
X126140017Y-92309293D01*
X126140011Y-92309288D01*
X126014488Y-92236817D01*
X126014489Y-92236817D01*
X126003006Y-92233740D01*
X125874475Y-92199300D01*
X125729525Y-92199300D01*
X125600993Y-92233740D01*
X125589511Y-92236817D01*
X125463988Y-92309288D01*
X125463982Y-92309293D01*
X125389681Y-92383595D01*
X125328358Y-92417080D01*
X125258666Y-92412096D01*
X125214319Y-92383595D01*
X125140017Y-92309293D01*
X125140011Y-92309288D01*
X125014488Y-92236817D01*
X125014489Y-92236817D01*
X125003006Y-92233740D01*
X124874475Y-92199300D01*
X124729525Y-92199300D01*
X124600993Y-92233740D01*
X124589511Y-92236817D01*
X124463988Y-92309288D01*
X124463982Y-92309293D01*
X124389681Y-92383595D01*
X124328358Y-92417080D01*
X124258666Y-92412096D01*
X124214319Y-92383595D01*
X124140017Y-92309293D01*
X124140011Y-92309288D01*
X124014488Y-92236817D01*
X124014489Y-92236817D01*
X124003006Y-92233740D01*
X123874475Y-92199300D01*
X123729525Y-92199300D01*
X123600993Y-92233740D01*
X123589511Y-92236817D01*
X123463988Y-92309288D01*
X123463982Y-92309293D01*
X123389681Y-92383595D01*
X123328358Y-92417080D01*
X123258666Y-92412096D01*
X123214319Y-92383595D01*
X123140017Y-92309293D01*
X123140011Y-92309288D01*
X123014488Y-92236817D01*
X123014489Y-92236817D01*
X123003006Y-92233740D01*
X122874475Y-92199300D01*
X122729525Y-92199300D01*
X122600993Y-92233740D01*
X122589511Y-92236817D01*
X122463988Y-92309288D01*
X122463982Y-92309293D01*
X122389681Y-92383595D01*
X122328358Y-92417080D01*
X122258666Y-92412096D01*
X122214319Y-92383595D01*
X122140017Y-92309293D01*
X122140011Y-92309288D01*
X122014488Y-92236817D01*
X122014489Y-92236817D01*
X122003006Y-92233740D01*
X121874475Y-92199300D01*
X121729525Y-92199300D01*
X121600993Y-92233740D01*
X121589511Y-92236817D01*
X121463988Y-92309288D01*
X121463982Y-92309293D01*
X121361493Y-92411782D01*
X121361488Y-92411788D01*
X121289017Y-92537311D01*
X121287554Y-92542771D01*
X121251500Y-92677325D01*
X100652999Y-92677325D01*
X100692509Y-92637815D01*
X100764984Y-92512285D01*
X100802500Y-92372275D01*
X100802500Y-92227325D01*
X100764984Y-92087315D01*
X100692516Y-91961797D01*
X100676044Y-91893901D01*
X100692515Y-91837803D01*
X100764984Y-91712285D01*
X100802500Y-91572275D01*
X100802500Y-91427325D01*
X100764984Y-91287315D01*
X100739337Y-91242894D01*
X100692511Y-91161788D01*
X100692506Y-91161782D01*
X100590017Y-91059293D01*
X100590011Y-91059288D01*
X100464488Y-90986817D01*
X100464489Y-90986817D01*
X100453006Y-90983740D01*
X100324475Y-90949300D01*
X100179525Y-90949300D01*
X100050993Y-90983740D01*
X100039511Y-90986817D01*
X99913988Y-91059288D01*
X99913982Y-91059293D01*
X99811493Y-91161782D01*
X99811488Y-91161788D01*
X99739017Y-91287311D01*
X99739016Y-91287315D01*
X99701500Y-91427325D01*
X92627000Y-91427325D01*
X92627000Y-90151162D01*
X92646685Y-90084123D01*
X92663319Y-90063481D01*
X92926183Y-89800617D01*
X101316500Y-89800617D01*
X101316500Y-89938983D01*
X101347980Y-90056466D01*
X101352312Y-90072635D01*
X101352313Y-90072638D01*
X101421492Y-90192461D01*
X101421494Y-90192464D01*
X101421495Y-90192465D01*
X101519335Y-90290305D01*
X101639164Y-90359488D01*
X101772817Y-90395300D01*
X101772819Y-90395300D01*
X101911181Y-90395300D01*
X101911183Y-90395300D01*
X102044836Y-90359488D01*
X102164665Y-90290305D01*
X102262505Y-90192465D01*
X102331688Y-90072636D01*
X102367500Y-89938983D01*
X102367500Y-89800617D01*
X102331688Y-89666964D01*
X102262505Y-89547135D01*
X102242695Y-89527325D01*
X143001500Y-89527325D01*
X143001500Y-89672275D01*
X143035890Y-89800617D01*
X143039017Y-89812288D01*
X143111488Y-89937811D01*
X143111493Y-89937817D01*
X143185795Y-90012119D01*
X143219280Y-90073442D01*
X143214296Y-90143134D01*
X143185795Y-90187481D01*
X143111493Y-90261782D01*
X143111488Y-90261788D01*
X143039017Y-90387311D01*
X143039016Y-90387315D01*
X143001500Y-90527325D01*
X143001500Y-90672275D01*
X143039016Y-90812285D01*
X143039017Y-90812288D01*
X143111488Y-90937811D01*
X143111490Y-90937813D01*
X143111491Y-90937815D01*
X143213985Y-91040309D01*
X143213986Y-91040310D01*
X143213988Y-91040311D01*
X143339511Y-91112782D01*
X143339512Y-91112782D01*
X143339515Y-91112784D01*
X143479525Y-91150300D01*
X143479528Y-91150300D01*
X143624472Y-91150300D01*
X143624475Y-91150300D01*
X143764485Y-91112784D01*
X143890015Y-91040309D01*
X143964319Y-90966005D01*
X144025642Y-90932520D01*
X144095334Y-90937504D01*
X144139681Y-90966005D01*
X144213985Y-91040309D01*
X144213986Y-91040310D01*
X144213988Y-91040311D01*
X144339511Y-91112782D01*
X144339512Y-91112782D01*
X144339515Y-91112784D01*
X144479525Y-91150300D01*
X144479528Y-91150300D01*
X144624472Y-91150300D01*
X144624475Y-91150300D01*
X144764485Y-91112784D01*
X144890015Y-91040309D01*
X144964319Y-90966005D01*
X145025642Y-90932520D01*
X145095334Y-90937504D01*
X145139681Y-90966005D01*
X145213985Y-91040309D01*
X145213986Y-91040310D01*
X145213988Y-91040311D01*
X145339511Y-91112782D01*
X145339512Y-91112782D01*
X145339515Y-91112784D01*
X145479525Y-91150300D01*
X145479528Y-91150300D01*
X145624472Y-91150300D01*
X145624475Y-91150300D01*
X145764485Y-91112784D01*
X145890015Y-91040309D01*
X145992509Y-90937815D01*
X146064984Y-90812285D01*
X146102500Y-90672275D01*
X146102500Y-90527325D01*
X146064984Y-90387315D01*
X146048917Y-90359487D01*
X145992511Y-90261788D01*
X145992506Y-90261782D01*
X145918205Y-90187481D01*
X145884720Y-90126158D01*
X145889704Y-90056466D01*
X145918205Y-90012119D01*
X145992509Y-89937815D01*
X146064984Y-89812285D01*
X146102500Y-89672275D01*
X146102500Y-89527325D01*
X146064984Y-89387315D01*
X146060825Y-89380112D01*
X145992511Y-89261788D01*
X145992506Y-89261782D01*
X145890017Y-89159293D01*
X145890011Y-89159288D01*
X145764489Y-89086817D01*
X145758222Y-89085137D01*
X145712636Y-89072923D01*
X145652978Y-89036558D01*
X145622450Y-88973711D01*
X145630745Y-88904335D01*
X145675231Y-88850458D01*
X145712635Y-88833375D01*
X145789485Y-88812784D01*
X145915015Y-88740309D01*
X146017509Y-88637815D01*
X146089984Y-88512285D01*
X146127500Y-88372275D01*
X146127500Y-88227325D01*
X146089984Y-88087315D01*
X146066602Y-88046817D01*
X146017511Y-87961788D01*
X146017506Y-87961782D01*
X145943205Y-87887481D01*
X145909720Y-87826158D01*
X145914704Y-87756466D01*
X145943205Y-87712119D01*
X145955024Y-87700300D01*
X146017509Y-87637815D01*
X146089984Y-87512285D01*
X146127500Y-87372275D01*
X146127500Y-87227325D01*
X146089984Y-87087315D01*
X146084216Y-87077325D01*
X146017511Y-86961788D01*
X146017506Y-86961782D01*
X145943205Y-86887481D01*
X145909720Y-86826158D01*
X145914704Y-86756466D01*
X145943205Y-86712119D01*
X145947002Y-86708322D01*
X146017509Y-86637815D01*
X146089984Y-86512285D01*
X146127500Y-86372275D01*
X146127500Y-86227325D01*
X146089984Y-86087315D01*
X146017509Y-85961785D01*
X145968205Y-85912481D01*
X145934720Y-85851158D01*
X145939704Y-85781466D01*
X145968205Y-85737119D01*
X146017509Y-85687815D01*
X146089984Y-85562285D01*
X146127500Y-85422275D01*
X146127500Y-85277325D01*
X146089984Y-85137315D01*
X146032537Y-85037815D01*
X146017511Y-85011788D01*
X146017506Y-85011782D01*
X145943205Y-84937481D01*
X145909720Y-84876158D01*
X145914704Y-84806466D01*
X145943205Y-84762119D01*
X145968012Y-84737312D01*
X146017509Y-84687815D01*
X146089984Y-84562285D01*
X146127500Y-84422275D01*
X146127500Y-84277325D01*
X146089984Y-84137315D01*
X146017509Y-84011785D01*
X145943205Y-83937481D01*
X145909720Y-83876158D01*
X145914704Y-83806466D01*
X145943205Y-83762119D01*
X146017509Y-83687815D01*
X146089984Y-83562285D01*
X146127500Y-83422275D01*
X146127500Y-83277325D01*
X146089984Y-83137315D01*
X146017509Y-83011785D01*
X145915015Y-82909291D01*
X145803118Y-82844687D01*
X145754902Y-82794120D01*
X145741680Y-82725513D01*
X145767648Y-82660648D01*
X145803118Y-82629913D01*
X145806450Y-82627989D01*
X145915015Y-82565309D01*
X146017509Y-82462815D01*
X146089984Y-82337285D01*
X146127500Y-82197275D01*
X146127500Y-82052325D01*
X146089984Y-81912315D01*
X146084481Y-81902784D01*
X146017511Y-81786788D01*
X146017506Y-81786782D01*
X145943205Y-81712481D01*
X145909720Y-81651158D01*
X145914704Y-81581466D01*
X145943205Y-81537119D01*
X146017509Y-81462815D01*
X146089984Y-81337285D01*
X146127500Y-81197275D01*
X146127500Y-81052325D01*
X146089984Y-80912315D01*
X146060810Y-80861785D01*
X146017511Y-80786788D01*
X146017506Y-80786782D01*
X145943205Y-80712481D01*
X145909720Y-80651158D01*
X145914704Y-80581466D01*
X145943205Y-80537119D01*
X146017509Y-80462815D01*
X146089984Y-80337285D01*
X146127500Y-80197275D01*
X146127500Y-80052325D01*
X146089984Y-79912315D01*
X146017509Y-79786785D01*
X145915015Y-79684291D01*
X145915013Y-79684290D01*
X145915011Y-79684288D01*
X145789488Y-79611817D01*
X145789489Y-79611817D01*
X145778006Y-79608740D01*
X145649475Y-79574300D01*
X145504525Y-79574300D01*
X145375993Y-79608740D01*
X145364511Y-79611817D01*
X145238988Y-79684288D01*
X145238982Y-79684293D01*
X145164681Y-79758595D01*
X145103358Y-79792080D01*
X145033666Y-79787096D01*
X144989319Y-79758595D01*
X144915017Y-79684293D01*
X144915011Y-79684288D01*
X144789488Y-79611817D01*
X144789489Y-79611817D01*
X144778006Y-79608740D01*
X144649475Y-79574300D01*
X144504525Y-79574300D01*
X144375993Y-79608740D01*
X144364511Y-79611817D01*
X144238988Y-79684288D01*
X144238982Y-79684293D01*
X144136493Y-79786782D01*
X144136488Y-79786788D01*
X144064017Y-79912311D01*
X144064016Y-79912315D01*
X144026500Y-80052325D01*
X144026500Y-80197275D01*
X144064016Y-80337285D01*
X144064017Y-80337288D01*
X144136488Y-80462811D01*
X144136493Y-80462817D01*
X144210795Y-80537119D01*
X144244280Y-80598442D01*
X144239296Y-80668134D01*
X144210795Y-80712481D01*
X144136493Y-80786782D01*
X144136488Y-80786788D01*
X144064017Y-80912311D01*
X144064016Y-80912315D01*
X144026500Y-81052325D01*
X144026500Y-81197275D01*
X144058668Y-81317325D01*
X144064017Y-81337288D01*
X144136488Y-81462811D01*
X144136493Y-81462817D01*
X144210795Y-81537119D01*
X144244280Y-81598442D01*
X144239296Y-81668134D01*
X144210795Y-81712481D01*
X144136493Y-81786782D01*
X144136488Y-81786788D01*
X144064017Y-81912311D01*
X144064016Y-81912315D01*
X144026500Y-82052325D01*
X144026500Y-82197275D01*
X144057315Y-82312275D01*
X144064017Y-82337288D01*
X144136488Y-82462811D01*
X144136490Y-82462813D01*
X144136491Y-82462815D01*
X144238985Y-82565309D01*
X144346558Y-82627416D01*
X144350882Y-82629913D01*
X144399097Y-82680480D01*
X144412319Y-82749088D01*
X144386351Y-82813952D01*
X144350882Y-82844687D01*
X144238985Y-82909291D01*
X144238982Y-82909293D01*
X144136493Y-83011782D01*
X144136488Y-83011788D01*
X144064017Y-83137311D01*
X144064016Y-83137315D01*
X144026500Y-83277325D01*
X144026500Y-83422275D01*
X144064016Y-83562285D01*
X144064017Y-83562288D01*
X144136488Y-83687811D01*
X144136493Y-83687817D01*
X144210795Y-83762119D01*
X144244280Y-83823442D01*
X144239296Y-83893134D01*
X144210795Y-83937481D01*
X144136493Y-84011782D01*
X144136488Y-84011788D01*
X144064017Y-84137311D01*
X144064016Y-84137315D01*
X144026500Y-84277325D01*
X144026500Y-84422275D01*
X144064016Y-84562285D01*
X144064017Y-84562288D01*
X144136488Y-84687811D01*
X144136493Y-84687817D01*
X144210795Y-84762119D01*
X144244280Y-84823442D01*
X144239296Y-84893134D01*
X144210795Y-84937481D01*
X144136493Y-85011782D01*
X144136488Y-85011788D01*
X144064017Y-85137311D01*
X144064016Y-85137315D01*
X144026500Y-85277325D01*
X144026500Y-85422275D01*
X144047407Y-85500300D01*
X144064017Y-85562288D01*
X144136488Y-85687811D01*
X144136493Y-85687817D01*
X144185795Y-85737119D01*
X144219280Y-85798442D01*
X144214296Y-85868134D01*
X144185795Y-85912481D01*
X144136493Y-85961782D01*
X144136488Y-85961788D01*
X144064017Y-86087311D01*
X144064016Y-86087315D01*
X144026500Y-86227325D01*
X144026500Y-86372275D01*
X144040189Y-86423362D01*
X144064017Y-86512288D01*
X144136488Y-86637811D01*
X144136493Y-86637817D01*
X144210795Y-86712119D01*
X144244280Y-86773442D01*
X144239296Y-86843134D01*
X144210795Y-86887481D01*
X144136493Y-86961782D01*
X144136488Y-86961788D01*
X144064017Y-87087311D01*
X144064016Y-87087315D01*
X144026500Y-87227325D01*
X144026500Y-87372275D01*
X144064016Y-87512285D01*
X144064017Y-87512288D01*
X144136488Y-87637811D01*
X144136493Y-87637817D01*
X144210795Y-87712119D01*
X144244280Y-87773442D01*
X144239296Y-87843134D01*
X144210795Y-87887481D01*
X144136493Y-87961782D01*
X144136488Y-87961788D01*
X144064017Y-88087311D01*
X144064016Y-88087315D01*
X144026500Y-88227325D01*
X144026500Y-88372275D01*
X144064016Y-88512285D01*
X144064017Y-88512288D01*
X144136488Y-88637811D01*
X144136490Y-88637813D01*
X144136491Y-88637815D01*
X144238985Y-88740309D01*
X144364515Y-88812784D01*
X144416361Y-88826676D01*
X144476020Y-88863040D01*
X144506549Y-88925887D01*
X144498254Y-88995262D01*
X144453769Y-89049140D01*
X144416361Y-89066224D01*
X144339516Y-89086815D01*
X144339511Y-89086817D01*
X144213988Y-89159288D01*
X144213982Y-89159293D01*
X144139681Y-89233595D01*
X144078358Y-89267080D01*
X144008666Y-89262096D01*
X143964319Y-89233595D01*
X143890017Y-89159293D01*
X143890011Y-89159288D01*
X143764488Y-89086817D01*
X143764489Y-89086817D01*
X143753006Y-89083740D01*
X143624475Y-89049300D01*
X143479525Y-89049300D01*
X143350993Y-89083740D01*
X143339511Y-89086817D01*
X143213988Y-89159288D01*
X143213982Y-89159293D01*
X143111493Y-89261782D01*
X143111488Y-89261788D01*
X143039017Y-89387311D01*
X143039016Y-89387315D01*
X143001500Y-89527325D01*
X102242695Y-89527325D01*
X102164665Y-89449295D01*
X102164664Y-89449294D01*
X102164661Y-89449292D01*
X102044838Y-89380113D01*
X102044837Y-89380112D01*
X102044836Y-89380112D01*
X101911183Y-89344300D01*
X101772817Y-89344300D01*
X101639164Y-89380112D01*
X101639162Y-89380113D01*
X101639161Y-89380113D01*
X101519338Y-89449292D01*
X101519333Y-89449296D01*
X101421496Y-89547133D01*
X101421492Y-89547138D01*
X101352313Y-89666961D01*
X101352312Y-89666964D01*
X101316500Y-89800617D01*
X92926183Y-89800617D01*
X93565681Y-89161119D01*
X93627004Y-89127634D01*
X93653362Y-89124800D01*
X101638949Y-89124800D01*
X101727000Y-89124800D01*
X101820135Y-89031664D01*
X101845805Y-89011966D01*
X101874665Y-88995305D01*
X101972505Y-88897465D01*
X101989167Y-88868604D01*
X102008862Y-88842937D01*
X102270137Y-88581662D01*
X102295804Y-88561967D01*
X102324665Y-88545305D01*
X102382645Y-88487325D01*
X124141500Y-88487325D01*
X124141500Y-88632275D01*
X124177130Y-88765247D01*
X124179017Y-88772288D01*
X124251488Y-88897811D01*
X124251490Y-88897813D01*
X124251491Y-88897815D01*
X124353985Y-89000309D01*
X124353986Y-89000310D01*
X124353988Y-89000311D01*
X124479511Y-89072782D01*
X124479512Y-89072782D01*
X124479515Y-89072784D01*
X124619525Y-89110300D01*
X124619528Y-89110300D01*
X124764472Y-89110300D01*
X124764475Y-89110300D01*
X124904485Y-89072784D01*
X125030015Y-89000309D01*
X125104319Y-88926005D01*
X125165642Y-88892520D01*
X125235334Y-88897504D01*
X125279681Y-88926005D01*
X125353985Y-89000309D01*
X125353986Y-89000310D01*
X125353988Y-89000311D01*
X125479511Y-89072782D01*
X125479512Y-89072782D01*
X125479515Y-89072784D01*
X125619525Y-89110300D01*
X125619528Y-89110300D01*
X125764472Y-89110300D01*
X125764475Y-89110300D01*
X125904485Y-89072784D01*
X126030015Y-89000309D01*
X126104319Y-88926005D01*
X126165642Y-88892520D01*
X126235334Y-88897504D01*
X126279681Y-88926005D01*
X126353985Y-89000309D01*
X126353986Y-89000310D01*
X126353988Y-89000311D01*
X126479511Y-89072782D01*
X126479512Y-89072782D01*
X126479515Y-89072784D01*
X126619525Y-89110300D01*
X126619528Y-89110300D01*
X126764472Y-89110300D01*
X126764475Y-89110300D01*
X126904485Y-89072784D01*
X127030015Y-89000309D01*
X127104319Y-88926005D01*
X127165642Y-88892520D01*
X127235334Y-88897504D01*
X127279681Y-88926005D01*
X127353985Y-89000309D01*
X127353986Y-89000310D01*
X127353988Y-89000311D01*
X127479511Y-89072782D01*
X127479512Y-89072782D01*
X127479515Y-89072784D01*
X127619525Y-89110300D01*
X127619528Y-89110300D01*
X127764472Y-89110300D01*
X127764475Y-89110300D01*
X127904485Y-89072784D01*
X128030015Y-89000309D01*
X128104319Y-88926005D01*
X128165642Y-88892520D01*
X128235334Y-88897504D01*
X128279681Y-88926005D01*
X128353985Y-89000309D01*
X128353986Y-89000310D01*
X128353988Y-89000311D01*
X128479511Y-89072782D01*
X128479512Y-89072782D01*
X128479515Y-89072784D01*
X128619525Y-89110300D01*
X128619528Y-89110300D01*
X128764472Y-89110300D01*
X128764475Y-89110300D01*
X128904485Y-89072784D01*
X129030015Y-89000309D01*
X129104319Y-88926005D01*
X129165642Y-88892520D01*
X129235334Y-88897504D01*
X129279681Y-88926005D01*
X129353985Y-89000309D01*
X129353986Y-89000310D01*
X129353988Y-89000311D01*
X129479511Y-89072782D01*
X129479512Y-89072782D01*
X129479515Y-89072784D01*
X129619525Y-89110300D01*
X129619528Y-89110300D01*
X129764472Y-89110300D01*
X129764475Y-89110300D01*
X129904485Y-89072784D01*
X130030015Y-89000309D01*
X130132509Y-88897815D01*
X130201895Y-88777636D01*
X130209048Y-88765247D01*
X130211791Y-88766831D01*
X130246254Y-88724044D01*
X130312543Y-88701962D01*
X130380247Y-88719224D01*
X130423758Y-88765936D01*
X130424952Y-88765247D01*
X130501488Y-88897811D01*
X130501490Y-88897813D01*
X130501491Y-88897815D01*
X130603985Y-89000309D01*
X130603986Y-89000310D01*
X130603988Y-89000311D01*
X130729511Y-89072782D01*
X130729512Y-89072782D01*
X130729515Y-89072784D01*
X130869525Y-89110300D01*
X130869528Y-89110300D01*
X131014472Y-89110300D01*
X131014475Y-89110300D01*
X131154485Y-89072784D01*
X131280015Y-89000309D01*
X131354319Y-88926005D01*
X131415642Y-88892520D01*
X131485334Y-88897504D01*
X131529681Y-88926005D01*
X131603985Y-89000309D01*
X131603986Y-89000310D01*
X131603988Y-89000311D01*
X131729511Y-89072782D01*
X131729512Y-89072782D01*
X131729515Y-89072784D01*
X131869525Y-89110300D01*
X131869528Y-89110300D01*
X132014472Y-89110300D01*
X132014475Y-89110300D01*
X132154485Y-89072784D01*
X132280015Y-89000309D01*
X132354319Y-88926005D01*
X132415642Y-88892520D01*
X132485334Y-88897504D01*
X132529681Y-88926005D01*
X132603985Y-89000309D01*
X132603986Y-89000310D01*
X132603988Y-89000311D01*
X132729511Y-89072782D01*
X132729512Y-89072782D01*
X132729515Y-89072784D01*
X132869525Y-89110300D01*
X132869528Y-89110300D01*
X133014472Y-89110300D01*
X133014475Y-89110300D01*
X133154485Y-89072784D01*
X133280015Y-89000309D01*
X133354319Y-88926005D01*
X133415642Y-88892520D01*
X133485334Y-88897504D01*
X133529681Y-88926005D01*
X133603985Y-89000309D01*
X133603986Y-89000310D01*
X133603988Y-89000311D01*
X133729511Y-89072782D01*
X133729512Y-89072782D01*
X133729515Y-89072784D01*
X133869525Y-89110300D01*
X133869528Y-89110300D01*
X134014472Y-89110300D01*
X134014475Y-89110300D01*
X134154485Y-89072784D01*
X134280015Y-89000309D01*
X134354319Y-88926005D01*
X134415642Y-88892520D01*
X134485334Y-88897504D01*
X134529681Y-88926005D01*
X134603985Y-89000309D01*
X134603986Y-89000310D01*
X134603988Y-89000311D01*
X134729511Y-89072782D01*
X134729512Y-89072782D01*
X134729515Y-89072784D01*
X134869525Y-89110300D01*
X134869528Y-89110300D01*
X135014472Y-89110300D01*
X135014475Y-89110300D01*
X135154485Y-89072784D01*
X135280015Y-89000309D01*
X135354319Y-88926005D01*
X135415642Y-88892520D01*
X135485334Y-88897504D01*
X135529681Y-88926005D01*
X135603985Y-89000309D01*
X135603986Y-89000310D01*
X135603988Y-89000311D01*
X135729511Y-89072782D01*
X135729512Y-89072782D01*
X135729515Y-89072784D01*
X135869525Y-89110300D01*
X135869528Y-89110300D01*
X136014472Y-89110300D01*
X136014475Y-89110300D01*
X136154485Y-89072784D01*
X136280015Y-89000309D01*
X136382509Y-88897815D01*
X136454984Y-88772285D01*
X136492500Y-88632275D01*
X136492500Y-88487325D01*
X136454984Y-88347315D01*
X136443622Y-88327636D01*
X136382511Y-88221788D01*
X136382506Y-88221782D01*
X136280017Y-88119293D01*
X136280011Y-88119288D01*
X136154488Y-88046817D01*
X136154489Y-88046817D01*
X136143006Y-88043740D01*
X136014475Y-88009300D01*
X135869525Y-88009300D01*
X135740993Y-88043740D01*
X135729511Y-88046817D01*
X135603988Y-88119288D01*
X135603982Y-88119293D01*
X135529681Y-88193595D01*
X135468358Y-88227080D01*
X135398666Y-88222096D01*
X135354319Y-88193595D01*
X135280017Y-88119293D01*
X135280011Y-88119288D01*
X135154488Y-88046817D01*
X135154489Y-88046817D01*
X135143006Y-88043740D01*
X135014475Y-88009300D01*
X134869525Y-88009300D01*
X134740993Y-88043740D01*
X134729511Y-88046817D01*
X134603988Y-88119288D01*
X134603982Y-88119293D01*
X134529681Y-88193595D01*
X134468358Y-88227080D01*
X134398666Y-88222096D01*
X134354319Y-88193595D01*
X134280017Y-88119293D01*
X134280011Y-88119288D01*
X134154488Y-88046817D01*
X134154489Y-88046817D01*
X134143006Y-88043740D01*
X134014475Y-88009300D01*
X133869525Y-88009300D01*
X133740993Y-88043740D01*
X133729511Y-88046817D01*
X133603988Y-88119288D01*
X133603982Y-88119293D01*
X133529681Y-88193595D01*
X133468358Y-88227080D01*
X133398666Y-88222096D01*
X133354319Y-88193595D01*
X133280017Y-88119293D01*
X133280011Y-88119288D01*
X133154488Y-88046817D01*
X133154489Y-88046817D01*
X133143006Y-88043740D01*
X133014475Y-88009300D01*
X132869525Y-88009300D01*
X132740993Y-88043740D01*
X132729511Y-88046817D01*
X132603988Y-88119288D01*
X132603982Y-88119293D01*
X132529681Y-88193595D01*
X132468358Y-88227080D01*
X132398666Y-88222096D01*
X132354319Y-88193595D01*
X132280017Y-88119293D01*
X132280011Y-88119288D01*
X132154488Y-88046817D01*
X132154489Y-88046817D01*
X132143006Y-88043740D01*
X132014475Y-88009300D01*
X131869525Y-88009300D01*
X131740993Y-88043740D01*
X131729511Y-88046817D01*
X131603988Y-88119288D01*
X131603982Y-88119293D01*
X131529681Y-88193595D01*
X131468358Y-88227080D01*
X131398666Y-88222096D01*
X131354319Y-88193595D01*
X131280017Y-88119293D01*
X131280011Y-88119288D01*
X131154488Y-88046817D01*
X131154489Y-88046817D01*
X131143006Y-88043740D01*
X131014475Y-88009300D01*
X130869525Y-88009300D01*
X130740993Y-88043740D01*
X130729511Y-88046817D01*
X130603988Y-88119288D01*
X130603982Y-88119293D01*
X130501493Y-88221782D01*
X130501488Y-88221788D01*
X130424952Y-88354353D01*
X130422212Y-88352771D01*
X130387719Y-88395574D01*
X130321425Y-88417638D01*
X130253726Y-88400358D01*
X130210248Y-88353659D01*
X130209048Y-88354353D01*
X130132511Y-88221788D01*
X130132506Y-88221782D01*
X130030017Y-88119293D01*
X130030011Y-88119288D01*
X129904488Y-88046817D01*
X129904489Y-88046817D01*
X129893006Y-88043740D01*
X129764475Y-88009300D01*
X129619525Y-88009300D01*
X129490993Y-88043740D01*
X129479511Y-88046817D01*
X129353988Y-88119288D01*
X129353982Y-88119293D01*
X129279681Y-88193595D01*
X129218358Y-88227080D01*
X129148666Y-88222096D01*
X129104319Y-88193595D01*
X129030017Y-88119293D01*
X129030011Y-88119288D01*
X128904488Y-88046817D01*
X128904489Y-88046817D01*
X128893006Y-88043740D01*
X128764475Y-88009300D01*
X128619525Y-88009300D01*
X128490993Y-88043740D01*
X128479511Y-88046817D01*
X128353988Y-88119288D01*
X128353982Y-88119293D01*
X128279681Y-88193595D01*
X128218358Y-88227080D01*
X128148666Y-88222096D01*
X128104319Y-88193595D01*
X128030017Y-88119293D01*
X128030011Y-88119288D01*
X127904488Y-88046817D01*
X127904489Y-88046817D01*
X127893006Y-88043740D01*
X127764475Y-88009300D01*
X127619525Y-88009300D01*
X127490993Y-88043740D01*
X127479511Y-88046817D01*
X127353988Y-88119288D01*
X127353982Y-88119293D01*
X127279681Y-88193595D01*
X127218358Y-88227080D01*
X127148666Y-88222096D01*
X127104319Y-88193595D01*
X127030017Y-88119293D01*
X127030011Y-88119288D01*
X126904488Y-88046817D01*
X126904489Y-88046817D01*
X126893006Y-88043740D01*
X126764475Y-88009300D01*
X126619525Y-88009300D01*
X126490993Y-88043740D01*
X126479511Y-88046817D01*
X126353988Y-88119288D01*
X126353982Y-88119293D01*
X126279681Y-88193595D01*
X126218358Y-88227080D01*
X126148666Y-88222096D01*
X126104319Y-88193595D01*
X126030017Y-88119293D01*
X126030011Y-88119288D01*
X125904488Y-88046817D01*
X125904489Y-88046817D01*
X125893006Y-88043740D01*
X125764475Y-88009300D01*
X125619525Y-88009300D01*
X125490993Y-88043740D01*
X125479511Y-88046817D01*
X125353988Y-88119288D01*
X125353982Y-88119293D01*
X125279681Y-88193595D01*
X125218358Y-88227080D01*
X125148666Y-88222096D01*
X125104319Y-88193595D01*
X125030017Y-88119293D01*
X125030011Y-88119288D01*
X124904488Y-88046817D01*
X124904489Y-88046817D01*
X124893006Y-88043740D01*
X124764475Y-88009300D01*
X124619525Y-88009300D01*
X124490993Y-88043740D01*
X124479511Y-88046817D01*
X124353988Y-88119288D01*
X124353982Y-88119293D01*
X124251493Y-88221782D01*
X124251488Y-88221788D01*
X124179017Y-88347311D01*
X124179016Y-88347315D01*
X124141500Y-88487325D01*
X102382645Y-88487325D01*
X102422505Y-88447465D01*
X102439164Y-88418609D01*
X102453173Y-88400353D01*
X102454250Y-88397995D01*
X102458416Y-88393519D01*
X102458865Y-88392934D01*
X102627000Y-88224800D01*
X102627000Y-85313261D01*
X102643612Y-85251263D01*
X102694984Y-85162285D01*
X102732500Y-85022275D01*
X102732500Y-84877325D01*
X102694984Y-84737315D01*
X102666403Y-84687811D01*
X102643613Y-84648337D01*
X102627000Y-84586337D01*
X102627000Y-79074800D01*
X101852000Y-78299800D01*
X92189064Y-78299800D01*
X92122025Y-78280115D01*
X92087014Y-78246240D01*
X92065839Y-78215563D01*
X92023950Y-78154876D01*
X91998035Y-78125624D01*
X91823353Y-77928448D01*
X91823351Y-77928446D01*
X91596927Y-77727852D01*
X91596921Y-77727847D01*
X91420266Y-77605912D01*
X91347968Y-77556008D01*
X91313546Y-77537942D01*
X91229184Y-77493665D01*
X106002000Y-77493665D01*
X106008303Y-77605899D01*
X106008304Y-77605912D01*
X106058455Y-77870970D01*
X106058460Y-77870987D01*
X106147560Y-78125620D01*
X106147562Y-78125624D01*
X106273621Y-78364139D01*
X106273624Y-78364145D01*
X106433824Y-78581208D01*
X106624591Y-78771975D01*
X106841654Y-78932175D01*
X106841660Y-78932178D01*
X107080175Y-79058237D01*
X107080179Y-79058239D01*
X107334812Y-79147339D01*
X107334831Y-79147345D01*
X107551998Y-79188433D01*
X107552000Y-79188433D01*
X110052000Y-79188433D01*
X110052001Y-79188433D01*
X110269168Y-79147345D01*
X110269187Y-79147339D01*
X110523820Y-79058239D01*
X110523824Y-79058237D01*
X110762339Y-78932178D01*
X110762345Y-78932175D01*
X110979408Y-78771975D01*
X111170175Y-78581208D01*
X111330375Y-78364145D01*
X111330378Y-78364139D01*
X111456437Y-78125624D01*
X111456439Y-78125620D01*
X111545539Y-77870987D01*
X111545544Y-77870970D01*
X111595695Y-77605912D01*
X111595696Y-77605899D01*
X111601999Y-77493665D01*
X111602000Y-77493651D01*
X111602000Y-75453800D01*
X110052000Y-75453800D01*
X110052000Y-79188433D01*
X107552000Y-79188433D01*
X107552000Y-75453800D01*
X106002000Y-75453800D01*
X106002000Y-77493665D01*
X91229184Y-77493665D01*
X91080120Y-77415430D01*
X91080115Y-77415428D01*
X91080113Y-77415427D01*
X90943915Y-77363774D01*
X90797272Y-77308159D01*
X90727032Y-77290846D01*
X90503552Y-77235763D01*
X90323373Y-77213885D01*
X90203256Y-77199300D01*
X90203254Y-77199300D01*
X90117893Y-77199300D01*
X88102862Y-77199300D01*
X88035823Y-77179615D01*
X88015181Y-77162981D01*
X82813319Y-71961119D01*
X82779834Y-71899796D01*
X82777000Y-71873438D01*
X82777000Y-67377325D01*
X89751500Y-67377325D01*
X89751500Y-67522275D01*
X89786036Y-67651162D01*
X89789017Y-67662288D01*
X89861488Y-67787811D01*
X89861493Y-67787817D01*
X89935795Y-67862119D01*
X89969280Y-67923442D01*
X89964296Y-67993134D01*
X89935795Y-68037481D01*
X89861493Y-68111782D01*
X89861488Y-68111788D01*
X89789017Y-68237311D01*
X89788214Y-68240308D01*
X89751500Y-68377325D01*
X89751500Y-68522275D01*
X89762087Y-68561785D01*
X89789017Y-68662288D01*
X89861488Y-68787811D01*
X89861493Y-68787817D01*
X89935795Y-68862119D01*
X89969280Y-68923442D01*
X89964296Y-68993134D01*
X89935795Y-69037481D01*
X89861493Y-69111782D01*
X89861488Y-69111788D01*
X89789017Y-69237311D01*
X89789016Y-69237315D01*
X89751500Y-69377325D01*
X89751500Y-69522275D01*
X89762087Y-69561785D01*
X89789017Y-69662288D01*
X89861488Y-69787811D01*
X89861493Y-69787817D01*
X89935795Y-69862119D01*
X89969280Y-69923442D01*
X89964296Y-69993134D01*
X89935795Y-70037481D01*
X89861493Y-70111782D01*
X89861488Y-70111788D01*
X89789017Y-70237311D01*
X89789016Y-70237315D01*
X89751500Y-70377325D01*
X89751500Y-70522275D01*
X89762087Y-70561785D01*
X89789017Y-70662288D01*
X89861488Y-70787811D01*
X89861493Y-70787817D01*
X89935795Y-70862119D01*
X89969280Y-70923442D01*
X89964296Y-70993134D01*
X89935795Y-71037481D01*
X89861493Y-71111782D01*
X89861488Y-71111788D01*
X89789017Y-71237311D01*
X89789016Y-71237315D01*
X89751500Y-71377325D01*
X89751500Y-71522275D01*
X89789016Y-71662285D01*
X89789017Y-71662288D01*
X89861488Y-71787811D01*
X89861493Y-71787817D01*
X89935795Y-71862119D01*
X89969280Y-71923442D01*
X89964296Y-71993134D01*
X89935795Y-72037481D01*
X89861493Y-72111782D01*
X89861488Y-72111788D01*
X89789017Y-72237311D01*
X89789016Y-72237315D01*
X89751500Y-72377325D01*
X89751500Y-72522275D01*
X89789016Y-72662285D01*
X89789017Y-72662288D01*
X89861488Y-72787811D01*
X89861493Y-72787817D01*
X89935795Y-72862119D01*
X89969280Y-72923442D01*
X89964296Y-72993134D01*
X89935795Y-73037481D01*
X89861493Y-73111782D01*
X89861488Y-73111788D01*
X89789017Y-73237311D01*
X89789016Y-73237315D01*
X89751500Y-73377325D01*
X89751500Y-73522275D01*
X89789016Y-73662285D01*
X89789017Y-73662288D01*
X89861488Y-73787811D01*
X89861490Y-73787813D01*
X89861491Y-73787815D01*
X89963985Y-73890309D01*
X89963986Y-73890310D01*
X89963988Y-73890311D01*
X90089511Y-73962782D01*
X90089512Y-73962782D01*
X90089515Y-73962784D01*
X90229525Y-74000300D01*
X90229528Y-74000300D01*
X90374472Y-74000300D01*
X90374475Y-74000300D01*
X90514485Y-73962784D01*
X90640015Y-73890309D01*
X90714319Y-73816005D01*
X90722264Y-73811666D01*
X90727690Y-73804419D01*
X90752449Y-73795184D01*
X90775642Y-73782520D01*
X90784671Y-73783165D01*
X90793154Y-73780002D01*
X90818974Y-73785618D01*
X90845334Y-73787504D01*
X90854387Y-73793322D01*
X90861427Y-73794854D01*
X90889681Y-73816005D01*
X90935795Y-73862119D01*
X90969280Y-73923442D01*
X90964296Y-73993134D01*
X90935795Y-74037481D01*
X90861493Y-74111782D01*
X90861488Y-74111788D01*
X90789017Y-74237311D01*
X90789016Y-74237315D01*
X90751500Y-74377325D01*
X90751500Y-74522275D01*
X90789016Y-74662285D01*
X90789017Y-74662288D01*
X90861488Y-74787811D01*
X90861490Y-74787813D01*
X90861491Y-74787815D01*
X90963985Y-74890309D01*
X90963986Y-74890310D01*
X90963988Y-74890311D01*
X91089511Y-74962782D01*
X91089512Y-74962782D01*
X91089515Y-74962784D01*
X91229525Y-75000300D01*
X91229528Y-75000300D01*
X91374472Y-75000300D01*
X91374475Y-75000300D01*
X91514485Y-74962784D01*
X91640015Y-74890309D01*
X91742509Y-74787815D01*
X91814984Y-74662285D01*
X91852500Y-74522275D01*
X91852500Y-74377325D01*
X91814984Y-74237315D01*
X91742509Y-74111785D01*
X91668205Y-74037481D01*
X91634720Y-73976158D01*
X91639704Y-73906466D01*
X91668205Y-73862119D01*
X91742509Y-73787815D01*
X91814984Y-73662285D01*
X91852500Y-73522275D01*
X91852500Y-73377325D01*
X91814984Y-73237315D01*
X91742509Y-73111785D01*
X91668205Y-73037481D01*
X91634720Y-72976158D01*
X91639704Y-72906466D01*
X91668205Y-72862119D01*
X91742509Y-72787815D01*
X91814984Y-72662285D01*
X91852500Y-72522275D01*
X91852500Y-72377325D01*
X91814984Y-72237315D01*
X91742509Y-72111785D01*
X91668205Y-72037481D01*
X91634720Y-71976158D01*
X91639704Y-71906466D01*
X91668205Y-71862119D01*
X91742509Y-71787815D01*
X91814984Y-71662285D01*
X91852500Y-71522275D01*
X91852500Y-71377325D01*
X91814984Y-71237315D01*
X91742799Y-71112288D01*
X91742511Y-71111788D01*
X91742506Y-71111782D01*
X91668205Y-71037481D01*
X91663866Y-71029535D01*
X91656619Y-71024110D01*
X91647384Y-70999350D01*
X91634720Y-70976158D01*
X91635365Y-70967128D01*
X91632202Y-70958646D01*
X91637818Y-70932825D01*
X91639170Y-70913934D01*
X106002000Y-70913934D01*
X106002000Y-72953800D01*
X107552000Y-72953800D01*
X107552000Y-71937974D01*
X108302000Y-71937974D01*
X108302000Y-76469626D01*
X108336075Y-76596793D01*
X108401901Y-76710807D01*
X108494993Y-76803899D01*
X108609007Y-76869725D01*
X108736174Y-76903800D01*
X108867826Y-76903800D01*
X108994993Y-76869725D01*
X109109007Y-76803899D01*
X109202099Y-76710807D01*
X109267925Y-76596793D01*
X109302000Y-76469626D01*
X109302000Y-72953800D01*
X110052000Y-72953800D01*
X111602000Y-72953800D01*
X111602000Y-70913948D01*
X111601999Y-70913934D01*
X111595696Y-70801700D01*
X111595695Y-70801687D01*
X111545544Y-70536629D01*
X111545539Y-70536612D01*
X111456439Y-70281979D01*
X111456437Y-70281975D01*
X111330378Y-70043460D01*
X111330375Y-70043454D01*
X111170175Y-69826391D01*
X110979408Y-69635624D01*
X110762345Y-69475424D01*
X110762339Y-69475421D01*
X110523824Y-69349362D01*
X110523820Y-69349360D01*
X110269187Y-69260260D01*
X110269170Y-69260255D01*
X110052000Y-69219164D01*
X110052000Y-72953800D01*
X109302000Y-72953800D01*
X109302000Y-71937974D01*
X109267925Y-71810807D01*
X109202099Y-71696793D01*
X109109007Y-71603701D01*
X108994993Y-71537875D01*
X108867826Y-71503800D01*
X108736174Y-71503800D01*
X108609007Y-71537875D01*
X108494993Y-71603701D01*
X108401901Y-71696793D01*
X108336075Y-71810807D01*
X108302000Y-71937974D01*
X107552000Y-71937974D01*
X107552000Y-69219164D01*
X107551999Y-69219164D01*
X107334829Y-69260255D01*
X107334812Y-69260260D01*
X107080179Y-69349360D01*
X107080175Y-69349362D01*
X106841660Y-69475421D01*
X106841654Y-69475424D01*
X106624591Y-69635624D01*
X106433824Y-69826391D01*
X106273624Y-70043454D01*
X106273621Y-70043460D01*
X106147562Y-70281975D01*
X106147560Y-70281979D01*
X106058460Y-70536612D01*
X106058455Y-70536629D01*
X106008304Y-70801687D01*
X106008303Y-70801700D01*
X106002000Y-70913934D01*
X91639170Y-70913934D01*
X91639704Y-70906466D01*
X91645522Y-70897412D01*
X91647054Y-70890373D01*
X91668205Y-70862119D01*
X91705812Y-70824512D01*
X91742509Y-70787815D01*
X91814984Y-70662285D01*
X91852500Y-70522275D01*
X91852500Y-70377325D01*
X91814984Y-70237315D01*
X91742799Y-70112288D01*
X91742511Y-70111788D01*
X91742506Y-70111782D01*
X91668205Y-70037481D01*
X91634720Y-69976158D01*
X91639704Y-69906466D01*
X91668205Y-69862119D01*
X91703933Y-69826391D01*
X91742509Y-69787815D01*
X91814984Y-69662285D01*
X91852500Y-69522275D01*
X91852500Y-69377325D01*
X91814984Y-69237315D01*
X91804504Y-69219164D01*
X91742511Y-69111788D01*
X91742506Y-69111782D01*
X91668205Y-69037481D01*
X91663866Y-69029535D01*
X91656619Y-69024110D01*
X91647384Y-68999350D01*
X91634720Y-68976158D01*
X91635365Y-68967128D01*
X91632202Y-68958646D01*
X91637818Y-68932825D01*
X91639704Y-68906466D01*
X91645522Y-68897412D01*
X91647054Y-68890373D01*
X91668205Y-68862119D01*
X91714319Y-68816005D01*
X91775642Y-68782520D01*
X91845334Y-68787504D01*
X91889681Y-68816005D01*
X91963985Y-68890309D01*
X91963986Y-68890310D01*
X91963988Y-68890311D01*
X92089511Y-68962782D01*
X92089512Y-68962782D01*
X92089515Y-68962784D01*
X92229525Y-69000300D01*
X92229528Y-69000300D01*
X92374472Y-69000300D01*
X92374475Y-69000300D01*
X92514485Y-68962784D01*
X92640015Y-68890309D01*
X92714319Y-68816005D01*
X92775642Y-68782520D01*
X92845334Y-68787504D01*
X92889681Y-68816005D01*
X92963985Y-68890309D01*
X92963986Y-68890310D01*
X92963988Y-68890311D01*
X93089511Y-68962782D01*
X93089512Y-68962782D01*
X93089515Y-68962784D01*
X93229525Y-69000300D01*
X93229528Y-69000300D01*
X93374472Y-69000300D01*
X93374475Y-69000300D01*
X93514485Y-68962784D01*
X93640015Y-68890309D01*
X93714319Y-68816005D01*
X93775642Y-68782520D01*
X93845334Y-68787504D01*
X93889681Y-68816005D01*
X93963985Y-68890309D01*
X93963986Y-68890310D01*
X93963988Y-68890311D01*
X94089511Y-68962782D01*
X94089512Y-68962782D01*
X94089515Y-68962784D01*
X94229525Y-69000300D01*
X94229528Y-69000300D01*
X94374472Y-69000300D01*
X94374475Y-69000300D01*
X94514485Y-68962784D01*
X94640015Y-68890309D01*
X94742509Y-68787815D01*
X94814984Y-68662285D01*
X94852500Y-68522275D01*
X94852500Y-68377325D01*
X94814984Y-68237315D01*
X94757537Y-68137815D01*
X94742511Y-68111788D01*
X94742506Y-68111782D01*
X94668205Y-68037481D01*
X94634720Y-67976158D01*
X94639704Y-67906466D01*
X94668205Y-67862119D01*
X94742509Y-67787815D01*
X94814984Y-67662285D01*
X94817964Y-67651163D01*
X125346500Y-67651163D01*
X125346500Y-77748440D01*
X125349397Y-77802488D01*
X125349397Y-77802489D01*
X125352229Y-77828822D01*
X125352232Y-77828849D01*
X125360885Y-77882245D01*
X125360885Y-77882247D01*
X125411166Y-78017052D01*
X125411168Y-78017057D01*
X125444653Y-78078380D01*
X125530877Y-78193561D01*
X125530881Y-78193565D01*
X125530886Y-78193571D01*
X125903870Y-78566554D01*
X126158239Y-78820923D01*
X126158255Y-78820937D01*
X126158262Y-78820944D01*
X126198480Y-78857071D01*
X126198492Y-78857081D01*
X126198500Y-78857088D01*
X126213778Y-78869400D01*
X126219143Y-78873723D01*
X126223893Y-78877148D01*
X126263026Y-78905367D01*
X126393903Y-78965138D01*
X126460942Y-78984823D01*
X126460946Y-78984824D01*
X126603362Y-79005300D01*
X126603365Y-79005300D01*
X134700640Y-79005300D01*
X134710786Y-79004755D01*
X134754678Y-79002403D01*
X134754686Y-79002402D01*
X134754688Y-79002402D01*
X134754689Y-79002402D01*
X134761682Y-79001649D01*
X134781036Y-78999569D01*
X134781046Y-78999567D01*
X134781049Y-78999567D01*
X134834448Y-78990914D01*
X134834448Y-78990913D01*
X134834453Y-78990913D01*
X134855349Y-78983118D01*
X134898683Y-78975300D01*
X136155640Y-78975300D01*
X136165786Y-78974755D01*
X136209678Y-78972403D01*
X136209686Y-78972402D01*
X136209688Y-78972402D01*
X136209689Y-78972402D01*
X136216682Y-78971649D01*
X136236036Y-78969569D01*
X136236046Y-78969567D01*
X136236049Y-78969567D01*
X136245648Y-78968011D01*
X136289448Y-78960914D01*
X136424257Y-78910632D01*
X136485580Y-78877147D01*
X136600761Y-78790923D01*
X137923123Y-77468561D01*
X137959288Y-77428300D01*
X137975922Y-77407658D01*
X138007567Y-77363774D01*
X138067338Y-77232897D01*
X138087023Y-77165858D01*
X138087024Y-77165854D01*
X138107500Y-77023438D01*
X138107500Y-65251162D01*
X138104603Y-65197122D01*
X138101769Y-65170764D01*
X138093114Y-65117352D01*
X138042832Y-64982543D01*
X138009347Y-64921220D01*
X137923123Y-64806039D01*
X137923118Y-64806034D01*
X137923113Y-64806028D01*
X136895776Y-63778692D01*
X136895770Y-63778686D01*
X136895761Y-63778677D01*
X136895737Y-63778655D01*
X136855519Y-63742528D01*
X136855507Y-63742518D01*
X136834856Y-63725876D01*
X136790974Y-63694233D01*
X136660100Y-63634463D01*
X136593055Y-63614776D01*
X136545582Y-63607950D01*
X136450638Y-63594300D01*
X130478362Y-63594300D01*
X130478360Y-63594300D01*
X130424311Y-63597197D01*
X130424310Y-63597197D01*
X130397977Y-63600029D01*
X130397950Y-63600032D01*
X130344554Y-63608685D01*
X130344552Y-63608685D01*
X130209747Y-63658966D01*
X130148422Y-63692451D01*
X130033240Y-63778676D01*
X130033228Y-63778686D01*
X129605892Y-64206023D01*
X129605855Y-64206062D01*
X129569728Y-64246280D01*
X129569718Y-64246292D01*
X129553076Y-64266943D01*
X129521433Y-64310825D01*
X129461663Y-64441699D01*
X129441976Y-64508744D01*
X129421500Y-64651163D01*
X129421500Y-66214054D01*
X129412855Y-66243494D01*
X129406332Y-66273481D01*
X129402577Y-66278496D01*
X129401815Y-66281093D01*
X129385181Y-66301735D01*
X129328935Y-66357981D01*
X129267612Y-66391466D01*
X129241254Y-66394300D01*
X126603360Y-66394300D01*
X126549311Y-66397197D01*
X126549310Y-66397197D01*
X126522977Y-66400029D01*
X126522950Y-66400032D01*
X126469554Y-66408685D01*
X126469552Y-66408685D01*
X126334747Y-66458966D01*
X126273422Y-66492451D01*
X126158240Y-66578676D01*
X126158228Y-66578686D01*
X125530892Y-67206023D01*
X125530855Y-67206062D01*
X125494728Y-67246280D01*
X125494718Y-67246292D01*
X125478076Y-67266943D01*
X125446433Y-67310825D01*
X125386663Y-67441699D01*
X125366976Y-67508744D01*
X125346500Y-67651163D01*
X94817964Y-67651163D01*
X94852500Y-67522275D01*
X94852500Y-67377325D01*
X94814984Y-67237315D01*
X94750196Y-67125100D01*
X94743630Y-67098035D01*
X94733900Y-67071946D01*
X94735507Y-67064554D01*
X94733724Y-67057201D01*
X94742832Y-67030882D01*
X94748752Y-67003673D01*
X94755257Y-66994982D01*
X94756576Y-66991174D01*
X94769898Y-66975425D01*
X94814320Y-66931004D01*
X94875643Y-66897519D01*
X94945335Y-66902505D01*
X94989681Y-66931005D01*
X95063985Y-67005309D01*
X95063986Y-67005310D01*
X95063988Y-67005311D01*
X95189511Y-67077782D01*
X95189512Y-67077782D01*
X95189515Y-67077784D01*
X95329525Y-67115300D01*
X95329528Y-67115300D01*
X95474472Y-67115300D01*
X95474475Y-67115300D01*
X95614485Y-67077784D01*
X95740015Y-67005309D01*
X95814319Y-66931005D01*
X95875642Y-66897520D01*
X95945334Y-66902504D01*
X95989681Y-66931005D01*
X96063985Y-67005309D01*
X96063986Y-67005310D01*
X96063988Y-67005311D01*
X96189511Y-67077782D01*
X96189512Y-67077782D01*
X96189515Y-67077784D01*
X96329525Y-67115300D01*
X96329528Y-67115300D01*
X96474472Y-67115300D01*
X96474475Y-67115300D01*
X96614485Y-67077784D01*
X96740015Y-67005309D01*
X96814319Y-66931005D01*
X96875642Y-66897520D01*
X96945334Y-66902504D01*
X96989681Y-66931005D01*
X97063985Y-67005309D01*
X97063986Y-67005310D01*
X97063988Y-67005311D01*
X97189511Y-67077782D01*
X97189512Y-67077782D01*
X97189515Y-67077784D01*
X97329525Y-67115300D01*
X97329528Y-67115300D01*
X97474472Y-67115300D01*
X97474475Y-67115300D01*
X97614485Y-67077784D01*
X97740015Y-67005309D01*
X97814319Y-66931005D01*
X97875642Y-66897520D01*
X97945334Y-66902504D01*
X97989681Y-66931005D01*
X98063985Y-67005309D01*
X98063986Y-67005310D01*
X98063988Y-67005311D01*
X98189511Y-67077782D01*
X98189512Y-67077782D01*
X98189515Y-67077784D01*
X98329525Y-67115300D01*
X98329528Y-67115300D01*
X98474472Y-67115300D01*
X98474475Y-67115300D01*
X98614485Y-67077784D01*
X98740015Y-67005309D01*
X98842509Y-66902815D01*
X98914984Y-66777285D01*
X98952500Y-66637275D01*
X98952500Y-66492325D01*
X98914984Y-66352315D01*
X98909683Y-66343134D01*
X98842511Y-66226788D01*
X98842506Y-66226782D01*
X98740017Y-66124293D01*
X98740011Y-66124288D01*
X98614488Y-66051817D01*
X98614489Y-66051817D01*
X98603006Y-66048740D01*
X98474475Y-66014300D01*
X98329525Y-66014300D01*
X98200993Y-66048740D01*
X98189511Y-66051817D01*
X98063988Y-66124288D01*
X98063982Y-66124293D01*
X97989681Y-66198595D01*
X97928358Y-66232080D01*
X97858666Y-66227096D01*
X97814319Y-66198595D01*
X97740017Y-66124293D01*
X97740011Y-66124288D01*
X97614488Y-66051817D01*
X97614489Y-66051817D01*
X97603006Y-66048740D01*
X97474475Y-66014300D01*
X97329525Y-66014300D01*
X97200993Y-66048740D01*
X97189511Y-66051817D01*
X97063988Y-66124288D01*
X97063982Y-66124293D01*
X96989681Y-66198595D01*
X96928358Y-66232080D01*
X96858666Y-66227096D01*
X96814319Y-66198595D01*
X96740017Y-66124293D01*
X96740011Y-66124288D01*
X96614488Y-66051817D01*
X96614489Y-66051817D01*
X96603006Y-66048740D01*
X96474475Y-66014300D01*
X96329525Y-66014300D01*
X96200993Y-66048740D01*
X96189511Y-66051817D01*
X96063988Y-66124288D01*
X96063982Y-66124293D01*
X95989681Y-66198595D01*
X95928358Y-66232080D01*
X95858666Y-66227096D01*
X95814319Y-66198595D01*
X95740017Y-66124293D01*
X95740011Y-66124288D01*
X95614488Y-66051817D01*
X95614489Y-66051817D01*
X95603006Y-66048740D01*
X95474475Y-66014300D01*
X95329525Y-66014300D01*
X95200993Y-66048740D01*
X95189511Y-66051817D01*
X95063988Y-66124288D01*
X95063982Y-66124293D01*
X94989681Y-66198595D01*
X94928358Y-66232080D01*
X94858666Y-66227096D01*
X94814319Y-66198595D01*
X94740017Y-66124293D01*
X94740011Y-66124288D01*
X94614488Y-66051817D01*
X94614489Y-66051817D01*
X94603006Y-66048740D01*
X94474475Y-66014300D01*
X94329525Y-66014300D01*
X94200993Y-66048740D01*
X94189511Y-66051817D01*
X94063988Y-66124288D01*
X94063982Y-66124293D01*
X93961493Y-66226782D01*
X93961488Y-66226788D01*
X93889017Y-66352311D01*
X93889016Y-66352315D01*
X93851500Y-66492325D01*
X93851500Y-66637275D01*
X93889016Y-66777285D01*
X93953802Y-66889498D01*
X93960368Y-66916563D01*
X93970099Y-66942651D01*
X93968491Y-66950042D01*
X93970275Y-66957396D01*
X93961166Y-66983714D01*
X93955247Y-67010924D01*
X93948740Y-67019614D01*
X93947423Y-67023423D01*
X93934096Y-67039178D01*
X93889680Y-67083594D01*
X93828357Y-67117079D01*
X93758665Y-67112095D01*
X93714318Y-67083594D01*
X93640017Y-67009293D01*
X93640011Y-67009288D01*
X93514488Y-66936817D01*
X93514489Y-66936817D01*
X93492798Y-66931005D01*
X93374475Y-66899300D01*
X93229525Y-66899300D01*
X93111202Y-66931005D01*
X93089511Y-66936817D01*
X92963988Y-67009288D01*
X92963982Y-67009293D01*
X92889681Y-67083595D01*
X92828358Y-67117080D01*
X92758666Y-67112096D01*
X92714319Y-67083595D01*
X92640017Y-67009293D01*
X92640011Y-67009288D01*
X92514488Y-66936817D01*
X92514489Y-66936817D01*
X92492798Y-66931005D01*
X92374475Y-66899300D01*
X92229525Y-66899300D01*
X92111202Y-66931005D01*
X92089511Y-66936817D01*
X91963988Y-67009288D01*
X91963982Y-67009293D01*
X91889681Y-67083595D01*
X91828358Y-67117080D01*
X91758666Y-67112096D01*
X91714319Y-67083595D01*
X91640017Y-67009293D01*
X91640011Y-67009288D01*
X91514488Y-66936817D01*
X91514489Y-66936817D01*
X91492798Y-66931005D01*
X91374475Y-66899300D01*
X91229525Y-66899300D01*
X91111202Y-66931005D01*
X91089511Y-66936817D01*
X90963988Y-67009288D01*
X90963982Y-67009293D01*
X90889681Y-67083595D01*
X90828358Y-67117080D01*
X90758666Y-67112096D01*
X90714319Y-67083595D01*
X90640017Y-67009293D01*
X90640011Y-67009288D01*
X90514488Y-66936817D01*
X90514489Y-66936817D01*
X90492798Y-66931005D01*
X90374475Y-66899300D01*
X90229525Y-66899300D01*
X90111202Y-66931005D01*
X90089511Y-66936817D01*
X89963988Y-67009288D01*
X89963982Y-67009293D01*
X89861493Y-67111782D01*
X89861488Y-67111788D01*
X89789017Y-67237311D01*
X89789016Y-67237315D01*
X89751500Y-67377325D01*
X82777000Y-67377325D01*
X82777000Y-64555578D01*
X83851500Y-64555578D01*
X83851500Y-64844021D01*
X83851501Y-64844038D01*
X83889149Y-65130006D01*
X83889150Y-65130011D01*
X83889151Y-65130017D01*
X83950585Y-65359291D01*
X83963809Y-65408644D01*
X83963814Y-65408660D01*
X84074191Y-65675136D01*
X84074199Y-65675152D01*
X84218420Y-65924948D01*
X84218431Y-65924964D01*
X84394024Y-66153802D01*
X84394030Y-66153809D01*
X84597990Y-66357769D01*
X84597997Y-66357775D01*
X84664346Y-66408686D01*
X84826844Y-66533375D01*
X84826851Y-66533379D01*
X85076647Y-66677600D01*
X85076663Y-66677608D01*
X85343139Y-66787985D01*
X85343145Y-66787986D01*
X85343155Y-66787991D01*
X85621783Y-66862649D01*
X85907772Y-66900300D01*
X85907779Y-66900300D01*
X86196221Y-66900300D01*
X86196228Y-66900300D01*
X86482217Y-66862649D01*
X86760845Y-66787991D01*
X86760857Y-66787985D01*
X86760860Y-66787985D01*
X87027336Y-66677608D01*
X87027339Y-66677606D01*
X87027345Y-66677604D01*
X87277156Y-66533375D01*
X87506004Y-66357774D01*
X87709974Y-66153804D01*
X87885575Y-65924956D01*
X88029804Y-65675145D01*
X88038020Y-65655311D01*
X88140185Y-65408660D01*
X88140185Y-65408657D01*
X88140191Y-65408645D01*
X88214849Y-65130017D01*
X88252500Y-64844028D01*
X88252500Y-64555572D01*
X88214849Y-64269583D01*
X88180750Y-64142325D01*
X96801500Y-64142325D01*
X96801500Y-64287275D01*
X96837542Y-64421785D01*
X96839017Y-64427288D01*
X96911488Y-64552811D01*
X96911493Y-64552817D01*
X96985795Y-64627119D01*
X97019280Y-64688442D01*
X97014296Y-64758134D01*
X96985795Y-64802481D01*
X96911493Y-64876782D01*
X96911488Y-64876788D01*
X96839017Y-65002311D01*
X96839016Y-65002315D01*
X96801500Y-65142325D01*
X96801500Y-65287275D01*
X96839016Y-65427285D01*
X96839017Y-65427288D01*
X96911488Y-65552811D01*
X96911490Y-65552813D01*
X96911491Y-65552815D01*
X97013985Y-65655309D01*
X97013986Y-65655310D01*
X97013988Y-65655311D01*
X97139511Y-65727782D01*
X97139512Y-65727782D01*
X97139515Y-65727784D01*
X97279525Y-65765300D01*
X97279528Y-65765300D01*
X97424472Y-65765300D01*
X97424475Y-65765300D01*
X97564485Y-65727784D01*
X97690015Y-65655309D01*
X97792509Y-65552815D01*
X97864984Y-65427285D01*
X97902500Y-65287275D01*
X97902500Y-65142325D01*
X97864984Y-65002315D01*
X97851995Y-64979818D01*
X97792511Y-64876788D01*
X97792506Y-64876782D01*
X97718205Y-64802481D01*
X97684720Y-64741158D01*
X97689704Y-64671466D01*
X97718205Y-64627119D01*
X97739636Y-64605688D01*
X97792509Y-64552815D01*
X97864984Y-64427285D01*
X97902500Y-64287275D01*
X97902500Y-64142325D01*
X97864984Y-64002315D01*
X97858425Y-63990955D01*
X97792511Y-63876788D01*
X97792506Y-63876782D01*
X97690017Y-63774293D01*
X97690011Y-63774288D01*
X97564488Y-63701817D01*
X97564489Y-63701817D01*
X97529542Y-63692453D01*
X97424475Y-63664300D01*
X97279525Y-63664300D01*
X97174458Y-63692453D01*
X97139511Y-63701817D01*
X97013988Y-63774288D01*
X97013982Y-63774293D01*
X96911493Y-63876782D01*
X96911488Y-63876788D01*
X96839017Y-64002311D01*
X96839016Y-64002315D01*
X96801500Y-64142325D01*
X88180750Y-64142325D01*
X88140191Y-63990955D01*
X88140186Y-63990944D01*
X88140185Y-63990939D01*
X88029808Y-63724463D01*
X88029800Y-63724447D01*
X87885579Y-63474651D01*
X87885575Y-63474644D01*
X87766369Y-63319291D01*
X87709975Y-63245797D01*
X87709969Y-63245790D01*
X87506009Y-63041830D01*
X87506002Y-63041824D01*
X87277164Y-62866231D01*
X87277162Y-62866229D01*
X87277156Y-62866225D01*
X87277151Y-62866222D01*
X87277148Y-62866220D01*
X87027352Y-62721999D01*
X87027336Y-62721991D01*
X86760860Y-62611614D01*
X86760848Y-62611610D01*
X86760845Y-62611609D01*
X86482217Y-62536951D01*
X86482211Y-62536950D01*
X86482206Y-62536949D01*
X86196238Y-62499301D01*
X86196233Y-62499300D01*
X86196228Y-62499300D01*
X85907772Y-62499300D01*
X85907766Y-62499300D01*
X85907761Y-62499301D01*
X85621793Y-62536949D01*
X85621786Y-62536950D01*
X85621783Y-62536951D01*
X85455020Y-62581635D01*
X85343155Y-62611609D01*
X85343139Y-62611614D01*
X85076663Y-62721991D01*
X85076647Y-62721999D01*
X84826851Y-62866220D01*
X84826835Y-62866231D01*
X84597997Y-63041824D01*
X84597990Y-63041830D01*
X84394030Y-63245790D01*
X84394024Y-63245797D01*
X84218431Y-63474635D01*
X84218420Y-63474651D01*
X84074199Y-63724447D01*
X84074191Y-63724463D01*
X83963814Y-63990939D01*
X83963810Y-63990952D01*
X83963809Y-63990955D01*
X83889859Y-64266943D01*
X83889152Y-64269580D01*
X83889149Y-64269593D01*
X83851501Y-64555561D01*
X83851500Y-64555578D01*
X82777000Y-64555578D01*
X82777000Y-62326162D01*
X82796685Y-62259123D01*
X82813319Y-62238481D01*
X83140681Y-61911119D01*
X83202004Y-61877634D01*
X83228362Y-61874800D01*
X97941414Y-61874800D01*
X98008453Y-61894485D01*
X98054208Y-61947289D01*
X98064152Y-62016447D01*
X98048802Y-62060799D01*
X97982312Y-62175963D01*
X97982312Y-62175964D01*
X97946500Y-62309617D01*
X97946500Y-62447983D01*
X97960251Y-62499300D01*
X97982312Y-62581635D01*
X97982313Y-62581638D01*
X98051492Y-62701461D01*
X98051494Y-62701464D01*
X98051495Y-62701465D01*
X98149335Y-62799305D01*
X98269164Y-62868488D01*
X98402817Y-62904300D01*
X98402819Y-62904300D01*
X98541181Y-62904300D01*
X98541183Y-62904300D01*
X98674836Y-62868488D01*
X98794665Y-62799305D01*
X98892505Y-62701465D01*
X98900668Y-62687325D01*
X138891500Y-62687325D01*
X138891500Y-62832275D01*
X138929016Y-62972285D01*
X138929017Y-62972288D01*
X139001488Y-63097811D01*
X139001493Y-63097817D01*
X139075795Y-63172119D01*
X139109280Y-63233442D01*
X139104296Y-63303134D01*
X139075795Y-63347481D01*
X139001493Y-63421782D01*
X139001488Y-63421788D01*
X138929017Y-63547311D01*
X138929016Y-63547315D01*
X138891500Y-63687325D01*
X138891500Y-63832275D01*
X138915217Y-63920787D01*
X138929017Y-63972288D01*
X139001488Y-64097811D01*
X139001493Y-64097817D01*
X139075795Y-64172119D01*
X139109280Y-64233442D01*
X139104296Y-64303134D01*
X139075795Y-64347481D01*
X139001493Y-64421782D01*
X139001488Y-64421788D01*
X138929017Y-64547311D01*
X138926802Y-64555578D01*
X138891500Y-64687325D01*
X138891500Y-64832275D01*
X138915333Y-64921220D01*
X138929017Y-64972288D01*
X139001488Y-65097811D01*
X139001493Y-65097817D01*
X139095795Y-65192119D01*
X139129280Y-65253442D01*
X139124296Y-65323134D01*
X139095795Y-65367481D01*
X139001493Y-65461782D01*
X139001488Y-65461788D01*
X138929017Y-65587311D01*
X138929016Y-65587315D01*
X138891500Y-65727325D01*
X138891500Y-65872275D01*
X138929016Y-66012285D01*
X138929017Y-66012288D01*
X139001488Y-66137811D01*
X139001493Y-66137817D01*
X139075795Y-66212119D01*
X139109280Y-66273442D01*
X139104296Y-66343134D01*
X139075795Y-66387481D01*
X139001493Y-66461782D01*
X139001488Y-66461788D01*
X138929017Y-66587311D01*
X138929016Y-66587315D01*
X138891500Y-66727325D01*
X138891500Y-66872275D01*
X138929016Y-67012285D01*
X138929017Y-67012288D01*
X139001488Y-67137811D01*
X139001493Y-67137817D01*
X139075795Y-67212119D01*
X139109280Y-67273442D01*
X139104296Y-67343134D01*
X139075795Y-67387481D01*
X139001493Y-67461782D01*
X139001488Y-67461788D01*
X138929017Y-67587311D01*
X138929016Y-67587315D01*
X138891500Y-67727325D01*
X138891500Y-67872275D01*
X138928214Y-68009291D01*
X138929017Y-68012288D01*
X139001488Y-68137811D01*
X139001490Y-68137813D01*
X139001491Y-68137815D01*
X139103985Y-68240309D01*
X139112627Y-68245298D01*
X139160843Y-68295863D01*
X139174068Y-68364470D01*
X139148102Y-68429335D01*
X139119959Y-68453724D01*
X139120434Y-68454343D01*
X139113982Y-68459293D01*
X139011493Y-68561782D01*
X139011488Y-68561788D01*
X138939017Y-68687311D01*
X138939016Y-68687315D01*
X138901500Y-68827325D01*
X138901500Y-68972275D01*
X138938881Y-69111782D01*
X138939017Y-69112288D01*
X139011488Y-69237811D01*
X139011493Y-69237817D01*
X139085795Y-69312119D01*
X139119280Y-69373442D01*
X139114296Y-69443134D01*
X139085795Y-69487481D01*
X139011493Y-69561782D01*
X139011488Y-69561788D01*
X138939017Y-69687311D01*
X138939016Y-69687315D01*
X138901500Y-69827325D01*
X138901500Y-69972275D01*
X138938881Y-70111782D01*
X138939017Y-70112288D01*
X139011488Y-70237811D01*
X139011493Y-70237817D01*
X139085795Y-70312119D01*
X139119280Y-70373442D01*
X139114296Y-70443134D01*
X139085795Y-70487481D01*
X139011493Y-70561782D01*
X139011488Y-70561788D01*
X138939017Y-70687311D01*
X138939016Y-70687315D01*
X138901500Y-70827325D01*
X138901500Y-70972275D01*
X138938881Y-71111782D01*
X138939017Y-71112288D01*
X139011488Y-71237811D01*
X139011490Y-71237813D01*
X139011491Y-71237815D01*
X139113985Y-71340309D01*
X139113986Y-71340310D01*
X139113988Y-71340311D01*
X139239511Y-71412782D01*
X139239512Y-71412782D01*
X139239515Y-71412784D01*
X139379525Y-71450300D01*
X139379528Y-71450300D01*
X139524472Y-71450300D01*
X139524475Y-71450300D01*
X139664485Y-71412784D01*
X139790015Y-71340309D01*
X139864319Y-71266005D01*
X139925642Y-71232520D01*
X139995334Y-71237504D01*
X140039681Y-71266005D01*
X140113985Y-71340309D01*
X140113986Y-71340310D01*
X140113988Y-71340311D01*
X140239511Y-71412782D01*
X140239512Y-71412782D01*
X140239515Y-71412784D01*
X140379525Y-71450300D01*
X140379528Y-71450300D01*
X140524472Y-71450300D01*
X140524475Y-71450300D01*
X140664485Y-71412784D01*
X140790015Y-71340309D01*
X140892509Y-71237815D01*
X140964984Y-71112285D01*
X141002500Y-70972275D01*
X141002500Y-70827325D01*
X140964984Y-70687315D01*
X140963516Y-70684773D01*
X140892511Y-70561788D01*
X140892506Y-70561782D01*
X140818205Y-70487481D01*
X140784720Y-70426158D01*
X140789704Y-70356466D01*
X140818205Y-70312119D01*
X140848349Y-70281975D01*
X140892509Y-70237815D01*
X140964984Y-70112285D01*
X141002500Y-69972275D01*
X141002500Y-69827325D01*
X140964984Y-69687315D01*
X140963516Y-69684773D01*
X140892511Y-69561788D01*
X140892506Y-69561782D01*
X140818205Y-69487481D01*
X140784720Y-69426158D01*
X140789704Y-69356466D01*
X140818205Y-69312119D01*
X140892509Y-69237815D01*
X140964984Y-69112285D01*
X141002500Y-68972275D01*
X141002500Y-68827325D01*
X140964984Y-68687315D01*
X140963516Y-68684773D01*
X140892511Y-68561788D01*
X140892506Y-68561782D01*
X140790017Y-68459293D01*
X140790015Y-68459291D01*
X140781369Y-68454299D01*
X140733155Y-68403734D01*
X140719931Y-68335127D01*
X140745899Y-68270262D01*
X140774041Y-68245877D01*
X140773566Y-68245257D01*
X140780007Y-68240313D01*
X140780015Y-68240309D01*
X140882509Y-68137815D01*
X140954984Y-68012285D01*
X140992500Y-67872275D01*
X140992500Y-67727325D01*
X140954984Y-67587315D01*
X140917431Y-67522272D01*
X140882511Y-67461788D01*
X140882506Y-67461782D01*
X140808205Y-67387481D01*
X140774720Y-67326158D01*
X140779704Y-67256466D01*
X140808205Y-67212119D01*
X140814301Y-67206023D01*
X140882509Y-67137815D01*
X140954984Y-67012285D01*
X140992500Y-66872275D01*
X140992500Y-66727325D01*
X140954984Y-66587315D01*
X140949996Y-66578676D01*
X140882511Y-66461788D01*
X140882506Y-66461782D01*
X140808205Y-66387481D01*
X140774720Y-66326158D01*
X140779704Y-66256466D01*
X140808205Y-66212119D01*
X140821729Y-66198595D01*
X140882509Y-66137815D01*
X140954984Y-66012285D01*
X140992500Y-65872275D01*
X140992500Y-65727325D01*
X140954984Y-65587315D01*
X140935065Y-65552815D01*
X140882511Y-65461788D01*
X140882506Y-65461782D01*
X140788205Y-65367481D01*
X140754720Y-65306158D01*
X140759704Y-65236466D01*
X140788205Y-65192119D01*
X140821495Y-65158829D01*
X140882509Y-65097815D01*
X140954984Y-64972285D01*
X140992500Y-64832275D01*
X140992500Y-64687325D01*
X140957198Y-64555578D01*
X152351500Y-64555578D01*
X152351500Y-64844021D01*
X152351501Y-64844038D01*
X152389149Y-65130006D01*
X152389150Y-65130011D01*
X152389151Y-65130017D01*
X152450585Y-65359291D01*
X152463809Y-65408644D01*
X152463814Y-65408660D01*
X152574191Y-65675136D01*
X152574199Y-65675152D01*
X152718420Y-65924948D01*
X152718431Y-65924964D01*
X152894024Y-66153802D01*
X152894030Y-66153809D01*
X153097990Y-66357769D01*
X153097997Y-66357775D01*
X153164346Y-66408686D01*
X153326844Y-66533375D01*
X153326851Y-66533379D01*
X153576647Y-66677600D01*
X153576663Y-66677608D01*
X153843139Y-66787985D01*
X153843145Y-66787986D01*
X153843155Y-66787991D01*
X154121783Y-66862649D01*
X154407772Y-66900300D01*
X154407779Y-66900300D01*
X154696221Y-66900300D01*
X154696228Y-66900300D01*
X154982217Y-66862649D01*
X155260845Y-66787991D01*
X155260857Y-66787985D01*
X155260860Y-66787985D01*
X155527336Y-66677608D01*
X155527339Y-66677606D01*
X155527345Y-66677604D01*
X155777156Y-66533375D01*
X156006004Y-66357774D01*
X156209974Y-66153804D01*
X156385575Y-65924956D01*
X156529804Y-65675145D01*
X156538020Y-65655311D01*
X156640185Y-65408660D01*
X156640185Y-65408657D01*
X156640191Y-65408645D01*
X156714849Y-65130017D01*
X156752500Y-64844028D01*
X156752500Y-64555572D01*
X156714849Y-64269583D01*
X156640191Y-63990955D01*
X156640186Y-63990945D01*
X156640185Y-63990939D01*
X156529808Y-63724463D01*
X156529800Y-63724447D01*
X156385579Y-63474651D01*
X156385575Y-63474644D01*
X156266369Y-63319291D01*
X156209975Y-63245797D01*
X156209969Y-63245790D01*
X156006009Y-63041830D01*
X156006002Y-63041824D01*
X155777164Y-62866231D01*
X155777162Y-62866229D01*
X155777156Y-62866225D01*
X155777151Y-62866222D01*
X155777148Y-62866220D01*
X155527352Y-62721999D01*
X155527336Y-62721991D01*
X155260860Y-62611614D01*
X155260848Y-62611610D01*
X155260845Y-62611609D01*
X154982217Y-62536951D01*
X154982211Y-62536950D01*
X154982206Y-62536949D01*
X154696238Y-62499301D01*
X154696233Y-62499300D01*
X154696228Y-62499300D01*
X154407772Y-62499300D01*
X154407766Y-62499300D01*
X154407761Y-62499301D01*
X154121793Y-62536949D01*
X154121786Y-62536950D01*
X154121783Y-62536951D01*
X153955020Y-62581635D01*
X153843155Y-62611609D01*
X153843139Y-62611614D01*
X153576663Y-62721991D01*
X153576647Y-62721999D01*
X153326851Y-62866220D01*
X153326835Y-62866231D01*
X153097997Y-63041824D01*
X153097990Y-63041830D01*
X152894030Y-63245790D01*
X152894024Y-63245797D01*
X152718431Y-63474635D01*
X152718420Y-63474651D01*
X152574199Y-63724447D01*
X152574191Y-63724463D01*
X152463814Y-63990939D01*
X152463810Y-63990952D01*
X152463809Y-63990955D01*
X152389859Y-64266943D01*
X152389152Y-64269580D01*
X152389149Y-64269593D01*
X152351501Y-64555561D01*
X152351500Y-64555578D01*
X140957198Y-64555578D01*
X140954984Y-64547315D01*
X140894006Y-64441699D01*
X140882511Y-64421788D01*
X140882506Y-64421782D01*
X140808205Y-64347481D01*
X140774720Y-64286158D01*
X140779704Y-64216466D01*
X140808205Y-64172119D01*
X140837999Y-64142325D01*
X140882509Y-64097815D01*
X140954984Y-63972285D01*
X140992500Y-63832275D01*
X140992500Y-63687325D01*
X140963025Y-63577325D01*
X146951500Y-63577325D01*
X146951500Y-63722275D01*
X146969029Y-63787693D01*
X146989017Y-63862288D01*
X147061488Y-63987811D01*
X147061490Y-63987813D01*
X147061491Y-63987815D01*
X147163985Y-64090309D01*
X147163986Y-64090310D01*
X147163988Y-64090311D01*
X147289511Y-64162782D01*
X147289512Y-64162782D01*
X147289515Y-64162784D01*
X147429525Y-64200300D01*
X147429528Y-64200300D01*
X147574472Y-64200300D01*
X147574475Y-64200300D01*
X147714485Y-64162784D01*
X147840015Y-64090309D01*
X147942509Y-63987815D01*
X148014984Y-63862285D01*
X148052500Y-63722275D01*
X148052500Y-63577325D01*
X148014984Y-63437315D01*
X148006019Y-63421788D01*
X147942511Y-63311788D01*
X147942506Y-63311782D01*
X147840017Y-63209293D01*
X147840011Y-63209288D01*
X147714488Y-63136817D01*
X147714489Y-63136817D01*
X147703006Y-63133740D01*
X147574475Y-63099300D01*
X147429525Y-63099300D01*
X147300993Y-63133740D01*
X147289511Y-63136817D01*
X147163988Y-63209288D01*
X147163982Y-63209293D01*
X147061493Y-63311782D01*
X147061488Y-63311788D01*
X146989017Y-63437311D01*
X146989016Y-63437315D01*
X146951500Y-63577325D01*
X140963025Y-63577325D01*
X140954984Y-63547315D01*
X140946974Y-63533442D01*
X140882511Y-63421788D01*
X140882506Y-63421782D01*
X140808205Y-63347481D01*
X140774720Y-63286158D01*
X140779704Y-63216466D01*
X140808205Y-63172119D01*
X140843508Y-63136816D01*
X140882509Y-63097815D01*
X140954984Y-62972285D01*
X140992500Y-62832275D01*
X140992500Y-62687325D01*
X140954984Y-62547315D01*
X140949000Y-62536951D01*
X140882511Y-62421788D01*
X140882506Y-62421782D01*
X140780017Y-62319293D01*
X140780011Y-62319288D01*
X140654488Y-62246817D01*
X140654489Y-62246817D01*
X140643006Y-62243740D01*
X140514475Y-62209300D01*
X140369525Y-62209300D01*
X140240993Y-62243740D01*
X140229511Y-62246817D01*
X140103988Y-62319288D01*
X140103982Y-62319293D01*
X140029681Y-62393595D01*
X139968358Y-62427080D01*
X139898666Y-62422096D01*
X139854319Y-62393595D01*
X139780017Y-62319293D01*
X139780011Y-62319288D01*
X139654488Y-62246817D01*
X139654489Y-62246817D01*
X139643006Y-62243740D01*
X139514475Y-62209300D01*
X139369525Y-62209300D01*
X139240993Y-62243740D01*
X139229511Y-62246817D01*
X139103988Y-62319288D01*
X139103982Y-62319293D01*
X139001493Y-62421782D01*
X139001488Y-62421788D01*
X138929017Y-62547311D01*
X138929016Y-62547315D01*
X138891500Y-62687325D01*
X98900668Y-62687325D01*
X98908367Y-62673990D01*
X98941157Y-62617198D01*
X98949165Y-62603324D01*
X98961688Y-62581636D01*
X98997500Y-62447983D01*
X98997500Y-62309617D01*
X98961688Y-62175964D01*
X98892505Y-62056135D01*
X98888442Y-62049097D01*
X98891449Y-62047360D01*
X98872034Y-61997067D01*
X98886106Y-61928629D01*
X98934944Y-61878663D01*
X98941149Y-61875650D01*
X98941999Y-61874800D01*
X98942000Y-61874800D01*
X99402000Y-61414800D01*
X99402000Y-60880475D01*
X99406225Y-60848382D01*
X99427500Y-60768983D01*
X99427500Y-60630617D01*
X99406225Y-60551217D01*
X99402000Y-60519124D01*
X99402000Y-59742325D01*
X121101500Y-59742325D01*
X121101500Y-59887275D01*
X121137590Y-60021964D01*
X121139017Y-60027288D01*
X121211488Y-60152811D01*
X121211490Y-60152813D01*
X121211491Y-60152815D01*
X121313985Y-60255309D01*
X121313986Y-60255310D01*
X121313988Y-60255311D01*
X121439511Y-60327782D01*
X121439512Y-60327782D01*
X121439515Y-60327784D01*
X121579525Y-60365300D01*
X121579528Y-60365300D01*
X121724472Y-60365300D01*
X121724475Y-60365300D01*
X121864485Y-60327784D01*
X121990015Y-60255309D01*
X122064319Y-60181005D01*
X122125642Y-60147520D01*
X122195334Y-60152504D01*
X122239681Y-60181005D01*
X122313985Y-60255309D01*
X122313986Y-60255310D01*
X122313988Y-60255311D01*
X122439511Y-60327782D01*
X122439512Y-60327782D01*
X122439515Y-60327784D01*
X122579525Y-60365300D01*
X122579528Y-60365300D01*
X122724472Y-60365300D01*
X122724475Y-60365300D01*
X122864485Y-60327784D01*
X122990015Y-60255309D01*
X123064319Y-60181005D01*
X123125642Y-60147520D01*
X123195334Y-60152504D01*
X123239681Y-60181005D01*
X123313985Y-60255309D01*
X123313986Y-60255310D01*
X123313988Y-60255311D01*
X123439511Y-60327782D01*
X123439512Y-60327782D01*
X123439515Y-60327784D01*
X123579525Y-60365300D01*
X123579528Y-60365300D01*
X123724472Y-60365300D01*
X123724475Y-60365300D01*
X123864485Y-60327784D01*
X123990015Y-60255309D01*
X124064319Y-60181005D01*
X124125642Y-60147520D01*
X124195334Y-60152504D01*
X124239681Y-60181005D01*
X124313985Y-60255309D01*
X124313986Y-60255310D01*
X124313988Y-60255311D01*
X124439511Y-60327782D01*
X124439512Y-60327782D01*
X124439515Y-60327784D01*
X124579525Y-60365300D01*
X124579528Y-60365300D01*
X124724472Y-60365300D01*
X124724475Y-60365300D01*
X124864485Y-60327784D01*
X124990015Y-60255309D01*
X125064319Y-60181005D01*
X125125642Y-60147520D01*
X125195334Y-60152504D01*
X125239681Y-60181005D01*
X125313985Y-60255309D01*
X125313986Y-60255310D01*
X125313988Y-60255311D01*
X125439511Y-60327782D01*
X125439512Y-60327782D01*
X125439515Y-60327784D01*
X125579525Y-60365300D01*
X125579528Y-60365300D01*
X125724472Y-60365300D01*
X125724475Y-60365300D01*
X125864485Y-60327784D01*
X125990015Y-60255309D01*
X126064319Y-60181005D01*
X126125642Y-60147520D01*
X126195334Y-60152504D01*
X126239681Y-60181005D01*
X126313985Y-60255309D01*
X126313986Y-60255310D01*
X126313988Y-60255311D01*
X126439511Y-60327782D01*
X126439512Y-60327782D01*
X126439515Y-60327784D01*
X126579525Y-60365300D01*
X126579528Y-60365300D01*
X126724472Y-60365300D01*
X126724475Y-60365300D01*
X126864485Y-60327784D01*
X126990015Y-60255309D01*
X127064319Y-60181005D01*
X127125642Y-60147520D01*
X127195334Y-60152504D01*
X127239681Y-60181005D01*
X127313985Y-60255309D01*
X127313986Y-60255310D01*
X127313988Y-60255311D01*
X127439511Y-60327782D01*
X127439512Y-60327782D01*
X127439515Y-60327784D01*
X127579525Y-60365300D01*
X127579528Y-60365300D01*
X127724472Y-60365300D01*
X127724475Y-60365300D01*
X127864485Y-60327784D01*
X127990015Y-60255309D01*
X128064319Y-60181005D01*
X128125642Y-60147520D01*
X128195334Y-60152504D01*
X128239681Y-60181005D01*
X128313985Y-60255309D01*
X128313986Y-60255310D01*
X128313988Y-60255311D01*
X128439511Y-60327782D01*
X128439512Y-60327782D01*
X128439515Y-60327784D01*
X128579525Y-60365300D01*
X128579528Y-60365300D01*
X128724472Y-60365300D01*
X128724475Y-60365300D01*
X128864485Y-60327784D01*
X128990015Y-60255309D01*
X129064319Y-60181005D01*
X129125642Y-60147520D01*
X129195334Y-60152504D01*
X129239681Y-60181005D01*
X129313985Y-60255309D01*
X129313986Y-60255310D01*
X129313988Y-60255311D01*
X129439511Y-60327782D01*
X129439512Y-60327782D01*
X129439515Y-60327784D01*
X129579525Y-60365300D01*
X129579528Y-60365300D01*
X129724472Y-60365300D01*
X129724475Y-60365300D01*
X129864485Y-60327784D01*
X129990015Y-60255309D01*
X130064319Y-60181005D01*
X130125642Y-60147520D01*
X130195334Y-60152504D01*
X130239681Y-60181005D01*
X130313985Y-60255309D01*
X130313986Y-60255310D01*
X130313988Y-60255311D01*
X130439511Y-60327782D01*
X130439512Y-60327782D01*
X130439515Y-60327784D01*
X130579525Y-60365300D01*
X130579528Y-60365300D01*
X130724472Y-60365300D01*
X130724475Y-60365300D01*
X130864485Y-60327784D01*
X130990015Y-60255309D01*
X131064319Y-60181005D01*
X131125642Y-60147520D01*
X131195334Y-60152504D01*
X131239681Y-60181005D01*
X131313985Y-60255309D01*
X131313986Y-60255310D01*
X131313988Y-60255311D01*
X131439511Y-60327782D01*
X131439512Y-60327782D01*
X131439515Y-60327784D01*
X131579525Y-60365300D01*
X131579528Y-60365300D01*
X131724472Y-60365300D01*
X131724475Y-60365300D01*
X131864485Y-60327784D01*
X131990015Y-60255309D01*
X132064319Y-60181005D01*
X132125642Y-60147520D01*
X132195334Y-60152504D01*
X132239681Y-60181005D01*
X132313985Y-60255309D01*
X132313986Y-60255310D01*
X132313988Y-60255311D01*
X132439511Y-60327782D01*
X132439512Y-60327782D01*
X132439515Y-60327784D01*
X132579525Y-60365300D01*
X132579528Y-60365300D01*
X132724472Y-60365300D01*
X132724475Y-60365300D01*
X132864485Y-60327784D01*
X132990015Y-60255309D01*
X133064319Y-60181005D01*
X133125642Y-60147520D01*
X133195334Y-60152504D01*
X133239681Y-60181005D01*
X133313985Y-60255309D01*
X133313986Y-60255310D01*
X133313988Y-60255311D01*
X133439511Y-60327782D01*
X133439512Y-60327782D01*
X133439515Y-60327784D01*
X133579525Y-60365300D01*
X133579528Y-60365300D01*
X133724472Y-60365300D01*
X133724475Y-60365300D01*
X133864485Y-60327784D01*
X133990015Y-60255309D01*
X134064319Y-60181005D01*
X134125642Y-60147520D01*
X134195334Y-60152504D01*
X134239681Y-60181005D01*
X134313985Y-60255309D01*
X134313986Y-60255310D01*
X134313988Y-60255311D01*
X134439511Y-60327782D01*
X134439512Y-60327782D01*
X134439515Y-60327784D01*
X134579525Y-60365300D01*
X134579528Y-60365300D01*
X134724472Y-60365300D01*
X134724475Y-60365300D01*
X134864485Y-60327784D01*
X134990015Y-60255309D01*
X135064319Y-60181005D01*
X135125642Y-60147520D01*
X135195334Y-60152504D01*
X135239681Y-60181005D01*
X135313985Y-60255309D01*
X135313986Y-60255310D01*
X135313988Y-60255311D01*
X135439511Y-60327782D01*
X135439512Y-60327782D01*
X135439515Y-60327784D01*
X135579525Y-60365300D01*
X135579528Y-60365300D01*
X135724472Y-60365300D01*
X135724475Y-60365300D01*
X135864485Y-60327784D01*
X135990015Y-60255309D01*
X136064319Y-60181005D01*
X136125642Y-60147520D01*
X136195334Y-60152504D01*
X136239681Y-60181005D01*
X136313985Y-60255309D01*
X136313986Y-60255310D01*
X136313988Y-60255311D01*
X136439511Y-60327782D01*
X136439512Y-60327782D01*
X136439515Y-60327784D01*
X136579525Y-60365300D01*
X136579528Y-60365300D01*
X136724472Y-60365300D01*
X136724475Y-60365300D01*
X136864485Y-60327784D01*
X136990015Y-60255309D01*
X137064319Y-60181005D01*
X137125642Y-60147520D01*
X137195334Y-60152504D01*
X137239681Y-60181005D01*
X137313985Y-60255309D01*
X137313986Y-60255310D01*
X137313988Y-60255311D01*
X137439511Y-60327782D01*
X137439512Y-60327782D01*
X137439515Y-60327784D01*
X137579525Y-60365300D01*
X137579528Y-60365300D01*
X137724472Y-60365300D01*
X137724475Y-60365300D01*
X137864485Y-60327784D01*
X137990015Y-60255309D01*
X138064319Y-60181005D01*
X138125642Y-60147520D01*
X138195334Y-60152504D01*
X138239681Y-60181005D01*
X138313985Y-60255309D01*
X138313986Y-60255310D01*
X138313988Y-60255311D01*
X138439511Y-60327782D01*
X138439512Y-60327782D01*
X138439515Y-60327784D01*
X138579525Y-60365300D01*
X138579528Y-60365300D01*
X138724472Y-60365300D01*
X138724475Y-60365300D01*
X138864485Y-60327784D01*
X138990015Y-60255309D01*
X139064319Y-60181005D01*
X139125642Y-60147520D01*
X139195334Y-60152504D01*
X139239681Y-60181005D01*
X139313985Y-60255309D01*
X139313986Y-60255310D01*
X139313988Y-60255311D01*
X139439511Y-60327782D01*
X139439512Y-60327782D01*
X139439515Y-60327784D01*
X139579525Y-60365300D01*
X139579528Y-60365300D01*
X139724472Y-60365300D01*
X139724475Y-60365300D01*
X139864485Y-60327784D01*
X139990015Y-60255309D01*
X140092509Y-60152815D01*
X140164984Y-60027285D01*
X140202500Y-59887275D01*
X140202500Y-59742325D01*
X140164984Y-59602315D01*
X140103796Y-59496335D01*
X140092511Y-59476788D01*
X140092506Y-59476782D01*
X139990017Y-59374293D01*
X139990015Y-59374291D01*
X139864485Y-59301816D01*
X139724475Y-59264300D01*
X139579525Y-59264300D01*
X139450993Y-59298740D01*
X139439511Y-59301817D01*
X139313988Y-59374288D01*
X139313982Y-59374293D01*
X139239681Y-59448595D01*
X139178358Y-59482080D01*
X139108666Y-59477096D01*
X139064319Y-59448595D01*
X138990017Y-59374293D01*
X138990011Y-59374288D01*
X138864488Y-59301817D01*
X138864489Y-59301817D01*
X138853006Y-59298740D01*
X138724475Y-59264300D01*
X138579525Y-59264300D01*
X138450993Y-59298740D01*
X138439511Y-59301817D01*
X138313988Y-59374288D01*
X138313982Y-59374293D01*
X138239681Y-59448595D01*
X138178358Y-59482080D01*
X138108666Y-59477096D01*
X138064319Y-59448595D01*
X137990017Y-59374293D01*
X137990011Y-59374288D01*
X137864488Y-59301817D01*
X137864489Y-59301817D01*
X137853006Y-59298740D01*
X137724475Y-59264300D01*
X137579525Y-59264300D01*
X137450993Y-59298740D01*
X137439511Y-59301817D01*
X137313988Y-59374288D01*
X137313982Y-59374293D01*
X137239681Y-59448595D01*
X137178358Y-59482080D01*
X137108666Y-59477096D01*
X137064319Y-59448595D01*
X136990017Y-59374293D01*
X136990011Y-59374288D01*
X136864488Y-59301817D01*
X136864489Y-59301817D01*
X136853006Y-59298740D01*
X136724475Y-59264300D01*
X136579525Y-59264300D01*
X136450993Y-59298740D01*
X136439511Y-59301817D01*
X136313988Y-59374288D01*
X136313982Y-59374293D01*
X136239681Y-59448595D01*
X136178358Y-59482080D01*
X136108666Y-59477096D01*
X136064319Y-59448595D01*
X135990017Y-59374293D01*
X135990011Y-59374288D01*
X135864488Y-59301817D01*
X135864489Y-59301817D01*
X135853006Y-59298740D01*
X135724475Y-59264300D01*
X135579525Y-59264300D01*
X135450993Y-59298740D01*
X135439511Y-59301817D01*
X135313988Y-59374288D01*
X135313982Y-59374293D01*
X135239681Y-59448595D01*
X135178358Y-59482080D01*
X135108666Y-59477096D01*
X135064319Y-59448595D01*
X134990017Y-59374293D01*
X134990011Y-59374288D01*
X134864488Y-59301817D01*
X134864489Y-59301817D01*
X134853006Y-59298740D01*
X134724475Y-59264300D01*
X134579525Y-59264300D01*
X134450993Y-59298740D01*
X134439511Y-59301817D01*
X134313988Y-59374288D01*
X134313982Y-59374293D01*
X134239681Y-59448595D01*
X134178358Y-59482080D01*
X134108666Y-59477096D01*
X134064319Y-59448595D01*
X133990017Y-59374293D01*
X133990011Y-59374288D01*
X133864488Y-59301817D01*
X133864489Y-59301817D01*
X133853006Y-59298740D01*
X133724475Y-59264300D01*
X133579525Y-59264300D01*
X133450993Y-59298740D01*
X133439511Y-59301817D01*
X133313988Y-59374288D01*
X133313982Y-59374293D01*
X133239681Y-59448595D01*
X133178358Y-59482080D01*
X133108666Y-59477096D01*
X133064319Y-59448595D01*
X132990017Y-59374293D01*
X132990011Y-59374288D01*
X132864488Y-59301817D01*
X132864489Y-59301817D01*
X132853006Y-59298740D01*
X132724475Y-59264300D01*
X132579525Y-59264300D01*
X132450993Y-59298740D01*
X132439511Y-59301817D01*
X132313988Y-59374288D01*
X132313982Y-59374293D01*
X132239681Y-59448595D01*
X132178358Y-59482080D01*
X132108666Y-59477096D01*
X132064319Y-59448595D01*
X131990017Y-59374293D01*
X131990011Y-59374288D01*
X131864488Y-59301817D01*
X131864489Y-59301817D01*
X131853006Y-59298740D01*
X131724475Y-59264300D01*
X131579525Y-59264300D01*
X131450993Y-59298740D01*
X131439511Y-59301817D01*
X131313988Y-59374288D01*
X131313982Y-59374293D01*
X131239681Y-59448595D01*
X131178358Y-59482080D01*
X131108666Y-59477096D01*
X131064319Y-59448595D01*
X130990017Y-59374293D01*
X130990011Y-59374288D01*
X130864488Y-59301817D01*
X130864489Y-59301817D01*
X130853006Y-59298740D01*
X130724475Y-59264300D01*
X130579525Y-59264300D01*
X130450993Y-59298740D01*
X130439511Y-59301817D01*
X130313988Y-59374288D01*
X130313982Y-59374293D01*
X130239681Y-59448595D01*
X130178358Y-59482080D01*
X130108666Y-59477096D01*
X130064319Y-59448595D01*
X129990017Y-59374293D01*
X129990011Y-59374288D01*
X129864488Y-59301817D01*
X129864489Y-59301817D01*
X129853006Y-59298740D01*
X129724475Y-59264300D01*
X129579525Y-59264300D01*
X129450993Y-59298740D01*
X129439511Y-59301817D01*
X129313988Y-59374288D01*
X129313982Y-59374293D01*
X129239681Y-59448595D01*
X129178358Y-59482080D01*
X129108666Y-59477096D01*
X129064319Y-59448595D01*
X128990017Y-59374293D01*
X128990011Y-59374288D01*
X128864488Y-59301817D01*
X128864489Y-59301817D01*
X128853006Y-59298740D01*
X128724475Y-59264300D01*
X128579525Y-59264300D01*
X128450993Y-59298740D01*
X128439511Y-59301817D01*
X128313988Y-59374288D01*
X128313982Y-59374293D01*
X128239681Y-59448595D01*
X128178358Y-59482080D01*
X128108666Y-59477096D01*
X128064319Y-59448595D01*
X127990017Y-59374293D01*
X127990011Y-59374288D01*
X127864488Y-59301817D01*
X127864489Y-59301817D01*
X127853006Y-59298740D01*
X127724475Y-59264300D01*
X127579525Y-59264300D01*
X127450993Y-59298740D01*
X127439511Y-59301817D01*
X127313988Y-59374288D01*
X127313982Y-59374293D01*
X127239681Y-59448595D01*
X127178358Y-59482080D01*
X127108666Y-59477096D01*
X127064319Y-59448595D01*
X126990017Y-59374293D01*
X126990011Y-59374288D01*
X126864488Y-59301817D01*
X126864489Y-59301817D01*
X126853006Y-59298740D01*
X126724475Y-59264300D01*
X126579525Y-59264300D01*
X126450993Y-59298740D01*
X126439511Y-59301817D01*
X126313988Y-59374288D01*
X126313982Y-59374293D01*
X126239681Y-59448595D01*
X126178358Y-59482080D01*
X126108666Y-59477096D01*
X126064319Y-59448595D01*
X125990017Y-59374293D01*
X125990011Y-59374288D01*
X125864488Y-59301817D01*
X125864489Y-59301817D01*
X125853006Y-59298740D01*
X125724475Y-59264300D01*
X125579525Y-59264300D01*
X125450993Y-59298740D01*
X125439511Y-59301817D01*
X125313988Y-59374288D01*
X125313982Y-59374293D01*
X125239681Y-59448595D01*
X125178358Y-59482080D01*
X125108666Y-59477096D01*
X125064319Y-59448595D01*
X124990017Y-59374293D01*
X124990011Y-59374288D01*
X124864488Y-59301817D01*
X124864489Y-59301817D01*
X124853006Y-59298740D01*
X124724475Y-59264300D01*
X124579525Y-59264300D01*
X124450993Y-59298740D01*
X124439511Y-59301817D01*
X124313988Y-59374288D01*
X124313982Y-59374293D01*
X124239681Y-59448595D01*
X124178358Y-59482080D01*
X124108666Y-59477096D01*
X124064319Y-59448595D01*
X123990017Y-59374293D01*
X123990011Y-59374288D01*
X123864488Y-59301817D01*
X123864489Y-59301817D01*
X123853006Y-59298740D01*
X123724475Y-59264300D01*
X123579525Y-59264300D01*
X123450993Y-59298740D01*
X123439511Y-59301817D01*
X123313988Y-59374288D01*
X123313982Y-59374293D01*
X123239681Y-59448595D01*
X123178358Y-59482080D01*
X123108666Y-59477096D01*
X123064319Y-59448595D01*
X122990017Y-59374293D01*
X122990011Y-59374288D01*
X122864488Y-59301817D01*
X122864489Y-59301817D01*
X122853006Y-59298740D01*
X122724475Y-59264300D01*
X122579525Y-59264300D01*
X122450993Y-59298740D01*
X122439511Y-59301817D01*
X122313988Y-59374288D01*
X122313982Y-59374293D01*
X122239681Y-59448595D01*
X122178358Y-59482080D01*
X122108666Y-59477096D01*
X122064319Y-59448595D01*
X121990017Y-59374293D01*
X121990011Y-59374288D01*
X121864488Y-59301817D01*
X121864489Y-59301817D01*
X121853006Y-59298740D01*
X121724475Y-59264300D01*
X121579525Y-59264300D01*
X121450993Y-59298740D01*
X121439511Y-59301817D01*
X121313988Y-59374288D01*
X121313982Y-59374293D01*
X121211493Y-59476782D01*
X121211488Y-59476788D01*
X121139017Y-59602311D01*
X121139016Y-59602315D01*
X121101500Y-59742325D01*
X99402000Y-59742325D01*
X99402000Y-59247325D01*
X149251500Y-59247325D01*
X149251500Y-59392275D01*
X149278309Y-59492325D01*
X149289017Y-59532288D01*
X149361488Y-59657811D01*
X149361490Y-59657813D01*
X149361491Y-59657815D01*
X149463985Y-59760309D01*
X149463986Y-59760310D01*
X149463988Y-59760311D01*
X149589511Y-59832782D01*
X149589512Y-59832782D01*
X149589515Y-59832784D01*
X149729525Y-59870300D01*
X149729528Y-59870300D01*
X149874472Y-59870300D01*
X149874475Y-59870300D01*
X150014485Y-59832784D01*
X150140015Y-59760309D01*
X150242509Y-59657815D01*
X150314984Y-59532285D01*
X150352500Y-59392275D01*
X150352500Y-59247325D01*
X150314984Y-59107315D01*
X150242509Y-58981785D01*
X150140015Y-58879291D01*
X150140013Y-58879290D01*
X150140011Y-58879288D01*
X150014488Y-58806817D01*
X150014489Y-58806817D01*
X150003006Y-58803740D01*
X149874475Y-58769300D01*
X149729525Y-58769300D01*
X149600993Y-58803740D01*
X149589511Y-58806817D01*
X149463988Y-58879288D01*
X149463982Y-58879293D01*
X149361493Y-58981782D01*
X149361488Y-58981788D01*
X149289017Y-59107311D01*
X149289016Y-59107315D01*
X149251500Y-59247325D01*
X99402000Y-59247325D01*
X99402000Y-57092325D01*
X120351500Y-57092325D01*
X120351500Y-57237275D01*
X120389016Y-57377285D01*
X120389017Y-57377288D01*
X120461488Y-57502811D01*
X120466438Y-57509261D01*
X120463610Y-57511431D01*
X120489280Y-57558442D01*
X120484296Y-57628134D01*
X120464536Y-57658879D01*
X120466438Y-57660339D01*
X120461488Y-57666788D01*
X120389017Y-57792311D01*
X120389016Y-57792315D01*
X120351500Y-57932325D01*
X120351500Y-58077275D01*
X120389016Y-58217285D01*
X120389017Y-58217288D01*
X120461488Y-58342811D01*
X120461490Y-58342813D01*
X120461491Y-58342815D01*
X120563985Y-58445309D01*
X120563986Y-58445310D01*
X120563988Y-58445311D01*
X120689511Y-58517782D01*
X120689512Y-58517782D01*
X120689515Y-58517784D01*
X120829525Y-58555300D01*
X120829528Y-58555300D01*
X120974472Y-58555300D01*
X120974475Y-58555300D01*
X121114485Y-58517784D01*
X121240015Y-58445309D01*
X121342509Y-58342815D01*
X121414984Y-58217285D01*
X121452500Y-58077275D01*
X121452500Y-57932325D01*
X121414984Y-57792315D01*
X121406306Y-57777285D01*
X121342511Y-57666788D01*
X121337562Y-57660339D01*
X121340389Y-57658168D01*
X121314720Y-57611158D01*
X121319704Y-57541466D01*
X121339463Y-57510720D01*
X121337562Y-57509261D01*
X121342504Y-57502819D01*
X121342509Y-57502815D01*
X121414984Y-57377285D01*
X121452500Y-57237275D01*
X121452500Y-57092325D01*
X121414984Y-56952315D01*
X121342509Y-56826785D01*
X121240015Y-56724291D01*
X121240013Y-56724290D01*
X121240011Y-56724288D01*
X121114488Y-56651817D01*
X121114489Y-56651817D01*
X121103006Y-56648740D01*
X120974475Y-56614300D01*
X120829525Y-56614300D01*
X120700993Y-56648740D01*
X120689511Y-56651817D01*
X120563988Y-56724288D01*
X120563982Y-56724293D01*
X120461493Y-56826782D01*
X120461488Y-56826788D01*
X120389017Y-56952311D01*
X120389016Y-56952315D01*
X120351500Y-57092325D01*
X99402000Y-57092325D01*
X99402000Y-55977325D01*
X142076500Y-55977325D01*
X142076500Y-56122275D01*
X142114016Y-56262285D01*
X142114017Y-56262288D01*
X142186488Y-56387811D01*
X142186490Y-56387813D01*
X142186491Y-56387815D01*
X142288985Y-56490309D01*
X142288986Y-56490310D01*
X142288988Y-56490311D01*
X142414511Y-56562782D01*
X142414512Y-56562782D01*
X142414515Y-56562784D01*
X142554525Y-56600300D01*
X142554528Y-56600300D01*
X142699472Y-56600300D01*
X142699475Y-56600300D01*
X142839485Y-56562784D01*
X142965002Y-56490316D01*
X143032899Y-56473844D01*
X143088996Y-56490315D01*
X143214515Y-56562784D01*
X143354525Y-56600300D01*
X143354528Y-56600300D01*
X143499472Y-56600300D01*
X143499475Y-56600300D01*
X143639485Y-56562784D01*
X143765015Y-56490309D01*
X143867509Y-56387815D01*
X143939984Y-56262285D01*
X143977500Y-56122275D01*
X143977500Y-55977325D01*
X143939984Y-55837315D01*
X143867509Y-55711785D01*
X143765015Y-55609291D01*
X143765013Y-55609290D01*
X143765011Y-55609288D01*
X143639488Y-55536817D01*
X143639489Y-55536817D01*
X143628006Y-55533740D01*
X143499475Y-55499300D01*
X143354525Y-55499300D01*
X143225993Y-55533740D01*
X143214511Y-55536817D01*
X143089000Y-55609282D01*
X143021100Y-55625755D01*
X142965000Y-55609282D01*
X142839488Y-55536817D01*
X142839489Y-55536817D01*
X142828006Y-55533740D01*
X142699475Y-55499300D01*
X142554525Y-55499300D01*
X142425993Y-55533740D01*
X142414511Y-55536817D01*
X142288988Y-55609288D01*
X142288982Y-55609293D01*
X142186493Y-55711782D01*
X142186488Y-55711788D01*
X142114017Y-55837311D01*
X142114016Y-55837315D01*
X142076500Y-55977325D01*
X99402000Y-55977325D01*
X99402000Y-54627325D01*
X145381500Y-54627325D01*
X145381500Y-54772275D01*
X145419016Y-54912285D01*
X145419017Y-54912288D01*
X145491488Y-55037811D01*
X145491490Y-55037813D01*
X145491491Y-55037815D01*
X145593985Y-55140309D01*
X145593986Y-55140310D01*
X145593988Y-55140311D01*
X145719511Y-55212782D01*
X145719512Y-55212782D01*
X145719515Y-55212784D01*
X145859525Y-55250300D01*
X145859528Y-55250300D01*
X146004472Y-55250300D01*
X146004475Y-55250300D01*
X146144485Y-55212784D01*
X146270015Y-55140309D01*
X146372509Y-55037815D01*
X146444984Y-54912285D01*
X146482500Y-54772275D01*
X146482500Y-54627325D01*
X146444984Y-54487315D01*
X146424782Y-54452325D01*
X146372511Y-54361788D01*
X146372506Y-54361782D01*
X146270017Y-54259293D01*
X146270011Y-54259288D01*
X146144488Y-54186817D01*
X146144489Y-54186817D01*
X146133006Y-54183740D01*
X146004475Y-54149300D01*
X145859525Y-54149300D01*
X145730993Y-54183740D01*
X145719511Y-54186817D01*
X145593988Y-54259288D01*
X145593982Y-54259293D01*
X145491493Y-54361782D01*
X145491488Y-54361788D01*
X145419017Y-54487311D01*
X145419016Y-54487315D01*
X145381500Y-54627325D01*
X99402000Y-54627325D01*
X99402000Y-53304912D01*
X99421685Y-53237873D01*
X99438319Y-53217231D01*
X100418931Y-52236619D01*
X100480254Y-52203134D01*
X100506612Y-52200300D01*
X154901138Y-52200300D01*
X154968177Y-52219985D01*
G37*
G04 #@! TD.AperFunction*
D15*
X148552000Y-79699800D02*
X148552000Y-107699800D01*
X108052001Y-109699800D02*
G75*
G02*
X110052000Y-111699799I-1J-2000000D01*
G01*
X84051999Y-51699800D02*
X156552000Y-51699800D01*
X84051998Y-77699800D02*
G75*
G02*
X82052000Y-75699802I2J2000000D01*
G01*
X92052000Y-107699802D02*
X92052000Y-79699799D01*
X148552000Y-107699800D02*
G75*
G02*
X146552000Y-109699800I-2000000J0D01*
G01*
X148552000Y-79699800D02*
G75*
G02*
X150552000Y-77699800I2000000J0D01*
G01*
D16*
X156252000Y-64699800D02*
G75*
G02*
X152852000Y-64699800I-1700000J0D01*
G01*
X152852000Y-64699800D02*
G75*
G02*
X156252000Y-64699800I1700000J0D01*
G01*
D15*
X130552000Y-115699800D02*
G75*
G02*
X128552000Y-117699800I-2000000J0D01*
G01*
X112051998Y-117699800D02*
X128552000Y-117699800D01*
X112051998Y-117699800D02*
G75*
G02*
X110052000Y-115699802I2J2000000D01*
G01*
X146552000Y-109699800D02*
X132552000Y-109699800D01*
X156552000Y-77699800D02*
X150552000Y-77699800D01*
X82052000Y-53699799D02*
X82052000Y-75699802D01*
X108052001Y-109699800D02*
X94051998Y-109699800D01*
X94051998Y-109699800D02*
G75*
G02*
X92052000Y-107699802I2J2000000D01*
G01*
D16*
X122002000Y-112049800D02*
G75*
G02*
X118602000Y-112049800I-1700000J0D01*
G01*
X118602000Y-112049800D02*
G75*
G02*
X122002000Y-112049800I1700000J0D01*
G01*
D15*
X158552000Y-75699800D02*
X158552000Y-53699800D01*
X82052000Y-53699799D02*
G75*
G02*
X84051999Y-51699800I2000000J-1D01*
G01*
D16*
X87752000Y-64699800D02*
G75*
G02*
X84352000Y-64699800I-1700000J0D01*
G01*
X84352000Y-64699800D02*
G75*
G02*
X87752000Y-64699800I1700000J0D01*
G01*
D15*
X110052000Y-115699802D02*
X110052000Y-111699799D01*
X158552000Y-75699800D02*
G75*
G02*
X156552000Y-77699800I-2000000J0D01*
G01*
X130552000Y-111699800D02*
G75*
G02*
X132552000Y-109699800I2000000J0D01*
G01*
X156552000Y-51699800D02*
G75*
G02*
X158552000Y-53699800I0J-2000000D01*
G01*
X130552000Y-111699800D02*
X130552000Y-115699800D01*
X90052001Y-77699800D02*
G75*
G02*
X92052000Y-79699799I-1J-2000000D01*
G01*
X90052001Y-77699800D02*
X84051998Y-77699800D01*
M02*
