M48
; DRILL file {KiCad 9.0.0} date 2026-02-04T15:57:28+0700
; FORMAT={-:-/ absolute / metric / decimal}
; #@! TF.CreationDate,2026-02-04T15:57:28+07:00
; #@! TF.GenerationSoftware,Kicad,Pcbnew,9.0.0
; #@! TF.FileFunction,Plated,1,4,PTH
FMAT,2
METRIC
; #@! TA.AperFunction,Plated,PTH,ViaDrill
T1C0.200
; #@! TA.AperFunction,Plated,PTH,ViaDrill
T2C0.300
; #@! TA.AperFunction,Plated,PTH,ComponentDrill
T3C1.000
; #@! TA.AperFunction,Plated,PTH,ComponentDrill
T4C1.020
%
G90
G05
T1
X98.472Y-62.379
X98.629Y-60.725
X99.656Y-61.038
X99.656Y-61.832
X99.656Y-62.647
X100.301Y-61.832
X100.32Y-62.647
X101.842Y-89.87
X101.879Y-88.056
X102.906Y-88.369
X102.906Y-89.163
X102.906Y-89.978
X103.551Y-89.163
X103.57Y-89.978
T2
X88.152Y-54.565
X88.152Y-55.565
X88.152Y-56.565
X88.152Y-57.565
X88.152Y-58.565
X88.152Y-59.565
X90.302Y-67.45
X90.302Y-68.45
X90.302Y-69.45
X90.302Y-70.45
X90.302Y-71.45
X90.302Y-72.45
X90.302Y-73.45
X90.517Y-56.485
X91.302Y-67.45
X91.302Y-68.45
X91.302Y-69.45
X91.302Y-70.45
X91.302Y-71.45
X91.302Y-72.45
X91.302Y-73.45
X91.302Y-74.45
X91.366Y-52.76
X92.112Y-56.585
X92.302Y-67.45
X92.302Y-68.45
X92.352Y-63.1
X92.366Y-52.76
X93.052Y-60.9
X93.302Y-67.45
X93.302Y-68.45
X93.366Y-52.76
X93.832Y-58.1
X94.057Y-82.24
X94.302Y-67.45
X94.302Y-68.45
X94.366Y-52.76
X94.402Y-66.565
X94.776Y-59.709
X94.802Y-79.45
X95.052Y-94.3
X95.052Y-95.3
X95.052Y-96.3
X95.052Y-97.3
X95.052Y-98.3
X95.052Y-99.3
X95.052Y-100.2
X95.052Y-101.2
X95.052Y-102.2
X95.052Y-103.2
X95.052Y-104.2
X95.052Y-105.2
X95.352Y-60.185
X95.366Y-52.76
X95.402Y-66.565
X95.652Y-82.44
X95.802Y-79.45
X96.052Y-93.3
X96.052Y-94.3
X96.052Y-95.3
X96.052Y-96.3
X96.052Y-97.3
X96.052Y-98.3
X96.052Y-99.3
X96.052Y-100.2
X96.052Y-101.2
X96.052Y-102.2
X96.052Y-103.2
X96.052Y-104.2
X96.052Y-105.2
X96.152Y-57.065
X96.152Y-57.815
X96.366Y-52.76
X96.402Y-66.565
X96.802Y-79.45
X96.997Y-54.78
X97.052Y-93.3
X97.052Y-94.3
X97.052Y-95.3
X97.052Y-96.3
X97.052Y-97.3
X97.052Y-98.3
X97.052Y-99.3
X97.052Y-100.2
X97.052Y-101.2
X97.052Y-102.2
X97.052Y-103.2
X97.052Y-104.2
X97.052Y-105.2
X97.252Y-84.7
X97.352Y-64.215
X97.352Y-65.215
X97.402Y-66.565
X97.552Y-90.2
X97.802Y-79.45
X97.952Y-87.5
X98.052Y-93.3
X98.188Y-86.636
X98.352Y-81.2
X98.402Y-66.565
X98.532Y-54.755
X98.702Y-87.15
X98.712Y-57.975
X98.802Y-79.45
X99.352Y-81.2
X99.802Y-79.45
X99.902Y-64.065
X100.252Y-91.5
X100.252Y-92.3
X100.372Y-81.39
X100.552Y-84.95
X100.722Y-53.105
X100.722Y-54.105
X100.902Y-64.815
X100.902Y-65.565
X101.722Y-53.105
X101.722Y-54.105
X102.182Y-84.95
X102.722Y-53.105
X102.722Y-54.105
X103.277Y-91.4
X104.052Y-73.45
X104.052Y-74.45
X104.052Y-75.45
X104.052Y-76.45
X104.052Y-77.45
X104.052Y-78.45
X104.052Y-79.45
X104.377Y-91.85
X104.377Y-92.65
X105.052Y-73.45
X105.052Y-74.45
X105.052Y-75.45
X105.052Y-76.45
X105.052Y-77.45
X105.052Y-78.45
X105.052Y-79.45
X107.552Y-79.95
X107.552Y-80.95
X108.552Y-79.95
X108.552Y-80.95
X108.802Y-100.5
X108.802Y-101.5
X108.802Y-102.5
X108.802Y-103.5
X108.802Y-104.45
X108.802Y-105.45
X108.802Y-106.45
X108.802Y-107.45
X109.552Y-79.95
X109.552Y-80.95
X109.552Y-100.5
X109.552Y-101.5
X109.552Y-102.5
X109.552Y-103.5
X109.552Y-104.45
X109.552Y-105.45
X109.552Y-106.45
X109.552Y-107.45
X113.752Y-104.0
X113.752Y-104.9
X114.752Y-104.0
X114.752Y-104.9
X115.752Y-104.0
X115.752Y-104.9
X116.752Y-104.0
X116.752Y-104.9
X117.752Y-104.0
X117.752Y-104.9
X118.752Y-104.0
X118.752Y-104.9
X119.752Y-104.0
X119.752Y-104.9
X120.462Y-96.145
X120.462Y-97.395
X120.652Y-53.315
X120.652Y-104.0
X120.652Y-104.9
X120.902Y-57.165
X120.902Y-58.005
X121.462Y-96.145
X121.462Y-97.395
X121.652Y-53.315
X121.652Y-59.815
X121.652Y-104.0
X121.652Y-104.9
X121.802Y-92.75
X122.462Y-96.145
X122.462Y-97.395
X122.652Y-53.315
X122.652Y-59.815
X122.652Y-104.0
X122.652Y-104.9
X122.802Y-92.75
X123.462Y-96.145
X123.462Y-97.395
X123.652Y-53.315
X123.652Y-59.815
X123.652Y-104.0
X123.652Y-104.9
X123.802Y-92.75
X124.462Y-96.145
X124.462Y-97.395
X124.652Y-53.315
X124.652Y-59.815
X124.652Y-104.0
X124.652Y-104.9
X124.692Y-88.56
X124.802Y-92.75
X125.462Y-96.145
X125.462Y-97.395
X125.652Y-53.315
X125.652Y-59.815
X125.652Y-104.0
X125.652Y-104.9
X125.692Y-88.56
X125.802Y-92.75
X125.852Y-81.7
X126.652Y-53.315
X126.652Y-59.815
X126.652Y-104.0
X126.652Y-104.9
X126.692Y-88.56
X126.712Y-96.145
X126.712Y-97.395
X126.802Y-67.45
X126.802Y-68.45
X126.802Y-69.45
X126.802Y-70.45
X126.802Y-71.45
X126.802Y-72.45
X126.802Y-73.45
X126.802Y-74.45
X126.802Y-75.45
X126.802Y-76.45
X126.802Y-77.45
X126.802Y-92.75
X126.852Y-81.7
X127.552Y-104.0
X127.552Y-104.9
X127.652Y-53.315
X127.652Y-59.815
X127.692Y-88.56
X127.712Y-96.145
X127.712Y-97.395
X127.802Y-67.45
X127.802Y-68.45
X127.802Y-69.45
X127.802Y-70.45
X127.802Y-71.45
X127.802Y-72.45
X127.802Y-73.45
X127.802Y-74.45
X127.802Y-75.45
X127.802Y-76.45
X127.802Y-77.45
X127.852Y-81.7
X128.052Y-92.75
X128.552Y-104.0
X128.552Y-104.9
X128.652Y-53.315
X128.652Y-59.815
X128.692Y-88.56
X128.712Y-96.145
X128.712Y-97.395
X128.852Y-81.7
X129.052Y-92.75
X129.552Y-104.0
X129.552Y-104.9
X129.652Y-53.315
X129.652Y-59.815
X129.692Y-88.56
X129.712Y-96.145
X129.712Y-97.395
X129.852Y-81.7
X130.052Y-92.75
X130.552Y-104.0
X130.552Y-104.9
X130.652Y-53.315
X130.652Y-59.815
X130.712Y-96.145
X130.712Y-97.395
X130.852Y-81.7
X130.942Y-88.56
X131.052Y-92.75
X131.552Y-104.0
X131.552Y-104.9
X131.652Y-53.315
X131.652Y-59.815
X131.712Y-96.145
X131.712Y-97.395
X131.852Y-81.7
X131.942Y-88.56
X132.052Y-92.75
X132.552Y-104.0
X132.552Y-104.9
X132.652Y-53.315
X132.652Y-59.815
X132.852Y-81.7
X132.942Y-88.56
X133.052Y-92.75
X133.552Y-104.0
X133.552Y-104.9
X133.652Y-53.315
X133.652Y-59.815
X133.852Y-81.7
X133.942Y-88.56
X134.552Y-104.0
X134.552Y-104.9
X134.652Y-53.315
X134.652Y-59.815
X134.852Y-81.7
X134.942Y-88.56
X135.552Y-104.0
X135.552Y-104.9
X135.652Y-53.315
X135.652Y-59.815
X135.852Y-81.7
X135.942Y-88.56
X136.552Y-104.0
X136.552Y-104.9
X136.652Y-53.315
X136.652Y-59.815
X136.852Y-81.7
X137.552Y-104.0
X137.552Y-104.9
X137.652Y-53.315
X137.652Y-59.815
X138.352Y-94.5
X138.352Y-95.4
X138.552Y-104.0
X138.552Y-104.9
X138.652Y-53.315
X138.652Y-59.815
X139.352Y-94.5
X139.352Y-95.4
X139.442Y-62.76
X139.442Y-63.76
X139.442Y-64.76
X139.442Y-65.8
X139.442Y-66.8
X139.442Y-67.8
X139.452Y-68.9
X139.452Y-69.9
X139.452Y-70.9
X139.552Y-104.0
X139.552Y-104.9
X139.652Y-53.315
X139.652Y-59.815
X139.802Y-79.2
X139.802Y-80.2
X139.802Y-85.9
X139.802Y-86.9
X140.352Y-94.5
X140.352Y-95.4
X140.442Y-62.76
X140.442Y-63.76
X140.442Y-64.76
X140.442Y-65.8
X140.442Y-66.8
X140.442Y-67.8
X140.452Y-68.9
X140.452Y-69.9
X140.452Y-70.9
X140.552Y-104.0
X140.552Y-104.9
X140.652Y-53.315
X140.802Y-79.2
X140.802Y-80.2
X140.802Y-85.9
X140.802Y-86.9
X140.952Y-96.8
X140.952Y-97.7
X140.952Y-98.6
X141.352Y-94.5
X141.352Y-95.4
X141.652Y-53.315
X141.802Y-79.2
X141.802Y-80.2
X141.802Y-85.9
X141.802Y-86.9
X141.952Y-96.8
X141.952Y-97.7
X141.952Y-98.6
X142.502Y-64.13
X142.652Y-53.315
X142.752Y-85.9
X142.752Y-86.9
X142.952Y-96.8
X142.952Y-97.7
X142.952Y-98.6
X143.332Y-59.435
X143.332Y-60.185
X143.552Y-89.6
X143.552Y-90.6
X143.752Y-85.9
X143.752Y-86.9
X143.952Y-96.8
X143.952Y-97.7
X143.952Y-98.6
X144.552Y-89.6
X144.552Y-90.6
X144.752Y-85.9
X144.752Y-86.9
X144.952Y-96.8
X144.952Y-97.7
X144.952Y-98.6
X145.082Y-60.15
X145.552Y-89.6
X145.552Y-90.6
X145.952Y-96.8
X145.952Y-97.7
X145.952Y-98.6
X146.652Y-69.1
X146.752Y-91.5
X146.752Y-92.5
X146.752Y-93.5
X146.952Y-96.8
X146.952Y-97.7
X146.952Y-98.6
X147.012Y-61.46
X148.002Y-67.9
X148.952Y-64.77
T4
X135.512Y-92.72
X138.512Y-92.72
X141.512Y-92.72
X144.512Y-92.72
T3
G00X108.802Y-76.404
M15
G01X108.802Y-72.004
M16
G05
G00X131.702Y-75.254
M15
G01X131.702Y-70.854
M16
G05
M30
