G04 #@! TF.GenerationSoftware,KiCad,Pcbnew,9.0.0*
G04 #@! TF.CreationDate,2026-02-25T14:45:48+07:00*
G04 #@! TF.ProjectId,Power_management_V2,506f7765-725f-46d6-916e-6167656d656e,rev?*
G04 #@! TF.SameCoordinates,Original*
G04 #@! TF.FileFunction,Legend,Top*
G04 #@! TF.FilePolarity,Positive*
%FSLAX46Y46*%
G04 Gerber Fmt 4.6, Leading zero omitted, Abs format (unit mm)*
G04 Created by KiCad (PCBNEW 9.0.0) date 2026-02-25 14:45:48*
%MOMM*%
%LPD*%
G01*
G04 APERTURE LIST*
G04 Aperture macros list*
%AMRoundRect*
0 Rectangle with rounded corners*
0 $1 Rounding radius*
0 $2 $3 $4 $5 $6 $7 $8 $9 X,Y pos of 4 corners*
0 Add a 4 corners polygon primitive as box body*
4,1,4,$2,$3,$4,$5,$6,$7,$8,$9,$2,$3,0*
0 Add four circle primitives for the rounded corners*
1,1,$1+$1,$2,$3*
1,1,$1+$1,$4,$5*
1,1,$1+$1,$6,$7*
1,1,$1+$1,$8,$9*
0 Add four rect primitives between the rounded corners*
20,1,$1+$1,$2,$3,$4,$5,0*
20,1,$1+$1,$4,$5,$6,$7,0*
20,1,$1+$1,$6,$7,$8,$9,0*
20,1,$1+$1,$8,$9,$2,$3,0*%
G04 Aperture macros list end*
%ADD10C,0.200000*%
%ADD11C,0.127000*%
%ADD12C,0.120000*%
%ADD13C,0.876200*%
%ADD14C,0.836200*%
%ADD15C,0.010000*%
%ADD16C,1.600000*%
%ADD17R,2.000000X2.000000*%
%ADD18C,2.000000*%
%ADD19RoundRect,0.225000X-0.250000X0.225000X-0.250000X-0.225000X0.250000X-0.225000X0.250000X0.225000X0*%
%ADD20RoundRect,0.200000X-0.275000X0.200000X-0.275000X-0.200000X0.275000X-0.200000X0.275000X0.200000X0*%
%ADD21RoundRect,0.250000X1.100000X-0.325000X1.100000X0.325000X-1.100000X0.325000X-1.100000X-0.325000X0*%
%ADD22RoundRect,0.225000X0.250000X-0.225000X0.250000X0.225000X-0.250000X0.225000X-0.250000X-0.225000X0*%
%ADD23RoundRect,0.225000X0.225000X0.250000X-0.225000X0.250000X-0.225000X-0.250000X0.225000X-0.250000X0*%
%ADD24RoundRect,0.250000X-1.100000X0.325000X-1.100000X-0.325000X1.100000X-0.325000X1.100000X0.325000X0*%
%ADD25RoundRect,0.200000X0.200000X0.275000X-0.200000X0.275000X-0.200000X-0.275000X0.200000X-0.275000X0*%
%ADD26RoundRect,0.250000X0.250000X0.475000X-0.250000X0.475000X-0.250000X-0.475000X0.250000X-0.475000X0*%
%ADD27RoundRect,0.200000X0.275000X-0.200000X0.275000X0.200000X-0.275000X0.200000X-0.275000X-0.200000X0*%
%ADD28RoundRect,0.200000X-0.200000X-0.275000X0.200000X-0.275000X0.200000X0.275000X-0.200000X0.275000X0*%
%ADD29RoundRect,0.102000X-1.550000X-2.500000X1.550000X-2.500000X1.550000X2.500000X-1.550000X2.500000X0*%
%ADD30RoundRect,0.700000X-0.700000X-2.650000X0.700000X-2.650000X0.700000X2.650000X-0.700000X2.650000X0*%
%ADD31R,0.730000X0.300000*%
%ADD32R,0.300000X0.725000*%
%ADD33R,0.725000X0.300000*%
%ADD34R,0.380000X0.580000*%
%ADD35RoundRect,0.700000X0.700000X2.650000X-0.700000X2.650000X-0.700000X-2.650000X0.700000X-2.650000X0*%
%ADD36RoundRect,0.150000X-0.512500X-0.150000X0.512500X-0.150000X0.512500X0.150000X-0.512500X0.150000X0*%
%ADD37RoundRect,0.250000X0.325000X1.100000X-0.325000X1.100000X-0.325000X-1.100000X0.325000X-1.100000X0*%
%ADD38RoundRect,1.000000X1.000000X3.200000X-1.000000X3.200000X-1.000000X-3.200000X1.000000X-3.200000X0*%
G04 #@! TA.AperFunction,Profile*
%ADD39C,0.200000*%
G04 #@! TD*
G04 #@! TA.AperFunction,Profile*
%ADD40C,0.150000*%
G04 #@! TD*
G04 APERTURE END LIST*
D10*
X134045482Y-97442019D02*
X133474054Y-97442019D01*
X133759768Y-97442019D02*
X133759768Y-96442019D01*
X133759768Y-96442019D02*
X133664530Y-96584876D01*
X133664530Y-96584876D02*
X133569292Y-96680114D01*
X133569292Y-96680114D02*
X133474054Y-96727733D01*
X134426435Y-96537257D02*
X134474054Y-96489638D01*
X134474054Y-96489638D02*
X134569292Y-96442019D01*
X134569292Y-96442019D02*
X134807387Y-96442019D01*
X134807387Y-96442019D02*
X134902625Y-96489638D01*
X134902625Y-96489638D02*
X134950244Y-96537257D01*
X134950244Y-96537257D02*
X134997863Y-96632495D01*
X134997863Y-96632495D02*
X134997863Y-96727733D01*
X134997863Y-96727733D02*
X134950244Y-96870590D01*
X134950244Y-96870590D02*
X134378816Y-97442019D01*
X134378816Y-97442019D02*
X134997863Y-97442019D01*
X135283578Y-96442019D02*
X135616911Y-97442019D01*
X135616911Y-97442019D02*
X135950244Y-96442019D01*
X137288339Y-96489638D02*
X137193101Y-96442019D01*
X137193101Y-96442019D02*
X137050244Y-96442019D01*
X137050244Y-96442019D02*
X136907387Y-96489638D01*
X136907387Y-96489638D02*
X136812149Y-96584876D01*
X136812149Y-96584876D02*
X136764530Y-96680114D01*
X136764530Y-96680114D02*
X136716911Y-96870590D01*
X136716911Y-96870590D02*
X136716911Y-97013447D01*
X136716911Y-97013447D02*
X136764530Y-97203923D01*
X136764530Y-97203923D02*
X136812149Y-97299161D01*
X136812149Y-97299161D02*
X136907387Y-97394400D01*
X136907387Y-97394400D02*
X137050244Y-97442019D01*
X137050244Y-97442019D02*
X137145482Y-97442019D01*
X137145482Y-97442019D02*
X137288339Y-97394400D01*
X137288339Y-97394400D02*
X137335958Y-97346780D01*
X137335958Y-97346780D02*
X137335958Y-97013447D01*
X137335958Y-97013447D02*
X137145482Y-97013447D01*
X137764530Y-97442019D02*
X137764530Y-96442019D01*
X137764530Y-96442019D02*
X138335958Y-97442019D01*
X138335958Y-97442019D02*
X138335958Y-96442019D01*
X138812149Y-97442019D02*
X138812149Y-96442019D01*
X138812149Y-96442019D02*
X139050244Y-96442019D01*
X139050244Y-96442019D02*
X139193101Y-96489638D01*
X139193101Y-96489638D02*
X139288339Y-96584876D01*
X139288339Y-96584876D02*
X139335958Y-96680114D01*
X139335958Y-96680114D02*
X139383577Y-96870590D01*
X139383577Y-96870590D02*
X139383577Y-97013447D01*
X139383577Y-97013447D02*
X139335958Y-97203923D01*
X139335958Y-97203923D02*
X139288339Y-97299161D01*
X139288339Y-97299161D02*
X139193101Y-97394400D01*
X139193101Y-97394400D02*
X139050244Y-97442019D01*
X139050244Y-97442019D02*
X138812149Y-97442019D01*
X140816911Y-96489638D02*
X140721673Y-96442019D01*
X140721673Y-96442019D02*
X140578816Y-96442019D01*
X140578816Y-96442019D02*
X140435959Y-96489638D01*
X140435959Y-96489638D02*
X140340721Y-96584876D01*
X140340721Y-96584876D02*
X140293102Y-96680114D01*
X140293102Y-96680114D02*
X140245483Y-96870590D01*
X140245483Y-96870590D02*
X140245483Y-97013447D01*
X140245483Y-97013447D02*
X140293102Y-97203923D01*
X140293102Y-97203923D02*
X140340721Y-97299161D01*
X140340721Y-97299161D02*
X140435959Y-97394400D01*
X140435959Y-97394400D02*
X140578816Y-97442019D01*
X140578816Y-97442019D02*
X140674054Y-97442019D01*
X140674054Y-97442019D02*
X140816911Y-97394400D01*
X140816911Y-97394400D02*
X140864530Y-97346780D01*
X140864530Y-97346780D02*
X140864530Y-97013447D01*
X140864530Y-97013447D02*
X140674054Y-97013447D01*
X141293102Y-97442019D02*
X141293102Y-96442019D01*
X141293102Y-96442019D02*
X141864530Y-97442019D01*
X141864530Y-97442019D02*
X141864530Y-96442019D01*
X142340721Y-97442019D02*
X142340721Y-96442019D01*
X142340721Y-96442019D02*
X142578816Y-96442019D01*
X142578816Y-96442019D02*
X142721673Y-96489638D01*
X142721673Y-96489638D02*
X142816911Y-96584876D01*
X142816911Y-96584876D02*
X142864530Y-96680114D01*
X142864530Y-96680114D02*
X142912149Y-96870590D01*
X142912149Y-96870590D02*
X142912149Y-97013447D01*
X142912149Y-97013447D02*
X142864530Y-97203923D01*
X142864530Y-97203923D02*
X142816911Y-97299161D01*
X142816911Y-97299161D02*
X142721673Y-97394400D01*
X142721673Y-97394400D02*
X142578816Y-97442019D01*
X142578816Y-97442019D02*
X142340721Y-97442019D01*
X144297863Y-96442019D02*
X143821673Y-96442019D01*
X143821673Y-96442019D02*
X143774054Y-96918209D01*
X143774054Y-96918209D02*
X143821673Y-96870590D01*
X143821673Y-96870590D02*
X143916911Y-96822971D01*
X143916911Y-96822971D02*
X144155006Y-96822971D01*
X144155006Y-96822971D02*
X144250244Y-96870590D01*
X144250244Y-96870590D02*
X144297863Y-96918209D01*
X144297863Y-96918209D02*
X144345482Y-97013447D01*
X144345482Y-97013447D02*
X144345482Y-97251542D01*
X144345482Y-97251542D02*
X144297863Y-97346780D01*
X144297863Y-97346780D02*
X144250244Y-97394400D01*
X144250244Y-97394400D02*
X144155006Y-97442019D01*
X144155006Y-97442019D02*
X143916911Y-97442019D01*
X143916911Y-97442019D02*
X143821673Y-97394400D01*
X143821673Y-97394400D02*
X143774054Y-97346780D01*
X144631197Y-96442019D02*
X144964530Y-97442019D01*
X144964530Y-97442019D02*
X145297863Y-96442019D01*
X141510333Y-86184495D02*
X141510333Y-86755923D01*
X141510333Y-86755923D02*
X141472238Y-86870209D01*
X141472238Y-86870209D02*
X141396047Y-86946400D01*
X141396047Y-86946400D02*
X141281762Y-86984495D01*
X141281762Y-86984495D02*
X141205571Y-86984495D01*
X141853190Y-86260685D02*
X141891286Y-86222590D01*
X141891286Y-86222590D02*
X141967476Y-86184495D01*
X141967476Y-86184495D02*
X142157952Y-86184495D01*
X142157952Y-86184495D02*
X142234143Y-86222590D01*
X142234143Y-86222590D02*
X142272238Y-86260685D01*
X142272238Y-86260685D02*
X142310333Y-86336876D01*
X142310333Y-86336876D02*
X142310333Y-86413066D01*
X142310333Y-86413066D02*
X142272238Y-86527352D01*
X142272238Y-86527352D02*
X141815095Y-86984495D01*
X141815095Y-86984495D02*
X142310333Y-86984495D01*
X150305504Y-58984085D02*
X150343600Y-59022181D01*
X150343600Y-59022181D02*
X150381695Y-59136466D01*
X150381695Y-59136466D02*
X150381695Y-59212657D01*
X150381695Y-59212657D02*
X150343600Y-59326943D01*
X150343600Y-59326943D02*
X150267409Y-59403133D01*
X150267409Y-59403133D02*
X150191219Y-59441228D01*
X150191219Y-59441228D02*
X150038838Y-59479324D01*
X150038838Y-59479324D02*
X149924552Y-59479324D01*
X149924552Y-59479324D02*
X149772171Y-59441228D01*
X149772171Y-59441228D02*
X149695980Y-59403133D01*
X149695980Y-59403133D02*
X149619790Y-59326943D01*
X149619790Y-59326943D02*
X149581695Y-59212657D01*
X149581695Y-59212657D02*
X149581695Y-59136466D01*
X149581695Y-59136466D02*
X149619790Y-59022181D01*
X149619790Y-59022181D02*
X149657885Y-58984085D01*
X149581695Y-58717419D02*
X149581695Y-58222181D01*
X149581695Y-58222181D02*
X149886457Y-58488847D01*
X149886457Y-58488847D02*
X149886457Y-58374562D01*
X149886457Y-58374562D02*
X149924552Y-58298371D01*
X149924552Y-58298371D02*
X149962647Y-58260276D01*
X149962647Y-58260276D02*
X150038838Y-58222181D01*
X150038838Y-58222181D02*
X150229314Y-58222181D01*
X150229314Y-58222181D02*
X150305504Y-58260276D01*
X150305504Y-58260276D02*
X150343600Y-58298371D01*
X150343600Y-58298371D02*
X150381695Y-58374562D01*
X150381695Y-58374562D02*
X150381695Y-58603133D01*
X150381695Y-58603133D02*
X150343600Y-58679324D01*
X150343600Y-58679324D02*
X150305504Y-58717419D01*
X149848361Y-57536466D02*
X150381695Y-57536466D01*
X149543600Y-57726942D02*
X150115028Y-57917419D01*
X150115028Y-57917419D02*
X150115028Y-57422180D01*
X94511695Y-86833132D02*
X94130742Y-87099799D01*
X94511695Y-87290275D02*
X93711695Y-87290275D01*
X93711695Y-87290275D02*
X93711695Y-86985513D01*
X93711695Y-86985513D02*
X93749790Y-86909323D01*
X93749790Y-86909323D02*
X93787885Y-86871228D01*
X93787885Y-86871228D02*
X93864076Y-86833132D01*
X93864076Y-86833132D02*
X93978361Y-86833132D01*
X93978361Y-86833132D02*
X94054552Y-86871228D01*
X94054552Y-86871228D02*
X94092647Y-86909323D01*
X94092647Y-86909323D02*
X94130742Y-86985513D01*
X94130742Y-86985513D02*
X94130742Y-87290275D01*
X93711695Y-86109323D02*
X93711695Y-86490275D01*
X93711695Y-86490275D02*
X94092647Y-86528371D01*
X94092647Y-86528371D02*
X94054552Y-86490275D01*
X94054552Y-86490275D02*
X94016457Y-86414085D01*
X94016457Y-86414085D02*
X94016457Y-86223609D01*
X94016457Y-86223609D02*
X94054552Y-86147418D01*
X94054552Y-86147418D02*
X94092647Y-86109323D01*
X94092647Y-86109323D02*
X94168838Y-86071228D01*
X94168838Y-86071228D02*
X94359314Y-86071228D01*
X94359314Y-86071228D02*
X94435504Y-86109323D01*
X94435504Y-86109323D02*
X94473600Y-86147418D01*
X94473600Y-86147418D02*
X94511695Y-86223609D01*
X94511695Y-86223609D02*
X94511695Y-86414085D01*
X94511695Y-86414085D02*
X94473600Y-86490275D01*
X94473600Y-86490275D02*
X94435504Y-86528371D01*
X129142714Y-53733304D02*
X129104618Y-53771400D01*
X129104618Y-53771400D02*
X128990333Y-53809495D01*
X128990333Y-53809495D02*
X128914142Y-53809495D01*
X128914142Y-53809495D02*
X128799856Y-53771400D01*
X128799856Y-53771400D02*
X128723666Y-53695209D01*
X128723666Y-53695209D02*
X128685571Y-53619019D01*
X128685571Y-53619019D02*
X128647475Y-53466638D01*
X128647475Y-53466638D02*
X128647475Y-53352352D01*
X128647475Y-53352352D02*
X128685571Y-53199971D01*
X128685571Y-53199971D02*
X128723666Y-53123780D01*
X128723666Y-53123780D02*
X128799856Y-53047590D01*
X128799856Y-53047590D02*
X128914142Y-53009495D01*
X128914142Y-53009495D02*
X128990333Y-53009495D01*
X128990333Y-53009495D02*
X129104618Y-53047590D01*
X129104618Y-53047590D02*
X129142714Y-53085685D01*
X129409380Y-53009495D02*
X129904618Y-53009495D01*
X129904618Y-53009495D02*
X129637952Y-53314257D01*
X129637952Y-53314257D02*
X129752237Y-53314257D01*
X129752237Y-53314257D02*
X129828428Y-53352352D01*
X129828428Y-53352352D02*
X129866523Y-53390447D01*
X129866523Y-53390447D02*
X129904618Y-53466638D01*
X129904618Y-53466638D02*
X129904618Y-53657114D01*
X129904618Y-53657114D02*
X129866523Y-53733304D01*
X129866523Y-53733304D02*
X129828428Y-53771400D01*
X129828428Y-53771400D02*
X129752237Y-53809495D01*
X129752237Y-53809495D02*
X129523666Y-53809495D01*
X129523666Y-53809495D02*
X129447475Y-53771400D01*
X129447475Y-53771400D02*
X129409380Y-53733304D01*
X130666523Y-53809495D02*
X130209380Y-53809495D01*
X130437952Y-53809495D02*
X130437952Y-53009495D01*
X130437952Y-53009495D02*
X130361761Y-53123780D01*
X130361761Y-53123780D02*
X130285571Y-53199971D01*
X130285571Y-53199971D02*
X130209380Y-53238066D01*
X130110504Y-64114085D02*
X130148600Y-64152181D01*
X130148600Y-64152181D02*
X130186695Y-64266466D01*
X130186695Y-64266466D02*
X130186695Y-64342657D01*
X130186695Y-64342657D02*
X130148600Y-64456943D01*
X130148600Y-64456943D02*
X130072409Y-64533133D01*
X130072409Y-64533133D02*
X129996219Y-64571228D01*
X129996219Y-64571228D02*
X129843838Y-64609324D01*
X129843838Y-64609324D02*
X129729552Y-64609324D01*
X129729552Y-64609324D02*
X129577171Y-64571228D01*
X129577171Y-64571228D02*
X129500980Y-64533133D01*
X129500980Y-64533133D02*
X129424790Y-64456943D01*
X129424790Y-64456943D02*
X129386695Y-64342657D01*
X129386695Y-64342657D02*
X129386695Y-64266466D01*
X129386695Y-64266466D02*
X129424790Y-64152181D01*
X129424790Y-64152181D02*
X129462885Y-64114085D01*
X129386695Y-63847419D02*
X129386695Y-63352181D01*
X129386695Y-63352181D02*
X129691457Y-63618847D01*
X129691457Y-63618847D02*
X129691457Y-63504562D01*
X129691457Y-63504562D02*
X129729552Y-63428371D01*
X129729552Y-63428371D02*
X129767647Y-63390276D01*
X129767647Y-63390276D02*
X129843838Y-63352181D01*
X129843838Y-63352181D02*
X130034314Y-63352181D01*
X130034314Y-63352181D02*
X130110504Y-63390276D01*
X130110504Y-63390276D02*
X130148600Y-63428371D01*
X130148600Y-63428371D02*
X130186695Y-63504562D01*
X130186695Y-63504562D02*
X130186695Y-63733133D01*
X130186695Y-63733133D02*
X130148600Y-63809324D01*
X130148600Y-63809324D02*
X130110504Y-63847419D01*
X129386695Y-63085514D02*
X129386695Y-62552180D01*
X129386695Y-62552180D02*
X130186695Y-62895038D01*
X90642714Y-63273304D02*
X90604618Y-63311400D01*
X90604618Y-63311400D02*
X90490333Y-63349495D01*
X90490333Y-63349495D02*
X90414142Y-63349495D01*
X90414142Y-63349495D02*
X90299856Y-63311400D01*
X90299856Y-63311400D02*
X90223666Y-63235209D01*
X90223666Y-63235209D02*
X90185571Y-63159019D01*
X90185571Y-63159019D02*
X90147475Y-63006638D01*
X90147475Y-63006638D02*
X90147475Y-62892352D01*
X90147475Y-62892352D02*
X90185571Y-62739971D01*
X90185571Y-62739971D02*
X90223666Y-62663780D01*
X90223666Y-62663780D02*
X90299856Y-62587590D01*
X90299856Y-62587590D02*
X90414142Y-62549495D01*
X90414142Y-62549495D02*
X90490333Y-62549495D01*
X90490333Y-62549495D02*
X90604618Y-62587590D01*
X90604618Y-62587590D02*
X90642714Y-62625685D01*
X90947475Y-62625685D02*
X90985571Y-62587590D01*
X90985571Y-62587590D02*
X91061761Y-62549495D01*
X91061761Y-62549495D02*
X91252237Y-62549495D01*
X91252237Y-62549495D02*
X91328428Y-62587590D01*
X91328428Y-62587590D02*
X91366523Y-62625685D01*
X91366523Y-62625685D02*
X91404618Y-62701876D01*
X91404618Y-62701876D02*
X91404618Y-62778066D01*
X91404618Y-62778066D02*
X91366523Y-62892352D01*
X91366523Y-62892352D02*
X90909380Y-63349495D01*
X90909380Y-63349495D02*
X91404618Y-63349495D01*
X91671285Y-62549495D02*
X92166523Y-62549495D01*
X92166523Y-62549495D02*
X91899857Y-62854257D01*
X91899857Y-62854257D02*
X92014142Y-62854257D01*
X92014142Y-62854257D02*
X92090333Y-62892352D01*
X92090333Y-62892352D02*
X92128428Y-62930447D01*
X92128428Y-62930447D02*
X92166523Y-63006638D01*
X92166523Y-63006638D02*
X92166523Y-63197114D01*
X92166523Y-63197114D02*
X92128428Y-63273304D01*
X92128428Y-63273304D02*
X92090333Y-63311400D01*
X92090333Y-63311400D02*
X92014142Y-63349495D01*
X92014142Y-63349495D02*
X91785571Y-63349495D01*
X91785571Y-63349495D02*
X91709380Y-63311400D01*
X91709380Y-63311400D02*
X91671285Y-63273304D01*
X136925504Y-81324085D02*
X136963600Y-81362181D01*
X136963600Y-81362181D02*
X137001695Y-81476466D01*
X137001695Y-81476466D02*
X137001695Y-81552657D01*
X137001695Y-81552657D02*
X136963600Y-81666943D01*
X136963600Y-81666943D02*
X136887409Y-81743133D01*
X136887409Y-81743133D02*
X136811219Y-81781228D01*
X136811219Y-81781228D02*
X136658838Y-81819324D01*
X136658838Y-81819324D02*
X136544552Y-81819324D01*
X136544552Y-81819324D02*
X136392171Y-81781228D01*
X136392171Y-81781228D02*
X136315980Y-81743133D01*
X136315980Y-81743133D02*
X136239790Y-81666943D01*
X136239790Y-81666943D02*
X136201695Y-81552657D01*
X136201695Y-81552657D02*
X136201695Y-81476466D01*
X136201695Y-81476466D02*
X136239790Y-81362181D01*
X136239790Y-81362181D02*
X136277885Y-81324085D01*
X136201695Y-81057419D02*
X136201695Y-80562181D01*
X136201695Y-80562181D02*
X136506457Y-80828847D01*
X136506457Y-80828847D02*
X136506457Y-80714562D01*
X136506457Y-80714562D02*
X136544552Y-80638371D01*
X136544552Y-80638371D02*
X136582647Y-80600276D01*
X136582647Y-80600276D02*
X136658838Y-80562181D01*
X136658838Y-80562181D02*
X136849314Y-80562181D01*
X136849314Y-80562181D02*
X136925504Y-80600276D01*
X136925504Y-80600276D02*
X136963600Y-80638371D01*
X136963600Y-80638371D02*
X137001695Y-80714562D01*
X137001695Y-80714562D02*
X137001695Y-80943133D01*
X137001695Y-80943133D02*
X136963600Y-81019324D01*
X136963600Y-81019324D02*
X136925504Y-81057419D01*
X136201695Y-79838371D02*
X136201695Y-80219323D01*
X136201695Y-80219323D02*
X136582647Y-80257419D01*
X136582647Y-80257419D02*
X136544552Y-80219323D01*
X136544552Y-80219323D02*
X136506457Y-80143133D01*
X136506457Y-80143133D02*
X136506457Y-79952657D01*
X136506457Y-79952657D02*
X136544552Y-79876466D01*
X136544552Y-79876466D02*
X136582647Y-79838371D01*
X136582647Y-79838371D02*
X136658838Y-79800276D01*
X136658838Y-79800276D02*
X136849314Y-79800276D01*
X136849314Y-79800276D02*
X136925504Y-79838371D01*
X136925504Y-79838371D02*
X136963600Y-79876466D01*
X136963600Y-79876466D02*
X137001695Y-79952657D01*
X137001695Y-79952657D02*
X137001695Y-80143133D01*
X137001695Y-80143133D02*
X136963600Y-80219323D01*
X136963600Y-80219323D02*
X136925504Y-80257419D01*
X118696921Y-104303304D02*
X118658825Y-104341400D01*
X118658825Y-104341400D02*
X118544540Y-104379495D01*
X118544540Y-104379495D02*
X118468349Y-104379495D01*
X118468349Y-104379495D02*
X118354063Y-104341400D01*
X118354063Y-104341400D02*
X118277873Y-104265209D01*
X118277873Y-104265209D02*
X118239778Y-104189019D01*
X118239778Y-104189019D02*
X118201682Y-104036638D01*
X118201682Y-104036638D02*
X118201682Y-103922352D01*
X118201682Y-103922352D02*
X118239778Y-103769971D01*
X118239778Y-103769971D02*
X118277873Y-103693780D01*
X118277873Y-103693780D02*
X118354063Y-103617590D01*
X118354063Y-103617590D02*
X118468349Y-103579495D01*
X118468349Y-103579495D02*
X118544540Y-103579495D01*
X118544540Y-103579495D02*
X118658825Y-103617590D01*
X118658825Y-103617590D02*
X118696921Y-103655685D01*
X118963587Y-103579495D02*
X119458825Y-103579495D01*
X119458825Y-103579495D02*
X119192159Y-103884257D01*
X119192159Y-103884257D02*
X119306444Y-103884257D01*
X119306444Y-103884257D02*
X119382635Y-103922352D01*
X119382635Y-103922352D02*
X119420730Y-103960447D01*
X119420730Y-103960447D02*
X119458825Y-104036638D01*
X119458825Y-104036638D02*
X119458825Y-104227114D01*
X119458825Y-104227114D02*
X119420730Y-104303304D01*
X119420730Y-104303304D02*
X119382635Y-104341400D01*
X119382635Y-104341400D02*
X119306444Y-104379495D01*
X119306444Y-104379495D02*
X119077873Y-104379495D01*
X119077873Y-104379495D02*
X119001682Y-104341400D01*
X119001682Y-104341400D02*
X118963587Y-104303304D01*
X120144540Y-103579495D02*
X119992159Y-103579495D01*
X119992159Y-103579495D02*
X119915968Y-103617590D01*
X119915968Y-103617590D02*
X119877873Y-103655685D01*
X119877873Y-103655685D02*
X119801683Y-103769971D01*
X119801683Y-103769971D02*
X119763587Y-103922352D01*
X119763587Y-103922352D02*
X119763587Y-104227114D01*
X119763587Y-104227114D02*
X119801683Y-104303304D01*
X119801683Y-104303304D02*
X119839778Y-104341400D01*
X119839778Y-104341400D02*
X119915968Y-104379495D01*
X119915968Y-104379495D02*
X120068349Y-104379495D01*
X120068349Y-104379495D02*
X120144540Y-104341400D01*
X120144540Y-104341400D02*
X120182635Y-104303304D01*
X120182635Y-104303304D02*
X120220730Y-104227114D01*
X120220730Y-104227114D02*
X120220730Y-104036638D01*
X120220730Y-104036638D02*
X120182635Y-103960447D01*
X120182635Y-103960447D02*
X120144540Y-103922352D01*
X120144540Y-103922352D02*
X120068349Y-103884257D01*
X120068349Y-103884257D02*
X119915968Y-103884257D01*
X119915968Y-103884257D02*
X119839778Y-103922352D01*
X119839778Y-103922352D02*
X119801683Y-103960447D01*
X119801683Y-103960447D02*
X119763587Y-104036638D01*
X94618667Y-80359495D02*
X94352000Y-79978542D01*
X94161524Y-80359495D02*
X94161524Y-79559495D01*
X94161524Y-79559495D02*
X94466286Y-79559495D01*
X94466286Y-79559495D02*
X94542476Y-79597590D01*
X94542476Y-79597590D02*
X94580571Y-79635685D01*
X94580571Y-79635685D02*
X94618667Y-79711876D01*
X94618667Y-79711876D02*
X94618667Y-79826161D01*
X94618667Y-79826161D02*
X94580571Y-79902352D01*
X94580571Y-79902352D02*
X94542476Y-79940447D01*
X94542476Y-79940447D02*
X94466286Y-79978542D01*
X94466286Y-79978542D02*
X94161524Y-79978542D01*
X95304381Y-79826161D02*
X95304381Y-80359495D01*
X95113905Y-79521400D02*
X94923428Y-80092828D01*
X94923428Y-80092828D02*
X95418667Y-80092828D01*
X94638667Y-89685804D02*
X94600571Y-89723900D01*
X94600571Y-89723900D02*
X94486286Y-89761995D01*
X94486286Y-89761995D02*
X94410095Y-89761995D01*
X94410095Y-89761995D02*
X94295809Y-89723900D01*
X94295809Y-89723900D02*
X94219619Y-89647709D01*
X94219619Y-89647709D02*
X94181524Y-89571519D01*
X94181524Y-89571519D02*
X94143428Y-89419138D01*
X94143428Y-89419138D02*
X94143428Y-89304852D01*
X94143428Y-89304852D02*
X94181524Y-89152471D01*
X94181524Y-89152471D02*
X94219619Y-89076280D01*
X94219619Y-89076280D02*
X94295809Y-89000090D01*
X94295809Y-89000090D02*
X94410095Y-88961995D01*
X94410095Y-88961995D02*
X94486286Y-88961995D01*
X94486286Y-88961995D02*
X94600571Y-89000090D01*
X94600571Y-89000090D02*
X94638667Y-89038185D01*
X95362476Y-88961995D02*
X94981524Y-88961995D01*
X94981524Y-88961995D02*
X94943428Y-89342947D01*
X94943428Y-89342947D02*
X94981524Y-89304852D01*
X94981524Y-89304852D02*
X95057714Y-89266757D01*
X95057714Y-89266757D02*
X95248190Y-89266757D01*
X95248190Y-89266757D02*
X95324381Y-89304852D01*
X95324381Y-89304852D02*
X95362476Y-89342947D01*
X95362476Y-89342947D02*
X95400571Y-89419138D01*
X95400571Y-89419138D02*
X95400571Y-89609614D01*
X95400571Y-89609614D02*
X95362476Y-89685804D01*
X95362476Y-89685804D02*
X95324381Y-89723900D01*
X95324381Y-89723900D02*
X95248190Y-89761995D01*
X95248190Y-89761995D02*
X95057714Y-89761995D01*
X95057714Y-89761995D02*
X94981524Y-89723900D01*
X94981524Y-89723900D02*
X94943428Y-89685804D01*
X98960504Y-86433132D02*
X98998600Y-86471228D01*
X98998600Y-86471228D02*
X99036695Y-86585513D01*
X99036695Y-86585513D02*
X99036695Y-86661704D01*
X99036695Y-86661704D02*
X98998600Y-86775990D01*
X98998600Y-86775990D02*
X98922409Y-86852180D01*
X98922409Y-86852180D02*
X98846219Y-86890275D01*
X98846219Y-86890275D02*
X98693838Y-86928371D01*
X98693838Y-86928371D02*
X98579552Y-86928371D01*
X98579552Y-86928371D02*
X98427171Y-86890275D01*
X98427171Y-86890275D02*
X98350980Y-86852180D01*
X98350980Y-86852180D02*
X98274790Y-86775990D01*
X98274790Y-86775990D02*
X98236695Y-86661704D01*
X98236695Y-86661704D02*
X98236695Y-86585513D01*
X98236695Y-86585513D02*
X98274790Y-86471228D01*
X98274790Y-86471228D02*
X98312885Y-86433132D01*
X98579552Y-85975990D02*
X98541457Y-86052180D01*
X98541457Y-86052180D02*
X98503361Y-86090275D01*
X98503361Y-86090275D02*
X98427171Y-86128371D01*
X98427171Y-86128371D02*
X98389076Y-86128371D01*
X98389076Y-86128371D02*
X98312885Y-86090275D01*
X98312885Y-86090275D02*
X98274790Y-86052180D01*
X98274790Y-86052180D02*
X98236695Y-85975990D01*
X98236695Y-85975990D02*
X98236695Y-85823609D01*
X98236695Y-85823609D02*
X98274790Y-85747418D01*
X98274790Y-85747418D02*
X98312885Y-85709323D01*
X98312885Y-85709323D02*
X98389076Y-85671228D01*
X98389076Y-85671228D02*
X98427171Y-85671228D01*
X98427171Y-85671228D02*
X98503361Y-85709323D01*
X98503361Y-85709323D02*
X98541457Y-85747418D01*
X98541457Y-85747418D02*
X98579552Y-85823609D01*
X98579552Y-85823609D02*
X98579552Y-85975990D01*
X98579552Y-85975990D02*
X98617647Y-86052180D01*
X98617647Y-86052180D02*
X98655742Y-86090275D01*
X98655742Y-86090275D02*
X98731933Y-86128371D01*
X98731933Y-86128371D02*
X98884314Y-86128371D01*
X98884314Y-86128371D02*
X98960504Y-86090275D01*
X98960504Y-86090275D02*
X98998600Y-86052180D01*
X98998600Y-86052180D02*
X99036695Y-85975990D01*
X99036695Y-85975990D02*
X99036695Y-85823609D01*
X99036695Y-85823609D02*
X98998600Y-85747418D01*
X98998600Y-85747418D02*
X98960504Y-85709323D01*
X98960504Y-85709323D02*
X98884314Y-85671228D01*
X98884314Y-85671228D02*
X98731933Y-85671228D01*
X98731933Y-85671228D02*
X98655742Y-85709323D01*
X98655742Y-85709323D02*
X98617647Y-85747418D01*
X98617647Y-85747418D02*
X98579552Y-85823609D01*
X136147714Y-104303304D02*
X136109618Y-104341400D01*
X136109618Y-104341400D02*
X135995333Y-104379495D01*
X135995333Y-104379495D02*
X135919142Y-104379495D01*
X135919142Y-104379495D02*
X135804856Y-104341400D01*
X135804856Y-104341400D02*
X135728666Y-104265209D01*
X135728666Y-104265209D02*
X135690571Y-104189019D01*
X135690571Y-104189019D02*
X135652475Y-104036638D01*
X135652475Y-104036638D02*
X135652475Y-103922352D01*
X135652475Y-103922352D02*
X135690571Y-103769971D01*
X135690571Y-103769971D02*
X135728666Y-103693780D01*
X135728666Y-103693780D02*
X135804856Y-103617590D01*
X135804856Y-103617590D02*
X135919142Y-103579495D01*
X135919142Y-103579495D02*
X135995333Y-103579495D01*
X135995333Y-103579495D02*
X136109618Y-103617590D01*
X136109618Y-103617590D02*
X136147714Y-103655685D01*
X136909618Y-104379495D02*
X136452475Y-104379495D01*
X136681047Y-104379495D02*
X136681047Y-103579495D01*
X136681047Y-103579495D02*
X136604856Y-103693780D01*
X136604856Y-103693780D02*
X136528666Y-103769971D01*
X136528666Y-103769971D02*
X136452475Y-103808066D01*
X137176285Y-103579495D02*
X137671523Y-103579495D01*
X137671523Y-103579495D02*
X137404857Y-103884257D01*
X137404857Y-103884257D02*
X137519142Y-103884257D01*
X137519142Y-103884257D02*
X137595333Y-103922352D01*
X137595333Y-103922352D02*
X137633428Y-103960447D01*
X137633428Y-103960447D02*
X137671523Y-104036638D01*
X137671523Y-104036638D02*
X137671523Y-104227114D01*
X137671523Y-104227114D02*
X137633428Y-104303304D01*
X137633428Y-104303304D02*
X137595333Y-104341400D01*
X137595333Y-104341400D02*
X137519142Y-104379495D01*
X137519142Y-104379495D02*
X137290571Y-104379495D01*
X137290571Y-104379495D02*
X137214380Y-104341400D01*
X137214380Y-104341400D02*
X137176285Y-104303304D01*
X133562171Y-81324085D02*
X133600267Y-81362181D01*
X133600267Y-81362181D02*
X133638362Y-81476466D01*
X133638362Y-81476466D02*
X133638362Y-81552657D01*
X133638362Y-81552657D02*
X133600267Y-81666943D01*
X133600267Y-81666943D02*
X133524076Y-81743133D01*
X133524076Y-81743133D02*
X133447886Y-81781228D01*
X133447886Y-81781228D02*
X133295505Y-81819324D01*
X133295505Y-81819324D02*
X133181219Y-81819324D01*
X133181219Y-81819324D02*
X133028838Y-81781228D01*
X133028838Y-81781228D02*
X132952647Y-81743133D01*
X132952647Y-81743133D02*
X132876457Y-81666943D01*
X132876457Y-81666943D02*
X132838362Y-81552657D01*
X132838362Y-81552657D02*
X132838362Y-81476466D01*
X132838362Y-81476466D02*
X132876457Y-81362181D01*
X132876457Y-81362181D02*
X132914552Y-81324085D01*
X133638362Y-80562181D02*
X133638362Y-81019324D01*
X133638362Y-80790752D02*
X132838362Y-80790752D01*
X132838362Y-80790752D02*
X132952647Y-80866943D01*
X132952647Y-80866943D02*
X133028838Y-80943133D01*
X133028838Y-80943133D02*
X133066933Y-81019324D01*
X132838362Y-80295514D02*
X132838362Y-79762180D01*
X132838362Y-79762180D02*
X133638362Y-80105038D01*
X105043667Y-85588304D02*
X105005571Y-85626400D01*
X105005571Y-85626400D02*
X104891286Y-85664495D01*
X104891286Y-85664495D02*
X104815095Y-85664495D01*
X104815095Y-85664495D02*
X104700809Y-85626400D01*
X104700809Y-85626400D02*
X104624619Y-85550209D01*
X104624619Y-85550209D02*
X104586524Y-85474019D01*
X104586524Y-85474019D02*
X104548428Y-85321638D01*
X104548428Y-85321638D02*
X104548428Y-85207352D01*
X104548428Y-85207352D02*
X104586524Y-85054971D01*
X104586524Y-85054971D02*
X104624619Y-84978780D01*
X104624619Y-84978780D02*
X104700809Y-84902590D01*
X104700809Y-84902590D02*
X104815095Y-84864495D01*
X104815095Y-84864495D02*
X104891286Y-84864495D01*
X104891286Y-84864495D02*
X105005571Y-84902590D01*
X105005571Y-84902590D02*
X105043667Y-84940685D01*
X105729381Y-84864495D02*
X105577000Y-84864495D01*
X105577000Y-84864495D02*
X105500809Y-84902590D01*
X105500809Y-84902590D02*
X105462714Y-84940685D01*
X105462714Y-84940685D02*
X105386524Y-85054971D01*
X105386524Y-85054971D02*
X105348428Y-85207352D01*
X105348428Y-85207352D02*
X105348428Y-85512114D01*
X105348428Y-85512114D02*
X105386524Y-85588304D01*
X105386524Y-85588304D02*
X105424619Y-85626400D01*
X105424619Y-85626400D02*
X105500809Y-85664495D01*
X105500809Y-85664495D02*
X105653190Y-85664495D01*
X105653190Y-85664495D02*
X105729381Y-85626400D01*
X105729381Y-85626400D02*
X105767476Y-85588304D01*
X105767476Y-85588304D02*
X105805571Y-85512114D01*
X105805571Y-85512114D02*
X105805571Y-85321638D01*
X105805571Y-85321638D02*
X105767476Y-85245447D01*
X105767476Y-85245447D02*
X105729381Y-85207352D01*
X105729381Y-85207352D02*
X105653190Y-85169257D01*
X105653190Y-85169257D02*
X105500809Y-85169257D01*
X105500809Y-85169257D02*
X105424619Y-85207352D01*
X105424619Y-85207352D02*
X105386524Y-85245447D01*
X105386524Y-85245447D02*
X105348428Y-85321638D01*
X99012714Y-54398304D02*
X98974618Y-54436400D01*
X98974618Y-54436400D02*
X98860333Y-54474495D01*
X98860333Y-54474495D02*
X98784142Y-54474495D01*
X98784142Y-54474495D02*
X98669856Y-54436400D01*
X98669856Y-54436400D02*
X98593666Y-54360209D01*
X98593666Y-54360209D02*
X98555571Y-54284019D01*
X98555571Y-54284019D02*
X98517475Y-54131638D01*
X98517475Y-54131638D02*
X98517475Y-54017352D01*
X98517475Y-54017352D02*
X98555571Y-53864971D01*
X98555571Y-53864971D02*
X98593666Y-53788780D01*
X98593666Y-53788780D02*
X98669856Y-53712590D01*
X98669856Y-53712590D02*
X98784142Y-53674495D01*
X98784142Y-53674495D02*
X98860333Y-53674495D01*
X98860333Y-53674495D02*
X98974618Y-53712590D01*
X98974618Y-53712590D02*
X99012714Y-53750685D01*
X99317475Y-53750685D02*
X99355571Y-53712590D01*
X99355571Y-53712590D02*
X99431761Y-53674495D01*
X99431761Y-53674495D02*
X99622237Y-53674495D01*
X99622237Y-53674495D02*
X99698428Y-53712590D01*
X99698428Y-53712590D02*
X99736523Y-53750685D01*
X99736523Y-53750685D02*
X99774618Y-53826876D01*
X99774618Y-53826876D02*
X99774618Y-53903066D01*
X99774618Y-53903066D02*
X99736523Y-54017352D01*
X99736523Y-54017352D02*
X99279380Y-54474495D01*
X99279380Y-54474495D02*
X99774618Y-54474495D01*
X100498428Y-53674495D02*
X100117476Y-53674495D01*
X100117476Y-53674495D02*
X100079380Y-54055447D01*
X100079380Y-54055447D02*
X100117476Y-54017352D01*
X100117476Y-54017352D02*
X100193666Y-53979257D01*
X100193666Y-53979257D02*
X100384142Y-53979257D01*
X100384142Y-53979257D02*
X100460333Y-54017352D01*
X100460333Y-54017352D02*
X100498428Y-54055447D01*
X100498428Y-54055447D02*
X100536523Y-54131638D01*
X100536523Y-54131638D02*
X100536523Y-54322114D01*
X100536523Y-54322114D02*
X100498428Y-54398304D01*
X100498428Y-54398304D02*
X100460333Y-54436400D01*
X100460333Y-54436400D02*
X100384142Y-54474495D01*
X100384142Y-54474495D02*
X100193666Y-54474495D01*
X100193666Y-54474495D02*
X100117476Y-54436400D01*
X100117476Y-54436400D02*
X100079380Y-54398304D01*
X96061695Y-87414085D02*
X95680742Y-87680752D01*
X96061695Y-87871228D02*
X95261695Y-87871228D01*
X95261695Y-87871228D02*
X95261695Y-87566466D01*
X95261695Y-87566466D02*
X95299790Y-87490276D01*
X95299790Y-87490276D02*
X95337885Y-87452181D01*
X95337885Y-87452181D02*
X95414076Y-87414085D01*
X95414076Y-87414085D02*
X95528361Y-87414085D01*
X95528361Y-87414085D02*
X95604552Y-87452181D01*
X95604552Y-87452181D02*
X95642647Y-87490276D01*
X95642647Y-87490276D02*
X95680742Y-87566466D01*
X95680742Y-87566466D02*
X95680742Y-87871228D01*
X96061695Y-86652181D02*
X96061695Y-87109324D01*
X96061695Y-86880752D02*
X95261695Y-86880752D01*
X95261695Y-86880752D02*
X95375980Y-86956943D01*
X95375980Y-86956943D02*
X95452171Y-87033133D01*
X95452171Y-87033133D02*
X95490266Y-87109324D01*
X95261695Y-86385514D02*
X95261695Y-85852180D01*
X95261695Y-85852180D02*
X96061695Y-86195038D01*
X98707714Y-66908304D02*
X98669618Y-66946400D01*
X98669618Y-66946400D02*
X98555333Y-66984495D01*
X98555333Y-66984495D02*
X98479142Y-66984495D01*
X98479142Y-66984495D02*
X98364856Y-66946400D01*
X98364856Y-66946400D02*
X98288666Y-66870209D01*
X98288666Y-66870209D02*
X98250571Y-66794019D01*
X98250571Y-66794019D02*
X98212475Y-66641638D01*
X98212475Y-66641638D02*
X98212475Y-66527352D01*
X98212475Y-66527352D02*
X98250571Y-66374971D01*
X98250571Y-66374971D02*
X98288666Y-66298780D01*
X98288666Y-66298780D02*
X98364856Y-66222590D01*
X98364856Y-66222590D02*
X98479142Y-66184495D01*
X98479142Y-66184495D02*
X98555333Y-66184495D01*
X98555333Y-66184495D02*
X98669618Y-66222590D01*
X98669618Y-66222590D02*
X98707714Y-66260685D01*
X99012475Y-66260685D02*
X99050571Y-66222590D01*
X99050571Y-66222590D02*
X99126761Y-66184495D01*
X99126761Y-66184495D02*
X99317237Y-66184495D01*
X99317237Y-66184495D02*
X99393428Y-66222590D01*
X99393428Y-66222590D02*
X99431523Y-66260685D01*
X99431523Y-66260685D02*
X99469618Y-66336876D01*
X99469618Y-66336876D02*
X99469618Y-66413066D01*
X99469618Y-66413066D02*
X99431523Y-66527352D01*
X99431523Y-66527352D02*
X98974380Y-66984495D01*
X98974380Y-66984495D02*
X99469618Y-66984495D01*
X99774380Y-66260685D02*
X99812476Y-66222590D01*
X99812476Y-66222590D02*
X99888666Y-66184495D01*
X99888666Y-66184495D02*
X100079142Y-66184495D01*
X100079142Y-66184495D02*
X100155333Y-66222590D01*
X100155333Y-66222590D02*
X100193428Y-66260685D01*
X100193428Y-66260685D02*
X100231523Y-66336876D01*
X100231523Y-66336876D02*
X100231523Y-66413066D01*
X100231523Y-66413066D02*
X100193428Y-66527352D01*
X100193428Y-66527352D02*
X99736285Y-66984495D01*
X99736285Y-66984495D02*
X100231523Y-66984495D01*
X104853667Y-92533304D02*
X104815571Y-92571400D01*
X104815571Y-92571400D02*
X104701286Y-92609495D01*
X104701286Y-92609495D02*
X104625095Y-92609495D01*
X104625095Y-92609495D02*
X104510809Y-92571400D01*
X104510809Y-92571400D02*
X104434619Y-92495209D01*
X104434619Y-92495209D02*
X104396524Y-92419019D01*
X104396524Y-92419019D02*
X104358428Y-92266638D01*
X104358428Y-92266638D02*
X104358428Y-92152352D01*
X104358428Y-92152352D02*
X104396524Y-91999971D01*
X104396524Y-91999971D02*
X104434619Y-91923780D01*
X104434619Y-91923780D02*
X104510809Y-91847590D01*
X104510809Y-91847590D02*
X104625095Y-91809495D01*
X104625095Y-91809495D02*
X104701286Y-91809495D01*
X104701286Y-91809495D02*
X104815571Y-91847590D01*
X104815571Y-91847590D02*
X104853667Y-91885685D01*
X105539381Y-92076161D02*
X105539381Y-92609495D01*
X105348905Y-91771400D02*
X105158428Y-92342828D01*
X105158428Y-92342828D02*
X105653667Y-92342828D01*
X126835504Y-81324085D02*
X126873600Y-81362181D01*
X126873600Y-81362181D02*
X126911695Y-81476466D01*
X126911695Y-81476466D02*
X126911695Y-81552657D01*
X126911695Y-81552657D02*
X126873600Y-81666943D01*
X126873600Y-81666943D02*
X126797409Y-81743133D01*
X126797409Y-81743133D02*
X126721219Y-81781228D01*
X126721219Y-81781228D02*
X126568838Y-81819324D01*
X126568838Y-81819324D02*
X126454552Y-81819324D01*
X126454552Y-81819324D02*
X126302171Y-81781228D01*
X126302171Y-81781228D02*
X126225980Y-81743133D01*
X126225980Y-81743133D02*
X126149790Y-81666943D01*
X126149790Y-81666943D02*
X126111695Y-81552657D01*
X126111695Y-81552657D02*
X126111695Y-81476466D01*
X126111695Y-81476466D02*
X126149790Y-81362181D01*
X126149790Y-81362181D02*
X126187885Y-81324085D01*
X126911695Y-80562181D02*
X126911695Y-81019324D01*
X126911695Y-80790752D02*
X126111695Y-80790752D01*
X126111695Y-80790752D02*
X126225980Y-80866943D01*
X126225980Y-80866943D02*
X126302171Y-80943133D01*
X126302171Y-80943133D02*
X126340266Y-81019324D01*
X126911695Y-80181228D02*
X126911695Y-80028847D01*
X126911695Y-80028847D02*
X126873600Y-79952657D01*
X126873600Y-79952657D02*
X126835504Y-79914561D01*
X126835504Y-79914561D02*
X126721219Y-79838371D01*
X126721219Y-79838371D02*
X126568838Y-79800276D01*
X126568838Y-79800276D02*
X126264076Y-79800276D01*
X126264076Y-79800276D02*
X126187885Y-79838371D01*
X126187885Y-79838371D02*
X126149790Y-79876466D01*
X126149790Y-79876466D02*
X126111695Y-79952657D01*
X126111695Y-79952657D02*
X126111695Y-80105038D01*
X126111695Y-80105038D02*
X126149790Y-80181228D01*
X126149790Y-80181228D02*
X126187885Y-80219323D01*
X126187885Y-80219323D02*
X126264076Y-80257419D01*
X126264076Y-80257419D02*
X126454552Y-80257419D01*
X126454552Y-80257419D02*
X126530742Y-80219323D01*
X126530742Y-80219323D02*
X126568838Y-80181228D01*
X126568838Y-80181228D02*
X126606933Y-80105038D01*
X126606933Y-80105038D02*
X126606933Y-79952657D01*
X126606933Y-79952657D02*
X126568838Y-79876466D01*
X126568838Y-79876466D02*
X126530742Y-79838371D01*
X126530742Y-79838371D02*
X126454552Y-79800276D01*
X132590214Y-53733304D02*
X132552118Y-53771400D01*
X132552118Y-53771400D02*
X132437833Y-53809495D01*
X132437833Y-53809495D02*
X132361642Y-53809495D01*
X132361642Y-53809495D02*
X132247356Y-53771400D01*
X132247356Y-53771400D02*
X132171166Y-53695209D01*
X132171166Y-53695209D02*
X132133071Y-53619019D01*
X132133071Y-53619019D02*
X132094975Y-53466638D01*
X132094975Y-53466638D02*
X132094975Y-53352352D01*
X132094975Y-53352352D02*
X132133071Y-53199971D01*
X132133071Y-53199971D02*
X132171166Y-53123780D01*
X132171166Y-53123780D02*
X132247356Y-53047590D01*
X132247356Y-53047590D02*
X132361642Y-53009495D01*
X132361642Y-53009495D02*
X132437833Y-53009495D01*
X132437833Y-53009495D02*
X132552118Y-53047590D01*
X132552118Y-53047590D02*
X132590214Y-53085685D01*
X132856880Y-53009495D02*
X133352118Y-53009495D01*
X133352118Y-53009495D02*
X133085452Y-53314257D01*
X133085452Y-53314257D02*
X133199737Y-53314257D01*
X133199737Y-53314257D02*
X133275928Y-53352352D01*
X133275928Y-53352352D02*
X133314023Y-53390447D01*
X133314023Y-53390447D02*
X133352118Y-53466638D01*
X133352118Y-53466638D02*
X133352118Y-53657114D01*
X133352118Y-53657114D02*
X133314023Y-53733304D01*
X133314023Y-53733304D02*
X133275928Y-53771400D01*
X133275928Y-53771400D02*
X133199737Y-53809495D01*
X133199737Y-53809495D02*
X132971166Y-53809495D01*
X132971166Y-53809495D02*
X132894975Y-53771400D01*
X132894975Y-53771400D02*
X132856880Y-53733304D01*
X133656880Y-53085685D02*
X133694976Y-53047590D01*
X133694976Y-53047590D02*
X133771166Y-53009495D01*
X133771166Y-53009495D02*
X133961642Y-53009495D01*
X133961642Y-53009495D02*
X134037833Y-53047590D01*
X134037833Y-53047590D02*
X134075928Y-53085685D01*
X134075928Y-53085685D02*
X134114023Y-53161876D01*
X134114023Y-53161876D02*
X134114023Y-53238066D01*
X134114023Y-53238066D02*
X134075928Y-53352352D01*
X134075928Y-53352352D02*
X133618785Y-53809495D01*
X133618785Y-53809495D02*
X134114023Y-53809495D01*
X124360504Y-81324085D02*
X124398600Y-81362181D01*
X124398600Y-81362181D02*
X124436695Y-81476466D01*
X124436695Y-81476466D02*
X124436695Y-81552657D01*
X124436695Y-81552657D02*
X124398600Y-81666943D01*
X124398600Y-81666943D02*
X124322409Y-81743133D01*
X124322409Y-81743133D02*
X124246219Y-81781228D01*
X124246219Y-81781228D02*
X124093838Y-81819324D01*
X124093838Y-81819324D02*
X123979552Y-81819324D01*
X123979552Y-81819324D02*
X123827171Y-81781228D01*
X123827171Y-81781228D02*
X123750980Y-81743133D01*
X123750980Y-81743133D02*
X123674790Y-81666943D01*
X123674790Y-81666943D02*
X123636695Y-81552657D01*
X123636695Y-81552657D02*
X123636695Y-81476466D01*
X123636695Y-81476466D02*
X123674790Y-81362181D01*
X123674790Y-81362181D02*
X123712885Y-81324085D01*
X124436695Y-80562181D02*
X124436695Y-81019324D01*
X124436695Y-80790752D02*
X123636695Y-80790752D01*
X123636695Y-80790752D02*
X123750980Y-80866943D01*
X123750980Y-80866943D02*
X123827171Y-80943133D01*
X123827171Y-80943133D02*
X123865266Y-81019324D01*
X124436695Y-79800276D02*
X124436695Y-80257419D01*
X124436695Y-80028847D02*
X123636695Y-80028847D01*
X123636695Y-80028847D02*
X123750980Y-80105038D01*
X123750980Y-80105038D02*
X123827171Y-80181228D01*
X123827171Y-80181228D02*
X123865266Y-80257419D01*
X144928667Y-54969495D02*
X144662000Y-54588542D01*
X144471524Y-54969495D02*
X144471524Y-54169495D01*
X144471524Y-54169495D02*
X144776286Y-54169495D01*
X144776286Y-54169495D02*
X144852476Y-54207590D01*
X144852476Y-54207590D02*
X144890571Y-54245685D01*
X144890571Y-54245685D02*
X144928667Y-54321876D01*
X144928667Y-54321876D02*
X144928667Y-54436161D01*
X144928667Y-54436161D02*
X144890571Y-54512352D01*
X144890571Y-54512352D02*
X144852476Y-54550447D01*
X144852476Y-54550447D02*
X144776286Y-54588542D01*
X144776286Y-54588542D02*
X144471524Y-54588542D01*
X145385809Y-54512352D02*
X145309619Y-54474257D01*
X145309619Y-54474257D02*
X145271524Y-54436161D01*
X145271524Y-54436161D02*
X145233428Y-54359971D01*
X145233428Y-54359971D02*
X145233428Y-54321876D01*
X145233428Y-54321876D02*
X145271524Y-54245685D01*
X145271524Y-54245685D02*
X145309619Y-54207590D01*
X145309619Y-54207590D02*
X145385809Y-54169495D01*
X145385809Y-54169495D02*
X145538190Y-54169495D01*
X145538190Y-54169495D02*
X145614381Y-54207590D01*
X145614381Y-54207590D02*
X145652476Y-54245685D01*
X145652476Y-54245685D02*
X145690571Y-54321876D01*
X145690571Y-54321876D02*
X145690571Y-54359971D01*
X145690571Y-54359971D02*
X145652476Y-54436161D01*
X145652476Y-54436161D02*
X145614381Y-54474257D01*
X145614381Y-54474257D02*
X145538190Y-54512352D01*
X145538190Y-54512352D02*
X145385809Y-54512352D01*
X145385809Y-54512352D02*
X145309619Y-54550447D01*
X145309619Y-54550447D02*
X145271524Y-54588542D01*
X145271524Y-54588542D02*
X145233428Y-54664733D01*
X145233428Y-54664733D02*
X145233428Y-54817114D01*
X145233428Y-54817114D02*
X145271524Y-54893304D01*
X145271524Y-54893304D02*
X145309619Y-54931400D01*
X145309619Y-54931400D02*
X145385809Y-54969495D01*
X145385809Y-54969495D02*
X145538190Y-54969495D01*
X145538190Y-54969495D02*
X145614381Y-54931400D01*
X145614381Y-54931400D02*
X145652476Y-54893304D01*
X145652476Y-54893304D02*
X145690571Y-54817114D01*
X145690571Y-54817114D02*
X145690571Y-54664733D01*
X145690571Y-54664733D02*
X145652476Y-54588542D01*
X145652476Y-54588542D02*
X145614381Y-54550447D01*
X145614381Y-54550447D02*
X145538190Y-54512352D01*
X115668666Y-81484495D02*
X115287714Y-81484495D01*
X115287714Y-81484495D02*
X115287714Y-80684495D01*
X116354380Y-81484495D02*
X115897237Y-81484495D01*
X116125809Y-81484495D02*
X116125809Y-80684495D01*
X116125809Y-80684495D02*
X116049618Y-80798780D01*
X116049618Y-80798780D02*
X115973428Y-80874971D01*
X115973428Y-80874971D02*
X115897237Y-80913066D01*
X131660504Y-64114085D02*
X131698600Y-64152181D01*
X131698600Y-64152181D02*
X131736695Y-64266466D01*
X131736695Y-64266466D02*
X131736695Y-64342657D01*
X131736695Y-64342657D02*
X131698600Y-64456943D01*
X131698600Y-64456943D02*
X131622409Y-64533133D01*
X131622409Y-64533133D02*
X131546219Y-64571228D01*
X131546219Y-64571228D02*
X131393838Y-64609324D01*
X131393838Y-64609324D02*
X131279552Y-64609324D01*
X131279552Y-64609324D02*
X131127171Y-64571228D01*
X131127171Y-64571228D02*
X131050980Y-64533133D01*
X131050980Y-64533133D02*
X130974790Y-64456943D01*
X130974790Y-64456943D02*
X130936695Y-64342657D01*
X130936695Y-64342657D02*
X130936695Y-64266466D01*
X130936695Y-64266466D02*
X130974790Y-64152181D01*
X130974790Y-64152181D02*
X131012885Y-64114085D01*
X131012885Y-63809324D02*
X130974790Y-63771228D01*
X130974790Y-63771228D02*
X130936695Y-63695038D01*
X130936695Y-63695038D02*
X130936695Y-63504562D01*
X130936695Y-63504562D02*
X130974790Y-63428371D01*
X130974790Y-63428371D02*
X131012885Y-63390276D01*
X131012885Y-63390276D02*
X131089076Y-63352181D01*
X131089076Y-63352181D02*
X131165266Y-63352181D01*
X131165266Y-63352181D02*
X131279552Y-63390276D01*
X131279552Y-63390276D02*
X131736695Y-63847419D01*
X131736695Y-63847419D02*
X131736695Y-63352181D01*
X130936695Y-63085514D02*
X130936695Y-62552180D01*
X130936695Y-62552180D02*
X131736695Y-62895038D01*
X91193667Y-64659495D02*
X90927000Y-64278542D01*
X90736524Y-64659495D02*
X90736524Y-63859495D01*
X90736524Y-63859495D02*
X91041286Y-63859495D01*
X91041286Y-63859495D02*
X91117476Y-63897590D01*
X91117476Y-63897590D02*
X91155571Y-63935685D01*
X91155571Y-63935685D02*
X91193667Y-64011876D01*
X91193667Y-64011876D02*
X91193667Y-64126161D01*
X91193667Y-64126161D02*
X91155571Y-64202352D01*
X91155571Y-64202352D02*
X91117476Y-64240447D01*
X91117476Y-64240447D02*
X91041286Y-64278542D01*
X91041286Y-64278542D02*
X90736524Y-64278542D01*
X91574619Y-64659495D02*
X91727000Y-64659495D01*
X91727000Y-64659495D02*
X91803190Y-64621400D01*
X91803190Y-64621400D02*
X91841286Y-64583304D01*
X91841286Y-64583304D02*
X91917476Y-64469019D01*
X91917476Y-64469019D02*
X91955571Y-64316638D01*
X91955571Y-64316638D02*
X91955571Y-64011876D01*
X91955571Y-64011876D02*
X91917476Y-63935685D01*
X91917476Y-63935685D02*
X91879381Y-63897590D01*
X91879381Y-63897590D02*
X91803190Y-63859495D01*
X91803190Y-63859495D02*
X91650809Y-63859495D01*
X91650809Y-63859495D02*
X91574619Y-63897590D01*
X91574619Y-63897590D02*
X91536524Y-63935685D01*
X91536524Y-63935685D02*
X91498428Y-64011876D01*
X91498428Y-64011876D02*
X91498428Y-64202352D01*
X91498428Y-64202352D02*
X91536524Y-64278542D01*
X91536524Y-64278542D02*
X91574619Y-64316638D01*
X91574619Y-64316638D02*
X91650809Y-64354733D01*
X91650809Y-64354733D02*
X91803190Y-64354733D01*
X91803190Y-64354733D02*
X91879381Y-64316638D01*
X91879381Y-64316638D02*
X91917476Y-64278542D01*
X91917476Y-64278542D02*
X91955571Y-64202352D01*
X130198837Y-81324085D02*
X130236933Y-81362181D01*
X130236933Y-81362181D02*
X130275028Y-81476466D01*
X130275028Y-81476466D02*
X130275028Y-81552657D01*
X130275028Y-81552657D02*
X130236933Y-81666943D01*
X130236933Y-81666943D02*
X130160742Y-81743133D01*
X130160742Y-81743133D02*
X130084552Y-81781228D01*
X130084552Y-81781228D02*
X129932171Y-81819324D01*
X129932171Y-81819324D02*
X129817885Y-81819324D01*
X129817885Y-81819324D02*
X129665504Y-81781228D01*
X129665504Y-81781228D02*
X129589313Y-81743133D01*
X129589313Y-81743133D02*
X129513123Y-81666943D01*
X129513123Y-81666943D02*
X129475028Y-81552657D01*
X129475028Y-81552657D02*
X129475028Y-81476466D01*
X129475028Y-81476466D02*
X129513123Y-81362181D01*
X129513123Y-81362181D02*
X129551218Y-81324085D01*
X130275028Y-80562181D02*
X130275028Y-81019324D01*
X130275028Y-80790752D02*
X129475028Y-80790752D01*
X129475028Y-80790752D02*
X129589313Y-80866943D01*
X129589313Y-80866943D02*
X129665504Y-80943133D01*
X129665504Y-80943133D02*
X129703599Y-81019324D01*
X129817885Y-80105038D02*
X129779790Y-80181228D01*
X129779790Y-80181228D02*
X129741694Y-80219323D01*
X129741694Y-80219323D02*
X129665504Y-80257419D01*
X129665504Y-80257419D02*
X129627409Y-80257419D01*
X129627409Y-80257419D02*
X129551218Y-80219323D01*
X129551218Y-80219323D02*
X129513123Y-80181228D01*
X129513123Y-80181228D02*
X129475028Y-80105038D01*
X129475028Y-80105038D02*
X129475028Y-79952657D01*
X129475028Y-79952657D02*
X129513123Y-79876466D01*
X129513123Y-79876466D02*
X129551218Y-79838371D01*
X129551218Y-79838371D02*
X129627409Y-79800276D01*
X129627409Y-79800276D02*
X129665504Y-79800276D01*
X129665504Y-79800276D02*
X129741694Y-79838371D01*
X129741694Y-79838371D02*
X129779790Y-79876466D01*
X129779790Y-79876466D02*
X129817885Y-79952657D01*
X129817885Y-79952657D02*
X129817885Y-80105038D01*
X129817885Y-80105038D02*
X129855980Y-80181228D01*
X129855980Y-80181228D02*
X129894075Y-80219323D01*
X129894075Y-80219323D02*
X129970266Y-80257419D01*
X129970266Y-80257419D02*
X130122647Y-80257419D01*
X130122647Y-80257419D02*
X130198837Y-80219323D01*
X130198837Y-80219323D02*
X130236933Y-80181228D01*
X130236933Y-80181228D02*
X130275028Y-80105038D01*
X130275028Y-80105038D02*
X130275028Y-79952657D01*
X130275028Y-79952657D02*
X130236933Y-79876466D01*
X130236933Y-79876466D02*
X130198837Y-79838371D01*
X130198837Y-79838371D02*
X130122647Y-79800276D01*
X130122647Y-79800276D02*
X129970266Y-79800276D01*
X129970266Y-79800276D02*
X129894075Y-79838371D01*
X129894075Y-79838371D02*
X129855980Y-79876466D01*
X129855980Y-79876466D02*
X129817885Y-79952657D01*
X97761695Y-80908132D02*
X97380742Y-81174799D01*
X97761695Y-81365275D02*
X96961695Y-81365275D01*
X96961695Y-81365275D02*
X96961695Y-81060513D01*
X96961695Y-81060513D02*
X96999790Y-80984323D01*
X96999790Y-80984323D02*
X97037885Y-80946228D01*
X97037885Y-80946228D02*
X97114076Y-80908132D01*
X97114076Y-80908132D02*
X97228361Y-80908132D01*
X97228361Y-80908132D02*
X97304552Y-80946228D01*
X97304552Y-80946228D02*
X97342647Y-80984323D01*
X97342647Y-80984323D02*
X97380742Y-81060513D01*
X97380742Y-81060513D02*
X97380742Y-81365275D01*
X96961695Y-80641466D02*
X96961695Y-80108132D01*
X96961695Y-80108132D02*
X97761695Y-80450990D01*
X101272714Y-57838304D02*
X101234618Y-57876400D01*
X101234618Y-57876400D02*
X101120333Y-57914495D01*
X101120333Y-57914495D02*
X101044142Y-57914495D01*
X101044142Y-57914495D02*
X100929856Y-57876400D01*
X100929856Y-57876400D02*
X100853666Y-57800209D01*
X100853666Y-57800209D02*
X100815571Y-57724019D01*
X100815571Y-57724019D02*
X100777475Y-57571638D01*
X100777475Y-57571638D02*
X100777475Y-57457352D01*
X100777475Y-57457352D02*
X100815571Y-57304971D01*
X100815571Y-57304971D02*
X100853666Y-57228780D01*
X100853666Y-57228780D02*
X100929856Y-57152590D01*
X100929856Y-57152590D02*
X101044142Y-57114495D01*
X101044142Y-57114495D02*
X101120333Y-57114495D01*
X101120333Y-57114495D02*
X101234618Y-57152590D01*
X101234618Y-57152590D02*
X101272714Y-57190685D01*
X101577475Y-57190685D02*
X101615571Y-57152590D01*
X101615571Y-57152590D02*
X101691761Y-57114495D01*
X101691761Y-57114495D02*
X101882237Y-57114495D01*
X101882237Y-57114495D02*
X101958428Y-57152590D01*
X101958428Y-57152590D02*
X101996523Y-57190685D01*
X101996523Y-57190685D02*
X102034618Y-57266876D01*
X102034618Y-57266876D02*
X102034618Y-57343066D01*
X102034618Y-57343066D02*
X101996523Y-57457352D01*
X101996523Y-57457352D02*
X101539380Y-57914495D01*
X101539380Y-57914495D02*
X102034618Y-57914495D01*
X102720333Y-57381161D02*
X102720333Y-57914495D01*
X102529857Y-57076400D02*
X102339380Y-57647828D01*
X102339380Y-57647828D02*
X102834619Y-57647828D01*
X109085504Y-97759085D02*
X109123600Y-97797181D01*
X109123600Y-97797181D02*
X109161695Y-97911466D01*
X109161695Y-97911466D02*
X109161695Y-97987657D01*
X109161695Y-97987657D02*
X109123600Y-98101943D01*
X109123600Y-98101943D02*
X109047409Y-98178133D01*
X109047409Y-98178133D02*
X108971219Y-98216228D01*
X108971219Y-98216228D02*
X108818838Y-98254324D01*
X108818838Y-98254324D02*
X108704552Y-98254324D01*
X108704552Y-98254324D02*
X108552171Y-98216228D01*
X108552171Y-98216228D02*
X108475980Y-98178133D01*
X108475980Y-98178133D02*
X108399790Y-98101943D01*
X108399790Y-98101943D02*
X108361695Y-97987657D01*
X108361695Y-97987657D02*
X108361695Y-97911466D01*
X108361695Y-97911466D02*
X108399790Y-97797181D01*
X108399790Y-97797181D02*
X108437885Y-97759085D01*
X108437885Y-97454324D02*
X108399790Y-97416228D01*
X108399790Y-97416228D02*
X108361695Y-97340038D01*
X108361695Y-97340038D02*
X108361695Y-97149562D01*
X108361695Y-97149562D02*
X108399790Y-97073371D01*
X108399790Y-97073371D02*
X108437885Y-97035276D01*
X108437885Y-97035276D02*
X108514076Y-96997181D01*
X108514076Y-96997181D02*
X108590266Y-96997181D01*
X108590266Y-96997181D02*
X108704552Y-97035276D01*
X108704552Y-97035276D02*
X109161695Y-97492419D01*
X109161695Y-97492419D02*
X109161695Y-96997181D01*
X109161695Y-96235276D02*
X109161695Y-96692419D01*
X109161695Y-96463847D02*
X108361695Y-96463847D01*
X108361695Y-96463847D02*
X108475980Y-96540038D01*
X108475980Y-96540038D02*
X108552171Y-96616228D01*
X108552171Y-96616228D02*
X108590266Y-96692419D01*
X96467476Y-57534495D02*
X96467476Y-58182114D01*
X96467476Y-58182114D02*
X96505571Y-58258304D01*
X96505571Y-58258304D02*
X96543666Y-58296400D01*
X96543666Y-58296400D02*
X96619857Y-58334495D01*
X96619857Y-58334495D02*
X96772238Y-58334495D01*
X96772238Y-58334495D02*
X96848428Y-58296400D01*
X96848428Y-58296400D02*
X96886523Y-58258304D01*
X96886523Y-58258304D02*
X96924619Y-58182114D01*
X96924619Y-58182114D02*
X96924619Y-57534495D01*
X97267475Y-57610685D02*
X97305571Y-57572590D01*
X97305571Y-57572590D02*
X97381761Y-57534495D01*
X97381761Y-57534495D02*
X97572237Y-57534495D01*
X97572237Y-57534495D02*
X97648428Y-57572590D01*
X97648428Y-57572590D02*
X97686523Y-57610685D01*
X97686523Y-57610685D02*
X97724618Y-57686876D01*
X97724618Y-57686876D02*
X97724618Y-57763066D01*
X97724618Y-57763066D02*
X97686523Y-57877352D01*
X97686523Y-57877352D02*
X97229380Y-58334495D01*
X97229380Y-58334495D02*
X97724618Y-58334495D01*
X99876695Y-80908132D02*
X99495742Y-81174799D01*
X99876695Y-81365275D02*
X99076695Y-81365275D01*
X99076695Y-81365275D02*
X99076695Y-81060513D01*
X99076695Y-81060513D02*
X99114790Y-80984323D01*
X99114790Y-80984323D02*
X99152885Y-80946228D01*
X99152885Y-80946228D02*
X99229076Y-80908132D01*
X99229076Y-80908132D02*
X99343361Y-80908132D01*
X99343361Y-80908132D02*
X99419552Y-80946228D01*
X99419552Y-80946228D02*
X99457647Y-80984323D01*
X99457647Y-80984323D02*
X99495742Y-81060513D01*
X99495742Y-81060513D02*
X99495742Y-81365275D01*
X99076695Y-80222418D02*
X99076695Y-80374799D01*
X99076695Y-80374799D02*
X99114790Y-80450990D01*
X99114790Y-80450990D02*
X99152885Y-80489085D01*
X99152885Y-80489085D02*
X99267171Y-80565275D01*
X99267171Y-80565275D02*
X99419552Y-80603371D01*
X99419552Y-80603371D02*
X99724314Y-80603371D01*
X99724314Y-80603371D02*
X99800504Y-80565275D01*
X99800504Y-80565275D02*
X99838600Y-80527180D01*
X99838600Y-80527180D02*
X99876695Y-80450990D01*
X99876695Y-80450990D02*
X99876695Y-80298609D01*
X99876695Y-80298609D02*
X99838600Y-80222418D01*
X99838600Y-80222418D02*
X99800504Y-80184323D01*
X99800504Y-80184323D02*
X99724314Y-80146228D01*
X99724314Y-80146228D02*
X99533838Y-80146228D01*
X99533838Y-80146228D02*
X99457647Y-80184323D01*
X99457647Y-80184323D02*
X99419552Y-80222418D01*
X99419552Y-80222418D02*
X99381457Y-80298609D01*
X99381457Y-80298609D02*
X99381457Y-80450990D01*
X99381457Y-80450990D02*
X99419552Y-80527180D01*
X99419552Y-80527180D02*
X99457647Y-80565275D01*
X99457647Y-80565275D02*
X99533838Y-80603371D01*
X136037714Y-53733304D02*
X135999618Y-53771400D01*
X135999618Y-53771400D02*
X135885333Y-53809495D01*
X135885333Y-53809495D02*
X135809142Y-53809495D01*
X135809142Y-53809495D02*
X135694856Y-53771400D01*
X135694856Y-53771400D02*
X135618666Y-53695209D01*
X135618666Y-53695209D02*
X135580571Y-53619019D01*
X135580571Y-53619019D02*
X135542475Y-53466638D01*
X135542475Y-53466638D02*
X135542475Y-53352352D01*
X135542475Y-53352352D02*
X135580571Y-53199971D01*
X135580571Y-53199971D02*
X135618666Y-53123780D01*
X135618666Y-53123780D02*
X135694856Y-53047590D01*
X135694856Y-53047590D02*
X135809142Y-53009495D01*
X135809142Y-53009495D02*
X135885333Y-53009495D01*
X135885333Y-53009495D02*
X135999618Y-53047590D01*
X135999618Y-53047590D02*
X136037714Y-53085685D01*
X136304380Y-53009495D02*
X136799618Y-53009495D01*
X136799618Y-53009495D02*
X136532952Y-53314257D01*
X136532952Y-53314257D02*
X136647237Y-53314257D01*
X136647237Y-53314257D02*
X136723428Y-53352352D01*
X136723428Y-53352352D02*
X136761523Y-53390447D01*
X136761523Y-53390447D02*
X136799618Y-53466638D01*
X136799618Y-53466638D02*
X136799618Y-53657114D01*
X136799618Y-53657114D02*
X136761523Y-53733304D01*
X136761523Y-53733304D02*
X136723428Y-53771400D01*
X136723428Y-53771400D02*
X136647237Y-53809495D01*
X136647237Y-53809495D02*
X136418666Y-53809495D01*
X136418666Y-53809495D02*
X136342475Y-53771400D01*
X136342475Y-53771400D02*
X136304380Y-53733304D01*
X137066285Y-53009495D02*
X137561523Y-53009495D01*
X137561523Y-53009495D02*
X137294857Y-53314257D01*
X137294857Y-53314257D02*
X137409142Y-53314257D01*
X137409142Y-53314257D02*
X137485333Y-53352352D01*
X137485333Y-53352352D02*
X137523428Y-53390447D01*
X137523428Y-53390447D02*
X137561523Y-53466638D01*
X137561523Y-53466638D02*
X137561523Y-53657114D01*
X137561523Y-53657114D02*
X137523428Y-53733304D01*
X137523428Y-53733304D02*
X137485333Y-53771400D01*
X137485333Y-53771400D02*
X137409142Y-53809495D01*
X137409142Y-53809495D02*
X137180571Y-53809495D01*
X137180571Y-53809495D02*
X137104380Y-53771400D01*
X137104380Y-53771400D02*
X137066285Y-53733304D01*
X144541695Y-62419085D02*
X144160742Y-62685752D01*
X144541695Y-62876228D02*
X143741695Y-62876228D01*
X143741695Y-62876228D02*
X143741695Y-62571466D01*
X143741695Y-62571466D02*
X143779790Y-62495276D01*
X143779790Y-62495276D02*
X143817885Y-62457181D01*
X143817885Y-62457181D02*
X143894076Y-62419085D01*
X143894076Y-62419085D02*
X144008361Y-62419085D01*
X144008361Y-62419085D02*
X144084552Y-62457181D01*
X144084552Y-62457181D02*
X144122647Y-62495276D01*
X144122647Y-62495276D02*
X144160742Y-62571466D01*
X144160742Y-62571466D02*
X144160742Y-62876228D01*
X144541695Y-61657181D02*
X144541695Y-62114324D01*
X144541695Y-61885752D02*
X143741695Y-61885752D01*
X143741695Y-61885752D02*
X143855980Y-61961943D01*
X143855980Y-61961943D02*
X143932171Y-62038133D01*
X143932171Y-62038133D02*
X143970266Y-62114324D01*
X143741695Y-60933371D02*
X143741695Y-61314323D01*
X143741695Y-61314323D02*
X144122647Y-61352419D01*
X144122647Y-61352419D02*
X144084552Y-61314323D01*
X144084552Y-61314323D02*
X144046457Y-61238133D01*
X144046457Y-61238133D02*
X144046457Y-61047657D01*
X144046457Y-61047657D02*
X144084552Y-60971466D01*
X144084552Y-60971466D02*
X144122647Y-60933371D01*
X144122647Y-60933371D02*
X144198838Y-60895276D01*
X144198838Y-60895276D02*
X144389314Y-60895276D01*
X144389314Y-60895276D02*
X144465504Y-60933371D01*
X144465504Y-60933371D02*
X144503600Y-60971466D01*
X144503600Y-60971466D02*
X144541695Y-61047657D01*
X144541695Y-61047657D02*
X144541695Y-61238133D01*
X144541695Y-61238133D02*
X144503600Y-61314323D01*
X144503600Y-61314323D02*
X144465504Y-61352419D01*
X120693667Y-68858304D02*
X120655571Y-68896400D01*
X120655571Y-68896400D02*
X120541286Y-68934495D01*
X120541286Y-68934495D02*
X120465095Y-68934495D01*
X120465095Y-68934495D02*
X120350809Y-68896400D01*
X120350809Y-68896400D02*
X120274619Y-68820209D01*
X120274619Y-68820209D02*
X120236524Y-68744019D01*
X120236524Y-68744019D02*
X120198428Y-68591638D01*
X120198428Y-68591638D02*
X120198428Y-68477352D01*
X120198428Y-68477352D02*
X120236524Y-68324971D01*
X120236524Y-68324971D02*
X120274619Y-68248780D01*
X120274619Y-68248780D02*
X120350809Y-68172590D01*
X120350809Y-68172590D02*
X120465095Y-68134495D01*
X120465095Y-68134495D02*
X120541286Y-68134495D01*
X120541286Y-68134495D02*
X120655571Y-68172590D01*
X120655571Y-68172590D02*
X120693667Y-68210685D01*
X121455571Y-68934495D02*
X120998428Y-68934495D01*
X121227000Y-68934495D02*
X121227000Y-68134495D01*
X121227000Y-68134495D02*
X121150809Y-68248780D01*
X121150809Y-68248780D02*
X121074619Y-68324971D01*
X121074619Y-68324971D02*
X120998428Y-68363066D01*
X141852476Y-58079495D02*
X141852476Y-58727114D01*
X141852476Y-58727114D02*
X141890571Y-58803304D01*
X141890571Y-58803304D02*
X141928666Y-58841400D01*
X141928666Y-58841400D02*
X142004857Y-58879495D01*
X142004857Y-58879495D02*
X142157238Y-58879495D01*
X142157238Y-58879495D02*
X142233428Y-58841400D01*
X142233428Y-58841400D02*
X142271523Y-58803304D01*
X142271523Y-58803304D02*
X142309619Y-58727114D01*
X142309619Y-58727114D02*
X142309619Y-58079495D01*
X142614380Y-58079495D02*
X143109618Y-58079495D01*
X143109618Y-58079495D02*
X142842952Y-58384257D01*
X142842952Y-58384257D02*
X142957237Y-58384257D01*
X142957237Y-58384257D02*
X143033428Y-58422352D01*
X143033428Y-58422352D02*
X143071523Y-58460447D01*
X143071523Y-58460447D02*
X143109618Y-58536638D01*
X143109618Y-58536638D02*
X143109618Y-58727114D01*
X143109618Y-58727114D02*
X143071523Y-58803304D01*
X143071523Y-58803304D02*
X143033428Y-58841400D01*
X143033428Y-58841400D02*
X142957237Y-58879495D01*
X142957237Y-58879495D02*
X142728666Y-58879495D01*
X142728666Y-58879495D02*
X142652475Y-58841400D01*
X142652475Y-58841400D02*
X142614380Y-58803304D01*
X93587714Y-54474495D02*
X93321047Y-54093542D01*
X93130571Y-54474495D02*
X93130571Y-53674495D01*
X93130571Y-53674495D02*
X93435333Y-53674495D01*
X93435333Y-53674495D02*
X93511523Y-53712590D01*
X93511523Y-53712590D02*
X93549618Y-53750685D01*
X93549618Y-53750685D02*
X93587714Y-53826876D01*
X93587714Y-53826876D02*
X93587714Y-53941161D01*
X93587714Y-53941161D02*
X93549618Y-54017352D01*
X93549618Y-54017352D02*
X93511523Y-54055447D01*
X93511523Y-54055447D02*
X93435333Y-54093542D01*
X93435333Y-54093542D02*
X93130571Y-54093542D01*
X94349618Y-54474495D02*
X93892475Y-54474495D01*
X94121047Y-54474495D02*
X94121047Y-53674495D01*
X94121047Y-53674495D02*
X94044856Y-53788780D01*
X94044856Y-53788780D02*
X93968666Y-53864971D01*
X93968666Y-53864971D02*
X93892475Y-53903066D01*
X95035333Y-53941161D02*
X95035333Y-54474495D01*
X94844857Y-53636400D02*
X94654380Y-54207828D01*
X94654380Y-54207828D02*
X95149619Y-54207828D01*
X133210504Y-64114085D02*
X133248600Y-64152181D01*
X133248600Y-64152181D02*
X133286695Y-64266466D01*
X133286695Y-64266466D02*
X133286695Y-64342657D01*
X133286695Y-64342657D02*
X133248600Y-64456943D01*
X133248600Y-64456943D02*
X133172409Y-64533133D01*
X133172409Y-64533133D02*
X133096219Y-64571228D01*
X133096219Y-64571228D02*
X132943838Y-64609324D01*
X132943838Y-64609324D02*
X132829552Y-64609324D01*
X132829552Y-64609324D02*
X132677171Y-64571228D01*
X132677171Y-64571228D02*
X132600980Y-64533133D01*
X132600980Y-64533133D02*
X132524790Y-64456943D01*
X132524790Y-64456943D02*
X132486695Y-64342657D01*
X132486695Y-64342657D02*
X132486695Y-64266466D01*
X132486695Y-64266466D02*
X132524790Y-64152181D01*
X132524790Y-64152181D02*
X132562885Y-64114085D01*
X132486695Y-63847419D02*
X132486695Y-63352181D01*
X132486695Y-63352181D02*
X132791457Y-63618847D01*
X132791457Y-63618847D02*
X132791457Y-63504562D01*
X132791457Y-63504562D02*
X132829552Y-63428371D01*
X132829552Y-63428371D02*
X132867647Y-63390276D01*
X132867647Y-63390276D02*
X132943838Y-63352181D01*
X132943838Y-63352181D02*
X133134314Y-63352181D01*
X133134314Y-63352181D02*
X133210504Y-63390276D01*
X133210504Y-63390276D02*
X133248600Y-63428371D01*
X133248600Y-63428371D02*
X133286695Y-63504562D01*
X133286695Y-63504562D02*
X133286695Y-63733133D01*
X133286695Y-63733133D02*
X133248600Y-63809324D01*
X133248600Y-63809324D02*
X133210504Y-63847419D01*
X132486695Y-62856942D02*
X132486695Y-62780752D01*
X132486695Y-62780752D02*
X132524790Y-62704561D01*
X132524790Y-62704561D02*
X132562885Y-62666466D01*
X132562885Y-62666466D02*
X132639076Y-62628371D01*
X132639076Y-62628371D02*
X132791457Y-62590276D01*
X132791457Y-62590276D02*
X132981933Y-62590276D01*
X132981933Y-62590276D02*
X133134314Y-62628371D01*
X133134314Y-62628371D02*
X133210504Y-62666466D01*
X133210504Y-62666466D02*
X133248600Y-62704561D01*
X133248600Y-62704561D02*
X133286695Y-62780752D01*
X133286695Y-62780752D02*
X133286695Y-62856942D01*
X133286695Y-62856942D02*
X133248600Y-62933133D01*
X133248600Y-62933133D02*
X133210504Y-62971228D01*
X133210504Y-62971228D02*
X133134314Y-63009323D01*
X133134314Y-63009323D02*
X132981933Y-63047419D01*
X132981933Y-63047419D02*
X132791457Y-63047419D01*
X132791457Y-63047419D02*
X132639076Y-63009323D01*
X132639076Y-63009323D02*
X132562885Y-62971228D01*
X132562885Y-62971228D02*
X132524790Y-62933133D01*
X132524790Y-62933133D02*
X132486695Y-62856942D01*
X129167397Y-104303304D02*
X129129301Y-104341400D01*
X129129301Y-104341400D02*
X129015016Y-104379495D01*
X129015016Y-104379495D02*
X128938825Y-104379495D01*
X128938825Y-104379495D02*
X128824539Y-104341400D01*
X128824539Y-104341400D02*
X128748349Y-104265209D01*
X128748349Y-104265209D02*
X128710254Y-104189019D01*
X128710254Y-104189019D02*
X128672158Y-104036638D01*
X128672158Y-104036638D02*
X128672158Y-103922352D01*
X128672158Y-103922352D02*
X128710254Y-103769971D01*
X128710254Y-103769971D02*
X128748349Y-103693780D01*
X128748349Y-103693780D02*
X128824539Y-103617590D01*
X128824539Y-103617590D02*
X128938825Y-103579495D01*
X128938825Y-103579495D02*
X129015016Y-103579495D01*
X129015016Y-103579495D02*
X129129301Y-103617590D01*
X129129301Y-103617590D02*
X129167397Y-103655685D01*
X129929301Y-104379495D02*
X129472158Y-104379495D01*
X129700730Y-104379495D02*
X129700730Y-103579495D01*
X129700730Y-103579495D02*
X129624539Y-103693780D01*
X129624539Y-103693780D02*
X129548349Y-103769971D01*
X129548349Y-103769971D02*
X129472158Y-103808066D01*
X130424540Y-103579495D02*
X130500730Y-103579495D01*
X130500730Y-103579495D02*
X130576921Y-103617590D01*
X130576921Y-103617590D02*
X130615016Y-103655685D01*
X130615016Y-103655685D02*
X130653111Y-103731876D01*
X130653111Y-103731876D02*
X130691206Y-103884257D01*
X130691206Y-103884257D02*
X130691206Y-104074733D01*
X130691206Y-104074733D02*
X130653111Y-104227114D01*
X130653111Y-104227114D02*
X130615016Y-104303304D01*
X130615016Y-104303304D02*
X130576921Y-104341400D01*
X130576921Y-104341400D02*
X130500730Y-104379495D01*
X130500730Y-104379495D02*
X130424540Y-104379495D01*
X130424540Y-104379495D02*
X130348349Y-104341400D01*
X130348349Y-104341400D02*
X130310254Y-104303304D01*
X130310254Y-104303304D02*
X130272159Y-104227114D01*
X130272159Y-104227114D02*
X130234063Y-104074733D01*
X130234063Y-104074733D02*
X130234063Y-103884257D01*
X130234063Y-103884257D02*
X130272159Y-103731876D01*
X130272159Y-103731876D02*
X130310254Y-103655685D01*
X130310254Y-103655685D02*
X130348349Y-103617590D01*
X130348349Y-103617590D02*
X130424540Y-103579495D01*
X109085504Y-105964085D02*
X109123600Y-106002181D01*
X109123600Y-106002181D02*
X109161695Y-106116466D01*
X109161695Y-106116466D02*
X109161695Y-106192657D01*
X109161695Y-106192657D02*
X109123600Y-106306943D01*
X109123600Y-106306943D02*
X109047409Y-106383133D01*
X109047409Y-106383133D02*
X108971219Y-106421228D01*
X108971219Y-106421228D02*
X108818838Y-106459324D01*
X108818838Y-106459324D02*
X108704552Y-106459324D01*
X108704552Y-106459324D02*
X108552171Y-106421228D01*
X108552171Y-106421228D02*
X108475980Y-106383133D01*
X108475980Y-106383133D02*
X108399790Y-106306943D01*
X108399790Y-106306943D02*
X108361695Y-106192657D01*
X108361695Y-106192657D02*
X108361695Y-106116466D01*
X108361695Y-106116466D02*
X108399790Y-106002181D01*
X108399790Y-106002181D02*
X108437885Y-105964085D01*
X108437885Y-105659324D02*
X108399790Y-105621228D01*
X108399790Y-105621228D02*
X108361695Y-105545038D01*
X108361695Y-105545038D02*
X108361695Y-105354562D01*
X108361695Y-105354562D02*
X108399790Y-105278371D01*
X108399790Y-105278371D02*
X108437885Y-105240276D01*
X108437885Y-105240276D02*
X108514076Y-105202181D01*
X108514076Y-105202181D02*
X108590266Y-105202181D01*
X108590266Y-105202181D02*
X108704552Y-105240276D01*
X108704552Y-105240276D02*
X109161695Y-105697419D01*
X109161695Y-105697419D02*
X109161695Y-105202181D01*
X108361695Y-104706942D02*
X108361695Y-104630752D01*
X108361695Y-104630752D02*
X108399790Y-104554561D01*
X108399790Y-104554561D02*
X108437885Y-104516466D01*
X108437885Y-104516466D02*
X108514076Y-104478371D01*
X108514076Y-104478371D02*
X108666457Y-104440276D01*
X108666457Y-104440276D02*
X108856933Y-104440276D01*
X108856933Y-104440276D02*
X109009314Y-104478371D01*
X109009314Y-104478371D02*
X109085504Y-104516466D01*
X109085504Y-104516466D02*
X109123600Y-104554561D01*
X109123600Y-104554561D02*
X109161695Y-104630752D01*
X109161695Y-104630752D02*
X109161695Y-104706942D01*
X109161695Y-104706942D02*
X109123600Y-104783133D01*
X109123600Y-104783133D02*
X109085504Y-104821228D01*
X109085504Y-104821228D02*
X109009314Y-104859323D01*
X109009314Y-104859323D02*
X108856933Y-104897419D01*
X108856933Y-104897419D02*
X108666457Y-104897419D01*
X108666457Y-104897419D02*
X108514076Y-104859323D01*
X108514076Y-104859323D02*
X108437885Y-104821228D01*
X108437885Y-104821228D02*
X108399790Y-104783133D01*
X108399790Y-104783133D02*
X108361695Y-104706942D01*
X122247714Y-53733304D02*
X122209618Y-53771400D01*
X122209618Y-53771400D02*
X122095333Y-53809495D01*
X122095333Y-53809495D02*
X122019142Y-53809495D01*
X122019142Y-53809495D02*
X121904856Y-53771400D01*
X121904856Y-53771400D02*
X121828666Y-53695209D01*
X121828666Y-53695209D02*
X121790571Y-53619019D01*
X121790571Y-53619019D02*
X121752475Y-53466638D01*
X121752475Y-53466638D02*
X121752475Y-53352352D01*
X121752475Y-53352352D02*
X121790571Y-53199971D01*
X121790571Y-53199971D02*
X121828666Y-53123780D01*
X121828666Y-53123780D02*
X121904856Y-53047590D01*
X121904856Y-53047590D02*
X122019142Y-53009495D01*
X122019142Y-53009495D02*
X122095333Y-53009495D01*
X122095333Y-53009495D02*
X122209618Y-53047590D01*
X122209618Y-53047590D02*
X122247714Y-53085685D01*
X122552475Y-53085685D02*
X122590571Y-53047590D01*
X122590571Y-53047590D02*
X122666761Y-53009495D01*
X122666761Y-53009495D02*
X122857237Y-53009495D01*
X122857237Y-53009495D02*
X122933428Y-53047590D01*
X122933428Y-53047590D02*
X122971523Y-53085685D01*
X122971523Y-53085685D02*
X123009618Y-53161876D01*
X123009618Y-53161876D02*
X123009618Y-53238066D01*
X123009618Y-53238066D02*
X122971523Y-53352352D01*
X122971523Y-53352352D02*
X122514380Y-53809495D01*
X122514380Y-53809495D02*
X123009618Y-53809495D01*
X123466761Y-53352352D02*
X123390571Y-53314257D01*
X123390571Y-53314257D02*
X123352476Y-53276161D01*
X123352476Y-53276161D02*
X123314380Y-53199971D01*
X123314380Y-53199971D02*
X123314380Y-53161876D01*
X123314380Y-53161876D02*
X123352476Y-53085685D01*
X123352476Y-53085685D02*
X123390571Y-53047590D01*
X123390571Y-53047590D02*
X123466761Y-53009495D01*
X123466761Y-53009495D02*
X123619142Y-53009495D01*
X123619142Y-53009495D02*
X123695333Y-53047590D01*
X123695333Y-53047590D02*
X123733428Y-53085685D01*
X123733428Y-53085685D02*
X123771523Y-53161876D01*
X123771523Y-53161876D02*
X123771523Y-53199971D01*
X123771523Y-53199971D02*
X123733428Y-53276161D01*
X123733428Y-53276161D02*
X123695333Y-53314257D01*
X123695333Y-53314257D02*
X123619142Y-53352352D01*
X123619142Y-53352352D02*
X123466761Y-53352352D01*
X123466761Y-53352352D02*
X123390571Y-53390447D01*
X123390571Y-53390447D02*
X123352476Y-53428542D01*
X123352476Y-53428542D02*
X123314380Y-53504733D01*
X123314380Y-53504733D02*
X123314380Y-53657114D01*
X123314380Y-53657114D02*
X123352476Y-53733304D01*
X123352476Y-53733304D02*
X123390571Y-53771400D01*
X123390571Y-53771400D02*
X123466761Y-53809495D01*
X123466761Y-53809495D02*
X123619142Y-53809495D01*
X123619142Y-53809495D02*
X123695333Y-53771400D01*
X123695333Y-53771400D02*
X123733428Y-53733304D01*
X123733428Y-53733304D02*
X123771523Y-53657114D01*
X123771523Y-53657114D02*
X123771523Y-53504733D01*
X123771523Y-53504733D02*
X123733428Y-53428542D01*
X123733428Y-53428542D02*
X123695333Y-53390447D01*
X123695333Y-53390447D02*
X123619142Y-53352352D01*
X117360504Y-97214085D02*
X117398600Y-97252181D01*
X117398600Y-97252181D02*
X117436695Y-97366466D01*
X117436695Y-97366466D02*
X117436695Y-97442657D01*
X117436695Y-97442657D02*
X117398600Y-97556943D01*
X117398600Y-97556943D02*
X117322409Y-97633133D01*
X117322409Y-97633133D02*
X117246219Y-97671228D01*
X117246219Y-97671228D02*
X117093838Y-97709324D01*
X117093838Y-97709324D02*
X116979552Y-97709324D01*
X116979552Y-97709324D02*
X116827171Y-97671228D01*
X116827171Y-97671228D02*
X116750980Y-97633133D01*
X116750980Y-97633133D02*
X116674790Y-97556943D01*
X116674790Y-97556943D02*
X116636695Y-97442657D01*
X116636695Y-97442657D02*
X116636695Y-97366466D01*
X116636695Y-97366466D02*
X116674790Y-97252181D01*
X116674790Y-97252181D02*
X116712885Y-97214085D01*
X117436695Y-96452181D02*
X117436695Y-96909324D01*
X117436695Y-96680752D02*
X116636695Y-96680752D01*
X116636695Y-96680752D02*
X116750980Y-96756943D01*
X116750980Y-96756943D02*
X116827171Y-96833133D01*
X116827171Y-96833133D02*
X116865266Y-96909324D01*
X116712885Y-96147419D02*
X116674790Y-96109323D01*
X116674790Y-96109323D02*
X116636695Y-96033133D01*
X116636695Y-96033133D02*
X116636695Y-95842657D01*
X116636695Y-95842657D02*
X116674790Y-95766466D01*
X116674790Y-95766466D02*
X116712885Y-95728371D01*
X116712885Y-95728371D02*
X116789076Y-95690276D01*
X116789076Y-95690276D02*
X116865266Y-95690276D01*
X116865266Y-95690276D02*
X116979552Y-95728371D01*
X116979552Y-95728371D02*
X117436695Y-96185514D01*
X117436695Y-96185514D02*
X117436695Y-95690276D01*
X94743667Y-91334495D02*
X94477000Y-90953542D01*
X94286524Y-91334495D02*
X94286524Y-90534495D01*
X94286524Y-90534495D02*
X94591286Y-90534495D01*
X94591286Y-90534495D02*
X94667476Y-90572590D01*
X94667476Y-90572590D02*
X94705571Y-90610685D01*
X94705571Y-90610685D02*
X94743667Y-90686876D01*
X94743667Y-90686876D02*
X94743667Y-90801161D01*
X94743667Y-90801161D02*
X94705571Y-90877352D01*
X94705571Y-90877352D02*
X94667476Y-90915447D01*
X94667476Y-90915447D02*
X94591286Y-90953542D01*
X94591286Y-90953542D02*
X94286524Y-90953542D01*
X95048428Y-90610685D02*
X95086524Y-90572590D01*
X95086524Y-90572590D02*
X95162714Y-90534495D01*
X95162714Y-90534495D02*
X95353190Y-90534495D01*
X95353190Y-90534495D02*
X95429381Y-90572590D01*
X95429381Y-90572590D02*
X95467476Y-90610685D01*
X95467476Y-90610685D02*
X95505571Y-90686876D01*
X95505571Y-90686876D02*
X95505571Y-90763066D01*
X95505571Y-90763066D02*
X95467476Y-90877352D01*
X95467476Y-90877352D02*
X95010333Y-91334495D01*
X95010333Y-91334495D02*
X95505571Y-91334495D01*
X115968667Y-104303304D02*
X115930571Y-104341400D01*
X115930571Y-104341400D02*
X115816286Y-104379495D01*
X115816286Y-104379495D02*
X115740095Y-104379495D01*
X115740095Y-104379495D02*
X115625809Y-104341400D01*
X115625809Y-104341400D02*
X115549619Y-104265209D01*
X115549619Y-104265209D02*
X115511524Y-104189019D01*
X115511524Y-104189019D02*
X115473428Y-104036638D01*
X115473428Y-104036638D02*
X115473428Y-103922352D01*
X115473428Y-103922352D02*
X115511524Y-103769971D01*
X115511524Y-103769971D02*
X115549619Y-103693780D01*
X115549619Y-103693780D02*
X115625809Y-103617590D01*
X115625809Y-103617590D02*
X115740095Y-103579495D01*
X115740095Y-103579495D02*
X115816286Y-103579495D01*
X115816286Y-103579495D02*
X115930571Y-103617590D01*
X115930571Y-103617590D02*
X115968667Y-103655685D01*
X116349619Y-104379495D02*
X116502000Y-104379495D01*
X116502000Y-104379495D02*
X116578190Y-104341400D01*
X116578190Y-104341400D02*
X116616286Y-104303304D01*
X116616286Y-104303304D02*
X116692476Y-104189019D01*
X116692476Y-104189019D02*
X116730571Y-104036638D01*
X116730571Y-104036638D02*
X116730571Y-103731876D01*
X116730571Y-103731876D02*
X116692476Y-103655685D01*
X116692476Y-103655685D02*
X116654381Y-103617590D01*
X116654381Y-103617590D02*
X116578190Y-103579495D01*
X116578190Y-103579495D02*
X116425809Y-103579495D01*
X116425809Y-103579495D02*
X116349619Y-103617590D01*
X116349619Y-103617590D02*
X116311524Y-103655685D01*
X116311524Y-103655685D02*
X116273428Y-103731876D01*
X116273428Y-103731876D02*
X116273428Y-103922352D01*
X116273428Y-103922352D02*
X116311524Y-103998542D01*
X116311524Y-103998542D02*
X116349619Y-104036638D01*
X116349619Y-104036638D02*
X116425809Y-104074733D01*
X116425809Y-104074733D02*
X116578190Y-104074733D01*
X116578190Y-104074733D02*
X116654381Y-104036638D01*
X116654381Y-104036638D02*
X116692476Y-103998542D01*
X116692476Y-103998542D02*
X116730571Y-103922352D01*
X125695214Y-53733304D02*
X125657118Y-53771400D01*
X125657118Y-53771400D02*
X125542833Y-53809495D01*
X125542833Y-53809495D02*
X125466642Y-53809495D01*
X125466642Y-53809495D02*
X125352356Y-53771400D01*
X125352356Y-53771400D02*
X125276166Y-53695209D01*
X125276166Y-53695209D02*
X125238071Y-53619019D01*
X125238071Y-53619019D02*
X125199975Y-53466638D01*
X125199975Y-53466638D02*
X125199975Y-53352352D01*
X125199975Y-53352352D02*
X125238071Y-53199971D01*
X125238071Y-53199971D02*
X125276166Y-53123780D01*
X125276166Y-53123780D02*
X125352356Y-53047590D01*
X125352356Y-53047590D02*
X125466642Y-53009495D01*
X125466642Y-53009495D02*
X125542833Y-53009495D01*
X125542833Y-53009495D02*
X125657118Y-53047590D01*
X125657118Y-53047590D02*
X125695214Y-53085685D01*
X125999975Y-53085685D02*
X126038071Y-53047590D01*
X126038071Y-53047590D02*
X126114261Y-53009495D01*
X126114261Y-53009495D02*
X126304737Y-53009495D01*
X126304737Y-53009495D02*
X126380928Y-53047590D01*
X126380928Y-53047590D02*
X126419023Y-53085685D01*
X126419023Y-53085685D02*
X126457118Y-53161876D01*
X126457118Y-53161876D02*
X126457118Y-53238066D01*
X126457118Y-53238066D02*
X126419023Y-53352352D01*
X126419023Y-53352352D02*
X125961880Y-53809495D01*
X125961880Y-53809495D02*
X126457118Y-53809495D01*
X126838071Y-53809495D02*
X126990452Y-53809495D01*
X126990452Y-53809495D02*
X127066642Y-53771400D01*
X127066642Y-53771400D02*
X127104738Y-53733304D01*
X127104738Y-53733304D02*
X127180928Y-53619019D01*
X127180928Y-53619019D02*
X127219023Y-53466638D01*
X127219023Y-53466638D02*
X127219023Y-53161876D01*
X127219023Y-53161876D02*
X127180928Y-53085685D01*
X127180928Y-53085685D02*
X127142833Y-53047590D01*
X127142833Y-53047590D02*
X127066642Y-53009495D01*
X127066642Y-53009495D02*
X126914261Y-53009495D01*
X126914261Y-53009495D02*
X126838071Y-53047590D01*
X126838071Y-53047590D02*
X126799976Y-53085685D01*
X126799976Y-53085685D02*
X126761880Y-53161876D01*
X126761880Y-53161876D02*
X126761880Y-53352352D01*
X126761880Y-53352352D02*
X126799976Y-53428542D01*
X126799976Y-53428542D02*
X126838071Y-53466638D01*
X126838071Y-53466638D02*
X126914261Y-53504733D01*
X126914261Y-53504733D02*
X127066642Y-53504733D01*
X127066642Y-53504733D02*
X127142833Y-53466638D01*
X127142833Y-53466638D02*
X127180928Y-53428542D01*
X127180928Y-53428542D02*
X127219023Y-53352352D01*
X102235504Y-80908132D02*
X102273600Y-80946228D01*
X102273600Y-80946228D02*
X102311695Y-81060513D01*
X102311695Y-81060513D02*
X102311695Y-81136704D01*
X102311695Y-81136704D02*
X102273600Y-81250990D01*
X102273600Y-81250990D02*
X102197409Y-81327180D01*
X102197409Y-81327180D02*
X102121219Y-81365275D01*
X102121219Y-81365275D02*
X101968838Y-81403371D01*
X101968838Y-81403371D02*
X101854552Y-81403371D01*
X101854552Y-81403371D02*
X101702171Y-81365275D01*
X101702171Y-81365275D02*
X101625980Y-81327180D01*
X101625980Y-81327180D02*
X101549790Y-81250990D01*
X101549790Y-81250990D02*
X101511695Y-81136704D01*
X101511695Y-81136704D02*
X101511695Y-81060513D01*
X101511695Y-81060513D02*
X101549790Y-80946228D01*
X101549790Y-80946228D02*
X101587885Y-80908132D01*
X101511695Y-80641466D02*
X101511695Y-80108132D01*
X101511695Y-80108132D02*
X102311695Y-80450990D01*
X88411695Y-58629085D02*
X88030742Y-58895752D01*
X88411695Y-59086228D02*
X87611695Y-59086228D01*
X87611695Y-59086228D02*
X87611695Y-58781466D01*
X87611695Y-58781466D02*
X87649790Y-58705276D01*
X87649790Y-58705276D02*
X87687885Y-58667181D01*
X87687885Y-58667181D02*
X87764076Y-58629085D01*
X87764076Y-58629085D02*
X87878361Y-58629085D01*
X87878361Y-58629085D02*
X87954552Y-58667181D01*
X87954552Y-58667181D02*
X87992647Y-58705276D01*
X87992647Y-58705276D02*
X88030742Y-58781466D01*
X88030742Y-58781466D02*
X88030742Y-59086228D01*
X88411695Y-57867181D02*
X88411695Y-58324324D01*
X88411695Y-58095752D02*
X87611695Y-58095752D01*
X87611695Y-58095752D02*
X87725980Y-58171943D01*
X87725980Y-58171943D02*
X87802171Y-58248133D01*
X87802171Y-58248133D02*
X87840266Y-58324324D01*
X87687885Y-57562419D02*
X87649790Y-57524323D01*
X87649790Y-57524323D02*
X87611695Y-57448133D01*
X87611695Y-57448133D02*
X87611695Y-57257657D01*
X87611695Y-57257657D02*
X87649790Y-57181466D01*
X87649790Y-57181466D02*
X87687885Y-57143371D01*
X87687885Y-57143371D02*
X87764076Y-57105276D01*
X87764076Y-57105276D02*
X87840266Y-57105276D01*
X87840266Y-57105276D02*
X87954552Y-57143371D01*
X87954552Y-57143371D02*
X88411695Y-57600514D01*
X88411695Y-57600514D02*
X88411695Y-57105276D01*
X119155571Y-78515447D02*
X119269857Y-78553542D01*
X119269857Y-78553542D02*
X119307952Y-78591638D01*
X119307952Y-78591638D02*
X119346048Y-78667828D01*
X119346048Y-78667828D02*
X119346048Y-78782114D01*
X119346048Y-78782114D02*
X119307952Y-78858304D01*
X119307952Y-78858304D02*
X119269857Y-78896400D01*
X119269857Y-78896400D02*
X119193667Y-78934495D01*
X119193667Y-78934495D02*
X118888905Y-78934495D01*
X118888905Y-78934495D02*
X118888905Y-78134495D01*
X118888905Y-78134495D02*
X119155571Y-78134495D01*
X119155571Y-78134495D02*
X119231762Y-78172590D01*
X119231762Y-78172590D02*
X119269857Y-78210685D01*
X119269857Y-78210685D02*
X119307952Y-78286876D01*
X119307952Y-78286876D02*
X119307952Y-78363066D01*
X119307952Y-78363066D02*
X119269857Y-78439257D01*
X119269857Y-78439257D02*
X119231762Y-78477352D01*
X119231762Y-78477352D02*
X119155571Y-78515447D01*
X119155571Y-78515447D02*
X118888905Y-78515447D01*
X119650809Y-78705923D02*
X120031762Y-78705923D01*
X119574619Y-78934495D02*
X119841286Y-78134495D01*
X119841286Y-78134495D02*
X120107952Y-78934495D01*
X120260333Y-78134495D02*
X120717476Y-78134495D01*
X120488904Y-78934495D02*
X120488904Y-78134495D01*
X121403190Y-78934495D02*
X120946047Y-78934495D01*
X121174619Y-78934495D02*
X121174619Y-78134495D01*
X121174619Y-78134495D02*
X121098428Y-78248780D01*
X121098428Y-78248780D02*
X121022238Y-78324971D01*
X121022238Y-78324971D02*
X120946047Y-78363066D01*
X134745733Y-71279473D02*
X134745733Y-72041378D01*
X134364780Y-71660425D02*
X135126685Y-71660425D01*
X134888590Y-72850901D02*
X134840971Y-72993758D01*
X134840971Y-72993758D02*
X134793352Y-73041377D01*
X134793352Y-73041377D02*
X134698114Y-73088996D01*
X134698114Y-73088996D02*
X134555257Y-73088996D01*
X134555257Y-73088996D02*
X134460019Y-73041377D01*
X134460019Y-73041377D02*
X134412400Y-72993758D01*
X134412400Y-72993758D02*
X134364780Y-72898520D01*
X134364780Y-72898520D02*
X134364780Y-72517568D01*
X134364780Y-72517568D02*
X135364780Y-72517568D01*
X135364780Y-72517568D02*
X135364780Y-72850901D01*
X135364780Y-72850901D02*
X135317161Y-72946139D01*
X135317161Y-72946139D02*
X135269542Y-72993758D01*
X135269542Y-72993758D02*
X135174304Y-73041377D01*
X135174304Y-73041377D02*
X135079066Y-73041377D01*
X135079066Y-73041377D02*
X134983828Y-72993758D01*
X134983828Y-72993758D02*
X134936209Y-72946139D01*
X134936209Y-72946139D02*
X134888590Y-72850901D01*
X134888590Y-72850901D02*
X134888590Y-72517568D01*
X134364780Y-73946139D02*
X134888590Y-73946139D01*
X134888590Y-73946139D02*
X134983828Y-73898520D01*
X134983828Y-73898520D02*
X135031447Y-73803282D01*
X135031447Y-73803282D02*
X135031447Y-73612806D01*
X135031447Y-73612806D02*
X134983828Y-73517568D01*
X134412400Y-73946139D02*
X134364780Y-73850901D01*
X134364780Y-73850901D02*
X134364780Y-73612806D01*
X134364780Y-73612806D02*
X134412400Y-73517568D01*
X134412400Y-73517568D02*
X134507638Y-73469949D01*
X134507638Y-73469949D02*
X134602876Y-73469949D01*
X134602876Y-73469949D02*
X134698114Y-73517568D01*
X134698114Y-73517568D02*
X134745733Y-73612806D01*
X134745733Y-73612806D02*
X134745733Y-73850901D01*
X134745733Y-73850901D02*
X134793352Y-73946139D01*
X135031447Y-74279473D02*
X135031447Y-74660425D01*
X135364780Y-74422330D02*
X134507638Y-74422330D01*
X134507638Y-74422330D02*
X134412400Y-74469949D01*
X134412400Y-74469949D02*
X134364780Y-74565187D01*
X134364780Y-74565187D02*
X134364780Y-74660425D01*
X135031447Y-74850902D02*
X135031447Y-75231854D01*
X135364780Y-74993759D02*
X134507638Y-74993759D01*
X134507638Y-74993759D02*
X134412400Y-75041378D01*
X134412400Y-75041378D02*
X134364780Y-75136616D01*
X134364780Y-75136616D02*
X134364780Y-75231854D01*
X112285733Y-71907473D02*
X112285733Y-72669378D01*
X112428590Y-73478901D02*
X112380971Y-73621758D01*
X112380971Y-73621758D02*
X112333352Y-73669377D01*
X112333352Y-73669377D02*
X112238114Y-73716996D01*
X112238114Y-73716996D02*
X112095257Y-73716996D01*
X112095257Y-73716996D02*
X112000019Y-73669377D01*
X112000019Y-73669377D02*
X111952400Y-73621758D01*
X111952400Y-73621758D02*
X111904780Y-73526520D01*
X111904780Y-73526520D02*
X111904780Y-73145568D01*
X111904780Y-73145568D02*
X112904780Y-73145568D01*
X112904780Y-73145568D02*
X112904780Y-73478901D01*
X112904780Y-73478901D02*
X112857161Y-73574139D01*
X112857161Y-73574139D02*
X112809542Y-73621758D01*
X112809542Y-73621758D02*
X112714304Y-73669377D01*
X112714304Y-73669377D02*
X112619066Y-73669377D01*
X112619066Y-73669377D02*
X112523828Y-73621758D01*
X112523828Y-73621758D02*
X112476209Y-73574139D01*
X112476209Y-73574139D02*
X112428590Y-73478901D01*
X112428590Y-73478901D02*
X112428590Y-73145568D01*
X111904780Y-74574139D02*
X112428590Y-74574139D01*
X112428590Y-74574139D02*
X112523828Y-74526520D01*
X112523828Y-74526520D02*
X112571447Y-74431282D01*
X112571447Y-74431282D02*
X112571447Y-74240806D01*
X112571447Y-74240806D02*
X112523828Y-74145568D01*
X111952400Y-74574139D02*
X111904780Y-74478901D01*
X111904780Y-74478901D02*
X111904780Y-74240806D01*
X111904780Y-74240806D02*
X111952400Y-74145568D01*
X111952400Y-74145568D02*
X112047638Y-74097949D01*
X112047638Y-74097949D02*
X112142876Y-74097949D01*
X112142876Y-74097949D02*
X112238114Y-74145568D01*
X112238114Y-74145568D02*
X112285733Y-74240806D01*
X112285733Y-74240806D02*
X112285733Y-74478901D01*
X112285733Y-74478901D02*
X112333352Y-74574139D01*
X112571447Y-74907473D02*
X112571447Y-75288425D01*
X112904780Y-75050330D02*
X112047638Y-75050330D01*
X112047638Y-75050330D02*
X111952400Y-75097949D01*
X111952400Y-75097949D02*
X111904780Y-75193187D01*
X111904780Y-75193187D02*
X111904780Y-75288425D01*
X112571447Y-75478902D02*
X112571447Y-75859854D01*
X112904780Y-75621759D02*
X112047638Y-75621759D01*
X112047638Y-75621759D02*
X111952400Y-75669378D01*
X111952400Y-75669378D02*
X111904780Y-75764616D01*
X111904780Y-75764616D02*
X111904780Y-75859854D01*
X96212714Y-54474495D02*
X95946047Y-54093542D01*
X95755571Y-54474495D02*
X95755571Y-53674495D01*
X95755571Y-53674495D02*
X96060333Y-53674495D01*
X96060333Y-53674495D02*
X96136523Y-53712590D01*
X96136523Y-53712590D02*
X96174618Y-53750685D01*
X96174618Y-53750685D02*
X96212714Y-53826876D01*
X96212714Y-53826876D02*
X96212714Y-53941161D01*
X96212714Y-53941161D02*
X96174618Y-54017352D01*
X96174618Y-54017352D02*
X96136523Y-54055447D01*
X96136523Y-54055447D02*
X96060333Y-54093542D01*
X96060333Y-54093542D02*
X95755571Y-54093542D01*
X96974618Y-54474495D02*
X96517475Y-54474495D01*
X96746047Y-54474495D02*
X96746047Y-53674495D01*
X96746047Y-53674495D02*
X96669856Y-53788780D01*
X96669856Y-53788780D02*
X96593666Y-53864971D01*
X96593666Y-53864971D02*
X96517475Y-53903066D01*
X97241285Y-53674495D02*
X97736523Y-53674495D01*
X97736523Y-53674495D02*
X97469857Y-53979257D01*
X97469857Y-53979257D02*
X97584142Y-53979257D01*
X97584142Y-53979257D02*
X97660333Y-54017352D01*
X97660333Y-54017352D02*
X97698428Y-54055447D01*
X97698428Y-54055447D02*
X97736523Y-54131638D01*
X97736523Y-54131638D02*
X97736523Y-54322114D01*
X97736523Y-54322114D02*
X97698428Y-54398304D01*
X97698428Y-54398304D02*
X97660333Y-54436400D01*
X97660333Y-54436400D02*
X97584142Y-54474495D01*
X97584142Y-54474495D02*
X97355571Y-54474495D01*
X97355571Y-54474495D02*
X97279380Y-54436400D01*
X97279380Y-54436400D02*
X97241285Y-54398304D01*
X89636695Y-58579085D02*
X89255742Y-58845752D01*
X89636695Y-59036228D02*
X88836695Y-59036228D01*
X88836695Y-59036228D02*
X88836695Y-58731466D01*
X88836695Y-58731466D02*
X88874790Y-58655276D01*
X88874790Y-58655276D02*
X88912885Y-58617181D01*
X88912885Y-58617181D02*
X88989076Y-58579085D01*
X88989076Y-58579085D02*
X89103361Y-58579085D01*
X89103361Y-58579085D02*
X89179552Y-58617181D01*
X89179552Y-58617181D02*
X89217647Y-58655276D01*
X89217647Y-58655276D02*
X89255742Y-58731466D01*
X89255742Y-58731466D02*
X89255742Y-59036228D01*
X89636695Y-57817181D02*
X89636695Y-58274324D01*
X89636695Y-58045752D02*
X88836695Y-58045752D01*
X88836695Y-58045752D02*
X88950980Y-58121943D01*
X88950980Y-58121943D02*
X89027171Y-58198133D01*
X89027171Y-58198133D02*
X89065266Y-58274324D01*
X88836695Y-57321942D02*
X88836695Y-57245752D01*
X88836695Y-57245752D02*
X88874790Y-57169561D01*
X88874790Y-57169561D02*
X88912885Y-57131466D01*
X88912885Y-57131466D02*
X88989076Y-57093371D01*
X88989076Y-57093371D02*
X89141457Y-57055276D01*
X89141457Y-57055276D02*
X89331933Y-57055276D01*
X89331933Y-57055276D02*
X89484314Y-57093371D01*
X89484314Y-57093371D02*
X89560504Y-57131466D01*
X89560504Y-57131466D02*
X89598600Y-57169561D01*
X89598600Y-57169561D02*
X89636695Y-57245752D01*
X89636695Y-57245752D02*
X89636695Y-57321942D01*
X89636695Y-57321942D02*
X89598600Y-57398133D01*
X89598600Y-57398133D02*
X89560504Y-57436228D01*
X89560504Y-57436228D02*
X89484314Y-57474323D01*
X89484314Y-57474323D02*
X89331933Y-57512419D01*
X89331933Y-57512419D02*
X89141457Y-57512419D01*
X89141457Y-57512419D02*
X88989076Y-57474323D01*
X88989076Y-57474323D02*
X88912885Y-57436228D01*
X88912885Y-57436228D02*
X88874790Y-57398133D01*
X88874790Y-57398133D02*
X88836695Y-57321942D01*
X125677238Y-104303304D02*
X125639142Y-104341400D01*
X125639142Y-104341400D02*
X125524857Y-104379495D01*
X125524857Y-104379495D02*
X125448666Y-104379495D01*
X125448666Y-104379495D02*
X125334380Y-104341400D01*
X125334380Y-104341400D02*
X125258190Y-104265209D01*
X125258190Y-104265209D02*
X125220095Y-104189019D01*
X125220095Y-104189019D02*
X125181999Y-104036638D01*
X125181999Y-104036638D02*
X125181999Y-103922352D01*
X125181999Y-103922352D02*
X125220095Y-103769971D01*
X125220095Y-103769971D02*
X125258190Y-103693780D01*
X125258190Y-103693780D02*
X125334380Y-103617590D01*
X125334380Y-103617590D02*
X125448666Y-103579495D01*
X125448666Y-103579495D02*
X125524857Y-103579495D01*
X125524857Y-103579495D02*
X125639142Y-103617590D01*
X125639142Y-103617590D02*
X125677238Y-103655685D01*
X126439142Y-104379495D02*
X125981999Y-104379495D01*
X126210571Y-104379495D02*
X126210571Y-103579495D01*
X126210571Y-103579495D02*
X126134380Y-103693780D01*
X126134380Y-103693780D02*
X126058190Y-103769971D01*
X126058190Y-103769971D02*
X125981999Y-103808066D01*
X127124857Y-103846161D02*
X127124857Y-104379495D01*
X126934381Y-103541400D02*
X126743904Y-104112828D01*
X126743904Y-104112828D02*
X127239143Y-104112828D01*
X90762714Y-54474495D02*
X90496047Y-54093542D01*
X90305571Y-54474495D02*
X90305571Y-53674495D01*
X90305571Y-53674495D02*
X90610333Y-53674495D01*
X90610333Y-53674495D02*
X90686523Y-53712590D01*
X90686523Y-53712590D02*
X90724618Y-53750685D01*
X90724618Y-53750685D02*
X90762714Y-53826876D01*
X90762714Y-53826876D02*
X90762714Y-53941161D01*
X90762714Y-53941161D02*
X90724618Y-54017352D01*
X90724618Y-54017352D02*
X90686523Y-54055447D01*
X90686523Y-54055447D02*
X90610333Y-54093542D01*
X90610333Y-54093542D02*
X90305571Y-54093542D01*
X91524618Y-54474495D02*
X91067475Y-54474495D01*
X91296047Y-54474495D02*
X91296047Y-53674495D01*
X91296047Y-53674495D02*
X91219856Y-53788780D01*
X91219856Y-53788780D02*
X91143666Y-53864971D01*
X91143666Y-53864971D02*
X91067475Y-53903066D01*
X92286523Y-54474495D02*
X91829380Y-54474495D01*
X92057952Y-54474495D02*
X92057952Y-53674495D01*
X92057952Y-53674495D02*
X91981761Y-53788780D01*
X91981761Y-53788780D02*
X91905571Y-53864971D01*
X91905571Y-53864971D02*
X91829380Y-53903066D01*
X150327714Y-61484495D02*
X150061047Y-61103542D01*
X149870571Y-61484495D02*
X149870571Y-60684495D01*
X149870571Y-60684495D02*
X150175333Y-60684495D01*
X150175333Y-60684495D02*
X150251523Y-60722590D01*
X150251523Y-60722590D02*
X150289618Y-60760685D01*
X150289618Y-60760685D02*
X150327714Y-60836876D01*
X150327714Y-60836876D02*
X150327714Y-60951161D01*
X150327714Y-60951161D02*
X150289618Y-61027352D01*
X150289618Y-61027352D02*
X150251523Y-61065447D01*
X150251523Y-61065447D02*
X150175333Y-61103542D01*
X150175333Y-61103542D02*
X149870571Y-61103542D01*
X151089618Y-61484495D02*
X150632475Y-61484495D01*
X150861047Y-61484495D02*
X150861047Y-60684495D01*
X150861047Y-60684495D02*
X150784856Y-60798780D01*
X150784856Y-60798780D02*
X150708666Y-60874971D01*
X150708666Y-60874971D02*
X150632475Y-60913066D01*
X151775333Y-60684495D02*
X151622952Y-60684495D01*
X151622952Y-60684495D02*
X151546761Y-60722590D01*
X151546761Y-60722590D02*
X151508666Y-60760685D01*
X151508666Y-60760685D02*
X151432476Y-60874971D01*
X151432476Y-60874971D02*
X151394380Y-61027352D01*
X151394380Y-61027352D02*
X151394380Y-61332114D01*
X151394380Y-61332114D02*
X151432476Y-61408304D01*
X151432476Y-61408304D02*
X151470571Y-61446400D01*
X151470571Y-61446400D02*
X151546761Y-61484495D01*
X151546761Y-61484495D02*
X151699142Y-61484495D01*
X151699142Y-61484495D02*
X151775333Y-61446400D01*
X151775333Y-61446400D02*
X151813428Y-61408304D01*
X151813428Y-61408304D02*
X151851523Y-61332114D01*
X151851523Y-61332114D02*
X151851523Y-61141638D01*
X151851523Y-61141638D02*
X151813428Y-61065447D01*
X151813428Y-61065447D02*
X151775333Y-61027352D01*
X151775333Y-61027352D02*
X151699142Y-60989257D01*
X151699142Y-60989257D02*
X151546761Y-60989257D01*
X151546761Y-60989257D02*
X151470571Y-61027352D01*
X151470571Y-61027352D02*
X151432476Y-61065447D01*
X151432476Y-61065447D02*
X151394380Y-61141638D01*
X100042476Y-84984495D02*
X100042476Y-85632114D01*
X100042476Y-85632114D02*
X100080571Y-85708304D01*
X100080571Y-85708304D02*
X100118666Y-85746400D01*
X100118666Y-85746400D02*
X100194857Y-85784495D01*
X100194857Y-85784495D02*
X100347238Y-85784495D01*
X100347238Y-85784495D02*
X100423428Y-85746400D01*
X100423428Y-85746400D02*
X100461523Y-85708304D01*
X100461523Y-85708304D02*
X100499619Y-85632114D01*
X100499619Y-85632114D02*
X100499619Y-84984495D01*
X101299618Y-85784495D02*
X100842475Y-85784495D01*
X101071047Y-85784495D02*
X101071047Y-84984495D01*
X101071047Y-84984495D02*
X100994856Y-85098780D01*
X100994856Y-85098780D02*
X100918666Y-85174971D01*
X100918666Y-85174971D02*
X100842475Y-85213066D01*
X95495504Y-60189085D02*
X95533600Y-60227181D01*
X95533600Y-60227181D02*
X95571695Y-60341466D01*
X95571695Y-60341466D02*
X95571695Y-60417657D01*
X95571695Y-60417657D02*
X95533600Y-60531943D01*
X95533600Y-60531943D02*
X95457409Y-60608133D01*
X95457409Y-60608133D02*
X95381219Y-60646228D01*
X95381219Y-60646228D02*
X95228838Y-60684324D01*
X95228838Y-60684324D02*
X95114552Y-60684324D01*
X95114552Y-60684324D02*
X94962171Y-60646228D01*
X94962171Y-60646228D02*
X94885980Y-60608133D01*
X94885980Y-60608133D02*
X94809790Y-60531943D01*
X94809790Y-60531943D02*
X94771695Y-60417657D01*
X94771695Y-60417657D02*
X94771695Y-60341466D01*
X94771695Y-60341466D02*
X94809790Y-60227181D01*
X94809790Y-60227181D02*
X94847885Y-60189085D01*
X94847885Y-59884324D02*
X94809790Y-59846228D01*
X94809790Y-59846228D02*
X94771695Y-59770038D01*
X94771695Y-59770038D02*
X94771695Y-59579562D01*
X94771695Y-59579562D02*
X94809790Y-59503371D01*
X94809790Y-59503371D02*
X94847885Y-59465276D01*
X94847885Y-59465276D02*
X94924076Y-59427181D01*
X94924076Y-59427181D02*
X95000266Y-59427181D01*
X95000266Y-59427181D02*
X95114552Y-59465276D01*
X95114552Y-59465276D02*
X95571695Y-59922419D01*
X95571695Y-59922419D02*
X95571695Y-59427181D01*
X94771695Y-58741466D02*
X94771695Y-58893847D01*
X94771695Y-58893847D02*
X94809790Y-58970038D01*
X94809790Y-58970038D02*
X94847885Y-59008133D01*
X94847885Y-59008133D02*
X94962171Y-59084323D01*
X94962171Y-59084323D02*
X95114552Y-59122419D01*
X95114552Y-59122419D02*
X95419314Y-59122419D01*
X95419314Y-59122419D02*
X95495504Y-59084323D01*
X95495504Y-59084323D02*
X95533600Y-59046228D01*
X95533600Y-59046228D02*
X95571695Y-58970038D01*
X95571695Y-58970038D02*
X95571695Y-58817657D01*
X95571695Y-58817657D02*
X95533600Y-58741466D01*
X95533600Y-58741466D02*
X95495504Y-58703371D01*
X95495504Y-58703371D02*
X95419314Y-58665276D01*
X95419314Y-58665276D02*
X95228838Y-58665276D01*
X95228838Y-58665276D02*
X95152647Y-58703371D01*
X95152647Y-58703371D02*
X95114552Y-58741466D01*
X95114552Y-58741466D02*
X95076457Y-58817657D01*
X95076457Y-58817657D02*
X95076457Y-58970038D01*
X95076457Y-58970038D02*
X95114552Y-59046228D01*
X95114552Y-59046228D02*
X95152647Y-59084323D01*
X95152647Y-59084323D02*
X95228838Y-59122419D01*
X132657555Y-104303304D02*
X132619459Y-104341400D01*
X132619459Y-104341400D02*
X132505174Y-104379495D01*
X132505174Y-104379495D02*
X132428983Y-104379495D01*
X132428983Y-104379495D02*
X132314697Y-104341400D01*
X132314697Y-104341400D02*
X132238507Y-104265209D01*
X132238507Y-104265209D02*
X132200412Y-104189019D01*
X132200412Y-104189019D02*
X132162316Y-104036638D01*
X132162316Y-104036638D02*
X132162316Y-103922352D01*
X132162316Y-103922352D02*
X132200412Y-103769971D01*
X132200412Y-103769971D02*
X132238507Y-103693780D01*
X132238507Y-103693780D02*
X132314697Y-103617590D01*
X132314697Y-103617590D02*
X132428983Y-103579495D01*
X132428983Y-103579495D02*
X132505174Y-103579495D01*
X132505174Y-103579495D02*
X132619459Y-103617590D01*
X132619459Y-103617590D02*
X132657555Y-103655685D01*
X133419459Y-104379495D02*
X132962316Y-104379495D01*
X133190888Y-104379495D02*
X133190888Y-103579495D01*
X133190888Y-103579495D02*
X133114697Y-103693780D01*
X133114697Y-103693780D02*
X133038507Y-103769971D01*
X133038507Y-103769971D02*
X132962316Y-103808066D01*
X134143269Y-103579495D02*
X133762317Y-103579495D01*
X133762317Y-103579495D02*
X133724221Y-103960447D01*
X133724221Y-103960447D02*
X133762317Y-103922352D01*
X133762317Y-103922352D02*
X133838507Y-103884257D01*
X133838507Y-103884257D02*
X134028983Y-103884257D01*
X134028983Y-103884257D02*
X134105174Y-103922352D01*
X134105174Y-103922352D02*
X134143269Y-103960447D01*
X134143269Y-103960447D02*
X134181364Y-104036638D01*
X134181364Y-104036638D02*
X134181364Y-104227114D01*
X134181364Y-104227114D02*
X134143269Y-104303304D01*
X134143269Y-104303304D02*
X134105174Y-104341400D01*
X134105174Y-104341400D02*
X134028983Y-104379495D01*
X134028983Y-104379495D02*
X133838507Y-104379495D01*
X133838507Y-104379495D02*
X133762317Y-104341400D01*
X133762317Y-104341400D02*
X133724221Y-104303304D01*
X122187079Y-104303304D02*
X122148983Y-104341400D01*
X122148983Y-104341400D02*
X122034698Y-104379495D01*
X122034698Y-104379495D02*
X121958507Y-104379495D01*
X121958507Y-104379495D02*
X121844221Y-104341400D01*
X121844221Y-104341400D02*
X121768031Y-104265209D01*
X121768031Y-104265209D02*
X121729936Y-104189019D01*
X121729936Y-104189019D02*
X121691840Y-104036638D01*
X121691840Y-104036638D02*
X121691840Y-103922352D01*
X121691840Y-103922352D02*
X121729936Y-103769971D01*
X121729936Y-103769971D02*
X121768031Y-103693780D01*
X121768031Y-103693780D02*
X121844221Y-103617590D01*
X121844221Y-103617590D02*
X121958507Y-103579495D01*
X121958507Y-103579495D02*
X122034698Y-103579495D01*
X122034698Y-103579495D02*
X122148983Y-103617590D01*
X122148983Y-103617590D02*
X122187079Y-103655685D01*
X122948983Y-104379495D02*
X122491840Y-104379495D01*
X122720412Y-104379495D02*
X122720412Y-103579495D01*
X122720412Y-103579495D02*
X122644221Y-103693780D01*
X122644221Y-103693780D02*
X122568031Y-103769971D01*
X122568031Y-103769971D02*
X122491840Y-103808066D01*
X123634698Y-103579495D02*
X123482317Y-103579495D01*
X123482317Y-103579495D02*
X123406126Y-103617590D01*
X123406126Y-103617590D02*
X123368031Y-103655685D01*
X123368031Y-103655685D02*
X123291841Y-103769971D01*
X123291841Y-103769971D02*
X123253745Y-103922352D01*
X123253745Y-103922352D02*
X123253745Y-104227114D01*
X123253745Y-104227114D02*
X123291841Y-104303304D01*
X123291841Y-104303304D02*
X123329936Y-104341400D01*
X123329936Y-104341400D02*
X123406126Y-104379495D01*
X123406126Y-104379495D02*
X123558507Y-104379495D01*
X123558507Y-104379495D02*
X123634698Y-104341400D01*
X123634698Y-104341400D02*
X123672793Y-104303304D01*
X123672793Y-104303304D02*
X123710888Y-104227114D01*
X123710888Y-104227114D02*
X123710888Y-104036638D01*
X123710888Y-104036638D02*
X123672793Y-103960447D01*
X123672793Y-103960447D02*
X123634698Y-103922352D01*
X123634698Y-103922352D02*
X123558507Y-103884257D01*
X123558507Y-103884257D02*
X123406126Y-103884257D01*
X123406126Y-103884257D02*
X123329936Y-103922352D01*
X123329936Y-103922352D02*
X123291841Y-103960447D01*
X123291841Y-103960447D02*
X123253745Y-104036638D01*
X113018666Y-67834495D02*
X112637714Y-67834495D01*
X112637714Y-67834495D02*
X112637714Y-67034495D01*
X113247237Y-67110685D02*
X113285333Y-67072590D01*
X113285333Y-67072590D02*
X113361523Y-67034495D01*
X113361523Y-67034495D02*
X113551999Y-67034495D01*
X113551999Y-67034495D02*
X113628190Y-67072590D01*
X113628190Y-67072590D02*
X113666285Y-67110685D01*
X113666285Y-67110685D02*
X113704380Y-67186876D01*
X113704380Y-67186876D02*
X113704380Y-67263066D01*
X113704380Y-67263066D02*
X113666285Y-67377352D01*
X113666285Y-67377352D02*
X113209142Y-67834495D01*
X113209142Y-67834495D02*
X113704380Y-67834495D01*
X96518667Y-68358304D02*
X96480571Y-68396400D01*
X96480571Y-68396400D02*
X96366286Y-68434495D01*
X96366286Y-68434495D02*
X96290095Y-68434495D01*
X96290095Y-68434495D02*
X96175809Y-68396400D01*
X96175809Y-68396400D02*
X96099619Y-68320209D01*
X96099619Y-68320209D02*
X96061524Y-68244019D01*
X96061524Y-68244019D02*
X96023428Y-68091638D01*
X96023428Y-68091638D02*
X96023428Y-67977352D01*
X96023428Y-67977352D02*
X96061524Y-67824971D01*
X96061524Y-67824971D02*
X96099619Y-67748780D01*
X96099619Y-67748780D02*
X96175809Y-67672590D01*
X96175809Y-67672590D02*
X96290095Y-67634495D01*
X96290095Y-67634495D02*
X96366286Y-67634495D01*
X96366286Y-67634495D02*
X96480571Y-67672590D01*
X96480571Y-67672590D02*
X96518667Y-67710685D01*
X96823428Y-67710685D02*
X96861524Y-67672590D01*
X96861524Y-67672590D02*
X96937714Y-67634495D01*
X96937714Y-67634495D02*
X97128190Y-67634495D01*
X97128190Y-67634495D02*
X97204381Y-67672590D01*
X97204381Y-67672590D02*
X97242476Y-67710685D01*
X97242476Y-67710685D02*
X97280571Y-67786876D01*
X97280571Y-67786876D02*
X97280571Y-67863066D01*
X97280571Y-67863066D02*
X97242476Y-67977352D01*
X97242476Y-67977352D02*
X96785333Y-68434495D01*
X96785333Y-68434495D02*
X97280571Y-68434495D01*
D11*
X130427000Y-92424800D02*
X130427000Y-93224800D01*
X130427000Y-93224800D02*
X131127000Y-92824800D01*
X131127000Y-92824800D02*
X130427000Y-92424800D01*
X131927000Y-87344800D02*
X146927000Y-87344800D01*
X131927000Y-95754800D02*
X131927000Y-87344800D01*
X134777000Y-95754800D02*
X131927000Y-95754800D01*
X146927000Y-87344800D02*
X146927000Y-95754800D01*
X146927000Y-95754800D02*
X137077000Y-95754800D01*
D12*
X148082000Y-58329220D02*
X148082000Y-58610380D01*
X149102000Y-58329220D02*
X149102000Y-58610380D01*
X93634500Y-83932542D02*
X93634500Y-84407058D01*
X94679500Y-83932542D02*
X94679500Y-84407058D01*
X128422000Y-57116052D02*
X128422000Y-55693548D01*
X131142000Y-57116052D02*
X131142000Y-55693548D01*
X121067000Y-63890380D02*
X121067000Y-63609220D01*
X122087000Y-63890380D02*
X122087000Y-63609220D01*
X94307580Y-62349800D02*
X94026420Y-62349800D01*
X94307580Y-63369800D02*
X94026420Y-63369800D01*
X135292000Y-85336052D02*
X135292000Y-83913548D01*
X138012000Y-85336052D02*
X138012000Y-83913548D01*
X118122000Y-100088548D02*
X118122000Y-101511052D01*
X120842000Y-100088548D02*
X120842000Y-101511052D01*
X95119258Y-80767300D02*
X94644742Y-80767300D01*
X95119258Y-81812300D02*
X94644742Y-81812300D01*
X97592580Y-88939800D02*
X97311420Y-88939800D01*
X97592580Y-89959800D02*
X97311420Y-89959800D01*
X96782000Y-86430380D02*
X96782000Y-86149220D01*
X97802000Y-86430380D02*
X97802000Y-86149220D01*
X135272000Y-100088548D02*
X135272000Y-101511052D01*
X137992000Y-100088548D02*
X137992000Y-101511052D01*
X131942000Y-85336052D02*
X131942000Y-83913548D01*
X134662000Y-85336052D02*
X134662000Y-83913548D01*
X105438252Y-82889800D02*
X104915748Y-82889800D01*
X105438252Y-84359800D02*
X104915748Y-84359800D01*
X98022000Y-56435380D02*
X98022000Y-56154220D01*
X99042000Y-56435380D02*
X99042000Y-56154220D01*
X95144500Y-84407058D02*
X95144500Y-83932542D01*
X96189500Y-84407058D02*
X96189500Y-83932542D01*
X99372580Y-64682300D02*
X99091420Y-64682300D01*
X99372580Y-65702300D02*
X99091420Y-65702300D01*
X102652580Y-91849800D02*
X102371420Y-91849800D01*
X102652580Y-92869800D02*
X102371420Y-92869800D01*
X125242000Y-85336052D02*
X125242000Y-83913548D01*
X127962000Y-85336052D02*
X127962000Y-83913548D01*
X131852000Y-57136052D02*
X131852000Y-55713548D01*
X134572000Y-57136052D02*
X134572000Y-55713548D01*
X123542000Y-84484220D02*
X123542000Y-84765380D01*
X124562000Y-84484220D02*
X124562000Y-84765380D01*
X144824742Y-55517300D02*
X145299258Y-55517300D01*
X144824742Y-56562300D02*
X145299258Y-56562300D01*
D11*
X109062000Y-82274800D02*
X122562000Y-82274800D01*
X109062000Y-85704800D02*
X109062000Y-82274800D01*
X109062000Y-94774800D02*
X109062000Y-91344800D01*
X122562000Y-82274800D02*
X122562000Y-85704800D01*
X122562000Y-94774800D02*
X109062000Y-94774800D01*
X122562000Y-94774800D02*
X122562000Y-91344800D01*
D12*
X122767000Y-62938548D02*
X122767000Y-64361052D01*
X125487000Y-62938548D02*
X125487000Y-64361052D01*
X94414258Y-63877300D02*
X93939742Y-63877300D01*
X94414258Y-64922300D02*
X93939742Y-64922300D01*
X128592000Y-85336052D02*
X128592000Y-83913548D01*
X131312000Y-85336052D02*
X131312000Y-83913548D01*
X96759500Y-82987542D02*
X96759500Y-83462058D01*
X97804500Y-82987542D02*
X97804500Y-83462058D01*
X102048252Y-55139800D02*
X101525748Y-55139800D01*
X102048252Y-56609800D02*
X101525748Y-56609800D01*
D11*
X97297000Y-59209800D02*
X97552000Y-59209800D01*
X97297000Y-59264800D02*
X97297000Y-59209800D01*
X97297000Y-63209800D02*
X97297000Y-63154800D01*
X97702000Y-63209800D02*
X97297000Y-63209800D01*
X101297000Y-59209800D02*
X101192000Y-59209800D01*
X101297000Y-59209800D02*
X101297000Y-59714800D01*
X101297000Y-63154800D02*
X101297000Y-63209800D01*
X101297000Y-63209800D02*
X100892000Y-63209800D01*
D10*
X98572000Y-64509800D02*
G75*
G02*
X98372000Y-64509800I-100000J0D01*
G01*
X98372000Y-64509800D02*
G75*
G02*
X98572000Y-64509800I100000J0D01*
G01*
D12*
X99824258Y-81942300D02*
X99349742Y-81942300D01*
X99824258Y-82987300D02*
X99349742Y-82987300D01*
X135302000Y-57166052D02*
X135302000Y-55743548D01*
X138022000Y-57166052D02*
X138022000Y-55743548D01*
X145199500Y-61692542D02*
X145199500Y-62167058D01*
X146244500Y-61692542D02*
X146244500Y-62167058D01*
X145644500Y-57119800D02*
X144844500Y-57119800D01*
X145644500Y-57119800D02*
X146444500Y-57119800D01*
X145644500Y-60239800D02*
X144844500Y-60239800D01*
X145644500Y-60239800D02*
X146444500Y-60239800D01*
X144344500Y-57169800D02*
X144104500Y-56839800D01*
X144584500Y-56839800D01*
X144344500Y-57169800D01*
G36*
X144344500Y-57169800D02*
G01*
X144104500Y-56839800D01*
X144584500Y-56839800D01*
X144344500Y-57169800D01*
G37*
X93309500Y-56377542D02*
X93309500Y-56852058D01*
X94354500Y-56377542D02*
X94354500Y-56852058D01*
X126117000Y-62938548D02*
X126117000Y-64361052D01*
X128837000Y-62938548D02*
X128837000Y-64361052D01*
X128412000Y-100088548D02*
X128412000Y-101511052D01*
X131132000Y-100088548D02*
X131132000Y-101511052D01*
X121602000Y-57166052D02*
X121602000Y-55743548D01*
X124322000Y-57166052D02*
X124322000Y-55743548D01*
X114263252Y-95389800D02*
X112840748Y-95389800D01*
X114263252Y-98109800D02*
X112840748Y-98109800D01*
X97689258Y-90467300D02*
X97214742Y-90467300D01*
X97689258Y-91512300D02*
X97214742Y-91512300D01*
X114692000Y-100088548D02*
X114692000Y-101511052D01*
X117412000Y-100088548D02*
X117412000Y-101511052D01*
X125022000Y-57191052D02*
X125022000Y-55768548D01*
X127742000Y-57191052D02*
X127742000Y-55768548D01*
X101507000Y-83362880D02*
X101507000Y-83081720D01*
X102527000Y-83362880D02*
X102527000Y-83081720D01*
X90059500Y-58017542D02*
X90059500Y-58492058D01*
X91104500Y-58017542D02*
X91104500Y-58492058D01*
X96409258Y-55372300D02*
X95934742Y-55372300D01*
X96409258Y-56417300D02*
X95934742Y-56417300D01*
X91599500Y-58487058D02*
X91599500Y-58012542D01*
X92644500Y-58487058D02*
X92644500Y-58012542D01*
X124982000Y-100088548D02*
X124982000Y-101511052D01*
X127702000Y-100088548D02*
X127702000Y-101511052D01*
X91569258Y-54902300D02*
X91094742Y-54902300D01*
X91569258Y-55947300D02*
X91094742Y-55947300D01*
X148269258Y-60667300D02*
X147794742Y-60667300D01*
X148269258Y-61712300D02*
X147794742Y-61712300D01*
D11*
X100547000Y-86624800D02*
X100802000Y-86624800D01*
X100547000Y-86679800D02*
X100547000Y-86624800D01*
X100547000Y-90624800D02*
X100547000Y-90569800D01*
X100952000Y-90624800D02*
X100547000Y-90624800D01*
X104547000Y-86624800D02*
X104442000Y-86624800D01*
X104547000Y-86624800D02*
X104547000Y-87129800D01*
X104547000Y-90569800D02*
X104547000Y-90624800D01*
X104547000Y-90624800D02*
X104142000Y-90624800D01*
D10*
X101807000Y-91544800D02*
G75*
G02*
X101607000Y-91544800I-100000J0D01*
G01*
X101607000Y-91544800D02*
G75*
G02*
X101807000Y-91544800I100000J0D01*
G01*
D12*
X93312000Y-59780380D02*
X93312000Y-59499220D01*
X94332000Y-59780380D02*
X94332000Y-59499220D01*
X131842000Y-100088548D02*
X131842000Y-101511052D01*
X134562000Y-100088548D02*
X134562000Y-101511052D01*
X121552000Y-100088548D02*
X121552000Y-101511052D01*
X124272000Y-100088548D02*
X124272000Y-101511052D01*
D11*
X106612000Y-53804800D02*
X120112000Y-53804800D01*
X106612000Y-57234800D02*
X106612000Y-53804800D01*
X106612000Y-66304800D02*
X106612000Y-62874800D01*
X120112000Y-53804800D02*
X120112000Y-57234800D01*
X120112000Y-66304800D02*
X106612000Y-66304800D01*
X120112000Y-66304800D02*
X120112000Y-62874800D01*
%LPC*%
D13*
X136365100Y-95054800D02*
G75*
G02*
X135488900Y-95054800I-438100J0D01*
G01*
X135488900Y-95054800D02*
G75*
G02*
X136365100Y-95054800I438100J0D01*
G01*
D14*
X138095100Y-92824800D02*
G75*
G02*
X137258900Y-92824800I-418100J0D01*
G01*
X137258900Y-92824800D02*
G75*
G02*
X138095100Y-92824800I418100J0D01*
G01*
X141595100Y-92824800D02*
G75*
G02*
X140758900Y-92824800I-418100J0D01*
G01*
X140758900Y-92824800D02*
G75*
G02*
X141595100Y-92824800I418100J0D01*
G01*
X145095100Y-92824800D02*
G75*
G02*
X144258900Y-92824800I-418100J0D01*
G01*
X144258900Y-92824800D02*
G75*
G02*
X145095100Y-92824800I418100J0D01*
G01*
D15*
X135013200Y-93661000D02*
X133340800Y-93661000D01*
X133340800Y-91988600D01*
X135013200Y-91988600D01*
X135013200Y-93661000D01*
G36*
X135013200Y-93661000D02*
G01*
X133340800Y-93661000D01*
X133340800Y-91988600D01*
X135013200Y-91988600D01*
X135013200Y-93661000D01*
G37*
X99122000Y-61559800D02*
X97972000Y-61559800D01*
X97972000Y-59884800D01*
X99122000Y-59884800D01*
X99122000Y-61559800D01*
G36*
X99122000Y-61559800D02*
G01*
X97972000Y-61559800D01*
X97972000Y-59884800D01*
X99122000Y-59884800D01*
X99122000Y-61559800D01*
G37*
X99122000Y-63559800D02*
X98722000Y-63559800D01*
X98722000Y-63009800D01*
X98672000Y-63009800D01*
X98672000Y-63559800D01*
X98272000Y-63559800D01*
X98272000Y-63009800D01*
X97972000Y-63009800D01*
X97972000Y-61759800D01*
X99122000Y-61759800D01*
X99122000Y-63559800D01*
G36*
X99122000Y-63559800D02*
G01*
X98722000Y-63559800D01*
X98722000Y-63009800D01*
X98672000Y-63009800D01*
X98672000Y-63559800D01*
X98272000Y-63559800D01*
X98272000Y-63009800D01*
X97972000Y-63009800D01*
X97972000Y-61759800D01*
X99122000Y-61759800D01*
X99122000Y-63559800D01*
G37*
X99877000Y-60734800D02*
X100622000Y-60734800D01*
X100622000Y-63009800D01*
X100472000Y-63009800D01*
X100472000Y-63559800D01*
X100072000Y-63559800D01*
X100072000Y-63009800D01*
X100022000Y-63009800D01*
X100022000Y-63559800D01*
X99622000Y-63559800D01*
X99622000Y-63009800D01*
X99322000Y-63009800D01*
X99322000Y-60084800D01*
X99877000Y-60084800D01*
X99877000Y-60734800D01*
G36*
X99877000Y-60734800D02*
G01*
X100622000Y-60734800D01*
X100622000Y-63009800D01*
X100472000Y-63009800D01*
X100472000Y-63559800D01*
X100072000Y-63559800D01*
X100072000Y-63009800D01*
X100022000Y-63009800D01*
X100022000Y-63559800D01*
X99622000Y-63559800D01*
X99622000Y-63009800D01*
X99322000Y-63009800D01*
X99322000Y-60084800D01*
X99877000Y-60084800D01*
X99877000Y-60734800D01*
G37*
X101647000Y-60834800D02*
X101197000Y-60834800D01*
X101197000Y-60934800D01*
X101647000Y-60934800D01*
X101647000Y-61284800D01*
X101197000Y-61284800D01*
X101197000Y-61584800D01*
X101647000Y-61584800D01*
X101647000Y-61984800D01*
X101197000Y-61984800D01*
X101197000Y-62034800D01*
X101647000Y-62034800D01*
X101647000Y-62434800D01*
X101197000Y-62434800D01*
X101197000Y-62484800D01*
X101647000Y-62484800D01*
X101647000Y-62884800D01*
X100822000Y-62884800D01*
X100822000Y-60434800D01*
X101647000Y-60434800D01*
X101647000Y-60834800D01*
G36*
X101647000Y-60834800D02*
G01*
X101197000Y-60834800D01*
X101197000Y-60934800D01*
X101647000Y-60934800D01*
X101647000Y-61284800D01*
X101197000Y-61284800D01*
X101197000Y-61584800D01*
X101647000Y-61584800D01*
X101647000Y-61984800D01*
X101197000Y-61984800D01*
X101197000Y-62034800D01*
X101647000Y-62034800D01*
X101647000Y-62434800D01*
X101197000Y-62434800D01*
X101197000Y-62484800D01*
X101647000Y-62484800D01*
X101647000Y-62884800D01*
X100822000Y-62884800D01*
X100822000Y-60434800D01*
X101647000Y-60434800D01*
X101647000Y-60834800D01*
G37*
X102372000Y-88974800D02*
X101222000Y-88974800D01*
X101222000Y-87299800D01*
X102372000Y-87299800D01*
X102372000Y-88974800D01*
G36*
X102372000Y-88974800D02*
G01*
X101222000Y-88974800D01*
X101222000Y-87299800D01*
X102372000Y-87299800D01*
X102372000Y-88974800D01*
G37*
X102372000Y-90974800D02*
X101972000Y-90974800D01*
X101972000Y-90424800D01*
X101922000Y-90424800D01*
X101922000Y-90974800D01*
X101522000Y-90974800D01*
X101522000Y-90424800D01*
X101222000Y-90424800D01*
X101222000Y-89174800D01*
X102372000Y-89174800D01*
X102372000Y-90974800D01*
G36*
X102372000Y-90974800D02*
G01*
X101972000Y-90974800D01*
X101972000Y-90424800D01*
X101922000Y-90424800D01*
X101922000Y-90974800D01*
X101522000Y-90974800D01*
X101522000Y-90424800D01*
X101222000Y-90424800D01*
X101222000Y-89174800D01*
X102372000Y-89174800D01*
X102372000Y-90974800D01*
G37*
X103127000Y-88149800D02*
X103872000Y-88149800D01*
X103872000Y-90424800D01*
X103722000Y-90424800D01*
X103722000Y-90974800D01*
X103322000Y-90974800D01*
X103322000Y-90424800D01*
X103272000Y-90424800D01*
X103272000Y-90974800D01*
X102872000Y-90974800D01*
X102872000Y-90424800D01*
X102572000Y-90424800D01*
X102572000Y-87499800D01*
X103127000Y-87499800D01*
X103127000Y-88149800D01*
G36*
X103127000Y-88149800D02*
G01*
X103872000Y-88149800D01*
X103872000Y-90424800D01*
X103722000Y-90424800D01*
X103722000Y-90974800D01*
X103322000Y-90974800D01*
X103322000Y-90424800D01*
X103272000Y-90424800D01*
X103272000Y-90974800D01*
X102872000Y-90974800D01*
X102872000Y-90424800D01*
X102572000Y-90424800D01*
X102572000Y-87499800D01*
X103127000Y-87499800D01*
X103127000Y-88149800D01*
G37*
X104897000Y-88249800D02*
X104447000Y-88249800D01*
X104447000Y-88349800D01*
X104897000Y-88349800D01*
X104897000Y-88699800D01*
X104447000Y-88699800D01*
X104447000Y-88999800D01*
X104897000Y-88999800D01*
X104897000Y-89399800D01*
X104447000Y-89399800D01*
X104447000Y-89449800D01*
X104897000Y-89449800D01*
X104897000Y-89849800D01*
X104447000Y-89849800D01*
X104447000Y-89899800D01*
X104897000Y-89899800D01*
X104897000Y-90299800D01*
X104072000Y-90299800D01*
X104072000Y-87849800D01*
X104897000Y-87849800D01*
X104897000Y-88249800D01*
G36*
X104897000Y-88249800D02*
G01*
X104447000Y-88249800D01*
X104447000Y-88349800D01*
X104897000Y-88349800D01*
X104897000Y-88699800D01*
X104447000Y-88699800D01*
X104447000Y-88999800D01*
X104897000Y-88999800D01*
X104897000Y-89399800D01*
X104447000Y-89399800D01*
X104447000Y-89449800D01*
X104897000Y-89449800D01*
X104897000Y-89849800D01*
X104447000Y-89849800D01*
X104447000Y-89899800D01*
X104897000Y-89899800D01*
X104897000Y-90299800D01*
X104072000Y-90299800D01*
X104072000Y-87849800D01*
X104897000Y-87849800D01*
X104897000Y-88249800D01*
G37*
D16*
X135927000Y-95054800D03*
D17*
X134177000Y-92824800D03*
D18*
X137677000Y-92824800D03*
X141177000Y-92824800D03*
X144677000Y-92824800D03*
D19*
X148592000Y-57694800D03*
X148592000Y-59244800D03*
D20*
X94157000Y-83344800D03*
X94157000Y-84994800D03*
D21*
X129782000Y-57879800D03*
X129782000Y-54929800D03*
D22*
X121577000Y-64524800D03*
X121577000Y-62974800D03*
D23*
X94942000Y-62859800D03*
X93392000Y-62859800D03*
D21*
X136652000Y-86099800D03*
X136652000Y-83149800D03*
D24*
X119482000Y-99324800D03*
X119482000Y-102274800D03*
D25*
X95707000Y-81289800D03*
X94057000Y-81289800D03*
D23*
X98227000Y-89449800D03*
X96677000Y-89449800D03*
D22*
X97292000Y-87064800D03*
X97292000Y-85514800D03*
D24*
X136632000Y-99324800D03*
X136632000Y-102274800D03*
D21*
X133302000Y-86099800D03*
X133302000Y-83149800D03*
D26*
X106127000Y-83624800D03*
X104227000Y-83624800D03*
D22*
X98532000Y-57069800D03*
X98532000Y-55519800D03*
D27*
X95667000Y-84994800D03*
X95667000Y-83344800D03*
D23*
X100007000Y-65192300D03*
X98457000Y-65192300D03*
X103287000Y-92359800D03*
X101737000Y-92359800D03*
D21*
X126602000Y-86099800D03*
X126602000Y-83149800D03*
X133212000Y-57899800D03*
X133212000Y-54949800D03*
D19*
X124052000Y-83849800D03*
X124052000Y-85399800D03*
D28*
X144237000Y-56039800D03*
X145887000Y-56039800D03*
D29*
X110262000Y-88524800D03*
X121362000Y-88524800D03*
D24*
X124127000Y-62174800D03*
X124127000Y-65124800D03*
D25*
X95002000Y-64399800D03*
X93352000Y-64399800D03*
D21*
X129952000Y-86099800D03*
X129952000Y-83149800D03*
D20*
X97282000Y-82399800D03*
X97282000Y-84049800D03*
D26*
X102737000Y-55874800D03*
X100837000Y-55874800D03*
D30*
X99722000Y-97159800D03*
X106222000Y-97159800D03*
D31*
X101232000Y-60184800D03*
D32*
X100722000Y-59272300D03*
X100272000Y-59272300D03*
X99822000Y-59272300D03*
X99372000Y-59272300D03*
X98922000Y-59272300D03*
X98472000Y-59272300D03*
X98022000Y-59272300D03*
D33*
X97359500Y-59734800D03*
X97359500Y-60184800D03*
X97359500Y-60634800D03*
X97359500Y-61084800D03*
X97359500Y-61784800D03*
X97359500Y-62234800D03*
X97359500Y-62684800D03*
D34*
X100287000Y-60224800D03*
D25*
X100412000Y-82464800D03*
X98762000Y-82464800D03*
D21*
X136662000Y-57929800D03*
X136662000Y-54979800D03*
D20*
X145722000Y-61104800D03*
X145722000Y-62754800D03*
D35*
X123942000Y-73109800D03*
X117442000Y-73109800D03*
D36*
X144507000Y-57729800D03*
X144507000Y-58679800D03*
X144507000Y-59629800D03*
X146782000Y-59629800D03*
X146782000Y-58679800D03*
X146782000Y-57729800D03*
D20*
X93832000Y-55789800D03*
X93832000Y-57439800D03*
D24*
X127477000Y-62174800D03*
X127477000Y-65124800D03*
X129772000Y-99324800D03*
X129772000Y-102274800D03*
D30*
X99742000Y-105079800D03*
X106242000Y-105079800D03*
D21*
X122962000Y-57929800D03*
X122962000Y-54979800D03*
D37*
X115027000Y-96749800D03*
X112077000Y-96749800D03*
D25*
X98277000Y-90989800D03*
X96627000Y-90989800D03*
D24*
X116052000Y-99324800D03*
X116052000Y-102274800D03*
D21*
X126382000Y-57954800D03*
X126382000Y-55004800D03*
D22*
X102017000Y-83997300D03*
X102017000Y-82447300D03*
D20*
X90582000Y-57429800D03*
X90582000Y-59079800D03*
D38*
X131702000Y-73053800D03*
X108802000Y-74203800D03*
D25*
X96997000Y-55894800D03*
X95347000Y-55894800D03*
D27*
X92122000Y-59074800D03*
X92122000Y-57424800D03*
D24*
X126342000Y-99324800D03*
X126342000Y-102274800D03*
D25*
X92157000Y-55424800D03*
X90507000Y-55424800D03*
X148857000Y-61189800D03*
X147207000Y-61189800D03*
D31*
X104482000Y-87599800D03*
D32*
X103972000Y-86687300D03*
X103522000Y-86687300D03*
X103072000Y-86687300D03*
X102622000Y-86687300D03*
X102172000Y-86687300D03*
X101722000Y-86687300D03*
X101272000Y-86687300D03*
D33*
X100609500Y-87149800D03*
X100609500Y-87599800D03*
X100609500Y-88049800D03*
X100609500Y-88499800D03*
X100609500Y-89199800D03*
X100609500Y-89649800D03*
X100609500Y-90099800D03*
D34*
X103537000Y-87639800D03*
D22*
X93822000Y-60414800D03*
X93822000Y-58864800D03*
D24*
X133202000Y-99324800D03*
X133202000Y-102274800D03*
X122912000Y-99324800D03*
X122912000Y-102274800D03*
D29*
X107812000Y-60054800D03*
X118912000Y-60054800D03*
D30*
X93322000Y-72749800D03*
X99822000Y-72749800D03*
%LPD*%
D39*
X148552000Y-79699800D02*
X148552000Y-107699800D01*
X108052001Y-109699800D02*
G75*
G02*
X110052000Y-111699799I-1J-2000000D01*
G01*
X84051999Y-51699800D02*
X156552000Y-51699800D01*
X84051998Y-77699800D02*
G75*
G02*
X82052000Y-75699802I2J2000000D01*
G01*
X92052000Y-107699802D02*
X92052000Y-79699799D01*
X148552000Y-107699800D02*
G75*
G02*
X146552000Y-109699800I-2000000J0D01*
G01*
X148552000Y-79699800D02*
G75*
G02*
X150552000Y-77699800I2000000J0D01*
G01*
D40*
X156252000Y-64699800D02*
G75*
G02*
X152852000Y-64699800I-1700000J0D01*
G01*
X152852000Y-64699800D02*
G75*
G02*
X156252000Y-64699800I1700000J0D01*
G01*
D39*
X130552000Y-115699800D02*
G75*
G02*
X128552000Y-117699800I-2000000J0D01*
G01*
X112051998Y-117699800D02*
X128552000Y-117699800D01*
X112051998Y-117699800D02*
G75*
G02*
X110052000Y-115699802I2J2000000D01*
G01*
X146552000Y-109699800D02*
X132552000Y-109699800D01*
X156552000Y-77699800D02*
X150552000Y-77699800D01*
X82052000Y-53699799D02*
X82052000Y-75699802D01*
X108052001Y-109699800D02*
X94051998Y-109699800D01*
X94051998Y-109699800D02*
G75*
G02*
X92052000Y-107699802I2J2000000D01*
G01*
D40*
X122002000Y-112049800D02*
G75*
G02*
X118602000Y-112049800I-1700000J0D01*
G01*
X118602000Y-112049800D02*
G75*
G02*
X122002000Y-112049800I1700000J0D01*
G01*
D39*
X158552000Y-75699800D02*
X158552000Y-53699800D01*
X82052000Y-53699799D02*
G75*
G02*
X84051999Y-51699800I2000000J-1D01*
G01*
D40*
X87752000Y-64699800D02*
G75*
G02*
X84352000Y-64699800I-1700000J0D01*
G01*
X84352000Y-64699800D02*
G75*
G02*
X87752000Y-64699800I1700000J0D01*
G01*
D39*
X110052000Y-115699802D02*
X110052000Y-111699799D01*
X158552000Y-75699800D02*
G75*
G02*
X156552000Y-77699800I-2000000J0D01*
G01*
X130552000Y-111699800D02*
G75*
G02*
X132552000Y-109699800I2000000J0D01*
G01*
X156552000Y-51699800D02*
G75*
G02*
X158552000Y-53699800I0J-2000000D01*
G01*
X130552000Y-111699800D02*
X130552000Y-115699800D01*
X90052001Y-77699800D02*
G75*
G02*
X92052000Y-79699799I-1J-2000000D01*
G01*
X90052001Y-77699800D02*
X84051998Y-77699800D01*
M02*
