G04 #@! TF.GenerationSoftware,KiCad,Pcbnew,9.0.0*
G04 #@! TF.CreationDate,2026-02-04T15:57:25+07:00*
G04 #@! TF.ProjectId,Power_management_V2,506f7765-725f-46d6-916e-6167656d656e,rev?*
G04 #@! TF.SameCoordinates,Original*
G04 #@! TF.FileFunction,Copper,L1,Top*
G04 #@! TF.FilePolarity,Positive*
%FSLAX46Y46*%
G04 Gerber Fmt 4.6, Leading zero omitted, Abs format (unit mm)*
G04 Created by KiCad (PCBNEW 9.0.0) date 2026-02-04 15:57:25*
%MOMM*%
%LPD*%
G01*
G04 APERTURE LIST*
G04 Aperture macros list*
%AMRoundRect*
0 Rectangle with rounded corners*
0 $1 Rounding radius*
0 $2 $3 $4 $5 $6 $7 $8 $9 X,Y pos of 4 corners*
0 Add a 4 corners polygon primitive as box body*
4,1,4,$2,$3,$4,$5,$6,$7,$8,$9,$2,$3,0*
0 Add four circle primitives for the rounded corners*
1,1,$1+$1,$2,$3*
1,1,$1+$1,$4,$5*
1,1,$1+$1,$6,$7*
1,1,$1+$1,$8,$9*
0 Add four rect primitives between the rounded corners*
20,1,$1+$1,$2,$3,$4,$5,0*
20,1,$1+$1,$4,$5,$6,$7,0*
20,1,$1+$1,$6,$7,$8,$9,0*
20,1,$1+$1,$8,$9,$2,$3,0*%
%AMFreePoly0*
4,1,25,1.428536,0.453536,1.430000,0.450000,1.430000,-0.600000,1.428536,-0.603536,1.425000,-0.605000,-0.275000,-0.605000,-0.278536,-0.603536,-0.280000,-0.600000,-0.280000,-0.300000,-0.278536,-0.296464,-0.275000,-0.295000,0.270000,-0.295000,0.270000,-0.155000,-0.275000,-0.155000,-0.278536,-0.153536,-0.280000,-0.150000,-0.280000,0.150000,-0.278536,0.153536,-0.275000,0.155000,0.270000,0.155000,
0.270000,0.450000,0.271464,0.453536,0.275000,0.455000,1.425000,0.455000,1.428536,0.453536,1.428536,0.453536,$1*%
%AMFreePoly1*
4,1,33,3.103536,0.453536,3.105000,0.450000,3.105000,-0.005000,3.103536,-0.008536,3.100000,-0.010000,2.455000,-0.010000,2.455000,-0.750000,2.453536,-0.753536,2.450000,-0.755000,0.275000,-0.755000,0.271464,-0.753536,0.270000,-0.750000,0.270000,-0.605000,-0.275000,-0.605000,-0.278536,-0.603536,-0.280000,-0.600000,-0.280000,-0.300000,-0.278536,-0.296464,-0.275000,-0.295000,0.270000,-0.295000,
0.270000,-0.155000,-0.275000,-0.155000,-0.278536,-0.153536,-0.280000,-0.150000,-0.280000,0.150000,-0.278536,0.153536,-0.275000,0.155000,0.270000,0.155000,0.270000,0.450000,0.271464,0.453536,0.275000,0.455000,3.100000,0.455000,3.103536,0.453536,3.103536,0.453536,$1*%
%AMFreePoly2*
4,1,45,2.203536,0.503536,2.205000,0.500000,2.205000,-0.225000,2.203536,-0.228536,2.200000,-0.230000,1.900000,-0.230000,1.896464,-0.228536,1.895000,-0.225000,1.895000,0.220000,1.755000,0.220000,1.755000,-0.225000,1.753536,-0.228536,1.750000,-0.230000,1.450000,-0.230000,1.446464,-0.228536,1.445000,-0.225000,1.445000,0.220000,1.055000,0.220000,1.055000,-0.225000,1.053536,-0.228536,
1.050000,-0.230000,0.750000,-0.230000,0.746464,-0.228536,0.745000,-0.225000,0.745000,0.220000,0.605000,0.220000,0.605000,-0.225000,0.603536,-0.228536,0.600000,-0.230000,0.300000,-0.230000,0.296464,-0.228536,0.295000,-0.225000,0.295000,0.220000,0.155000,0.220000,0.155000,-0.225000,0.153536,-0.228536,0.150000,-0.230000,-0.150000,-0.230000,-0.153536,-0.228536,-0.155000,-0.225000,
-0.155000,0.500000,-0.153536,0.503536,-0.150000,0.505000,2.200000,0.505000,2.203536,0.503536,2.203536,0.503536,$1*%
G04 Aperture macros list end*
G04 #@! TA.AperFunction,Conductor*
%ADD10C,0.010000*%
G04 #@! TD*
G04 #@! TA.AperFunction,EtchedComponent*
%ADD11C,0.000000*%
G04 #@! TD*
G04 #@! TA.AperFunction,SMDPad,CuDef*
%ADD12RoundRect,0.225000X-0.250000X0.225000X-0.250000X-0.225000X0.250000X-0.225000X0.250000X0.225000X0*%
G04 #@! TD*
G04 #@! TA.AperFunction,SMDPad,CuDef*
%ADD13RoundRect,0.200000X-0.275000X0.200000X-0.275000X-0.200000X0.275000X-0.200000X0.275000X0.200000X0*%
G04 #@! TD*
G04 #@! TA.AperFunction,SMDPad,CuDef*
%ADD14RoundRect,0.250000X1.100000X-0.325000X1.100000X0.325000X-1.100000X0.325000X-1.100000X-0.325000X0*%
G04 #@! TD*
G04 #@! TA.AperFunction,SMDPad,CuDef*
%ADD15R,0.100000X1.560000*%
G04 #@! TD*
G04 #@! TA.AperFunction,SMDPad,CuDef*
%ADD16RoundRect,0.225000X0.225000X0.250000X-0.225000X0.250000X-0.225000X-0.250000X0.225000X-0.250000X0*%
G04 #@! TD*
G04 #@! TA.AperFunction,SMDPad,CuDef*
%ADD17RoundRect,0.250000X-1.100000X0.325000X-1.100000X-0.325000X1.100000X-0.325000X1.100000X0.325000X0*%
G04 #@! TD*
G04 #@! TA.AperFunction,SMDPad,CuDef*
%ADD18RoundRect,0.200000X0.200000X0.275000X-0.200000X0.275000X-0.200000X-0.275000X0.200000X-0.275000X0*%
G04 #@! TD*
G04 #@! TA.AperFunction,SMDPad,CuDef*
%ADD19RoundRect,0.225000X0.250000X-0.225000X0.250000X0.225000X-0.250000X0.225000X-0.250000X-0.225000X0*%
G04 #@! TD*
G04 #@! TA.AperFunction,SMDPad,CuDef*
%ADD20RoundRect,0.250000X0.325000X0.650000X-0.325000X0.650000X-0.325000X-0.650000X0.325000X-0.650000X0*%
G04 #@! TD*
G04 #@! TA.AperFunction,SMDPad,CuDef*
%ADD21RoundRect,0.200000X0.275000X-0.200000X0.275000X0.200000X-0.275000X0.200000X-0.275000X-0.200000X0*%
G04 #@! TD*
G04 #@! TA.AperFunction,SMDPad,CuDef*
%ADD22RoundRect,0.200000X-0.200000X-0.275000X0.200000X-0.275000X0.200000X0.275000X-0.200000X0.275000X0*%
G04 #@! TD*
G04 #@! TA.AperFunction,SMDPad,CuDef*
%ADD23R,3.100000X5.000000*%
G04 #@! TD*
G04 #@! TA.AperFunction,ComponentPad*
%ADD24R,1.520000X2.000000*%
G04 #@! TD*
G04 #@! TA.AperFunction,ComponentPad*
%ADD25C,1.520000*%
G04 #@! TD*
G04 #@! TA.AperFunction,SMDPad,CuDef*
%ADD26RoundRect,0.700000X-0.700000X-2.650000X0.700000X-2.650000X0.700000X2.650000X-0.700000X2.650000X0*%
G04 #@! TD*
G04 #@! TA.AperFunction,SMDPad,CuDef*
%ADD27FreePoly0,90.000000*%
G04 #@! TD*
G04 #@! TA.AperFunction,SMDPad,CuDef*
%ADD28FreePoly1,90.000000*%
G04 #@! TD*
G04 #@! TA.AperFunction,SMDPad,CuDef*
%ADD29FreePoly2,90.000000*%
G04 #@! TD*
G04 #@! TA.AperFunction,SMDPad,CuDef*
%ADD30R,0.730000X0.300000*%
G04 #@! TD*
G04 #@! TA.AperFunction,SMDPad,CuDef*
%ADD31R,0.300000X0.725000*%
G04 #@! TD*
G04 #@! TA.AperFunction,SMDPad,CuDef*
%ADD32R,0.725000X0.300000*%
G04 #@! TD*
G04 #@! TA.AperFunction,SMDPad,CuDef*
%ADD33R,1.050000X1.575000*%
G04 #@! TD*
G04 #@! TA.AperFunction,SMDPad,CuDef*
%ADD34R,0.380000X0.580000*%
G04 #@! TD*
G04 #@! TA.AperFunction,SMDPad,CuDef*
%ADD35RoundRect,0.700000X0.700000X2.650000X-0.700000X2.650000X-0.700000X-2.650000X0.700000X-2.650000X0*%
G04 #@! TD*
G04 #@! TA.AperFunction,SMDPad,CuDef*
%ADD36RoundRect,0.150000X-0.512500X-0.150000X0.512500X-0.150000X0.512500X0.150000X-0.512500X0.150000X0*%
G04 #@! TD*
G04 #@! TA.AperFunction,SMDPad,CuDef*
%ADD37RoundRect,0.250000X0.325000X1.100000X-0.325000X1.100000X-0.325000X-1.100000X0.325000X-1.100000X0*%
G04 #@! TD*
G04 #@! TA.AperFunction,ComponentPad*
%ADD38RoundRect,1.000000X1.000000X3.200000X-1.000000X3.200000X-1.000000X-3.200000X1.000000X-3.200000X0*%
G04 #@! TD*
G04 #@! TA.AperFunction,ViaPad*
%ADD39C,0.500000*%
G04 #@! TD*
G04 #@! TA.AperFunction,ViaPad*
%ADD40C,0.450000*%
G04 #@! TD*
G04 #@! TA.AperFunction,Conductor*
%ADD41C,0.250000*%
G04 #@! TD*
G04 #@! TA.AperFunction,Conductor*
%ADD42C,0.500000*%
G04 #@! TD*
G04 #@! TA.AperFunction,Conductor*
%ADD43C,0.200000*%
G04 #@! TD*
G04 #@! TA.AperFunction,Conductor*
%ADD44C,0.300000*%
G04 #@! TD*
G04 #@! TA.AperFunction,Profile*
%ADD45C,0.200000*%
G04 #@! TD*
G04 #@! TA.AperFunction,Profile*
%ADD46C,0.150000*%
G04 #@! TD*
G04 APERTURE END LIST*
D10*
X102524448Y-87551268D02*
X102644448Y-87551268D01*
X102644448Y-88915889D01*
X102524448Y-88915889D01*
X102524448Y-87551268D01*
G04 #@! TA.AperFunction,Conductor*
G36*
X102524448Y-87551268D02*
G01*
X102644448Y-87551268D01*
X102644448Y-88915889D01*
X102524448Y-88915889D01*
X102524448Y-87551268D01*
G37*
G04 #@! TD.AperFunction*
X102262000Y-87364990D02*
X102382000Y-87364990D01*
X102382000Y-88919611D01*
X102262000Y-88919611D01*
X102262000Y-87364990D01*
G04 #@! TA.AperFunction,Conductor*
G36*
X102262000Y-87364990D02*
G01*
X102382000Y-87364990D01*
X102382000Y-88919611D01*
X102262000Y-88919611D01*
X102262000Y-87364990D01*
G37*
G04 #@! TD.AperFunction*
X99052000Y-59940179D02*
X99172000Y-59940179D01*
X99172000Y-61504800D01*
X99052000Y-61504800D01*
X99052000Y-59940179D01*
G04 #@! TA.AperFunction,Conductor*
G36*
X99052000Y-59940179D02*
G01*
X99172000Y-59940179D01*
X99172000Y-61504800D01*
X99052000Y-61504800D01*
X99052000Y-59940179D01*
G37*
G04 #@! TD.AperFunction*
X99322000Y-60134800D02*
X99442000Y-60134800D01*
X99442000Y-61499421D01*
X99322000Y-61499421D01*
X99322000Y-60134800D01*
G04 #@! TA.AperFunction,Conductor*
G36*
X99322000Y-60134800D02*
G01*
X99442000Y-60134800D01*
X99442000Y-61499421D01*
X99322000Y-61499421D01*
X99322000Y-60134800D01*
G37*
G04 #@! TD.AperFunction*
D11*
G04 #@! TA.AperFunction,EtchedComponent*
G36*
X99341618Y-61504800D02*
G01*
X99111618Y-61504800D01*
X99111618Y-59944800D01*
X99341618Y-59944800D01*
X99341618Y-61504800D01*
G37*
G04 #@! TD.AperFunction*
G04 #@! TA.AperFunction,EtchedComponent*
G36*
X102584448Y-88919800D02*
G01*
X102354448Y-88919800D01*
X102354448Y-87359800D01*
X102584448Y-87359800D01*
X102584448Y-88919800D01*
G37*
G04 #@! TD.AperFunction*
D12*
X147742000Y-63144800D03*
X147742000Y-64694800D03*
D13*
X94157000Y-83344800D03*
X94157000Y-84994800D03*
D14*
X129782000Y-57879800D03*
X129782000Y-54929800D03*
D15*
X99161618Y-60724800D03*
X99291618Y-60724800D03*
D16*
X94942000Y-62859800D03*
X93392000Y-62859800D03*
D14*
X135502000Y-86214800D03*
X135502000Y-83264800D03*
D17*
X119442000Y-99309800D03*
X119442000Y-102259800D03*
D18*
X95707000Y-81289800D03*
X94057000Y-81289800D03*
D16*
X98227000Y-89449800D03*
X96677000Y-89449800D03*
D19*
X97292000Y-87064800D03*
X97292000Y-85514800D03*
D17*
X136632000Y-99309800D03*
X136632000Y-102259800D03*
D14*
X132152000Y-86214800D03*
X132152000Y-83264800D03*
D20*
X107177000Y-83624800D03*
X104227000Y-83624800D03*
D19*
X98532000Y-57069800D03*
X98532000Y-55519800D03*
D21*
X95667000Y-84994800D03*
X95667000Y-83344800D03*
D16*
X100007000Y-65192300D03*
X98457000Y-65192300D03*
X103287000Y-92359800D03*
X101737000Y-92359800D03*
D14*
X125452000Y-86214800D03*
X125452000Y-83264800D03*
X133212000Y-57899800D03*
X133212000Y-54949800D03*
D22*
X143387000Y-61489800D03*
X145037000Y-61489800D03*
D23*
X110262000Y-85399800D03*
X121362000Y-85399800D03*
D17*
X123062000Y-62149800D03*
X123062000Y-65099800D03*
D18*
X95002000Y-64399800D03*
X93352000Y-64399800D03*
D14*
X128802000Y-86214800D03*
X128802000Y-83264800D03*
D24*
X144512000Y-92719800D03*
D25*
X141512000Y-92719800D03*
X138512000Y-92719800D03*
X135512000Y-92719800D03*
D13*
X97282000Y-82399800D03*
X97282000Y-84049800D03*
D15*
X102404448Y-88139800D03*
X102534448Y-88139800D03*
D20*
X103787000Y-55874800D03*
X100837000Y-55874800D03*
D26*
X99722000Y-97159800D03*
X106222000Y-97159800D03*
D27*
X98472000Y-63234800D03*
D28*
X99822000Y-63234800D03*
D29*
X101372000Y-62684800D03*
D30*
X101232000Y-60184800D03*
D31*
X100722000Y-59272300D03*
X100272000Y-59272300D03*
X99822000Y-59272300D03*
X99372000Y-59272300D03*
X98922000Y-59272300D03*
X98472000Y-59272300D03*
X98022000Y-59272300D03*
D32*
X97359500Y-59734800D03*
X97359500Y-60184800D03*
X97359500Y-60634800D03*
X97359500Y-61084800D03*
X97359500Y-61784800D03*
X97359500Y-62234800D03*
X97359500Y-62684800D03*
D33*
X98547000Y-60722300D03*
D34*
X100287000Y-60224800D03*
D18*
X100412000Y-82464800D03*
X98762000Y-82464800D03*
D14*
X136662000Y-57929800D03*
X136662000Y-54979800D03*
D13*
X144872000Y-66554800D03*
X144872000Y-68204800D03*
D35*
X123942000Y-73109800D03*
X117442000Y-73109800D03*
D36*
X143657000Y-63179800D03*
X143657000Y-64129800D03*
X143657000Y-65079800D03*
X145932000Y-65079800D03*
X145932000Y-64129800D03*
X145932000Y-63179800D03*
D13*
X93832000Y-55789800D03*
X93832000Y-57439800D03*
D17*
X126602000Y-62129800D03*
X126602000Y-65079800D03*
X129756000Y-99309800D03*
X129756000Y-102259800D03*
D26*
X99742000Y-105079800D03*
X106242000Y-105079800D03*
D14*
X122962000Y-57929800D03*
X122962000Y-54979800D03*
D37*
X116617000Y-94969800D03*
X113667000Y-94969800D03*
D18*
X98277000Y-90989800D03*
X96627000Y-90989800D03*
D37*
X116617000Y-98299800D03*
X113667000Y-98299800D03*
D14*
X126382000Y-57954800D03*
X126382000Y-55004800D03*
D19*
X102017000Y-83997300D03*
X102017000Y-82447300D03*
D13*
X90582000Y-57429800D03*
X90582000Y-59079800D03*
D38*
X131702000Y-73053800D03*
X108802000Y-74203800D03*
D18*
X96997000Y-55894800D03*
X95347000Y-55894800D03*
D21*
X92122000Y-59074800D03*
X92122000Y-57424800D03*
D17*
X126318000Y-99309800D03*
X126318000Y-102259800D03*
D18*
X92157000Y-55424800D03*
X90507000Y-55424800D03*
X148007000Y-66639800D03*
X146357000Y-66639800D03*
D27*
X101722000Y-90649800D03*
D28*
X103072000Y-90649800D03*
D29*
X104622000Y-90099800D03*
D30*
X104482000Y-87599800D03*
D31*
X103972000Y-86687300D03*
X103522000Y-86687300D03*
X103072000Y-86687300D03*
X102622000Y-86687300D03*
X102172000Y-86687300D03*
X101722000Y-86687300D03*
X101272000Y-86687300D03*
D32*
X100609500Y-87149800D03*
X100609500Y-87599800D03*
X100609500Y-88049800D03*
X100609500Y-88499800D03*
X100609500Y-89199800D03*
X100609500Y-89649800D03*
X100609500Y-90099800D03*
D33*
X101797000Y-88137300D03*
D34*
X103537000Y-87639800D03*
D19*
X93822000Y-60414800D03*
X93822000Y-58864800D03*
D17*
X133194000Y-99309800D03*
X133194000Y-102259800D03*
X122880000Y-99309800D03*
X122880000Y-102259800D03*
D23*
X107812000Y-60054800D03*
X118912000Y-60054800D03*
D26*
X93322000Y-72749800D03*
X99822000Y-72749800D03*
D39*
X131552000Y-104899800D03*
X114752000Y-103999800D03*
X136552000Y-103999800D03*
X117752000Y-103999800D03*
X120652000Y-104899800D03*
X130652000Y-53314800D03*
X125852000Y-81699800D03*
X108552000Y-80949800D03*
X124652000Y-103999800D03*
D40*
X99656466Y-61038237D03*
D39*
X134852000Y-81699800D03*
X108552000Y-79949800D03*
X122652000Y-104899800D03*
X135552000Y-103999800D03*
X109552000Y-102499800D03*
X146952000Y-98599800D03*
X101722000Y-53104800D03*
X133552000Y-104899800D03*
X125652000Y-53314800D03*
X137552000Y-104899800D03*
X133852000Y-81699800D03*
X109552000Y-100499800D03*
X138552000Y-103999800D03*
X114752000Y-104899800D03*
X127552000Y-103999800D03*
X136552000Y-104899800D03*
X122652000Y-53314800D03*
X113752000Y-103999800D03*
X104052000Y-75449800D03*
X109552000Y-107449800D03*
X107552000Y-79949800D03*
X105052000Y-75449800D03*
X108802000Y-102499800D03*
D40*
X100301192Y-61832156D03*
D39*
X129852000Y-81699800D03*
X133652000Y-53314800D03*
X131652000Y-53314800D03*
X127852000Y-81699800D03*
X102722000Y-53104800D03*
X133552000Y-103999800D03*
X132852000Y-81699800D03*
X140952000Y-96799800D03*
X108802000Y-100499800D03*
X128552000Y-103999800D03*
X104052000Y-77449800D03*
X138552000Y-104899800D03*
X123652000Y-103999800D03*
X107552000Y-80949800D03*
X128552000Y-104899800D03*
X127552000Y-104899800D03*
D40*
X99656466Y-62647388D03*
D39*
X117752000Y-104899800D03*
X132552000Y-103999800D03*
X129652000Y-53314800D03*
X105052000Y-77449800D03*
D40*
X102906466Y-89978388D03*
D39*
X100902000Y-65564800D03*
X104377000Y-92649800D03*
X108802000Y-105449800D03*
X104377000Y-91849800D03*
X123652000Y-53314800D03*
X109552000Y-106449800D03*
X118752000Y-104899800D03*
X138652000Y-53314800D03*
X126652000Y-53314800D03*
X105052000Y-78449800D03*
X145952000Y-96799800D03*
X146952000Y-96799800D03*
X121652000Y-103999800D03*
X104052000Y-79449800D03*
X119752000Y-104899800D03*
X131852000Y-81699800D03*
X139552000Y-104899800D03*
X141952000Y-97699800D03*
X140552000Y-104899800D03*
X105052000Y-73449800D03*
X100902000Y-64814800D03*
X129552000Y-104899800D03*
D40*
X100319841Y-62647388D03*
D39*
X142952000Y-98599800D03*
X140352000Y-95399800D03*
X121652000Y-53314800D03*
X142652000Y-53314800D03*
X130852000Y-81699800D03*
X142502000Y-64129800D03*
X115752000Y-104899800D03*
X109552000Y-101499800D03*
D40*
X103569841Y-89978388D03*
D39*
X124652000Y-53314800D03*
X104052000Y-74449800D03*
X145952000Y-97699800D03*
X142952000Y-97699800D03*
X144952000Y-98599800D03*
X140352000Y-94499800D03*
X138352000Y-94499800D03*
X136852000Y-81699800D03*
D40*
X103551192Y-89163156D03*
D39*
X135852000Y-81699800D03*
X143952000Y-96799800D03*
X145952000Y-98599800D03*
X131552000Y-103999800D03*
X126652000Y-103999800D03*
X113752000Y-104899800D03*
X100722000Y-53104800D03*
X97952000Y-87499800D03*
X115752000Y-103999800D03*
X123652000Y-104899800D03*
X109552000Y-80949800D03*
X109552000Y-105449800D03*
X148002000Y-67899800D03*
X139352000Y-94499800D03*
X132652000Y-53314800D03*
X144952000Y-97699800D03*
X134552000Y-103999800D03*
D40*
X102906466Y-88369237D03*
D39*
X127652000Y-53314800D03*
X116752000Y-104899800D03*
X128652000Y-53314800D03*
X139552000Y-103999800D03*
X108802000Y-103499800D03*
X139352000Y-95399800D03*
D40*
X102906466Y-89163156D03*
D39*
X101722000Y-54104800D03*
X138352000Y-95399800D03*
X141952000Y-98599800D03*
X140552000Y-103999800D03*
X125652000Y-104899800D03*
X109552000Y-104449800D03*
X132552000Y-104899800D03*
X142952000Y-96799800D03*
X134552000Y-104899800D03*
X104052000Y-76449800D03*
X126852000Y-81699800D03*
X135652000Y-53314800D03*
X141952000Y-96799800D03*
X144952000Y-96799800D03*
X116752000Y-103999800D03*
X118752000Y-103999800D03*
X92352000Y-63099800D03*
X140652000Y-53314800D03*
X124652000Y-104899800D03*
X105052000Y-76449800D03*
X105052000Y-74449800D03*
X119752000Y-103999800D03*
X135552000Y-104899800D03*
X120652000Y-103999800D03*
X130552000Y-104899800D03*
X99902000Y-64064800D03*
X108802000Y-104449800D03*
X141352000Y-95399800D03*
X120652000Y-53314800D03*
X102722000Y-54104800D03*
X141652000Y-53314800D03*
X129552000Y-103999800D03*
X103277000Y-91399800D03*
X147012000Y-61459800D03*
X134652000Y-53314800D03*
X139652000Y-53314800D03*
X125652000Y-103999800D03*
X104052000Y-78449800D03*
X108802000Y-101499800D03*
D40*
X99656466Y-61832156D03*
D39*
X143952000Y-97699800D03*
X108802000Y-107449800D03*
X121652000Y-104899800D03*
X93052000Y-60899800D03*
X100722000Y-54104800D03*
X141352000Y-94499800D03*
X137552000Y-103999800D03*
X140952000Y-97699800D03*
X108802000Y-106449800D03*
X109552000Y-103499800D03*
X122652000Y-103999800D03*
X105052000Y-79449800D03*
X109552000Y-79949800D03*
X143952000Y-98599800D03*
X146952000Y-97699800D03*
X137652000Y-53314800D03*
X128852000Y-81699800D03*
X130552000Y-103999800D03*
X140952000Y-98599800D03*
X104052000Y-73449800D03*
X126652000Y-104899800D03*
X136652000Y-53314800D03*
X97552000Y-90199800D03*
X126802000Y-73449800D03*
X96052000Y-103199800D03*
X95052000Y-104199800D03*
X94402000Y-66564800D03*
X94302000Y-67449800D03*
X95052000Y-101199800D03*
X97052000Y-101199800D03*
X91302000Y-72449800D03*
X126802000Y-75449800D03*
X127802000Y-73449800D03*
X126802000Y-70449800D03*
X145082000Y-60149800D03*
X126802000Y-68449800D03*
X95052000Y-97299800D03*
X127802000Y-71449800D03*
X92302000Y-68449800D03*
X127802000Y-69449800D03*
X90302000Y-72449800D03*
X95052000Y-94299800D03*
X91302000Y-74449800D03*
X127802000Y-76449800D03*
X97052000Y-94299800D03*
X97052000Y-93299800D03*
D40*
X101842000Y-89869800D03*
D39*
X96052000Y-94299800D03*
X95052000Y-100199800D03*
X97052000Y-98299800D03*
X100252000Y-92299800D03*
X92302000Y-67449800D03*
X127802000Y-68449800D03*
X126802000Y-76449800D03*
X96052000Y-98299800D03*
X95402000Y-66564800D03*
X126802000Y-72449800D03*
X97052000Y-103199800D03*
X96052000Y-99299800D03*
X97352000Y-64214800D03*
X126802000Y-77449800D03*
D40*
X98472000Y-62378800D03*
D39*
X127802000Y-75449800D03*
X96052000Y-100199800D03*
X96402000Y-66564800D03*
X90302000Y-67449800D03*
X126802000Y-71449800D03*
X97052000Y-97299800D03*
X93302000Y-68449800D03*
X100252000Y-91499800D03*
X127802000Y-67449800D03*
X91302000Y-68449800D03*
X95052000Y-105199800D03*
X97052000Y-95299800D03*
X90302000Y-71449800D03*
X97052000Y-96299800D03*
X97052000Y-100199800D03*
X95052000Y-102199800D03*
X96052000Y-102199800D03*
X91302000Y-69449800D03*
X90302000Y-68449800D03*
X97352000Y-65214800D03*
X95052000Y-103199800D03*
X91302000Y-73449800D03*
X126802000Y-67449800D03*
X94302000Y-68449800D03*
X97052000Y-105199800D03*
X96052000Y-101199800D03*
X95052000Y-98299800D03*
X97052000Y-99299800D03*
X98402000Y-66564800D03*
X91302000Y-70449800D03*
X146652000Y-69099800D03*
X126802000Y-69449800D03*
X97402000Y-66564800D03*
X93302000Y-67449800D03*
X127802000Y-77449800D03*
X127802000Y-70449800D03*
X127802000Y-72449800D03*
X96052000Y-97299800D03*
X96052000Y-105199800D03*
X95052000Y-99299800D03*
X148952000Y-64769800D03*
X90302000Y-73449800D03*
X97052000Y-102199800D03*
X91302000Y-71449800D03*
X96052000Y-95299800D03*
X96052000Y-96299800D03*
X126802000Y-74449800D03*
X127802000Y-74449800D03*
X96052000Y-104199800D03*
X90302000Y-70449800D03*
X97052000Y-104199800D03*
X91302000Y-67449800D03*
X96052000Y-93299800D03*
X95052000Y-96299800D03*
X98052000Y-93299800D03*
X90302000Y-69449800D03*
X95052000Y-95299800D03*
X98532000Y-54754800D03*
X92366071Y-52759927D03*
X91366071Y-52759927D03*
X96152000Y-57064800D03*
X88152000Y-56564800D03*
D40*
X98628728Y-60725061D03*
D39*
X95366071Y-52759927D03*
X93366071Y-52759927D03*
X88152000Y-59564800D03*
X96997000Y-54779800D03*
X88152000Y-55564800D03*
X94366071Y-52759927D03*
X88152000Y-54564800D03*
X88152000Y-57564800D03*
X88152000Y-58564800D03*
X96366071Y-52759927D03*
X96152000Y-57814800D03*
X92112000Y-56584800D03*
X94057000Y-82239800D03*
X102182000Y-84949800D03*
X134942000Y-88559800D03*
X129052000Y-92749800D03*
X124692000Y-88559800D03*
X124802000Y-92749800D03*
X127692000Y-88559800D03*
X128692000Y-88559800D03*
X123462000Y-97394800D03*
X127712000Y-97394800D03*
X132052000Y-92749800D03*
X123462000Y-96144800D03*
X128052000Y-92749800D03*
X132942000Y-88559800D03*
X121462000Y-97394800D03*
X122462000Y-96144800D03*
X129712000Y-97394800D03*
X133052000Y-92749800D03*
X126712000Y-97394800D03*
X128712000Y-96144800D03*
X125462000Y-97394800D03*
X135942000Y-88559800D03*
X97252000Y-84699800D03*
X125802000Y-92749800D03*
X129692000Y-88559800D03*
X126802000Y-92749800D03*
X130942000Y-88559800D03*
X121462000Y-96144800D03*
X126712000Y-96144800D03*
X131052000Y-92749800D03*
X131712000Y-97394800D03*
X120462000Y-96144800D03*
X130712000Y-96144800D03*
X130052000Y-92749800D03*
X122462000Y-97394800D03*
X131712000Y-96144800D03*
X127712000Y-96144800D03*
X128712000Y-97394800D03*
X130712000Y-97394800D03*
X129712000Y-96144800D03*
X133942000Y-88559800D03*
X120462000Y-97394800D03*
X131942000Y-88559800D03*
X125462000Y-96144800D03*
X124462000Y-96144800D03*
X121802000Y-92749800D03*
X123802000Y-92749800D03*
X125692000Y-88559800D03*
X122802000Y-92749800D03*
X124462000Y-97394800D03*
X126692000Y-88559800D03*
X98712000Y-57974800D03*
X90517000Y-56484800D03*
X120902000Y-58004800D03*
X141802000Y-80199800D03*
X139802000Y-79199800D03*
X93832000Y-58099800D03*
X126652000Y-59814800D03*
X133652000Y-59814800D03*
X131652000Y-59814800D03*
X141802000Y-86899800D03*
X141802000Y-79199800D03*
X139802000Y-80199800D03*
X137652000Y-59814800D03*
X121652000Y-59814800D03*
X123652000Y-59814800D03*
X139802000Y-86899800D03*
X134652000Y-59814800D03*
X135652000Y-59814800D03*
X144552000Y-89599800D03*
X124652000Y-59814800D03*
X143552000Y-90599800D03*
X139442000Y-67799800D03*
X142752000Y-85899800D03*
X145552000Y-89599800D03*
X144552000Y-90599800D03*
X144752000Y-85899800D03*
X140802000Y-80199800D03*
X143552000Y-89599800D03*
X142752000Y-86899800D03*
X140442000Y-66799800D03*
X143752000Y-86899800D03*
X146752000Y-91499800D03*
X140442000Y-64759800D03*
X144752000Y-86899800D03*
X136652000Y-59814800D03*
X146752000Y-92499800D03*
X139652000Y-59814800D03*
X140452000Y-70899800D03*
X140802000Y-79199800D03*
X139442000Y-65799800D03*
X139442000Y-63759800D03*
X141802000Y-85899800D03*
X140442000Y-65799800D03*
X129652000Y-59814800D03*
X122652000Y-59814800D03*
X140452000Y-69899800D03*
X139452000Y-69899800D03*
X130652000Y-59814800D03*
X145552000Y-90599800D03*
X120902000Y-57164800D03*
X143752000Y-85899800D03*
X140452000Y-68899800D03*
X140442000Y-67799800D03*
X128652000Y-59814800D03*
X127652000Y-59814800D03*
X132652000Y-59814800D03*
X139802000Y-85899800D03*
X125652000Y-59814800D03*
X139442000Y-64759800D03*
X140442000Y-63759800D03*
X138652000Y-59814800D03*
X146752000Y-93499800D03*
X139452000Y-70899800D03*
X139452000Y-68899800D03*
X140802000Y-85899800D03*
X140442000Y-62759800D03*
X139442000Y-66799800D03*
X140802000Y-86899800D03*
X139442000Y-62759800D03*
X98702000Y-87149800D03*
X95352000Y-60184800D03*
X94775727Y-59708820D03*
X143332000Y-59434800D03*
X143332000Y-60184800D03*
X98188047Y-86635847D03*
X95802000Y-79449800D03*
X94802000Y-79449800D03*
X100552000Y-84949800D03*
X95652000Y-82439800D03*
D40*
X101878728Y-88056061D03*
D39*
X100372000Y-81389800D03*
X99352000Y-81199800D03*
X97802000Y-79449800D03*
X98802000Y-79449800D03*
X99802000Y-79449800D03*
X96802000Y-79449800D03*
X98352000Y-81199800D03*
D41*
X103072000Y-86687300D02*
X103072000Y-85854800D01*
D42*
X101152000Y-53699800D02*
X101752000Y-53099800D01*
D43*
X93337000Y-60899800D02*
X93052000Y-60899800D01*
D44*
X143657000Y-64129800D02*
X142502000Y-64129800D01*
D43*
X97852000Y-87499800D02*
X97417000Y-87064800D01*
D42*
X104227000Y-79624800D02*
X104052000Y-79449800D01*
X104227000Y-83624800D02*
X104227000Y-79624800D01*
X101752000Y-53099800D02*
X103652000Y-53099800D01*
D41*
X145932000Y-62539800D02*
X147012000Y-61459800D01*
D43*
X97952000Y-87499800D02*
X97852000Y-87499800D01*
D41*
X104227000Y-84699800D02*
X104227000Y-83624800D01*
X103072000Y-85854800D02*
X104227000Y-84699800D01*
X99822000Y-58124800D02*
X100837000Y-57109800D01*
X99822000Y-59272300D02*
X99822000Y-63234800D01*
D42*
X100837000Y-54014800D02*
X101152000Y-53699800D01*
D41*
X103072000Y-86687300D02*
X103072000Y-90649800D01*
X145932000Y-63179800D02*
X145932000Y-62539800D01*
D43*
X93822000Y-60414800D02*
X93337000Y-60899800D01*
D41*
X99822000Y-59272300D02*
X99822000Y-58124800D01*
D43*
X97417000Y-87064800D02*
X97292000Y-87064800D01*
D42*
X100837000Y-55874800D02*
X100837000Y-54014800D01*
D41*
X100837000Y-57109800D02*
X100837000Y-55874800D01*
D44*
X145757000Y-68204800D02*
X146652000Y-69099800D01*
D43*
X146982000Y-64129800D02*
X147547000Y-64694800D01*
X147742000Y-64694800D02*
X148877000Y-64694800D01*
X98472000Y-62378800D02*
X98472000Y-63234800D01*
X145037000Y-61489800D02*
X145037000Y-60194800D01*
X97359500Y-61784800D02*
X97878000Y-61784800D01*
X145037000Y-60194800D02*
X145082000Y-60149800D01*
X101212000Y-89199800D02*
X101722000Y-89709800D01*
X97878000Y-61784800D02*
X98472000Y-62378800D01*
X100609500Y-89199800D02*
X101212000Y-89199800D01*
D44*
X144872000Y-68204800D02*
X145757000Y-68204800D01*
D43*
X101722000Y-89709800D02*
X101722000Y-90649800D01*
X101722000Y-89709800D02*
X101722000Y-90565800D01*
X145932000Y-64129800D02*
X146982000Y-64129800D01*
X148877000Y-64694800D02*
X148952000Y-64769800D01*
X147547000Y-64694800D02*
X147742000Y-64694800D01*
X96677000Y-89449800D02*
X96677000Y-90939800D01*
X96677000Y-90939800D02*
X96627000Y-90989800D01*
X99372000Y-89449800D02*
X98227000Y-89449800D01*
X99572000Y-89649800D02*
X99372000Y-89449800D01*
X100609500Y-89649800D02*
X99572000Y-89649800D01*
X105807000Y-85259800D02*
X107177000Y-83889800D01*
X103522000Y-86687300D02*
X103522000Y-86129800D01*
X104392000Y-85259800D02*
X105807000Y-85259800D01*
X107177000Y-83889800D02*
X107177000Y-83624800D01*
X103522000Y-86129800D02*
X104392000Y-85259800D01*
X98472000Y-59272300D02*
X98472000Y-58714800D01*
X92122000Y-56594800D02*
X92112000Y-56584800D01*
X98532000Y-54754800D02*
X98532000Y-55519800D01*
D41*
X98472000Y-59272300D02*
X98472000Y-60647300D01*
D43*
X98472000Y-58714800D02*
X96997000Y-57239800D01*
X92122000Y-57424800D02*
X92122000Y-56594800D01*
X92029500Y-57184800D02*
X92022000Y-57184800D01*
X98472000Y-60647300D02*
X98547000Y-60722300D01*
X96997000Y-54779800D02*
X96997000Y-55894800D01*
X96997000Y-57239800D02*
X96997000Y-55894800D01*
X94057000Y-83244800D02*
X94157000Y-83344800D01*
X94057000Y-81289800D02*
X94057000Y-82239800D01*
X102172000Y-84959800D02*
X102172000Y-86687300D01*
X94057000Y-82239800D02*
X94057000Y-83244800D01*
X102182000Y-84162300D02*
X102017000Y-83997300D01*
X102182000Y-84949800D02*
X102182000Y-84162300D01*
X102182000Y-84949800D02*
X102172000Y-84959800D01*
X98217000Y-85514800D02*
X99852000Y-87149800D01*
X97282000Y-84669800D02*
X97282000Y-84049800D01*
X97252000Y-85474800D02*
X97292000Y-85514800D01*
X97252000Y-84699800D02*
X97282000Y-84669800D01*
X99852000Y-87149800D02*
X100609500Y-87149800D01*
X97252000Y-84699800D02*
X97252000Y-85474800D01*
X97292000Y-85514800D02*
X98217000Y-85514800D01*
X93352000Y-62899800D02*
X93352000Y-64399800D01*
X97359500Y-62234800D02*
X95852000Y-62234800D01*
X95227000Y-62859800D02*
X95852000Y-62234800D01*
X94942000Y-62859800D02*
X95227000Y-62859800D01*
X100272000Y-59272300D02*
X100272000Y-58354800D01*
X100782000Y-57844800D02*
X103172000Y-57844800D01*
X103172000Y-57844800D02*
X103787000Y-57229800D01*
X100272000Y-58354800D02*
X100782000Y-57844800D01*
X103787000Y-57229800D02*
X103787000Y-55874800D01*
X90517000Y-57364800D02*
X90582000Y-57429800D01*
X98922000Y-58184800D02*
X98922000Y-59272300D01*
X98712000Y-57974800D02*
X98922000Y-58184800D01*
X98532000Y-57794800D02*
X98532000Y-57069800D01*
X90517000Y-55874800D02*
X90517000Y-56484800D01*
X98712000Y-57974800D02*
X98532000Y-57794800D01*
X90517000Y-56484800D02*
X90517000Y-57364800D01*
X94917000Y-58864800D02*
X95787000Y-59734800D01*
X120902000Y-58004800D02*
X120902000Y-57164800D01*
X95787000Y-59734800D02*
X97359500Y-59734800D01*
X93832000Y-58099800D02*
X93832000Y-58864800D01*
X93832000Y-58864800D02*
X94917000Y-58864800D01*
X93832000Y-58099800D02*
X93832000Y-57439800D01*
X98842000Y-90989800D02*
X98277000Y-90989800D01*
X100609500Y-90099800D02*
X99732000Y-90099800D01*
X99732000Y-90099800D02*
X98842000Y-90989800D01*
X95667000Y-87054800D02*
X95667000Y-84994800D01*
X96662000Y-88049800D02*
X95667000Y-87054800D01*
X100609500Y-88049800D02*
X96662000Y-88049800D01*
X96362000Y-81289800D02*
X95707000Y-81289800D01*
X102622000Y-85259334D02*
X103077000Y-84804334D01*
X101802000Y-80249800D02*
X97402000Y-80249800D01*
X102622000Y-86687300D02*
X102622000Y-85259334D01*
X97402000Y-80249800D02*
X96362000Y-81289800D01*
X103077000Y-81524800D02*
X101802000Y-80249800D01*
X103077000Y-84804334D02*
X103077000Y-81524800D01*
X94157000Y-87424800D02*
X94157000Y-84994800D01*
X100609500Y-88499800D02*
X95232000Y-88499800D01*
X95232000Y-88499800D02*
X94157000Y-87424800D01*
X98762000Y-85309800D02*
X100139500Y-86687300D01*
X98762000Y-82464800D02*
X98762000Y-85309800D01*
X97347000Y-82464800D02*
X97282000Y-82399800D01*
X98762000Y-82464800D02*
X97347000Y-82464800D01*
X100139500Y-86687300D02*
X101272000Y-86687300D01*
D44*
X143332000Y-59434800D02*
X143332000Y-62854800D01*
D43*
X95352000Y-60184800D02*
X97359500Y-60184800D01*
D44*
X143332000Y-62854800D02*
X143657000Y-63179800D01*
D43*
X99152000Y-87599800D02*
X100609500Y-87599800D01*
X95212000Y-60044800D02*
X95352000Y-60184800D01*
X95111707Y-60044800D02*
X95212000Y-60044800D01*
X94775727Y-59708820D02*
X95111707Y-60044800D01*
X98188047Y-86635847D02*
X99152000Y-87599800D01*
X96267000Y-62684800D02*
X97359500Y-62684800D01*
X95852000Y-63099800D02*
X96267000Y-62684800D01*
X95652000Y-64399800D02*
X95852000Y-64199800D01*
X95852000Y-64199800D02*
X95852000Y-63099800D01*
X95002000Y-64399800D02*
X95652000Y-64399800D01*
X92122000Y-59074800D02*
X92122000Y-59499800D01*
X92122000Y-59499800D02*
X92122000Y-59734800D01*
X92122000Y-61069800D02*
X92552000Y-61499800D01*
X94952000Y-61499800D02*
X95817000Y-60634800D01*
X95817000Y-60634800D02*
X97359500Y-60634800D01*
X92552000Y-61499800D02*
X94952000Y-61499800D01*
X92122000Y-59499800D02*
X92122000Y-61069800D01*
X93542000Y-53974800D02*
X98962000Y-53974800D01*
X92202000Y-55379800D02*
X92007000Y-55574800D01*
X99362000Y-54374800D02*
X99362000Y-59262300D01*
X92007000Y-55574800D02*
X92007000Y-55624800D01*
X98962000Y-53974800D02*
X99362000Y-54374800D01*
X92157000Y-55424800D02*
X92157000Y-55359800D01*
X99362000Y-59262300D02*
X99372000Y-59272300D01*
X92157000Y-55359800D02*
X93542000Y-53974800D01*
X95152000Y-61899800D02*
X92152000Y-61899800D01*
X90582000Y-60329800D02*
X90582000Y-59079800D01*
X92152000Y-61899800D02*
X90582000Y-60329800D01*
X95967000Y-61084800D02*
X95152000Y-61899800D01*
X97359500Y-61084800D02*
X95967000Y-61084800D01*
X95347000Y-58589800D02*
X95347000Y-55894800D01*
X98022000Y-59272300D02*
X96029500Y-59272300D01*
X93832000Y-55789800D02*
X95242000Y-55789800D01*
X95242000Y-55789800D02*
X95347000Y-55894800D01*
X96029500Y-59272300D02*
X95347000Y-58589800D01*
X146272000Y-66554800D02*
X146357000Y-66639800D01*
X143657000Y-66004800D02*
X144207000Y-66554800D01*
X143657000Y-65079800D02*
X143657000Y-66004800D01*
X144207000Y-66554800D02*
X144872000Y-66554800D01*
X144872000Y-66554800D02*
X146272000Y-66554800D01*
X101722000Y-88062300D02*
X101797000Y-88137300D01*
D41*
X100552000Y-84949800D02*
X100552000Y-82604800D01*
D43*
X101999500Y-82464800D02*
X102017000Y-82447300D01*
X100372000Y-81389800D02*
X100412000Y-81429800D01*
D41*
X101722000Y-86119800D02*
X100552000Y-84949800D01*
D43*
X95667000Y-83344800D02*
X95667000Y-82454800D01*
X95667000Y-82454800D02*
X95652000Y-82439800D01*
D41*
X101722000Y-86687300D02*
X101722000Y-86119800D01*
D43*
X100412000Y-82464800D02*
X101999500Y-82464800D01*
X100412000Y-81429800D02*
X100412000Y-82464800D01*
D41*
X100552000Y-82604800D02*
X100412000Y-82464800D01*
D43*
X101722000Y-87978300D02*
X101797000Y-88053300D01*
D41*
X101722000Y-86687300D02*
X101722000Y-88062300D01*
G04 #@! TA.AperFunction,Conductor*
G36*
X134823677Y-67119485D02*
G01*
X134844319Y-67136119D01*
X135465681Y-67757481D01*
X135499166Y-67818804D01*
X135502000Y-67845162D01*
X135502000Y-77698438D01*
X135482315Y-77765477D01*
X135465681Y-77786119D01*
X134818319Y-78433481D01*
X134756996Y-78466966D01*
X134730638Y-78469800D01*
X122493362Y-78469800D01*
X122426323Y-78450115D01*
X122405681Y-78433481D01*
X121608319Y-77636119D01*
X121574834Y-77574796D01*
X121572000Y-77548438D01*
X121572000Y-75817800D01*
X122242000Y-75817800D01*
X122252608Y-75937125D01*
X122252609Y-75937128D01*
X122308557Y-76132661D01*
X122402721Y-76312929D01*
X122531246Y-76470553D01*
X122688870Y-76599078D01*
X122869138Y-76693242D01*
X123064671Y-76749190D01*
X123064674Y-76749191D01*
X123183999Y-76759799D01*
X123184002Y-76759800D01*
X123542000Y-76759800D01*
X124342000Y-76759800D01*
X124699998Y-76759800D01*
X124700000Y-76759799D01*
X124819325Y-76749191D01*
X124819328Y-76749190D01*
X125014861Y-76693242D01*
X125195129Y-76599078D01*
X125352753Y-76470553D01*
X125461969Y-76336610D01*
X129202000Y-76336610D01*
X129208417Y-76439973D01*
X129208418Y-76439976D01*
X129259432Y-76683272D01*
X129259435Y-76683282D01*
X129349793Y-76914849D01*
X129477046Y-77128408D01*
X129637703Y-77318094D01*
X129637705Y-77318096D01*
X129827391Y-77478753D01*
X130040950Y-77606006D01*
X130272517Y-77696364D01*
X130272527Y-77696367D01*
X130452000Y-77733998D01*
X132952000Y-77733998D01*
X133131472Y-77696367D01*
X133131482Y-77696364D01*
X133363049Y-77606006D01*
X133576608Y-77478753D01*
X133766294Y-77318096D01*
X133766296Y-77318094D01*
X133926953Y-77128408D01*
X134054206Y-76914849D01*
X134144564Y-76683282D01*
X134144567Y-76683272D01*
X134195581Y-76439976D01*
X134195582Y-76439973D01*
X134201999Y-76336610D01*
X134202000Y-76336593D01*
X134202000Y-74303800D01*
X132952000Y-74303800D01*
X132952000Y-77733998D01*
X130452000Y-77733998D01*
X130452000Y-74303800D01*
X129202000Y-74303800D01*
X129202000Y-76336610D01*
X125461969Y-76336610D01*
X125481278Y-76312929D01*
X125575442Y-76132661D01*
X125631390Y-75937128D01*
X125631391Y-75937125D01*
X125641999Y-75817800D01*
X125642000Y-75817798D01*
X125642000Y-73509800D01*
X124342000Y-73509800D01*
X124342000Y-76759800D01*
X123542000Y-76759800D01*
X123542000Y-73509800D01*
X122242000Y-73509800D01*
X122242000Y-75817800D01*
X121572000Y-75817800D01*
X121572000Y-70401799D01*
X122242000Y-70401799D01*
X122242000Y-72709800D01*
X123542000Y-72709800D01*
X124342000Y-72709800D01*
X125642000Y-72709800D01*
X125642000Y-70401802D01*
X125641999Y-70401799D01*
X125631391Y-70282474D01*
X125631390Y-70282471D01*
X125575442Y-70086938D01*
X125481278Y-69906670D01*
X125432979Y-69847435D01*
X125370645Y-69770989D01*
X129202000Y-69770989D01*
X129202000Y-71803800D01*
X130452000Y-71803800D01*
X130452000Y-70787974D01*
X131202000Y-70787974D01*
X131202000Y-75319626D01*
X131236075Y-75446793D01*
X131301901Y-75560807D01*
X131394993Y-75653899D01*
X131509007Y-75719725D01*
X131636174Y-75753800D01*
X131767826Y-75753800D01*
X131894993Y-75719725D01*
X132009007Y-75653899D01*
X132102099Y-75560807D01*
X132167925Y-75446793D01*
X132202000Y-75319626D01*
X132202000Y-71803800D01*
X132952000Y-71803800D01*
X134202000Y-71803800D01*
X134202000Y-69771006D01*
X134201999Y-69770989D01*
X134195582Y-69667626D01*
X134195581Y-69667623D01*
X134144567Y-69424327D01*
X134144564Y-69424317D01*
X134054206Y-69192750D01*
X133926953Y-68979191D01*
X133766296Y-68789505D01*
X133766294Y-68789503D01*
X133576608Y-68628846D01*
X133363049Y-68501593D01*
X133131480Y-68411234D01*
X133131472Y-68411232D01*
X132952000Y-68373600D01*
X132952000Y-71803800D01*
X132202000Y-71803800D01*
X132202000Y-70787974D01*
X132167925Y-70660807D01*
X132102099Y-70546793D01*
X132009007Y-70453701D01*
X131894993Y-70387875D01*
X131767826Y-70353800D01*
X131636174Y-70353800D01*
X131509007Y-70387875D01*
X131394993Y-70453701D01*
X131301901Y-70546793D01*
X131236075Y-70660807D01*
X131202000Y-70787974D01*
X130452000Y-70787974D01*
X130452000Y-68373600D01*
X130451999Y-68373600D01*
X130272527Y-68411232D01*
X130272519Y-68411234D01*
X130040950Y-68501593D01*
X129827391Y-68628846D01*
X129637705Y-68789503D01*
X129637703Y-68789505D01*
X129477046Y-68979191D01*
X129349793Y-69192750D01*
X129259435Y-69424317D01*
X129259432Y-69424327D01*
X129208418Y-69667623D01*
X129208417Y-69667626D01*
X129202000Y-69770989D01*
X125370645Y-69770989D01*
X125352753Y-69749046D01*
X125195129Y-69620521D01*
X125014861Y-69526357D01*
X124819328Y-69470409D01*
X124819325Y-69470408D01*
X124700000Y-69459800D01*
X124342000Y-69459800D01*
X124342000Y-72709800D01*
X123542000Y-72709800D01*
X123542000Y-69459800D01*
X123183999Y-69459800D01*
X123064674Y-69470408D01*
X123064671Y-69470409D01*
X122869138Y-69526357D01*
X122688870Y-69620521D01*
X122531246Y-69749046D01*
X122402721Y-69906670D01*
X122308557Y-70086938D01*
X122252609Y-70282471D01*
X122252608Y-70282474D01*
X122242000Y-70401799D01*
X121572000Y-70401799D01*
X121572000Y-69761162D01*
X121591685Y-69694123D01*
X121608319Y-69673481D01*
X124145681Y-67136119D01*
X124207004Y-67102634D01*
X124233362Y-67099800D01*
X134756638Y-67099800D01*
X134823677Y-67119485D01*
G37*
G04 #@! TD.AperFunction*
G04 #@! TA.AperFunction,Conductor*
G36*
X106002000Y-77493665D02*
G01*
X106008303Y-77605899D01*
X106008304Y-77605912D01*
X106058455Y-77870970D01*
X106058460Y-77870987D01*
X106147560Y-78125620D01*
X106147562Y-78125624D01*
X106273621Y-78364139D01*
X106273624Y-78364145D01*
X106433824Y-78581208D01*
X106624591Y-78771975D01*
X106841654Y-78932175D01*
X106841660Y-78932178D01*
X107080175Y-79058237D01*
X107080179Y-79058239D01*
X107334812Y-79147339D01*
X107334831Y-79147345D01*
X107551998Y-79188433D01*
X107552000Y-79188433D01*
X107552000Y-77374800D01*
X110052000Y-77374800D01*
X110052000Y-79188433D01*
X110052001Y-79188433D01*
X110269168Y-79147345D01*
X110269187Y-79147339D01*
X110523820Y-79058239D01*
X110523824Y-79058237D01*
X110762339Y-78932178D01*
X110762345Y-78932175D01*
X110979408Y-78771975D01*
X111170175Y-78581208D01*
X111330375Y-78364145D01*
X111330378Y-78364139D01*
X111456437Y-78125624D01*
X111456439Y-78125620D01*
X111482000Y-78052572D01*
X111482000Y-81599800D01*
X111282000Y-81799800D01*
X106076999Y-81799800D01*
X105413319Y-82463481D01*
X105351996Y-82496966D01*
X105325638Y-82499800D01*
X103576691Y-82499800D01*
X103509652Y-82480115D01*
X103463897Y-82427311D01*
X103452693Y-82375111D01*
X103477000Y-77999800D01*
X104102000Y-77374800D01*
X106002000Y-77374800D01*
X106002000Y-77493665D01*
G37*
G04 #@! TD.AperFunction*
G04 #@! TA.AperFunction,Conductor*
G36*
X100572000Y-62959800D02*
G01*
X100572000Y-62966872D01*
X100572000Y-63719800D01*
X101552000Y-64699800D01*
X101552000Y-66299800D01*
X101452000Y-66399800D01*
X99568464Y-66399800D01*
X99368464Y-66199800D01*
X99368464Y-65868024D01*
X99387371Y-65809833D01*
X99436871Y-65773869D01*
X99498057Y-65773869D01*
X99525653Y-65787930D01*
X99529077Y-65790417D01*
X99649030Y-65851537D01*
X99649029Y-65851537D01*
X99748545Y-65867299D01*
X99907000Y-65867299D01*
X99907000Y-65292301D01*
X100107000Y-65292301D01*
X100107000Y-65867298D01*
X100107001Y-65867299D01*
X100265453Y-65867299D01*
X100364965Y-65851539D01*
X100364969Y-65851537D01*
X100484921Y-65790418D01*
X100580118Y-65695221D01*
X100641237Y-65575269D01*
X100657000Y-65475753D01*
X100657000Y-65292301D01*
X100656999Y-65292300D01*
X100107001Y-65292300D01*
X100107000Y-65292301D01*
X99907000Y-65292301D01*
X99907000Y-64517301D01*
X100107000Y-64517301D01*
X100107000Y-65092299D01*
X100107001Y-65092300D01*
X100656998Y-65092300D01*
X100656999Y-65092299D01*
X100656999Y-64908846D01*
X100641239Y-64809334D01*
X100641237Y-64809330D01*
X100580118Y-64689378D01*
X100484921Y-64594181D01*
X100364969Y-64533062D01*
X100364970Y-64533062D01*
X100265454Y-64517300D01*
X100107001Y-64517300D01*
X100107000Y-64517301D01*
X99907000Y-64517301D01*
X99906999Y-64517300D01*
X99748547Y-64517300D01*
X99748546Y-64517301D01*
X99649034Y-64533060D01*
X99649030Y-64533062D01*
X99529072Y-64594184D01*
X99525647Y-64596673D01*
X99467455Y-64615575D01*
X99409266Y-64596662D01*
X99373307Y-64547159D01*
X99368464Y-64516575D01*
X99368464Y-62963336D01*
X99632000Y-62699800D01*
X100312000Y-62699800D01*
X100572000Y-62959800D01*
G37*
G04 #@! TD.AperFunction*
G04 #@! TA.AperFunction,Conductor*
G36*
X114367677Y-92229485D02*
G01*
X114388319Y-92246119D01*
X114915681Y-92773481D01*
X114949166Y-92834804D01*
X114952000Y-92861162D01*
X114952000Y-100509800D01*
X115542000Y-101099800D01*
X138252000Y-101099800D01*
X139452000Y-99899800D01*
X139452000Y-98999800D01*
X139852000Y-99399800D01*
X147352000Y-99399800D01*
X148002000Y-98749800D01*
X148002000Y-106398438D01*
X147982315Y-106465477D01*
X147965681Y-106486119D01*
X145888319Y-108563481D01*
X145826996Y-108596966D01*
X145800638Y-108599800D01*
X120888689Y-108599800D01*
X120864498Y-108597417D01*
X120851732Y-108594877D01*
X120815554Y-108587681D01*
X120569838Y-108563481D01*
X120473737Y-108554016D01*
X120130263Y-108554016D01*
X120038323Y-108563071D01*
X119788445Y-108587681D01*
X119748856Y-108595556D01*
X119739501Y-108597417D01*
X119715311Y-108599800D01*
X111276999Y-108599800D01*
X110952000Y-108924800D01*
X108352000Y-108924800D01*
X108352000Y-102659800D01*
X117795836Y-102659800D01*
X117802613Y-102716242D01*
X117858079Y-102856895D01*
X117949435Y-102977364D01*
X118069904Y-103068720D01*
X118210556Y-103124186D01*
X118298946Y-103134800D01*
X119042000Y-103134800D01*
X119842000Y-103134800D01*
X120585054Y-103134800D01*
X120673443Y-103124186D01*
X120814095Y-103068720D01*
X120934564Y-102977364D01*
X121025921Y-102856894D01*
X121045645Y-102806877D01*
X121088551Y-102751732D01*
X121154458Y-102728539D01*
X121222443Y-102744659D01*
X121270920Y-102794976D01*
X121276355Y-102806877D01*
X121296078Y-102856894D01*
X121387435Y-102977364D01*
X121507904Y-103068720D01*
X121648556Y-103124186D01*
X121736946Y-103134800D01*
X122480000Y-103134800D01*
X123280000Y-103134800D01*
X124023054Y-103134800D01*
X124111443Y-103124186D01*
X124252095Y-103068720D01*
X124372564Y-102977364D01*
X124463921Y-102856894D01*
X124483645Y-102806877D01*
X124526551Y-102751732D01*
X124592458Y-102728539D01*
X124660443Y-102744659D01*
X124708920Y-102794976D01*
X124714355Y-102806877D01*
X124734078Y-102856894D01*
X124825435Y-102977364D01*
X124945904Y-103068720D01*
X125086556Y-103124186D01*
X125174946Y-103134800D01*
X125918000Y-103134800D01*
X126718000Y-103134800D01*
X127461054Y-103134800D01*
X127549443Y-103124186D01*
X127690095Y-103068720D01*
X127810564Y-102977364D01*
X127901921Y-102856894D01*
X127921645Y-102806877D01*
X127964551Y-102751732D01*
X128030458Y-102728539D01*
X128098443Y-102744659D01*
X128146920Y-102794976D01*
X128152355Y-102806877D01*
X128172078Y-102856894D01*
X128263435Y-102977364D01*
X128383904Y-103068720D01*
X128524556Y-103124186D01*
X128612946Y-103134800D01*
X129356000Y-103134800D01*
X130156000Y-103134800D01*
X130899054Y-103134800D01*
X130987443Y-103124186D01*
X131128095Y-103068720D01*
X131248564Y-102977364D01*
X131339921Y-102856894D01*
X131359645Y-102806877D01*
X131402551Y-102751732D01*
X131468458Y-102728539D01*
X131536443Y-102744659D01*
X131584920Y-102794976D01*
X131590355Y-102806877D01*
X131610078Y-102856894D01*
X131701435Y-102977364D01*
X131821904Y-103068720D01*
X131962556Y-103124186D01*
X132050946Y-103134800D01*
X132794000Y-103134800D01*
X133594000Y-103134800D01*
X134337054Y-103134800D01*
X134425443Y-103124186D01*
X134566095Y-103068720D01*
X134686564Y-102977364D01*
X134777921Y-102856894D01*
X134797645Y-102806877D01*
X134840551Y-102751732D01*
X134906458Y-102728539D01*
X134974443Y-102744659D01*
X135022920Y-102794976D01*
X135028355Y-102806877D01*
X135048078Y-102856894D01*
X135139435Y-102977364D01*
X135259904Y-103068720D01*
X135400556Y-103124186D01*
X135488946Y-103134800D01*
X136232000Y-103134800D01*
X137032000Y-103134800D01*
X137775054Y-103134800D01*
X137863443Y-103124186D01*
X138004095Y-103068720D01*
X138124564Y-102977364D01*
X138215920Y-102856895D01*
X138271386Y-102716242D01*
X138278164Y-102659800D01*
X137032000Y-102659800D01*
X137032000Y-103134800D01*
X136232000Y-103134800D01*
X136232000Y-102659800D01*
X134969898Y-102659800D01*
X134946546Y-102674426D01*
X134876681Y-102673612D01*
X134855189Y-102659800D01*
X133594000Y-102659800D01*
X133594000Y-103134800D01*
X132794000Y-103134800D01*
X132794000Y-102659800D01*
X131531898Y-102659800D01*
X131508546Y-102674426D01*
X131438681Y-102673612D01*
X131417189Y-102659800D01*
X130156000Y-102659800D01*
X130156000Y-103134800D01*
X129356000Y-103134800D01*
X129356000Y-102659800D01*
X128093898Y-102659800D01*
X128070546Y-102674426D01*
X128000681Y-102673612D01*
X127979189Y-102659800D01*
X126718000Y-102659800D01*
X126718000Y-103134800D01*
X125918000Y-103134800D01*
X125918000Y-102659800D01*
X124655898Y-102659800D01*
X124632546Y-102674426D01*
X124562681Y-102673612D01*
X124541189Y-102659800D01*
X123280000Y-102659800D01*
X123280000Y-103134800D01*
X122480000Y-103134800D01*
X122480000Y-102659800D01*
X121217898Y-102659800D01*
X121194546Y-102674426D01*
X121124681Y-102673612D01*
X121103189Y-102659800D01*
X119842000Y-102659800D01*
X119842000Y-103134800D01*
X119042000Y-103134800D01*
X119042000Y-102659800D01*
X117795836Y-102659800D01*
X108352000Y-102659800D01*
X108352000Y-101859800D01*
X117795836Y-101859800D01*
X119042000Y-101859800D01*
X119842000Y-101859800D01*
X121104100Y-101859800D01*
X121127451Y-101845174D01*
X121197316Y-101845986D01*
X121218811Y-101859800D01*
X122480000Y-101859800D01*
X123280000Y-101859800D01*
X124542100Y-101859800D01*
X124565451Y-101845174D01*
X124635316Y-101845986D01*
X124656811Y-101859800D01*
X125918000Y-101859800D01*
X126718000Y-101859800D01*
X127980100Y-101859800D01*
X128003451Y-101845174D01*
X128073316Y-101845986D01*
X128094811Y-101859800D01*
X129356000Y-101859800D01*
X130156000Y-101859800D01*
X131418100Y-101859800D01*
X131441451Y-101845174D01*
X131511316Y-101845986D01*
X131532811Y-101859800D01*
X132794000Y-101859800D01*
X133594000Y-101859800D01*
X134856100Y-101859800D01*
X134879451Y-101845174D01*
X134949316Y-101845986D01*
X134970811Y-101859800D01*
X136232000Y-101859800D01*
X137032000Y-101859800D01*
X138278163Y-101859800D01*
X138271386Y-101803357D01*
X138215920Y-101662704D01*
X138124564Y-101542235D01*
X138004095Y-101450879D01*
X137863443Y-101395413D01*
X137775054Y-101384800D01*
X137032000Y-101384800D01*
X137032000Y-101859800D01*
X136232000Y-101859800D01*
X136232000Y-101384800D01*
X135488946Y-101384800D01*
X135400556Y-101395413D01*
X135259904Y-101450879D01*
X135139435Y-101542235D01*
X135048078Y-101662706D01*
X135048077Y-101662708D01*
X135028354Y-101712723D01*
X134985449Y-101767867D01*
X134919541Y-101791060D01*
X134851556Y-101774939D01*
X134803080Y-101724622D01*
X134797646Y-101712723D01*
X134777922Y-101662708D01*
X134777921Y-101662706D01*
X134686564Y-101542235D01*
X134566095Y-101450879D01*
X134425443Y-101395413D01*
X134337054Y-101384800D01*
X133594000Y-101384800D01*
X133594000Y-101859800D01*
X132794000Y-101859800D01*
X132794000Y-101384800D01*
X132050946Y-101384800D01*
X131962556Y-101395413D01*
X131821904Y-101450879D01*
X131701435Y-101542235D01*
X131610078Y-101662706D01*
X131610077Y-101662708D01*
X131590354Y-101712723D01*
X131547449Y-101767867D01*
X131481541Y-101791060D01*
X131413556Y-101774939D01*
X131365080Y-101724622D01*
X131359646Y-101712723D01*
X131339922Y-101662708D01*
X131339921Y-101662706D01*
X131248564Y-101542235D01*
X131128095Y-101450879D01*
X130987443Y-101395413D01*
X130899054Y-101384800D01*
X130156000Y-101384800D01*
X130156000Y-101859800D01*
X129356000Y-101859800D01*
X129356000Y-101384800D01*
X128612946Y-101384800D01*
X128524556Y-101395413D01*
X128383904Y-101450879D01*
X128263435Y-101542235D01*
X128172078Y-101662706D01*
X128172077Y-101662708D01*
X128152354Y-101712723D01*
X128109449Y-101767867D01*
X128043541Y-101791060D01*
X127975556Y-101774939D01*
X127927080Y-101724622D01*
X127921646Y-101712723D01*
X127901922Y-101662708D01*
X127901921Y-101662706D01*
X127810564Y-101542235D01*
X127690095Y-101450879D01*
X127549443Y-101395413D01*
X127461054Y-101384800D01*
X126718000Y-101384800D01*
X126718000Y-101859800D01*
X125918000Y-101859800D01*
X125918000Y-101384800D01*
X125174946Y-101384800D01*
X125086556Y-101395413D01*
X124945904Y-101450879D01*
X124825435Y-101542235D01*
X124734078Y-101662706D01*
X124734077Y-101662708D01*
X124714354Y-101712723D01*
X124671449Y-101767867D01*
X124605541Y-101791060D01*
X124537556Y-101774939D01*
X124489080Y-101724622D01*
X124483646Y-101712723D01*
X124463922Y-101662708D01*
X124463921Y-101662706D01*
X124372564Y-101542235D01*
X124252095Y-101450879D01*
X124111443Y-101395413D01*
X124023054Y-101384800D01*
X123280000Y-101384800D01*
X123280000Y-101859800D01*
X122480000Y-101859800D01*
X122480000Y-101384800D01*
X121736946Y-101384800D01*
X121648556Y-101395413D01*
X121507904Y-101450879D01*
X121387435Y-101542235D01*
X121296078Y-101662706D01*
X121296077Y-101662708D01*
X121276354Y-101712723D01*
X121233449Y-101767867D01*
X121167541Y-101791060D01*
X121099556Y-101774939D01*
X121051080Y-101724622D01*
X121045646Y-101712723D01*
X121025922Y-101662708D01*
X121025921Y-101662706D01*
X120934564Y-101542235D01*
X120814095Y-101450879D01*
X120673443Y-101395413D01*
X120585054Y-101384800D01*
X119842000Y-101384800D01*
X119842000Y-101859800D01*
X119042000Y-101859800D01*
X119042000Y-101384800D01*
X118298946Y-101384800D01*
X118210556Y-101395413D01*
X118069904Y-101450879D01*
X117949435Y-101542235D01*
X117858079Y-101662704D01*
X117802613Y-101803357D01*
X117795836Y-101859800D01*
X108352000Y-101859800D01*
X108352000Y-99442853D01*
X112792000Y-99442853D01*
X112802613Y-99531243D01*
X112858079Y-99671895D01*
X112949435Y-99792364D01*
X113069904Y-99883720D01*
X113210557Y-99939186D01*
X113267000Y-99945963D01*
X114067000Y-99945963D01*
X114123442Y-99939186D01*
X114264095Y-99883720D01*
X114384564Y-99792364D01*
X114475920Y-99671895D01*
X114531386Y-99531243D01*
X114542000Y-99442853D01*
X114542000Y-98699800D01*
X114067000Y-98699800D01*
X114067000Y-99945963D01*
X113267000Y-99945963D01*
X113267000Y-98699800D01*
X112792000Y-98699800D01*
X112792000Y-99442853D01*
X108352000Y-99442853D01*
X108352000Y-96112853D01*
X112792000Y-96112853D01*
X112802613Y-96201243D01*
X112858079Y-96341895D01*
X112949436Y-96462367D01*
X113046531Y-96535997D01*
X113088054Y-96592189D01*
X113092605Y-96661911D01*
X113058740Y-96723024D01*
X113046531Y-96733603D01*
X112949436Y-96807232D01*
X112858079Y-96927704D01*
X112802613Y-97068356D01*
X112792000Y-97156746D01*
X112792000Y-97899800D01*
X113267000Y-97899800D01*
X114067000Y-97899800D01*
X114542000Y-97899800D01*
X114542000Y-97156746D01*
X114531386Y-97068356D01*
X114475920Y-96927704D01*
X114384563Y-96807233D01*
X114287469Y-96733604D01*
X114245945Y-96677411D01*
X114241394Y-96607690D01*
X114275259Y-96546576D01*
X114287469Y-96535996D01*
X114384563Y-96462366D01*
X114475920Y-96341895D01*
X114531386Y-96201243D01*
X114542000Y-96112853D01*
X114542000Y-95369800D01*
X114067000Y-95369800D01*
X114067000Y-97899800D01*
X113267000Y-97899800D01*
X113267000Y-95369800D01*
X112792000Y-95369800D01*
X112792000Y-96112853D01*
X108352000Y-96112853D01*
X108352000Y-93826746D01*
X112792000Y-93826746D01*
X112792000Y-94569800D01*
X113267000Y-94569800D01*
X114067000Y-94569800D01*
X114542000Y-94569800D01*
X114542000Y-93826746D01*
X114531386Y-93738356D01*
X114475920Y-93597704D01*
X114384564Y-93477235D01*
X114264095Y-93385879D01*
X114123442Y-93330413D01*
X114067001Y-93323635D01*
X114067000Y-93323635D01*
X114067000Y-94569800D01*
X113267000Y-94569800D01*
X113267000Y-93323635D01*
X113266998Y-93323635D01*
X113210557Y-93330413D01*
X113210556Y-93330413D01*
X113069904Y-93385879D01*
X112949435Y-93477235D01*
X112858079Y-93597704D01*
X112802613Y-93738356D01*
X112792000Y-93826746D01*
X108352000Y-93826746D01*
X108352000Y-93609800D01*
X109752000Y-92209800D01*
X114300638Y-92209800D01*
X114367677Y-92229485D01*
G37*
G04 #@! TD.AperFunction*
G04 #@! TA.AperFunction,Conductor*
G36*
X128667677Y-63919485D02*
G01*
X128688319Y-63936119D01*
X129015681Y-64263481D01*
X129049166Y-64324804D01*
X129052000Y-64351162D01*
X129052000Y-66048438D01*
X129032315Y-66115477D01*
X129015681Y-66136119D01*
X128588319Y-66563481D01*
X128526996Y-66596966D01*
X128500638Y-66599800D01*
X122351999Y-66599800D01*
X120052000Y-68899799D01*
X120052000Y-68899800D01*
X120052000Y-76899800D01*
X122252000Y-79099800D01*
X136000638Y-79099800D01*
X136067677Y-79119485D01*
X136088319Y-79136119D01*
X137415681Y-80463481D01*
X137449166Y-80524804D01*
X137452000Y-80551162D01*
X137452000Y-83863438D01*
X137432315Y-83930477D01*
X137415681Y-83951119D01*
X137003319Y-84363481D01*
X136941996Y-84396966D01*
X136915638Y-84399800D01*
X124728362Y-84399800D01*
X124698921Y-84391155D01*
X124668935Y-84384632D01*
X124663919Y-84380877D01*
X124661323Y-84380115D01*
X124640681Y-84363481D01*
X124628681Y-84351481D01*
X124595196Y-84290158D01*
X124600180Y-84220466D01*
X124642052Y-84164533D01*
X124707516Y-84140116D01*
X124716362Y-84139800D01*
X125052000Y-84139800D01*
X125852000Y-84139800D01*
X126595054Y-84139800D01*
X126683443Y-84129186D01*
X126824095Y-84073720D01*
X126944566Y-83982363D01*
X127028196Y-83872082D01*
X127084389Y-83830558D01*
X127154110Y-83826007D01*
X127215224Y-83859872D01*
X127225804Y-83872082D01*
X127309433Y-83982363D01*
X127429904Y-84073720D01*
X127570556Y-84129186D01*
X127658946Y-84139800D01*
X128402000Y-84139800D01*
X129202000Y-84139800D01*
X129945054Y-84139800D01*
X130033443Y-84129186D01*
X130174095Y-84073720D01*
X130294566Y-83982363D01*
X130378196Y-83872082D01*
X130434389Y-83830558D01*
X130504110Y-83826007D01*
X130565224Y-83859872D01*
X130575804Y-83872082D01*
X130659433Y-83982363D01*
X130779904Y-84073720D01*
X130920556Y-84129186D01*
X131008946Y-84139800D01*
X131752000Y-84139800D01*
X132552000Y-84139800D01*
X133295054Y-84139800D01*
X133383443Y-84129186D01*
X133524095Y-84073720D01*
X133644566Y-83982363D01*
X133728196Y-83872082D01*
X133784389Y-83830558D01*
X133854110Y-83826007D01*
X133915224Y-83859872D01*
X133925804Y-83872082D01*
X134009433Y-83982363D01*
X134129904Y-84073720D01*
X134270556Y-84129186D01*
X134358946Y-84139800D01*
X135102000Y-84139800D01*
X135902000Y-84139800D01*
X136645054Y-84139800D01*
X136733443Y-84129186D01*
X136874095Y-84073720D01*
X136994564Y-83982364D01*
X137085920Y-83861895D01*
X137141386Y-83721242D01*
X137148164Y-83664800D01*
X135902000Y-83664800D01*
X135902000Y-84139800D01*
X135102000Y-84139800D01*
X135102000Y-83664800D01*
X132552000Y-83664800D01*
X132552000Y-84139800D01*
X131752000Y-84139800D01*
X131752000Y-83664800D01*
X129202000Y-83664800D01*
X129202000Y-84139800D01*
X128402000Y-84139800D01*
X128402000Y-83664800D01*
X125852000Y-83664800D01*
X125852000Y-84139800D01*
X125052000Y-84139800D01*
X125052000Y-82864800D01*
X125852000Y-82864800D01*
X128402000Y-82864800D01*
X129202000Y-82864800D01*
X131752000Y-82864800D01*
X132552000Y-82864800D01*
X135102000Y-82864800D01*
X135902000Y-82864800D01*
X137148163Y-82864800D01*
X137141386Y-82808357D01*
X137085920Y-82667704D01*
X136994564Y-82547235D01*
X136874095Y-82455879D01*
X136733443Y-82400413D01*
X136645054Y-82389800D01*
X135902000Y-82389800D01*
X135902000Y-82864800D01*
X135102000Y-82864800D01*
X135102000Y-82389800D01*
X134358946Y-82389800D01*
X134270556Y-82400413D01*
X134129904Y-82455879D01*
X134009432Y-82547236D01*
X133925803Y-82657518D01*
X133869611Y-82699041D01*
X133799889Y-82703592D01*
X133738776Y-82669727D01*
X133728197Y-82657518D01*
X133644567Y-82547236D01*
X133524095Y-82455879D01*
X133383443Y-82400413D01*
X133295054Y-82389800D01*
X132552000Y-82389800D01*
X132552000Y-82864800D01*
X131752000Y-82864800D01*
X131752000Y-82389800D01*
X131008946Y-82389800D01*
X130920556Y-82400413D01*
X130779904Y-82455879D01*
X130659432Y-82547236D01*
X130575803Y-82657518D01*
X130519611Y-82699041D01*
X130449889Y-82703592D01*
X130388776Y-82669727D01*
X130378197Y-82657518D01*
X130294567Y-82547236D01*
X130174095Y-82455879D01*
X130033443Y-82400413D01*
X129945054Y-82389800D01*
X129202000Y-82389800D01*
X129202000Y-82864800D01*
X128402000Y-82864800D01*
X128402000Y-82389800D01*
X127658946Y-82389800D01*
X127570556Y-82400413D01*
X127429904Y-82455879D01*
X127309432Y-82547236D01*
X127225803Y-82657518D01*
X127169611Y-82699041D01*
X127099889Y-82703592D01*
X127038776Y-82669727D01*
X127028197Y-82657518D01*
X126944567Y-82547236D01*
X126824095Y-82455879D01*
X126683443Y-82400413D01*
X126595054Y-82389800D01*
X125852000Y-82389800D01*
X125852000Y-82864800D01*
X125052000Y-82864800D01*
X125052000Y-82389800D01*
X124308946Y-82389800D01*
X124220556Y-82400413D01*
X124072015Y-82458991D01*
X124070726Y-82455722D01*
X124018656Y-82467713D01*
X123952900Y-82444093D01*
X123910353Y-82388672D01*
X123902000Y-82343931D01*
X123902000Y-82049800D01*
X123052000Y-81199800D01*
X117952000Y-81199800D01*
X117951999Y-81199800D01*
X117388319Y-81763481D01*
X117326996Y-81796966D01*
X117300638Y-81799800D01*
X113952000Y-81799800D01*
X112577000Y-80424800D01*
X112577000Y-75817800D01*
X115742000Y-75817800D01*
X115752608Y-75937125D01*
X115752609Y-75937128D01*
X115808557Y-76132661D01*
X115902721Y-76312929D01*
X116031246Y-76470553D01*
X116188870Y-76599078D01*
X116369138Y-76693242D01*
X116564671Y-76749190D01*
X116564674Y-76749191D01*
X116683999Y-76759799D01*
X116684002Y-76759800D01*
X117042000Y-76759800D01*
X117842000Y-76759800D01*
X118199998Y-76759800D01*
X118200000Y-76759799D01*
X118319325Y-76749191D01*
X118319328Y-76749190D01*
X118514861Y-76693242D01*
X118695129Y-76599078D01*
X118852753Y-76470553D01*
X118981278Y-76312929D01*
X119075442Y-76132661D01*
X119131390Y-75937128D01*
X119131391Y-75937125D01*
X119141999Y-75817800D01*
X119142000Y-75817798D01*
X119142000Y-73509800D01*
X117842000Y-73509800D01*
X117842000Y-76759800D01*
X117042000Y-76759800D01*
X117042000Y-73509800D01*
X115742000Y-73509800D01*
X115742000Y-75817800D01*
X112577000Y-75817800D01*
X112577000Y-70401799D01*
X115742000Y-70401799D01*
X115742000Y-72709800D01*
X117042000Y-72709800D01*
X117842000Y-72709800D01*
X119142000Y-72709800D01*
X119142000Y-70401802D01*
X119141999Y-70401799D01*
X119131391Y-70282474D01*
X119131390Y-70282471D01*
X119075442Y-70086938D01*
X118981278Y-69906670D01*
X118852753Y-69749046D01*
X118695129Y-69620521D01*
X118514861Y-69526357D01*
X118319328Y-69470409D01*
X118319325Y-69470408D01*
X118200000Y-69459800D01*
X117842000Y-69459800D01*
X117842000Y-72709800D01*
X117042000Y-72709800D01*
X117042000Y-69459800D01*
X116683999Y-69459800D01*
X116564674Y-69470408D01*
X116564671Y-69470409D01*
X116369138Y-69526357D01*
X116188870Y-69620521D01*
X116031246Y-69749046D01*
X115902721Y-69906670D01*
X115808557Y-70086938D01*
X115752609Y-70282471D01*
X115752608Y-70282474D01*
X115742000Y-70401799D01*
X112577000Y-70401799D01*
X112577000Y-67226162D01*
X112596685Y-67159123D01*
X112613319Y-67138481D01*
X114252000Y-65499800D01*
X121415836Y-65499800D01*
X121422613Y-65556242D01*
X121478079Y-65696895D01*
X121569435Y-65817364D01*
X121689904Y-65908720D01*
X121830556Y-65964186D01*
X121918946Y-65974800D01*
X122662000Y-65974800D01*
X123462000Y-65974800D01*
X124205054Y-65974800D01*
X124293443Y-65964186D01*
X124434095Y-65908720D01*
X124554564Y-65817364D01*
X124645920Y-65696895D01*
X124701386Y-65556242D01*
X124708163Y-65499800D01*
X123462000Y-65499800D01*
X123462000Y-65974800D01*
X122662000Y-65974800D01*
X122662000Y-65499800D01*
X121415836Y-65499800D01*
X114252000Y-65499800D01*
X114272000Y-65479800D01*
X124955836Y-65479800D01*
X124956316Y-65483800D01*
X124956315Y-65483800D01*
X124962612Y-65536239D01*
X125018079Y-65676895D01*
X125109435Y-65797364D01*
X125229904Y-65888720D01*
X125370556Y-65944186D01*
X125458946Y-65954800D01*
X126202000Y-65954800D01*
X127002000Y-65954800D01*
X127745054Y-65954800D01*
X127833443Y-65944186D01*
X127974095Y-65888720D01*
X128094564Y-65797364D01*
X128185920Y-65676895D01*
X128241386Y-65536242D01*
X128248164Y-65479800D01*
X127002000Y-65479800D01*
X127002000Y-65954800D01*
X126202000Y-65954800D01*
X126202000Y-65479800D01*
X124955836Y-65479800D01*
X114272000Y-65479800D01*
X115052000Y-64699800D01*
X121415836Y-64699800D01*
X122662000Y-64699800D01*
X123462000Y-64699800D01*
X124708163Y-64699800D01*
X124707683Y-64695799D01*
X124705762Y-64679799D01*
X124955836Y-64679799D01*
X124955837Y-64679800D01*
X126202000Y-64679800D01*
X127002000Y-64679800D01*
X128248163Y-64679800D01*
X128241386Y-64623357D01*
X128185920Y-64482704D01*
X128094564Y-64362235D01*
X127974095Y-64270879D01*
X127833443Y-64215413D01*
X127745054Y-64204800D01*
X127002000Y-64204800D01*
X127002000Y-64679800D01*
X126202000Y-64679800D01*
X126202000Y-64204800D01*
X125458946Y-64204800D01*
X125370556Y-64215413D01*
X125229904Y-64270879D01*
X125109435Y-64362235D01*
X125018079Y-64482704D01*
X124962613Y-64623356D01*
X124955836Y-64679799D01*
X124705762Y-64679799D01*
X124701386Y-64643357D01*
X124645920Y-64502704D01*
X124554564Y-64382235D01*
X124434095Y-64290879D01*
X124293443Y-64235413D01*
X124205054Y-64224800D01*
X123462000Y-64224800D01*
X123462000Y-64699800D01*
X122662000Y-64699800D01*
X122662000Y-64224800D01*
X121918946Y-64224800D01*
X121830556Y-64235413D01*
X121689904Y-64290879D01*
X121569435Y-64382235D01*
X121478079Y-64502704D01*
X121422613Y-64643357D01*
X121415836Y-64699800D01*
X115052000Y-64699800D01*
X115815681Y-63936119D01*
X115877004Y-63902634D01*
X115903362Y-63899800D01*
X128600638Y-63899800D01*
X128667677Y-63919485D01*
G37*
G04 #@! TD.AperFunction*
G04 #@! TA.AperFunction,Conductor*
G36*
X105352000Y-68499800D02*
G01*
X112577000Y-68499800D01*
X112577000Y-80424800D01*
X113952000Y-81799800D01*
X111282000Y-81799800D01*
X111482000Y-81599800D01*
X111482000Y-78052570D01*
X111545539Y-77870987D01*
X111545544Y-77870970D01*
X111595695Y-77605912D01*
X111595696Y-77605899D01*
X111601999Y-77493665D01*
X111602000Y-77493651D01*
X111602000Y-75453800D01*
X110052000Y-75453800D01*
X110052000Y-77374800D01*
X107552000Y-77374800D01*
X107552000Y-75453800D01*
X106002000Y-75453800D01*
X106002000Y-77374800D01*
X104102000Y-77374800D01*
X103477000Y-77999800D01*
X98753362Y-77999800D01*
X98686323Y-77980115D01*
X98665681Y-77963481D01*
X96808319Y-76106119D01*
X96774834Y-76044796D01*
X96772000Y-76018438D01*
X96772000Y-75457800D01*
X98122000Y-75457800D01*
X98132608Y-75577125D01*
X98132609Y-75577128D01*
X98188557Y-75772661D01*
X98282721Y-75952929D01*
X98411246Y-76110553D01*
X98568870Y-76239078D01*
X98749138Y-76333242D01*
X98944671Y-76389190D01*
X98944674Y-76389191D01*
X99063999Y-76399799D01*
X99064002Y-76399800D01*
X99422000Y-76399800D01*
X100222000Y-76399800D01*
X100579998Y-76399800D01*
X100580000Y-76399799D01*
X100699325Y-76389191D01*
X100699328Y-76389190D01*
X100894861Y-76333242D01*
X101075129Y-76239078D01*
X101232753Y-76110553D01*
X101361278Y-75952929D01*
X101455442Y-75772661D01*
X101511390Y-75577128D01*
X101511391Y-75577125D01*
X101521999Y-75457800D01*
X101522000Y-75457798D01*
X101522000Y-73149800D01*
X100222000Y-73149800D01*
X100222000Y-76399800D01*
X99422000Y-76399800D01*
X99422000Y-73149800D01*
X98122000Y-73149800D01*
X98122000Y-75457800D01*
X96772000Y-75457800D01*
X96772000Y-70481162D01*
X96791685Y-70414123D01*
X96808319Y-70393481D01*
X97160001Y-70041799D01*
X98122000Y-70041799D01*
X98122000Y-72349800D01*
X99422000Y-72349800D01*
X100222000Y-72349800D01*
X101522000Y-72349800D01*
X101522000Y-70913934D01*
X106002000Y-70913934D01*
X106002000Y-72953800D01*
X107552000Y-72953800D01*
X107552000Y-71937974D01*
X108302000Y-71937974D01*
X108302000Y-76469626D01*
X108336075Y-76596793D01*
X108401901Y-76710807D01*
X108494993Y-76803899D01*
X108609007Y-76869725D01*
X108736174Y-76903800D01*
X108867826Y-76903800D01*
X108994993Y-76869725D01*
X109109007Y-76803899D01*
X109202099Y-76710807D01*
X109267925Y-76596793D01*
X109302000Y-76469626D01*
X109302000Y-72953800D01*
X110052000Y-72953800D01*
X111602000Y-72953800D01*
X111602000Y-70913948D01*
X111601999Y-70913934D01*
X111595696Y-70801700D01*
X111595695Y-70801687D01*
X111545544Y-70536629D01*
X111545539Y-70536612D01*
X111456439Y-70281979D01*
X111456437Y-70281975D01*
X111330378Y-70043460D01*
X111330375Y-70043454D01*
X111170175Y-69826391D01*
X110979408Y-69635624D01*
X110762345Y-69475424D01*
X110762339Y-69475421D01*
X110523824Y-69349362D01*
X110523820Y-69349360D01*
X110269187Y-69260260D01*
X110269170Y-69260255D01*
X110052000Y-69219164D01*
X110052000Y-72953800D01*
X109302000Y-72953800D01*
X109302000Y-71937974D01*
X109267925Y-71810807D01*
X109202099Y-71696793D01*
X109109007Y-71603701D01*
X108994993Y-71537875D01*
X108867826Y-71503800D01*
X108736174Y-71503800D01*
X108609007Y-71537875D01*
X108494993Y-71603701D01*
X108401901Y-71696793D01*
X108336075Y-71810807D01*
X108302000Y-71937974D01*
X107552000Y-71937974D01*
X107552000Y-69219164D01*
X107551999Y-69219164D01*
X107334829Y-69260255D01*
X107334812Y-69260260D01*
X107080179Y-69349360D01*
X107080175Y-69349362D01*
X106841660Y-69475421D01*
X106841654Y-69475424D01*
X106624591Y-69635624D01*
X106433824Y-69826391D01*
X106273624Y-70043454D01*
X106273621Y-70043460D01*
X106147562Y-70281975D01*
X106147560Y-70281979D01*
X106058460Y-70536612D01*
X106058455Y-70536629D01*
X106008304Y-70801687D01*
X106008303Y-70801700D01*
X106002000Y-70913934D01*
X101522000Y-70913934D01*
X101522000Y-70041802D01*
X101521999Y-70041799D01*
X101511391Y-69922474D01*
X101511390Y-69922471D01*
X101455442Y-69726938D01*
X101361278Y-69546670D01*
X101232753Y-69389046D01*
X101075129Y-69260521D01*
X100894861Y-69166357D01*
X100699328Y-69110409D01*
X100699325Y-69110408D01*
X100580000Y-69099800D01*
X100222000Y-69099800D01*
X100222000Y-72349800D01*
X99422000Y-72349800D01*
X99422000Y-69099800D01*
X99063999Y-69099800D01*
X98944674Y-69110408D01*
X98944671Y-69110409D01*
X98749138Y-69166357D01*
X98568870Y-69260521D01*
X98411246Y-69389046D01*
X98282721Y-69546670D01*
X98188557Y-69726938D01*
X98132609Y-69922471D01*
X98132608Y-69922474D01*
X98122000Y-70041799D01*
X97160001Y-70041799D01*
X97250434Y-69951366D01*
X98102000Y-69099800D01*
X99368464Y-67833336D01*
X99368464Y-66199800D01*
X99568464Y-66399800D01*
X101452000Y-66399800D01*
X101552000Y-66299800D01*
X101552000Y-64699800D01*
X105352000Y-68499800D01*
G37*
G04 #@! TD.AperFunction*
G04 #@! TA.AperFunction,Conductor*
G36*
X122757677Y-81739485D02*
G01*
X122778319Y-81756119D01*
X123605681Y-82583481D01*
X123619071Y-82608004D01*
X123635247Y-82630798D01*
X123637253Y-82641301D01*
X123639166Y-82644804D01*
X123640767Y-82659697D01*
X123641869Y-82665465D01*
X123642000Y-82668313D01*
X123642000Y-82839800D01*
X122952000Y-82149800D01*
X118852000Y-82149800D01*
X118502000Y-82499800D01*
X118502000Y-89899800D01*
X119802000Y-91199800D01*
X122562000Y-91199800D01*
X123652000Y-90109800D01*
X123652000Y-86614800D01*
X123805836Y-86614800D01*
X123812613Y-86671242D01*
X123868079Y-86811895D01*
X123959435Y-86932364D01*
X124079904Y-87023720D01*
X124220556Y-87079186D01*
X124308946Y-87089800D01*
X125052000Y-87089800D01*
X125852000Y-87089800D01*
X126595054Y-87089800D01*
X126683443Y-87079186D01*
X126824095Y-87023720D01*
X126944566Y-86932363D01*
X127028196Y-86822082D01*
X127084389Y-86780558D01*
X127154110Y-86776007D01*
X127215224Y-86809872D01*
X127225804Y-86822082D01*
X127309433Y-86932363D01*
X127429904Y-87023720D01*
X127570556Y-87079186D01*
X127658946Y-87089800D01*
X128402000Y-87089800D01*
X129202000Y-87089800D01*
X129945054Y-87089800D01*
X130033443Y-87079186D01*
X130174095Y-87023720D01*
X130294566Y-86932363D01*
X130378196Y-86822082D01*
X130434389Y-86780558D01*
X130504110Y-86776007D01*
X130565224Y-86809872D01*
X130575804Y-86822082D01*
X130659433Y-86932363D01*
X130779904Y-87023720D01*
X130920556Y-87079186D01*
X131008946Y-87089800D01*
X131752000Y-87089800D01*
X132552000Y-87089800D01*
X133295054Y-87089800D01*
X133383443Y-87079186D01*
X133524095Y-87023720D01*
X133644566Y-86932363D01*
X133728196Y-86822082D01*
X133784389Y-86780558D01*
X133854110Y-86776007D01*
X133915224Y-86809872D01*
X133925804Y-86822082D01*
X134009433Y-86932363D01*
X134129904Y-87023720D01*
X134270556Y-87079186D01*
X134358946Y-87089800D01*
X135102000Y-87089800D01*
X135902000Y-87089800D01*
X136645054Y-87089800D01*
X136733443Y-87079186D01*
X136874095Y-87023720D01*
X136994564Y-86932364D01*
X137085920Y-86811895D01*
X137141386Y-86671242D01*
X137148164Y-86614800D01*
X135902000Y-86614800D01*
X135902000Y-87089800D01*
X135102000Y-87089800D01*
X135102000Y-86614800D01*
X132552000Y-86614800D01*
X132552000Y-87089800D01*
X131752000Y-87089800D01*
X131752000Y-86614800D01*
X129202000Y-86614800D01*
X129202000Y-87089800D01*
X128402000Y-87089800D01*
X128402000Y-86614800D01*
X125852000Y-86614800D01*
X125852000Y-87089800D01*
X125052000Y-87089800D01*
X125052000Y-86614800D01*
X123805836Y-86614800D01*
X123652000Y-86614800D01*
X123652000Y-85814800D01*
X123805836Y-85814800D01*
X125052000Y-85814800D01*
X125852000Y-85814800D01*
X128402000Y-85814800D01*
X129202000Y-85814800D01*
X131752000Y-85814800D01*
X132552000Y-85814800D01*
X135102000Y-85814800D01*
X135902000Y-85814800D01*
X137148163Y-85814800D01*
X137141386Y-85758357D01*
X137085920Y-85617704D01*
X136994564Y-85497235D01*
X136874095Y-85405879D01*
X136733443Y-85350413D01*
X136645054Y-85339800D01*
X135902000Y-85339800D01*
X135902000Y-85814800D01*
X135102000Y-85814800D01*
X135102000Y-85339800D01*
X134358946Y-85339800D01*
X134270556Y-85350413D01*
X134129904Y-85405879D01*
X134009432Y-85497236D01*
X133925803Y-85607518D01*
X133869611Y-85649041D01*
X133799889Y-85653592D01*
X133738776Y-85619727D01*
X133728197Y-85607518D01*
X133644567Y-85497236D01*
X133524095Y-85405879D01*
X133383443Y-85350413D01*
X133295054Y-85339800D01*
X132552000Y-85339800D01*
X132552000Y-85814800D01*
X131752000Y-85814800D01*
X131752000Y-85339800D01*
X131008946Y-85339800D01*
X130920556Y-85350413D01*
X130779904Y-85405879D01*
X130659432Y-85497236D01*
X130575803Y-85607518D01*
X130519611Y-85649041D01*
X130449889Y-85653592D01*
X130388776Y-85619727D01*
X130378197Y-85607518D01*
X130294567Y-85497236D01*
X130174095Y-85405879D01*
X130033443Y-85350413D01*
X129945054Y-85339800D01*
X129202000Y-85339800D01*
X129202000Y-85814800D01*
X128402000Y-85814800D01*
X128402000Y-85339800D01*
X127658946Y-85339800D01*
X127570556Y-85350413D01*
X127429904Y-85405879D01*
X127309432Y-85497236D01*
X127225803Y-85607518D01*
X127169611Y-85649041D01*
X127099889Y-85653592D01*
X127038776Y-85619727D01*
X127028197Y-85607518D01*
X126944567Y-85497236D01*
X126824095Y-85405879D01*
X126683443Y-85350413D01*
X126595054Y-85339800D01*
X125852000Y-85339800D01*
X125852000Y-85814800D01*
X125052000Y-85814800D01*
X125052000Y-85339800D01*
X124308946Y-85339800D01*
X124220556Y-85350413D01*
X124079904Y-85405879D01*
X123959435Y-85497235D01*
X123868079Y-85617704D01*
X123812613Y-85758357D01*
X123805836Y-85814800D01*
X123652000Y-85814800D01*
X123652000Y-84079800D01*
X124502000Y-84929800D01*
X137030638Y-84929800D01*
X137097677Y-84949485D01*
X137118319Y-84966119D01*
X137715681Y-85563481D01*
X137749166Y-85624804D01*
X137752000Y-85651162D01*
X137752000Y-87497446D01*
X137732315Y-87564485D01*
X137701272Y-87597482D01*
X136582000Y-88417299D01*
X136582000Y-88417300D01*
X136582000Y-92215484D01*
X136578262Y-92224508D01*
X136534421Y-92278911D01*
X136510667Y-92286816D01*
X136077686Y-92719799D01*
X136077686Y-92719801D01*
X136502770Y-93144885D01*
X136502857Y-93144889D01*
X136505677Y-93146846D01*
X136509098Y-93147153D01*
X136534174Y-93166631D01*
X136560251Y-93184736D01*
X136562618Y-93188726D01*
X136564276Y-93190014D01*
X136578261Y-93215089D01*
X136582000Y-93224115D01*
X136582000Y-93332712D01*
X136582000Y-95719800D01*
X138685681Y-97823481D01*
X138719166Y-97884804D01*
X138722000Y-97911162D01*
X138722000Y-99738438D01*
X138702315Y-99805477D01*
X138685681Y-99826119D01*
X137768319Y-100743481D01*
X137706996Y-100776966D01*
X137680638Y-100779800D01*
X115863362Y-100779800D01*
X115796323Y-100760115D01*
X115775681Y-100743481D01*
X115403319Y-100371119D01*
X115369834Y-100309796D01*
X115367000Y-100283438D01*
X115367000Y-99442853D01*
X115742000Y-99442853D01*
X115752613Y-99531243D01*
X115808079Y-99671895D01*
X115899435Y-99792364D01*
X116019904Y-99883720D01*
X116160557Y-99939186D01*
X116217000Y-99945963D01*
X117017000Y-99945963D01*
X117073442Y-99939186D01*
X117214095Y-99883720D01*
X117334564Y-99792364D01*
X117397175Y-99709800D01*
X117795836Y-99709800D01*
X117802613Y-99766242D01*
X117858079Y-99906895D01*
X117949435Y-100027364D01*
X118069904Y-100118720D01*
X118210556Y-100174186D01*
X118298946Y-100184800D01*
X119042000Y-100184800D01*
X119842000Y-100184800D01*
X120585054Y-100184800D01*
X120673443Y-100174186D01*
X120814095Y-100118720D01*
X120934564Y-100027364D01*
X121025921Y-99906894D01*
X121045645Y-99856877D01*
X121088551Y-99801732D01*
X121154458Y-99778539D01*
X121222443Y-99794659D01*
X121270920Y-99844976D01*
X121276355Y-99856877D01*
X121296078Y-99906894D01*
X121387435Y-100027364D01*
X121507904Y-100118720D01*
X121648556Y-100174186D01*
X121736946Y-100184800D01*
X122480000Y-100184800D01*
X123280000Y-100184800D01*
X124023054Y-100184800D01*
X124111443Y-100174186D01*
X124252095Y-100118720D01*
X124372564Y-100027364D01*
X124463921Y-99906894D01*
X124483645Y-99856877D01*
X124526551Y-99801732D01*
X124592458Y-99778539D01*
X124660443Y-99794659D01*
X124708920Y-99844976D01*
X124714355Y-99856877D01*
X124734078Y-99906894D01*
X124825435Y-100027364D01*
X124945904Y-100118720D01*
X125086556Y-100174186D01*
X125174946Y-100184800D01*
X125918000Y-100184800D01*
X126718000Y-100184800D01*
X127461054Y-100184800D01*
X127549443Y-100174186D01*
X127690095Y-100118720D01*
X127810564Y-100027364D01*
X127901921Y-99906894D01*
X127921645Y-99856877D01*
X127964551Y-99801732D01*
X128030458Y-99778539D01*
X128098443Y-99794659D01*
X128146920Y-99844976D01*
X128152355Y-99856877D01*
X128172078Y-99906894D01*
X128263435Y-100027364D01*
X128383904Y-100118720D01*
X128524556Y-100174186D01*
X128612946Y-100184800D01*
X129356000Y-100184800D01*
X130156000Y-100184800D01*
X130899054Y-100184800D01*
X130987443Y-100174186D01*
X131128095Y-100118720D01*
X131248564Y-100027364D01*
X131339921Y-99906894D01*
X131359645Y-99856877D01*
X131402551Y-99801732D01*
X131468458Y-99778539D01*
X131536443Y-99794659D01*
X131584920Y-99844976D01*
X131590355Y-99856877D01*
X131610078Y-99906894D01*
X131701435Y-100027364D01*
X131821904Y-100118720D01*
X131962556Y-100174186D01*
X132050946Y-100184800D01*
X132794000Y-100184800D01*
X133594000Y-100184800D01*
X134337054Y-100184800D01*
X134425443Y-100174186D01*
X134566095Y-100118720D01*
X134686564Y-100027364D01*
X134777921Y-99906894D01*
X134797645Y-99856877D01*
X134840551Y-99801732D01*
X134906458Y-99778539D01*
X134974443Y-99794659D01*
X135022920Y-99844976D01*
X135028355Y-99856877D01*
X135048078Y-99906894D01*
X135139435Y-100027364D01*
X135259904Y-100118720D01*
X135400556Y-100174186D01*
X135488946Y-100184800D01*
X136232000Y-100184800D01*
X137032000Y-100184800D01*
X137775054Y-100184800D01*
X137863443Y-100174186D01*
X138004095Y-100118720D01*
X138124564Y-100027364D01*
X138215920Y-99906895D01*
X138271386Y-99766242D01*
X138278164Y-99709800D01*
X137032000Y-99709800D01*
X137032000Y-100184800D01*
X136232000Y-100184800D01*
X136232000Y-99709800D01*
X134969898Y-99709800D01*
X134946546Y-99724426D01*
X134876681Y-99723612D01*
X134855189Y-99709800D01*
X133594000Y-99709800D01*
X133594000Y-100184800D01*
X132794000Y-100184800D01*
X132794000Y-99709800D01*
X131531898Y-99709800D01*
X131508546Y-99724426D01*
X131438681Y-99723612D01*
X131417189Y-99709800D01*
X130156000Y-99709800D01*
X130156000Y-100184800D01*
X129356000Y-100184800D01*
X129356000Y-99709800D01*
X128093898Y-99709800D01*
X128070546Y-99724426D01*
X128000681Y-99723612D01*
X127979189Y-99709800D01*
X126718000Y-99709800D01*
X126718000Y-100184800D01*
X125918000Y-100184800D01*
X125918000Y-99709800D01*
X124655898Y-99709800D01*
X124632546Y-99724426D01*
X124562681Y-99723612D01*
X124541189Y-99709800D01*
X123280000Y-99709800D01*
X123280000Y-100184800D01*
X122480000Y-100184800D01*
X122480000Y-99709800D01*
X121217898Y-99709800D01*
X121194546Y-99724426D01*
X121124681Y-99723612D01*
X121103189Y-99709800D01*
X119842000Y-99709800D01*
X119842000Y-100184800D01*
X119042000Y-100184800D01*
X119042000Y-99709800D01*
X117795836Y-99709800D01*
X117397175Y-99709800D01*
X117425920Y-99671895D01*
X117444913Y-99623733D01*
X117481386Y-99531243D01*
X117492000Y-99442853D01*
X117492000Y-98909800D01*
X117795836Y-98909800D01*
X119042000Y-98909800D01*
X119842000Y-98909800D01*
X121104100Y-98909800D01*
X121127451Y-98895174D01*
X121197316Y-98895986D01*
X121218811Y-98909800D01*
X122480000Y-98909800D01*
X123280000Y-98909800D01*
X124542100Y-98909800D01*
X124565451Y-98895174D01*
X124635316Y-98895986D01*
X124656811Y-98909800D01*
X125918000Y-98909800D01*
X126718000Y-98909800D01*
X127980100Y-98909800D01*
X128003451Y-98895174D01*
X128073316Y-98895986D01*
X128094811Y-98909800D01*
X129356000Y-98909800D01*
X130156000Y-98909800D01*
X131418100Y-98909800D01*
X131441451Y-98895174D01*
X131511316Y-98895986D01*
X131532811Y-98909800D01*
X132794000Y-98909800D01*
X133594000Y-98909800D01*
X134856100Y-98909800D01*
X134879451Y-98895174D01*
X134949316Y-98895986D01*
X134970811Y-98909800D01*
X136232000Y-98909800D01*
X137032000Y-98909800D01*
X138278163Y-98909800D01*
X138271386Y-98853357D01*
X138215920Y-98712704D01*
X138124564Y-98592235D01*
X138004095Y-98500879D01*
X137863443Y-98445413D01*
X137775054Y-98434800D01*
X137032000Y-98434800D01*
X137032000Y-98909800D01*
X136232000Y-98909800D01*
X136232000Y-98434800D01*
X135488946Y-98434800D01*
X135400556Y-98445413D01*
X135259904Y-98500879D01*
X135139435Y-98592235D01*
X135048078Y-98712706D01*
X135048077Y-98712708D01*
X135028354Y-98762723D01*
X134985449Y-98817867D01*
X134919541Y-98841060D01*
X134851556Y-98824939D01*
X134803080Y-98774622D01*
X134797646Y-98762723D01*
X134777922Y-98712708D01*
X134777921Y-98712706D01*
X134686564Y-98592235D01*
X134566095Y-98500879D01*
X134425443Y-98445413D01*
X134337054Y-98434800D01*
X133594000Y-98434800D01*
X133594000Y-98909800D01*
X132794000Y-98909800D01*
X132794000Y-98434800D01*
X132050946Y-98434800D01*
X131962556Y-98445413D01*
X131821904Y-98500879D01*
X131701435Y-98592235D01*
X131610078Y-98712706D01*
X131610077Y-98712708D01*
X131590354Y-98762723D01*
X131547449Y-98817867D01*
X131481541Y-98841060D01*
X131413556Y-98824939D01*
X131365080Y-98774622D01*
X131359646Y-98762723D01*
X131339922Y-98712708D01*
X131339921Y-98712706D01*
X131248564Y-98592235D01*
X131128095Y-98500879D01*
X130987443Y-98445413D01*
X130899054Y-98434800D01*
X130156000Y-98434800D01*
X130156000Y-98909800D01*
X129356000Y-98909800D01*
X129356000Y-98434800D01*
X128612946Y-98434800D01*
X128524556Y-98445413D01*
X128383904Y-98500879D01*
X128263435Y-98592235D01*
X128172078Y-98712706D01*
X128172077Y-98712708D01*
X128152354Y-98762723D01*
X128109449Y-98817867D01*
X128043541Y-98841060D01*
X127975556Y-98824939D01*
X127927080Y-98774622D01*
X127921646Y-98762723D01*
X127901922Y-98712708D01*
X127901921Y-98712706D01*
X127810564Y-98592235D01*
X127690095Y-98500879D01*
X127549443Y-98445413D01*
X127461054Y-98434800D01*
X126718000Y-98434800D01*
X126718000Y-98909800D01*
X125918000Y-98909800D01*
X125918000Y-98434800D01*
X125174946Y-98434800D01*
X125086556Y-98445413D01*
X124945904Y-98500879D01*
X124825435Y-98592235D01*
X124734078Y-98712706D01*
X124734077Y-98712708D01*
X124714354Y-98762723D01*
X124671449Y-98817867D01*
X124605541Y-98841060D01*
X124537556Y-98824939D01*
X124489080Y-98774622D01*
X124483646Y-98762723D01*
X124463922Y-98712708D01*
X124463921Y-98712706D01*
X124372564Y-98592235D01*
X124252095Y-98500879D01*
X124111443Y-98445413D01*
X124023054Y-98434800D01*
X123280000Y-98434800D01*
X123280000Y-98909800D01*
X122480000Y-98909800D01*
X122480000Y-98434800D01*
X121736946Y-98434800D01*
X121648556Y-98445413D01*
X121507904Y-98500879D01*
X121387435Y-98592235D01*
X121296078Y-98712706D01*
X121296077Y-98712708D01*
X121276354Y-98762723D01*
X121233449Y-98817867D01*
X121167541Y-98841060D01*
X121099556Y-98824939D01*
X121051080Y-98774622D01*
X121045646Y-98762723D01*
X121025922Y-98712708D01*
X121025921Y-98712706D01*
X120934564Y-98592235D01*
X120814095Y-98500879D01*
X120673443Y-98445413D01*
X120585054Y-98434800D01*
X119842000Y-98434800D01*
X119842000Y-98909800D01*
X119042000Y-98909800D01*
X119042000Y-98434800D01*
X118298946Y-98434800D01*
X118210556Y-98445413D01*
X118069904Y-98500879D01*
X117949435Y-98592235D01*
X117858079Y-98712704D01*
X117802613Y-98853357D01*
X117795836Y-98909800D01*
X117492000Y-98909800D01*
X117492000Y-98699800D01*
X117017000Y-98699800D01*
X117017000Y-99945963D01*
X116217000Y-99945963D01*
X116217000Y-98699800D01*
X115742000Y-98699800D01*
X115742000Y-99442853D01*
X115367000Y-99442853D01*
X115367000Y-96112853D01*
X115742000Y-96112853D01*
X115752613Y-96201243D01*
X115808079Y-96341895D01*
X115899436Y-96462367D01*
X115996531Y-96535997D01*
X116038054Y-96592189D01*
X116042605Y-96661911D01*
X116008740Y-96723024D01*
X115996531Y-96733603D01*
X115899436Y-96807232D01*
X115808079Y-96927704D01*
X115752613Y-97068356D01*
X115742000Y-97156746D01*
X115742000Y-97899800D01*
X116217000Y-97899800D01*
X117017000Y-97899800D01*
X117492000Y-97899800D01*
X117492000Y-97156746D01*
X117481386Y-97068356D01*
X117425920Y-96927704D01*
X117334563Y-96807233D01*
X117237469Y-96733604D01*
X117195945Y-96677411D01*
X117191394Y-96607690D01*
X117225259Y-96546576D01*
X117237469Y-96535996D01*
X117334563Y-96462366D01*
X117425920Y-96341895D01*
X117481386Y-96201243D01*
X117492000Y-96112853D01*
X117492000Y-95369800D01*
X117017000Y-95369800D01*
X117017000Y-97899800D01*
X116217000Y-97899800D01*
X116217000Y-95369800D01*
X115742000Y-95369800D01*
X115742000Y-96112853D01*
X115367000Y-96112853D01*
X115367000Y-93826746D01*
X115742000Y-93826746D01*
X115742000Y-94569800D01*
X116217000Y-94569800D01*
X117017000Y-94569800D01*
X117492000Y-94569800D01*
X117492000Y-93826746D01*
X117481385Y-93738355D01*
X117466832Y-93701448D01*
X117466831Y-93701446D01*
X117464988Y-93696773D01*
X135100710Y-93696773D01*
X135202808Y-93739064D01*
X135202816Y-93739066D01*
X135407594Y-93779799D01*
X135407598Y-93779800D01*
X135616402Y-93779800D01*
X135616405Y-93779799D01*
X135821183Y-93739066D01*
X135821187Y-93739065D01*
X135923288Y-93696773D01*
X135512001Y-93285486D01*
X135512000Y-93285486D01*
X135100710Y-93696773D01*
X117464988Y-93696773D01*
X117425922Y-93597708D01*
X117425921Y-93597706D01*
X117334564Y-93477235D01*
X117214095Y-93385879D01*
X117073442Y-93330413D01*
X117017001Y-93323635D01*
X117017000Y-93323635D01*
X117017000Y-94569800D01*
X116217000Y-94569800D01*
X116217000Y-93323635D01*
X116216998Y-93323635D01*
X116160557Y-93330413D01*
X116160556Y-93330413D01*
X116019904Y-93385879D01*
X115899435Y-93477235D01*
X115808079Y-93597704D01*
X115752613Y-93738356D01*
X115742000Y-93826746D01*
X115367000Y-93826746D01*
X115367000Y-92826162D01*
X115386685Y-92759123D01*
X115403319Y-92738481D01*
X116477302Y-91664498D01*
X133467500Y-91664498D01*
X133467500Y-91815101D01*
X133496877Y-91962788D01*
X133496879Y-91962796D01*
X133554507Y-92101924D01*
X133554512Y-92101933D01*
X133638173Y-92227139D01*
X133638176Y-92227143D01*
X133744656Y-92333623D01*
X133744660Y-92333626D01*
X133869866Y-92417287D01*
X133869872Y-92417290D01*
X133869873Y-92417291D01*
X134009004Y-92474921D01*
X134153702Y-92503703D01*
X134156698Y-92504299D01*
X134156702Y-92504300D01*
X134156703Y-92504300D01*
X134307298Y-92504300D01*
X134313360Y-92503703D01*
X134313573Y-92505870D01*
X134373387Y-92511216D01*
X134428569Y-92554072D01*
X134451821Y-92619959D01*
X134452000Y-92626611D01*
X134452000Y-92824205D01*
X134492733Y-93028983D01*
X134492735Y-93028991D01*
X134535025Y-93131088D01*
X135002000Y-92664113D01*
X135002000Y-92786943D01*
X135036755Y-92916653D01*
X135103898Y-93032947D01*
X135198853Y-93127902D01*
X135315147Y-93195045D01*
X135444857Y-93229800D01*
X135579143Y-93229800D01*
X135708853Y-93195045D01*
X135825147Y-93127902D01*
X135920102Y-93032947D01*
X135987245Y-92916653D01*
X136022000Y-92786943D01*
X136022000Y-92652657D01*
X135987245Y-92522947D01*
X135920102Y-92406653D01*
X135825147Y-92311698D01*
X135708853Y-92244555D01*
X135579143Y-92209800D01*
X135456313Y-92209800D01*
X135923288Y-91742825D01*
X135821191Y-91700535D01*
X135821183Y-91700533D01*
X135616405Y-91659800D01*
X135407594Y-91659800D01*
X135202816Y-91700533D01*
X135202804Y-91700536D01*
X135158418Y-91718922D01*
X135088949Y-91726391D01*
X135026470Y-91695116D01*
X134990818Y-91635027D01*
X134989349Y-91628552D01*
X134967122Y-91516811D01*
X134967121Y-91516804D01*
X134909491Y-91377673D01*
X134909490Y-91377672D01*
X134909487Y-91377666D01*
X134825826Y-91252460D01*
X134825823Y-91252456D01*
X134719343Y-91145976D01*
X134719339Y-91145973D01*
X134594133Y-91062312D01*
X134594124Y-91062307D01*
X134454996Y-91004679D01*
X134454988Y-91004677D01*
X134307301Y-90975300D01*
X134307297Y-90975300D01*
X134156703Y-90975300D01*
X134156698Y-90975300D01*
X134009011Y-91004677D01*
X134009003Y-91004679D01*
X133869875Y-91062307D01*
X133869866Y-91062312D01*
X133744660Y-91145973D01*
X133744656Y-91145976D01*
X133638176Y-91252456D01*
X133638173Y-91252460D01*
X133554512Y-91377666D01*
X133554507Y-91377675D01*
X133496879Y-91516803D01*
X133496877Y-91516811D01*
X133467500Y-91664498D01*
X116477302Y-91664498D01*
X116571070Y-91570730D01*
X117166500Y-90975300D01*
X118362000Y-89779800D01*
X118362000Y-81921162D01*
X118381685Y-81854123D01*
X118398319Y-81833481D01*
X118475681Y-81756119D01*
X118537004Y-81722634D01*
X118563362Y-81719800D01*
X122690638Y-81719800D01*
X122757677Y-81739485D01*
G37*
G04 #@! TD.AperFunction*
G04 #@! TA.AperFunction,Conductor*
G36*
X113369019Y-82160934D02*
G01*
X113389961Y-82177761D01*
X113705681Y-82493481D01*
X113739166Y-82554804D01*
X113742000Y-82581162D01*
X113742000Y-90458438D01*
X113722315Y-90525477D01*
X113705681Y-90546119D01*
X112608319Y-91643481D01*
X112546996Y-91676966D01*
X112520638Y-91679800D01*
X105373362Y-91679800D01*
X105306323Y-91660115D01*
X105285681Y-91643481D01*
X104158319Y-90516119D01*
X104124834Y-90454796D01*
X104122000Y-90428438D01*
X104122000Y-88074300D01*
X104141685Y-88007261D01*
X104194489Y-87961506D01*
X104246000Y-87950300D01*
X104866750Y-87950300D01*
X104866751Y-87950299D01*
X104880099Y-87947644D01*
X108212000Y-87947644D01*
X108218401Y-88007172D01*
X108218403Y-88007179D01*
X108268645Y-88141886D01*
X108268649Y-88141893D01*
X108354809Y-88256987D01*
X108354812Y-88256990D01*
X108469906Y-88343150D01*
X108469913Y-88343154D01*
X108604620Y-88393396D01*
X108604627Y-88393398D01*
X108664155Y-88399799D01*
X108664172Y-88399800D01*
X109262000Y-88399800D01*
X111262000Y-88399800D01*
X111859828Y-88399800D01*
X111859844Y-88399799D01*
X111919372Y-88393398D01*
X111919379Y-88393396D01*
X112054086Y-88343154D01*
X112054093Y-88343150D01*
X112169187Y-88256990D01*
X112169190Y-88256987D01*
X112255350Y-88141893D01*
X112255354Y-88141886D01*
X112305596Y-88007179D01*
X112305598Y-88007172D01*
X112311999Y-87947644D01*
X112312000Y-87947627D01*
X112312000Y-86399800D01*
X111262000Y-86399800D01*
X111262000Y-88399800D01*
X109262000Y-88399800D01*
X109262000Y-86399800D01*
X108212000Y-86399800D01*
X108212000Y-87947644D01*
X104880099Y-87947644D01*
X104886418Y-87946387D01*
X104925228Y-87938668D01*
X104925228Y-87938667D01*
X104925231Y-87938667D01*
X104991552Y-87894352D01*
X104993405Y-87891577D01*
X105008441Y-87873174D01*
X107972000Y-84884103D01*
X107972000Y-84459162D01*
X107991685Y-84392123D01*
X108044489Y-84346368D01*
X108113647Y-84336424D01*
X108177203Y-84365449D01*
X108183681Y-84371481D01*
X108212000Y-84399800D01*
X109262000Y-84399800D01*
X111262000Y-84399800D01*
X112312000Y-84399800D01*
X112312000Y-82851972D01*
X112311999Y-82851955D01*
X112305598Y-82792427D01*
X112305596Y-82792420D01*
X112255354Y-82657713D01*
X112255350Y-82657706D01*
X112169190Y-82542612D01*
X112169187Y-82542609D01*
X112054093Y-82456449D01*
X112054086Y-82456445D01*
X111919379Y-82406203D01*
X111919372Y-82406201D01*
X111859844Y-82399800D01*
X111262000Y-82399800D01*
X111262000Y-84399800D01*
X109262000Y-84399800D01*
X109262000Y-82399800D01*
X109226816Y-82364616D01*
X109193331Y-82303293D01*
X109198315Y-82233601D01*
X109240187Y-82177668D01*
X109305651Y-82153251D01*
X109314116Y-82152936D01*
X113301925Y-82141443D01*
X113369019Y-82160934D01*
G37*
G04 #@! TD.AperFunction*
G04 #@! TA.AperFunction,Conductor*
G36*
X103746334Y-88372980D02*
G01*
X103802267Y-88414852D01*
X103826684Y-88480316D01*
X103827000Y-88489162D01*
X103827000Y-90824800D01*
X105212000Y-92209800D01*
X109752000Y-92209800D01*
X108352000Y-93609800D01*
X108352000Y-108924800D01*
X110952000Y-108924800D01*
X110698319Y-109178481D01*
X110636996Y-109211966D01*
X110610638Y-109214800D01*
X108338409Y-109214800D01*
X108323462Y-109213896D01*
X108203256Y-109199300D01*
X108203254Y-109199300D01*
X108117893Y-109199300D01*
X105167862Y-109199300D01*
X105100823Y-109179615D01*
X105080181Y-109162981D01*
X104138319Y-108221119D01*
X104104834Y-108159796D01*
X104102000Y-108133438D01*
X104102000Y-107787800D01*
X104542000Y-107787800D01*
X104552608Y-107907125D01*
X104552609Y-107907128D01*
X104608557Y-108102661D01*
X104702721Y-108282929D01*
X104831246Y-108440553D01*
X104988870Y-108569078D01*
X105169138Y-108663242D01*
X105364671Y-108719190D01*
X105364674Y-108719191D01*
X105483999Y-108729799D01*
X105484002Y-108729800D01*
X105842000Y-108729800D01*
X106642000Y-108729800D01*
X106999998Y-108729800D01*
X107000000Y-108729799D01*
X107119325Y-108719191D01*
X107119328Y-108719190D01*
X107314861Y-108663242D01*
X107495129Y-108569078D01*
X107652753Y-108440553D01*
X107781278Y-108282929D01*
X107875442Y-108102661D01*
X107931390Y-107907128D01*
X107931391Y-107907125D01*
X107941999Y-107787800D01*
X107942000Y-107787798D01*
X107942000Y-105479800D01*
X106642000Y-105479800D01*
X106642000Y-108729800D01*
X105842000Y-108729800D01*
X105842000Y-105479800D01*
X104542000Y-105479800D01*
X104542000Y-107787800D01*
X104102000Y-107787800D01*
X104102000Y-102371799D01*
X104542000Y-102371799D01*
X104542000Y-104679800D01*
X105842000Y-104679800D01*
X106642000Y-104679800D01*
X107942000Y-104679800D01*
X107942000Y-102371802D01*
X107941999Y-102371799D01*
X107931391Y-102252474D01*
X107931390Y-102252471D01*
X107875442Y-102056938D01*
X107781278Y-101876670D01*
X107652753Y-101719046D01*
X107495129Y-101590521D01*
X107314861Y-101496357D01*
X107119328Y-101440409D01*
X107119325Y-101440408D01*
X107000000Y-101429800D01*
X106642000Y-101429800D01*
X106642000Y-104679800D01*
X105842000Y-104679800D01*
X105842000Y-101429800D01*
X105483999Y-101429800D01*
X105364674Y-101440408D01*
X105364671Y-101440409D01*
X105169138Y-101496357D01*
X104988870Y-101590521D01*
X104831246Y-101719046D01*
X104702721Y-101876670D01*
X104608557Y-102056938D01*
X104552609Y-102252471D01*
X104552608Y-102252474D01*
X104542000Y-102371799D01*
X104102000Y-102371799D01*
X104102000Y-99867800D01*
X104522000Y-99867800D01*
X104532608Y-99987125D01*
X104532609Y-99987128D01*
X104588557Y-100182661D01*
X104682721Y-100362929D01*
X104811246Y-100520553D01*
X104968870Y-100649078D01*
X105149138Y-100743242D01*
X105344671Y-100799190D01*
X105344674Y-100799191D01*
X105463999Y-100809799D01*
X105464002Y-100809800D01*
X105822000Y-100809800D01*
X106622000Y-100809800D01*
X106979998Y-100809800D01*
X106980000Y-100809799D01*
X107099325Y-100799191D01*
X107099328Y-100799190D01*
X107294861Y-100743242D01*
X107475129Y-100649078D01*
X107632753Y-100520553D01*
X107761278Y-100362929D01*
X107855442Y-100182661D01*
X107911390Y-99987128D01*
X107911391Y-99987125D01*
X107921999Y-99867800D01*
X107922000Y-99867798D01*
X107922000Y-97559800D01*
X106622000Y-97559800D01*
X106622000Y-100809800D01*
X105822000Y-100809800D01*
X105822000Y-97559800D01*
X104522000Y-97559800D01*
X104522000Y-99867800D01*
X104102000Y-99867800D01*
X104102000Y-94534800D01*
X104018999Y-94451799D01*
X104522000Y-94451799D01*
X104522000Y-96759800D01*
X105822000Y-96759800D01*
X106622000Y-96759800D01*
X107922000Y-96759800D01*
X107922000Y-94451802D01*
X107921999Y-94451799D01*
X107911391Y-94332474D01*
X107911390Y-94332471D01*
X107855442Y-94136938D01*
X107761278Y-93956670D01*
X107632753Y-93799046D01*
X107475129Y-93670521D01*
X107294861Y-93576357D01*
X107099328Y-93520409D01*
X107099325Y-93520408D01*
X106980000Y-93509800D01*
X106622000Y-93509800D01*
X106622000Y-96759800D01*
X105822000Y-96759800D01*
X105822000Y-93509800D01*
X105463999Y-93509800D01*
X105344674Y-93520408D01*
X105344671Y-93520409D01*
X105149138Y-93576357D01*
X104968870Y-93670521D01*
X104811246Y-93799046D01*
X104682721Y-93956670D01*
X104588557Y-94136938D01*
X104532609Y-94332471D01*
X104532608Y-94332474D01*
X104522000Y-94451799D01*
X104018999Y-94451799D01*
X102783726Y-93216526D01*
X102750241Y-93155203D01*
X102755225Y-93085511D01*
X102797097Y-93029578D01*
X102862561Y-93005161D01*
X102919530Y-93016705D01*
X102919752Y-93016023D01*
X102925697Y-93017955D01*
X102927706Y-93018362D01*
X102929036Y-93019039D01*
X102929033Y-93019039D01*
X103028544Y-93034799D01*
X103487000Y-93034799D01*
X103545449Y-93034799D01*
X103644967Y-93019037D01*
X103764923Y-92957916D01*
X103764928Y-92957913D01*
X103860113Y-92862728D01*
X103860116Y-92862723D01*
X103921239Y-92742766D01*
X103937000Y-92643256D01*
X103937000Y-92559800D01*
X103487000Y-92559800D01*
X103487000Y-93034799D01*
X103028544Y-93034799D01*
X103086999Y-93034798D01*
X103087000Y-93034798D01*
X103087000Y-92159800D01*
X103487000Y-92159800D01*
X103936999Y-92159800D01*
X103936999Y-92076350D01*
X103921237Y-91976832D01*
X103860116Y-91856876D01*
X103860113Y-91856871D01*
X103764928Y-91761686D01*
X103764923Y-91761683D01*
X103644965Y-91700560D01*
X103644966Y-91700560D01*
X103545456Y-91684800D01*
X103487000Y-91684800D01*
X103487000Y-92159800D01*
X103087000Y-92159800D01*
X103087000Y-91684800D01*
X103086999Y-91684799D01*
X103028551Y-91684800D01*
X102929032Y-91700562D01*
X102800382Y-91766113D01*
X102799044Y-91763487D01*
X102748057Y-91781669D01*
X102680006Y-91765832D01*
X102631320Y-91715717D01*
X102617000Y-91657870D01*
X102617000Y-89451162D01*
X102636685Y-89384123D01*
X102653319Y-89363481D01*
X103615319Y-88401481D01*
X103676642Y-88367996D01*
X103746334Y-88372980D01*
G37*
G04 #@! TD.AperFunction*
G04 #@! TA.AperFunction,Conductor*
G36*
X155413177Y-52219985D02*
G01*
X155433819Y-52236619D01*
X158015181Y-54817981D01*
X158048666Y-54879304D01*
X158051500Y-54905662D01*
X158051500Y-63390026D01*
X158031815Y-63457065D01*
X157979011Y-63502820D01*
X157909853Y-63512764D01*
X157846297Y-63483739D01*
X157812939Y-63437479D01*
X157782114Y-63363060D01*
X157715963Y-63203357D01*
X157571820Y-62933686D01*
X157554056Y-62900451D01*
X157554055Y-62900449D01*
X157554050Y-62900440D01*
X157363226Y-62614852D01*
X157145329Y-62349344D01*
X157145328Y-62349343D01*
X157145324Y-62349338D01*
X156902461Y-62106475D01*
X156636953Y-61888578D01*
X156636952Y-61888577D01*
X156636948Y-61888574D01*
X156351360Y-61697750D01*
X156351355Y-61697747D01*
X156351348Y-61697743D01*
X156048450Y-61535840D01*
X156048438Y-61535835D01*
X155731119Y-61404397D01*
X155498491Y-61333830D01*
X155402431Y-61304691D01*
X155402428Y-61304690D01*
X155402427Y-61304690D01*
X155065554Y-61237681D01*
X154824732Y-61213963D01*
X154723737Y-61204016D01*
X154380263Y-61204016D01*
X154288323Y-61213071D01*
X154038445Y-61237681D01*
X153701572Y-61304690D01*
X153372880Y-61404397D01*
X153055561Y-61535835D01*
X153055549Y-61535840D01*
X152752651Y-61697743D01*
X152752633Y-61697754D01*
X152467060Y-61888568D01*
X152467046Y-61888578D01*
X152201538Y-62106475D01*
X151958675Y-62349338D01*
X151740778Y-62614846D01*
X151740768Y-62614860D01*
X151549954Y-62900433D01*
X151549943Y-62900451D01*
X151388040Y-63203349D01*
X151388035Y-63203361D01*
X151256597Y-63520680D01*
X151156890Y-63849372D01*
X151089881Y-64186245D01*
X151070818Y-64379800D01*
X151056216Y-64528063D01*
X151056216Y-64871537D01*
X151058679Y-64896540D01*
X151089881Y-65213354D01*
X151156890Y-65550227D01*
X151256597Y-65878919D01*
X151388035Y-66196238D01*
X151388040Y-66196250D01*
X151549943Y-66499148D01*
X151549954Y-66499166D01*
X151740768Y-66784739D01*
X151740778Y-66784753D01*
X151958675Y-67050261D01*
X152201538Y-67293124D01*
X152201543Y-67293128D01*
X152201544Y-67293129D01*
X152467052Y-67511026D01*
X152752640Y-67701850D01*
X152752649Y-67701855D01*
X152752651Y-67701856D01*
X153055549Y-67863759D01*
X153055551Y-67863759D01*
X153055557Y-67863763D01*
X153201773Y-67924327D01*
X153372880Y-67995202D01*
X153372884Y-67995203D01*
X153372886Y-67995204D01*
X153701569Y-68094909D01*
X154038443Y-68161918D01*
X154380263Y-68195584D01*
X154380266Y-68195584D01*
X154723734Y-68195584D01*
X154723737Y-68195584D01*
X155065557Y-68161918D01*
X155402431Y-68094909D01*
X155731114Y-67995204D01*
X156048443Y-67863763D01*
X156351360Y-67701850D01*
X156636948Y-67511026D01*
X156902456Y-67293129D01*
X157145329Y-67050256D01*
X157363226Y-66784748D01*
X157554050Y-66499160D01*
X157715963Y-66196243D01*
X157805884Y-65979152D01*
X157812939Y-65962121D01*
X157856780Y-65907717D01*
X157923074Y-65885652D01*
X157990773Y-65902931D01*
X158038384Y-65954068D01*
X158051500Y-66009573D01*
X158051500Y-75498938D01*
X158031815Y-75565977D01*
X158015181Y-75586619D01*
X156738319Y-76863481D01*
X156676996Y-76896966D01*
X156650638Y-76899800D01*
X150403362Y-76899800D01*
X150336323Y-76880115D01*
X150315681Y-76863481D01*
X148588319Y-75136119D01*
X148554834Y-75074796D01*
X148552000Y-75048438D01*
X148552000Y-73199800D01*
X144349491Y-68997291D01*
X144316006Y-68935968D01*
X144320990Y-68866276D01*
X144362862Y-68810343D01*
X144428326Y-68785926D01*
X144461882Y-68790019D01*
X144462057Y-68788920D01*
X144565475Y-68805299D01*
X144565481Y-68805300D01*
X145178518Y-68805299D01*
X145272304Y-68790446D01*
X145385342Y-68732850D01*
X145475050Y-68643142D01*
X145475053Y-68643135D01*
X145480783Y-68635250D01*
X145482648Y-68636605D01*
X145521345Y-68595625D01*
X145589165Y-68578823D01*
X145655302Y-68601355D01*
X145671547Y-68615029D01*
X146172835Y-69116317D01*
X146204927Y-69171902D01*
X146232201Y-69273686D01*
X146291511Y-69376413D01*
X146375387Y-69460289D01*
X146478114Y-69519599D01*
X146592691Y-69550300D01*
X146592694Y-69550300D01*
X146711306Y-69550300D01*
X146711309Y-69550300D01*
X146825886Y-69519599D01*
X146928613Y-69460289D01*
X147012489Y-69376413D01*
X147071799Y-69273686D01*
X147102500Y-69159109D01*
X147102500Y-69040491D01*
X147071799Y-68925914D01*
X147012489Y-68823187D01*
X146928613Y-68739311D01*
X146825886Y-68680001D01*
X146724102Y-68652727D01*
X146668517Y-68620635D01*
X145972213Y-67924331D01*
X145972208Y-67924327D01*
X145892290Y-67878187D01*
X145892289Y-67878186D01*
X145892288Y-67878186D01*
X145803144Y-67854300D01*
X145803143Y-67854300D01*
X145595795Y-67854300D01*
X145528756Y-67834615D01*
X145485311Y-67786596D01*
X145483412Y-67782871D01*
X145475050Y-67766458D01*
X145475047Y-67766455D01*
X145475045Y-67766452D01*
X145385347Y-67676754D01*
X145385344Y-67676752D01*
X145385342Y-67676750D01*
X145308517Y-67637605D01*
X145272301Y-67619152D01*
X145178524Y-67604300D01*
X144565482Y-67604300D01*
X144484519Y-67617123D01*
X144471696Y-67619154D01*
X144358658Y-67676750D01*
X144358657Y-67676751D01*
X144358652Y-67676754D01*
X144268954Y-67766452D01*
X144268951Y-67766457D01*
X144268950Y-67766458D01*
X144258689Y-67786596D01*
X144211352Y-67879498D01*
X144196500Y-67973275D01*
X144196500Y-68436317D01*
X144212881Y-68539743D01*
X144210515Y-68540117D01*
X144212115Y-68596154D01*
X144176033Y-68655986D01*
X144113332Y-68686812D01*
X144043918Y-68678846D01*
X144004509Y-68652309D01*
X142438319Y-67086119D01*
X142404834Y-67024796D01*
X142402000Y-66998438D01*
X142402000Y-64379800D01*
X142702738Y-64379800D01*
X142742153Y-64492445D01*
X142828226Y-64609069D01*
X142826961Y-64610001D01*
X142855449Y-64662172D01*
X142850465Y-64731864D01*
X142845684Y-64742989D01*
X142803926Y-64828406D01*
X142803926Y-64828407D01*
X142794000Y-64896539D01*
X142794000Y-65263060D01*
X142803926Y-65331191D01*
X142855303Y-65436285D01*
X142938014Y-65518996D01*
X142938015Y-65518996D01*
X142938017Y-65518998D01*
X143043107Y-65570373D01*
X143077173Y-65575336D01*
X143111239Y-65580300D01*
X143111240Y-65580300D01*
X143232500Y-65580300D01*
X143299539Y-65599985D01*
X143345294Y-65652789D01*
X143356500Y-65704300D01*
X143356500Y-66044362D01*
X143365088Y-66076413D01*
X143376979Y-66120790D01*
X143376980Y-66120791D01*
X143396040Y-66153804D01*
X143416540Y-66189311D01*
X143966540Y-66739311D01*
X144022489Y-66795260D01*
X144022491Y-66795261D01*
X144022495Y-66795264D01*
X144091004Y-66834817D01*
X144091011Y-66834821D01*
X144150336Y-66850717D01*
X144209994Y-66887081D01*
X144228724Y-66914195D01*
X144268949Y-66993140D01*
X144268954Y-66993147D01*
X144358652Y-67082845D01*
X144358654Y-67082846D01*
X144358658Y-67082850D01*
X144471694Y-67140445D01*
X144471698Y-67140447D01*
X144565475Y-67155299D01*
X144565481Y-67155300D01*
X145178518Y-67155299D01*
X145272304Y-67140446D01*
X145385342Y-67082850D01*
X145475050Y-66993142D01*
X145510787Y-66923003D01*
X145521235Y-66911940D01*
X145527558Y-66898097D01*
X145544738Y-66887055D01*
X145558761Y-66872209D01*
X145574440Y-66867967D01*
X145586336Y-66860323D01*
X145621271Y-66855300D01*
X145636179Y-66855300D01*
X145703218Y-66874985D01*
X145748973Y-66927789D01*
X145758652Y-66959901D01*
X145771354Y-67040104D01*
X145828950Y-67153142D01*
X145828952Y-67153144D01*
X145828954Y-67153147D01*
X145918652Y-67242845D01*
X145918654Y-67242846D01*
X145918658Y-67242850D01*
X146017326Y-67293124D01*
X146031698Y-67300447D01*
X146125475Y-67315299D01*
X146125481Y-67315300D01*
X146588518Y-67315299D01*
X146682304Y-67300446D01*
X146795342Y-67242850D01*
X146885050Y-67153142D01*
X146942646Y-67040104D01*
X146942646Y-67040102D01*
X146942647Y-67040101D01*
X146954915Y-66962644D01*
X147307000Y-66962644D01*
X147313401Y-67022172D01*
X147313403Y-67022179D01*
X147363645Y-67156886D01*
X147363649Y-67156893D01*
X147449809Y-67271987D01*
X147449812Y-67271990D01*
X147564906Y-67358150D01*
X147564913Y-67358154D01*
X147699624Y-67408398D01*
X147757000Y-67414565D01*
X148257000Y-67414565D01*
X148314375Y-67408398D01*
X148449086Y-67358154D01*
X148449093Y-67358150D01*
X148564187Y-67271990D01*
X148564190Y-67271987D01*
X148650350Y-67156893D01*
X148650354Y-67156886D01*
X148700596Y-67022179D01*
X148700598Y-67022172D01*
X148706999Y-66962644D01*
X148707000Y-66962627D01*
X148707000Y-66889800D01*
X148257000Y-66889800D01*
X148257000Y-67414565D01*
X147757000Y-67414565D01*
X147757000Y-66889800D01*
X147307000Y-66889800D01*
X147307000Y-66962644D01*
X146954915Y-66962644D01*
X146957500Y-66946324D01*
X146957500Y-66838438D01*
X146957499Y-66333277D01*
X146957463Y-66333052D01*
X146957462Y-66333048D01*
X146954913Y-66316955D01*
X147307000Y-66316955D01*
X147307000Y-66389800D01*
X147757000Y-66389800D01*
X148257000Y-66389800D01*
X148707000Y-66389800D01*
X148707000Y-66316972D01*
X148706999Y-66316955D01*
X148700598Y-66257427D01*
X148700596Y-66257420D01*
X148650354Y-66122713D01*
X148650350Y-66122706D01*
X148564190Y-66007612D01*
X148564187Y-66007609D01*
X148449093Y-65921449D01*
X148449086Y-65921445D01*
X148314380Y-65871203D01*
X148314373Y-65871201D01*
X148257000Y-65865032D01*
X148257000Y-66389800D01*
X147757000Y-66389800D01*
X147757000Y-65865033D01*
X147756999Y-65865032D01*
X147699626Y-65871201D01*
X147699619Y-65871203D01*
X147564913Y-65921445D01*
X147564906Y-65921449D01*
X147449812Y-66007609D01*
X147449809Y-66007612D01*
X147363649Y-66122706D01*
X147363645Y-66122713D01*
X147313403Y-66257420D01*
X147313401Y-66257427D01*
X147307000Y-66316955D01*
X146954913Y-66316955D01*
X146942646Y-66239496D01*
X146885050Y-66126458D01*
X146885046Y-66126454D01*
X146885045Y-66126452D01*
X146795347Y-66036754D01*
X146795344Y-66036752D01*
X146795342Y-66036750D01*
X146718517Y-65997605D01*
X146682301Y-65979152D01*
X146588524Y-65964300D01*
X146125482Y-65964300D01*
X146044519Y-65977123D01*
X146031696Y-65979154D01*
X145918658Y-66036750D01*
X145918657Y-66036751D01*
X145918652Y-66036754D01*
X145828954Y-66126452D01*
X145828951Y-66126457D01*
X145828950Y-66126458D01*
X145798309Y-66186595D01*
X145787859Y-66197659D01*
X145781537Y-66211503D01*
X145764356Y-66222544D01*
X145750334Y-66237391D01*
X145734654Y-66241632D01*
X145722759Y-66249277D01*
X145687824Y-66254300D01*
X145621272Y-66254300D01*
X145554233Y-66234615D01*
X145510788Y-66186596D01*
X145480145Y-66126458D01*
X145475050Y-66116458D01*
X145475047Y-66116455D01*
X145475045Y-66116452D01*
X145385347Y-66026754D01*
X145385344Y-66026752D01*
X145385342Y-66026750D01*
X145291930Y-65979154D01*
X145272301Y-65969152D01*
X145178524Y-65954300D01*
X144565482Y-65954300D01*
X144484519Y-65967123D01*
X144471696Y-65969154D01*
X144358658Y-66026750D01*
X144358657Y-66026751D01*
X144358652Y-66026754D01*
X144318970Y-66066437D01*
X144311024Y-66070775D01*
X144305599Y-66078023D01*
X144280839Y-66087257D01*
X144257647Y-66099922D01*
X144248617Y-66099276D01*
X144240135Y-66102440D01*
X144214314Y-66096823D01*
X144187955Y-66094938D01*
X144178901Y-66089119D01*
X144171862Y-66087588D01*
X144143608Y-66066437D01*
X143993819Y-65916648D01*
X143960334Y-65855325D01*
X143957500Y-65828967D01*
X143957500Y-65704300D01*
X143977185Y-65637261D01*
X144029989Y-65591506D01*
X144081500Y-65580300D01*
X144202761Y-65580300D01*
X144225471Y-65576991D01*
X144270893Y-65570373D01*
X144375983Y-65518998D01*
X144458698Y-65436283D01*
X144510073Y-65331193D01*
X144510276Y-65329800D01*
X144977738Y-65329800D01*
X145017153Y-65442445D01*
X145097707Y-65551592D01*
X145206854Y-65632146D01*
X145334897Y-65676949D01*
X145365292Y-65679799D01*
X145681999Y-65679799D01*
X146182000Y-65679799D01*
X146498696Y-65679799D01*
X146529106Y-65676948D01*
X146657145Y-65632146D01*
X146766292Y-65551592D01*
X146846846Y-65442445D01*
X146886262Y-65329800D01*
X146182000Y-65329800D01*
X146182000Y-65679799D01*
X145681999Y-65679799D01*
X145682000Y-65679798D01*
X145682000Y-65329800D01*
X144977738Y-65329800D01*
X144510276Y-65329800D01*
X144520000Y-65263060D01*
X144520000Y-64896540D01*
X144516356Y-64871533D01*
X144510073Y-64828408D01*
X144510072Y-64828406D01*
X144468314Y-64742988D01*
X144456556Y-64674117D01*
X144483900Y-64609820D01*
X144490991Y-64601999D01*
X144571846Y-64492445D01*
X144611262Y-64379800D01*
X142702738Y-64379800D01*
X142402000Y-64379800D01*
X142402000Y-63879800D01*
X142702738Y-63879800D01*
X144611261Y-63879800D01*
X144571846Y-63767154D01*
X144485774Y-63650531D01*
X144487037Y-63649598D01*
X144483691Y-63643470D01*
X144471295Y-63631243D01*
X144467293Y-63613440D01*
X144458550Y-63597427D01*
X144459745Y-63579856D01*
X144455974Y-63563073D01*
X144462581Y-63538197D01*
X144463239Y-63528535D01*
X144465462Y-63522445D01*
X144510073Y-63431193D01*
X144510276Y-63429800D01*
X144977738Y-63429800D01*
X145017153Y-63542445D01*
X145103226Y-63659069D01*
X145101961Y-63660001D01*
X145130449Y-63712172D01*
X145125465Y-63781864D01*
X145120684Y-63792989D01*
X145078926Y-63878406D01*
X145078926Y-63878407D01*
X145069000Y-63946539D01*
X145069000Y-64313060D01*
X145078926Y-64381191D01*
X145120684Y-64466609D01*
X145132442Y-64535482D01*
X145105099Y-64599779D01*
X145098011Y-64607596D01*
X145017153Y-64717154D01*
X144977738Y-64829800D01*
X146942500Y-64829800D01*
X147009539Y-64849485D01*
X147055294Y-64902289D01*
X147065346Y-64948498D01*
X147066118Y-64948438D01*
X147066499Y-64953291D01*
X147082279Y-65052921D01*
X147082280Y-65052924D01*
X147082281Y-65052926D01*
X147143471Y-65173018D01*
X147143473Y-65173021D01*
X147143476Y-65173025D01*
X147238774Y-65268323D01*
X147238778Y-65268326D01*
X147238780Y-65268328D01*
X147358874Y-65329519D01*
X147358876Y-65329519D01*
X147358878Y-65329520D01*
X147458507Y-65345300D01*
X147458512Y-65345300D01*
X148025493Y-65345300D01*
X148125121Y-65329520D01*
X148125121Y-65329519D01*
X148125126Y-65329519D01*
X148245220Y-65268328D01*
X148340528Y-65173020D01*
X148390497Y-65074949D01*
X148438470Y-65024154D01*
X148506291Y-65007359D01*
X148572426Y-65029896D01*
X148588662Y-65043564D01*
X148591510Y-65046412D01*
X148591511Y-65046413D01*
X148675387Y-65130289D01*
X148778114Y-65189599D01*
X148892691Y-65220300D01*
X148892694Y-65220300D01*
X149011306Y-65220300D01*
X149011309Y-65220300D01*
X149125886Y-65189599D01*
X149228613Y-65130289D01*
X149312489Y-65046413D01*
X149371799Y-64943686D01*
X149402500Y-64829109D01*
X149402500Y-64710491D01*
X149371799Y-64595914D01*
X149312489Y-64493187D01*
X149228613Y-64409311D01*
X149125886Y-64350001D01*
X149011309Y-64319300D01*
X148892691Y-64319300D01*
X148778114Y-64350001D01*
X148778112Y-64350001D01*
X148778112Y-64350002D01*
X148730161Y-64377687D01*
X148714671Y-64381837D01*
X148703095Y-64389277D01*
X148668160Y-64394300D01*
X148507068Y-64394300D01*
X148440029Y-64374615D01*
X148396583Y-64326595D01*
X148392866Y-64319300D01*
X148340528Y-64216580D01*
X148340524Y-64216576D01*
X148340523Y-64216574D01*
X148245225Y-64121276D01*
X148245222Y-64121274D01*
X148245220Y-64121272D01*
X148172859Y-64084402D01*
X148122064Y-64036428D01*
X148105269Y-63968607D01*
X148127807Y-63902472D01*
X148182522Y-63859021D01*
X148183666Y-63858563D01*
X148251727Y-63831723D01*
X148251729Y-63831722D01*
X148366721Y-63744521D01*
X148453922Y-63629529D01*
X148506868Y-63495268D01*
X148506868Y-63495267D01*
X148517000Y-63410902D01*
X148517000Y-63394800D01*
X147023403Y-63394800D01*
X146964496Y-63426966D01*
X146938138Y-63429800D01*
X144977738Y-63429800D01*
X144510276Y-63429800D01*
X144520000Y-63363060D01*
X144520000Y-62996540D01*
X144510276Y-62929800D01*
X144977738Y-62929800D01*
X145682000Y-62929800D01*
X145682000Y-62579800D01*
X146182000Y-62579800D01*
X146182000Y-62929800D01*
X146838097Y-62929800D01*
X146897004Y-62897634D01*
X146923362Y-62894800D01*
X147492000Y-62894800D01*
X147992000Y-62894800D01*
X148517000Y-62894800D01*
X148517000Y-62878697D01*
X148506868Y-62794332D01*
X148506868Y-62794331D01*
X148453922Y-62660070D01*
X148366721Y-62545078D01*
X148251729Y-62457877D01*
X148117467Y-62404931D01*
X148033102Y-62394800D01*
X147992000Y-62394800D01*
X147992000Y-62894800D01*
X147492000Y-62894800D01*
X147492000Y-62394800D01*
X147450898Y-62394800D01*
X147366532Y-62404931D01*
X147366531Y-62404931D01*
X147232270Y-62457877D01*
X147117278Y-62545078D01*
X147030077Y-62660070D01*
X147030075Y-62660074D01*
X147008043Y-62715943D01*
X146965137Y-62771087D01*
X146899229Y-62794279D01*
X146831244Y-62778158D01*
X146792919Y-62744086D01*
X146766292Y-62708007D01*
X146657145Y-62627453D01*
X146529102Y-62582650D01*
X146498707Y-62579800D01*
X146182000Y-62579800D01*
X145682000Y-62579800D01*
X145365304Y-62579800D01*
X145334893Y-62582651D01*
X145206854Y-62627453D01*
X145097707Y-62708007D01*
X145017153Y-62817154D01*
X144977738Y-62929800D01*
X144510276Y-62929800D01*
X144510073Y-62928407D01*
X144458698Y-62823317D01*
X144458696Y-62823315D01*
X144458696Y-62823314D01*
X144375985Y-62740603D01*
X144270891Y-62689226D01*
X144202761Y-62679300D01*
X144202760Y-62679300D01*
X143806500Y-62679300D01*
X143739461Y-62659615D01*
X143693706Y-62606811D01*
X143682500Y-62555300D01*
X143682500Y-62241618D01*
X143702185Y-62174579D01*
X143750203Y-62131135D01*
X143825342Y-62092850D01*
X143915050Y-62003142D01*
X143972646Y-61890104D01*
X143972646Y-61890102D01*
X143972647Y-61890101D01*
X143987499Y-61796324D01*
X143987500Y-61796319D01*
X143987499Y-61183282D01*
X143987498Y-61183275D01*
X144436500Y-61183275D01*
X144436500Y-61796317D01*
X144447292Y-61864457D01*
X144451354Y-61890104D01*
X144508950Y-62003142D01*
X144508952Y-62003144D01*
X144508954Y-62003147D01*
X144598652Y-62092845D01*
X144598654Y-62092846D01*
X144598658Y-62092850D01*
X144711694Y-62150445D01*
X144711698Y-62150447D01*
X144805475Y-62165299D01*
X144805481Y-62165300D01*
X145268518Y-62165299D01*
X145362304Y-62150446D01*
X145475342Y-62092850D01*
X145565050Y-62003142D01*
X145622646Y-61890104D01*
X145622646Y-61890102D01*
X145622647Y-61890101D01*
X145637499Y-61796324D01*
X145637500Y-61796319D01*
X145637499Y-61183282D01*
X145622646Y-61089496D01*
X145565050Y-60976458D01*
X145565046Y-60976454D01*
X145565045Y-60976452D01*
X145475347Y-60886754D01*
X145475343Y-60886751D01*
X145475342Y-60886750D01*
X145442500Y-60870016D01*
X145405204Y-60851012D01*
X145394140Y-60840563D01*
X145380297Y-60834241D01*
X145369255Y-60817059D01*
X145354408Y-60803037D01*
X145350166Y-60787356D01*
X145342523Y-60775463D01*
X145337500Y-60740528D01*
X145337500Y-60582764D01*
X145357185Y-60515725D01*
X145373819Y-60495083D01*
X145407489Y-60461413D01*
X145442489Y-60426413D01*
X145501799Y-60323686D01*
X145532500Y-60209109D01*
X145532500Y-60090491D01*
X145501799Y-59975914D01*
X145442489Y-59873187D01*
X145358613Y-59789311D01*
X145255886Y-59730001D01*
X145141309Y-59699300D01*
X145022691Y-59699300D01*
X144908114Y-59730001D01*
X144908112Y-59730001D01*
X144908112Y-59730002D01*
X144805387Y-59789311D01*
X144805384Y-59789313D01*
X144721513Y-59873184D01*
X144721511Y-59873187D01*
X144662201Y-59975914D01*
X144631500Y-60090491D01*
X144631500Y-60209109D01*
X144662201Y-60323686D01*
X144719887Y-60423601D01*
X144736500Y-60485600D01*
X144736500Y-60740528D01*
X144716815Y-60807567D01*
X144668796Y-60851012D01*
X144598659Y-60886749D01*
X144598652Y-60886754D01*
X144508954Y-60976452D01*
X144508951Y-60976457D01*
X144451352Y-61089498D01*
X144436500Y-61183275D01*
X143987498Y-61183275D01*
X143972646Y-61089496D01*
X143915050Y-60976458D01*
X143915046Y-60976454D01*
X143915045Y-60976452D01*
X143825347Y-60886754D01*
X143825344Y-60886752D01*
X143825342Y-60886750D01*
X143750204Y-60848465D01*
X143739140Y-60838016D01*
X143725297Y-60831694D01*
X143714255Y-60814513D01*
X143699409Y-60800491D01*
X143695167Y-60784811D01*
X143687523Y-60772916D01*
X143682500Y-60737981D01*
X143682500Y-60511940D01*
X143699112Y-60449940D01*
X143751799Y-60358686D01*
X143782500Y-60244109D01*
X143782500Y-60125491D01*
X143751799Y-60010914D01*
X143731592Y-59975914D01*
X143699113Y-59919659D01*
X143694962Y-59904170D01*
X143687523Y-59892594D01*
X143682500Y-59857659D01*
X143682500Y-59761940D01*
X143699112Y-59699940D01*
X143751799Y-59608686D01*
X143782500Y-59494109D01*
X143782500Y-59375491D01*
X143751799Y-59260914D01*
X143692489Y-59158187D01*
X143608613Y-59074311D01*
X143505886Y-59015001D01*
X143391309Y-58984300D01*
X143272691Y-58984300D01*
X143158114Y-59015001D01*
X143158112Y-59015001D01*
X143158112Y-59015002D01*
X143055387Y-59074311D01*
X143055384Y-59074313D01*
X142971513Y-59158184D01*
X142971511Y-59158187D01*
X142912201Y-59260914D01*
X142881500Y-59375491D01*
X142881500Y-59494109D01*
X142912201Y-59608686D01*
X142964887Y-59699940D01*
X142969037Y-59715428D01*
X142976477Y-59727005D01*
X142981500Y-59761940D01*
X142981500Y-59857659D01*
X142964887Y-59919659D01*
X142912202Y-60010910D01*
X142912201Y-60010914D01*
X142881500Y-60125491D01*
X142881500Y-60244109D01*
X142912201Y-60358686D01*
X142964887Y-60449940D01*
X142981500Y-60511940D01*
X142981500Y-60802545D01*
X142961815Y-60869584D01*
X142945181Y-60890226D01*
X142858954Y-60976452D01*
X142858951Y-60976457D01*
X142801352Y-61089498D01*
X142786500Y-61183275D01*
X142786500Y-61796317D01*
X142797292Y-61864457D01*
X142801354Y-61890104D01*
X142858950Y-62003142D01*
X142945182Y-62089374D01*
X142978666Y-62150695D01*
X142981500Y-62177054D01*
X142981500Y-62645756D01*
X142961815Y-62712795D01*
X142945181Y-62733437D01*
X142855303Y-62823314D01*
X142803926Y-62928408D01*
X142794000Y-62996539D01*
X142794000Y-63363060D01*
X142803926Y-63431191D01*
X142845684Y-63516609D01*
X142857442Y-63585482D01*
X142830099Y-63649779D01*
X142823011Y-63657596D01*
X142742153Y-63767154D01*
X142702738Y-63879800D01*
X142402000Y-63879800D01*
X142402000Y-57649800D01*
X140802000Y-56049800D01*
X138024495Y-56049800D01*
X137957456Y-56030115D01*
X137911701Y-55977311D01*
X137901757Y-55908153D01*
X137930782Y-55844597D01*
X137979005Y-55810445D01*
X138034095Y-55788720D01*
X138154564Y-55697364D01*
X138245920Y-55576895D01*
X138301386Y-55436243D01*
X138312000Y-55347853D01*
X138312000Y-55229800D01*
X134988987Y-55229800D01*
X134978358Y-55235604D01*
X134908666Y-55230620D01*
X134864319Y-55202119D01*
X134862000Y-55199800D01*
X131534830Y-55199800D01*
X131533358Y-55200604D01*
X131522116Y-55199800D01*
X131510638Y-55199800D01*
X131510638Y-55198979D01*
X131463666Y-55195620D01*
X131439050Y-55179800D01*
X128162000Y-55179800D01*
X128125681Y-55216119D01*
X128123609Y-55214047D01*
X128089511Y-55243594D01*
X128038000Y-55254800D01*
X124680638Y-55254800D01*
X124680638Y-55251300D01*
X124636166Y-55248120D01*
X124607660Y-55229800D01*
X121312000Y-55229800D01*
X121312000Y-55347853D01*
X121322613Y-55436243D01*
X121378079Y-55576895D01*
X121469435Y-55697364D01*
X121589904Y-55788720D01*
X121644995Y-55810445D01*
X121700139Y-55853351D01*
X121723332Y-55919259D01*
X121707212Y-55987243D01*
X121656895Y-56035720D01*
X121599505Y-56049800D01*
X113053362Y-56049800D01*
X112986323Y-56030115D01*
X112965681Y-56013481D01*
X111563946Y-54611746D01*
X121312000Y-54611746D01*
X121312000Y-54729800D01*
X122712000Y-54729800D01*
X123212000Y-54729800D01*
X124663362Y-54729800D01*
X124663362Y-54733299D01*
X124707834Y-54736480D01*
X124736340Y-54754800D01*
X126132000Y-54754800D01*
X126132000Y-54129800D01*
X126632000Y-54129800D01*
X126632000Y-54754800D01*
X128002000Y-54754800D01*
X128038319Y-54718481D01*
X128040390Y-54720552D01*
X128074489Y-54691006D01*
X128126000Y-54679800D01*
X129532000Y-54679800D01*
X130032000Y-54679800D01*
X131459170Y-54679800D01*
X131460642Y-54678996D01*
X131471884Y-54679800D01*
X131483362Y-54679800D01*
X131483362Y-54680620D01*
X131530334Y-54683980D01*
X131554950Y-54699800D01*
X132962000Y-54699800D01*
X133462000Y-54699800D01*
X134885013Y-54699800D01*
X134895642Y-54693996D01*
X134965334Y-54698980D01*
X135009681Y-54727481D01*
X135012000Y-54729800D01*
X136412000Y-54729800D01*
X136912000Y-54729800D01*
X138312000Y-54729800D01*
X138312000Y-54611746D01*
X138301386Y-54523356D01*
X138245920Y-54382704D01*
X138154564Y-54262235D01*
X138034095Y-54170879D01*
X137893443Y-54115413D01*
X137805054Y-54104800D01*
X136912000Y-54104800D01*
X136912000Y-54729800D01*
X136412000Y-54729800D01*
X136412000Y-54104800D01*
X135518946Y-54104800D01*
X135430556Y-54115413D01*
X135289904Y-54170879D01*
X135169435Y-54262235D01*
X135078078Y-54382706D01*
X135078077Y-54382708D01*
X135058269Y-54432938D01*
X135015363Y-54488082D01*
X134949455Y-54511275D01*
X134881471Y-54495154D01*
X134832995Y-54444837D01*
X134827560Y-54432938D01*
X134795920Y-54352704D01*
X134704564Y-54232235D01*
X134584095Y-54140879D01*
X134443443Y-54085413D01*
X134355054Y-54074800D01*
X133462000Y-54074800D01*
X133462000Y-54699800D01*
X132962000Y-54699800D01*
X132962000Y-54074800D01*
X132068946Y-54074800D01*
X131980556Y-54085413D01*
X131839904Y-54140879D01*
X131719435Y-54232235D01*
X131628078Y-54352705D01*
X131616297Y-54382581D01*
X131573390Y-54437724D01*
X131507482Y-54460916D01*
X131439497Y-54444794D01*
X131391022Y-54394477D01*
X131385588Y-54382579D01*
X131365920Y-54332704D01*
X131274564Y-54212235D01*
X131154095Y-54120879D01*
X131013443Y-54065413D01*
X130925054Y-54054800D01*
X130032000Y-54054800D01*
X130032000Y-54679800D01*
X129532000Y-54679800D01*
X129532000Y-54054800D01*
X128638946Y-54054800D01*
X128550556Y-54065413D01*
X128409904Y-54120879D01*
X128289435Y-54212235D01*
X128198078Y-54332706D01*
X128180099Y-54378297D01*
X128137192Y-54433441D01*
X128071284Y-54456633D01*
X128003300Y-54440512D01*
X127965941Y-54407732D01*
X127874564Y-54287235D01*
X127754095Y-54195879D01*
X127613443Y-54140413D01*
X127525054Y-54129800D01*
X126632000Y-54129800D01*
X126132000Y-54129800D01*
X125238946Y-54129800D01*
X125150556Y-54140413D01*
X125009904Y-54195879D01*
X124889435Y-54287235D01*
X124798078Y-54407706D01*
X124798077Y-54407708D01*
X124792282Y-54422403D01*
X124749375Y-54477546D01*
X124683467Y-54500738D01*
X124615483Y-54484615D01*
X124567007Y-54434297D01*
X124561574Y-54422400D01*
X124545920Y-54382704D01*
X124454564Y-54262235D01*
X124334095Y-54170879D01*
X124193443Y-54115413D01*
X124105054Y-54104800D01*
X123212000Y-54104800D01*
X123212000Y-54729800D01*
X122712000Y-54729800D01*
X122712000Y-54104800D01*
X121818946Y-54104800D01*
X121730556Y-54115413D01*
X121589904Y-54170879D01*
X121469435Y-54262235D01*
X121378079Y-54382704D01*
X121322613Y-54523356D01*
X121312000Y-54611746D01*
X111563946Y-54611746D01*
X111497000Y-54544800D01*
X102213362Y-54544800D01*
X102146323Y-54525115D01*
X102125681Y-54508481D01*
X102022000Y-54404800D01*
X100263362Y-54404800D01*
X100196323Y-54385115D01*
X100175681Y-54368481D01*
X99960819Y-54153619D01*
X99927334Y-54092296D01*
X99924500Y-54065938D01*
X99924500Y-52466162D01*
X99933144Y-52436721D01*
X99939668Y-52406735D01*
X99943422Y-52401719D01*
X99944185Y-52399123D01*
X99960819Y-52378481D01*
X100102681Y-52236619D01*
X100164004Y-52203134D01*
X100190362Y-52200300D01*
X155346138Y-52200300D01*
X155413177Y-52219985D01*
G37*
G04 #@! TD.AperFunction*
G04 #@! TA.AperFunction,Conductor*
G36*
X123650266Y-82848066D02*
G01*
X123651869Y-82882909D01*
X123652000Y-82888606D01*
X123652000Y-90109800D01*
X122562000Y-91199800D01*
X119802000Y-91199800D01*
X118502000Y-89899800D01*
X118502000Y-87944585D01*
X119512001Y-87944585D01*
X119512002Y-87944608D01*
X119514908Y-87969669D01*
X119514909Y-87969673D01*
X119560211Y-88072274D01*
X119560214Y-88072279D01*
X119639520Y-88151585D01*
X119639525Y-88151588D01*
X119742123Y-88196889D01*
X119767206Y-88199799D01*
X120611999Y-88199799D01*
X122112000Y-88199799D01*
X122956786Y-88199799D01*
X122956808Y-88199797D01*
X122981869Y-88196891D01*
X122981873Y-88196890D01*
X123084474Y-88151588D01*
X123084479Y-88151585D01*
X123163785Y-88072279D01*
X123163788Y-88072274D01*
X123209089Y-87969677D01*
X123209089Y-87969675D01*
X123211999Y-87944594D01*
X123212000Y-87944591D01*
X123212000Y-86149800D01*
X122112000Y-86149800D01*
X122112000Y-88199799D01*
X120611999Y-88199799D01*
X120612000Y-88199798D01*
X120612000Y-86149800D01*
X119512001Y-86149800D01*
X119512001Y-87944585D01*
X118502000Y-87944585D01*
X118502000Y-82855005D01*
X119512000Y-82855005D01*
X119512000Y-84649800D01*
X120612000Y-84649800D01*
X122112000Y-84649800D01*
X123211999Y-84649800D01*
X123211999Y-82855014D01*
X123211997Y-82854991D01*
X123209091Y-82829930D01*
X123209090Y-82829926D01*
X123163788Y-82727325D01*
X123163785Y-82727320D01*
X123084479Y-82648014D01*
X123084474Y-82648011D01*
X122981876Y-82602710D01*
X122956794Y-82599800D01*
X122112000Y-82599800D01*
X122112000Y-84649800D01*
X120612000Y-84649800D01*
X120612000Y-82599800D01*
X119767214Y-82599800D01*
X119767191Y-82599802D01*
X119742130Y-82602708D01*
X119742126Y-82602709D01*
X119639525Y-82648011D01*
X119639520Y-82648014D01*
X119560214Y-82727320D01*
X119560211Y-82727325D01*
X119514910Y-82829922D01*
X119514910Y-82829924D01*
X119512000Y-82855005D01*
X118502000Y-82855005D01*
X118502000Y-82499800D01*
X118852000Y-82149800D01*
X122952000Y-82149800D01*
X123650266Y-82848066D01*
G37*
G04 #@! TD.AperFunction*
G04 #@! TA.AperFunction,Conductor*
G36*
X110507677Y-55714485D02*
G01*
X110528319Y-55731119D01*
X111015681Y-56218481D01*
X111049166Y-56279804D01*
X111052000Y-56306162D01*
X111052000Y-65553438D01*
X111032315Y-65620477D01*
X111015681Y-65641119D01*
X110408319Y-66248481D01*
X110346996Y-66281966D01*
X110320638Y-66284800D01*
X103815854Y-66284800D01*
X103748815Y-66265115D01*
X103728109Y-66248418D01*
X100903255Y-63419464D01*
X100869815Y-63358116D01*
X100867000Y-63331846D01*
X100867000Y-62602644D01*
X105762000Y-62602644D01*
X105768401Y-62662172D01*
X105768403Y-62662179D01*
X105818645Y-62796886D01*
X105818649Y-62796893D01*
X105904809Y-62911987D01*
X105904812Y-62911990D01*
X106019906Y-62998150D01*
X106019913Y-62998154D01*
X106154620Y-63048396D01*
X106154627Y-63048398D01*
X106214155Y-63054799D01*
X106214172Y-63054800D01*
X106812000Y-63054800D01*
X108812000Y-63054800D01*
X109409828Y-63054800D01*
X109409844Y-63054799D01*
X109469372Y-63048398D01*
X109469379Y-63048396D01*
X109604086Y-62998154D01*
X109604093Y-62998150D01*
X109719187Y-62911990D01*
X109719190Y-62911987D01*
X109805350Y-62796893D01*
X109805354Y-62796886D01*
X109855596Y-62662179D01*
X109855598Y-62662172D01*
X109861999Y-62602644D01*
X109862000Y-62602627D01*
X109862000Y-61054800D01*
X108812000Y-61054800D01*
X108812000Y-63054800D01*
X106812000Y-63054800D01*
X106812000Y-61054800D01*
X105762000Y-61054800D01*
X105762000Y-62602644D01*
X100867000Y-62602644D01*
X100867000Y-60659300D01*
X100886685Y-60592261D01*
X100939489Y-60546506D01*
X100991000Y-60535300D01*
X101616750Y-60535300D01*
X101616751Y-60535299D01*
X101675231Y-60523667D01*
X101702123Y-60505697D01*
X101768801Y-60484820D01*
X101771014Y-60484800D01*
X101872000Y-60484800D01*
X104849845Y-57506955D01*
X105762000Y-57506955D01*
X105762000Y-59054800D01*
X106812000Y-59054800D01*
X108812000Y-59054800D01*
X109862000Y-59054800D01*
X109862000Y-57506972D01*
X109861999Y-57506955D01*
X109855598Y-57447427D01*
X109855596Y-57447420D01*
X109805354Y-57312713D01*
X109805350Y-57312706D01*
X109719190Y-57197612D01*
X109719187Y-57197609D01*
X109604093Y-57111449D01*
X109604086Y-57111445D01*
X109469379Y-57061203D01*
X109469372Y-57061201D01*
X109409844Y-57054800D01*
X108812000Y-57054800D01*
X108812000Y-59054800D01*
X106812000Y-59054800D01*
X106812000Y-57054800D01*
X106214155Y-57054800D01*
X106154627Y-57061201D01*
X106154620Y-57061203D01*
X106019913Y-57111445D01*
X106019906Y-57111449D01*
X105904812Y-57197609D01*
X105904809Y-57197612D01*
X105818649Y-57312706D01*
X105818645Y-57312713D01*
X105768403Y-57447420D01*
X105768401Y-57447427D01*
X105762000Y-57506955D01*
X104849845Y-57506955D01*
X106625681Y-55731119D01*
X106687004Y-55697634D01*
X106713362Y-55694800D01*
X110440638Y-55694800D01*
X110507677Y-55714485D01*
G37*
G04 #@! TD.AperFunction*
G04 #@! TA.AperFunction,Conductor*
G36*
X147692000Y-94598438D02*
G01*
X147683355Y-94627878D01*
X147676832Y-94657865D01*
X147673077Y-94662880D01*
X147672315Y-94665477D01*
X147655681Y-94686119D01*
X147528319Y-94813481D01*
X147466996Y-94846966D01*
X147440638Y-94849800D01*
X143753362Y-94849800D01*
X143686323Y-94830115D01*
X143665681Y-94813481D01*
X142938319Y-94086119D01*
X142904834Y-94024796D01*
X142902000Y-93998438D01*
X142902000Y-93767644D01*
X143252000Y-93767644D01*
X143258401Y-93827172D01*
X143258403Y-93827179D01*
X143308645Y-93961886D01*
X143308649Y-93961893D01*
X143394809Y-94076987D01*
X143394812Y-94076990D01*
X143509906Y-94163150D01*
X143509913Y-94163154D01*
X143644620Y-94213396D01*
X143644627Y-94213398D01*
X143704155Y-94219799D01*
X143704172Y-94219800D01*
X144112000Y-94219800D01*
X144912000Y-94219800D01*
X145319828Y-94219800D01*
X145319844Y-94219799D01*
X145379372Y-94213398D01*
X145379379Y-94213396D01*
X145514086Y-94163154D01*
X145514093Y-94163150D01*
X145629187Y-94076990D01*
X145629190Y-94076987D01*
X145715350Y-93961893D01*
X145715354Y-93961886D01*
X145765596Y-93827179D01*
X145765598Y-93827172D01*
X145771999Y-93767644D01*
X145772000Y-93767627D01*
X145772000Y-93119800D01*
X144912000Y-93119800D01*
X144912000Y-94219800D01*
X144112000Y-94219800D01*
X144112000Y-93119800D01*
X143252000Y-93119800D01*
X143252000Y-93767644D01*
X142902000Y-93767644D01*
X142902000Y-92652657D01*
X144002000Y-92652657D01*
X144002000Y-92786943D01*
X144036755Y-92916653D01*
X144103898Y-93032947D01*
X144198853Y-93127902D01*
X144315147Y-93195045D01*
X144444857Y-93229800D01*
X144579143Y-93229800D01*
X144708853Y-93195045D01*
X144825147Y-93127902D01*
X144920102Y-93032947D01*
X144987245Y-92916653D01*
X145022000Y-92786943D01*
X145022000Y-92652657D01*
X144987245Y-92522947D01*
X144920102Y-92406653D01*
X144833249Y-92319800D01*
X144912000Y-92319800D01*
X145772000Y-92319800D01*
X145772000Y-91671972D01*
X145771999Y-91671955D01*
X145765598Y-91612427D01*
X145765596Y-91612420D01*
X145715354Y-91477713D01*
X145715350Y-91477706D01*
X145629190Y-91362612D01*
X145629187Y-91362609D01*
X145514093Y-91276449D01*
X145514086Y-91276445D01*
X145379379Y-91226203D01*
X145379372Y-91226201D01*
X145319844Y-91219800D01*
X144912000Y-91219800D01*
X144912000Y-92319800D01*
X144833249Y-92319800D01*
X144825147Y-92311698D01*
X144708853Y-92244555D01*
X144579143Y-92209800D01*
X144444857Y-92209800D01*
X144315147Y-92244555D01*
X144198853Y-92311698D01*
X144103898Y-92406653D01*
X144036755Y-92522947D01*
X144002000Y-92652657D01*
X142902000Y-92652657D01*
X142902000Y-91671955D01*
X143252000Y-91671955D01*
X143252000Y-92319800D01*
X144112000Y-92319800D01*
X144112000Y-91219800D01*
X143704155Y-91219800D01*
X143644627Y-91226201D01*
X143644620Y-91226203D01*
X143509913Y-91276445D01*
X143509906Y-91276449D01*
X143394812Y-91362609D01*
X143394809Y-91362612D01*
X143308649Y-91477706D01*
X143308645Y-91477713D01*
X143258403Y-91612420D01*
X143258401Y-91612427D01*
X143252000Y-91671955D01*
X142902000Y-91671955D01*
X142902000Y-90649800D01*
X141742000Y-89489800D01*
X141742000Y-88099800D01*
X142102000Y-87739800D01*
X147692000Y-87739800D01*
X147692000Y-94598438D01*
G37*
G04 #@! TD.AperFunction*
G04 #@! TA.AperFunction,Conductor*
G36*
X140077677Y-56449485D02*
G01*
X140098319Y-56466119D01*
X141755681Y-58123481D01*
X141789166Y-58184804D01*
X141792000Y-58211162D01*
X141792000Y-68019800D01*
X147655681Y-73883481D01*
X147689166Y-73944804D01*
X147692000Y-73971162D01*
X147692000Y-87739800D01*
X142102000Y-87739800D01*
X141742000Y-88099800D01*
X141742000Y-89489800D01*
X140123362Y-89489800D01*
X140056323Y-89470115D01*
X140035681Y-89453481D01*
X138268319Y-87686119D01*
X138234834Y-87624796D01*
X138232000Y-87598438D01*
X138232000Y-64879800D01*
X136792000Y-63439800D01*
X116078362Y-63439800D01*
X116011323Y-63420115D01*
X115990681Y-63403481D01*
X115663319Y-63076119D01*
X115629834Y-63014796D01*
X115627000Y-62988438D01*
X115627000Y-62599585D01*
X117062001Y-62599585D01*
X117062002Y-62599604D01*
X117064908Y-62624669D01*
X117064909Y-62624673D01*
X117110211Y-62727274D01*
X117110214Y-62727279D01*
X117189520Y-62806585D01*
X117189525Y-62806588D01*
X117292123Y-62851889D01*
X117317206Y-62854799D01*
X117911999Y-62854799D01*
X119912000Y-62854799D01*
X120506786Y-62854799D01*
X120506808Y-62854797D01*
X120531869Y-62851891D01*
X120531873Y-62851890D01*
X120634474Y-62806588D01*
X120634479Y-62806585D01*
X120713785Y-62727279D01*
X120713788Y-62727274D01*
X120759089Y-62624677D01*
X120759089Y-62624675D01*
X120761999Y-62599594D01*
X120762000Y-62599591D01*
X120762000Y-62549800D01*
X121415836Y-62549800D01*
X121422613Y-62606242D01*
X121478079Y-62746895D01*
X121569435Y-62867364D01*
X121689904Y-62958720D01*
X121830556Y-63014186D01*
X121918946Y-63024800D01*
X122662000Y-63024800D01*
X123462000Y-63024800D01*
X124205054Y-63024800D01*
X124293443Y-63014186D01*
X124434095Y-62958720D01*
X124554564Y-62867364D01*
X124645920Y-62746895D01*
X124701386Y-62606242D01*
X124708163Y-62549800D01*
X123462000Y-62549800D01*
X123462000Y-63024800D01*
X122662000Y-63024800D01*
X122662000Y-62549800D01*
X121415836Y-62549800D01*
X120762000Y-62549800D01*
X120762000Y-62529800D01*
X124955836Y-62529800D01*
X124956316Y-62533800D01*
X124956315Y-62533800D01*
X124962612Y-62586239D01*
X125018079Y-62726895D01*
X125109435Y-62847364D01*
X125229904Y-62938720D01*
X125370556Y-62994186D01*
X125458946Y-63004800D01*
X126202000Y-63004800D01*
X127002000Y-63004800D01*
X127745054Y-63004800D01*
X127833443Y-62994186D01*
X127974095Y-62938720D01*
X128094564Y-62847364D01*
X128185920Y-62726895D01*
X128241386Y-62586242D01*
X128248164Y-62529800D01*
X127002000Y-62529800D01*
X127002000Y-63004800D01*
X126202000Y-63004800D01*
X126202000Y-62529800D01*
X124955836Y-62529800D01*
X120762000Y-62529800D01*
X120762000Y-61749800D01*
X121415836Y-61749800D01*
X122662000Y-61749800D01*
X123462000Y-61749800D01*
X124708163Y-61749800D01*
X124707683Y-61745799D01*
X124705762Y-61729799D01*
X124955836Y-61729799D01*
X124955837Y-61729800D01*
X126202000Y-61729800D01*
X127002000Y-61729800D01*
X128248163Y-61729800D01*
X128241386Y-61673357D01*
X128185920Y-61532704D01*
X128094564Y-61412235D01*
X127974095Y-61320879D01*
X127833443Y-61265413D01*
X127745054Y-61254800D01*
X127002000Y-61254800D01*
X127002000Y-61729800D01*
X126202000Y-61729800D01*
X126202000Y-61254800D01*
X125458946Y-61254800D01*
X125370556Y-61265413D01*
X125229904Y-61320879D01*
X125109435Y-61412235D01*
X125018079Y-61532704D01*
X124962613Y-61673356D01*
X124955836Y-61729799D01*
X124705762Y-61729799D01*
X124701386Y-61693357D01*
X124645920Y-61552704D01*
X124554564Y-61432235D01*
X124434095Y-61340879D01*
X124293443Y-61285413D01*
X124205054Y-61274800D01*
X123462000Y-61274800D01*
X123462000Y-61749800D01*
X122662000Y-61749800D01*
X122662000Y-61274800D01*
X121918946Y-61274800D01*
X121830556Y-61285413D01*
X121689904Y-61340879D01*
X121569435Y-61432235D01*
X121478079Y-61552704D01*
X121422613Y-61693357D01*
X121415836Y-61749800D01*
X120762000Y-61749800D01*
X120762000Y-61054800D01*
X119912000Y-61054800D01*
X119912000Y-62854799D01*
X117911999Y-62854799D01*
X117912000Y-62854798D01*
X117912000Y-61054800D01*
X117062001Y-61054800D01*
X117062001Y-62599585D01*
X115627000Y-62599585D01*
X115627000Y-57566162D01*
X115635644Y-57536721D01*
X115641457Y-57510005D01*
X117062000Y-57510005D01*
X117062000Y-59054800D01*
X117912000Y-59054800D01*
X119912000Y-59054800D01*
X120761999Y-59054800D01*
X120761999Y-58329800D01*
X121315836Y-58329800D01*
X121322613Y-58386242D01*
X121378079Y-58526895D01*
X121469435Y-58647364D01*
X121589904Y-58738720D01*
X121730556Y-58794186D01*
X121818946Y-58804800D01*
X122562000Y-58804800D01*
X123362000Y-58804800D01*
X124105054Y-58804800D01*
X124193443Y-58794186D01*
X124334095Y-58738720D01*
X124454564Y-58647364D01*
X124545920Y-58526895D01*
X124551714Y-58512202D01*
X124594618Y-58457057D01*
X124660525Y-58433862D01*
X124728510Y-58449981D01*
X124776988Y-58500296D01*
X124782424Y-58512198D01*
X124798078Y-58551893D01*
X124889435Y-58672364D01*
X125009904Y-58763720D01*
X125150556Y-58819186D01*
X125238946Y-58829800D01*
X125982000Y-58829800D01*
X125982000Y-58354800D01*
X126782000Y-58354800D01*
X126782000Y-58829800D01*
X127525054Y-58829800D01*
X127613443Y-58819186D01*
X127754095Y-58763720D01*
X127874564Y-58672364D01*
X127965921Y-58551894D01*
X127983899Y-58506304D01*
X128026804Y-58451160D01*
X128092712Y-58427966D01*
X128160697Y-58444086D01*
X128198058Y-58476867D01*
X128289435Y-58597364D01*
X128409904Y-58688720D01*
X128550556Y-58744186D01*
X128638946Y-58754800D01*
X129382000Y-58754800D01*
X130182000Y-58754800D01*
X130925054Y-58754800D01*
X131013443Y-58744186D01*
X131154095Y-58688720D01*
X131274564Y-58597364D01*
X131365921Y-58476893D01*
X131377701Y-58447022D01*
X131420606Y-58391877D01*
X131486513Y-58368683D01*
X131554498Y-58384803D01*
X131602975Y-58435119D01*
X131608410Y-58447019D01*
X131628078Y-58496893D01*
X131719435Y-58617364D01*
X131839904Y-58708720D01*
X131980556Y-58764186D01*
X132068946Y-58774800D01*
X132812000Y-58774800D01*
X133612000Y-58774800D01*
X134355054Y-58774800D01*
X134443443Y-58764186D01*
X134584095Y-58708720D01*
X134704564Y-58617364D01*
X134795921Y-58496893D01*
X134815729Y-58446663D01*
X134858634Y-58391518D01*
X134924541Y-58368324D01*
X134992526Y-58384443D01*
X135041003Y-58434760D01*
X135046438Y-58446661D01*
X135078077Y-58526891D01*
X135078078Y-58526893D01*
X135169435Y-58647364D01*
X135289904Y-58738720D01*
X135430556Y-58794186D01*
X135518946Y-58804800D01*
X136262000Y-58804800D01*
X137062000Y-58804800D01*
X137805054Y-58804800D01*
X137893443Y-58794186D01*
X138034095Y-58738720D01*
X138154564Y-58647364D01*
X138245920Y-58526895D01*
X138301386Y-58386242D01*
X138308164Y-58329800D01*
X137062000Y-58329800D01*
X137062000Y-58804800D01*
X136262000Y-58804800D01*
X136262000Y-58329800D01*
X134994054Y-58329800D01*
X134983850Y-58336191D01*
X134913985Y-58335375D01*
X134858630Y-58299800D01*
X133612000Y-58299800D01*
X133612000Y-58774800D01*
X132812000Y-58774800D01*
X132812000Y-58299800D01*
X131539594Y-58299800D01*
X131539399Y-58299922D01*
X131529055Y-58299800D01*
X131510077Y-58299800D01*
X131510077Y-58299576D01*
X131469535Y-58299098D01*
X131439512Y-58279800D01*
X130182000Y-58279800D01*
X130182000Y-58754800D01*
X129382000Y-58754800D01*
X129382000Y-58279800D01*
X128162000Y-58279800D01*
X128125681Y-58316119D01*
X128123609Y-58314047D01*
X128089511Y-58343594D01*
X128038000Y-58354800D01*
X126782000Y-58354800D01*
X125982000Y-58354800D01*
X124680077Y-58354800D01*
X124680077Y-58350704D01*
X124642842Y-58350236D01*
X124608887Y-58329800D01*
X123362000Y-58329800D01*
X123362000Y-58804800D01*
X122562000Y-58804800D01*
X122562000Y-58329800D01*
X121315836Y-58329800D01*
X120761999Y-58329800D01*
X120761999Y-57529800D01*
X121315836Y-57529800D01*
X122562000Y-57529800D01*
X123362000Y-57529800D01*
X124663923Y-57529800D01*
X124663923Y-57533896D01*
X124701019Y-57534320D01*
X124735091Y-57554800D01*
X125982000Y-57554800D01*
X125982000Y-57079800D01*
X126782000Y-57079800D01*
X126782000Y-57554800D01*
X128002000Y-57554800D01*
X128038319Y-57518481D01*
X128040390Y-57520552D01*
X128074489Y-57491006D01*
X128126000Y-57479800D01*
X129382000Y-57479800D01*
X130182000Y-57479800D01*
X131454389Y-57479800D01*
X131454573Y-57479685D01*
X131464517Y-57479800D01*
X131483923Y-57479800D01*
X131483923Y-57480024D01*
X131524438Y-57480493D01*
X131554482Y-57499800D01*
X132812000Y-57499800D01*
X133612000Y-57499800D01*
X134879939Y-57499800D01*
X134890137Y-57493412D01*
X134960002Y-57494220D01*
X135015370Y-57529800D01*
X136262000Y-57529800D01*
X137062000Y-57529800D01*
X138308163Y-57529800D01*
X138301386Y-57473357D01*
X138245920Y-57332704D01*
X138154564Y-57212235D01*
X138034095Y-57120879D01*
X137893443Y-57065413D01*
X137805054Y-57054800D01*
X137062000Y-57054800D01*
X137062000Y-57529800D01*
X136262000Y-57529800D01*
X136262000Y-57054800D01*
X135518946Y-57054800D01*
X135430556Y-57065413D01*
X135289904Y-57120879D01*
X135169435Y-57212235D01*
X135078078Y-57332706D01*
X135078077Y-57332708D01*
X135058269Y-57382938D01*
X135015363Y-57438082D01*
X134949455Y-57461275D01*
X134881471Y-57445154D01*
X134832995Y-57394837D01*
X134827560Y-57382938D01*
X134795920Y-57302704D01*
X134704564Y-57182235D01*
X134584095Y-57090879D01*
X134443443Y-57035413D01*
X134355054Y-57024800D01*
X133612000Y-57024800D01*
X133612000Y-57499800D01*
X132812000Y-57499800D01*
X132812000Y-57024800D01*
X132068946Y-57024800D01*
X131980556Y-57035413D01*
X131839904Y-57090879D01*
X131719435Y-57182235D01*
X131628078Y-57302705D01*
X131616297Y-57332581D01*
X131573390Y-57387724D01*
X131507482Y-57410916D01*
X131439497Y-57394794D01*
X131391022Y-57344477D01*
X131385588Y-57332579D01*
X131365920Y-57282704D01*
X131274564Y-57162235D01*
X131154095Y-57070879D01*
X131013443Y-57015413D01*
X130925054Y-57004800D01*
X130182000Y-57004800D01*
X130182000Y-57479800D01*
X129382000Y-57479800D01*
X129382000Y-57004800D01*
X128638946Y-57004800D01*
X128550556Y-57015413D01*
X128409904Y-57070879D01*
X128289435Y-57162235D01*
X128198078Y-57282706D01*
X128180099Y-57328297D01*
X128137192Y-57383441D01*
X128071284Y-57406633D01*
X128003300Y-57390512D01*
X127965941Y-57357732D01*
X127874564Y-57237235D01*
X127754095Y-57145879D01*
X127613443Y-57090413D01*
X127525054Y-57079800D01*
X126782000Y-57079800D01*
X125982000Y-57079800D01*
X125238946Y-57079800D01*
X125150556Y-57090413D01*
X125009904Y-57145879D01*
X124889435Y-57237235D01*
X124798078Y-57357706D01*
X124798077Y-57357708D01*
X124792282Y-57372403D01*
X124749375Y-57427546D01*
X124683467Y-57450738D01*
X124615483Y-57434615D01*
X124567007Y-57384297D01*
X124561574Y-57372400D01*
X124545920Y-57332704D01*
X124454564Y-57212235D01*
X124334095Y-57120879D01*
X124193443Y-57065413D01*
X124105054Y-57054800D01*
X123362000Y-57054800D01*
X123362000Y-57529800D01*
X122562000Y-57529800D01*
X122562000Y-57054800D01*
X121818946Y-57054800D01*
X121730556Y-57065413D01*
X121589904Y-57120879D01*
X121469435Y-57212235D01*
X121378079Y-57332704D01*
X121322613Y-57473357D01*
X121315836Y-57529800D01*
X120761999Y-57529800D01*
X120761999Y-57510014D01*
X120761997Y-57509991D01*
X120759091Y-57484930D01*
X120759090Y-57484926D01*
X120713788Y-57382325D01*
X120713785Y-57382320D01*
X120634479Y-57303014D01*
X120634474Y-57303011D01*
X120531876Y-57257710D01*
X120506794Y-57254800D01*
X119912000Y-57254800D01*
X119912000Y-59054800D01*
X117912000Y-59054800D01*
X117912000Y-57254800D01*
X117317214Y-57254800D01*
X117317191Y-57254802D01*
X117292130Y-57257708D01*
X117292126Y-57257709D01*
X117189525Y-57303011D01*
X117189520Y-57303014D01*
X117110214Y-57382320D01*
X117110211Y-57382325D01*
X117064910Y-57484922D01*
X117064910Y-57484924D01*
X117062000Y-57510005D01*
X115641457Y-57510005D01*
X115642168Y-57506735D01*
X115645922Y-57501719D01*
X115646685Y-57499123D01*
X115663319Y-57478481D01*
X116675681Y-56466119D01*
X116737004Y-56432634D01*
X116763362Y-56429800D01*
X140010638Y-56429800D01*
X140077677Y-56449485D01*
G37*
G04 #@! TD.AperFunction*
G04 #@! TA.AperFunction,Conductor*
G36*
X102270039Y-89244485D02*
G01*
X102315794Y-89297289D01*
X102327000Y-89348800D01*
X102327000Y-91616438D01*
X102307315Y-91683477D01*
X102254511Y-91729232D01*
X102185353Y-91739176D01*
X102146705Y-91726923D01*
X102094966Y-91700560D01*
X101995456Y-91684800D01*
X101937000Y-91684800D01*
X101937000Y-93034799D01*
X101995449Y-93034799D01*
X102094967Y-93019037D01*
X102146705Y-92992676D01*
X102215374Y-92979780D01*
X102280114Y-93006056D01*
X102320372Y-93063162D01*
X102327000Y-93103161D01*
X102327000Y-93674800D01*
X102795681Y-94143481D01*
X102829166Y-94204804D01*
X102832000Y-94231162D01*
X102832000Y-108128438D01*
X102812315Y-108195477D01*
X102795681Y-108216119D01*
X101848819Y-109162981D01*
X101787496Y-109196466D01*
X101761138Y-109199300D01*
X94852862Y-109199300D01*
X94785823Y-109179615D01*
X94765181Y-109162981D01*
X93390000Y-107787800D01*
X98042000Y-107787800D01*
X98052608Y-107907125D01*
X98052609Y-107907128D01*
X98108557Y-108102661D01*
X98202721Y-108282929D01*
X98331246Y-108440553D01*
X98488870Y-108569078D01*
X98669138Y-108663242D01*
X98864671Y-108719190D01*
X98864674Y-108719191D01*
X98983999Y-108729799D01*
X98984002Y-108729800D01*
X99342000Y-108729800D01*
X100142000Y-108729800D01*
X100499998Y-108729800D01*
X100500000Y-108729799D01*
X100619325Y-108719191D01*
X100619328Y-108719190D01*
X100814861Y-108663242D01*
X100995129Y-108569078D01*
X101152753Y-108440553D01*
X101281278Y-108282929D01*
X101375442Y-108102661D01*
X101431390Y-107907128D01*
X101431391Y-107907125D01*
X101441999Y-107787800D01*
X101442000Y-107787798D01*
X101442000Y-105479800D01*
X100142000Y-105479800D01*
X100142000Y-108729800D01*
X99342000Y-108729800D01*
X99342000Y-105479800D01*
X98042000Y-105479800D01*
X98042000Y-107787800D01*
X93390000Y-107787800D01*
X93168319Y-107566119D01*
X93134834Y-107504796D01*
X93132000Y-107478438D01*
X93132000Y-102371799D01*
X98042000Y-102371799D01*
X98042000Y-104679800D01*
X99342000Y-104679800D01*
X100142000Y-104679800D01*
X101442000Y-104679800D01*
X101442000Y-102371802D01*
X101441999Y-102371799D01*
X101431391Y-102252474D01*
X101431390Y-102252471D01*
X101375442Y-102056938D01*
X101281278Y-101876670D01*
X101152753Y-101719046D01*
X100995129Y-101590521D01*
X100814861Y-101496357D01*
X100619328Y-101440409D01*
X100619325Y-101440408D01*
X100500000Y-101429800D01*
X100142000Y-101429800D01*
X100142000Y-104679800D01*
X99342000Y-104679800D01*
X99342000Y-101429800D01*
X98983999Y-101429800D01*
X98864674Y-101440408D01*
X98864671Y-101440409D01*
X98669138Y-101496357D01*
X98488870Y-101590521D01*
X98331246Y-101719046D01*
X98202721Y-101876670D01*
X98108557Y-102056938D01*
X98052609Y-102252471D01*
X98052608Y-102252474D01*
X98042000Y-102371799D01*
X93132000Y-102371799D01*
X93132000Y-99872787D01*
X98122000Y-99872787D01*
X98128184Y-99951363D01*
X98128184Y-99951364D01*
X98177150Y-100134107D01*
X98263037Y-100302673D01*
X98263038Y-100302675D01*
X98382099Y-100449700D01*
X98529124Y-100568761D01*
X98529126Y-100568762D01*
X98697692Y-100654649D01*
X98880436Y-100703615D01*
X98959012Y-100709799D01*
X98959024Y-100709800D01*
X99222000Y-100709800D01*
X100222000Y-100709800D01*
X100484976Y-100709800D01*
X100484987Y-100709799D01*
X100563563Y-100703615D01*
X100563564Y-100703615D01*
X100746307Y-100654649D01*
X100914873Y-100568762D01*
X100914875Y-100568761D01*
X101061900Y-100449700D01*
X101180961Y-100302675D01*
X101180962Y-100302673D01*
X101266849Y-100134107D01*
X101315815Y-99951364D01*
X101315815Y-99951363D01*
X101321999Y-99872787D01*
X101322000Y-99872775D01*
X101322000Y-97659800D01*
X100222000Y-97659800D01*
X100222000Y-100709800D01*
X99222000Y-100709800D01*
X99222000Y-97659800D01*
X98122000Y-97659800D01*
X98122000Y-99872787D01*
X93132000Y-99872787D01*
X93132000Y-95131162D01*
X93151685Y-95064123D01*
X93168319Y-95043481D01*
X93764988Y-94446812D01*
X98122000Y-94446812D01*
X98122000Y-96659800D01*
X99222000Y-96659800D01*
X100222000Y-96659800D01*
X101322000Y-96659800D01*
X101322000Y-94446824D01*
X101321999Y-94446812D01*
X101315815Y-94368236D01*
X101315815Y-94368235D01*
X101266849Y-94185492D01*
X101180962Y-94016926D01*
X101180961Y-94016924D01*
X101061900Y-93869899D01*
X100914875Y-93750838D01*
X100914873Y-93750837D01*
X100746307Y-93664950D01*
X100563563Y-93615984D01*
X100484987Y-93609800D01*
X100222000Y-93609800D01*
X100222000Y-96659800D01*
X99222000Y-96659800D01*
X99222000Y-93609800D01*
X98959012Y-93609800D01*
X98880436Y-93615984D01*
X98880435Y-93615984D01*
X98697692Y-93664950D01*
X98529126Y-93750837D01*
X98529124Y-93750838D01*
X98382099Y-93869899D01*
X98263038Y-94016924D01*
X98263037Y-94016926D01*
X98177150Y-94185492D01*
X98128184Y-94368235D01*
X98128184Y-94368236D01*
X98122000Y-94446812D01*
X93764988Y-94446812D01*
X95568551Y-92643249D01*
X101087001Y-92643249D01*
X101102762Y-92742767D01*
X101163883Y-92862723D01*
X101163886Y-92862728D01*
X101259071Y-92957913D01*
X101259076Y-92957916D01*
X101379034Y-93019039D01*
X101379033Y-93019039D01*
X101478544Y-93034799D01*
X101536999Y-93034798D01*
X101537000Y-93034798D01*
X101537000Y-92559800D01*
X101087001Y-92559800D01*
X101087001Y-92643249D01*
X95568551Y-92643249D01*
X96125681Y-92086119D01*
X96143584Y-92076343D01*
X101087000Y-92076343D01*
X101087000Y-92159800D01*
X101537000Y-92159800D01*
X101537000Y-91684800D01*
X101536999Y-91684799D01*
X101478551Y-91684800D01*
X101379032Y-91700562D01*
X101259076Y-91761683D01*
X101259071Y-91761686D01*
X101163886Y-91856871D01*
X101163883Y-91856876D01*
X101102760Y-91976833D01*
X101087000Y-92076343D01*
X96143584Y-92076343D01*
X96187004Y-92052634D01*
X96213362Y-92049800D01*
X99422000Y-92049800D01*
X99752000Y-91719800D01*
X99752000Y-91091162D01*
X99771685Y-91024123D01*
X99788319Y-91003481D01*
X100085681Y-90706119D01*
X100147004Y-90672634D01*
X100173362Y-90669800D01*
X100972000Y-90669800D01*
X101267000Y-90374800D01*
X101267000Y-89348800D01*
X101286685Y-89281761D01*
X101339489Y-89236006D01*
X101391000Y-89224800D01*
X102203000Y-89224800D01*
X102270039Y-89244485D01*
G37*
G04 #@! TD.AperFunction*
G04 #@! TA.AperFunction,Conductor*
G36*
X141967677Y-90519485D02*
G01*
X141988319Y-90536119D01*
X142565681Y-91113481D01*
X142599166Y-91174804D01*
X142602000Y-91201162D01*
X142602000Y-92151551D01*
X142600617Y-92151551D01*
X142602000Y-92164426D01*
X142602000Y-92192972D01*
X142599274Y-92205757D01*
X142592740Y-92217839D01*
X142592565Y-92218264D01*
X142592521Y-92218245D01*
X142588622Y-92225455D01*
X142582315Y-92246937D01*
X142572328Y-92255590D01*
X142566041Y-92267218D01*
X142546430Y-92278031D01*
X142529511Y-92292692D01*
X142516430Y-92294572D01*
X142504856Y-92300955D01*
X142497054Y-92300429D01*
X142077686Y-92719799D01*
X142077686Y-92719801D01*
X142500111Y-93142226D01*
X142523399Y-93144310D01*
X142578577Y-93187172D01*
X142599274Y-93233843D01*
X142602000Y-93246628D01*
X142602000Y-93269254D01*
X142601449Y-93276533D01*
X142602000Y-93281660D01*
X142602000Y-94849800D01*
X142902000Y-95149800D01*
X147800638Y-95149800D01*
X147830078Y-95158444D01*
X147860065Y-95164968D01*
X147865080Y-95168722D01*
X147867677Y-95169485D01*
X147888319Y-95186119D01*
X147965681Y-95263481D01*
X147999166Y-95324804D01*
X148002000Y-95351162D01*
X148002000Y-98749800D01*
X147352000Y-99399800D01*
X139852000Y-99399800D01*
X139452000Y-98999800D01*
X139452000Y-97699800D01*
X137138319Y-95386119D01*
X137104834Y-95324796D01*
X137102000Y-95298438D01*
X137102000Y-93696773D01*
X138100710Y-93696773D01*
X138202808Y-93739064D01*
X138202816Y-93739066D01*
X138407594Y-93779799D01*
X138407598Y-93779800D01*
X138616402Y-93779800D01*
X138616405Y-93779799D01*
X138821183Y-93739066D01*
X138821187Y-93739065D01*
X138923288Y-93696773D01*
X141100710Y-93696773D01*
X141202808Y-93739064D01*
X141202816Y-93739066D01*
X141407594Y-93779799D01*
X141407598Y-93779800D01*
X141616402Y-93779800D01*
X141616405Y-93779799D01*
X141821183Y-93739066D01*
X141821187Y-93739065D01*
X141923288Y-93696773D01*
X141512001Y-93285486D01*
X141512000Y-93285486D01*
X141100710Y-93696773D01*
X138923288Y-93696773D01*
X138512001Y-93285486D01*
X138512000Y-93285486D01*
X138100710Y-93696773D01*
X137102000Y-93696773D01*
X137102000Y-92615394D01*
X137452000Y-92615394D01*
X137452000Y-92824205D01*
X137492733Y-93028983D01*
X137492735Y-93028991D01*
X137535025Y-93131088D01*
X137946314Y-92719800D01*
X137946314Y-92719799D01*
X137879172Y-92652657D01*
X138002000Y-92652657D01*
X138002000Y-92786943D01*
X138036755Y-92916653D01*
X138103898Y-93032947D01*
X138198853Y-93127902D01*
X138315147Y-93195045D01*
X138444857Y-93229800D01*
X138579143Y-93229800D01*
X138708853Y-93195045D01*
X138825147Y-93127902D01*
X138920102Y-93032947D01*
X138987245Y-92916653D01*
X139022000Y-92786943D01*
X139022000Y-92719799D01*
X139077686Y-92719799D01*
X139077686Y-92719801D01*
X139488973Y-93131088D01*
X139531265Y-93028987D01*
X139531266Y-93028983D01*
X139571999Y-92824205D01*
X139572000Y-92824202D01*
X139572000Y-92615398D01*
X139571999Y-92615394D01*
X140452000Y-92615394D01*
X140452000Y-92824205D01*
X140492733Y-93028983D01*
X140492735Y-93028991D01*
X140535025Y-93131088D01*
X140946314Y-92719800D01*
X140946314Y-92719799D01*
X140879172Y-92652657D01*
X141002000Y-92652657D01*
X141002000Y-92786943D01*
X141036755Y-92916653D01*
X141103898Y-93032947D01*
X141198853Y-93127902D01*
X141315147Y-93195045D01*
X141444857Y-93229800D01*
X141579143Y-93229800D01*
X141708853Y-93195045D01*
X141825147Y-93127902D01*
X141920102Y-93032947D01*
X141987245Y-92916653D01*
X142022000Y-92786943D01*
X142022000Y-92652657D01*
X141987245Y-92522947D01*
X141920102Y-92406653D01*
X141825147Y-92311698D01*
X141708853Y-92244555D01*
X141579143Y-92209800D01*
X141444857Y-92209800D01*
X141315147Y-92244555D01*
X141198853Y-92311698D01*
X141103898Y-92406653D01*
X141036755Y-92522947D01*
X141002000Y-92652657D01*
X140879172Y-92652657D01*
X140535025Y-92308510D01*
X140492735Y-92410607D01*
X140492732Y-92410616D01*
X140452000Y-92615394D01*
X139571999Y-92615394D01*
X139531266Y-92410616D01*
X139531264Y-92410608D01*
X139488973Y-92308510D01*
X139077686Y-92719799D01*
X139022000Y-92719799D01*
X139022000Y-92652657D01*
X138987245Y-92522947D01*
X138920102Y-92406653D01*
X138825147Y-92311698D01*
X138708853Y-92244555D01*
X138579143Y-92209800D01*
X138444857Y-92209800D01*
X138315147Y-92244555D01*
X138198853Y-92311698D01*
X138103898Y-92406653D01*
X138036755Y-92522947D01*
X138002000Y-92652657D01*
X137879172Y-92652657D01*
X137535025Y-92308510D01*
X137492735Y-92410607D01*
X137492732Y-92410616D01*
X137452000Y-92615394D01*
X137102000Y-92615394D01*
X137102000Y-91742825D01*
X138100710Y-91742825D01*
X138512000Y-92154114D01*
X138512001Y-92154114D01*
X138923288Y-91742825D01*
X141100710Y-91742825D01*
X141512000Y-92154114D01*
X141512001Y-92154114D01*
X141923288Y-91742825D01*
X141821191Y-91700535D01*
X141821183Y-91700533D01*
X141616405Y-91659800D01*
X141407594Y-91659800D01*
X141202816Y-91700532D01*
X141202807Y-91700535D01*
X141100710Y-91742825D01*
X138923288Y-91742825D01*
X138821191Y-91700535D01*
X138821183Y-91700533D01*
X138616405Y-91659800D01*
X138407594Y-91659800D01*
X138202816Y-91700532D01*
X138202807Y-91700535D01*
X138100710Y-91742825D01*
X137102000Y-91742825D01*
X137102000Y-90623800D01*
X137121685Y-90556761D01*
X137174489Y-90511006D01*
X137226000Y-90499800D01*
X141900638Y-90499800D01*
X141967677Y-90519485D01*
G37*
G04 #@! TD.AperFunction*
G04 #@! TA.AperFunction,Conductor*
G36*
X101221631Y-78968707D02*
G01*
X101233444Y-78978796D01*
X102425452Y-80170804D01*
X102429078Y-80177921D01*
X102435541Y-80182617D01*
X102442704Y-80204665D01*
X102453229Y-80225321D01*
X102454448Y-80240808D01*
X102454448Y-80308979D01*
X102435541Y-80367170D01*
X102386041Y-80403134D01*
X102324855Y-80403134D01*
X102285445Y-80378983D01*
X101943896Y-80037435D01*
X101851829Y-79999300D01*
X101851828Y-79999300D01*
X97451828Y-79999300D01*
X97352172Y-79999300D01*
X97352171Y-79999300D01*
X97260103Y-80037435D01*
X96390457Y-80907080D01*
X96335941Y-80934857D01*
X96275509Y-80925286D01*
X96232244Y-80882021D01*
X96231513Y-80880556D01*
X96196198Y-80808318D01*
X96196198Y-80808317D01*
X96113483Y-80725602D01*
X96113481Y-80725601D01*
X96008395Y-80674227D01*
X95981139Y-80670256D01*
X95940260Y-80664300D01*
X95473740Y-80664300D01*
X95439673Y-80669263D01*
X95405604Y-80674227D01*
X95300518Y-80725601D01*
X95217801Y-80808318D01*
X95166427Y-80913404D01*
X95166427Y-80913407D01*
X95156500Y-80981540D01*
X95156500Y-81598060D01*
X95160429Y-81625025D01*
X95166427Y-81666195D01*
X95214225Y-81763967D01*
X95217802Y-81771283D01*
X95300517Y-81853998D01*
X95354285Y-81880283D01*
X95405604Y-81905372D01*
X95405605Y-81905372D01*
X95405607Y-81905373D01*
X95473740Y-81915300D01*
X95473743Y-81915300D01*
X95940257Y-81915300D01*
X95940260Y-81915300D01*
X96008393Y-81905373D01*
X96113483Y-81853998D01*
X96196198Y-81771283D01*
X96247573Y-81666193D01*
X96248488Y-81659910D01*
X96253572Y-81625025D01*
X96280672Y-81570169D01*
X96334840Y-81541718D01*
X96351537Y-81540300D01*
X96411829Y-81540300D01*
X96469885Y-81516251D01*
X96503897Y-81502164D01*
X97476765Y-80529296D01*
X97531282Y-80501519D01*
X97546769Y-80500300D01*
X101657231Y-80500300D01*
X101715422Y-80519207D01*
X101727235Y-80529296D01*
X102425452Y-81227513D01*
X102453229Y-81282030D01*
X102454448Y-81297517D01*
X102454448Y-81705776D01*
X102435541Y-81763967D01*
X102386041Y-81799931D01*
X102339962Y-81803557D01*
X102300455Y-81797300D01*
X102117001Y-81797300D01*
X102117000Y-81797301D01*
X102117000Y-83097298D01*
X102117001Y-83097299D01*
X102300451Y-83097299D01*
X102339960Y-83091041D01*
X102362855Y-83094667D01*
X102386041Y-83094667D01*
X102392504Y-83099362D01*
X102400392Y-83100612D01*
X102416782Y-83117002D01*
X102435541Y-83130631D01*
X102438009Y-83138228D01*
X102443657Y-83143876D01*
X102454448Y-83188822D01*
X102454448Y-83304449D01*
X102435541Y-83362640D01*
X102386041Y-83398604D01*
X102341176Y-83402415D01*
X102302636Y-83396800D01*
X101731364Y-83396800D01*
X101692824Y-83402415D01*
X101658373Y-83407434D01*
X101545790Y-83462473D01*
X101457173Y-83551090D01*
X101402134Y-83663673D01*
X101397880Y-83692870D01*
X101391500Y-83736664D01*
X101391500Y-84257936D01*
X101402134Y-84330925D01*
X101457174Y-84443511D01*
X101545789Y-84532126D01*
X101658375Y-84587166D01*
X101731364Y-84597800D01*
X101746678Y-84597800D01*
X101804869Y-84616707D01*
X101840833Y-84666207D01*
X101840833Y-84727393D01*
X101832414Y-84746300D01*
X101805067Y-84793664D01*
X101805066Y-84793669D01*
X101777500Y-84896547D01*
X101777500Y-85003053D01*
X101795060Y-85068589D01*
X101805067Y-85105935D01*
X101858316Y-85198164D01*
X101858318Y-85198166D01*
X101858320Y-85198169D01*
X101892505Y-85232354D01*
X101920281Y-85286869D01*
X101921500Y-85302356D01*
X101921500Y-86025800D01*
X101902593Y-86083991D01*
X101853093Y-86119955D01*
X101822500Y-86124800D01*
X101822001Y-86124800D01*
X101822000Y-86124801D01*
X101822000Y-87044799D01*
X101838515Y-87061314D01*
X101845880Y-87063707D01*
X101879153Y-87105914D01*
X101880232Y-87108521D01*
X101880313Y-87108641D01*
X101880396Y-87108915D01*
X101883965Y-87117531D01*
X101883116Y-87117882D01*
X101897000Y-87163646D01*
X101897000Y-88038300D01*
X101892155Y-88053211D01*
X101892155Y-88068893D01*
X101882938Y-88081578D01*
X101878093Y-88096491D01*
X101865407Y-88105707D01*
X101856191Y-88118393D01*
X101841278Y-88123238D01*
X101828593Y-88132455D01*
X101798000Y-88137300D01*
X101796000Y-88137300D01*
X101737809Y-88118393D01*
X101701845Y-88068893D01*
X101697000Y-88038300D01*
X101697000Y-87354801D01*
X101685447Y-87343248D01*
X101662809Y-87335893D01*
X101626845Y-87286393D01*
X101622000Y-87255800D01*
X101622000Y-86124801D01*
X101621999Y-86124800D01*
X101552299Y-86124800D01*
X101493965Y-86136403D01*
X101462218Y-86157616D01*
X101407217Y-86174300D01*
X101107172Y-86174300D01*
X101063279Y-86183032D01*
X101063275Y-86183034D01*
X101013498Y-86216294D01*
X101013494Y-86216298D01*
X100980234Y-86266075D01*
X100980232Y-86266079D01*
X100971500Y-86309972D01*
X100971500Y-86337800D01*
X100952593Y-86395991D01*
X100903093Y-86431955D01*
X100872500Y-86436800D01*
X100284269Y-86436800D01*
X100226078Y-86417893D01*
X100214265Y-86407804D01*
X99041496Y-85235035D01*
X99013719Y-85180518D01*
X99012500Y-85165031D01*
X99012500Y-83167052D01*
X99031407Y-83108861D01*
X99068020Y-83078111D01*
X99089846Y-83067441D01*
X99168483Y-83028998D01*
X99251198Y-82946283D01*
X99302573Y-82841193D01*
X99312500Y-82773060D01*
X99312500Y-82564801D01*
X99812001Y-82564801D01*
X99812001Y-82771285D01*
X99826833Y-82864941D01*
X99826836Y-82864951D01*
X99884358Y-82977843D01*
X99973956Y-83067441D01*
X100086848Y-83124963D01*
X100086852Y-83124964D01*
X100180515Y-83139799D01*
X100312000Y-83139799D01*
X100312000Y-82564801D01*
X100512000Y-82564801D01*
X100512000Y-83139798D01*
X100512001Y-83139799D01*
X100643483Y-83139799D01*
X100643485Y-83139798D01*
X100737141Y-83124966D01*
X100737151Y-83124963D01*
X100850043Y-83067441D01*
X100939641Y-82977843D01*
X100997163Y-82864951D01*
X100997164Y-82864947D01*
X101012000Y-82771284D01*
X101012000Y-82705753D01*
X101342000Y-82705753D01*
X101357760Y-82805265D01*
X101357762Y-82805269D01*
X101418881Y-82925221D01*
X101514078Y-83020418D01*
X101634030Y-83081537D01*
X101634029Y-83081537D01*
X101733545Y-83097299D01*
X101917000Y-83097299D01*
X101917000Y-82547301D01*
X101916999Y-82547300D01*
X101342002Y-82547300D01*
X101342001Y-82547301D01*
X101342001Y-82705753D01*
X101342000Y-82705753D01*
X101012000Y-82705753D01*
X101012000Y-82564801D01*
X101011999Y-82564800D01*
X100512001Y-82564800D01*
X100512000Y-82564801D01*
X100312000Y-82564801D01*
X100311999Y-82564800D01*
X99812002Y-82564800D01*
X99812001Y-82564801D01*
X99312500Y-82564801D01*
X99312500Y-82158315D01*
X99812000Y-82158315D01*
X99812000Y-82364799D01*
X99812001Y-82364800D01*
X100311999Y-82364800D01*
X100312000Y-82364799D01*
X100312000Y-81789801D01*
X100512000Y-81789801D01*
X100512000Y-82364799D01*
X100512001Y-82364800D01*
X101011998Y-82364800D01*
X101011999Y-82364799D01*
X101011999Y-82188846D01*
X101342000Y-82188846D01*
X101342000Y-82347299D01*
X101342001Y-82347300D01*
X101916999Y-82347300D01*
X101917000Y-82347299D01*
X101917000Y-81797301D01*
X101916999Y-81797300D01*
X101733547Y-81797300D01*
X101733546Y-81797301D01*
X101634034Y-81813060D01*
X101634030Y-81813062D01*
X101514078Y-81874181D01*
X101418881Y-81969378D01*
X101357762Y-82089330D01*
X101342000Y-82188846D01*
X101011999Y-82188846D01*
X101011999Y-82158316D01*
X101011998Y-82158314D01*
X100997166Y-82064658D01*
X100997163Y-82064648D01*
X100939641Y-81951756D01*
X100850043Y-81862158D01*
X100737151Y-81804636D01*
X100737147Y-81804635D01*
X100643484Y-81789800D01*
X100512001Y-81789800D01*
X100512000Y-81789801D01*
X100312000Y-81789801D01*
X100311999Y-81789800D01*
X100180517Y-81789800D01*
X100180514Y-81789801D01*
X100086858Y-81804633D01*
X100086848Y-81804636D01*
X99973956Y-81862158D01*
X99884358Y-81951756D01*
X99826836Y-82064648D01*
X99826835Y-82064652D01*
X99812000Y-82158315D01*
X99312500Y-82158315D01*
X99312500Y-82156540D01*
X99302573Y-82088407D01*
X99300255Y-82083666D01*
X99256087Y-81993318D01*
X99251198Y-81983317D01*
X99168483Y-81900602D01*
X99150748Y-81891932D01*
X99063395Y-81849227D01*
X99036139Y-81845256D01*
X98995260Y-81839300D01*
X98528740Y-81839300D01*
X98494673Y-81844263D01*
X98460604Y-81849227D01*
X98355518Y-81900601D01*
X98272801Y-81983318D01*
X98221426Y-82088407D01*
X98215428Y-82129575D01*
X98211618Y-82137287D01*
X98211618Y-82145893D01*
X98198334Y-82164176D01*
X98188328Y-82184431D01*
X98180712Y-82188431D01*
X98175654Y-82195393D01*
X98154162Y-82202375D01*
X98134160Y-82212882D01*
X98117463Y-82214300D01*
X98000080Y-82214300D01*
X97941889Y-82195393D01*
X97905925Y-82145893D01*
X97902115Y-82129575D01*
X97897573Y-82098407D01*
X97881069Y-82064648D01*
X97846198Y-81993317D01*
X97763483Y-81910602D01*
X97743028Y-81900602D01*
X97658395Y-81859227D01*
X97631139Y-81855256D01*
X97590260Y-81849300D01*
X96973740Y-81849300D01*
X96941496Y-81853998D01*
X96905604Y-81859227D01*
X96800518Y-81910601D01*
X96717801Y-81993318D01*
X96666427Y-82098404D01*
X96666427Y-82098407D01*
X96656500Y-82166540D01*
X96656500Y-82633060D01*
X96663118Y-82678482D01*
X96666427Y-82701195D01*
X96701558Y-82773056D01*
X96717802Y-82806283D01*
X96800517Y-82888998D01*
X96836842Y-82906756D01*
X96905604Y-82940372D01*
X96905605Y-82940372D01*
X96905607Y-82940373D01*
X96973740Y-82950300D01*
X96973743Y-82950300D01*
X97590257Y-82950300D01*
X97590260Y-82950300D01*
X97658393Y-82940373D01*
X97763483Y-82888998D01*
X97846198Y-82806283D01*
X97863535Y-82770818D01*
X97880198Y-82753595D01*
X97894285Y-82734207D01*
X97901098Y-82731993D01*
X97906079Y-82726845D01*
X97952476Y-82715300D01*
X98117463Y-82715300D01*
X98175654Y-82734207D01*
X98211618Y-82783707D01*
X98215428Y-82800025D01*
X98221426Y-82841192D01*
X98262505Y-82925221D01*
X98272802Y-82946283D01*
X98355517Y-83028998D01*
X98434154Y-83067441D01*
X98455980Y-83078111D01*
X98499954Y-83120654D01*
X98511500Y-83167052D01*
X98511500Y-85219186D01*
X98492593Y-85277377D01*
X98443093Y-85313341D01*
X98381907Y-85313341D01*
X98362518Y-85303935D01*
X98266829Y-85264300D01*
X98266828Y-85264300D01*
X98004598Y-85264300D01*
X97946407Y-85245393D01*
X97910443Y-85195893D01*
X97907441Y-85183038D01*
X97906866Y-85181179D01*
X97906866Y-85181175D01*
X97851826Y-85068589D01*
X97763211Y-84979974D01*
X97688345Y-84943374D01*
X97644372Y-84900831D01*
X97633803Y-84840566D01*
X97636197Y-84828822D01*
X97656500Y-84753053D01*
X97656500Y-84653097D01*
X97675407Y-84594906D01*
X97712018Y-84564157D01*
X97763483Y-84538998D01*
X97846198Y-84456283D01*
X97897573Y-84351193D01*
X97907500Y-84283060D01*
X97907500Y-83816540D01*
X97897573Y-83748407D01*
X97891832Y-83736664D01*
X97859218Y-83669951D01*
X97846198Y-83643317D01*
X97763483Y-83560602D01*
X97744024Y-83551089D01*
X97658395Y-83509227D01*
X97631139Y-83505256D01*
X97590260Y-83499300D01*
X96973740Y-83499300D01*
X96939673Y-83504263D01*
X96905604Y-83509227D01*
X96800518Y-83560601D01*
X96717801Y-83643318D01*
X96666427Y-83748404D01*
X96666427Y-83748407D01*
X96656500Y-83816540D01*
X96656500Y-84283060D01*
X96663118Y-84328482D01*
X96666427Y-84351195D01*
X96711557Y-84443509D01*
X96717802Y-84456283D01*
X96800517Y-84538998D01*
X96800518Y-84538998D01*
X96800519Y-84538999D01*
X96807194Y-84543765D01*
X96805218Y-84546531D01*
X96838254Y-84578479D01*
X96848836Y-84638742D01*
X96847964Y-84643019D01*
X96847500Y-84646546D01*
X96847500Y-84646547D01*
X96847500Y-84753053D01*
X96875066Y-84855931D01*
X96875066Y-84855932D01*
X96876746Y-84862199D01*
X96873987Y-84862938D01*
X96877842Y-84912079D01*
X96845859Y-84964240D01*
X96825070Y-84977880D01*
X96820792Y-84979971D01*
X96732173Y-85068590D01*
X96677134Y-85181173D01*
X96674990Y-85195893D01*
X96666500Y-85254164D01*
X96666500Y-85775436D01*
X96677134Y-85848425D01*
X96732174Y-85961011D01*
X96820789Y-86049626D01*
X96933375Y-86104666D01*
X97006364Y-86115300D01*
X97006367Y-86115300D01*
X97577632Y-86115300D01*
X97577636Y-86115300D01*
X97650625Y-86104666D01*
X97763211Y-86049626D01*
X97851826Y-85961011D01*
X97906866Y-85848425D01*
X97906866Y-85848418D01*
X97909134Y-85841083D01*
X97910443Y-85841487D01*
X97910443Y-85833707D01*
X97923725Y-85815425D01*
X97933731Y-85795171D01*
X97941347Y-85791170D01*
X97946407Y-85784207D01*
X97967899Y-85777223D01*
X97987899Y-85766719D01*
X98004598Y-85765300D01*
X98072231Y-85765300D01*
X98130422Y-85784207D01*
X98142235Y-85794296D01*
X98441739Y-86093800D01*
X98469516Y-86148317D01*
X98459945Y-86208749D01*
X98416680Y-86252014D01*
X98356248Y-86261585D01*
X98346113Y-86259431D01*
X98278836Y-86241404D01*
X98241300Y-86231347D01*
X98134794Y-86231347D01*
X98096037Y-86241732D01*
X98031911Y-86258914D01*
X97939682Y-86312163D01*
X97864365Y-86387480D01*
X97824140Y-86457150D01*
X97778669Y-86498091D01*
X97717819Y-86504485D01*
X97694924Y-86496590D01*
X97650628Y-86474935D01*
X97650626Y-86474934D01*
X97632377Y-86472275D01*
X97577636Y-86464300D01*
X97006364Y-86464300D01*
X96962570Y-86470680D01*
X96933373Y-86474934D01*
X96820790Y-86529973D01*
X96732173Y-86618590D01*
X96677134Y-86731173D01*
X96677134Y-86731175D01*
X96666500Y-86804164D01*
X96666500Y-87325436D01*
X96673692Y-87374800D01*
X96677134Y-87398426D01*
X96677135Y-87398428D01*
X96715218Y-87476328D01*
X96723789Y-87536910D01*
X96695114Y-87590959D01*
X96640145Y-87617832D01*
X96579880Y-87607262D01*
X96556273Y-87589812D01*
X95946496Y-86980035D01*
X95918719Y-86925518D01*
X95917500Y-86910031D01*
X95917500Y-85639336D01*
X95936407Y-85581145D01*
X95985907Y-85545181D01*
X96002216Y-85541372D01*
X96043393Y-85535373D01*
X96148483Y-85483998D01*
X96231198Y-85401283D01*
X96282573Y-85296193D01*
X96292500Y-85228060D01*
X96292500Y-84761540D01*
X96282573Y-84693407D01*
X96231198Y-84588317D01*
X96148483Y-84505602D01*
X96148481Y-84505601D01*
X96043395Y-84454227D01*
X96016139Y-84450256D01*
X95975260Y-84444300D01*
X95358740Y-84444300D01*
X95324673Y-84449263D01*
X95290604Y-84454227D01*
X95185518Y-84505601D01*
X95102801Y-84588318D01*
X95051427Y-84693404D01*
X95051427Y-84693407D01*
X95041500Y-84761540D01*
X95041500Y-85228060D01*
X95045304Y-85254167D01*
X95051427Y-85296195D01*
X95082438Y-85359628D01*
X95102802Y-85401283D01*
X95185517Y-85483998D01*
X95239285Y-85510283D01*
X95290604Y-85535372D01*
X95290605Y-85535372D01*
X95290607Y-85535373D01*
X95331775Y-85541371D01*
X95386630Y-85568469D01*
X95415081Y-85622637D01*
X95416500Y-85639336D01*
X95416500Y-87104628D01*
X95454634Y-87196694D01*
X95454635Y-87196695D01*
X95454636Y-87196697D01*
X95912605Y-87654666D01*
X96338235Y-88080296D01*
X96366012Y-88134813D01*
X96356441Y-88195245D01*
X96313176Y-88238510D01*
X96268231Y-88249300D01*
X95376768Y-88249300D01*
X95318577Y-88230393D01*
X95306764Y-88220304D01*
X94436496Y-87350035D01*
X94408719Y-87295518D01*
X94407500Y-87280031D01*
X94407500Y-85639336D01*
X94426407Y-85581145D01*
X94475907Y-85545181D01*
X94492216Y-85541372D01*
X94533393Y-85535373D01*
X94638483Y-85483998D01*
X94721198Y-85401283D01*
X94772573Y-85296193D01*
X94782500Y-85228060D01*
X94782500Y-84761540D01*
X94772573Y-84693407D01*
X94721198Y-84588317D01*
X94638483Y-84505602D01*
X94638481Y-84505601D01*
X94533395Y-84454227D01*
X94506139Y-84450256D01*
X94465260Y-84444300D01*
X93848740Y-84444300D01*
X93814673Y-84449263D01*
X93780604Y-84454227D01*
X93675518Y-84505601D01*
X93592801Y-84588318D01*
X93541427Y-84693404D01*
X93541427Y-84693407D01*
X93531500Y-84761540D01*
X93531500Y-85228060D01*
X93535304Y-85254167D01*
X93541427Y-85296195D01*
X93572438Y-85359628D01*
X93592802Y-85401283D01*
X93675517Y-85483998D01*
X93729285Y-85510283D01*
X93780604Y-85535372D01*
X93780605Y-85535372D01*
X93780607Y-85535373D01*
X93821775Y-85541371D01*
X93876630Y-85568469D01*
X93905081Y-85622637D01*
X93906500Y-85639336D01*
X93906500Y-87474628D01*
X93944634Y-87566694D01*
X93944635Y-87566695D01*
X93944636Y-87566697D01*
X95019635Y-88641695D01*
X95019636Y-88641697D01*
X95090103Y-88712164D01*
X95106962Y-88719147D01*
X95129965Y-88728675D01*
X95131562Y-88729337D01*
X95178086Y-88769074D01*
X95192369Y-88828569D01*
X95168953Y-88885097D01*
X95116783Y-88917065D01*
X95093674Y-88919800D01*
X93063008Y-88919800D01*
X93004817Y-88900893D01*
X92993004Y-88890804D01*
X92581496Y-88479296D01*
X92553719Y-88424779D01*
X92552500Y-88409292D01*
X92552500Y-80981540D01*
X93506500Y-80981540D01*
X93506500Y-81598060D01*
X93510429Y-81625025D01*
X93516427Y-81666195D01*
X93564225Y-81763967D01*
X93567802Y-81771283D01*
X93650517Y-81853998D01*
X93650518Y-81853998D01*
X93650519Y-81853999D01*
X93681683Y-81869234D01*
X93725658Y-81911777D01*
X93736228Y-81972042D01*
X93723941Y-82007675D01*
X93680066Y-82083667D01*
X93665699Y-82137287D01*
X93652500Y-82186547D01*
X93652500Y-82293053D01*
X93676810Y-82383780D01*
X93680067Y-82395935D01*
X93733316Y-82488164D01*
X93733318Y-82488166D01*
X93733320Y-82488169D01*
X93777505Y-82532354D01*
X93781130Y-82539469D01*
X93787593Y-82544165D01*
X93794756Y-82566213D01*
X93805281Y-82586869D01*
X93806500Y-82602356D01*
X93806500Y-82729770D01*
X93787593Y-82787961D01*
X93750980Y-82818710D01*
X93720481Y-82833620D01*
X93675518Y-82855601D01*
X93592801Y-82938318D01*
X93541427Y-83043404D01*
X93541427Y-83043407D01*
X93531500Y-83111540D01*
X93531500Y-83578060D01*
X93538118Y-83623482D01*
X93541427Y-83646195D01*
X93553041Y-83669951D01*
X93592802Y-83751283D01*
X93675517Y-83833998D01*
X93729285Y-83860283D01*
X93780604Y-83885372D01*
X93780605Y-83885372D01*
X93780607Y-83885373D01*
X93848740Y-83895300D01*
X93848743Y-83895300D01*
X94465257Y-83895300D01*
X94465260Y-83895300D01*
X94533393Y-83885373D01*
X94638483Y-83833998D01*
X94721198Y-83751283D01*
X94772573Y-83646193D01*
X94782500Y-83578060D01*
X94782500Y-83444801D01*
X94992001Y-83444801D01*
X94992001Y-83576285D01*
X95006833Y-83669941D01*
X95006836Y-83669951D01*
X95064358Y-83782843D01*
X95153956Y-83872441D01*
X95266848Y-83929963D01*
X95266852Y-83929964D01*
X95360515Y-83944799D01*
X95566998Y-83944799D01*
X95567000Y-83944798D01*
X95567000Y-83444801D01*
X95767000Y-83444801D01*
X95767000Y-83944798D01*
X95767001Y-83944799D01*
X95973483Y-83944799D01*
X95973485Y-83944798D01*
X96067141Y-83929966D01*
X96067151Y-83929963D01*
X96180043Y-83872441D01*
X96269641Y-83782843D01*
X96327163Y-83669951D01*
X96327164Y-83669947D01*
X96342000Y-83576284D01*
X96342000Y-83444801D01*
X96341999Y-83444800D01*
X95767001Y-83444800D01*
X95767000Y-83444801D01*
X95567000Y-83444801D01*
X95566999Y-83444800D01*
X94992002Y-83444800D01*
X94992001Y-83444801D01*
X94782500Y-83444801D01*
X94782500Y-83113315D01*
X94992000Y-83113315D01*
X94992000Y-83244799D01*
X94992001Y-83244800D01*
X95566999Y-83244800D01*
X95567000Y-83244799D01*
X95567000Y-82744801D01*
X95767000Y-82744801D01*
X95767000Y-83244799D01*
X95767001Y-83244800D01*
X96341998Y-83244800D01*
X96341999Y-83244799D01*
X96341999Y-83113316D01*
X96341998Y-83113314D01*
X96327166Y-83019658D01*
X96327163Y-83019648D01*
X96269641Y-82906756D01*
X96180043Y-82817158D01*
X96067151Y-82759636D01*
X96067147Y-82759635D01*
X95973484Y-82744800D01*
X95767001Y-82744800D01*
X95767000Y-82744801D01*
X95567000Y-82744801D01*
X95566999Y-82744800D01*
X95360517Y-82744800D01*
X95360514Y-82744801D01*
X95266858Y-82759633D01*
X95266848Y-82759636D01*
X95153956Y-82817158D01*
X95064358Y-82906756D01*
X95006836Y-83019648D01*
X95006835Y-83019652D01*
X94992000Y-83113315D01*
X94782500Y-83113315D01*
X94782500Y-83111540D01*
X94772573Y-83043407D01*
X94761334Y-83020418D01*
X94722203Y-82940373D01*
X94721198Y-82938317D01*
X94638483Y-82855602D01*
X94609007Y-82841192D01*
X94533395Y-82804227D01*
X94504553Y-82800025D01*
X94465260Y-82794300D01*
X94465257Y-82794300D01*
X94406500Y-82794300D01*
X94391588Y-82789455D01*
X94375907Y-82789455D01*
X94363221Y-82780238D01*
X94348309Y-82775393D01*
X94339092Y-82762707D01*
X94326407Y-82753491D01*
X94321561Y-82738578D01*
X94312345Y-82725893D01*
X94307500Y-82695300D01*
X94307500Y-82602356D01*
X94326407Y-82544165D01*
X94336490Y-82532358D01*
X94380680Y-82488169D01*
X94433934Y-82395931D01*
X94461500Y-82293053D01*
X94461500Y-82186547D01*
X94433934Y-82083669D01*
X94390058Y-82007675D01*
X94377337Y-81947827D01*
X94402223Y-81891932D01*
X94432313Y-81869235D01*
X94463483Y-81853998D01*
X94546198Y-81771283D01*
X94597573Y-81666193D01*
X94607500Y-81598060D01*
X94607500Y-80981540D01*
X94597573Y-80913407D01*
X94582229Y-80882021D01*
X94546198Y-80808318D01*
X94546198Y-80808317D01*
X94463483Y-80725602D01*
X94463481Y-80725601D01*
X94358395Y-80674227D01*
X94331139Y-80670256D01*
X94290260Y-80664300D01*
X93823740Y-80664300D01*
X93789673Y-80669263D01*
X93755604Y-80674227D01*
X93650518Y-80725601D01*
X93567801Y-80808318D01*
X93516427Y-80913404D01*
X93516427Y-80913407D01*
X93506500Y-80981540D01*
X92552500Y-80981540D01*
X92552500Y-79740308D01*
X92571407Y-79682117D01*
X92581496Y-79670304D01*
X93273004Y-78978796D01*
X93327521Y-78951019D01*
X93343008Y-78949800D01*
X101163440Y-78949800D01*
X101221631Y-78968707D01*
G37*
G04 #@! TD.AperFunction*
G04 #@! TA.AperFunction,Conductor*
G36*
X98033177Y-52219985D02*
G01*
X98053819Y-52236619D01*
X98945681Y-53128481D01*
X98979166Y-53189804D01*
X98982000Y-53216162D01*
X98982000Y-53600300D01*
X98962315Y-53667339D01*
X98909511Y-53713094D01*
X98858000Y-53724300D01*
X93606270Y-53724300D01*
X93606262Y-53724299D01*
X93591828Y-53724299D01*
X93492172Y-53724299D01*
X93492170Y-53724299D01*
X93492168Y-53724300D01*
X93427072Y-53751263D01*
X93427069Y-53751265D01*
X93400103Y-53762436D01*
X93400099Y-53762439D01*
X92399558Y-54762981D01*
X92338235Y-54796466D01*
X92311877Y-54799300D01*
X91923739Y-54799300D01*
X91855608Y-54809226D01*
X91750514Y-54860603D01*
X91667803Y-54943314D01*
X91616426Y-55048408D01*
X91606500Y-55116539D01*
X91606500Y-55733060D01*
X91616426Y-55801191D01*
X91667803Y-55906285D01*
X91750514Y-55988996D01*
X91750515Y-55988996D01*
X91750517Y-55988998D01*
X91855607Y-56040373D01*
X91889581Y-56045323D01*
X91923739Y-56050300D01*
X91923740Y-56050300D01*
X92390261Y-56050300D01*
X92424419Y-56045323D01*
X92458393Y-56040373D01*
X92563483Y-55988998D01*
X92646198Y-55906283D01*
X92697573Y-55801193D01*
X92707500Y-55733060D01*
X92707500Y-55214922D01*
X92727185Y-55147883D01*
X92743819Y-55127241D01*
X93609441Y-54261619D01*
X93670764Y-54228134D01*
X93697122Y-54225300D01*
X98806877Y-54225300D01*
X98836317Y-54233944D01*
X98866304Y-54240468D01*
X98871319Y-54244222D01*
X98873916Y-54244985D01*
X98894558Y-54261619D01*
X98945681Y-54312742D01*
X98979166Y-54374065D01*
X98982000Y-54400423D01*
X98982000Y-54447982D01*
X98962315Y-54515021D01*
X98909511Y-54560776D01*
X98845402Y-54571340D01*
X98830334Y-54569801D01*
X98830310Y-54569800D01*
X98782000Y-54569800D01*
X98782000Y-55395800D01*
X98762315Y-55462839D01*
X98709511Y-55508594D01*
X98658000Y-55519800D01*
X98406000Y-55519800D01*
X98338961Y-55500115D01*
X98293206Y-55447311D01*
X98282000Y-55395800D01*
X98282000Y-54569800D01*
X98281999Y-54569799D01*
X98233693Y-54569800D01*
X98233675Y-54569801D01*
X98134392Y-54579944D01*
X97973518Y-54633252D01*
X97973507Y-54633257D01*
X97829271Y-54722224D01*
X97829267Y-54722227D01*
X97709426Y-54842068D01*
X97652843Y-54933802D01*
X97600894Y-54980526D01*
X97531931Y-54991747D01*
X97493836Y-54978529D01*
X97493238Y-54979860D01*
X97486396Y-54976780D01*
X97324105Y-54926209D01*
X97324106Y-54926209D01*
X97253572Y-54919800D01*
X97247000Y-54919800D01*
X97247000Y-56869799D01*
X97253581Y-56869799D01*
X97324102Y-56863391D01*
X97324107Y-56863390D01*
X97486396Y-56812818D01*
X97631875Y-56724873D01*
X97703441Y-56653307D01*
X97764764Y-56619822D01*
X97834456Y-56624806D01*
X97890390Y-56666677D01*
X97914807Y-56732141D01*
X97913828Y-56758863D01*
X97912435Y-56768428D01*
X97906500Y-56809164D01*
X97906500Y-57330436D01*
X97917134Y-57403425D01*
X97917134Y-57403426D01*
X97917135Y-57403428D01*
X97972172Y-57516010D01*
X98060789Y-57604627D01*
X98155894Y-57651120D01*
X98173375Y-57659666D01*
X98175377Y-57659957D01*
X98177560Y-57660959D01*
X98182575Y-57662509D01*
X98182371Y-57663167D01*
X98238877Y-57689101D01*
X98276542Y-57747949D01*
X98279664Y-57761402D01*
X98281500Y-57771951D01*
X98281500Y-57844628D01*
X98303311Y-57897286D01*
X98305664Y-57910802D01*
X98304793Y-57918454D01*
X98307500Y-57932062D01*
X98307500Y-58028053D01*
X98315974Y-58059677D01*
X98335066Y-58130932D01*
X98388684Y-58223799D01*
X98405157Y-58291700D01*
X98382305Y-58357727D01*
X98327384Y-58400917D01*
X98281297Y-58409800D01*
X98274155Y-58409800D01*
X98214627Y-58416201D01*
X98214620Y-58416203D01*
X98079913Y-58466445D01*
X98079906Y-58466449D01*
X97964812Y-58552609D01*
X97964809Y-58552612D01*
X97878648Y-58667707D01*
X97864500Y-58705639D01*
X97822627Y-58761572D01*
X97817211Y-58765405D01*
X97763494Y-58801297D01*
X97730234Y-58851075D01*
X97730231Y-58851082D01*
X97721500Y-58894977D01*
X97721500Y-58897800D01*
X97721081Y-58899224D01*
X97720903Y-58901040D01*
X97720558Y-58901006D01*
X97701815Y-58964839D01*
X97649011Y-59010594D01*
X97597500Y-59021800D01*
X96184622Y-59021800D01*
X96117583Y-59002115D01*
X96096941Y-58985481D01*
X95633819Y-58522358D01*
X95600334Y-58461035D01*
X95597500Y-58434677D01*
X95597500Y-56612657D01*
X95617185Y-56545618D01*
X95667039Y-56501257D01*
X95753483Y-56458998D01*
X95836198Y-56376283D01*
X95877504Y-56291788D01*
X95924631Y-56240208D01*
X95992165Y-56222293D01*
X96058663Y-56243733D01*
X96103014Y-56297722D01*
X96107289Y-56309359D01*
X96153981Y-56459196D01*
X96241927Y-56604677D01*
X96362122Y-56724872D01*
X96507604Y-56812819D01*
X96507603Y-56812819D01*
X96669894Y-56863390D01*
X96669893Y-56863390D01*
X96740408Y-56869798D01*
X96740426Y-56869799D01*
X96746999Y-56869798D01*
X96747000Y-56869798D01*
X96747000Y-54919800D01*
X96746999Y-54919799D01*
X96740436Y-54919800D01*
X96740417Y-54919801D01*
X96669897Y-54926208D01*
X96669892Y-54926209D01*
X96507603Y-54976781D01*
X96362122Y-55064727D01*
X96241927Y-55184922D01*
X96153981Y-55330403D01*
X96107289Y-55480241D01*
X96068551Y-55538389D01*
X96004526Y-55566362D01*
X95935541Y-55555280D01*
X95883498Y-55508661D01*
X95877510Y-55497822D01*
X95836198Y-55413317D01*
X95836196Y-55413315D01*
X95836196Y-55413314D01*
X95753485Y-55330603D01*
X95648391Y-55279226D01*
X95580261Y-55269300D01*
X95580260Y-55269300D01*
X95113740Y-55269300D01*
X95113739Y-55269300D01*
X95045608Y-55279226D01*
X94940514Y-55330603D01*
X94857803Y-55413314D01*
X94830209Y-55469760D01*
X94819262Y-55481741D01*
X94812521Y-55496503D01*
X94796182Y-55507003D01*
X94783081Y-55521343D01*
X94766783Y-55525896D01*
X94753743Y-55534277D01*
X94718808Y-55539300D01*
X94549858Y-55539300D01*
X94482819Y-55519615D01*
X94438457Y-55469760D01*
X94435074Y-55462839D01*
X94396198Y-55383317D01*
X94396196Y-55383315D01*
X94396196Y-55383314D01*
X94313485Y-55300603D01*
X94208391Y-55249226D01*
X94140261Y-55239300D01*
X94140260Y-55239300D01*
X93523740Y-55239300D01*
X93523739Y-55239300D01*
X93455608Y-55249226D01*
X93350514Y-55300603D01*
X93267803Y-55383314D01*
X93216426Y-55488408D01*
X93206500Y-55556539D01*
X93206500Y-56023060D01*
X93216426Y-56091191D01*
X93267803Y-56196285D01*
X93350514Y-56278996D01*
X93350515Y-56278996D01*
X93350517Y-56278998D01*
X93455607Y-56330373D01*
X93489673Y-56335336D01*
X93523739Y-56340300D01*
X93523740Y-56340300D01*
X94140261Y-56340300D01*
X94162971Y-56336991D01*
X94208393Y-56330373D01*
X94313483Y-56278998D01*
X94396198Y-56196283D01*
X94438457Y-56109839D01*
X94449403Y-56097858D01*
X94456145Y-56083097D01*
X94472483Y-56072596D01*
X94485585Y-56058257D01*
X94501882Y-56053703D01*
X94514923Y-56045323D01*
X94549858Y-56040300D01*
X94672500Y-56040300D01*
X94739539Y-56059985D01*
X94785294Y-56112789D01*
X94796500Y-56164300D01*
X94796500Y-56203060D01*
X94806426Y-56271191D01*
X94857803Y-56376285D01*
X94940515Y-56458997D01*
X94940516Y-56458997D01*
X94940517Y-56458998D01*
X95026960Y-56501257D01*
X95078542Y-56548383D01*
X95096500Y-56612657D01*
X95096500Y-58490300D01*
X95076815Y-58557339D01*
X95024011Y-58603094D01*
X94972500Y-58614300D01*
X94554021Y-58614300D01*
X94486982Y-58594615D01*
X94441227Y-58541811D01*
X94438258Y-58534022D01*
X94381827Y-58418589D01*
X94293212Y-58329974D01*
X94293209Y-58329972D01*
X94292896Y-58329819D01*
X94292543Y-58329496D01*
X94284850Y-58324004D01*
X94285513Y-58323074D01*
X94241314Y-58282691D01*
X94223401Y-58215156D01*
X94223709Y-58209101D01*
X94224580Y-58197537D01*
X94236500Y-58153053D01*
X94236500Y-58046547D01*
X94236078Y-58044972D01*
X94236851Y-58034718D01*
X94247603Y-58006221D01*
X94256185Y-57976998D01*
X94259867Y-57973720D01*
X94261518Y-57969348D01*
X94281255Y-57954689D01*
X94306040Y-57932636D01*
X94313483Y-57928998D01*
X94396198Y-57846283D01*
X94447573Y-57741193D01*
X94457500Y-57673060D01*
X94457500Y-57206540D01*
X94447573Y-57138407D01*
X94396198Y-57033317D01*
X94396196Y-57033315D01*
X94396196Y-57033314D01*
X94313485Y-56950603D01*
X94302862Y-56945410D01*
X94208393Y-56899227D01*
X94208391Y-56899226D01*
X94140261Y-56889300D01*
X94140260Y-56889300D01*
X93523740Y-56889300D01*
X93523739Y-56889300D01*
X93455608Y-56899226D01*
X93350516Y-56950602D01*
X93262440Y-57038678D01*
X93201116Y-57072162D01*
X93131425Y-57067178D01*
X93075491Y-57025306D01*
X93056374Y-56987887D01*
X93040018Y-56935403D01*
X92952072Y-56789922D01*
X92831877Y-56669727D01*
X92686395Y-56581780D01*
X92686396Y-56581780D01*
X92524105Y-56531209D01*
X92524106Y-56531209D01*
X92453572Y-56524800D01*
X92372000Y-56524800D01*
X92372000Y-57300800D01*
X92352315Y-57367839D01*
X92299511Y-57413594D01*
X92248000Y-57424800D01*
X91996000Y-57424800D01*
X91928961Y-57405115D01*
X91883206Y-57352311D01*
X91872000Y-57300800D01*
X91872000Y-56524800D01*
X91871999Y-56524799D01*
X91790417Y-56524800D01*
X91719897Y-56531208D01*
X91719892Y-56531209D01*
X91557603Y-56581781D01*
X91412122Y-56669727D01*
X91291928Y-56789921D01*
X91291925Y-56789925D01*
X91228182Y-56895368D01*
X91202339Y-56919033D01*
X91176716Y-56942524D01*
X91176681Y-56942529D01*
X91176654Y-56942555D01*
X91141729Y-56948559D01*
X91107863Y-56954401D01*
X91107820Y-56954388D01*
X91107795Y-56954393D01*
X91073734Y-56945410D01*
X91064296Y-56941415D01*
X91063483Y-56940602D01*
X90958393Y-56889227D01*
X90931857Y-56885360D01*
X90917179Y-56879148D01*
X90901980Y-56866706D01*
X90884133Y-56858515D01*
X90875504Y-56845032D01*
X90863114Y-56834890D01*
X90857054Y-56816205D01*
X90846469Y-56799666D01*
X90846499Y-56783657D01*
X90841560Y-56768428D01*
X90846563Y-56749435D01*
X90846600Y-56729797D01*
X90858125Y-56702954D01*
X90893931Y-56640936D01*
X90893930Y-56640936D01*
X90893934Y-56640931D01*
X90921500Y-56538053D01*
X90921500Y-56431547D01*
X90893934Y-56328669D01*
X90840680Y-56236431D01*
X90821201Y-56216952D01*
X90787716Y-56155629D01*
X90792700Y-56085937D01*
X90834572Y-56030004D01*
X90854419Y-56017872D01*
X90913483Y-55988998D01*
X90996198Y-55906283D01*
X91047573Y-55801193D01*
X91057500Y-55733060D01*
X91057500Y-55116540D01*
X91047573Y-55048407D01*
X90996198Y-54943317D01*
X90996196Y-54943315D01*
X90996196Y-54943314D01*
X90913485Y-54860603D01*
X90808391Y-54809226D01*
X90740261Y-54799300D01*
X90740260Y-54799300D01*
X90273740Y-54799300D01*
X90273739Y-54799300D01*
X90205608Y-54809226D01*
X90100514Y-54860603D01*
X90017803Y-54943314D01*
X89966426Y-55048408D01*
X89956500Y-55116539D01*
X89956500Y-55733060D01*
X89966426Y-55801191D01*
X90017803Y-55906285D01*
X90100514Y-55988996D01*
X90100515Y-55988996D01*
X90100517Y-55988998D01*
X90173010Y-56024437D01*
X90224592Y-56071565D01*
X90242507Y-56139099D01*
X90221066Y-56205598D01*
X90206234Y-56223517D01*
X90193320Y-56236431D01*
X90140066Y-56328668D01*
X90140066Y-56328669D01*
X90112500Y-56431547D01*
X90112500Y-56538053D01*
X90140066Y-56640931D01*
X90193320Y-56733169D01*
X90193321Y-56733170D01*
X90197384Y-56740207D01*
X90195525Y-56741280D01*
X90216642Y-56795888D01*
X90202610Y-56864334D01*
X90153800Y-56914328D01*
X90147534Y-56917616D01*
X90100516Y-56940602D01*
X90100515Y-56940602D01*
X90017803Y-57023314D01*
X89966426Y-57128408D01*
X89956500Y-57196539D01*
X89956500Y-57663060D01*
X89966426Y-57731191D01*
X90017803Y-57836285D01*
X90100514Y-57918996D01*
X90100515Y-57918996D01*
X90100517Y-57918998D01*
X90205607Y-57970373D01*
X90228579Y-57973720D01*
X90273739Y-57980300D01*
X90273740Y-57980300D01*
X90890261Y-57980300D01*
X90935421Y-57973720D01*
X90958393Y-57970373D01*
X91063483Y-57918998D01*
X91063483Y-57918997D01*
X91072272Y-57914701D01*
X91141145Y-57902941D01*
X91205443Y-57930285D01*
X91232850Y-57961951D01*
X91291927Y-58059677D01*
X91412122Y-58179872D01*
X91557604Y-58267819D01*
X91557603Y-58267819D01*
X91707440Y-58314510D01*
X91765588Y-58353247D01*
X91793562Y-58417272D01*
X91782480Y-58486258D01*
X91735862Y-58538301D01*
X91725011Y-58544295D01*
X91640515Y-58585602D01*
X91557803Y-58668314D01*
X91506426Y-58773408D01*
X91496500Y-58841539D01*
X91496500Y-59308060D01*
X91506426Y-59376191D01*
X91557803Y-59481285D01*
X91640514Y-59563996D01*
X91640515Y-59563996D01*
X91640517Y-59563998D01*
X91745607Y-59615373D01*
X91765377Y-59618253D01*
X91828876Y-59647394D01*
X91866542Y-59706242D01*
X91871500Y-59740957D01*
X91871500Y-60965677D01*
X91851815Y-61032716D01*
X91799011Y-61078471D01*
X91729853Y-61088415D01*
X91666297Y-61059390D01*
X91659819Y-61053358D01*
X90868819Y-60262358D01*
X90835334Y-60201035D01*
X90832500Y-60174677D01*
X90832500Y-59745957D01*
X90852185Y-59678918D01*
X90904989Y-59633163D01*
X90938618Y-59623254D01*
X90958393Y-59620373D01*
X91063483Y-59568998D01*
X91146198Y-59486283D01*
X91197573Y-59381193D01*
X91207500Y-59313060D01*
X91207500Y-58846540D01*
X91206771Y-58841540D01*
X91197573Y-58778408D01*
X91195129Y-58773408D01*
X91146198Y-58673317D01*
X91146196Y-58673315D01*
X91146196Y-58673314D01*
X91063485Y-58590603D01*
X90958391Y-58539226D01*
X90890261Y-58529300D01*
X90890260Y-58529300D01*
X90273740Y-58529300D01*
X90273739Y-58529300D01*
X90205608Y-58539226D01*
X90100514Y-58590603D01*
X90017803Y-58673314D01*
X89966426Y-58778408D01*
X89956500Y-58846539D01*
X89956500Y-59313060D01*
X89966426Y-59381191D01*
X90017803Y-59486285D01*
X90100514Y-59568996D01*
X90100515Y-59568996D01*
X90100517Y-59568998D01*
X90205607Y-59620373D01*
X90225377Y-59623253D01*
X90288876Y-59652394D01*
X90326542Y-59711242D01*
X90331500Y-59745957D01*
X90331500Y-60379629D01*
X90369636Y-60471697D01*
X91251058Y-61353119D01*
X91284543Y-61414442D01*
X91279559Y-61484134D01*
X91237687Y-61540067D01*
X91172223Y-61564484D01*
X91163377Y-61564800D01*
X88813362Y-61564800D01*
X88746323Y-61545115D01*
X88725681Y-61528481D01*
X86958319Y-59761119D01*
X86924834Y-59699796D01*
X86922000Y-59673438D01*
X86922000Y-53736162D01*
X86941685Y-53669123D01*
X86958319Y-53648481D01*
X88370181Y-52236619D01*
X88431504Y-52203134D01*
X88457862Y-52200300D01*
X97966138Y-52200300D01*
X98033177Y-52219985D01*
G37*
G04 #@! TD.AperFunction*
G04 #@! TA.AperFunction,Conductor*
G36*
X98564539Y-59291985D02*
G01*
X98610294Y-59344789D01*
X98621500Y-59396300D01*
X98621500Y-59649620D01*
X98621500Y-59649622D01*
X98621499Y-59649622D01*
X98630231Y-59693517D01*
X98630234Y-59693524D01*
X98663495Y-59743303D01*
X98663496Y-59743304D01*
X98713276Y-59776566D01*
X98720455Y-59779540D01*
X98774858Y-59823382D01*
X98796921Y-59889677D01*
X98797000Y-59894100D01*
X98797000Y-60598300D01*
X98777315Y-60665339D01*
X98724511Y-60711094D01*
X98673000Y-60722300D01*
X98421000Y-60722300D01*
X98353961Y-60702615D01*
X98308206Y-60649811D01*
X98297000Y-60598300D01*
X98297000Y-59756230D01*
X98311772Y-59705919D01*
X98309092Y-59704809D01*
X98313763Y-59693526D01*
X98313767Y-59693522D01*
X98322500Y-59649620D01*
X98322500Y-59396300D01*
X98325050Y-59387614D01*
X98323762Y-59378653D01*
X98334740Y-59354612D01*
X98342185Y-59329261D01*
X98349025Y-59323333D01*
X98352787Y-59315097D01*
X98375021Y-59300807D01*
X98394989Y-59283506D01*
X98405503Y-59281218D01*
X98411565Y-59277323D01*
X98446500Y-59272300D01*
X98497500Y-59272300D01*
X98564539Y-59291985D01*
G37*
G04 #@! TD.AperFunction*
G04 #@! TA.AperFunction,Conductor*
G36*
X99034727Y-62818707D02*
G01*
X99070691Y-62868207D01*
X99075536Y-62898800D01*
X99075536Y-64504275D01*
X99056629Y-64562466D01*
X99007129Y-64598430D01*
X98945943Y-64598430D01*
X98931590Y-64592484D01*
X98814969Y-64533062D01*
X98814970Y-64533062D01*
X98715454Y-64517300D01*
X98557001Y-64517300D01*
X98557000Y-64517301D01*
X98557000Y-65867298D01*
X98557001Y-65867299D01*
X98715453Y-65867299D01*
X98814965Y-65851539D01*
X98814969Y-65851538D01*
X98931590Y-65792115D01*
X98992022Y-65782543D01*
X99046539Y-65810320D01*
X99074317Y-65864836D01*
X99075536Y-65880324D01*
X99075536Y-67135256D01*
X99056629Y-67193447D01*
X99046540Y-67205260D01*
X96152000Y-70099800D01*
X96152000Y-76758792D01*
X96133093Y-76816983D01*
X96123004Y-76828796D01*
X95880996Y-77070804D01*
X95826479Y-77098581D01*
X95810992Y-77099800D01*
X90893008Y-77099800D01*
X90834817Y-77080893D01*
X90823004Y-77070804D01*
X89380996Y-75628796D01*
X89353219Y-75574279D01*
X89352000Y-75558792D01*
X89352000Y-73249801D01*
X91622000Y-73249801D01*
X91622000Y-75457800D01*
X91632609Y-75577132D01*
X91688557Y-75772661D01*
X91782720Y-75952928D01*
X91911244Y-76110550D01*
X91911249Y-76110555D01*
X92068871Y-76239079D01*
X92249138Y-76333242D01*
X92444667Y-76389190D01*
X92564000Y-76399800D01*
X92821999Y-76399800D01*
X92822000Y-76399799D01*
X92822000Y-73249801D01*
X93822000Y-73249801D01*
X93822000Y-76399799D01*
X93822001Y-76399800D01*
X94080000Y-76399800D01*
X94199332Y-76389190D01*
X94394861Y-76333242D01*
X94575128Y-76239079D01*
X94732750Y-76110555D01*
X94732755Y-76110550D01*
X94861279Y-75952928D01*
X94955442Y-75772661D01*
X95011390Y-75577132D01*
X95022000Y-75457800D01*
X95022000Y-73249801D01*
X95021999Y-73249800D01*
X93822001Y-73249800D01*
X93822000Y-73249801D01*
X92822000Y-73249801D01*
X92821999Y-73249800D01*
X91622001Y-73249800D01*
X91622000Y-73249801D01*
X89352000Y-73249801D01*
X89352000Y-70041799D01*
X91622000Y-70041799D01*
X91622000Y-72249799D01*
X91622001Y-72249800D01*
X92821999Y-72249800D01*
X92822000Y-72249799D01*
X92822000Y-69099801D01*
X93822000Y-69099801D01*
X93822000Y-72249799D01*
X93822001Y-72249800D01*
X95021999Y-72249800D01*
X95022000Y-72249799D01*
X95022000Y-70041799D01*
X95011390Y-69922467D01*
X94955442Y-69726938D01*
X94861279Y-69546671D01*
X94732755Y-69389049D01*
X94732750Y-69389044D01*
X94575128Y-69260520D01*
X94394861Y-69166357D01*
X94199332Y-69110409D01*
X94080000Y-69099800D01*
X93822001Y-69099800D01*
X93822000Y-69099801D01*
X92822000Y-69099801D01*
X92821999Y-69099800D01*
X92564000Y-69099800D01*
X92444667Y-69110409D01*
X92249138Y-69166357D01*
X92068871Y-69260520D01*
X91911249Y-69389044D01*
X91911244Y-69389049D01*
X91782720Y-69546671D01*
X91688557Y-69726938D01*
X91632609Y-69922467D01*
X91622000Y-70041799D01*
X89352000Y-70041799D01*
X89352000Y-67140808D01*
X89370907Y-67082617D01*
X89380996Y-67070804D01*
X90223004Y-66228796D01*
X90277521Y-66201019D01*
X90293008Y-66199800D01*
X95251999Y-66199800D01*
X95252000Y-66199800D01*
X95976047Y-65475753D01*
X97807000Y-65475753D01*
X97822760Y-65575265D01*
X97822762Y-65575269D01*
X97883881Y-65695221D01*
X97979078Y-65790418D01*
X98099030Y-65851537D01*
X98099029Y-65851537D01*
X98198545Y-65867299D01*
X98357000Y-65867299D01*
X98357000Y-65292301D01*
X98356999Y-65292300D01*
X97807002Y-65292300D01*
X97807001Y-65292301D01*
X97807001Y-65475753D01*
X97807000Y-65475753D01*
X95976047Y-65475753D01*
X96352000Y-65099800D01*
X96352000Y-64908846D01*
X97807000Y-64908846D01*
X97807000Y-65092299D01*
X97807001Y-65092300D01*
X98356999Y-65092300D01*
X98357000Y-65092299D01*
X98357000Y-64517301D01*
X98356999Y-64517300D01*
X98198547Y-64517300D01*
X98198546Y-64517301D01*
X98099034Y-64533060D01*
X98099030Y-64533062D01*
X97979078Y-64594181D01*
X97883881Y-64689378D01*
X97822762Y-64809330D01*
X97807000Y-64908846D01*
X96352000Y-64908846D01*
X96352000Y-64140808D01*
X96370907Y-64082617D01*
X96380996Y-64070804D01*
X96823004Y-63628796D01*
X96877521Y-63601019D01*
X96893008Y-63599800D01*
X97816999Y-63599800D01*
X97817000Y-63599800D01*
X98017000Y-63399800D01*
X98017000Y-63000808D01*
X98019468Y-62993210D01*
X98018219Y-62985321D01*
X98028743Y-62964665D01*
X98035907Y-62942617D01*
X98045996Y-62930804D01*
X98148004Y-62828796D01*
X98202521Y-62801019D01*
X98218008Y-62799800D01*
X98976536Y-62799800D01*
X99034727Y-62818707D01*
G37*
G04 #@! TD.AperFunction*
D45*
X148552000Y-79699800D02*
X148552000Y-107699800D01*
X108052001Y-109699800D02*
G75*
G02*
X110052000Y-111699799I-1J-2000000D01*
G01*
X84051999Y-51699800D02*
X156552000Y-51699800D01*
X84051998Y-77699800D02*
G75*
G02*
X82052000Y-75699802I2J2000000D01*
G01*
X92052000Y-107699802D02*
X92052000Y-79699799D01*
X148552000Y-107699800D02*
G75*
G02*
X146552000Y-109699800I-2000000J0D01*
G01*
X148552000Y-79699800D02*
G75*
G02*
X150552000Y-77699800I2000000J0D01*
G01*
D46*
X156252000Y-64699800D02*
G75*
G02*
X152852000Y-64699800I-1700000J0D01*
G01*
X152852000Y-64699800D02*
G75*
G02*
X156252000Y-64699800I1700000J0D01*
G01*
D45*
X130552000Y-115699800D02*
G75*
G02*
X128552000Y-117699800I-2000000J0D01*
G01*
X112051998Y-117699800D02*
X128552000Y-117699800D01*
X112051998Y-117699800D02*
G75*
G02*
X110052000Y-115699802I2J2000000D01*
G01*
X146552000Y-109699800D02*
X132552000Y-109699800D01*
X156552000Y-77699800D02*
X150552000Y-77699800D01*
X82052000Y-53699799D02*
X82052000Y-75699802D01*
X108052001Y-109699800D02*
X94051998Y-109699800D01*
X94051998Y-109699800D02*
G75*
G02*
X92052000Y-107699802I2J2000000D01*
G01*
D46*
X122002000Y-112049800D02*
G75*
G02*
X118602000Y-112049800I-1700000J0D01*
G01*
X118602000Y-112049800D02*
G75*
G02*
X122002000Y-112049800I1700000J0D01*
G01*
D45*
X158552000Y-75699800D02*
X158552000Y-53699800D01*
X82052000Y-53699799D02*
G75*
G02*
X84051999Y-51699800I2000000J-1D01*
G01*
D46*
X87752000Y-64699800D02*
G75*
G02*
X84352000Y-64699800I-1700000J0D01*
G01*
X84352000Y-64699800D02*
G75*
G02*
X87752000Y-64699800I1700000J0D01*
G01*
D45*
X110052000Y-115699802D02*
X110052000Y-111699799D01*
X158552000Y-75699800D02*
G75*
G02*
X156552000Y-77699800I-2000000J0D01*
G01*
X130552000Y-111699800D02*
G75*
G02*
X132552000Y-109699800I2000000J0D01*
G01*
X156552000Y-51699800D02*
G75*
G02*
X158552000Y-53699800I0J-2000000D01*
G01*
X130552000Y-111699800D02*
X130552000Y-115699800D01*
X90052001Y-77699800D02*
G75*
G02*
X92052000Y-79699799I-1J-2000000D01*
G01*
X90052001Y-77699800D02*
X84051998Y-77699800D01*
M02*
