G04 #@! TF.GenerationSoftware,KiCad,Pcbnew,9.0.0*
G04 #@! TF.CreationDate,2026-02-25T14:45:48+07:00*
G04 #@! TF.ProjectId,Power_management_V2,506f7765-725f-46d6-916e-6167656d656e,rev?*
G04 #@! TF.SameCoordinates,Original*
G04 #@! TF.FileFunction,Copper,L4,Bot*
G04 #@! TF.FilePolarity,Positive*
%FSLAX46Y46*%
G04 Gerber Fmt 4.6, Leading zero omitted, Abs format (unit mm)*
G04 Created by KiCad (PCBNEW 9.0.0) date 2026-02-25 14:45:48*
%MOMM*%
%LPD*%
G01*
G04 APERTURE LIST*
G04 Aperture macros list*
%AMRoundRect*
0 Rectangle with rounded corners*
0 $1 Rounding radius*
0 $2 $3 $4 $5 $6 $7 $8 $9 X,Y pos of 4 corners*
0 Add a 4 corners polygon primitive as box body*
4,1,4,$2,$3,$4,$5,$6,$7,$8,$9,$2,$3,0*
0 Add four circle primitives for the rounded corners*
1,1,$1+$1,$2,$3*
1,1,$1+$1,$4,$5*
1,1,$1+$1,$6,$7*
1,1,$1+$1,$8,$9*
0 Add four rect primitives between the rounded corners*
20,1,$1+$1,$2,$3,$4,$5,0*
20,1,$1+$1,$4,$5,$6,$7,0*
20,1,$1+$1,$6,$7,$8,$9,0*
20,1,$1+$1,$8,$9,$2,$3,0*%
G04 Aperture macros list end*
G04 #@! TA.AperFunction,ComponentPad*
%ADD10R,2.000000X2.000000*%
G04 #@! TD*
G04 #@! TA.AperFunction,ComponentPad*
%ADD11C,2.000000*%
G04 #@! TD*
G04 #@! TA.AperFunction,ComponentPad*
%ADD12RoundRect,1.000000X1.000000X3.200000X-1.000000X3.200000X-1.000000X-3.200000X1.000000X-3.200000X0*%
G04 #@! TD*
G04 #@! TA.AperFunction,ViaPad*
%ADD13C,0.500000*%
G04 #@! TD*
G04 #@! TA.AperFunction,ViaPad*
%ADD14C,0.450000*%
G04 #@! TD*
G04 #@! TA.AperFunction,Conductor*
%ADD15C,0.200000*%
G04 #@! TD*
G04 #@! TA.AperFunction,Conductor*
%ADD16C,0.300000*%
G04 #@! TD*
G04 #@! TA.AperFunction,Profile*
%ADD17C,0.200000*%
G04 #@! TD*
G04 #@! TA.AperFunction,Profile*
%ADD18C,0.150000*%
G04 #@! TD*
G04 APERTURE END LIST*
D10*
X134177000Y-92824800D03*
D11*
X137677000Y-92824800D03*
X141177000Y-92824800D03*
X144677000Y-92824800D03*
D12*
X131702000Y-73053800D03*
X108802000Y-74203800D03*
D13*
X131552000Y-104899800D03*
X114752000Y-103999800D03*
X136552000Y-103999800D03*
X117752000Y-103999800D03*
X120652000Y-104899800D03*
X130652000Y-53314800D03*
X125852000Y-81699800D03*
X108552000Y-80949800D03*
X124652000Y-103999800D03*
D14*
X99656466Y-61038237D03*
D13*
X134852000Y-81699800D03*
X108552000Y-79949800D03*
X122652000Y-104899800D03*
X135552000Y-103999800D03*
X109552000Y-102499800D03*
D14*
X103552000Y-88474800D03*
D13*
X146952000Y-98599800D03*
X101722000Y-53104800D03*
X133552000Y-104899800D03*
X125652000Y-53314800D03*
X137552000Y-104899800D03*
X133852000Y-81699800D03*
X109552000Y-100499800D03*
X138552000Y-103999800D03*
X114752000Y-104899800D03*
X127552000Y-103999800D03*
X136552000Y-104899800D03*
X122652000Y-53314800D03*
X113752000Y-103999800D03*
X104052000Y-75449800D03*
X109552000Y-107449800D03*
X107552000Y-79949800D03*
X105052000Y-75449800D03*
X108802000Y-102499800D03*
D14*
X100301192Y-61832156D03*
D13*
X129852000Y-81699800D03*
X133652000Y-53314800D03*
X131652000Y-53314800D03*
X127852000Y-81699800D03*
X102722000Y-53104800D03*
X133552000Y-103999800D03*
X132852000Y-81699800D03*
X140952000Y-96799800D03*
X108802000Y-100499800D03*
X128552000Y-103999800D03*
X104052000Y-77449800D03*
X138552000Y-104899800D03*
X123652000Y-103999800D03*
X107552000Y-80949800D03*
X128552000Y-104899800D03*
D14*
X100302000Y-61038237D03*
D13*
X127552000Y-104899800D03*
D14*
X99656466Y-62647388D03*
D13*
X117752000Y-104899800D03*
X132552000Y-103999800D03*
X129652000Y-53314800D03*
X105052000Y-77449800D03*
D14*
X102906466Y-89978388D03*
D13*
X100902000Y-65564800D03*
X104377000Y-92649800D03*
X108802000Y-105449800D03*
X104377000Y-91849800D03*
X123652000Y-53314800D03*
X109552000Y-106449800D03*
X118752000Y-104899800D03*
X138652000Y-53314800D03*
X126652000Y-53314800D03*
X105052000Y-78449800D03*
X145952000Y-96799800D03*
X146952000Y-96799800D03*
X121652000Y-103999800D03*
X104052000Y-79449800D03*
X119752000Y-104899800D03*
X131852000Y-81699800D03*
X139552000Y-104899800D03*
X141952000Y-97699800D03*
X140552000Y-104899800D03*
X105052000Y-73449800D03*
X100902000Y-64814800D03*
X129552000Y-104899800D03*
D14*
X99656466Y-60374800D03*
X100319841Y-62647388D03*
D13*
X142952000Y-98599800D03*
X140352000Y-95399800D03*
X121652000Y-53314800D03*
X142652000Y-53314800D03*
X130852000Y-81699800D03*
X143352000Y-58679800D03*
X115752000Y-104899800D03*
X109552000Y-101499800D03*
D14*
X103569841Y-89978388D03*
D13*
X124652000Y-53314800D03*
X104052000Y-74449800D03*
X145952000Y-97699800D03*
X142952000Y-97699800D03*
X144952000Y-98599800D03*
X140352000Y-94499800D03*
X138352000Y-94499800D03*
X136852000Y-81699800D03*
D14*
X103551192Y-89163156D03*
D13*
X135852000Y-81699800D03*
X143952000Y-96799800D03*
X145952000Y-98599800D03*
X131552000Y-103999800D03*
X126652000Y-103999800D03*
X113752000Y-104899800D03*
X100722000Y-53104800D03*
X97952000Y-87499800D03*
X115752000Y-103999800D03*
X123652000Y-104899800D03*
X109552000Y-80949800D03*
X109552000Y-105449800D03*
X148852000Y-62449800D03*
X139352000Y-94499800D03*
X132652000Y-53314800D03*
X144952000Y-97699800D03*
X134552000Y-103999800D03*
D14*
X102906466Y-88474800D03*
D13*
X127652000Y-53314800D03*
X116752000Y-104899800D03*
X128652000Y-53314800D03*
X139552000Y-103999800D03*
X108802000Y-103499800D03*
X139352000Y-95399800D03*
D14*
X102906466Y-89163156D03*
D13*
X101722000Y-54104800D03*
X138352000Y-95399800D03*
X141952000Y-98599800D03*
X140552000Y-103999800D03*
X125652000Y-104899800D03*
X109552000Y-104449800D03*
X132552000Y-104899800D03*
X142952000Y-96799800D03*
X134552000Y-104899800D03*
X104052000Y-76449800D03*
X126852000Y-81699800D03*
X135652000Y-53314800D03*
X141952000Y-96799800D03*
X144952000Y-96799800D03*
X116752000Y-103999800D03*
X118752000Y-103999800D03*
X92352000Y-63099800D03*
X140652000Y-53314800D03*
X124652000Y-104899800D03*
X105052000Y-76449800D03*
X105052000Y-74449800D03*
X119752000Y-103999800D03*
X135552000Y-104899800D03*
X120652000Y-103999800D03*
X130552000Y-104899800D03*
X99902000Y-64064800D03*
X108802000Y-104449800D03*
X141352000Y-95399800D03*
X120652000Y-53314800D03*
X102722000Y-54104800D03*
X141652000Y-53314800D03*
X129552000Y-103999800D03*
X103277000Y-91399800D03*
X147862000Y-56009800D03*
X134652000Y-53314800D03*
X139652000Y-53314800D03*
X125652000Y-103999800D03*
X104052000Y-78449800D03*
X108802000Y-101499800D03*
D14*
X99656466Y-61832156D03*
D13*
X143952000Y-97699800D03*
X108802000Y-107449800D03*
X121652000Y-104899800D03*
X93052000Y-60899800D03*
X100722000Y-54104800D03*
X141352000Y-94499800D03*
D14*
X102906466Y-87799800D03*
D13*
X137552000Y-103999800D03*
X140952000Y-97699800D03*
X108802000Y-106449800D03*
X109552000Y-103499800D03*
X122652000Y-103999800D03*
X105052000Y-79449800D03*
X109552000Y-79949800D03*
X143952000Y-98599800D03*
X146952000Y-97699800D03*
X137652000Y-53314800D03*
X128852000Y-81699800D03*
X130552000Y-103999800D03*
X140952000Y-98599800D03*
X104052000Y-73449800D03*
X126652000Y-104899800D03*
X136652000Y-53314800D03*
X97552000Y-90199800D03*
X126802000Y-73449800D03*
X96052000Y-103199800D03*
X95052000Y-104199800D03*
X94402000Y-66564800D03*
X94302000Y-67449800D03*
X95052000Y-101199800D03*
X97052000Y-101199800D03*
X133402000Y-65724800D03*
X91302000Y-72449800D03*
X136402000Y-71849800D03*
X126802000Y-75449800D03*
X127802000Y-73449800D03*
X126802000Y-70449800D03*
X145932000Y-54699800D03*
X126802000Y-68449800D03*
X95052000Y-97299800D03*
X127802000Y-71449800D03*
X92302000Y-68449800D03*
X136402000Y-67849800D03*
X127802000Y-69449800D03*
X90302000Y-72449800D03*
X95052000Y-94299800D03*
X91302000Y-74449800D03*
X127802000Y-76449800D03*
X97052000Y-94299800D03*
X97052000Y-93299800D03*
D14*
X101842000Y-89869800D03*
D13*
X96052000Y-94299800D03*
X95052000Y-100199800D03*
X136402000Y-68849800D03*
X97052000Y-98299800D03*
X100252000Y-92299800D03*
X92302000Y-67449800D03*
X130402000Y-65724800D03*
X127802000Y-68449800D03*
X126802000Y-76449800D03*
X96052000Y-98299800D03*
X95402000Y-66564800D03*
X126802000Y-72449800D03*
X97052000Y-103199800D03*
X96052000Y-99299800D03*
X97352000Y-64214800D03*
X126802000Y-77449800D03*
D14*
X98472000Y-62378800D03*
D13*
X127802000Y-75449800D03*
X96052000Y-100199800D03*
X96402000Y-66564800D03*
X90302000Y-67449800D03*
X126802000Y-71449800D03*
X97052000Y-97299800D03*
X93302000Y-68449800D03*
X100252000Y-91499800D03*
X127802000Y-67449800D03*
X136402000Y-75999800D03*
X91302000Y-68449800D03*
X95052000Y-105199800D03*
X97052000Y-95299800D03*
X90302000Y-71449800D03*
X97052000Y-96299800D03*
X97052000Y-100199800D03*
X95052000Y-102199800D03*
X132402000Y-65724800D03*
X96052000Y-102199800D03*
X91302000Y-69449800D03*
X90302000Y-68449800D03*
X97352000Y-65214800D03*
X95052000Y-103199800D03*
X91302000Y-73449800D03*
X136402000Y-69849800D03*
X126802000Y-67449800D03*
X134402000Y-65724800D03*
X94302000Y-68449800D03*
X97052000Y-105199800D03*
X96052000Y-101199800D03*
X135402000Y-65724800D03*
X136402000Y-66849800D03*
X95052000Y-98299800D03*
X97052000Y-99299800D03*
X98402000Y-66564800D03*
X91302000Y-70449800D03*
X147502000Y-63649800D03*
X126802000Y-69449800D03*
X97402000Y-66564800D03*
X93302000Y-67449800D03*
X127802000Y-77449800D03*
X127802000Y-70449800D03*
X136402000Y-73999800D03*
X127802000Y-72449800D03*
X96052000Y-97299800D03*
X96052000Y-105199800D03*
X95052000Y-99299800D03*
X149802000Y-59319800D03*
X90302000Y-73449800D03*
X97052000Y-102199800D03*
X91302000Y-71449800D03*
X96052000Y-95299800D03*
X96052000Y-96299800D03*
X136402000Y-74999800D03*
X126802000Y-74449800D03*
X136402000Y-70849800D03*
X127802000Y-74449800D03*
X96052000Y-104199800D03*
X136402000Y-72849800D03*
X90302000Y-70449800D03*
X97052000Y-104199800D03*
X136402000Y-76999800D03*
X91302000Y-67449800D03*
X96052000Y-93299800D03*
X136402000Y-65724800D03*
X95052000Y-96299800D03*
X98052000Y-93299800D03*
X131402000Y-65724800D03*
X90302000Y-69449800D03*
X95052000Y-95299800D03*
X98532000Y-54524800D03*
X92366071Y-52759927D03*
X91366071Y-52759927D03*
D14*
X98902000Y-60699800D03*
D13*
X96152000Y-57064800D03*
X88152000Y-56564800D03*
D14*
X98352000Y-61199800D03*
D13*
X95366071Y-52759927D03*
D14*
X98352000Y-60224800D03*
D13*
X93366071Y-52759927D03*
X88152000Y-59564800D03*
X96997000Y-54779800D03*
X88152000Y-55564800D03*
X94366071Y-52759927D03*
X88152000Y-54564800D03*
X88152000Y-57564800D03*
X88152000Y-58564800D03*
X96366071Y-52759927D03*
X96152000Y-57814800D03*
X92127000Y-56449800D03*
X94057000Y-82239800D03*
X102182000Y-84949800D03*
X134942000Y-88559800D03*
X129052000Y-92749800D03*
X124692000Y-88559800D03*
X124802000Y-92749800D03*
X127692000Y-88559800D03*
X128692000Y-88559800D03*
X123462000Y-97394800D03*
X127712000Y-97394800D03*
X132052000Y-92749800D03*
X123462000Y-96144800D03*
X128052000Y-92749800D03*
X132942000Y-88559800D03*
X121462000Y-97394800D03*
X122462000Y-96144800D03*
X129712000Y-97394800D03*
X126712000Y-97394800D03*
X128712000Y-96144800D03*
X125462000Y-97394800D03*
X97252000Y-84699800D03*
X125802000Y-92749800D03*
X129692000Y-88559800D03*
X126802000Y-92749800D03*
X130942000Y-88559800D03*
X121462000Y-96144800D03*
X126712000Y-96144800D03*
X131052000Y-92749800D03*
X131712000Y-97394800D03*
X120462000Y-96144800D03*
X130712000Y-96144800D03*
X130052000Y-92749800D03*
X122462000Y-97394800D03*
X131712000Y-96144800D03*
X127712000Y-96144800D03*
X128712000Y-97394800D03*
X130712000Y-97394800D03*
X129712000Y-96144800D03*
X133942000Y-88559800D03*
X120462000Y-97394800D03*
X131942000Y-88559800D03*
X125462000Y-96144800D03*
X124462000Y-96144800D03*
X121802000Y-92749800D03*
X123802000Y-92749800D03*
X125692000Y-88559800D03*
X122802000Y-92749800D03*
X124462000Y-97394800D03*
X126692000Y-88559800D03*
X98712000Y-57974800D03*
X90517000Y-56484800D03*
X120902000Y-58004800D03*
X145577000Y-80124800D03*
X144577000Y-82124800D03*
X93832000Y-58099800D03*
X126652000Y-59814800D03*
X133652000Y-59814800D03*
X131652000Y-59814800D03*
X145577000Y-86299800D03*
X144577000Y-80124800D03*
X145577000Y-82124800D03*
X137652000Y-59814800D03*
X121652000Y-59814800D03*
X123652000Y-59814800D03*
X145577000Y-88299800D03*
X134652000Y-59814800D03*
X135652000Y-59814800D03*
X144552000Y-89599800D03*
X124652000Y-59814800D03*
X143552000Y-90599800D03*
X139442000Y-67799800D03*
X144577000Y-85349800D03*
X145552000Y-89599800D03*
X144552000Y-90599800D03*
X144577000Y-83349800D03*
X145577000Y-81124800D03*
X143552000Y-89599800D03*
X145577000Y-85349800D03*
X140442000Y-66799800D03*
X145577000Y-84349800D03*
X146752000Y-91499800D03*
X140442000Y-64759800D03*
X145577000Y-83349800D03*
X136652000Y-59814800D03*
X146752000Y-92499800D03*
X139652000Y-59814800D03*
X140452000Y-70899800D03*
X144577000Y-81124800D03*
X139442000Y-65799800D03*
X139442000Y-63759800D03*
X144577000Y-86299800D03*
X140442000Y-65799800D03*
X129652000Y-59814800D03*
X122652000Y-59814800D03*
X140452000Y-69899800D03*
X139452000Y-69899800D03*
X130652000Y-59814800D03*
X145552000Y-90599800D03*
X120902000Y-57164800D03*
X144577000Y-84349800D03*
X140452000Y-68899800D03*
X140442000Y-67799800D03*
X128652000Y-59814800D03*
X127652000Y-59814800D03*
X132652000Y-59814800D03*
X144577000Y-88299800D03*
X125652000Y-59814800D03*
X139442000Y-64759800D03*
X140442000Y-63759800D03*
X138652000Y-59814800D03*
X146752000Y-93499800D03*
X139452000Y-70899800D03*
X139452000Y-68899800D03*
X144577000Y-87299800D03*
X140442000Y-62759800D03*
X139442000Y-66799800D03*
X145577000Y-87299800D03*
X139442000Y-62759800D03*
X98702000Y-87149800D03*
X95352000Y-60184800D03*
X94775727Y-59708820D03*
X143427000Y-56049800D03*
X142627000Y-56049800D03*
X98188047Y-86635847D03*
X95802000Y-79449800D03*
X94802000Y-79449800D03*
D14*
X102002000Y-88124800D03*
D13*
X100552000Y-84949800D03*
X95652000Y-82439800D03*
D14*
X101552000Y-87674800D03*
D13*
X100372000Y-81389800D03*
D14*
X101552000Y-88574800D03*
D13*
X99352000Y-81199800D03*
X97802000Y-79449800D03*
X98802000Y-79449800D03*
X99802000Y-79449800D03*
X96802000Y-79449800D03*
X98352000Y-81199800D03*
D15*
X97952000Y-89799800D02*
X97552000Y-90199800D01*
X93052000Y-62399800D02*
X92352000Y-63099800D01*
X97952000Y-87499800D02*
X97952000Y-89799800D01*
X93052000Y-60899800D02*
X93052000Y-62399800D01*
X94057000Y-82239800D02*
X94592000Y-81704800D01*
X94592000Y-81704800D02*
X98937000Y-81704800D01*
X98937000Y-81704800D02*
X102182000Y-84949800D01*
X97252000Y-84699800D02*
X97282000Y-84729800D01*
X97882000Y-84729800D02*
X99602000Y-86449800D01*
X123802000Y-91849800D02*
X123802000Y-92749800D01*
X99602000Y-86449800D02*
X118402000Y-86449800D01*
X97282000Y-84729800D02*
X97882000Y-84729800D01*
X118402000Y-86449800D02*
X123802000Y-91849800D01*
X91167000Y-55834800D02*
X97552000Y-55834800D01*
X97552000Y-55834800D02*
X98712000Y-56994800D01*
X98712000Y-56994800D02*
X98712000Y-57974800D01*
X90517000Y-56484800D02*
X91167000Y-55834800D01*
X93832000Y-58099800D02*
X94952000Y-58099800D01*
X94952000Y-58099800D02*
X95767000Y-58914800D01*
X116527000Y-57164800D02*
X120902000Y-57164800D01*
X120902000Y-58004800D02*
X120902000Y-57164800D01*
X95767000Y-58914800D02*
X99052000Y-58914800D01*
X115377000Y-56014800D02*
X116527000Y-57164800D01*
X101952000Y-56014800D02*
X115377000Y-56014800D01*
X99052000Y-58914800D02*
X101952000Y-56014800D01*
D16*
X142227000Y-56049800D02*
X141167000Y-54989800D01*
X93847000Y-59944800D02*
X90462000Y-59944800D01*
X91552000Y-60044800D02*
X91552000Y-65049800D01*
X142627000Y-56049800D02*
X143427000Y-56049800D01*
X94775727Y-59708820D02*
X94082980Y-59708820D01*
X91452000Y-59944800D02*
X91552000Y-60044800D01*
X98627000Y-53474800D02*
X91342000Y-53474800D01*
D15*
X94775727Y-59708820D02*
X94876020Y-59708820D01*
D16*
X91342000Y-53474800D02*
X89142000Y-55674800D01*
X141167000Y-54989800D02*
X140852000Y-54989800D01*
X142627000Y-56049800D02*
X142227000Y-56049800D01*
X91552000Y-65049800D02*
X89552000Y-67049800D01*
X94082980Y-59708820D02*
X93847000Y-59944800D01*
D15*
X98224095Y-86635847D02*
X98188047Y-86635847D01*
D16*
X89552000Y-74324800D02*
X93322000Y-78094800D01*
X89142000Y-58624800D02*
X90462000Y-59944800D01*
X90462000Y-59944800D02*
X91452000Y-59944800D01*
D15*
X98702000Y-87149800D02*
X98652000Y-87099800D01*
X98652000Y-87099800D02*
X98652000Y-87063752D01*
D16*
X93322000Y-78094800D02*
X93322000Y-84299800D01*
X94876020Y-59708820D02*
X95352000Y-60184800D01*
X89552000Y-67049800D02*
X89552000Y-74324800D01*
X95658047Y-86635847D02*
X98188047Y-86635847D01*
X100142000Y-54989800D02*
X98627000Y-53474800D01*
X140852000Y-54989800D02*
X100142000Y-54989800D01*
X89142000Y-55674800D02*
X89142000Y-58624800D01*
X93322000Y-84299800D02*
X95658047Y-86635847D01*
X98652000Y-87063752D02*
X98224095Y-86635847D01*
X141142000Y-54989800D02*
X140852000Y-54989800D01*
G04 #@! TA.AperFunction,Conductor*
G36*
X141277677Y-56449485D02*
G01*
X141298319Y-56466119D01*
X142330681Y-57498481D01*
X142364166Y-57559804D01*
X142367000Y-57586162D01*
X142367000Y-61519800D01*
X147655681Y-66808481D01*
X147689166Y-66869804D01*
X147692000Y-66896162D01*
X147692000Y-77039800D01*
X146477000Y-75824800D01*
X139402000Y-75824800D01*
X138802000Y-76424800D01*
X138802000Y-77694800D01*
X138268319Y-77161119D01*
X138234834Y-77099796D01*
X138232000Y-77073438D01*
X138232000Y-64879800D01*
X136792000Y-63439800D01*
X116078362Y-63439800D01*
X116011323Y-63420115D01*
X115990681Y-63403481D01*
X115663319Y-63076119D01*
X115629834Y-63014796D01*
X115627000Y-62988438D01*
X115627000Y-57566162D01*
X115646685Y-57499123D01*
X115663319Y-57478481D01*
X116675681Y-56466119D01*
X116737004Y-56432634D01*
X116763362Y-56429800D01*
X141210638Y-56429800D01*
X141277677Y-56449485D01*
G37*
G04 #@! TD.AperFunction*
G04 #@! TA.AperFunction,Conductor*
G36*
X147692000Y-77039800D02*
G01*
X147692000Y-94093792D01*
X147673093Y-94151983D01*
X147663004Y-94163796D01*
X147405996Y-94420804D01*
X147351479Y-94448581D01*
X147335992Y-94449800D01*
X143293008Y-94449800D01*
X143234817Y-94430893D01*
X143223004Y-94420804D01*
X142905996Y-94103796D01*
X142902369Y-94096678D01*
X142895907Y-94091983D01*
X142888743Y-94069934D01*
X142878219Y-94049279D01*
X142877000Y-94033792D01*
X142877000Y-93982286D01*
X144085200Y-93982286D01*
X144177977Y-94029558D01*
X144372587Y-94092791D01*
X144574685Y-94124800D01*
X144779315Y-94124800D01*
X144981412Y-94092791D01*
X145176027Y-94029556D01*
X145268799Y-93982286D01*
X144676999Y-93390486D01*
X144085200Y-93982286D01*
X142877000Y-93982286D01*
X142877000Y-92722484D01*
X143377000Y-92722484D01*
X143377000Y-92927115D01*
X143409008Y-93129212D01*
X143472243Y-93323827D01*
X143519512Y-93416599D01*
X144111312Y-92824799D01*
X144042195Y-92755682D01*
X144152000Y-92755682D01*
X144152000Y-92893918D01*
X144187778Y-93027442D01*
X144256896Y-93147157D01*
X144354643Y-93244904D01*
X144474358Y-93314022D01*
X144607882Y-93349800D01*
X144746118Y-93349800D01*
X144879642Y-93314022D01*
X144999357Y-93244904D01*
X145097104Y-93147157D01*
X145166222Y-93027442D01*
X145202000Y-92893918D01*
X145202000Y-92824799D01*
X145242686Y-92824799D01*
X145834486Y-93416599D01*
X145881756Y-93323827D01*
X145944991Y-93129212D01*
X145977000Y-92927115D01*
X145977000Y-92722484D01*
X145944991Y-92520387D01*
X145881758Y-92325777D01*
X145834486Y-92233000D01*
X145242686Y-92824799D01*
X145202000Y-92824799D01*
X145202000Y-92755682D01*
X145166222Y-92622158D01*
X145097104Y-92502443D01*
X144999357Y-92404696D01*
X144879642Y-92335578D01*
X144746118Y-92299800D01*
X144607882Y-92299800D01*
X144474358Y-92335578D01*
X144354643Y-92404696D01*
X144256896Y-92502443D01*
X144187778Y-92622158D01*
X144152000Y-92755682D01*
X144042195Y-92755682D01*
X143519512Y-92232999D01*
X143472243Y-92325772D01*
X143409008Y-92520387D01*
X143377000Y-92722484D01*
X142877000Y-92722484D01*
X142877000Y-91667312D01*
X144085199Y-91667312D01*
X144676999Y-92259112D01*
X145268799Y-91667312D01*
X145176027Y-91620043D01*
X144981412Y-91556808D01*
X144779315Y-91524800D01*
X144574685Y-91524800D01*
X144372587Y-91556808D01*
X144177972Y-91620043D01*
X144085199Y-91667312D01*
X142877000Y-91667312D01*
X142877000Y-79749801D01*
X142877000Y-79749800D01*
X141602000Y-78474800D01*
X141601999Y-78474800D01*
X139623008Y-78474800D01*
X139564817Y-78455893D01*
X139553004Y-78445804D01*
X138802000Y-77694800D01*
X138802000Y-76424800D01*
X139402000Y-75824800D01*
X146477000Y-75824800D01*
X147692000Y-77039800D01*
G37*
G04 #@! TD.AperFunction*
G04 #@! TA.AperFunction,Conductor*
G36*
X102269005Y-89244485D02*
G01*
X102314760Y-89297289D01*
X102325966Y-89348800D01*
X102325966Y-93079262D01*
X102326375Y-93096993D01*
X102327000Y-93106806D01*
X102327000Y-93674800D01*
X102795681Y-94143481D01*
X102829166Y-94204804D01*
X102832000Y-94231162D01*
X102832000Y-108128438D01*
X102812315Y-108195477D01*
X102795681Y-108216119D01*
X101848819Y-109162981D01*
X101787496Y-109196466D01*
X101761138Y-109199300D01*
X94852862Y-109199300D01*
X94785823Y-109179615D01*
X94765181Y-109162981D01*
X93168319Y-107566119D01*
X93134834Y-107504796D01*
X93132000Y-107478438D01*
X93132000Y-95131162D01*
X93151685Y-95064123D01*
X93168319Y-95043481D01*
X96125681Y-92086119D01*
X96187004Y-92052634D01*
X96213362Y-92049800D01*
X99422000Y-92049800D01*
X99752000Y-91719800D01*
X99752000Y-91091162D01*
X99771685Y-91024123D01*
X99788319Y-91003481D01*
X100085681Y-90706119D01*
X100147004Y-90672634D01*
X100173362Y-90669800D01*
X100972000Y-90669800D01*
X101267000Y-90374800D01*
X101267000Y-89348800D01*
X101286685Y-89281761D01*
X101339489Y-89236006D01*
X101391000Y-89224800D01*
X102201966Y-89224800D01*
X102269005Y-89244485D01*
G37*
G04 #@! TD.AperFunction*
G04 #@! TA.AperFunction,Conductor*
G36*
X136577000Y-91649800D02*
G01*
X137119567Y-91649800D01*
X137085197Y-91667312D01*
X137677000Y-92259114D01*
X137677001Y-92259114D01*
X138268801Y-91667312D01*
X138234431Y-91649800D01*
X140619567Y-91649800D01*
X140585197Y-91667312D01*
X141177000Y-92259114D01*
X141177001Y-92259114D01*
X141768801Y-91667312D01*
X141734431Y-91649800D01*
X142402000Y-91649800D01*
X142402000Y-92157258D01*
X142377947Y-92187107D01*
X142379162Y-92188322D01*
X142367872Y-92199611D01*
X142365172Y-92202963D01*
X142364196Y-92203287D01*
X141742685Y-92824799D01*
X141742685Y-92824800D01*
X142379162Y-93461277D01*
X142378461Y-93461977D01*
X142391003Y-93470686D01*
X142395222Y-93477798D01*
X142397794Y-93479963D01*
X142402000Y-93487866D01*
X142402000Y-94649800D01*
X142902000Y-95149800D01*
X147800638Y-95149800D01*
X147830078Y-95158444D01*
X147860065Y-95164968D01*
X147865080Y-95168722D01*
X147867677Y-95169485D01*
X147888319Y-95186119D01*
X147965681Y-95263481D01*
X147999166Y-95324804D01*
X148002000Y-95351162D01*
X148002000Y-98749800D01*
X147352000Y-99399800D01*
X139852000Y-99399800D01*
X139452000Y-98999800D01*
X139452000Y-97699800D01*
X136969779Y-95217579D01*
X136981500Y-95158659D01*
X136981500Y-94950941D01*
X136981500Y-94950938D01*
X136981499Y-94950936D01*
X136940977Y-94747221D01*
X136940976Y-94747214D01*
X136900626Y-94649800D01*
X136861488Y-94555311D01*
X136861487Y-94555309D01*
X136746083Y-94382596D01*
X136746080Y-94382592D01*
X136599207Y-94235719D01*
X136599203Y-94235716D01*
X136426490Y-94120312D01*
X136426488Y-94120311D01*
X136271608Y-94056158D01*
X136271599Y-94056155D01*
X136234586Y-94040824D01*
X136195802Y-94033109D01*
X136189927Y-94031323D01*
X136165638Y-94015383D01*
X136139896Y-94001917D01*
X136136779Y-93996443D01*
X136131514Y-93992988D01*
X136126749Y-93982285D01*
X137085198Y-93982285D01*
X137177968Y-94029555D01*
X137372582Y-94092790D01*
X137574683Y-94124800D01*
X137779317Y-94124800D01*
X137981417Y-94092790D01*
X138176031Y-94029555D01*
X138268801Y-93982285D01*
X140585198Y-93982285D01*
X140677968Y-94029555D01*
X140872582Y-94092790D01*
X141074683Y-94124800D01*
X141279317Y-94124800D01*
X141481417Y-94092790D01*
X141676031Y-94029555D01*
X141768801Y-93982285D01*
X141177001Y-93390485D01*
X141177000Y-93390485D01*
X140585198Y-93982285D01*
X138268801Y-93982285D01*
X137677001Y-93390485D01*
X137677000Y-93390485D01*
X137085198Y-93982285D01*
X136126749Y-93982285D01*
X136119699Y-93966447D01*
X136105323Y-93941200D01*
X136104210Y-93931653D01*
X136103099Y-93929157D01*
X136103565Y-93926119D01*
X136102000Y-93912686D01*
X136102000Y-92722482D01*
X136377000Y-92722482D01*
X136377000Y-92927117D01*
X136409009Y-93129217D01*
X136472243Y-93323827D01*
X136472246Y-93323834D01*
X136519512Y-93416601D01*
X137111314Y-92824800D01*
X137111314Y-92824799D01*
X137042197Y-92755682D01*
X137152000Y-92755682D01*
X137152000Y-92893918D01*
X137187778Y-93027442D01*
X137256896Y-93147157D01*
X137354643Y-93244904D01*
X137474358Y-93314022D01*
X137607882Y-93349800D01*
X137746118Y-93349800D01*
X137879642Y-93314022D01*
X137999357Y-93244904D01*
X138097104Y-93147157D01*
X138166222Y-93027442D01*
X138202000Y-92893918D01*
X138202000Y-92824799D01*
X138242685Y-92824799D01*
X138242685Y-92824800D01*
X138834485Y-93416600D01*
X138881755Y-93323831D01*
X138944990Y-93129217D01*
X138977000Y-92927117D01*
X138977000Y-92722482D01*
X139877000Y-92722482D01*
X139877000Y-92927117D01*
X139909009Y-93129217D01*
X139972243Y-93323827D01*
X139972246Y-93323834D01*
X140019512Y-93416601D01*
X140611314Y-92824800D01*
X140611314Y-92824799D01*
X140542197Y-92755682D01*
X140652000Y-92755682D01*
X140652000Y-92893918D01*
X140687778Y-93027442D01*
X140756896Y-93147157D01*
X140854643Y-93244904D01*
X140974358Y-93314022D01*
X141107882Y-93349800D01*
X141246118Y-93349800D01*
X141379642Y-93314022D01*
X141499357Y-93244904D01*
X141597104Y-93147157D01*
X141666222Y-93027442D01*
X141702000Y-92893918D01*
X141702000Y-92755682D01*
X141666222Y-92622158D01*
X141597104Y-92502443D01*
X141499357Y-92404696D01*
X141379642Y-92335578D01*
X141246118Y-92299800D01*
X141107882Y-92299800D01*
X140974358Y-92335578D01*
X140854643Y-92404696D01*
X140756896Y-92502443D01*
X140687778Y-92622158D01*
X140652000Y-92755682D01*
X140542197Y-92755682D01*
X140019512Y-92232997D01*
X139972242Y-92325773D01*
X139972242Y-92325774D01*
X139909010Y-92520378D01*
X139909010Y-92520381D01*
X139877000Y-92722482D01*
X138977000Y-92722482D01*
X138944990Y-92520382D01*
X138881755Y-92325768D01*
X138834485Y-92232998D01*
X138242685Y-92824799D01*
X138202000Y-92824799D01*
X138202000Y-92755682D01*
X138166222Y-92622158D01*
X138097104Y-92502443D01*
X137999357Y-92404696D01*
X137879642Y-92335578D01*
X137746118Y-92299800D01*
X137607882Y-92299800D01*
X137474358Y-92335578D01*
X137354643Y-92404696D01*
X137256896Y-92502443D01*
X137187778Y-92622158D01*
X137152000Y-92755682D01*
X137042197Y-92755682D01*
X136519512Y-92232997D01*
X136472242Y-92325773D01*
X136472242Y-92325774D01*
X136409010Y-92520378D01*
X136409010Y-92520381D01*
X136377000Y-92722482D01*
X136102000Y-92722482D01*
X136102000Y-91174800D01*
X136577000Y-91649800D01*
G37*
G04 #@! TD.AperFunction*
G04 #@! TA.AperFunction,Conductor*
G36*
X136517677Y-64119485D02*
G01*
X136538319Y-64136119D01*
X137565681Y-65163481D01*
X137599166Y-65224804D01*
X137602000Y-65251162D01*
X137602000Y-77023438D01*
X137582315Y-77090477D01*
X137565681Y-77111119D01*
X136243319Y-78433481D01*
X136181996Y-78466966D01*
X136155638Y-78469800D01*
X129970000Y-78469800D01*
X128852000Y-77351800D01*
X128852000Y-76336610D01*
X129202000Y-76336610D01*
X129208417Y-76439973D01*
X129208418Y-76439976D01*
X129259432Y-76683272D01*
X129259435Y-76683282D01*
X129349793Y-76914849D01*
X129477046Y-77128408D01*
X129637703Y-77318094D01*
X129637705Y-77318096D01*
X129827391Y-77478753D01*
X130040950Y-77606006D01*
X130272517Y-77696364D01*
X130272527Y-77696367D01*
X130452000Y-77733998D01*
X132952000Y-77733998D01*
X133131472Y-77696367D01*
X133131482Y-77696364D01*
X133363049Y-77606006D01*
X133576608Y-77478753D01*
X133766294Y-77318096D01*
X133766296Y-77318094D01*
X133926953Y-77128408D01*
X134054206Y-76914849D01*
X134144564Y-76683282D01*
X134144567Y-76683272D01*
X134195581Y-76439976D01*
X134195582Y-76439973D01*
X134201999Y-76336610D01*
X134202000Y-76336593D01*
X134202000Y-74303800D01*
X132952000Y-74303800D01*
X132952000Y-77733998D01*
X130452000Y-77733998D01*
X130452000Y-74303800D01*
X129202000Y-74303800D01*
X129202000Y-76336610D01*
X128852000Y-76336610D01*
X128852000Y-69770989D01*
X129202000Y-69770989D01*
X129202000Y-71803800D01*
X130452000Y-71803800D01*
X130452000Y-70787974D01*
X131202000Y-70787974D01*
X131202000Y-75319626D01*
X131236075Y-75446793D01*
X131301901Y-75560807D01*
X131394993Y-75653899D01*
X131509007Y-75719725D01*
X131636174Y-75753800D01*
X131767826Y-75753800D01*
X131894993Y-75719725D01*
X132009007Y-75653899D01*
X132102099Y-75560807D01*
X132167925Y-75446793D01*
X132202000Y-75319626D01*
X132202000Y-71803800D01*
X132952000Y-71803800D01*
X134202000Y-71803800D01*
X134202000Y-69771006D01*
X134201999Y-69770989D01*
X134195582Y-69667626D01*
X134195581Y-69667623D01*
X134144567Y-69424327D01*
X134144564Y-69424317D01*
X134054206Y-69192750D01*
X133926953Y-68979191D01*
X133766296Y-68789505D01*
X133766294Y-68789503D01*
X133576608Y-68628846D01*
X133363049Y-68501593D01*
X133131480Y-68411234D01*
X133131472Y-68411232D01*
X132952000Y-68373600D01*
X132952000Y-71803800D01*
X132202000Y-71803800D01*
X132202000Y-70787974D01*
X132167925Y-70660807D01*
X132102099Y-70546793D01*
X132009007Y-70453701D01*
X131894993Y-70387875D01*
X131767826Y-70353800D01*
X131636174Y-70353800D01*
X131509007Y-70387875D01*
X131394993Y-70453701D01*
X131301901Y-70546793D01*
X131236075Y-70660807D01*
X131202000Y-70787974D01*
X130452000Y-70787974D01*
X130452000Y-68373600D01*
X130451999Y-68373600D01*
X130272527Y-68411232D01*
X130272519Y-68411234D01*
X130040950Y-68501593D01*
X129827391Y-68628846D01*
X129637705Y-68789503D01*
X129637703Y-68789505D01*
X129477046Y-68979191D01*
X129349793Y-69192750D01*
X129259435Y-69424317D01*
X129259432Y-69424327D01*
X129208418Y-69667623D01*
X129208417Y-69667626D01*
X129202000Y-69770989D01*
X128852000Y-69770989D01*
X128852000Y-68224800D01*
X130052000Y-68224800D01*
X130427000Y-67849800D01*
X130427000Y-64099800D01*
X136450638Y-64099800D01*
X136517677Y-64119485D01*
G37*
G04 #@! TD.AperFunction*
G04 #@! TA.AperFunction,Conductor*
G36*
X104452000Y-87399800D02*
G01*
X104602000Y-87549800D01*
X104602000Y-93574800D01*
X104227000Y-93949800D01*
X103502000Y-93949800D01*
X102631466Y-93079266D01*
X102631466Y-87349800D01*
X102706466Y-87274800D01*
X104452000Y-87274800D01*
X104452000Y-87399800D01*
G37*
G04 #@! TD.AperFunction*
G04 #@! TA.AperFunction,Conductor*
G36*
X130427000Y-67849800D02*
G01*
X130052000Y-68224800D01*
X125852000Y-68224800D01*
X125852000Y-64526162D01*
X125871685Y-64459123D01*
X125888319Y-64438481D01*
X126190681Y-64136119D01*
X126252004Y-64102634D01*
X126278362Y-64099800D01*
X130427000Y-64099800D01*
X130427000Y-67849800D01*
G37*
G04 #@! TD.AperFunction*
G04 #@! TA.AperFunction,Conductor*
G36*
X99021191Y-62048707D02*
G01*
X99057155Y-62098207D01*
X99062000Y-62128800D01*
X99062000Y-66708792D01*
X99043093Y-66766983D01*
X99033004Y-66778796D01*
X96552000Y-69259800D01*
X96551999Y-69259799D01*
X96492000Y-69319799D01*
X96492000Y-73768792D01*
X96473093Y-73826983D01*
X96463004Y-73838796D01*
X95370996Y-74930804D01*
X95316479Y-74958581D01*
X95300992Y-74959800D01*
X90865111Y-74959800D01*
X90806920Y-74940893D01*
X90795107Y-74930804D01*
X90031496Y-74167193D01*
X90003719Y-74112676D01*
X90002500Y-74097189D01*
X90002500Y-67400308D01*
X90021407Y-67342117D01*
X90031496Y-67330304D01*
X92653004Y-64708796D01*
X92707521Y-64681019D01*
X92723008Y-64679800D01*
X96271999Y-64679800D01*
X96272000Y-64679800D01*
X96962000Y-63989800D01*
X96962000Y-62320808D01*
X96980907Y-62262617D01*
X96990996Y-62250804D01*
X97183004Y-62058796D01*
X97237521Y-62031019D01*
X97253008Y-62029800D01*
X98963000Y-62029800D01*
X99021191Y-62048707D01*
G37*
G04 #@! TD.AperFunction*
G04 #@! TA.AperFunction,Conductor*
G36*
X118251784Y-86869985D02*
G01*
X118272426Y-86886619D01*
X119168622Y-87782815D01*
X119202107Y-87844138D01*
X119197123Y-87913830D01*
X119168623Y-87958177D01*
X119052000Y-88074800D01*
X119052000Y-97499800D01*
X120252000Y-98699800D01*
X135602000Y-98699800D01*
X136102000Y-98199800D01*
X136102000Y-96196913D01*
X136121685Y-96129874D01*
X136174489Y-96084119D01*
X136201805Y-96075296D01*
X136234586Y-96068776D01*
X136426493Y-95989286D01*
X136599204Y-95873883D01*
X136746083Y-95727004D01*
X136861486Y-95554293D01*
X136940976Y-95362386D01*
X136969779Y-95217579D01*
X139452000Y-97699800D01*
X139452000Y-98999800D01*
X139852000Y-99399800D01*
X147352000Y-99399800D01*
X148002000Y-98749800D01*
X148002000Y-107998437D01*
X147982315Y-108065476D01*
X147965681Y-108086118D01*
X146921965Y-109129833D01*
X146860642Y-109163318D01*
X146774067Y-109182151D01*
X146756556Y-109184669D01*
X146573731Y-109197745D01*
X146556417Y-109198984D01*
X146547572Y-109199300D01*
X132400740Y-109199300D01*
X132397000Y-109199526D01*
X132396987Y-109199323D01*
X132389126Y-109199800D01*
X122366534Y-109199800D01*
X122299495Y-109180115D01*
X122297643Y-109178902D01*
X122101366Y-109047754D01*
X122101365Y-109047753D01*
X122101360Y-109047750D01*
X122101355Y-109047747D01*
X122101348Y-109047743D01*
X121798450Y-108885840D01*
X121798438Y-108885835D01*
X121481119Y-108754397D01*
X121241679Y-108681764D01*
X121152431Y-108654691D01*
X121152428Y-108654690D01*
X121152427Y-108654690D01*
X120815554Y-108587681D01*
X120574732Y-108563963D01*
X120473737Y-108554016D01*
X120130263Y-108554016D01*
X120038323Y-108563071D01*
X119788445Y-108587681D01*
X119451572Y-108654690D01*
X119122880Y-108754397D01*
X118805561Y-108885835D01*
X118805549Y-108885840D01*
X118502651Y-109047743D01*
X118502633Y-109047754D01*
X118306357Y-109178902D01*
X118239679Y-109199780D01*
X118237466Y-109199800D01*
X108214876Y-109199800D01*
X108207014Y-109199323D01*
X108207002Y-109199526D01*
X108203262Y-109199300D01*
X108203254Y-109199300D01*
X108117893Y-109199300D01*
X105602862Y-109199300D01*
X105535823Y-109179615D01*
X105515181Y-109162981D01*
X104088319Y-107736119D01*
X104054834Y-107674796D01*
X104052000Y-107648438D01*
X104052000Y-94499800D01*
X103502000Y-93949800D01*
X104227000Y-93949800D01*
X104602000Y-93574800D01*
X104602000Y-87549800D01*
X104452000Y-87399800D01*
X104452000Y-87274800D01*
X102706466Y-87274800D01*
X102631466Y-87349800D01*
X102631466Y-89348800D01*
X102624484Y-89283859D01*
X102613278Y-89232348D01*
X102602320Y-89194142D01*
X102599790Y-89189817D01*
X102568962Y-89137103D01*
X102552000Y-89074503D01*
X102552000Y-86974300D01*
X102571685Y-86907261D01*
X102624489Y-86861506D01*
X102676000Y-86850300D01*
X118184745Y-86850300D01*
X118251784Y-86869985D01*
G37*
G04 #@! TD.AperFunction*
G04 #@! TA.AperFunction,Conductor*
G36*
X113611933Y-56700674D02*
G01*
X113678904Y-56720586D01*
X113699192Y-56736992D01*
X114715681Y-57753481D01*
X114749166Y-57814804D01*
X114752000Y-57841162D01*
X114752000Y-63224800D01*
X115652000Y-64124800D01*
X123550638Y-64124800D01*
X123617677Y-64144485D01*
X123638319Y-64161119D01*
X124615681Y-65138481D01*
X124649166Y-65199804D01*
X124652000Y-65226162D01*
X124652000Y-78399800D01*
X125752000Y-79499800D01*
X136477000Y-79499800D01*
X136202000Y-79774800D01*
X136202000Y-86899800D01*
X120227000Y-86899800D01*
X120226999Y-86899800D01*
X119910377Y-87216422D01*
X119849054Y-87249907D01*
X119779362Y-87244923D01*
X119735015Y-87216422D01*
X118647915Y-86129322D01*
X118647913Y-86129320D01*
X118602250Y-86102956D01*
X118556589Y-86076593D01*
X118505657Y-86062946D01*
X118454727Y-86049300D01*
X118454726Y-86049300D01*
X102676000Y-86049300D01*
X102608961Y-86029615D01*
X102563206Y-85976811D01*
X102552000Y-85925300D01*
X102552000Y-85409686D01*
X102571685Y-85342647D01*
X102588319Y-85322005D01*
X102622509Y-85287815D01*
X102694984Y-85162285D01*
X102732500Y-85022275D01*
X102732500Y-84877325D01*
X102694984Y-84737315D01*
X102622509Y-84611785D01*
X102588319Y-84577595D01*
X102554834Y-84516272D01*
X102552000Y-84489914D01*
X102552000Y-80924801D01*
X102551999Y-80924799D01*
X99108449Y-77493665D01*
X106002000Y-77493665D01*
X106008303Y-77605899D01*
X106008304Y-77605912D01*
X106058455Y-77870970D01*
X106058460Y-77870987D01*
X106147560Y-78125620D01*
X106147562Y-78125624D01*
X106273621Y-78364139D01*
X106273624Y-78364145D01*
X106433824Y-78581208D01*
X106624591Y-78771975D01*
X106841654Y-78932175D01*
X106841660Y-78932178D01*
X107080175Y-79058237D01*
X107080179Y-79058239D01*
X107334812Y-79147339D01*
X107334831Y-79147345D01*
X107551998Y-79188433D01*
X107552000Y-79188433D01*
X110052000Y-79188433D01*
X110052001Y-79188433D01*
X110269168Y-79147345D01*
X110269187Y-79147339D01*
X110523820Y-79058239D01*
X110523824Y-79058237D01*
X110762339Y-78932178D01*
X110762345Y-78932175D01*
X110979408Y-78771975D01*
X111170175Y-78581208D01*
X111330375Y-78364145D01*
X111330378Y-78364139D01*
X111456437Y-78125624D01*
X111456439Y-78125620D01*
X111545539Y-77870987D01*
X111545544Y-77870970D01*
X111595695Y-77605912D01*
X111595696Y-77605899D01*
X111601999Y-77493665D01*
X111602000Y-77493651D01*
X111602000Y-75453800D01*
X110052000Y-75453800D01*
X110052000Y-79188433D01*
X107552000Y-79188433D01*
X107552000Y-75453800D01*
X106002000Y-75453800D01*
X106002000Y-77493665D01*
X99108449Y-77493665D01*
X97388477Y-75779895D01*
X97354882Y-75718633D01*
X97352000Y-75692056D01*
X97352000Y-70913934D01*
X106002000Y-70913934D01*
X106002000Y-72953800D01*
X107552000Y-72953800D01*
X107552000Y-71937974D01*
X108302000Y-71937974D01*
X108302000Y-76469626D01*
X108336075Y-76596793D01*
X108401901Y-76710807D01*
X108494993Y-76803899D01*
X108609007Y-76869725D01*
X108736174Y-76903800D01*
X108867826Y-76903800D01*
X108994993Y-76869725D01*
X109109007Y-76803899D01*
X109202099Y-76710807D01*
X109267925Y-76596793D01*
X109302000Y-76469626D01*
X109302000Y-72953800D01*
X110052000Y-72953800D01*
X111602000Y-72953800D01*
X111602000Y-70913948D01*
X111601999Y-70913934D01*
X111595696Y-70801700D01*
X111595695Y-70801687D01*
X111545544Y-70536629D01*
X111545539Y-70536612D01*
X111456439Y-70281979D01*
X111456437Y-70281975D01*
X111330378Y-70043460D01*
X111330375Y-70043454D01*
X111170175Y-69826391D01*
X110979408Y-69635624D01*
X110762345Y-69475424D01*
X110762339Y-69475421D01*
X110523824Y-69349362D01*
X110523820Y-69349360D01*
X110269187Y-69260260D01*
X110269170Y-69260255D01*
X110052000Y-69219164D01*
X110052000Y-72953800D01*
X109302000Y-72953800D01*
X109302000Y-71937974D01*
X109267925Y-71810807D01*
X109202099Y-71696793D01*
X109109007Y-71603701D01*
X108994993Y-71537875D01*
X108867826Y-71503800D01*
X108736174Y-71503800D01*
X108609007Y-71537875D01*
X108494993Y-71603701D01*
X108401901Y-71696793D01*
X108336075Y-71810807D01*
X108302000Y-71937974D01*
X107552000Y-71937974D01*
X107552000Y-69219164D01*
X107551999Y-69219164D01*
X107334829Y-69260255D01*
X107334812Y-69260260D01*
X107080179Y-69349360D01*
X107080175Y-69349362D01*
X106841660Y-69475421D01*
X106841654Y-69475424D01*
X106624591Y-69635624D01*
X106433824Y-69826391D01*
X106273624Y-70043454D01*
X106273621Y-70043460D01*
X106147562Y-70281975D01*
X106147560Y-70281979D01*
X106058460Y-70536612D01*
X106058455Y-70536629D01*
X106008304Y-70801687D01*
X106008303Y-70801700D01*
X106002000Y-70913934D01*
X97352000Y-70913934D01*
X97352000Y-69851162D01*
X97371685Y-69784123D01*
X97388319Y-69763481D01*
X97932636Y-69219164D01*
X99311466Y-67840334D01*
X99311466Y-66933671D01*
X99326584Y-66874335D01*
X99333641Y-66861386D01*
X99352548Y-66803195D01*
X99367500Y-66708792D01*
X99367500Y-65900834D01*
X100181466Y-66714800D01*
X100777000Y-66714800D01*
X101402000Y-66089800D01*
X101402000Y-60064800D01*
X101252000Y-59914800D01*
X101252000Y-59789800D01*
X99506466Y-59789800D01*
X99311466Y-59984800D01*
X99311466Y-59526492D01*
X99331151Y-59459453D01*
X99347931Y-59438665D01*
X102097891Y-56698030D01*
X102159269Y-56664651D01*
X102185833Y-56661863D01*
X113611933Y-56700674D01*
G37*
G04 #@! TD.AperFunction*
G04 #@! TA.AperFunction,Conductor*
G36*
X101252000Y-59914800D02*
G01*
X101402000Y-60064800D01*
X101402000Y-66089800D01*
X100777000Y-66714800D01*
X100181466Y-66714800D01*
X99367500Y-65900834D01*
X99367500Y-62128806D01*
X99367500Y-62128800D01*
X99363739Y-62081014D01*
X99358894Y-62050421D01*
X99352487Y-62020046D01*
X99352486Y-62020043D01*
X99323463Y-61958953D01*
X99311466Y-61905743D01*
X99311466Y-61074811D01*
X99328079Y-61012811D01*
X99344121Y-60985023D01*
X99391688Y-60902636D01*
X99427500Y-60768983D01*
X99427500Y-60630617D01*
X99391688Y-60496964D01*
X99328078Y-60386787D01*
X99311466Y-60324788D01*
X99311466Y-59984800D01*
X99506466Y-59789800D01*
X101252000Y-59789800D01*
X101252000Y-59914800D01*
G37*
G04 #@! TD.AperFunction*
G04 #@! TA.AperFunction,Conductor*
G36*
X155467677Y-52319485D02*
G01*
X155488319Y-52336119D01*
X156621752Y-53469552D01*
X156655237Y-53530875D01*
X156658071Y-53557233D01*
X156658071Y-61670700D01*
X156638386Y-61737739D01*
X156585582Y-61783494D01*
X156516424Y-61793438D01*
X156465180Y-61773802D01*
X156351366Y-61697754D01*
X156351365Y-61697753D01*
X156351360Y-61697750D01*
X156351355Y-61697747D01*
X156351348Y-61697743D01*
X156048450Y-61535840D01*
X156048438Y-61535835D01*
X155731119Y-61404397D01*
X155498491Y-61333830D01*
X155402431Y-61304691D01*
X155402428Y-61304690D01*
X155402427Y-61304690D01*
X155065554Y-61237681D01*
X154824732Y-61213963D01*
X154723737Y-61204016D01*
X154380263Y-61204016D01*
X154288323Y-61213071D01*
X154038445Y-61237681D01*
X153701572Y-61304690D01*
X153372880Y-61404397D01*
X153055561Y-61535835D01*
X153055549Y-61535840D01*
X152752651Y-61697743D01*
X152752633Y-61697754D01*
X152467060Y-61888568D01*
X152467046Y-61888578D01*
X152201538Y-62106475D01*
X151958675Y-62349338D01*
X151740778Y-62614846D01*
X151740768Y-62614860D01*
X151549954Y-62900433D01*
X151549943Y-62900451D01*
X151388040Y-63203349D01*
X151388035Y-63203361D01*
X151256597Y-63520680D01*
X151156890Y-63849372D01*
X151089881Y-64186245D01*
X151077762Y-64309300D01*
X151056404Y-64526162D01*
X151056216Y-64528066D01*
X151056216Y-64871533D01*
X151089881Y-65213354D01*
X151156890Y-65550227D01*
X151256597Y-65878919D01*
X151388035Y-66196238D01*
X151388040Y-66196250D01*
X151549943Y-66499148D01*
X151549954Y-66499166D01*
X151740768Y-66784739D01*
X151740778Y-66784753D01*
X151958675Y-67050261D01*
X152201538Y-67293124D01*
X152201543Y-67293128D01*
X152201544Y-67293129D01*
X152467052Y-67511026D01*
X152752640Y-67701850D01*
X152752649Y-67701855D01*
X152752651Y-67701856D01*
X153055549Y-67863759D01*
X153055551Y-67863759D01*
X153055557Y-67863763D01*
X153165033Y-67909109D01*
X153372880Y-67995202D01*
X153372884Y-67995203D01*
X153372886Y-67995204D01*
X153701569Y-68094909D01*
X154038443Y-68161918D01*
X154380263Y-68195584D01*
X154380266Y-68195584D01*
X154723734Y-68195584D01*
X154723737Y-68195584D01*
X155065557Y-68161918D01*
X155402431Y-68094909D01*
X155731114Y-67995204D01*
X156048443Y-67863763D01*
X156351360Y-67701850D01*
X156465182Y-67625796D01*
X156531857Y-67604919D01*
X156599237Y-67623403D01*
X156645928Y-67675382D01*
X156658071Y-67728899D01*
X156658071Y-76448438D01*
X156638386Y-76515477D01*
X156621752Y-76536119D01*
X155994890Y-77162981D01*
X155933567Y-77196466D01*
X155907209Y-77199300D01*
X150400746Y-77199300D01*
X150276306Y-77214410D01*
X150100449Y-77235763D01*
X149855258Y-77296197D01*
X149825583Y-77299800D01*
X149203362Y-77299800D01*
X149136323Y-77280115D01*
X149115681Y-77263481D01*
X148588319Y-76736119D01*
X148554834Y-76674796D01*
X148552000Y-76648438D01*
X148552000Y-66699800D01*
X145442691Y-63590491D01*
X147051500Y-63590491D01*
X147051500Y-63709109D01*
X147082201Y-63823686D01*
X147141511Y-63926413D01*
X147225387Y-64010289D01*
X147328114Y-64069599D01*
X147442691Y-64100300D01*
X147442694Y-64100300D01*
X147561306Y-64100300D01*
X147561309Y-64100300D01*
X147675886Y-64069599D01*
X147778613Y-64010289D01*
X147862489Y-63926413D01*
X147921799Y-63823686D01*
X147952500Y-63709109D01*
X147952500Y-63590491D01*
X147921799Y-63475914D01*
X147862489Y-63373187D01*
X147778613Y-63289311D01*
X147675886Y-63230001D01*
X147561309Y-63199300D01*
X147442691Y-63199300D01*
X147328114Y-63230001D01*
X147328112Y-63230001D01*
X147328112Y-63230002D01*
X147225387Y-63289311D01*
X147225384Y-63289313D01*
X147141513Y-63373184D01*
X147141511Y-63373187D01*
X147082201Y-63475914D01*
X147051500Y-63590491D01*
X145442691Y-63590491D01*
X143652631Y-61800431D01*
X143651405Y-61799188D01*
X142811893Y-60935690D01*
X142779275Y-60873901D01*
X142776801Y-60849744D01*
X142770494Y-59260491D01*
X149351500Y-59260491D01*
X149351500Y-59379109D01*
X149382201Y-59493686D01*
X149441511Y-59596413D01*
X149525387Y-59680289D01*
X149628114Y-59739599D01*
X149742691Y-59770300D01*
X149742694Y-59770300D01*
X149861306Y-59770300D01*
X149861309Y-59770300D01*
X149975886Y-59739599D01*
X150078613Y-59680289D01*
X150162489Y-59596413D01*
X150221799Y-59493686D01*
X150252500Y-59379109D01*
X150252500Y-59260491D01*
X150221799Y-59145914D01*
X150162489Y-59043187D01*
X150078613Y-58959311D01*
X149975886Y-58900001D01*
X149861309Y-58869300D01*
X149742691Y-58869300D01*
X149628114Y-58900001D01*
X149628112Y-58900001D01*
X149628112Y-58900002D01*
X149525387Y-58959311D01*
X149525384Y-58959313D01*
X149441513Y-59043184D01*
X149441511Y-59043187D01*
X149382201Y-59145914D01*
X149351500Y-59260491D01*
X142770494Y-59260491D01*
X142759799Y-56565401D01*
X142763203Y-56553637D01*
X142762039Y-56541445D01*
X142772731Y-56520704D01*
X142779217Y-56498287D01*
X142789229Y-56488702D01*
X142794055Y-56479342D01*
X142821796Y-56457526D01*
X142892140Y-56416913D01*
X142954140Y-56400300D01*
X143099860Y-56400300D01*
X143161859Y-56416912D01*
X143253114Y-56469599D01*
X143367691Y-56500300D01*
X143367694Y-56500300D01*
X143486306Y-56500300D01*
X143486309Y-56500300D01*
X143600886Y-56469599D01*
X143703613Y-56410289D01*
X143787489Y-56326413D01*
X143846799Y-56223686D01*
X143877500Y-56109109D01*
X143877500Y-55990491D01*
X143846799Y-55875914D01*
X143787489Y-55773187D01*
X143703613Y-55689311D01*
X143600886Y-55630001D01*
X143486309Y-55599300D01*
X143367691Y-55599300D01*
X143253114Y-55630001D01*
X143161859Y-55682687D01*
X143146371Y-55686837D01*
X143134795Y-55694277D01*
X143099860Y-55699300D01*
X142954140Y-55699300D01*
X142892138Y-55682686D01*
X142817699Y-55639707D01*
X142769484Y-55589139D01*
X142755702Y-55532813D01*
X142753394Y-54951194D01*
X142753393Y-54951192D01*
X142522246Y-54720045D01*
X142442692Y-54640491D01*
X145481500Y-54640491D01*
X145481500Y-54759109D01*
X145512201Y-54873686D01*
X145571511Y-54976413D01*
X145655387Y-55060289D01*
X145758114Y-55119599D01*
X145872691Y-55150300D01*
X145872694Y-55150300D01*
X145991306Y-55150300D01*
X145991309Y-55150300D01*
X146105886Y-55119599D01*
X146208613Y-55060289D01*
X146292489Y-54976413D01*
X146351799Y-54873686D01*
X146382500Y-54759109D01*
X146382500Y-54640491D01*
X146351799Y-54525914D01*
X146292489Y-54423187D01*
X146208613Y-54339311D01*
X146105886Y-54280001D01*
X145991309Y-54249300D01*
X145872691Y-54249300D01*
X145758114Y-54280001D01*
X145758112Y-54280001D01*
X145758112Y-54280002D01*
X145655387Y-54339311D01*
X145655384Y-54339313D01*
X145571513Y-54423184D01*
X145571511Y-54423187D01*
X145512201Y-54525914D01*
X145481500Y-54640491D01*
X142442692Y-54640491D01*
X142202000Y-54399800D01*
X100503362Y-54399800D01*
X100473921Y-54391155D01*
X100443935Y-54384632D01*
X100438919Y-54380877D01*
X100436323Y-54380115D01*
X100415681Y-54363481D01*
X100288319Y-54236119D01*
X100254834Y-54174796D01*
X100252000Y-54148438D01*
X100252000Y-52651162D01*
X100271685Y-52584123D01*
X100288319Y-52563481D01*
X100515681Y-52336119D01*
X100577004Y-52302634D01*
X100603362Y-52299800D01*
X155400638Y-52299800D01*
X155467677Y-52319485D01*
G37*
G04 #@! TD.AperFunction*
G04 #@! TA.AperFunction,Conductor*
G36*
X128852000Y-77351800D02*
G01*
X129970000Y-78469800D01*
X134781999Y-78469800D01*
X134760238Y-78478814D01*
X134726996Y-78496966D01*
X134700638Y-78499800D01*
X126603362Y-78499800D01*
X126536323Y-78480115D01*
X126515681Y-78463481D01*
X125888319Y-77836119D01*
X125854834Y-77774796D01*
X125852000Y-77748438D01*
X125852000Y-68224800D01*
X128852000Y-68224800D01*
X128852000Y-77351800D01*
G37*
G04 #@! TD.AperFunction*
G04 #@! TA.AperFunction,Conductor*
G36*
X141244183Y-79518707D02*
G01*
X141255996Y-79528796D01*
X142573004Y-80845804D01*
X142600781Y-80900321D01*
X142602000Y-80915808D01*
X142602000Y-91458792D01*
X142599531Y-91466389D01*
X142600781Y-91474279D01*
X142590256Y-91494934D01*
X142583093Y-91516983D01*
X142573004Y-91528796D01*
X142480996Y-91620804D01*
X142426479Y-91648581D01*
X142410992Y-91649800D01*
X141734429Y-91649800D01*
X141676027Y-91620043D01*
X141481412Y-91556808D01*
X141279315Y-91524800D01*
X141074685Y-91524800D01*
X140872587Y-91556808D01*
X140677972Y-91620043D01*
X140619569Y-91649800D01*
X138234429Y-91649800D01*
X138176027Y-91620043D01*
X137981412Y-91556808D01*
X137779315Y-91524800D01*
X137574685Y-91524800D01*
X137372587Y-91556808D01*
X137177972Y-91620043D01*
X137119569Y-91649800D01*
X136577000Y-91649800D01*
X136102000Y-91174800D01*
X136102000Y-87424800D01*
X135577000Y-86899800D01*
X136202000Y-86899800D01*
X136202000Y-79774800D01*
X136477000Y-79499800D01*
X141185992Y-79499800D01*
X141244183Y-79518707D01*
G37*
G04 #@! TD.AperFunction*
G04 #@! TA.AperFunction,Conductor*
G36*
X134861427Y-87869485D02*
G01*
X134882069Y-87886119D01*
X135265681Y-88269731D01*
X135299166Y-88331054D01*
X135302000Y-88357412D01*
X135302000Y-91400800D01*
X135282315Y-91467839D01*
X135229511Y-91513594D01*
X135178000Y-91524800D01*
X134577000Y-91524800D01*
X134577000Y-92482339D01*
X134499357Y-92404696D01*
X134379642Y-92335578D01*
X134246118Y-92299800D01*
X134107882Y-92299800D01*
X133974358Y-92335578D01*
X133854643Y-92404696D01*
X133756896Y-92502443D01*
X133687778Y-92622158D01*
X133652000Y-92755682D01*
X133652000Y-92893918D01*
X133687778Y-93027442D01*
X133756896Y-93147157D01*
X133854643Y-93244904D01*
X133974358Y-93314022D01*
X134107882Y-93349800D01*
X134246118Y-93349800D01*
X134379642Y-93314022D01*
X134499357Y-93244904D01*
X134577000Y-93167261D01*
X134577000Y-94124799D01*
X135066351Y-94124799D01*
X135133390Y-94144484D01*
X135179145Y-94197288D01*
X135189089Y-94266446D01*
X135160064Y-94330002D01*
X135154032Y-94336480D01*
X135107919Y-94382592D01*
X135107916Y-94382596D01*
X134992512Y-94555309D01*
X134992511Y-94555311D01*
X134913025Y-94747209D01*
X134913022Y-94747221D01*
X134872500Y-94950936D01*
X134872500Y-95158663D01*
X134913022Y-95362378D01*
X134913025Y-95362390D01*
X134992511Y-95554288D01*
X134992512Y-95554290D01*
X135107916Y-95727003D01*
X135107919Y-95727007D01*
X135254793Y-95873881D01*
X135256661Y-95875414D01*
X135257376Y-95876464D01*
X135259103Y-95878191D01*
X135258775Y-95878518D01*
X135295998Y-95933158D01*
X135302000Y-95971270D01*
X135302000Y-97448438D01*
X135282315Y-97515477D01*
X135265681Y-97536119D01*
X134988319Y-97813481D01*
X134926996Y-97846966D01*
X134900638Y-97849800D01*
X120458362Y-97849800D01*
X120391323Y-97830115D01*
X120370681Y-97813481D01*
X119988319Y-97431119D01*
X119954834Y-97369796D01*
X119952000Y-97343438D01*
X119952000Y-93869585D01*
X132877001Y-93869585D01*
X132877002Y-93869608D01*
X132879908Y-93894669D01*
X132879909Y-93894673D01*
X132925211Y-93997274D01*
X132925214Y-93997279D01*
X133004520Y-94076585D01*
X133004525Y-94076588D01*
X133107123Y-94121889D01*
X133132206Y-94124799D01*
X133776999Y-94124799D01*
X133777000Y-94124798D01*
X133777000Y-93224800D01*
X132877001Y-93224800D01*
X132877001Y-93869585D01*
X119952000Y-93869585D01*
X119952000Y-91780005D01*
X132877000Y-91780005D01*
X132877000Y-92424800D01*
X133777000Y-92424800D01*
X133777000Y-91524800D01*
X133132214Y-91524800D01*
X133132191Y-91524802D01*
X133107130Y-91527708D01*
X133107126Y-91527709D01*
X133004525Y-91573011D01*
X133004520Y-91573014D01*
X132925214Y-91652320D01*
X132925211Y-91652325D01*
X132879910Y-91754922D01*
X132879910Y-91754924D01*
X132877000Y-91780005D01*
X119952000Y-91780005D01*
X119952000Y-88601162D01*
X119971685Y-88534123D01*
X119988319Y-88513481D01*
X120615681Y-87886119D01*
X120677004Y-87852634D01*
X120703362Y-87849800D01*
X134794388Y-87849800D01*
X134861427Y-87869485D01*
G37*
G04 #@! TD.AperFunction*
D17*
X148552000Y-79699800D02*
X148552000Y-107699800D01*
X108052001Y-109699800D02*
G75*
G02*
X110052000Y-111699799I-1J-2000000D01*
G01*
X84051999Y-51699800D02*
X156552000Y-51699800D01*
X84051998Y-77699800D02*
G75*
G02*
X82052000Y-75699802I2J2000000D01*
G01*
X92052000Y-107699802D02*
X92052000Y-79699799D01*
X148552000Y-107699800D02*
G75*
G02*
X146552000Y-109699800I-2000000J0D01*
G01*
X148552000Y-79699800D02*
G75*
G02*
X150552000Y-77699800I2000000J0D01*
G01*
D18*
X156252000Y-64699800D02*
G75*
G02*
X152852000Y-64699800I-1700000J0D01*
G01*
X152852000Y-64699800D02*
G75*
G02*
X156252000Y-64699800I1700000J0D01*
G01*
D17*
X130552000Y-115699800D02*
G75*
G02*
X128552000Y-117699800I-2000000J0D01*
G01*
X112051998Y-117699800D02*
X128552000Y-117699800D01*
X112051998Y-117699800D02*
G75*
G02*
X110052000Y-115699802I2J2000000D01*
G01*
X146552000Y-109699800D02*
X132552000Y-109699800D01*
X156552000Y-77699800D02*
X150552000Y-77699800D01*
X82052000Y-53699799D02*
X82052000Y-75699802D01*
X108052001Y-109699800D02*
X94051998Y-109699800D01*
X94051998Y-109699800D02*
G75*
G02*
X92052000Y-107699802I2J2000000D01*
G01*
D18*
X122002000Y-112049800D02*
G75*
G02*
X118602000Y-112049800I-1700000J0D01*
G01*
X118602000Y-112049800D02*
G75*
G02*
X122002000Y-112049800I1700000J0D01*
G01*
D17*
X158552000Y-75699800D02*
X158552000Y-53699800D01*
X82052000Y-53699799D02*
G75*
G02*
X84051999Y-51699800I2000000J-1D01*
G01*
D18*
X87752000Y-64699800D02*
G75*
G02*
X84352000Y-64699800I-1700000J0D01*
G01*
X84352000Y-64699800D02*
G75*
G02*
X87752000Y-64699800I1700000J0D01*
G01*
D17*
X110052000Y-115699802D02*
X110052000Y-111699799D01*
X158552000Y-75699800D02*
G75*
G02*
X156552000Y-77699800I-2000000J0D01*
G01*
X130552000Y-111699800D02*
G75*
G02*
X132552000Y-109699800I2000000J0D01*
G01*
X156552000Y-51699800D02*
G75*
G02*
X158552000Y-53699800I0J-2000000D01*
G01*
X130552000Y-111699800D02*
X130552000Y-115699800D01*
X90052001Y-77699800D02*
G75*
G02*
X92052000Y-79699799I-1J-2000000D01*
G01*
X90052001Y-77699800D02*
X84051998Y-77699800D01*
M02*
